<svg xmlns="http://www.w3.org/2000/svg" xmlns:xlink="http://www.w3.org/1999/xlink" viewBox="0 0 685.1 485.21"><defs><style>.cls-1{fill:none;}.cls-2{isolation:isolate;}.cls-3{fill:#e3f3fd;}.cls-11,.cls-12,.cls-14,.cls-15,.cls-16,.cls-17,.cls-18,.cls-19,.cls-20,.cls-21,.cls-22,.cls-23,.cls-24,.cls-26,.cls-27,.cls-3,.cls-4,.cls-51,.cls-53,.cls-54,.cls-55,.cls-56,.cls-9{fill-rule:evenodd;}.cls-4,.cls-52{fill:#c3e5f3;}.cls-5{fill:#90a9d5;}.cls-6{fill:#d1ebf8;}.cls-7{fill:#e6e4eb;}.cls-8{fill:#afdaec;}.cls-10,.cls-9{fill:#0e1632;}.cls-11,.cls-25{fill:#fff;}.cls-12{fill:#1a293d;}.cls-13,.cls-55{fill:#0c0e0e;}.cls-14,.cls-50{fill:#05304b;}.cls-15{fill:#d9f1f9;}.cls-16{fill:#0076bd;}.cls-17,.cls-29{fill:#ac3c31;}.cls-18{fill:#3a405c;}.cls-19{fill:#df7668;}.cls-20,.cls-57{fill:#c14a44;}.cls-20,.cls-37,.cls-57{opacity:0.2;}.cls-20,.cls-34,.cls-36,.cls-37,.cls-41,.cls-42,.cls-44,.cls-45,.cls-57{mix-blend-mode:multiply;}.cls-21{fill:#e68392;}.cls-22{fill:#f2f0f0;}.cls-23{fill:#0d435e;}.cls-24{fill:#15536b;}.cls-26{fill:#01020e;}.cls-27{fill:#00000f;}.cls-28{fill:#222a48;}.cls-30{fill:#ed978e;}.cls-31,.cls-44{fill:#e98c4d;}.cls-31,.cls-45{opacity:0.45;}.cls-31,.cls-43,.cls-46{mix-blend-mode:screen;}.cls-32,.cls-45,.cls-46{fill:#6c293e;}.cls-33{fill:#f4a9c4;}.cls-35,.cls-36{fill:#da774e;}.cls-37{fill:#320033;}.cls-38{fill:#3f3632;}.cls-39{clip-path:url(#clip-path);}.cls-40{fill:#f28b60;}.cls-41,.cls-42,.cls-43{opacity:0.4;}.cls-41{fill:url(#radial-gradient);}.cls-42{fill:url(#radial-gradient-2);}.cls-43{fill:url(#radial-gradient-3);}.cls-44{opacity:0.42;}.cls-47{fill:#6e2e1c;}.cls-48,.cls-53{fill:#252626;}.cls-49,.cls-51{fill:#f3fbff;}.cls-54{fill:#dff0f2;}.cls-56{fill:#afd6e2;}</style><clipPath id="clip-path"><path class="cls-1" d="M182.41,272.12c-.78-3-4.47-2-6.8-1.9s-4.5.19-6.75.15-4.25-.29-6.37-.29c-1.38,0-3.06-.46-4.15.68-2.26,2.4.8,6.51,2.76,8a15.5,15.5,0,0,0,8.93,2.85,14.6,14.6,0,0,0,8.14-2.25c2.16-1.39,4.86-4.19,4.29-7Z"/></clipPath><radialGradient id="radial-gradient" cx="213.63" cy="259.02" r="7.14" gradientTransform="matrix(0.97, 0, 0, 1, -58.15, 3.01)" gradientUnits="userSpaceOnUse"><stop offset="0" stop-color="#e98c4d"/><stop offset="0.84" stop-color="#e98c4d" stop-opacity="0"/></radialGradient><radialGradient id="radial-gradient-2" cx="-195.74" cy="1233.58" r="7.14" gradientTransform="matrix(0.9, -0.39, 0.38, 0.92, -96.99, -951.59)" xlink:href="#radial-gradient"/><radialGradient id="radial-gradient-3" cx="186.91" cy="441.29" r="9.52" gradientTransform="matrix(0.97, -0.08, 0.08, 1, -45.37, -188.8)" xlink:href="#radial-gradient"/></defs><title>ESFJs</title><g class="cls-2"><g id="Layer_2" data-name="Layer 2"><g id="OBJECTS"><rect class="cls-1" x="0.06" width="685.04" height="485.21"/><path class="cls-3" d="M157,328.15H99.87A56.08,56.08,0,0,0,44,384.07h0A56.08,56.08,0,0,0,99.87,440H583.06c49.8,0,90.55-40.75,90.55-90.55h0c0-49.8-40.75-90.55-90.55-90.55h0a38.4,38.4,0,0,1-38.28-38.29h0a38.4,38.4,0,0,1,38.29-38.29h46.08a39.92,39.92,0,0,0,39.8-39.8h0a39.92,39.92,0,0,0-39.8-39.8H570.87a15.54,15.54,0,0,1-15.5-15.5h0a15.54,15.54,0,0,1,15.5-15.5h10.27A10.73,10.73,0,0,0,591.84,61h0a10.73,10.73,0,0,0-10.69-10.7h-67.4c-14.19,0-15.77,16.77-51.63,16.77H358.82a14,14,0,0,0-14,14h0a14,14,0,0,0,14,14h13.4a20.28,20.28,0,0,1,20.22,20.22h0a20.28,20.28,0,0,1-20.22,20.22H352.05c-54.46,0-62.16,14.23-71.7,42.54s-59.08,30.59-59.08,30.59H153.53a30.56,30.56,0,0,0-30.47,30.47h0a30.56,30.56,0,0,0,30.47,30.47H157a29.4,29.4,0,0,1,29.31,29.31h0A29.4,29.4,0,0,1,157,328.15ZM611.16,71.72A10.7,10.7,0,1,1,621.85,61,10.7,10.7,0,0,1,611.16,71.72Z"/><path class="cls-4" d="M161.83,440h4.9V410.26l18.56,18.56L174.12,440h4.61l8.86-8.86,8.86,8.86h4.62L189.9,428.82l18.56-18.56V440h4.9V208.59h-4.9v5.64l-5.64-5.64h-4.61l10.25,10.25v.28L187.59,240l-20.87-20.87v-.28L177,208.59h-4.61l-5.64,5.64v-5.64h-4.9v61.34a29,29,0,0,1,4.9,1.26v-.83l1.35,1.35a29.59,29.59,0,0,1,16.08,16.08l1.14,1.14-.51.51a28.83,28.83,0,0,1,1,3.63l1.84-1.84,20.87,20.87v.28l-20.87,20.87-11.88-11.88a29.61,29.61,0,0,1-2.65,2l12.22,12.22-18.56,18.56V326.49a29.08,29.08,0,0,1-4.9,1.26V440Zm4.9-39.24V363.62l18.56,18.56-18.56,18.56Zm0-139.89V223.73l18.56,18.56-18.56,18.56Zm41.73-37.12v37.12L189.9,242.29l18.56-18.56Zm0,46.63v37.12L189.9,288.92l18.56-18.56Zm0,46.63v37.12L189.9,335.55,208.46,317Zm0,46.63v37.12L189.9,382.18l18.56-18.56Zm-41.73-98.16,20.87-20.87,20.87,20.87v.28l-20.87,20.87-20.87-20.87v-.28Zm0,93.26,20.87-20.87,20.87,20.87V359l-20.87,20.87L166.73,359v-.28Zm0,46.63,20.87-20.87,20.87,20.87v.28l-20.87,20.87-20.87-20.87Z"/><path class="cls-4" d="M504.21,440h4.9V410.26l18.56,18.56L516.5,440h4.61l8.86-8.86,8.86,8.86h4.61l-11.17-11.17,18.56-18.56V440h4.9V247.35a38.72,38.72,0,0,1-4.9-6.13v19.64l-18.56-18.56,13.41-13.41a38.15,38.15,0,0,1-.66-4L530,240l-20.87-20.87v-.28L530,198l15.48,15.48q.36-1.89.91-3.71l-14.08-14.08,18.56-18.56V200a38.69,38.69,0,0,1,4.9-6.13V90.52a15.41,15.41,0,0,1-.36-3.3h0a15.4,15.4,0,0,1,.36-3.3V50.33h-4.9v24L532.28,55.77l5.44-5.44h-4.61L530,53.46l-3.13-3.13h-4.62l5.44,5.44L509.11,74.33V51a21,21,0,0,0-4.9,2.26V440Zm4.9-39.24V363.62l18.56,18.56-18.56,18.56Zm0-46.63V317l18.56,18.56-18.56,18.56Zm0-46.63V270.36l18.56,18.56-18.56,18.56Zm0-46.63V223.73l18.56,18.56-18.56,18.56Zm0-46.63V177.1l18.56,18.56-18.56,18.56Zm0-46.63V130.47L527.67,149l-18.56,18.56Zm0-46.63V83.84l18.56,18.56L509.11,121Zm41.73-37.12V121L532.28,102.4l18.56-18.56Zm0,46.63v37.12L532.28,149l18.56-18.56Zm0,139.89v37.12l-18.56-18.56,18.56-18.56Zm0,46.63v37.12l-18.56-18.56L550.84,317Zm0,46.63v37.12l-18.56-18.56,18.56-18.56ZM509.11,78.94,530,58.08l20.87,20.87v.28L530,100.09,509.11,79.23v-.28Zm0,46.63L530,104.71l20.87,20.87v.28L530,146.72l-20.87-20.87v-.28Zm0,46.63L530,151.34l20.87,20.87v.28L530,193.35l-20.87-20.87v-.28Zm0,93.26L530,244.6l20.87,20.87v.28L530,286.62l-20.87-20.87v-.28Zm0,46.63L530,291.23l20.87,20.87v.28L530,333.25l-20.87-20.87v-.28Zm0,46.63L530,337.86l20.87,20.87V359L530,379.88,509.11,359v-.28Zm0,46.63L530,384.49l20.87,20.87v.28L530,426.51l-20.87-20.87Z"/><path class="cls-4" d="M144.5,328.15h-7.21V337l-8.84-8.84h-6.8l15.64,15.64v.41L106.54,375,75.79,344.21v-.41l14.88-14.87a55.25,55.25,0,0,0-9.15,2.35L75.79,337v-3.36a55.94,55.94,0,0,0-7.21,4.16v92.55a56,56,0,0,0,7.21,4.16V419.72l20.13,20.13q2,.14,4,.14h3L75.79,412.92v-.41l30.75-30.75,30.75,30.75v.41L110.22,440H117l20.27-20.27V440h7.21V328.15Zm0-118.19a30.73,30.73,0,0,0-17.16,13.58l9.95-9.95v51.22a30.42,30.42,0,0,0,7.21,3.35V210ZM75.79,405.7V351l27.35,27.35L75.79,405.7Zm61.5-54.7v54.7l-27.35-27.35Z"/><path class="cls-4" d="M573.07,440h7.21V419.72l18.83,18.83c1.89-.34,3.75-.75,5.6-1.2l-24.43-24.43v-.41L611,381.75l30.75,30.75v.41l-16.61,16.61A91.42,91.42,0,0,0,649,411.34V287.54a91.86,91.86,0,0,0-10-9.21L611,306.24,580.28,275.5v-.41l15.31-15.32q-3-.43-6.15-.65l-9.16,9.16v-9.5a38,38,0,0,1-7.21-1.23V440Zm0-256.33a38,38,0,0,1,7.21-1.23V144.88l27.35,27.35-10.09,10.09h6.8l6.7-6.69,6.69,6.69h6.8l-10.09-10.09,27.35-27.35v35.37A39.69,39.69,0,0,0,649,177V108.05a39.67,39.67,0,0,0-7.21-3.27v26.08l-27.35-27.35.81-.81h-8.41l.81.81-27.35,27.35V102.71h-7.21v80.94Zm0-111.94h8.08a10.7,10.7,0,0,0,1.39-.09l-2.26-2.26V69l11.08-11.08a10.72,10.72,0,0,0-2.53-4.27l-8.55,8.55V50.33h-7.21V71.72Zm7.21,334V351l27.35,27.35L580.28,405.7Zm0-68.71V282.3l27.35,27.35L580.28,337Zm61.49-54.7V337l-27.35-27.35,27.35-27.35Zm0,68.71v54.7l-27.35-27.35L641.77,351ZM580.28,137.67,611,106.92l30.75,30.75v.41L611,168.83l-30.75-30.75v-.41Zm0,206.13L611,313l30.75,30.75v.41L611,375l-30.75-30.75Z"/><rect class="cls-5" x="130.29" y="350.98" width="56.43" height="41.93" rx="3.62" ry="3.62"/><rect class="cls-6" x="162.56" y="350.98" width="56.43" height="41.93" rx="3.62" ry="3.62"/><rect class="cls-5" x="170.5" y="364.83" width="40.55" height="14.23" rx="2.07" ry="2.07"/><rect class="cls-7" x="174.73" y="367.25" width="18.81" height="3.11" rx="0.45" ry="0.45"/><rect class="cls-7" x="174.73" y="372.16" width="9.75" height="3.11" rx="0.45" ry="0.45"/><rect class="cls-8" x="161.77" y="392.91" width="67.62" height="50.25" rx="4.34" ry="4.34"/><rect class="cls-6" x="123.1" y="392.91" width="67.62" height="50.25" rx="4.34" ry="4.34"/><rect class="cls-5" x="132.62" y="409.51" width="48.59" height="17.06" rx="2.48" ry="2.48"/><rect class="cls-7" x="153.6" y="412.4" width="22.54" height="3.72" rx="0.54" ry="0.54"/><rect class="cls-7" x="164.46" y="418.3" width="11.68" height="3.72" rx="0.54" ry="0.54"/><path class="cls-4" d="M23.85,247.1a15.88,15.88,0,1,1-3.45,5.16,15.93,15.93,0,0,1,3.45-5.16ZM29.57,245a14.5,14.5,0,1,0,5.52-1.09A14.44,14.44,0,0,0,29.57,245Zm-1.76-11.7a25.92,25.92,0,0,0-8.39,4.21A26.11,26.11,0,0,0,17,239.59a1.65,1.65,0,0,1-1,.45,1.67,1.67,0,0,1-1-.21c-2.33-1.35-4.79-2.68-7.07-4.09a1,1,0,0,0-.34-.11,1.06,1.06,0,0,0-.39,0,1,1,0,0,0-.36.17,1,1,0,0,0-.26.29c-1.7,2.57-3.41,5.9-5,8.63a1,1,0,0,0-.12.37,1.06,1.06,0,0,0,0,.4,1,1,0,0,0,.17.36,1,1,0,0,0,.29.26c2.1,1.39,4.8,2.78,7,4.06a1.66,1.66,0,0,1,.7.79,1.63,1.63,0,0,1,.1.35l.14,0-.16.66q-.19.77-.33,1.54t-.24,1.57c-.06.53-.11,1.06-.14,1.58s0,1,0,1.6,0,1.09,0,1.6.08,1,.14,1.58.15,1.07.24,1.57.21,1,.33,1.55a1.66,1.66,0,0,1-.86,1.88l-6.23,3.59h0l-.74.43a1,1,0,0,0-.29.26,1,1,0,0,0-.17.36,1.06,1.06,0,0,0,0,.4,1,1,0,0,0,.12.37l4.61,8h0l.37.65a1,1,0,0,0,.26.29,1,1,0,0,0,.36.18,1.05,1.05,0,0,0,.4,0,1,1,0,0,0,.36-.12c2.23-1.4,4.75-2.74,7-4.07a1.66,1.66,0,0,1,2,.24h0a26.37,26.37,0,0,0,2.42,2.07,25.82,25.82,0,0,0,8.46,4.22,1.66,1.66,0,0,1,1.21,1.6v8.12a1,1,0,0,0,.08.38,1,1,0,0,0,.55.55,1,1,0,0,0,.38.07h10a1,1,0,0,0,.38-.07,1.07,1.07,0,0,0,.33-.22,1.08,1.08,0,0,0,.22-.33,1,1,0,0,0,.08-.38V285a1.68,1.68,0,0,1,1.28-1.62,25.51,25.51,0,0,0,2.93-1,25.79,25.79,0,0,0,2.81-1.41,26.22,26.22,0,0,0,5.07-3.82,1.67,1.67,0,0,1,2.07-.19l7,4a1,1,0,0,0,.37.12,1.06,1.06,0,0,0,.4,0,1,1,0,0,0,.36-.18,1,1,0,0,0,.26-.29c1.65-2.88,3.33-5.75,5-8.63a1,1,0,0,0,.12-.37,1,1,0,0,0,0-.4,1,1,0,0,0-.17-.36,1,1,0,0,0-.29-.26l-7-4.06a1.65,1.65,0,0,1-.7-.79,1.59,1.59,0,0,1-.09-.27l-.18,0,.18-.75c.13-.52.24-1,.33-1.55s.17-1,.24-1.57.11-1.06.14-1.58,0-1,0-1.6,0-1.09,0-1.6-.08-1-.14-1.58-.15-1.08-.24-1.57-.21-1-.33-1.54a1.66,1.66,0,0,1,.85-1.88l7-4a1,1,0,0,0,.29-.26,1,1,0,0,0,.17-.36,1,1,0,0,0,0-.4,1,1,0,0,0-.12-.37c-1.7-2.53-3.41-5.91-5-8.63a1,1,0,0,0-.26-.29,1,1,0,0,0-.36-.17,1.07,1.07,0,0,0-.4,0,1,1,0,0,0-.37.13l-7,4.06a1.64,1.64,0,0,1-1.06.21,1.68,1.68,0,0,1-1-.47,26,26,0,0,0-5.05-3.8,25.87,25.87,0,0,0-5.81-2.47,1.66,1.66,0,0,1-1.21-1.6v-8.13a1,1,0,0,0-.08-.38,1,1,0,0,0-.22-.33,1,1,0,0,0-.71-.3h-10a1,1,0,0,0-.38.07,1,1,0,0,0-.33.22,1,1,0,0,0-.3.71v8.13a1.67,1.67,0,0,1-1.28,1.62ZM24.3,233A27.58,27.58,0,0,0,16,238.53a.19.19,0,0,1-.11.05.2.2,0,0,1-.12,0l-7.1-4.1a2.45,2.45,0,0,0-.89-.28,2.51,2.51,0,0,0-1.8.5,2.44,2.44,0,0,0-.64.72C3.6,238.18,2,241.19.33,244a2.45,2.45,0,0,0-.31.92,2.5,2.5,0,0,0,.49,1.84,2.44,2.44,0,0,0,.72.64c2.26,1.4,4.72,2.73,7,4.06a.19.19,0,0,1,.08.09.2.2,0,0,1,0,.12l-.16.66h0q-.11.48-.2,1-.15.84-.25,1.66t-.15,1.67q-.05.86-.05,1.68c0,.55,0,1.11.05,1.68s.08,1.13.15,1.67.15,1.1.25,1.66.22,1.1.35,1.63a.19.19,0,0,1,0,.13.19.19,0,0,1-.09.09c-2.59,1.38-5.21,3-7.77,4.48l.09.11-.08.1A2.5,2.5,0,0,0,0,271.74a2.43,2.43,0,0,0,.31.92l5.36,9.28.1-.06L6,282a2.49,2.49,0,0,0,1.83.49,2.46,2.46,0,0,0,.89-.29c2.34-1.24,4.76-2.75,7.07-4.08a.2.2,0,0,1,.12,0,.21.21,0,0,1,.12.05,27.49,27.49,0,0,0,5.35,4,27.3,27.3,0,0,0,6.15,2.61.2.2,0,0,1,.1.07.19.19,0,0,1,0,.12v8.12a2.47,2.47,0,0,0,.73,1.75,2.5,2.5,0,0,0,.8.54,2.45,2.45,0,0,0,.95.19h10a2.45,2.45,0,0,0,.95-.19,2.54,2.54,0,0,0,.81-.54,2.49,2.49,0,0,0,.54-.81,2.45,2.45,0,0,0,.19-.95V285a.2.2,0,0,1,0-.12.2.2,0,0,1,.11-.07h0a27.46,27.46,0,0,0,8.91-4.45,27.83,27.83,0,0,0,2.55-2.18.2.2,0,0,1,.12-.05.21.21,0,0,1,.13,0l7,4.06a2.46,2.46,0,0,0,.91.31,2.53,2.53,0,0,0,1-.06,2.48,2.48,0,0,0,1.49-1.13c1.85-3,3.6-6.23,5.36-9.28l-.09-.06c0-.08,0-.16,0-.24a2.51,2.51,0,0,0-.06-1,2.47,2.47,0,0,0-.43-.87,2.42,2.42,0,0,0-.72-.64l-7-4.06a.19.19,0,0,1-.08-.09.2.2,0,0,1,0-.13l.18-.74h0q.09-.43.18-.88c.1-.56.19-1.12.25-1.66s.12-1.1.15-1.67.05-1.14.05-1.68,0-1.11-.05-1.68-.09-1.13-.15-1.67-.15-1.09-.25-1.66-.22-1.1-.35-1.63a.21.21,0,0,1,0-.13.19.19,0,0,1,.09-.09l7-4.06a2.4,2.4,0,0,0,.72-.64,2.49,2.49,0,0,0,.19-2.73c-1.67-3.1-3.6-6.23-5.37-9.3l-.1.06-.17-.14a2.5,2.5,0,0,0-1.83-.49,2.44,2.44,0,0,0-.91.3l-.52.3h0l-6.53,3.77a.2.2,0,0,1-.12,0,.19.19,0,0,1-.11-.06l0,0a27.44,27.44,0,0,0-11.48-6.63.2.2,0,0,1-.1-.07.18.18,0,0,1,0-.12v-8.13a2.47,2.47,0,0,0-.73-1.75,2.49,2.49,0,0,0-.8-.54,2.46,2.46,0,0,0-.95-.19h-10a2.46,2.46,0,0,0-.95.19,2.55,2.55,0,0,0-.81.54,2.47,2.47,0,0,0-.73,1.75v8.13a.21.21,0,0,1,0,.12.2.2,0,0,1-.11.07h0A27.5,27.5,0,0,0,24.3,233Z"/><path class="cls-4" d="M85.7,294.06Zm3.51-13.35a6.75,6.75,0,1,1-2,4.77,6.73,6.73,0,0,1,2-4.77ZM90.67,274A11.87,11.87,0,0,0,88,275.14a12,12,0,0,0-2.32,1.75.41.41,0,0,1-.49.06l-3.14-1.81h0a.78.78,0,0,0-1,.3v0l-2.21,3.82a.78.78,0,0,0,.29,1.06h0l3.11,1.79a.42.42,0,0,1,.2.46h0a12,12,0,0,0,0,5.76.41.41,0,0,1-.22.47l-3.11,1.79h0a.79.79,0,0,0-.29,1.06L81,295.52h0a.78.78,0,0,0,1.06.28h0l3.11-1.8a.42.42,0,0,1,.49.06A12.06,12.06,0,0,0,88,295.81a11.91,11.91,0,0,0,2.66,1.13.41.41,0,0,1,.3.4V301a.78.78,0,0,0,.78.78H96.2A.78.78,0,0,0,97,301v-3.62a.41.41,0,0,1,.32-.4,11.88,11.88,0,0,0,2.64-1.13,12,12,0,0,0,2.32-1.75.41.41,0,0,1,.51,0l3.11,1.8a.78.78,0,0,0,1.06-.28v0l2.21-3.82h0a.78.78,0,0,0-.28-1.06l-3.13-1.81a.41.41,0,0,1-.2-.46h0a12,12,0,0,0,0-5.76.41.41,0,0,1,.22-.47l3.11-1.79a.78.78,0,0,0,.28-1.06v0l-2.21-3.82h0a.78.78,0,0,0-1.06-.29h0L102.75,277a.41.41,0,0,1-.5-.07,12,12,0,0,0-2.31-1.74A11.85,11.85,0,0,0,97.27,274a.41.41,0,0,1-.3-.4V270a.78.78,0,0,0-.78-.78H91.76A.78.78,0,0,0,91,270v3.62A.41.41,0,0,1,90.67,274Z"/><path class="cls-4" d="M230.76,181.17a1.16,1.16,0,1,0-2.31,0v2.72h-2.72a1.16,1.16,0,1,0,0,2.31h2.72v2.72a1.16,1.16,0,0,0,2.31,0v-2.72h2.72a1.16,1.16,0,0,0,0-2.31h-2.72Z"/><path class="cls-4" d="M301.79,106Zm3.51-13.35a6.75,6.75,0,1,1-2,4.77,6.73,6.73,0,0,1,2-4.77Zm1.46-6.69a11.88,11.88,0,0,0-2.64,1.13,12,12,0,0,0-2.32,1.75.41.41,0,0,1-.49.06L298.16,87h0a.78.78,0,0,0-1,.29v0l-2.21,3.82a.78.78,0,0,0,.29,1.06h0L298.3,94a.41.41,0,0,1,.19.46h0a11.9,11.9,0,0,0-.26,1.43,12.1,12.1,0,0,0,0,2.91,11.87,11.87,0,0,0,.26,1.43.41.41,0,0,1-.22.47l-3.11,1.79h0a.78.78,0,0,0-.29,1.06l2.22,3.84h0a.78.78,0,0,0,1.06.29h0l3.11-1.8a.42.42,0,0,1,.49.06,12,12,0,0,0,2.32,1.75,11.81,11.81,0,0,0,2.66,1.13.42.42,0,0,1,.3.4v3.62a.78.78,0,0,0,.78.78h4.44a.78.78,0,0,0,.78-.78v-3.62a.42.42,0,0,1,.32-.4,11.82,11.82,0,0,0,2.64-1.13,12,12,0,0,0,2.32-1.75.41.41,0,0,1,.51,0l3.11,1.8a.78.78,0,0,0,1.06-.29v0l2.21-3.82h0a.78.78,0,0,0-.28-1.06l-3.13-1.81a.41.41,0,0,1-.2-.46h0a12,12,0,0,0,0-5.76.41.41,0,0,1,.22-.47L325,92.24a.78.78,0,0,0,.28-1.06v0L323,87.33h0A.78.78,0,0,0,322,87h0l-3.13,1.81a.41.41,0,0,1-.5-.07A12,12,0,0,0,316,87.05a11.83,11.83,0,0,0-2.66-1.13.41.41,0,0,1-.3-.4V81.91a.78.78,0,0,0-.78-.78h-4.44a.78.78,0,0,0-.78.78v3.62A.41.41,0,0,1,306.76,85.92Z"/><path class="cls-4" d="M681.22,75.48a1.16,1.16,0,1,0-2.31,0V78.2h-2.72a1.16,1.16,0,1,0,0,2.31h2.72v2.72a1.16,1.16,0,1,0,2.31,0V80.51h2.72a1.16,1.16,0,0,0,0-2.31h-2.72Z"/><path class="cls-4" d="M6.78,377.33a1.16,1.16,0,1,0-2.31,0V380H1.75a1.16,1.16,0,1,0,0,2.31H4.47v2.72a1.16,1.16,0,0,0,2.31,0v-2.72H9.5a1.16,1.16,0,0,0,0-2.31H6.78Z"/><path class="cls-4" d="M375.64,167.16Zm3.51-13.35a6.75,6.75,0,1,1-2,4.77,6.73,6.73,0,0,1,2-4.77Zm1.46-6.69a11.91,11.91,0,0,0-5,2.87.41.41,0,0,1-.49.06L372,148.25h0a.78.78,0,0,0-1,.29v0l-2.21,3.82a.78.78,0,0,0,.29,1.06h0l3.11,1.79a.41.41,0,0,1,.19.46h0a11.84,11.84,0,0,0-.26,1.43,12.24,12.24,0,0,0,0,2.91,11.86,11.86,0,0,0,.26,1.43.41.41,0,0,1-.22.47L369,163.72h0a.78.78,0,0,0-.29,1.06l2.22,3.84h0a.78.78,0,0,0,1.06.29h0l3.11-1.8a.41.41,0,0,1,.49.06,11.94,11.94,0,0,0,2.32,1.75,11.77,11.77,0,0,0,2.66,1.13.42.42,0,0,1,.3.4v3.62a.78.78,0,0,0,.78.78h4.44a.78.78,0,0,0,.78-.78v-3.62a.42.42,0,0,1,.32-.4,11.77,11.77,0,0,0,2.64-1.13,11.9,11.9,0,0,0,2.32-1.75.41.41,0,0,1,.52,0l3.11,1.8a.78.78,0,0,0,1.06-.29v0l2.21-3.82h0a.78.78,0,0,0-.28-1.06l-3.13-1.81a.41.41,0,0,1-.19-.46h0a11.83,11.83,0,0,0,.26-1.43,12.1,12.1,0,0,0,0-2.91,11.83,11.83,0,0,0-.26-1.42.41.41,0,0,1,.22-.47l3.11-1.79a.78.78,0,0,0,.28-1.06v0l-2.21-3.82h0a.78.78,0,0,0-1.06-.29h0l-3.14,1.81a.41.41,0,0,1-.5-.07,12,12,0,0,0-2.31-1.74,11.83,11.83,0,0,0-2.66-1.13.41.41,0,0,1-.3-.4V143.1a.78.78,0,0,0-.78-.78H381.7a.78.78,0,0,0-.78.78v3.62A.41.41,0,0,1,380.61,147.12Z"/><path class="cls-4" d="M333.54,149.93a1.16,1.16,0,1,0-2.31,0v2.72h-2.72a1.16,1.16,0,0,0,0,2.31h2.72v2.72a1.16,1.16,0,0,0,2.31,0V155h2.72a1.16,1.16,0,0,0,0-2.31h-2.72Z"/><path class="cls-4" d="M338.26,278.05a1.16,1.16,0,0,0-2.31,0v2.72h-2.72a1.16,1.16,0,0,0,0,2.31h2.72v2.72a1.16,1.16,0,1,0,2.31,0v-2.72H341a1.16,1.16,0,1,0,0-2.31h-2.72Z"/><path class="cls-4" d="M236.86,220.67a1.16,1.16,0,1,0-2.31,0v2.72h-2.72a1.16,1.16,0,1,0,0,2.31h2.72v2.72a1.16,1.16,0,1,0,2.31,0v-2.72h2.72a1.16,1.16,0,0,0,0-2.31h-2.72Z"/><path class="cls-4" d="M621.48,213.82a1.16,1.16,0,0,0-2.31,0v2.72h-2.72a1.16,1.16,0,1,0,0,2.31h2.72v2.72a1.16,1.16,0,1,0,2.31,0v-2.72h2.72a1.16,1.16,0,1,0,0-2.31h-2.72Z"/><path class="cls-9" d="M503.84,128.45a.78.78,0,0,1-1.27-.91,33.07,33.07,0,1,1-5.19,27.21.78.78,0,0,1,1.52-.37,31.55,31.55,0,1,0,4.95-25.93Z"/><path class="cls-9" d="M544.7,132.25c-.88.76-3.25,3.2-4.75,8.37,1.3.87,4.88,3.6,3.2,6.51l-7,12.09c-1.7,2.83-5.81,1.12-7.2.43-3.74,3.89-4.66,7.17-4.88,8.3a10.94,10.94,0,0,0,6.41,1.35,6.89,6.89,0,0,0,5.1-2.87l13.56-23.49a6.94,6.94,0,0,0-.09-5.82,10.93,10.93,0,0,0-4.38-4.87Zm-6.18,8.5c1.86-6.9,5.35-9.58,5.71-9.84a.68.68,0,0,1,.76-.05,12.46,12.46,0,0,1,5.32,5.74,8.31,8.31,0,0,1,0,7l-13.57,23.5a8.28,8.28,0,0,1-6.11,3.53,12.44,12.44,0,0,1-7.61-1.72.67.67,0,0,1-.36-.65s.36-4.56,5.65-9.89a.67.67,0,0,1,.84-.13s4.48,2.59,5.85.28l7-12.06c1.3-2.25-2.77-4.73-3.13-4.94A.67.67,0,0,1,538.52,140.74Z"/><path class="cls-10" d="M503.1,151.84v-2.67l6.19-6.37c1.37-1.45,2.07-2.67,2.07-3.62a2.24,2.24,0,0,0-2.36-2.36,3.18,3.18,0,0,0-3,2.12l-3-1.76a6.42,6.42,0,0,1,6-3.83,6.16,6.16,0,0,1,4.22,1.55,5.23,5.23,0,0,1,1.76,4.14c0,1.89-1,3.81-3,5.8l-3.55,3.55h6.81v3.44Z"/><path class="cls-10" d="M530.47,145.44v3.31h-1.94v3.08h-3.6v-3.08h-8.57v-3.31l6-11.73h3.83l-6,11.73h4.71v-4.3h3.6v4.3Z"/><path class="cls-4" d="M416.28,88h45.08a7,7,0,0,1,7,7v39.27a.78.78,0,0,1-1.34.55l-12-12H416.28a7,7,0,0,1-7-7V95A7,7,0,0,1,416.28,88Z"/><path class="cls-11" d="M411,83.45H456a8,8,0,0,1,8,8v39.27a1.71,1.71,0,0,1-1.06,1.58h0a1.7,1.7,0,0,1-1.86-.37l-11.7-11.7H411a8,8,0,0,1-8-8V91.41a8,8,0,0,1,8-8ZM456,85.31H411a6.12,6.12,0,0,0-6.1,6.1v20.82a6.12,6.12,0,0,0,6.1,6.1h39.18l12,12V91.41a6.12,6.12,0,0,0-6.1-6.1Z"/><path class="cls-11" d="M410.58,91.22a.51.51,0,1,1,0-1h45.83a.51.51,0,1,1,0,1Z"/><path class="cls-11" d="M410.58,96.17a.51.51,0,1,1,0-1h4.85a.51.51,0,0,1,0,1Zm11.32,0a.51.51,0,0,1,0-1h34.51a.51.51,0,1,1,0,1Z"/><path class="cls-11" d="M410.58,101.12a.51.51,0,1,1,0-1h45.83a.51.51,0,1,1,0,1Z"/><path class="cls-11" d="M423.33,107.84a.51.51,0,1,1,0-1h33.08a.51.51,0,1,1,0,1Z"/><path class="cls-11" d="M438.1,113.21a.51.51,0,0,1,0-1h18.31a.51.51,0,1,1,0,1Z"/><path class="cls-11" d="M427.61,113.21a.51.51,0,1,1,0-1h6.55a.51.51,0,1,1,0,1Z"/><path class="cls-12" d="M321,146.78H275.89a8,8,0,0,0-8,8V194a1.71,1.71,0,0,0,1.06,1.58h0a1.7,1.7,0,0,0,1.86-.37l11.7-11.7H321a8,8,0,0,0,8-8V154.73a8,8,0,0,0-8-8Zm-45.08,1.86H321a6.12,6.12,0,0,1,6.1,6.1v20.82a6.12,6.12,0,0,1-6.1,6.1H281.78l-12,12V154.73a6.12,6.12,0,0,1,6.1-6.1Z"/><path class="cls-12" d="M321.34,154.54a.51.51,0,0,0,0-1H275.51a.51.51,0,1,0,0,1Z"/><path class="cls-12" d="M321.34,159.49a.51.51,0,0,0,0-1h-4.85a.51.51,0,0,0,0,1Zm-11.32,0a.51.51,0,0,0,0-1H275.51a.51.51,0,1,0,0,1Z"/><path class="cls-12" d="M321.34,164.45a.51.51,0,0,0,0-1H275.51a.51.51,0,1,0,0,1Z"/><path class="cls-12" d="M308.59,171.16a.51.51,0,0,0,0-1H275.51a.51.51,0,1,0,0,1Z"/><path class="cls-12" d="M293.82,176.53a.51.51,0,1,0,0-1H275.51a.51.51,0,1,0,0,1Z"/><path class="cls-12" d="M304.31,176.53a.51.51,0,0,0,0-1h-6.55a.51.51,0,1,0,0,1Z"/><path class="cls-13" d="M316.57,335.76s-7.12-91.49-7.12-109.65,11.18-37.22,28.42-41.43c11.1-2.71,15.2-3,23.46-1.78s17.75,6.32,24.24,12.7c14.58,14.35,38,71.42,23.56,143.72Z"/><path d="M323.61,335.42s-10-121.73,2.61-128,47.3,39.33,47.3,39.33,19.36,58,18.2,95.17Z"/><path class="cls-14" d="M197.24,307.23c7.82,4.21,12.15,9.2,17.49,16.42,11.87,16.07,16.51,28.38,30,42.88,5,5.34,29.51-36.66,32.35-42.18.55-1.08,2.94-6.27,5-4.64,1,.76,4.26,4.12,6.37,5.19s4.68.52,5.18,3.64c-5.57,20.72-30.35,86.86-59.78,65.09C213,378.19,197.39,354.45,194.73,351c-9.66-12.5-3.37-25-7.68-33.92l0,0-.28-.6-.1-.2-.18-.39h0l-.16-.36-.09-.21-.06-.15h0c-1.83-4.15-1.93-5.8-1.93-5.8l4.06,4.51Z"/><path class="cls-15" d="M114.31,323.76,128,306.46l3-2.6,30.39-11.43,14.06,2.19h0s14,6.83,15.21,6.77a1.7,1.7,0,0,0,.59-.23L199.58,325s5,34.57,5.75,36.92,1.32,35.51-1.29,40.27-.4,12.14-10.46,15.24-31.59,9.09-46-6.19-17.46-23.76-21.07-28.92S114.31,323.76,114.31,323.76Z"/><path class="cls-14" d="M171.74,314.16l.84,1.46s12,36.44,11.55,65.64-15.22,4.24-15,1.75,2.86-50,.31-67.19C169.47,315.81,169.66,313.5,171.74,314.16Z"/><path class="cls-14" d="M178.41,296.27s11.68,27.89,7.28,59.84a286,286,0,0,1-13.7,56.4l-2.24,28h40.37c.28-11.3.69-20.82,1.26-27.25C214.57,377.82,224.36,302.46,178.41,296.27Z"/><path class="cls-16" d="M178.41,296.27s11.68,27.89,7.28,59.84a292.78,292.78,0,0,1-6.06,31.08h0l1.05,4.93c8.68-20.39,22.11-71.9,21.78-72.06s-8.27-.78-8.27-.78c1.89-1.85,4.24-2.8,3.74-3.7S186.26,300.32,184,297.45A38.71,38.71,0,0,0,178.41,296.27Z"/><path class="cls-14" d="M183.91,440.51c-.4-7.38-.77-12.72-1-15.13-4.51-51.77-2.25-86.43-37-127.36-8.14,1.56-22.79,9.2-22.79,9.2-6.45,3.37-12.59,8.77-13.66,16.23-1.52,10.58,10,47.25,17.08,70.22,3.05,9.9,3.43,26.85,2.43,46.83Z"/><path class="cls-17" d="M150.24,263.75l.35,8.3v19.58c0,1.25-1.16,3-3.22,4.61,3.06,3.32,10.61,11,15.34,11.77,6.05.93,13-1.75,14.79-3.25,1.22-1,1.34-6.47,2.06-9.5-.56-.16.08,0-.49-.18a8.94,8.94,0,0,1-3.78-2.18c-2.84-3.1-2.71-16.91.13-20.52S150.24,263.75,150.24,263.75Z"/><path class="cls-4" d="M172.92,304.2l-3.42-1.85s-.29,3.78-.69,3.91-.95-2.38-2.43-3.28-5.44,4.5-5.44,4.5,1.47,4.21,3.59,4.52,8.51,1,8.59-.89S172.92,304.2,172.92,304.2Z"/><path class="cls-14" d="M168.52,308.76a13.35,13.35,0,0,1-5.55-1.84,3.42,3.42,0,0,0-4.4.41l2.43,2.76.19,1.17s3.63-.64,5.94,1S168.52,308.76,168.52,308.76Z"/><path class="cls-11" d="M148.92,292.28s4.3,7.74,15.72,9.73c1.56.33,4.52,3.19,2.43,2.81s-6.74,8.55-7.36,11.92-14.36-14.16-15.23-19.65C144.49,297.08,146.74,292.9,148.92,292.28Z"/><path class="cls-14" d="M173.3,309a4.94,4.94,0,0,0-2.37-1c-1.06,0-3,0-3.81.72a7.45,7.45,0,0,0-1.84,2.9c-.07.53,3.18,3.74,4.18,4.24s2.06-.31,3.12-.19S174,310.09,173.3,309Z"/><path class="cls-11" d="M174.73,292.12s.92,6.83-4.5,9.27a1.24,1.24,0,0,0-.27,2.1c1.21,1.35,3,6.68,3.54,9.08s7.22-9.74,6.75-17.2C180.26,295.38,176.56,292.61,174.73,292.12Z"/><path class="cls-14" d="M123.1,307.23c-7.82,4.21-12.15,9.2-17.49,16.42-11.87,16.07-16.51,28.38-30,42.88-5,5.34-29.52-36.66-32.35-42.18-.55-1.08-2.94-6.27-5-4.64-1,.76-4.26,4.12-6.37,5.19s-4.68.52-5.18,3.64c5.57,20.72,30.35,86.86,59.78,65.09,20.88-15.44,36.44-39.18,39.11-42.62,9.66-12.5,3.37-25,7.69-33.92l0,0,.28-.6.1-.2.18-.39h0l.16-.36.09-.21.07-.15h0c1.83-4.15,1.93-5.8,1.93-5.8l-4.06,4.51Z"/><path class="cls-16" d="M198.79,251.08a1.57,1.57,0,1,0,3.14,0V208.45a21,21,0,0,0-7.55-16.27c-4.1-3.39-10.23-5.85-19.2-6.09-10.43-.28-21.68.52-30.38,4.12-9,3.74-15.34,10.43-15.34,21.85V248.3a1.57,1.57,0,1,0,3.14,0V212.06c0-9.88,5.5-15.68,13.4-19,8.23-3.41,19-4.16,29.1-3.89,8.17.22,13.66,2.39,17.28,5.38a17.88,17.88,0,0,1,6.39,13.85Z"/><path class="cls-18" d="M209,255.77h-1.27a3.17,3.17,0,0,0-3.16,3.16h0a3.17,3.17,0,0,0,3.16,3.16H209a3.17,3.17,0,0,0,3.16-3.16h0A3.17,3.17,0,0,0,209,255.77Z"/><path class="cls-16" d="M195.8,271.51a12.62,12.62,0,0,0,12.58-12.58h0a12.62,12.62,0,0,0-12.58-12.58Z"/><rect class="cls-10" x="193.56" y="243.61" width="4.49" height="30.65" rx="2.24" ry="2.24"/><path class="cls-19" d="M168.46,203.3h0a30.5,30.5,0,0,0-31.63,29.14L135.69,260a30.5,30.5,0,0,0,29.14,31.63h0a30.5,30.5,0,0,0,31.63-29.14l1.13-27.61A30.5,30.5,0,0,0,168.46,203.3Z"/><path class="cls-16" d="M129.48,212.2v36.1a1.57,1.57,0,1,0,3.14,0V212.2Z"/><path class="cls-18" d="M122.67,255.77h1.27a3.17,3.17,0,0,1,3.16,3.16h0a3.17,3.17,0,0,1-3.16,3.16h-1.27a3.17,3.17,0,0,1-3.16-3.16h0A3.17,3.17,0,0,1,122.67,255.77Z"/><path class="cls-16" d="M135.86,271.51a12.62,12.62,0,0,1-12.58-12.58h0a12.62,12.62,0,0,1,12.58-12.58Z"/><path class="cls-9" d="M135.86,243.61h0a2.25,2.25,0,0,1,2.24,2.24V272a2.25,2.25,0,0,1-2.24,2.24h0a2.25,2.25,0,0,1-2.24-2.24V245.85A2.25,2.25,0,0,1,135.86,243.61Z"/><path class="cls-16" d="M181.44,406.32c-3.05-41.68-5.21-72.6-35.55-108.3a47.1,47.1,0,0,0-7.25,2.19c.78,3.78,3.38,16.5,3.59,18.81a1.12,1.12,0,0,0,.76.55c.58.14,8.45-1.17,8.45-1.17s-9.44,6.21-9.87,6.6,39.52,81.58,39.52,81.58Z"/><path class="cls-19" d="M43.4,317.44c.77-4,4.59-13,5.51-14,1.21-1.26-5.18-5.11-7.45,1,0,0-3,4-4.16,3.36s-3.43-16.26-3.62-18.21-2.85-2.1-3.45-1.55,0,3,.11,6.64.29,5.82,0,6.17c-.86,1-5.16-12.21-6.69-13.07-1-.54-4,.76-3.85,2.58s4.92,12.6,5.09,14.17-.76.71-1.46-.15-7.12-11.57-8-12.11-3.69,1.09-3,2.93,6.73,12.6,6.69,13.5-.67.8-2.67-.61-5.94-4.33-7.08-4.05c-.74,0-1.71,2.23.05,4s6,6.47,6.54,7.23c2.85,4.05,4.31,8.51,7,11.37A9.41,9.41,0,0,0,26.52,329C35.18,332.24,41.81,325.79,43.4,317.44Z"/><path class="cls-20" d="M22.29,326c.19.24.39.47.6.69a9.25,9.25,0,0,0,3.29,2.21l.34.13a11.28,11.28,0,0,0,13.58-3.95,18.12,18.12,0,0,0,3.29-7.61l.06-.3C39.68,325.44,30.92,328.66,22.29,326Z"/><path class="cls-21" d="M285,257a8.7,8.7,0,0,0,5.41-6c1.09-4.59,10.61-2.23,10.94-.87s1.38,3.17,1.1,5.59,1,3.17,1,3.17c-6.64,4-7.53.14-14.77,5.8C286.26,266.53,285.45,259.92,285,257Z"/><path class="cls-16" d="M320,299.81l-4.93-7.17s-30.66,10.06-46.37,4.48,20.12-30.09,22.65-32.87-2.27-4.35-3.54-6.44-1.58-4.75-3.06-4.42-38.66,25.91-40.1,49.39,57.87,26.77,63.68,23.69S320,299.81,320,299.81Z"/><path class="cls-14" d="M320,299.81l-4.93-7.17a152.22,152.22,0,0,1-16,4.08c-3,6.06-7.89,13.41-15.19,16.52-13.41,5.71-34.36,2.42-39.25-10.45-1.44,23.49,57.87,26.77,63.68,23.69S320,299.81,320,299.81Zm-55.26-7.1h0c-1.27-7.9,14.45-20.59,16.29-27.09a10,10,0,0,0-1.85-8.52,41,41,0,0,1,5.57-3.72c1.48-.33,1.79,2.32,3.06,4.42s6.06,3.66,3.54,6.44C289.28,266.55,264.44,283.69,264.75,292.72Z"/><path class="cls-22" d="M284.16,252.28a30.83,30.83,0,0,0-3.26,2.18c-.74.68,1.12,4.64,3,8s3.87,5.06,4.45,5.24,2.24-1.33,2.24-1.33Z"/><path class="cls-23" d="M314.18,214.58c-1.06.42-31.26,26.17-33.07,27.62s-1.44,2.74.69,6.67,6.55,11.86,7.59,14.22c.81,1.84,2.71,3.79,4.27,3.85.45,0,3.54.55,3.89.2,1.6-1.54,28.77-26.8,29.27-27.48s1.72-2.62-.63-6.45c-2.24-3.65-3.13-5.85-8.68-16.21-.29-.55,1.88-2,1.25-2.27A7.69,7.69,0,0,0,314.18,214.58Z"/><path class="cls-14" d="M317.71,214.81c-1.06.42-31.26,26.18-33.07,27.62s-1.44,2.74.69,6.67,6.55,11.86,7.59,14.23,3.89,4.92,5.48,3.38,31.45-26.12,31.94-26.81,1.72-2.62-.63-6.45c-2.24-3.65-3.12-5.85-8.68-16.21C320.39,216,319.3,214.18,317.71,214.81Z"/><path class="cls-14" d="M298.72,266.42c3.55-3.12,31.15-25.87,31.63-26.52s1.72-2.62-.63-6.45c-2.24-3.65-3.13-5.85-8.68-16.21a9.66,9.66,0,0,0-1-1.54c-5.6,4.42-30.34,25.51-32,26.81-1.81,1.44-1.44,2.74.69,6.67s6.55,11.86,7.59,14.23A8.18,8.18,0,0,0,298.72,266.42Z"/><path class="cls-23" d="M293.73,252.1a1.69,1.69,0,0,0-2.6-.45,2.45,2.45,0,0,0-.78,3,1.69,1.69,0,0,0,2.6.45A2.45,2.45,0,0,0,293.73,252.1Z"/><path class="cls-23" d="M325.31,233c-.07-.08-2.47-4.68-2.57-4.86s-.05-.27.17-.44.68-.54.79-.66.37-.17.45,0,2.48,4.68,2.5,4.75a.35.35,0,0,1-.16.43c-.22.16-.33.27-.91.74C325.53,233,325.42,233.09,325.31,233Z"/><path class="cls-23" d="M322.11,226.92c-.07-.08-.6-1.16-.71-1.34s-.05-.26.17-.44.68-.54.79-.65.37-.17.45,0,.62,1.16.64,1.23a.35.35,0,0,1-.16.43c-.22.15-.33.27-.91.75C322.32,227,322.21,227,322.11,226.92Z"/><path class="cls-24" d="M315.52,221c-.82.33-22.62,18.9-24,20s-1.11,2.12.54,5.15,5.06,9.17,5.86,11,3,3.8,4.24,2.61,22.76-18.86,23.14-19.38,1.33-2-.49-5-2.41-4.52-6.71-12.52C317.59,221.93,316.75,220.51,315.52,221Z"/><path class="cls-11" d="M292.85,244.23a.08.08,0,0,1-.06.09.07.07,0,0,1-.09-.05.81.81,0,0,1,.19-.83.52.52,0,0,1,.37-.14.42.42,0,0,1,.34.2,1,1,0,0,1,0,.9.62.62,0,0,1,.66,0,.48.48,0,0,1,.22.71,1.24,1.24,0,0,1-.47.46.69.69,0,0,1-.57.1c-.21-.09-.31-.36-.13-.92a1,1,0,0,1-.52.08.08.08,0,0,1,0-.15.93.93,0,0,0,.58-.14l0-.07c.18-.43.17-.72.07-.87a.27.27,0,0,0-.22-.13.37.37,0,0,0-.26.1.66.66,0,0,0-.14.68Zm5.69,10.32a.08.08,0,0,1,0,.1.07.07,0,0,1-.1,0,1.27,1.27,0,0,1,0-1.34.88.88,0,0,1,.27-.24.63.63,0,0,1,.32-.09h0a.52.52,0,0,1,.49.37l.14.36a3.82,3.82,0,0,0,1,1.7,3.32,3.32,0,0,1,.09-.55h0a3.54,3.54,0,0,1,.25-.6l.26-.56h0a.3.3,0,0,1,.09-.12.24.24,0,0,1,.22,0,.56.56,0,0,1,.2.12,1.1,1.1,0,0,1,.28.38,1,1,0,0,1,.08.38h0a1.74,1.74,0,0,1-.26.88,1.27,1.27,0,0,1-.43.48l-.06,0h0a1.25,1.25,0,0,1-.59-.13l0,.5c0,.13-.19.27-.41.31a.85.85,0,0,1-.27,0,.67.67,0,0,1-.27-.09.82.82,0,0,1-.3-.87c0-.12,0-.24,0-.34s0-.22,0-.34a.08.08,0,1,1,.15,0c0,.12,0,.23,0,.33s0,.23,0,.35c0,.41.07.63.23.73a.55.55,0,0,0,.21.07.69.69,0,0,0,.22,0c.16,0,.29-.11.29-.18l.05-.57a3.7,3.7,0,0,1-1.1-1.83l-.13-.35a.38.38,0,0,0-.35-.27.48.48,0,0,0-.24.07.74.74,0,0,0-.23.2,1.12,1.12,0,0,0,0,1.19Zm2.24.92a1.11,1.11,0,0,0,.57.15h0a1.14,1.14,0,0,0,.36-.42,1.6,1.6,0,0,0,.24-.8h0a.87.87,0,0,0-.07-.32.92.92,0,0,0-.23-.33.37.37,0,0,0-.14-.08.1.1,0,0,0-.09,0,.17.17,0,0,0,0,.06h0l-.27.56a3.46,3.46,0,0,0-.24.58h0a3.74,3.74,0,0,0-.09.6Zm.09-.6-.09.05a.07.07,0,0,0,.09-.05Zm-4.18-6.37a.07.07,0,0,1,.1,0,.08.08,0,0,1,0,.1h0l-.23.16.64.92.16.21.28-.34,0-.05c.06-.08.07-.11.19-.08.11-.28.21-.6.28-.85l.15,0c-.07.27-.19.62-.31.92h0l0,.1a1.72,1.72,0,0,1-.35.65h-.06l0,0-.13-.14c-.27.33-.59.73-.73.89a.08.08,0,0,1-.07.06.08.08,0,0,1-.08-.07,4.29,4.29,0,0,0-.63-1.18l-.18-.27c-.09-.15.14-.4.41-.63l.27-.21-.08-.13a.08.08,0,0,1,.14-.05l.06.09.24-.16Zm-.29.38-.26.2c-.22.18-.41.37-.38.43l.17.27a5.8,5.8,0,0,1,.63,1.12c.12-.15.41-.54.66-.86l-.18-.24c-.22-.3-.48-.68-.64-.92Zm1.35.75,0,0-.3.37.09.11a3.82,3.82,0,0,0,.24-.53ZM296,248.24a.08.08,0,0,1-.06-.08.08.08,0,0,1,.09-.07,7.55,7.55,0,0,0,.84,0c.64,0,1.37-.07,1.42.08h0l-2.28.08Zm.87,0-.87,0a8,8,0,0,0,.87,0Zm1.27,0a7.82,7.82,0,0,0-1.27,0l1.27,0Zm0,0h0Zm-.07.38a1.22,1.22,0,0,0,.07-.38l-.07.38Zm-4.61-4c-.22.57-.17.82,0,.88a.55.55,0,0,0,.44-.09,1.08,1.08,0,0,0,.41-.4.34.34,0,0,0-.16-.51.58.58,0,0,0-.63.09Z"/><path class="cls-16" d="M389.27,299c-16.73-12.65-32-10.74-55.61-13-12.38.79-19.85,7.54-24.24,17.62l0,.08,0,.08-.1.23,0,.08,0,0v0l0,.08-.13.31,0,.08,0,.06h0l0,.08,0,.08-.09.24,0,.08v0l-.05.14,0,.08-.12.32,0,.08h0l0,.07-.18.48v0l0,.05,0,.08-.14.41v.08c-.12.36-.24.71-.36,1.08l0,.07h0l-.19.59h0c-7.64,17.82-20.41,25.13-3.72,47.76l.11.15h0v.53c1.62,39.12-1.18,55.7-3.2,88h83.5c-6.54-24.92-17-48.13-15.32-69.17C371.62,342,397.95,330,389.27,299Z"/><path class="cls-14" d="M347.49,287.07l-.62,5.38s32.79-.48,32.58,19.23-15,29.57-25.27,39c-11.23,6.56-54.9-1.19-55.75-3.22a.68.68,0,0,1,0,.43,55.61,55.61,0,0,0,5.36,8.64l.11.15h0v.53c0,1.18.09,2.34.13,3.48a0,0,0,0,1,0,0c24.61-1.49,47.09,3.22,53.14,30.58,2.93,13.26-2.82,36.74-10,53.94h37c-6.54-24.92-17-48.13-15.32-69.17C371.62,342,397.95,330,389.27,299,376,289,363.74,288.13,347.49,287.07Z"/><path class="cls-16" d="M389.09,298.44c8.75,12.41,35.54,52.61,42.48,37.36,10.29-17.16,23.5-32.71,27-40.14.84-1.8,4.53,3.3,5.66,3.72,1.84.69,5.76.36,5.13,2.25-4.58,12.39-28.17,56.26-31.29,60.09-8.63,10.55-21.32,6.14-28.13.43-9.35-7.84-21.29-17-31.55-28.61Z"/><path class="cls-14" d="M386.63,296.32c3.11,4.41,5.68,7.74,9.2,12.64-3.53,6.93-2.76,32.3,5.92,41,29.33,29.37,44.77-8.56,56.77-34.93,4.44-9.75.45-12.3-1.93-15.12.17-.36,2.1-4.53,2.58-4.76,3.62-1.73,13.35,4,12.15,6.16-4.58,12.39-30.61,59.21-33.74,63-4.85,5.94-12.07,8.75-21.9,2.84-15.32-9.21-33.44-29.25-37.3-33.63Z"/><path class="cls-17" d="M355.86,255.55l-1.37,7.71-2.44,18.3c-.32,2.41,1.42,6.94,8.39,8.2,5.69,1-6.74,11-21,10.43-12.61-1.53-18.87-7.31-17.67-10.53,1.46-.13,8-3.16,9-4,3-2.54,2.64-21.47.43-25.2S355.86,255.55,355.86,255.55Z"/><path class="cls-19" d="M376.95,243.64l-1.5,9.5a30.31,30.31,0,0,1-34.58,25.13h0a30.32,30.32,0,0,1-25.13-34.58L319.48,220h0s3-16,18.06-19.71S380.21,219.07,376.95,243.64Z"/><path class="cls-20" d="M376.95,243.64l-1.5,9.5a30.31,30.31,0,0,1-34.58,25.13h0c22.64,2.39,35.4-30.33,26.17-47.88-3-5.73-25.53-24.23-25.53-24.23a45,45,0,0,0-11,2.32c-5.86,2-9.71,7.65-9.71,7.65s1-6,7.13-11.28,14.54-5.3,14.54-5.3,13.43,8.92,18.57,9.1C371,216.86,378.77,229.92,376.95,243.64Z"/><path class="cls-19" d="M287.57,236.4c3.08-1.82,3.72-3.24,5.22-.87s6.6,1.08,5.54-.79c-1.58-2.75-1.32-2.56.21-2,4,1.36,7.58-.57,5.09-3.49,0,0,4.35,1.19,5.3-.71s-1.11-4-1.11-4-.12-1.11.64-1.18c1-.1,1.61,2,3.71.7,1.18-.75-.32-4.75-2.06-5.54s-6.72-1-8.15-.4-1.82,2.93-1.82,2.93c-3.33-.48-4.92.39-5.22,3.48-.11,1.1-2.92.72-3.79,2.06-.49.75,1,4.11-.8,4S288.28,233.07,287.57,236.4Z"/><path class="cls-19" d="M455.18,288.66c-.77-4-4.59-13-5.51-14-1.21-1.26,5.18-5.11,7.45,1,0,0,3,4,4.16,3.36s3.43-16.26,3.62-18.2,2.85-2.1,3.45-1.55,0,3-.11,6.64-.29,5.82,0,6.17c.86,1,5.16-12.21,6.69-13.07,1-.54,4,.76,3.84,2.58s-4.92,12.59-5.09,14.17.76.71,1.46-.15,7.12-11.58,8-12.11,3.69,1.09,3,2.93-6.73,12.6-6.69,13.5.67.8,2.67-.62,5.94-4.33,7.08-4.05c.74,0,1.71,2.22-.05,4s-6,6.47-6.54,7.23c-2.85,4.05-4.31,8.51-7,11.37a9.42,9.42,0,0,1-3.63,2.34C463.4,303.45,456.77,297,455.18,288.66Z"/><path class="cls-20" d="M476.29,297.18c-.19.24-.39.47-.6.69a9.25,9.25,0,0,1-3.29,2.21l-.34.13a11.28,11.28,0,0,1-13.58-3.95,18.12,18.12,0,0,1-3.29-7.61l-.06-.3C458.91,296.65,467.67,299.87,476.29,297.18Z"/><path class="cls-14" d="M47.69,181.43h54.74a7.25,7.25,0,0,1,7.23,7.23v51a.81.81,0,0,1-1.38.57L96,227.91H47.69a7.25,7.25,0,0,1-7.23-7.23v-32A7.25,7.25,0,0,1,47.69,181.43Z"/><circle class="cls-25" cx="58.93" cy="204.67" r="3.98"/><circle class="cls-25" cx="75.06" cy="204.67" r="3.98"/><circle class="cls-25" cx="91.19" cy="204.67" r="3.98"/><path class="cls-16" d="M479.39,186.71H424.65a7.25,7.25,0,0,0-7.23,7.23v51a.81.81,0,0,0,1.38.57l12.32-12.32h48.28a7.25,7.25,0,0,0,7.23-7.23v-32A7.25,7.25,0,0,0,479.39,186.71Z"/><circle class="cls-25" cx="468.15" cy="209.95" r="3.98"/><circle class="cls-25" cx="452.02" cy="209.95" r="3.98"/><circle class="cls-25" cx="435.89" cy="209.95" r="3.98"/><polygon class="cls-26" points="240.98 440.69 205.39 440.69 205.39 427.48 234.96 427.48 240.98 440.69"/><polygon class="cls-16" points="168.84 440.69 228.93 440.69 234.96 427.48 174.87 427.48 168.84 440.69"/><path class="cls-11" d="M178.42,432.55a1.48,1.48,0,0,0-1,.41,3.36,3.36,0,0,0-.81,1.15q-.69,1.52.46,1.52a2.83,2.83,0,0,0,.72-.1c.25-.06.5-.14.76-.23l-.55,1.2a4.64,4.64,0,0,1-1.62.29q-1.19,0-1.51-.69a2.5,2.5,0,0,1,.28-2,5.17,5.17,0,0,1,1-1.43,4.26,4.26,0,0,1,1.32-1,3.6,3.6,0,0,1,1.51-.33,2.76,2.76,0,0,1,1.46.37l-.94,1.12a3.08,3.08,0,0,0-.48-.23,1.68,1.68,0,0,0-.58-.09Zm4.36,4.17h1.55l.67-5.28h-1.9L179,436.72h1.56l.72-1H183l-.19,1Zm.43-2.15h-1.12q.89-1.24,1.18-1.66l.4-.61c0,.13-.09.35-.15.66s-.11.55-.15.74l-.17.87Zm2.29,2.15,2.4-5.26h1.42l-1.88,4.11h2l-.52,1.15Zm4.88,0,2.4-5.26h1.42l-1.88,4.11h2l-.52,1.15Zm10.45-4.17a1.48,1.48,0,0,0-1,.41,3.34,3.34,0,0,0-.81,1.15q-.69,1.52.46,1.52a2.82,2.82,0,0,0,.72-.1c.25-.06.5-.14.76-.23l-.55,1.2a4.64,4.64,0,0,1-1.62.29q-1.19,0-1.51-.69a2.5,2.5,0,0,1,.28-2,5.15,5.15,0,0,1,1-1.43,4.24,4.24,0,0,1,1.32-1,3.6,3.6,0,0,1,1.51-.33,2.76,2.76,0,0,1,1.46.37l-.94,1.12a3.08,3.08,0,0,0-.48-.23,1.68,1.68,0,0,0-.58-.09Zm4.26,4.17.53-1.16h-1.7l.45-1h1.58l.52-1.14h-1.58l.38-.83H207l.52-1.14h-3.12l-2.4,5.26Zm6.52,0h-1.86L209.5,433h0q-.33.88-.54,1.34l-1.08,2.37h-1.26l2.4-5.26h1.86l.25,3.66h0q.31-.8.53-1.28l1.08-2.38H214l-2.4,5.26Zm4.05,0h-1.42l1.87-4.1h-1.29l.53-1.16h4l-.53,1.16h-1.28l-1.87,4.1Zm5.75,0,.53-1.16h-1.7l.45-1h1.58l.52-1.14H221.2l.38-.83h1.7l.52-1.14h-3.12l-2.4,5.26Zm3.81-1.92-.87,1.92h-1.42l2.4-5.26H227q2.14,0,1.44,1.55a2.88,2.88,0,0,1-1.54,1.41l.49,2.29h-1.61l-.24-1.92Zm.49-1.07H226a1.06,1.06,0,0,0,1-.66q.25-.54-.48-.54h-.28Z"/><path class="cls-27" d="M619,461.61H595.4a6.6,6.6,0,0,0-6.58,6.58h0a6.6,6.6,0,0,0,6.58,6.58h9.87A5.24,5.24,0,0,1,610.5,480h0a5.24,5.24,0,0,1-5.22,5.22h-534A5.24,5.24,0,0,1,66,480h0a5.24,5.24,0,0,1,5.22-5.22h9.42a6.6,6.6,0,0,0,6.58-6.58h0a6.6,6.6,0,0,0-6.58-6.58H59.09a10.48,10.48,0,0,1-10.45-10.44h0a10.48,10.48,0,0,1,10.45-10.45H619a10.48,10.48,0,0,1,10.44,10.45h0A10.48,10.48,0,0,1,619,461.61Zm.4,23.6a5.22,5.22,0,1,0-5.22-5.22A5.22,5.22,0,0,0,619.38,485.21Z"/><path class="cls-28" d="M315.24,224a1.21,1.21,0,0,1-.1-.28c-.36-1.51,1.09-3.6,2-4.64a11.45,11.45,0,0,1,4.77-3.23,15.19,15.19,0,0,1,5.09-.9,4,4,0,0,1,2.35.57c1.18.9,1.57,2.75-.06,3.34-1.43.52-2.93.77-4.36,1.26a33.77,33.77,0,0,0-5,2.25C319.06,222.81,316,225.38,315.24,224Z"/><path class="cls-28" d="M317,233.9c5.59-5.69,13.93-3.56,17.94,2.66a.21.21,0,0,0,.38-.16c-1.2-7.74-16.19-11.13-18.54-2.64a.14.14,0,0,0,.23.13Z"/><path class="cls-29" d="M335.47,232c-.75-3.83-5.05-6-8.7-5.32-.32.06-.24.56.08.56,3.89,0,6.33,1.73,8.5,4.81a.07.07,0,0,0,.12-.05Z"/><path class="cls-30" d="M341.72,243.59s2-2.59,3.56-.77S345.7,242.64,341.72,243.59Z"/><path class="cls-29" d="M339.88,245.05c-1.72,1.55-.1,5.41,2.3,4.64a.2.2,0,0,0,0-.36,4.58,4.58,0,0,1-2-1.35,3.36,3.36,0,0,1-.12-2.82.12.12,0,0,0-.19-.11Z"/><path class="cls-29" d="M345.43,249.67a3.79,3.79,0,0,0,2.43-1c.39-.32-.12-1-.53-.69a7.09,7.09,0,0,1-1,.6,8.52,8.52,0,0,0-1.06.46.33.33,0,0,0,.16.6Z"/><path class="cls-28" d="M372.25,224a1.22,1.22,0,0,0,.1-.28c.36-1.51-1.09-3.6-2-4.64a11.45,11.45,0,0,0-4.77-3.23,15.19,15.19,0,0,0-5.09-.9,4,4,0,0,0-2.35.57c-1.18.9-1.57,2.75.06,3.34,1.43.52,2.93.77,4.36,1.26a33.78,33.78,0,0,1,5,2.25C368.44,222.81,371.53,225.38,372.25,224Z"/><path class="cls-28" d="M370.73,233.76c-2.36-8.49-17.34-5.1-18.54,2.64a.21.21,0,0,0,.38.16c4-6.22,12.35-8.36,17.94-2.66a.14.14,0,0,0,.23-.13Z"/><path class="cls-29" d="M352.14,232c2.17-3.08,4.62-4.82,8.5-4.81.31,0,.4-.5.08-.56-3.65-.71-8,1.5-8.7,5.32a.07.07,0,0,0,.12.05Z"/><ellipse class="cls-31" cx="345.91" cy="271.57" rx="1.32" ry="0.79" transform="translate(-5.01 6.51) rotate(-1.07)"/><path class="cls-32" d="M331,253.82s4.67,4.94,13.59,4.72,13.23-4.89,13.23-4.89-2.44,14.15-12.9,14.32C333.11,268.16,331,253.82,331,253.82Z"/><path class="cls-33" d="M336.13,264.46a11.67,11.67,0,0,0,8.76,3.51,10.66,10.66,0,0,0,7.81-3.6A16.78,16.78,0,0,0,336.13,264.46Z"/><path class="cls-25" d="M355.75,255.27a21.14,21.14,0,0,1-11.19,3.27,19.76,19.76,0,0,1-12-3.42c-.09.62,1.3,7.34,11.42,7.34C352.06,262.46,354.9,257.44,355.75,255.27Z"/><g class="cls-34"><path class="cls-35" d="M331.9,252.27c.19.07.12.7-.23,1.25a2.06,2.06,0,0,1-2.13,1.19c-.65,0-1.22-.26-1.18-.46s.55-.33,1-.56a5.22,5.22,0,0,1,1.59-.89C331.33,252.57,331.71,252.19,331.9,252.27Z"/><path class="cls-35" d="M360.09,253.84c.08.19-.45.55-1.11.56a1.83,1.83,0,0,1-2-1.31c-.26-.61-.15-1.24.05-1.25s.46.41.81.65a5.48,5.48,0,0,1,1.35.87C359.53,253.59,360,253.65,360.09,253.84Z"/></g><path class="cls-36" d="M357.86,253.62A8.11,8.11,0,0,1,356,255a24.31,24.31,0,0,1-4.5,2.27,23.16,23.16,0,0,1-4.92,1.26,19.18,19.18,0,0,1-2.31.2,17.5,17.5,0,0,1-2.32-.14,24,24,0,0,1-4.92-1.23,16.32,16.32,0,0,1-4.51-2.29,5.32,5.32,0,0,1-1.6-1.65c.06-.05.68.62,1.82,1.33a17.76,17.76,0,0,0,4.5,1.94,24.61,24.61,0,0,0,4.8,1,17.38,17.38,0,0,0,2.21.06,19.19,19.19,0,0,0,2.22-.11,23.68,23.68,0,0,0,4.8-1,28.53,28.53,0,0,0,4.54-1.95A18.36,18.36,0,0,1,357.86,253.62Z"/><path class="cls-25" d="M344.89,268a11,11,0,0,0,8.63-4.55,2.49,2.49,0,0,0-1.15.26c-5.4,2.39-8.86,2.62-12.79,1a10.14,10.14,0,0,0-4.09-.92A11.76,11.76,0,0,0,344.89,268Z"/><path class="cls-37" d="M355.75,255.27a21.14,21.14,0,0,1-11.19,3.27,19.76,19.76,0,0,1-12-3.42,6.54,6.54,0,0,0,1.73,3.73c-.26-.78-.42-1.69.4-1.5,1.38.33,4.65,2.36,9.89,2.29s7.6-2.75,8.38-1.83c.33.38.13,1.06-.21,1.72A11.09,11.09,0,0,0,355.75,255.27Z"/><path class="cls-37" d="M351.36,264.11a1.27,1.27,0,0,1-.17,1c-.85,1.77-6.35,3.14-10.09,1.83-2.47-.87-3-2-3-2.75a8.55,8.55,0,0,0-2.61-.4,11.76,11.76,0,0,0,9.41,4.2,11,11,0,0,0,8.63-4.55,2.49,2.49,0,0,0-1.15.26Z"/><path class="cls-36" d="M347.5,269s-.36.48-.9.74a2.94,2.94,0,0,1-2.32.21,1.91,1.91,0,0,1-1-.57c0-.06.55.17,1.09.22a6.91,6.91,0,0,0,2.12-.19C347,269.29,347.46,269,347.5,269Z"/><path class="cls-38" d="M182.41,272.12c-.78-3-4.47-2-6.8-1.9s-4.5.19-6.75.15-4.25-.29-6.37-.29c-1.38,0-3.06-.46-4.15.68-2.26,2.4.8,6.51,2.76,8a15.5,15.5,0,0,0,8.93,2.85,14.6,14.6,0,0,0,8.14-2.25c2.16-1.39,4.86-4.19,4.29-7Z"/><g class="cls-39"><path class="cls-40" d="M178.88,280.16s-9.19-5.92-16.65-.31c-5.08,4.59,12.83,4.42,12.83,4.42Z"/></g><path class="cls-25" d="M175.61,270.22q-3.37.2-6.75.15c-2.12,0-4.25-.29-6.37-.29-1.38,0-3.06-.46-4.15.68,0,0,7.69,4,23.42.11C180.38,269.42,177.53,270.11,175.61,270.22Z"/><path class="cls-41" d="M143.64,256.51s-5,1.27-1,7.38c3.18,4.93,5.33,4.22,7,4.11,3-.2,7.58-2.45,7.58-6.55S149.82,256.52,143.64,256.51Z"/><path class="cls-42" d="M185.2,258.27s-4.09,3.15,1.86,7.2c4.79,3.26,6.51,1.76,8,1,2.68-1.38,6.05-5.29,4.51-9.07S190.89,255.81,185.2,258.27Z"/><path class="cls-43" d="M162.83,228.67s-6.45,2.25-.54,9.92c4.76,6.18,7.54,5,9.7,4.67,4-.61,9.8-4.12,9.37-9.57S171,228,162.83,228.67Z"/><path class="cls-44" d="M164.88,259.12a9.65,9.65,0,0,0,5.45,2,5.79,5.79,0,0,0,5.25-2s1.34,1.39.54,2.63a13.53,13.53,0,0,1-5.12,3.55C170.06,265.43,162.79,262.39,164.88,259.12Z"/><ellipse class="cls-31" cx="171.08" cy="259.75" rx="0.77" ry="1.75" transform="translate(-88.91 430.48) rotate(-89.92)"/><path class="cls-36" d="M168.16,261.19a2.27,2.27,0,0,0-.92-.2c-.48,0-.89.25-.85.4s.41.23.72.41a2.9,2.9,0,0,1,.56.41,2.73,2.73,0,0,1,.6.33c.3.21.55.54.68.49s.1-.58-.15-1A2.78,2.78,0,0,0,168.16,261.19Z"/><path class="cls-36" d="M175.17,261c0-.16-.41-.23-.8-.16a2.74,2.74,0,0,0-.76.26,3.32,3.32,0,0,0-.52.69c-.22.39-.31.83-.19.91s.41-.15.69-.32a5.66,5.66,0,0,1,.57-.3,6.53,6.53,0,0,1,.47-.47C174.89,261.33,175.19,261.12,175.17,261Z"/><path class="cls-36" d="M166.56,261.76l-.79-.81a1.23,1.23,0,0,1-.24-.31.58.58,0,0,1-.14-.23,1.25,1.25,0,0,1,.08-.83c.29-.65,1-1.18.91-1.32s-.24,0-.52.09a2.45,2.45,0,0,0-1,.76,2.17,2.17,0,0,0-.41,1.49,1.74,1.74,0,0,0,.27.76,2.36,2.36,0,0,0,.47.44l.93.62c.68.43,1.39.84,1.47.71S167.14,262.37,166.56,261.76Z"/><path class="cls-36" d="M176.71,260.64s0-.11-.13-.49a2.45,2.45,0,0,0-.25-.5c-.09-.15-.19-.31-.3-.46-.43-.61-1-1.08-1.06-1s.21.75.45,1.4l.17.48a1.63,1.63,0,0,1,.1.35l0,.41a.58.58,0,0,1,0,.16,1,1,0,0,1-.34.56c-.46.43-1,.94-.91,1.08s.65-.08,1.3-.4a1.71,1.71,0,0,0,.84-.9A1.66,1.66,0,0,0,176.71,260.64Z"/><path class="cls-36" d="M174,258.65c0-.15-.69-.58-1.5-.82a4.42,4.42,0,0,0-3.29,0c-.81.26-1.54.71-1.49.86s.83,0,1.61,0a12.39,12.39,0,0,1,1.54,0,12.37,12.37,0,0,1,1.54-.05C173.13,258.67,173.92,258.8,174,258.65Z"/><path class="cls-36" d="M186.12,244.48c0,.06-.76.43-1.44.94a13.65,13.65,0,0,0-2.36,2.39c-.5.69-.85,1.47-.91,1.45a4.27,4.27,0,0,1,.63-1.63,6.2,6.2,0,0,1,2.46-2.49A4.27,4.27,0,0,1,186.12,244.48Z"/><path class="cls-36" d="M184.82,243.73c0,.06-.65.45-1.21,1a12,12,0,0,0-1.89,2.36c-.38.66-.61,1.41-.67,1.4a3.58,3.58,0,0,1,.37-1.55,5.28,5.28,0,0,1,2-2.48A3.58,3.58,0,0,1,184.82,243.73Z"/><path class="cls-36" d="M161.87,250.41c-.07,0-.34-.9-.75-1.74a21.88,21.88,0,0,0-2-3.17c-.58-.74-1.28-1.38-1.24-1.44a5.59,5.59,0,0,1,1.5,1.21,8.33,8.33,0,0,1,2,3.26A5.59,5.59,0,0,1,161.87,250.41Z"/><path class="cls-36" d="M161.49,247.16c-.06,0-.29-.38-.54-.75s-.52-.73-.52-.73-.23-.39-.48-.76-.54-.73-.5-.78.42.23.76.56a3.7,3.7,0,0,1,1,1.55A2,2,0,0,1,161.49,247.16Z"/><path class="cls-28" d="M146.65,238.62a3.33,3.33,0,0,0,.52-.23c1.16-.65,2.17-1.54,3.4-2.08a17.46,17.46,0,0,1,4.74-1.22c1.46-.17,3.75.33,4.94-.68,1.38-1.18,1.13-4-1-4.23a9.16,9.16,0,0,0-.47,1.93c-.13-.46-.27-1.81-.66-2.1s-1.59,0-2,0a17.28,17.28,0,0,0-4.13,1.19,12.48,12.48,0,0,0-6.9,6.22C144.35,239,145.69,238.95,146.65,238.62Z"/><path class="cls-45" d="M154.56,230.36v.14c-.08.81-.1,1.63-.1,1.63s-.08.81-.1,1.62c0,.6,0,1.2,0,1.48l-.1,0a9.51,9.51,0,0,1-.21-1.49c-.06-.83,0-1.66,0-1.66s.08-.83.24-1.64h0Zm-1.86,4a9.94,9.94,0,0,1-.07-1.77,10.09,10.09,0,0,1,.15-1.71l-.4.15a9.21,9.21,0,0,0-.23,1.54,8.88,8.88,0,0,0,.21,1.85,6.83,6.83,0,0,0,.36,1.12l.19-.05A10,10,0,0,1,152.71,234.4Zm6.38-3.6a10.84,10.84,0,0,1,0,1.95,7.48,7.48,0,0,1-.47,2.22l0,0,.4-.07a7.56,7.56,0,0,0,.57-2.16s0-.3,0-.75a9.94,9.94,0,0,0-.19-1.63l0-.21h-.07A5.56,5.56,0,0,1,159.09,230.8Zm-11.62,6.32a9,9,0,0,1-.27-1.26,8.59,8.59,0,0,1-.19-1.27v0c-.12.13-.23.28-.35.42a7.5,7.5,0,0,0,.07,1,7.31,7.31,0,0,0,.43,1.29,5.25,5.25,0,0,0,.48.86l.15-.09C147.69,237.78,147.57,237.46,147.47,237.13Zm8.21-5.29s0-.91,0-1.72l-.32.06c-.08.79-.14,1.64-.14,1.64a21.78,21.78,0,0,0,.14,2.94A21.92,21.92,0,0,0,155.68,231.84Zm-6.88,1.48c0-.12,0-.24,0-.36l-.37.29v0a4.77,4.77,0,0,0,.3,3,5,5,0,0,0,.43.83l.18-.11a7.31,7.31,0,0,1-.28-.83,11.11,11.11,0,0,1-.29-2.83Z"/><path class="cls-45" d="M150.57,236.31a17.46,17.46,0,0,1,4.74-1.22c1.46-.17,3.75.33,4.94-.68a2.71,2.71,0,0,0,.59-3.16c-.27,1.42-2,2.31-4.19,2.15-2.68-.19-5.85,2-8.72,2.77-1.2.31-1.49-.25-1.43-1a11.11,11.11,0,0,0-1.43,2.28c-.72,1.54.63,1.49,1.59,1.16a3.34,3.34,0,0,0,.52-.23C148.34,237.74,149.35,236.85,150.57,236.31Z"/><path class="cls-32" d="M194.65,237.71a3.32,3.32,0,0,1-.53-.21c-1.19-.6-2.23-1.45-3.48-1.94a17.46,17.46,0,0,0-4.78-1c-1.47-.11-3.74.48-5-.48-1.43-1.12-1.29-4,.81-4.26a9.15,9.15,0,0,1,.55,1.91c.11-.47.2-1.82.57-2.12s1.59-.1,2-.05a17.29,17.29,0,0,1,4.17,1,12.48,12.48,0,0,1,7.15,5.94C197,238,195.63,238,194.65,237.71Z"/><path class="cls-46" d="M186.2,233.64c-.09.33-.19.65-.28.9h-.2c0-.27.1-.62.15-1l.22-1.47.29-1.46.15-.84.22,0c0,.25,0,.54,0,.83,0,.75-.15,1.5-.15,1.5S186.4,232.92,186.2,233.64Zm4.7,2c.13-.3.34-.87.6-1.42.37-.81.82-1.57.82-1.57l.19-.36-.38-.25-.24.38a13.86,13.86,0,0,0-.72,1.67,9.37,9.37,0,0,0-.4,1.5Zm2.17-2.94c-.37.66-.66,1.29-.66,1.29s-.3.77-.53,1.57c0,.17-.09.33-.14.49l.24.14.21-.52c.31-.76.66-1.49.66-1.49s.23-.59.51-1.25ZM182.26,234a11.48,11.48,0,0,1-.43-1.73,7.64,7.64,0,0,1-.19-1.76,5.15,5.15,0,0,1,.05-.74l-.28.07a4.48,4.48,0,0,0-.11.65,7.13,7.13,0,0,0,.06,1.87,10,10,0,0,0,.59,1.76l.18.39.33,0C182.39,234.4,182.32,234.21,182.26,234Zm1.91-.74-.1-1.7-.17-1.7c0-.15,0-.3,0-.45h-.29c0,.15,0,.31,0,.47,0,.86,0,1.73,0,1.73s.09.86.24,1.71c.08.47.18.94.26,1.26h.17C184.24,234.24,184.2,233.76,184.17,233.27Zm3.65-.16s.24-.92.39-1.86c.06-.33.1-.65.13-.94l-.23-.08c-.07.29-.15.61-.24.94-.24.91-.52,1.8-.52,1.8s-.21.82-.47,1.67l.36.05C187.58,233.89,187.82,233.11,187.82,233.11Z"/><path class="cls-45" d="M194.65,237.71c1,.3,2.32.29,1.54-1.22a11.2,11.2,0,0,0-2.12-2.87c.31.93.79,2.68-.14,2.48-1.26-.26-3.8-3-8.58-2.91-3.86.06-5-1.37-5.27-2a2.72,2.72,0,0,0,.82,2.87c1.22,1,3.49.37,5,.48a17.46,17.46,0,0,1,4.78,1c1.25.49,2.29,1.34,3.48,1.94A3.33,3.33,0,0,0,194.65,237.71Z"/><path class="cls-28" d="M196.42,250.54a9.85,9.85,0,0,0-3.1-1.56,11.91,11.91,0,0,0-2.24-.47c1.67-.47,3.18-.69,3.17-.9s-2.27-.48-4.53-.06a18,18,0,0,0-3,.81c-.81.29-1.34.54-1.34.54a18.89,18.89,0,0,0-3.73,2.79,8.11,8.11,0,0,0-1.89,2.72c-.34.88-.32,1.51-.21,1.54s.33-.51.81-1.17c.1-.14.21-.29.34-.43,0,.06,0,.1,0,.11s.42-.48,1-1.08a10.74,10.74,0,0,1,2.59-1.77,12.23,12.23,0,0,1,2.91-1c.41-.08.75-.15,1-.17l.38,0a13.13,13.13,0,0,1,1.38-.2,12.45,12.45,0,0,1,6.1,1c.8.36,1.3.71,1.38.61S197.18,251.13,196.42,250.54Z"/><path class="cls-28" d="M144.86,250.54A9.85,9.85,0,0,1,148,249a11.91,11.91,0,0,1,2.24-.47c-1.67-.47-3.18-.69-3.17-.9s2.27-.48,4.53-.06a18,18,0,0,1,3,.81c.81.29,1.34.54,1.34.54a18.89,18.89,0,0,1,3.73,2.79,8.11,8.11,0,0,1,1.89,2.72c.34.88.32,1.51.21,1.54s-.33-.51-.81-1.17c-.1-.14-.21-.29-.34-.43,0,.06,0,.1,0,.11s-.42-.48-1-1.08a10.74,10.74,0,0,0-2.59-1.77,12.23,12.23,0,0,0-2.91-1c-.41-.08-.75-.15-1-.17l-.38,0a13.13,13.13,0,0,0-1.38-.2,12.45,12.45,0,0,0-6.1,1c-.8.36-1.3.71-1.38.61S144.1,251.13,144.86,250.54Z"/><g class="cls-34"><path class="cls-35" d="M186.36,253.76c0,.07-.76.27-1.49.58a23,23,0,0,0-2.75,1.51c-.65.44-1.23,1-1.28.94a4.29,4.29,0,0,1,1.08-1.21,6.71,6.71,0,0,1,2.84-1.56A4.29,4.29,0,0,1,186.36,253.76Z"/></g><g class="cls-34"><path class="cls-35" d="M184.68,256.34c0,.07-.28.11-.54.19a5.27,5.27,0,0,1-1,.3c-.26.07-.51.19-.55.13s.16-.27.4-.44a1.48,1.48,0,0,1,1.12-.33C184.4,256.2,184.69,256.27,184.68,256.34Z"/></g><g class="cls-34"><path class="cls-35" d="M161.76,257.26a8.34,8.34,0,0,1-1.07-.92c-.53-.46-1.08-.88-1.08-.88s-.52-.46-1.08-.88a8.34,8.34,0,0,1-1.13-.86,4.08,4.08,0,0,1,1.31.57,7.27,7.27,0,0,1,2.22,1.8A4.08,4.08,0,0,1,161.76,257.26Z"/></g><g class="cls-34"><path class="cls-35" d="M161.05,258.25c-.06,0-.31-.3-.63-.54a9.75,9.75,0,0,0-1.36-.78c-.37-.15-.78-.2-.78-.27s.43-.14.87-.06a2.15,2.15,0,0,1,1.51.87C161,257.81,161.11,258.22,161.05,258.25Z"/></g><path class="cls-47" d="M206.76,213.16c.31-19.81-26.31-23.84-26.31-23.84-21.61-2.58-32.42,1.6-36.15,9.22C138.8,197,130.7,196.79,125,206c-9.19,14.81,5.32,26.86-6.45,38.32,0,0,9.83,10.89,20.52,2.88,6-4.49,6.38-14.36,6.86-23.74,2.26,8,8,18,25.25,18.18,26.31.31,26.69,11.74,26.69,11.74a48.84,48.84,0,0,0,11.7-7.09C226.42,232.78,206.76,213.16,206.76,213.16Z"/><path class="cls-13" d="M206.76,213.16c.31-19.81-26.31-23.84-26.31-23.84-21.61-2.58-32.42,1.6-36.15,9.22C138.8,197,130.7,196.79,125,206c-9.19,14.81,5.32,26.86-6.45,38.32,0,0,9.83,10.89,20.52,2.88,6-4.49,6.38-14.36,6.86-23.74,2.26,8,8,18,25.25,18.18,26.31.31,26.69,11.74,26.69,11.74a48.84,48.84,0,0,0,11.7-7.09C226.42,232.78,206.76,213.16,206.76,213.16Z"/><path class="cls-48" d="M144.29,198.54c3.73-7.62,14.55-11.8,36.15-9.22,0,0,26.62,4,26.31,23.84,0,0-5.4-14.55-21.05-18.52S158,190.52,144.29,198.54Z"/><path class="cls-48" d="M121.94,221c-.49-4.7-.25-9.65,3-15,5.71-9.21,13.82-9,19.31-7.46C144.29,198.54,126.74,199,121.94,221Z"/><path class="cls-48" d="M342.19,199.79c14.94,13.63,26,21.11,30,37.9,2,8.33,3.41,16.81,5,25.22,2,10.62,4,21.29,5.79,32,7.15,4.3,8.64,7.17,8.64,7.17-2.58-14.33-5.38-28.63-8.23-42.91-2-9.8-3-20.18-7.14-29.32-9-19.9-16.61-25-33.65-30.78a.44.44,0,0,0-.42.72Z"/><path class="cls-4" d="M653.9,451.09a1.16,1.16,0,0,0-2.31,0v2.72h-2.72a1.16,1.16,0,1,0,0,2.31h2.72v2.72a1.16,1.16,0,0,0,2.31,0v-2.72h2.72a1.16,1.16,0,1,0,0-2.31H653.9Z"/><path class="cls-14" d="M653.58,270.2c-4.73-17.75-21.27-8-28.35,7.21s-23.3,74.46-37.32,89.81c-5.43,5.95-3.77,6.45,1.22,3.55C614.05,356.32,660.09,294.63,653.58,270.2Z"/><path class="cls-16" d="M584.56,371.83c-.17.8.58.84,2,.25,37.78-32,57.84-103.38,57.91-103.61a.74.74,0,0,0-1.42-.41C643,268.3,622.64,340.7,584.56,371.83Z"/><path class="cls-16" d="M611.71,279.66c-8.25-12.94-19-1-20.76,12.9s.26,65.2-7,81c-2.82,6.11-1.38,6.09,1.87,2.52C602,358.24,623.08,297.47,611.71,279.66Z"/><path class="cls-14" d="M582.43,378.05c.07.68.67.52,1.65-.31,22-35,19.95-97,19.94-97.16a.62.62,0,1,0-1.24,0C602.79,280.82,604.89,343.63,582.43,378.05Z"/><path class="cls-16" d="M652.64,323.69c14.27,1.49,8.76,15.44-2.1,22.75s-54.6,27-64.73,39.73c-3.93,4.92-4.51,3.7-2.89-.51C591,364.68,633,321.65,652.64,323.69Z"/><path class="cls-14" d="M582.65,389.32c-.59.23-.71-.35-.43-1.51,20-33,72.69-57.22,72.86-57.3a.58.58,0,0,1,.49,1C655.4,331.64,602,356.15,582.65,389.32Z"/><path class="cls-49" d="M499.49,331.93h52.27a4.59,4.59,0,0,1,4.59,4.59v89.86a4.6,4.6,0,0,1-4.6,4.6H499.49a4.59,4.59,0,0,1-4.59-4.59V336.53A4.59,4.59,0,0,1,499.49,331.93Z"/><rect class="cls-25" x="549.04" y="331.93" width="50.01" height="99.05" rx="3.87" ry="3.87"/><path class="cls-11" d="M484.43,369.55h54.15c0-9.7,10.46-10.78,10.46-10.78H494.89S484.43,359.85,484.43,369.55Z"/><rect class="cls-50" x="491.87" y="415.04" width="62.09" height="25.71" rx="3.02" ry="3.02"/><path class="cls-16" d="M549.17,415h12.31c.28,0,3.28.12,5,3.78,1.76,3.84,1.58,7.69,6.81,7.69h2.25c5.23,0,5.08-3.93,6.81-7.69s4.68-3.78,5-3.78h11.68a3,3,0,0,1,3,3v19.66a3,3,0,0,1-3,3H549.17a3,3,0,0,1-3-3V418.07A3,3,0,0,1,549.17,415Z"/><path class="cls-11" d="M484.43,403.48h54.15c0-9.7,10.46-10.77,10.46-10.77H494.89S484.43,393.78,484.43,403.48Z"/><path class="cls-4" d="M607.85,387.31H558.61c0-9.7-9.57-10.77-9.57-10.77h49.24S607.85,377.6,607.85,387.31Z"/><path class="cls-51" d="M556.87,342.69h37.74a1.67,1.67,0,0,1,1.66,1.66h0a1.67,1.67,0,0,1-1.66,1.66H556.87a1.67,1.67,0,0,1-1.66-1.66h0A1.67,1.67,0,0,1,556.87,342.69Z"/><path class="cls-51" d="M556.87,361h37.74a1.67,1.67,0,0,1,1.66,1.66h0a1.67,1.67,0,0,1-1.66,1.66H556.87a1.67,1.67,0,0,1-1.66-1.66h0A1.67,1.67,0,0,1,556.87,361Z"/><path class="cls-51" d="M556.87,399.31h37.74a1.67,1.67,0,0,1,1.66,1.66h0a1.67,1.67,0,0,1-1.66,1.66H556.87a1.67,1.67,0,0,1-1.66-1.66h0A1.67,1.67,0,0,1,556.87,399.31Z"/><path class="cls-4" d="M502.89,341.34h36.46A1.67,1.67,0,0,1,541,343h0a1.67,1.67,0,0,1-1.66,1.66H502.89a1.67,1.67,0,0,1-1.66-1.66h0A1.67,1.67,0,0,1,502.89,341.34Z"/><rect class="cls-52" x="501.23" y="382.64" width="39.79" height="3.33" rx="1.66" ry="1.66"/><path class="cls-4" d="M502.89,409.06h36.46a1.67,1.67,0,0,1,1.66,1.66h0a1.67,1.67,0,0,1-1.66,1.66H502.89a1.67,1.67,0,0,1-1.66-1.66h0A1.67,1.67,0,0,1,502.89,409.06Z"/><rect class="cls-49" x="469.92" y="374.9" width="37.19" height="59.94" rx="2.78" ry="2.78"/><rect class="cls-25" x="502.69" y="374.9" width="30.26" height="59.94" rx="2.34" ry="2.34"/><path class="cls-11" d="M463.59,397.66h32.77c0-5.87,6.33-6.52,6.33-6.52H469.92S463.59,391.79,463.59,397.66Z"/><rect class="cls-50" x="468.09" y="425.19" width="37.57" height="15.56" rx="1.83" ry="1.83"/><path class="cls-16" d="M502.77,425.19h7.45a3.51,3.51,0,0,1,3,2.29c1.07,2.33,1,4.65,4.12,4.65h1.36c3.16,0,3.08-2.38,4.12-4.65a3.42,3.42,0,0,1,3-2.29h7.07a1.84,1.84,0,0,1,1.83,1.83v11.9a1.84,1.84,0,0,1-1.83,1.83H502.77a1.84,1.84,0,0,1-1.83-1.83V427A1.84,1.84,0,0,1,502.77,425.19Z"/><path class="cls-11" d="M463.59,418.2h32.77c0-5.87,6.33-6.52,6.33-6.52H469.92S463.59,412.32,463.59,418.2Z"/><path class="cls-4" d="M538.28,408.41h-29.8c0-5.87-5.79-6.52-5.79-6.52h29.8S538.28,402.53,538.28,408.41Z"/><path class="cls-51" d="M507.43,381.41h22.84a1,1,0,0,1,1,1h0a1,1,0,0,1-1,1H507.43a1,1,0,0,1-1-1h0A1,1,0,0,1,507.43,381.41Z"/><path class="cls-51" d="M507.43,392.5h22.84a1,1,0,0,1,1,1h0a1,1,0,0,1-1,1H507.43a1,1,0,0,1-1-1h0A1,1,0,0,1,507.43,392.5Z"/><path class="cls-51" d="M507.43,415.67h22.84a1,1,0,0,1,1,1h0a1,1,0,0,1-1,1H507.43a1,1,0,0,1-1-1h0A1,1,0,0,1,507.43,415.67Z"/><rect class="cls-52" x="473.76" y="380.59" width="24.08" height="2.01" rx="1.01" ry="1.01"/><rect class="cls-52" x="473.76" y="405.58" width="24.08" height="2.01" rx="1.01" ry="1.01"/><path class="cls-4" d="M474.77,421.57h22.06a1,1,0,0,1,1,1h0a1,1,0,0,1-1,1H474.77a1,1,0,0,1-1-1h0A1,1,0,0,1,474.77,421.57Z"/><path class="cls-53" d="M118,293.45l43.26.21a1,1,0,0,1,1,1v4.53a1,1,0,0,1-1,1L118,300a1,1,0,0,1-1-1v-4.53a1,1,0,0,1,1-1Zm42.23,2.27-41.2-.2V298l41.2.2Z"/><path class="cls-53" d="M61.19,358.08,118.34,293a1,1,0,0,1,1.46-.1l3.4,3a1,1,0,0,1,.1,1.46L66.15,362.43a1,1,0,0,1-1.46.1l-3.4-3a1,1,0,0,1-.1-1.46Zm58-63L63.42,358.67l1.85,1.62,55.79-63.58Z"/><circle class="cls-13" cx="119.33" cy="296.83" r="5.76" transform="translate(-36.43 17.39) rotate(-7.23)"/><path class="cls-53" d="M61.15,358.39l40.19,76.77a1,1,0,0,0,1.39.44l4-2.1a1,1,0,0,0,.44-1.39L67,355.34a1,1,0,0,0-1.39-.44l-4,2.1a1,1,0,0,0-.44,1.39Zm41.54,74.9L63.46,358.35l2.18-1.14,39.23,74.94Z"/><circle class="cls-13" cx="103.21" cy="431.63" r="5.76" transform="translate(-336.87 374.31) rotate(-69.13)"/><circle class="cls-13" cx="65.16" cy="358.55" r="5.76" transform="translate(-44.63 11.06) rotate(-7.23)"/><rect class="cls-48" x="44.19" y="432.13" width="94.84" height="14.55" rx="7.28" ry="7.28"/><rect class="cls-13" x="72.79" y="432.13" width="94.84" height="14.55" rx="7.28" ry="7.28"/><path class="cls-11" d="M152,308.22h21.16a11.19,11.19,0,0,0,11.16-11.16H140.82A11.19,11.19,0,0,0,152,308.22Z"/><path class="cls-54" d="M152.38,306h12.71a6.73,6.73,0,0,0,6.71-6.71H145.67A6.73,6.73,0,0,0,152.38,306Z"/><path class="cls-53" d="M144.86,291.93h35.4a8.56,8.56,0,0,1,8.54,8.54H136.32A8.56,8.56,0,0,1,144.86,291.93Z"/><path class="cls-55" d="M144.86,291.93H161a8.56,8.56,0,0,1,8.54,8.54H136.32A8.56,8.56,0,0,1,144.86,291.93Z"/><path class="cls-52" d="M260.22,430H428.8a5.36,5.36,0,0,1,5.36,5.36v0a5.35,5.35,0,0,1-5.35,5.35H260.22a5.35,5.35,0,0,1-5.35-5.35v0a5.35,5.35,0,0,1,5.35-5.35Z"/><path class="cls-56" d="M429.12,440.75H260.54a5.75,5.75,0,0,1-4.69-2.52,5,5,0,0,1,4.39-2.52H428.82a5.75,5.75,0,0,1,4.69,2.52A5,5,0,0,1,429.12,440.75Z"/><path class="cls-56" d="M432.65,430H297.8a6.52,6.52,0,0,1-6.56-7l5.52-87.34a7.59,7.59,0,0,1,7.45-7H439.05a6.51,6.51,0,0,1,6.56,7L440.09,423A7.59,7.59,0,0,1,432.65,430Z"/><path class="cls-51" d="M432.65,430H301.78a6.52,6.52,0,0,1-6.56-7l5.52-87.34a7.59,7.59,0,0,1,7.45-7H439.05a6.51,6.51,0,0,1,6.56,7L440.09,423A7.59,7.59,0,0,1,432.65,430Z"/><path class="cls-15" d="M425.52,430H412L300.42,340.82l.32-5.12a7.37,7.37,0,0,1,1.6-4.1L425.52,430ZM317.46,328.69,439.23,426a7.27,7.27,0,0,0,.86-3l.86-13.58-101-80.76Z"/><path class="cls-11" d="M291.18,440.75H260.54a5.78,5.78,0,0,1-5.67-5.35h0a5,5,0,0,1,5-5.35h30.64a5.78,5.78,0,0,1,5.67,5.35h0A5,5,0,0,1,291.18,440.75Z"/><path class="cls-15" d="M431.32,432.72H291A2.89,2.89,0,0,1,288.2,430h0a2.5,2.5,0,0,1,2.52-2.68H431a2.89,2.89,0,0,1,2.84,2.68h0A2.5,2.5,0,0,1,431.32,432.72Z"/><path class="cls-57" d="M197.15,239.24a21.44,21.44,0,0,0-17.21-20.79,199.59,199.59,0,0,0-15.77-15A30.53,30.53,0,0,0,137,230.32a20,20,0,0,0-1.55,7.68l0,15.61.56-.19-.27,6.63a30.5,30.5,0,0,0,29.14,31.63,30.81,30.81,0,0,0,3.43-.05c-21.38-.24-22.17-24.79-22.17-35.16,0-5.37,3.32-11.14,7.26-15.49,4.74,3.08,10.7,4.7,17.76,4.78,20.7.24,22.61,7.67,22.61,7.74a4.12,4.12,0,0,0,3.62,4Z"/></g></g></g></svg>