<svg xmlns="http://www.w3.org/2000/svg" xmlns:xlink="http://www.w3.org/1999/xlink" viewBox="0 0 685.04 485.21"><defs><style>.cls-1{fill:none;}.cls-2{isolation:isolate;}.cls-3{fill:#e2e8f5;}.cls-10,.cls-12,.cls-15,.cls-16,.cls-17,.cls-18,.cls-3,.cls-4,.cls-5,.cls-56,.cls-58,.cls-6,.cls-60,.cls-7,.cls-8,.cls-9{fill-rule:evenodd;}.cls-4{fill:#b1c0e2;}.cls-5{fill:#bfcce8;}.cls-6{fill:#9eb1d9;}.cls-23,.cls-7{fill:#fff;}.cls-8{fill:#5b4e99;}.cls-11,.cls-39,.cls-9{fill:#ac3c31;}.cls-10{fill:#0e1632;}.cls-12{fill:#df7668;}.cls-13{fill:#222a48;}.cls-14{fill:#00000f;}.cls-15,.cls-54{fill:#48417c;}.cls-16,.cls-33{fill:#c14a44;}.cls-16,.cls-25,.cls-33{opacity:0.2;}.cls-16,.cls-19,.cls-20,.cls-22,.cls-25,.cls-29,.cls-31,.cls-33,.cls-43,.cls-46{mix-blend-mode:multiply;}.cls-17,.cls-52{fill:#3c3c6b;}.cls-18{fill:#01020e;}.cls-19,.cls-20,.cls-21,.cls-34,.cls-35,.cls-36,.cls-41{opacity:0.4;}.cls-19{fill:url(#radial-gradient);}.cls-20{fill:url(#radial-gradient-2);}.cls-21,.cls-26,.cls-28,.cls-36,.cls-41,.cls-47{mix-blend-mode:screen;}.cls-21{fill:url(#radial-gradient-3);}.cls-22,.cls-28{fill:#e98c4d;}.cls-22{opacity:0.42;}.cls-24{fill:url(#linear-gradient);}.cls-25{fill:#320033;}.cls-26{fill:#ca6633;}.cls-26,.cls-28,.cls-47{opacity:0.45;}.cls-27{fill:url(#linear-gradient-2);}.cls-29,.cls-32{fill:#da774e;}.cls-30{fill:#171d33;}.cls-34,.cls-35{mix-blend-mode:overlay;}.cls-34{fill:url(#radial-gradient-4);}.cls-35{fill:url(#radial-gradient-5);}.cls-36{fill:url(#radial-gradient-6);}.cls-37{fill:url(#linear-gradient-3);}.cls-38{fill:url(#linear-gradient-4);}.cls-39{opacity:0.5;}.cls-40{fill:#e8887e;}.cls-42{fill:#6c293e;}.cls-43{fill:#fa8c89;opacity:0.25;}.cls-44,.cls-47{fill:#e52749;}.cls-45{fill:#d5795c;}.cls-46{fill:#6d233c;opacity:0.15;}.cls-48{fill:#ed897e;}.cls-49{fill:#3f3632;}.cls-50{clip-path:url(#clip-path);}.cls-51{fill:#e86234;}.cls-53,.cls-56{fill:#383d5d;}.cls-55{fill:#c9c4d1;}.cls-57,.cls-58{fill:#f4f4f7;}.cls-59{fill:#e0dee1;}.cls-60{fill:#acadbb;}.cls-61{fill:#e6e4eb;}</style><radialGradient id="radial-gradient" cx="774.99" cy="315.35" r="6.55" gradientTransform="matrix(0.97, -0.1, 0.1, 0.99, -389.26, 60.16)" gradientUnits="userSpaceOnUse"><stop offset="0" stop-color="#e98c4d"/><stop offset="0.84" stop-color="#e98c4d" stop-opacity="0"/></radialGradient><radialGradient id="radial-gradient-2" cx="889.37" cy="1292.02" r="6.55" gradientTransform="matrix(0.85, -0.48, 0.47, 0.88, -932.69, -416.76)" xlink:href="#radial-gradient"/><radialGradient id="radial-gradient-3" cx="855.52" cy="483.06" r="8.73" gradientTransform="matrix(0.96, -0.18, 0.18, 0.98, -495.65, -48.88)" xlink:href="#radial-gradient"/><linearGradient id="linear-gradient" x1="419.4" y1="282.03" x2="430.88" y2="282.03" gradientUnits="userSpaceOnUse"><stop offset="0" stop-color="#3c3c6b"/><stop offset="1" stop-color="#5b4e99"/></linearGradient><linearGradient id="linear-gradient-2" x1="390.22" y1="285.03" x2="401.75" y2="285.03" xlink:href="#linear-gradient"/><radialGradient id="radial-gradient-4" cx="57.73" cy="309.86" r="6.43" gradientTransform="matrix(0.97, 0.08, -0.08, 1, 254.84, -9.06)" gradientUnits="userSpaceOnUse"><stop offset="0" stop-color="#fa0034"/><stop offset="0.84" stop-color="#fa0034" stop-opacity="0"/></radialGradient><radialGradient id="radial-gradient-5" cx="230.04" cy="1007.76" r="6.43" gradientTransform="matrix(0.92, -0.31, 0.3, 0.95, -190.6, -578.57)" xlink:href="#radial-gradient-4"/><radialGradient id="radial-gradient-6" cx="140.84" cy="418.4" r="8.57" gradientTransform="matrix(0.97, 0, 0, 1, 170.55, -135.95)" gradientUnits="userSpaceOnUse"><stop offset="0" stop-color="#f5d0a2"/><stop offset="0.84" stop-color="#f5d0a2" stop-opacity="0"/></radialGradient><linearGradient id="linear-gradient-3" x1="313.44" y1="296.12" x2="324.76" y2="296.12" xlink:href="#linear-gradient"/><linearGradient id="linear-gradient-4" x1="284.78" y1="293.7" x2="296.06" y2="293.7" xlink:href="#linear-gradient"/><clipPath id="clip-path"><path class="cls-1" d="M550.79,155.52c-.78-3-4.47-2-6.8-1.9s-4.5.19-6.75.15-4.25-.29-6.37-.29c-1.38,0-3.06-.46-4.15.68-2.26,2.4.8,6.51,2.76,8a15.5,15.5,0,0,0,8.93,2.85,14.6,14.6,0,0,0,8.14-2.25c2.16-1.39,4.86-4.19,4.29-7Z"/></clipPath></defs><title>ESTJs</title><g class="cls-2"><g id="Layer_2" data-name="Layer 2"><g id="OBJECTS"><rect class="cls-1" width="685.04" height="485.21"/><path class="cls-3" d="M203.47,440.94H647.15a29,29,0,0,0,28.9-28.9h0a29,29,0,0,0-28.9-28.9h-12c-51.56,0-93.75-42.19-93.75-93.75s-42.19-93.75-93.75-93.75H370.51a11.07,11.07,0,0,1-11-11h0a11.07,11.07,0,0,1,11-11h49.1A15.43,15.43,0,0,0,435,158.18h0A15.43,15.43,0,0,0,419.6,142.8H358a31.15,31.15,0,0,1-31.06-31.06,31.16,31.16,0,0,0-31.06-31.06H128.43a31.72,31.72,0,0,0-31.62,31.62h0a31.72,31.72,0,0,0,31.62,31.62h47.46a18,18,0,0,1,17.86,17.93h0a18,18,0,0,1-17.86,17.93H176a35.56,35.56,0,0,0-35.45,35.45,35.56,35.56,0,0,1-35.45,35.45c-52.32,0-95.13,42.81-95.13,95.12h0c0,52.32,42.81,95.13,95.13,95.13Zm-154.65-297a31.72,31.72,0,0,1-31.62-31.62h0A31.72,31.72,0,0,1,48.82,80.67h0a31.72,31.72,0,0,1,31.62,31.62h0a31.72,31.72,0,0,1-31.62,31.62Z"/><path class="cls-4" d="M535,255.57q-1.64-4.2-3.66-8.2h-84.5c-.73,0-1,.59-.62,1.32l3,5.56a2.59,2.59,0,0,0,2,1.32Z"/><path class="cls-4" d="M538.55,266.56q-1.06-4.18-2.48-8.2H446.88c-.73,0-1,.59-.62,1.32l3,5.57a2.59,2.59,0,0,0,2,1.32Z"/><path class="cls-4" d="M540.63,277.54q-.53-4.16-1.43-8.2H446.88c-.73,0-1,.59-.62,1.32l3,5.57a2.59,2.59,0,0,0,2,1.32Z"/><path class="cls-4" d="M541.37,288.53q0-4.15-.43-8.2H446.88c-.73,0-1,.59-.62,1.32l3,5.57a2.59,2.59,0,0,0,2,1.32Z"/><path class="cls-4" d="M541.94,299.51q-.44-4.05-.53-8.2H446.88c-.73,0-1,.59-.62,1.32l3,5.57a2.6,2.6,0,0,0,2,1.32Z"/><path class="cls-4" d="M462,250.37a.83.83,0,0,0-1.66,0v71.76a.83.83,0,0,0,1.66,0Z"/><path class="cls-4" d="M457.89,341.32a3.32,3.32,0,1,0,6.64,0V322.13a3.32,3.32,0,1,0-6.64,0Z"/><path class="cls-4" d="M295.55,94.06H188.61c-.75,0-1,.61-.64,1.37L191,101.2a2.69,2.69,0,0,0,2.1,1.37H300.09c.75,0,1-.62.64-1.37l-3.08-5.77A2.69,2.69,0,0,0,295.55,94.06Z"/><path class="cls-4" d="M295.55,105.46H188.61c-.75,0-1,.61-.64,1.37L191,112.6a2.69,2.69,0,0,0,2.1,1.37H300.09c.75,0,1-.62.64-1.37l-3.08-5.77A2.69,2.69,0,0,0,295.55,105.46Z"/><path class="cls-4" d="M204.33,97.18a.86.86,0,1,0-1.72,0v74.43a.86.86,0,1,0,1.72,0Z"/><path class="cls-4" d="M200,191.51a3.44,3.44,0,1,0,6.89,0v-19.9a3.44,3.44,0,1,0-6.89,0Z"/><path class="cls-4" d="M113.36,249.7a35.18,35.18,0,0,1-8.3,1,94.28,94.28,0,0,0-35.37,6.86h48a2.48,2.48,0,0,0,1.93-1.26l2.84-5.33c.37-.69.1-1.26-.59-1.26Z"/><path class="cls-4" d="M63.69,260.22a95.58,95.58,0,0,0-13.28,7.86h67.28a2.48,2.48,0,0,0,1.93-1.26l2.84-5.33c.37-.69.1-1.26-.59-1.26Z"/><path class="cls-4" d="M46.83,270.74a96.39,96.39,0,0,0-8.9,7.85h79.77a2.48,2.48,0,0,0,1.93-1.26l2.84-5.33c.37-.69.1-1.26-.59-1.26Z"/><path class="cls-4" d="M35.36,281.26a96.1,96.1,0,0,0-6.55,7.86h88.88a2.48,2.48,0,0,0,1.93-1.26l2.84-5.33c.37-.69.1-1.26-.59-1.26Z"/><path class="cls-4" d="M26.9,291.78q-2.64,3.8-4.91,7.85h95.71a2.48,2.48,0,0,0,1.93-1.26l2.84-5.33c.37-.69.1-1.26-.59-1.26Z"/><path class="cls-4" d="M107.36,253.63c0-1,.36-1.85.8-1.85s.79.83.79,1.85V413.42c0,1-.36,1.85-.79,1.85s-.8-.83-.8-1.85Z"/><path class="cls-4" d="M111.34,433.64a3.18,3.18,0,0,1-6.36,0V415.27a3.18,3.18,0,1,1,6.36,0Z"/><path class="cls-4" d="M23.14,302.29h98.74c.69,0,1,.57.59,1.26l-2.84,5.33a2.48,2.48,0,0,1-1.93,1.26H19c-.69,0-1-.57-.59-1.26l2.84-5.33A2.48,2.48,0,0,1,23.14,302.29Z"/><path class="cls-4" d="M23.14,312.81h98.74c.69,0,1,.57.59,1.26l-2.84,5.33a2.48,2.48,0,0,1-1.93,1.26H19c-.69,0-1-.57-.59-1.26l2.84-5.33A2.49,2.49,0,0,1,23.14,312.81Z"/><path class="cls-4" d="M23.14,323.33h98.74c.69,0,1,.57.59,1.26l-2.84,5.33a2.48,2.48,0,0,1-1.93,1.26H19c-.69,0-1-.57-.59-1.26l2.84-5.33A2.49,2.49,0,0,1,23.14,323.33Z"/><path class="cls-4" d="M23.14,333.85h98.74c.69,0,1,.57.59,1.26l-2.84,5.33a2.48,2.48,0,0,1-1.93,1.26H19c-.69,0-1-.57-.59-1.26l2.84-5.33A2.49,2.49,0,0,1,23.14,333.85Z"/><path class="cls-4" d="M23.14,344.37h98.74c.69,0,1,.57.59,1.26L119.63,351a2.48,2.48,0,0,1-1.93,1.26H19c-.69,0-1-.57-.59-1.26l2.84-5.33A2.49,2.49,0,0,1,23.14,344.37Z"/><path class="cls-4" d="M23.14,354.89h98.74c.69,0,1,.57.59,1.26l-2.84,5.33a2.49,2.49,0,0,1-1.93,1.26H19c-.69,0-1-.57-.59-1.26l2.84-5.33A2.49,2.49,0,0,1,23.14,354.89Z"/><path class="cls-4" d="M23.14,365.41h98.74c.69,0,1,.57.59,1.26L119.63,372a2.48,2.48,0,0,1-1.93,1.26H19c-.69,0-1-.57-.59-1.26l2.84-5.33A2.49,2.49,0,0,1,23.14,365.41Z"/><path class="cls-4" d="M23.14,375.93h98.74c.69,0,1,.57.59,1.26l-2.84,5.33a2.48,2.48,0,0,1-1.93,1.26H19c-.69,0-1-.57-.59-1.26l2.84-5.33A2.49,2.49,0,0,1,23.14,375.93Z"/><path class="cls-5" d="M140.73,131.59a11.2,11.2,0,0,1-4.81,5.67,14.75,14.75,0,0,1-3.54,1.63,1,1,0,0,1-1.33-1.11,13.92,13.92,0,0,0,0-3.22,11.68,11.68,0,0,0-.37-1.76,20.21,20.21,0,1,1,10.08-1.2Z"/><path class="cls-6" d="M501.07,342.91H535.8a3.25,3.25,0,0,1,2.08.75,1,1,0,0,1,.41.31,1,1,0,0,1,.14.26,3.26,3.26,0,0,1,.65,2V366.6a3.27,3.27,0,0,1-1,2.32h0a3.27,3.27,0,0,1-2.32,1H501.07a3.29,3.29,0,0,1-3.28-3.28V346.19a3.26,3.26,0,0,1,.65-2,1,1,0,0,1,.14-.25,1,1,0,0,1,.4-.31A3.26,3.26,0,0,1,501.07,342.91Z"/><path class="cls-7" d="M499.84,341.42h34.73a3.26,3.26,0,0,1,2.08.75,1,1,0,0,1,.4.31,1,1,0,0,1,.14.26,3.26,3.26,0,0,1,.65,2v20.41a3.26,3.26,0,0,1-1,2.32h0a3.27,3.27,0,0,1-2.32,1H499.84a3.29,3.29,0,0,1-3.28-3.28V344.7a3.27,3.27,0,0,1,.65-2,1,1,0,0,1,.14-.26,1,1,0,0,1,.4-.31,3.26,3.26,0,0,1,2.08-.75ZM535,366.31,521.26,355.8l-3.43,2.62h0l-.08.06h-.16l-.11,0h0l-.12,0h-.26l-.12,0h0l-.11,0h-.16l-.08-.06h0l-3.43-2.62-13.76,10.51a1.25,1.25,0,0,0,.45.08h34.73a1.26,1.26,0,0,0,.45-.08Zm-12.54-11.45,13.37,10.22V344.65l-13.37,10.22Zm-23.93,10.22,13.37-10.22-13.37-10.22v20.43Zm18.65-8.69,17-13h-34Z"/><path class="cls-7" d="M139,129.77a11.19,11.19,0,0,1-4.81,5.67,14.76,14.76,0,0,1-3.54,1.63,1,1,0,0,1-1.3-.71,1,1,0,0,1,0-.39,14,14,0,0,0,0-3.22,11.57,11.57,0,0,0-.37-1.76,20.21,20.21,0,1,1,10.08-1.2Zm-7.51,4.75a9.79,9.79,0,0,0,5.66-5.84,1,1,0,0,1,.65-.69,18.13,18.13,0,1,0-8,1,1,1,0,0,1,.88.69,13.44,13.44,0,0,1,.67,2.81A15.22,15.22,0,0,1,131.49,134.52Z"/><path class="cls-7" d="M139.27,100.37a7,7,0,0,0-2.8-3.12,11.08,11.08,0,0,0-3,5.37c.83.55,3.13,2.31,2.05,4.17L131,114.54c-1.09,1.81-3.73.72-4.62.28a11.06,11.06,0,0,0-3.12,5.32,7,7,0,0,0,4.11.87,4.41,4.41,0,0,0,3.27-1.84l8.69-15.06A4.45,4.45,0,0,0,139.27,100.37Z"/><path class="cls-7" d="M268.39,163.59a18.93,18.93,0,1,0-18.93-18.93A19,19,0,0,0,268.39,163.59Z"/><path class="cls-7" d="M268.39,209.19a18.93,18.93,0,1,0-18.93-18.93A19,19,0,0,0,268.39,209.19Z"/><path class="cls-6" d="M269.33,184.48c1.08-4,3.09-5.54,3.3-5.69a.39.39,0,0,1,.44,0,7.2,7.2,0,0,1,3.08,3.32,4.8,4.8,0,0,1,0,4.05l-7.85,13.59a4.79,4.79,0,0,1-3.53,2,7.19,7.19,0,0,1-4.4-1,.39.39,0,0,1-.21-.38s.21-2.64,3.27-5.72a.39.39,0,0,1,.48-.08s2.59,1.5,3.39.16l4-7c.75-1.3-1.6-2.73-1.81-2.86A.39.39,0,0,1,269.33,184.48Z"/><path class="cls-6" d="M303,133.61a.75.75,0,0,1,0-1.49h23.9a.75.75,0,0,1,0,1.49Z"/><path class="cls-6" d="M303.21,138.25a.75.75,0,1,1,0-1.49h9.2a.75.75,0,1,1,0,1.49Z"/><path class="cls-6" d="M303,143.21a.75.75,0,1,1,0-1.49h9.56a.75.75,0,1,1,0,1.49Z"/><path class="cls-6" d="M303,147.58a.75.75,0,1,1,0-1.49h19.12a.75.75,0,0,1,0,1.49Z"/><path class="cls-6" d="M302.46,152.21c-.11,0-.21-.33-.21-.75s.09-.75.21-.75H311c.12,0,.21.33.21.75s-.09.75-.21.75Z"/><path class="cls-6" d="M303,157.19a.75.75,0,1,1,0-1.49H333.7a.75.75,0,1,1,0,1.49Z"/><path class="cls-6" d="M303,179.21a.75.75,0,0,1,0-1.49h23.9a.75.75,0,0,1,0,1.49Z"/><path class="cls-6" d="M303.21,183.85a.75.75,0,1,1,0-1.49h9.2a.75.75,0,1,1,0,1.49Z"/><path class="cls-6" d="M303,188.81a.75.75,0,1,1,0-1.49h9.56a.75.75,0,1,1,0,1.49Z"/><path class="cls-6" d="M303,193.17a.75.75,0,1,1,0-1.49h19.12a.75.75,0,0,1,0,1.49Z"/><path class="cls-6" d="M303,197.81a.75.75,0,1,1,0-1.49H333.7a.75.75,0,1,1,0,1.49Z"/><path class="cls-6" d="M302.4,202.79c-.08,0-.15-.33-.15-.75s.07-.75.15-.75h6.08c.08,0,.15.33.15.75s-.07.75-.15.75Z"/><path class="cls-6" d="M261.1,159.25l-1.64-1.6a3.72,3.72,0,0,0-.5.39A17.09,17.09,0,0,0,261.1,159.25Z"/><path class="cls-6" d="M261.1,159.25l-1.64-1.6a3.66,3.66,0,0,0-.5.39A17,17,0,0,0,261.1,159.25Z"/><path class="cls-6" d="M275.63,159.25l1.64-1.6a3.72,3.72,0,0,1,.5.39A16.93,16.93,0,0,1,275.63,159.25Z"/><path class="cls-6" d="M275.63,159.25l1.64-1.6a3.61,3.61,0,0,1,.5.39A16.93,16.93,0,0,1,275.63,159.25Z"/><path class="cls-8" d="M274.05,156.36l.13,0h0a16.92,16.92,0,0,1,3.08,1.25,2.39,2.39,0,0,1,.47.4,17,17,0,0,1-18.75,0,2.41,2.41,0,0,1,.47-.4,17,17,0,0,1,3.08-1.25h0l.13,0h0a15.66,15.66,0,0,1,2.33-.29l3.31.48h.08l3.31-.48a15.66,15.66,0,0,1,2.33.29Z"/><path class="cls-9" d="M271.07,148.8l-.08,1.86V155a1.59,1.59,0,0,0,.72,1c-2.39,2.59-4.31,2.59-6.7,0a1.59,1.59,0,0,0,.72-1v-4.39l-.08-1.86s1.33.24,2.71.58C269.74,149,271.07,148.8,271.07,148.8Z"/><path class="cls-10" d="M259.74,138.33a4.12,4.12,0,0,0-.4,1.6c0,.77,1.63,1.08,2.18,1.08s15.52.55,15.52.55a.56.56,0,0,0,.46-.53c0-.45-2.57-6-2.57-6Z"/><circle class="cls-11" cx="260.2" cy="145.46" r="2.38"/><circle class="cls-11" cx="276.57" cy="145.46" r="2.38"/><path class="cls-12" d="M268.42,130.45h0a8.18,8.18,0,0,1,8.16,8.16V146a8.18,8.18,0,0,1-8.16,8.16h0a8.18,8.18,0,0,1-8.16-8.16v-7.42A8.18,8.18,0,0,1,268.42,130.45Z"/><path class="cls-10" d="M275.65,138.49V141c0,1,.18,1.3.69,1.67,0,0-.31,1,.25,1.2a.91.91,0,0,1,.44-.76v-6.21a3.43,3.43,0,0,1-1.44,1A2.66,2.66,0,0,1,275.65,138.49Z"/><path class="cls-10" d="M261.26,138.06v1.85c0,.73-.13.94-.5,1.2,0,0-.09.62-.5.78l-.36-4.85a4,4,0,0,0,1.4.61A1.93,1.93,0,0,0,261.26,138.06Z"/><path class="cls-10" d="M277.51,141a6.71,6.71,0,0,0-1.86-1.52h0l0,0-.23-.12a4.78,4.78,0,0,1-1.93-1.9c-.68.47-3.47.4-4.52.35l-.36,0h0c-4.66-.19-9.17.94-9.2,2.13-4-8.49,6.06-16.67,15-7.39C279.14,132.77,278.72,137.65,277.51,141Z"/><path class="cls-5" d="M181.58,240.92a15.33,15.33,0,1,1-3.33,5,15.37,15.37,0,0,1,3.33-5Zm5.53-2a14,14,0,1,0,5.33-1.05,13.94,13.94,0,0,0-5.33,1.05Zm-1.7-11.29a24.65,24.65,0,0,0-2.83,1,25.29,25.29,0,0,0-7.61,5,1.6,1.6,0,0,1-1.92.23c-2.25-1.3-4.62-2.59-6.83-3.95a.94.94,0,0,0-.33-.1,1,1,0,0,0-.38,0,1,1,0,0,0-.35.17,1,1,0,0,0-.25.28c-1.64,2.49-3.29,5.7-4.81,8.34a.94.94,0,0,0-.12.35,1,1,0,0,0,0,.39,1,1,0,0,0,.17.34,1,1,0,0,0,.28.25c2,1.34,4.64,2.68,6.79,3.92a1.61,1.61,0,0,1,.68.76,1.65,1.65,0,0,1,.1.34l.14,0-.16.63q-.19.75-.32,1.49t-.23,1.51c-.06.51-.11,1-.14,1.53s0,1,0,1.54,0,1.05,0,1.54.08,1,.14,1.53.14,1,.23,1.51.2,1,.32,1.49a1.6,1.6,0,0,1-.83,1.81l-6,3.47h0l-.71.41a1,1,0,0,0-.28.25,1,1,0,0,0-.17.34,1,1,0,0,0,0,.39.94.94,0,0,0,.12.35l4.45,7.71h0l.36.62a1,1,0,0,0,.25.28,1,1,0,0,0,.35.17,1,1,0,0,0,.39,0,1,1,0,0,0,.35-.12c2.15-1.35,4.58-2.64,6.81-3.93a1.61,1.61,0,0,1,1.91.23h0a25.34,25.34,0,0,0,2.34,2,24.9,24.9,0,0,0,2.56,1.7,25.34,25.34,0,0,0,2.74,1.37,25,25,0,0,0,2.88,1,1.61,1.61,0,0,1,1.17,1.55v7.85a.93.93,0,0,0,.07.37,1,1,0,0,0,.21.32,1,1,0,0,0,.69.29h9.63a1,1,0,0,0,.37-.07,1,1,0,0,0,.53-.53,1,1,0,0,0,.07-.37v-7.85a1.62,1.62,0,0,1,1.24-1.57,25.07,25.07,0,0,0,5.55-2.37,25,25,0,0,0,2.56-1.7,25.31,25.31,0,0,0,2.34-2,1.61,1.61,0,0,1,2-.18l6.72,3.88a1,1,0,0,0,.36.12,1,1,0,0,0,.39,0,1,1,0,0,0,.34-.17,1,1,0,0,0,.25-.28c1.6-2.78,3.22-5.55,4.81-8.34a1,1,0,0,0,.12-.36,1,1,0,0,0,0-.39,1,1,0,0,0-.17-.35.88.88,0,0,0-.28-.25l-6.8-3.92a1.6,1.6,0,0,1-.68-.76,1.55,1.55,0,0,1-.09-.26l-.18,0,.18-.72c.12-.5.23-1,.32-1.49s.17-1,.23-1.52.11-1,.14-1.53,0-1,0-1.54,0-1.05,0-1.54-.08-1-.14-1.53-.14-1-.23-1.52-.2-1-.32-1.49a1.6,1.6,0,0,1,.1-1.06,1.62,1.62,0,0,1,.72-.75l6.73-3.89a.92.92,0,0,0,.28-.25,1,1,0,0,0,.17-.35,1,1,0,0,0,0-.39,1,1,0,0,0-.12-.35c-1.64-2.44-3.29-5.71-4.81-8.34a1,1,0,0,0-.25-.28,1,1,0,0,0-.34-.17,1,1,0,0,0-.39,0,1,1,0,0,0-.35.12l-6.8,3.93a1.59,1.59,0,0,1-1,.2,1.62,1.62,0,0,1-.92-.45,25.2,25.2,0,0,0-2.33-2A25.46,25.46,0,0,0,205,230a25,25,0,0,0-2.74-1.36,24.67,24.67,0,0,0-2.88-1,1.61,1.61,0,0,1-1.17-1.55v-7.85a1,1,0,0,0-.07-.37,1,1,0,0,0-.21-.32,1,1,0,0,0-.32-.21,1,1,0,0,0-.37-.07h-9.63a.94.94,0,0,0-.37.07,1,1,0,0,0-.6.9V226a1.6,1.6,0,0,1-.35,1,1.63,1.63,0,0,1-.89.57Zm-3.38-.3a26.53,26.53,0,0,0-2.87,1.44,26.61,26.61,0,0,0-5.17,3.9.18.18,0,0,1-.11,0,.19.19,0,0,1-.12,0l-6.86-4a2.37,2.37,0,0,0-.86-.27,2.44,2.44,0,0,0-.9.07,2.39,2.39,0,0,0-.84.41,2.35,2.35,0,0,0-.62.7c-1.66,2.68-3.23,5.59-4.81,8.34a2.37,2.37,0,0,0-.3.89,2.43,2.43,0,0,0,.06.93,2.4,2.4,0,0,0,.41.84,2.35,2.35,0,0,0,.7.62c2.19,1.35,4.56,2.63,6.8,3.92a.18.18,0,0,1,.08.09.19.19,0,0,1,0,.12l-.16.63h0c-.07.31-.13.62-.19.94q-.15.82-.25,1.6t-.14,1.61c0,.55-.05,1.1-.05,1.63s0,1.07.05,1.63.08,1.09.14,1.61.15,1.06.25,1.6.21,1.07.34,1.58a.17.17,0,0,1,0,.12.18.18,0,0,1-.08.09c-2.5,1.33-5,2.9-7.5,4.33l.09.11-.08.09a2.42,2.42,0,0,0-.48,1.77,2.33,2.33,0,0,0,.3.89l5.17,9,.1-.06.16.13a2.41,2.41,0,0,0,1.77.48,2.4,2.4,0,0,0,.86-.28c2.26-1.2,4.59-2.65,6.83-3.94a.19.19,0,0,1,.11,0,.2.2,0,0,1,.11.05,26.6,26.6,0,0,0,8.06,5.34,26.27,26.27,0,0,0,3,1.08.19.19,0,0,1,.1.07.17.17,0,0,1,0,.11v7.85a2.35,2.35,0,0,0,.18.91,2.4,2.4,0,0,0,.52.78,2.46,2.46,0,0,0,.78.52,2.39,2.39,0,0,0,.91.18h9.63a2.39,2.39,0,0,0,.91-.18,2.46,2.46,0,0,0,.78-.52,2.43,2.43,0,0,0,.52-.78,2.39,2.39,0,0,0,.18-.91v-7.85a.19.19,0,0,1,0-.12.2.2,0,0,1,.11-.07h0a26.23,26.23,0,0,0,5.9-2.51,26.69,26.69,0,0,0,5.17-3.9.19.19,0,0,1,.11-.05.2.2,0,0,1,.12,0l6.8,3.92a2.34,2.34,0,0,0,.88.3,2.41,2.41,0,0,0,1.77-.48,2.37,2.37,0,0,0,.6-.68c1.79-2.87,3.47-6,5.17-9l-.09-.05a2.3,2.3,0,0,0,0-.23,2.38,2.38,0,0,0-.06-.93,2.41,2.41,0,0,0-.41-.84,2.38,2.38,0,0,0-.7-.61l-6.8-3.92a.2.2,0,0,1-.08-.09.2.2,0,0,1,0-.12l.18-.72h0c.06-.28.12-.56.17-.85.1-.54.18-1.08.25-1.6s.11-1.06.15-1.61.05-1.1.05-1.63,0-1.07-.05-1.62-.08-1.09-.15-1.62-.15-1.05-.25-1.6-.21-1.06-.34-1.57a.2.2,0,0,1,0-.13.19.19,0,0,1,.09-.09l6.79-3.92a2.34,2.34,0,0,0,.7-.62,2.41,2.41,0,0,0,.41-.84A2.4,2.4,0,0,0,226,238c-1.62-3-3.47-6-5.18-9l-.1.06-.16-.13a2.41,2.41,0,0,0-.84-.41,2.45,2.45,0,0,0-.93-.06,2.39,2.39,0,0,0-.88.29l-.5.29h0l-6.3,3.64a.19.19,0,0,1-.12,0,.19.19,0,0,1-.11-.05l0,0a26.83,26.83,0,0,0-5.15-3.88,26.53,26.53,0,0,0-5.94-2.52.18.18,0,0,1-.1-.07.18.18,0,0,1,0-.11v-7.85a2.4,2.4,0,0,0-2.39-2.39h-9.63a2.38,2.38,0,0,0-.91.18,2.47,2.47,0,0,0-.78.52,2.39,2.39,0,0,0-.7,1.69V226a.2.2,0,0,1,0,.12.19.19,0,0,1-.11.06h0A26.57,26.57,0,0,0,182,227.31Z"/><path class="cls-5" d="M157.69,392.89Zm3.39-12.9a6.51,6.51,0,1,1-1.91,4.61,6.49,6.49,0,0,1,1.91-4.61Zm1.41-6.46a11.46,11.46,0,0,0-2.55,1.09,11.65,11.65,0,0,0-2.24,1.69.4.4,0,0,1-.48.06l-3-1.75h0a.75.75,0,0,0-.55-.06.75.75,0,0,0-.46.35v0L151,378.61a.76.76,0,0,0,.28,1h0l3,1.73a.4.4,0,0,1,.19.44h0a11.59,11.59,0,0,0,0,5.56.4.4,0,0,1-.21.45l-3,1.73h0a.75.75,0,0,0-.28,1l2.14,3.71h0a.76.76,0,0,0,1,.28h0l3-1.74a.4.4,0,0,1,.48.06,11.51,11.51,0,0,0,4.81,2.78.4.4,0,0,1,.29.39v3.49a.75.75,0,0,0,.75.75h4.29a.76.76,0,0,0,.75-.75v-3.49a.4.4,0,0,1,.31-.39,11.5,11.5,0,0,0,4.79-2.78.4.4,0,0,1,.5,0l3,1.74a.75.75,0,0,0,1-.28v0l2.13-3.69h0a.75.75,0,0,0-.27-1l-3-1.75a.4.4,0,0,1-.19-.44h0a11.61,11.61,0,0,0,.25-1.38,11.59,11.59,0,0,0-.25-4.18.4.4,0,0,1,.21-.45l3-1.73a.76.76,0,0,0,.27-1v0l-2.13-3.69h0a.76.76,0,0,0-1-.28h0l-3,1.75a.4.4,0,0,1-.49-.07,11.48,11.48,0,0,0-4.8-2.77.4.4,0,0,1-.29-.39v-3.49a.76.76,0,0,0-.75-.75h-4.29a.75.75,0,0,0-.75.75v3.49A.4.4,0,0,1,162.48,373.54Z"/><path class="cls-4" d="M357.68,66.66h34.73a3.26,3.26,0,0,1,2.08.75,1,1,0,0,1,.41.31A1,1,0,0,1,395,68a3.25,3.25,0,0,1,.65,2V90.35a3.27,3.27,0,0,1-1,2.31h0a3.27,3.27,0,0,1-2.32,1H357.68a3.29,3.29,0,0,1-3.28-3.28V69.94a3.27,3.27,0,0,1,.65-2,1,1,0,0,1,.14-.25,1,1,0,0,1,.41-.31,3.26,3.26,0,0,1,2.08-.75Zm35.18,24.9L379.09,81l-3.43,2.62h0l-.08.06h-.16l-.11,0h0l-.12,0h-.26l-.12,0h0l-.11,0h-.16l-.08-.06h0L371,81,357.23,91.56a1.27,1.27,0,0,0,.45.08h34.73a1.28,1.28,0,0,0,.45-.08ZM380.32,80.1l13.37,10.22V69.89L380.32,80.1ZM356.39,90.32,369.76,80.1,356.39,69.89V90.32ZM375,81.63l17-13H358Z"/><path class="cls-4" d="M42.94,171.79a20.4,20.4,0,0,1,3.14-6.8,11.15,11.15,0,0,1,2.17-2.3,1.37,1.37,0,0,1,.76-.3h0a1.37,1.37,0,0,1,.79.19,13.49,13.49,0,0,1,3,2.42,10.52,10.52,0,0,1,2,3,9.15,9.15,0,0,1,.75,3.56,6.87,6.87,0,0,1-.77,3.31h0l-12,20.76A6.83,6.83,0,0,1,40.33,198a9.13,9.13,0,0,1-3.48,1.15,10.51,10.51,0,0,1-3.59-.2,13.44,13.44,0,0,1-3.57-1.4,1.37,1.37,0,0,1-.58-.55h0a1.35,1.35,0,0,1-.17-.77h0a12.46,12.46,0,0,1,1.72-4.7,21.8,21.8,0,0,1,3.5-4.52,1.38,1.38,0,0,1,1.68-.24c.06,0,3.3,1.89,4.11.52l6.15-10.65c.34-.59-.13-1.32-.72-1.92a9.43,9.43,0,0,0-1.77-1.38,1.37,1.37,0,0,1-.66-1.55Zm4.4-5.88a18.73,18.73,0,0,0-2.86,6.15,11,11,0,0,1,2,1.58c1,1,1.75,2.39.95,3.78l-6.15,10.66c-1.45,2.45-5.37.5-6.1.1A20.15,20.15,0,0,0,32,192.3a11.5,11.5,0,0,0-1.5,3.94,11.84,11.84,0,0,0,3.1,1.2,9,9,0,0,0,3.07.17,7.58,7.58,0,0,0,2.89-.95,5.26,5.26,0,0,0,1.92-1.79l12-20.75h0a5.31,5.31,0,0,0,.57-2.55,7.59,7.59,0,0,0-.62-3,9,9,0,0,0-1.69-2.57A11.85,11.85,0,0,0,49.12,164,9.88,9.88,0,0,0,47.34,165.91Z"/><path class="cls-5" d="M628,412.54a1.12,1.12,0,1,0-2.23,0v2.63h-2.63a1.12,1.12,0,0,0,0,2.23h2.63V420a1.12,1.12,0,1,0,2.23,0V417.4h2.63a1.12,1.12,0,0,0,0-2.23H628Z"/><path class="cls-5" d="M270,259.44a1.12,1.12,0,0,0-2.24,0v2.63h-2.63a1.12,1.12,0,0,0,0,2.24h2.63v2.63a1.12,1.12,0,0,0,2.24,0V264.3h2.63a1.12,1.12,0,1,0,0-2.24H270Z"/><path class="cls-5" d="M146,275.89a1.12,1.12,0,1,0-2.23,0v2.63h-2.63a1.12,1.12,0,0,0,0,2.24h2.63v2.63a1.12,1.12,0,1,0,2.23,0v-2.63h2.63a1.12,1.12,0,0,0,0-2.24H146Z"/><path class="cls-5" d="M271.22,55.72a1.12,1.12,0,1,0-2.23,0v2.63h-2.63a1.12,1.12,0,0,0,0,2.23H269v2.63a1.12,1.12,0,0,0,2.23,0V60.58h2.63a1.12,1.12,0,1,0,0-2.23h-2.63Z"/><path class="cls-5" d="M97.87,159.08a1.12,1.12,0,1,0-2.23,0v2.63H93a1.12,1.12,0,1,0,0,2.24h2.63v2.63a1.12,1.12,0,1,0,2.23,0v-2.63h2.63a1.12,1.12,0,0,0,0-2.24H97.87Z"/><path class="cls-5" d="M80.16,49a1.12,1.12,0,1,0-2.23,0v2.63H75.29a1.12,1.12,0,0,0,0,2.24h2.63v2.63a1.12,1.12,0,0,0,2.23,0V53.86h2.63a1.12,1.12,0,0,0,0-2.24H80.16Z"/><path class="cls-5" d="M20.69,264.1a1.12,1.12,0,1,0-2.23,0v2.63H15.82a1.12,1.12,0,0,0,0,2.24h2.63v2.63a1.12,1.12,0,0,0,2.23,0V269h2.63a1.12,1.12,0,1,0,0-2.24H20.69Z"/><path class="cls-5" d="M561,170.47a1.12,1.12,0,1,0-2.23,0v2.63h-2.63a1.12,1.12,0,0,0,0,2.24h2.63V178a1.12,1.12,0,1,0,2.23,0v-2.63h2.63a1.12,1.12,0,0,0,0-2.24H561Z"/><path class="cls-5" d="M574.9,316a1.12,1.12,0,1,0-2.23,0v2.63H570a1.12,1.12,0,0,0,0,2.24h2.63v2.63a1.12,1.12,0,1,0,2.23,0v-2.63h2.63a1.12,1.12,0,0,0,0-2.24H574.9Z"/><path class="cls-7" d="M299,218.9a1.12,1.12,0,1,0-2.24,0v2.63h-2.63a1.12,1.12,0,1,0,0,2.23h2.63v2.63a1.12,1.12,0,1,0,2.24,0v-2.63h2.63a1.12,1.12,0,0,0,0-2.23H299Z"/><path class="cls-7" d="M218,136.65a1.12,1.12,0,1,0-2.23,0v2.63h-2.63a1.12,1.12,0,1,0,0,2.23h2.63v2.63a1.12,1.12,0,0,0,2.23,0v-2.63h2.63a1.12,1.12,0,1,0,0-2.23H218Z"/><path class="cls-7" d="M364.8,154.36a1.12,1.12,0,1,0-2.24,0V157h-2.63a1.12,1.12,0,1,0,0,2.23h2.63v2.63a1.12,1.12,0,0,0,2.24,0v-2.63h2.63a1.12,1.12,0,0,0,0-2.23H364.8Z"/><path class="cls-7" d="M436.93,382.12a1.12,1.12,0,1,0-2.23,0v2.63h-2.63a1.12,1.12,0,1,0,0,2.23h2.63v2.63a1.12,1.12,0,1,0,2.23,0V387h2.63a1.12,1.12,0,0,0,0-2.23h-2.63Z"/><path class="cls-7" d="M590,380.86a1.12,1.12,0,1,0-2.23,0v2.63h-2.63a1.12,1.12,0,1,0,0,2.23h2.63v2.63a1.12,1.12,0,1,0,2.23,0v-2.63h2.63a1.12,1.12,0,0,0,0-2.23H590Z"/><path class="cls-13" d="M433.43,287.53l8-7.85c2.57-5,4-9.81,2.75-15.32-2.06-8.83,4.11-19.55-1.69-29.55-4.51-7.78-10.91-7.62-15.25-6.3-2.95-6.44-11.48-10-28.54-7.79,0,0-21,3.4-20.77,20.12,0,0-15.52,16.57-2.2,28,0,0,2.78,16.62,9.49,19.88C388.62,290,416.86,287.93,433.43,287.53Z"/><path class="cls-14" d="M402.95,223.24c20.58-1.19,24.28,5.28,24.28,5.28-2.95-6.44-11.48-10-28.54-7.79,0,0-19.83,3.21-20.74,18.73C378,239.31,384.26,224.32,402.95,223.24Z"/><path class="cls-14" d="M444.85,248.75h0c.42-4.63.28-9.36-2.38-13.93-4.51-7.78-10.91-7.62-15.25-6.3C427.23,228.52,443.05,230.07,444.85,248.75Z"/><path class="cls-15" d="M475.16,310.59a30,30,0,0,1,12.33,8.89c3.07,3.73,40.69,75.8,43.11,80.49s2.41,16.55-3.29,23.85c-2.21,2.84-8.57,10.77-15.53,19.41H489.25c8.18-12.28,18.87-28.34,19.63-29.63,1.25-2.11,1.88-4.16-.41-7.73s-32.4-40.29-32.4-40.29S461.27,324.21,475.16,310.59Z"/><path class="cls-3" d="M435.6,304.79s37.93,5.39,39.57,5.8,4.4,4.22,5.9,6.79,3.25,39.6,4.09,50-2.49,55.57-1.5,67.71c.16,2,.47,4.85.88,8.18H371.06c-1.46-13.42-11.57-55.43-12.4-65.52-.85-10.37-5.15-47.18-4.09-50s3.16-7,4.71-7.66,38.54-12.2,38.54-12.2l19,2.09Z"/><path class="cls-7" d="M435.6,304.79l6.27.89a5.44,5.44,0,0,1-1.3,2.57c-14.74,16.89-29.8,18.13-47.09,3.86a5.43,5.43,0,0,1-1.71-2.34l6-1.89,19,2.09Z"/><path class="cls-9" d="M429,268.26l.32,9.44,1.82,22.2c.12,1.41,1.75,3.33,4.49,4.9-12.4,14.21-23.23,15.1-37.78,3.1,2.45-2,3.75-4.15,3.63-5.56l-1.82-22.2-1.22-9.37s7.62.59,15.51,1.66C421.54,270.08,429,268.26,429,268.26Z"/><path class="cls-15" d="M438.73,305.24s-4.39,19-4.71,22.81-5.48,42.69-4.94,49.26c.24,3,6.18,33.33,12.64,65.93H493.4c-1.27-7.94-2.36-14.8-2.94-18.66-2.1-13.91-3.51-42.81-3-60.67s-4-44.64-4.51-47.18-5.59-5.72-7.16-6.31Z"/><path class="cls-8" d="M433.07,336.16c-1.55,12.8-4.4,36.18-4,41.14,0,0,25.14-27.37,24.76-30.07s-10.61-22.83-10.61-22.83S438.83,329.46,433.07,336.16Z"/><path class="cls-6" d="M437.47,305.06s1.11-1,1.51-1,7.22,2.28,7.22,2.28,9.95,15.64,10.11,17.64-24.43,22.12-24.43,22.12l2.18-18.4s3.56-18,4.67-22.43Z"/><path class="cls-15" d="M359.72,320.05A30,30,0,0,0,349,330.83c-2.43,4.18-27.81,81.42-29.43,86.44s.32,16.73,7.13,23l3.27,3H358.1c-7.45-8-14.19-15.24-14.88-16.05-1.58-1.88-2.53-3.8-.86-7.69s25.41-45,25.41-45S375.64,331.23,359.72,320.05Z"/><path class="cls-15" d="M394.79,308.84s7.41,18,8.36,21.74,12.35,41.23,12.89,47.79c.24,2.92-.63,32.51-1.67,64.86H363.26c0-3.38,0-6.21-.07-8.23-.19-14.06-3.51-42.81-6.87-60.35S353,330,353.08,327.36s4.59-6.55,6-7.39Z"/><path class="cls-8" d="M405.41,338.43c3.62,12.37,10.23,35,10.64,39.95,0,0-29.26-22.91-29.32-25.64s6.75-24.25,6.75-24.25S398.64,332.76,405.41,338.43Z"/><path class="cls-6" d="M396,308.46a5.56,5.56,0,0,0-1.66-.77c-.4,0-6.75,3.42-6.75,3.42s-7.27,17.05-7.11,19.05S408.2,348,408.2,348l-5.15-17.8s-6.45-17.17-8.26-21.37Z"/><path class="cls-9" d="M382.07,274l-.56.15h0a7.81,7.81,0,1,0,6.63,1c.41,2.28.3,5.15-2.6,5.7l-.32-4.49A2.68,2.68,0,0,0,382.07,274Z"/><path class="cls-9" d="M438.16,268.89l.58,0h0a7.81,7.81,0,1,1-6.34,2.15c0,2.31.64,5.12,3.59,5.14l-.49-4.47A2.68,2.68,0,0,1,438.16,268.89Z"/><path class="cls-12" d="M406.58,232.64h0a26.79,26.79,0,0,0-24.18,29l2.21,24.2a26.8,26.8,0,0,0,29,24.18h0a26.79,26.79,0,0,0,24.18-29l-2.21-24.2A26.8,26.8,0,0,0,406.58,232.64Z"/><path class="cls-16" d="M384,249.76a26.47,26.47,0,0,0-1.65,11.91l2.21,24.2a26.81,26.81,0,0,0,26.49,24.29c-15.47-1.19-18.33-19.47-19.51-29.09s3.42-10.78,4.86-11.26c.81-.27,11.29-1.21,18.57-2.95,5.63-1.35,11.3-8.83,11.3-8.83s3.06,8.21,6.16,12.2a44.35,44.35,0,0,0,5,5l-.66-6,.09-6-5-6.5s1.71.06,3.74,0a26.61,26.61,0,0,0-1-5,42.36,42.36,0,0,1-8.78-4c-5.92-3.82-34.22,1-38.8,1A7.19,7.19,0,0,0,384,249.76Z"/><path class="cls-13" d="M508.09,134.92s-11.42-9.27-.25-31.05c10.31-20.1,23.92-24.51,39.58-23,15.21,1.49,20.85,16.09,21,20.73,0,0,15.11,3.4,14.15,19.4s-18.75,32.42-18.75,32.42l-44.48-4.75Z"/><path class="cls-13" d="M517.25,140.58s-6.5-10.58-4.61-23.2l14.44,1.24Z"/><path class="cls-13" d="M566,148.57s9.54-8,11.78-20.51l-14.08-3.44Z"/><path class="cls-14" d="M526.31,87.68a33.21,33.21,0,0,1,41.53,12.94l.58,1c-.14-4.64-5.78-19.24-21-20.73-14.38-1.4-27,2.21-37,18.39A41.5,41.5,0,0,1,526.31,87.68Z"/><path class="cls-14" d="M568.26,100.24l-.42.38.53.37C568.34,100.76,568.3,100.51,568.26,100.24Z"/><path class="cls-14" d="M569.68,102c3.33,2.63,10.25,9,12.92,18C582.82,107.61,573.19,103.18,569.68,102Z"/><path class="cls-17" d="M500.51,308.36,497,339.49s5.35,72.9,8,103.75h39.76l.87-124.08Z"/><path class="cls-17" d="M521.6,335.36l-1.75,11,3.48,96.88H571.8c.81-6.71,1.54-12.44,2.13-16.57,3.64-25.48,4.89-60.9,4.87-69.28s-9.72-20.82-13.06-21.73S521.6,335.36,521.6,335.36Z"/><path class="cls-15" d="M505.38,185.78s-1.65-3.08-3-2.5S457.23,248.43,455.74,254s-.88,15.4,7.62,29.07S490,330.27,490.67,331s10.57-6,11.63-7.89c0,0,.44-.62-.2-1.88s-22.24-52.43-23.61-56.11,37.12-49.23,39-52.87S526.36,189.49,505.38,185.78Z"/><path class="cls-3" d="M540.56,167.28l-19.11,13.65s-13.63,53.38-13.69,55.81-5.27,31.86-5.27,31.86,19.11,7.58,21.84.3,33.37-59.46,34.89-67.65-2.12-27.61-3.94-29.73S540.56,167.28,540.56,167.28Z"/><path class="cls-15" d="M521.32,176.27s-17.31,6.09-18.9,7-10.94,35-11.7,38.16S495,283,495,288.17s-6.52,69.62-6.67,70.68a1.91,1.91,0,0,0,2,2.28c1.52,0,18.5-32,19.87-35.64s-3.05-58.54-3.05-58.54l11.55-78.57Z"/><path class="cls-8" d="M572.7,184.91s24.81,25,25.72,26.52-24.87,86.91-25.18,90.86,12.74,62,13.2,63.55a2.93,2.93,0,0,1-.38,1.52,5.65,5.65,0,0,1-2,1.82c-.53.38-61.2-9.4-66.06-12.44s-15.32-50.21-15.32-56.58,3.67-30.75,3.67-30.75l29.85-50.55S557.73,186.51,572.7,184.91Z"/><path class="cls-15" d="M568.77,181s28.74,28.94,29.65,30.45-24.87,86.91-25.18,90.86,12.74,62,13.2,63.55a2.93,2.93,0,0,1-.38,1.52,5.64,5.64,0,0,1-2,1.82c-.27.19-16.41-2.29-32.7-5.17,14.13-20.37,13.39-54.11,12.16-56.17-1.43-2.39-9-7.55-7.84-7.93s8.89-.57,9.46-2.48S576.56,235,576.56,235l7.27-4.9s3.25-23.51,1-27-17.42-16.45-17.55-16.56C569.12,185.7,567,181.16,568.77,181Z"/><path class="cls-8" d="M594.95,207.62A43.26,43.26,0,0,1,601.3,214c2.6,3.39,35,71.06,35.64,77.4s-1.7,17-13.36,30.53S586.22,369,585.39,369.72s-10.54-8.41-11.38-10.65c0,0-.37-.75.54-2S608,303.47,610.1,299.68,577.94,239.35,576.56,235,571.33,208.06,594.95,207.62Z"/><path class="cls-9" d="M558.71,143.52c.18,9.46-2.28,19.23-1.66,28.7.13,1.93,1.05,2.57,3.44,4.12,3.3,4.91-5.73,20.45-11.66,21.37-.39.06-10.06-7.52-16.91-9.28-3.52-.9-6.41,3.59-6.67,3.39-1.42-1,1.64-9.07.64-12.12,1.21-.32,2.28-3,3.13-3.8,5.55-5.12,3.74-17.9-.81-22.72C524.81,149.57,558.71,143.52,558.71,143.52Z"/><path class="cls-7" d="M565,180c-.75,2.14-19.09,26.61-19.09,26.61s-.66.88-1.61-.23S532,189.54,532,189.54l25.09-18.7-.57-4.3C556.89,166.15,565.74,177.85,565,180Z"/><path class="cls-7" d="M531.35,172.09s0,0-.1,0c-8.58-.61-9.88,23.69-8.37,28.46,0,0,5.21-8,8.8-11.13C533.3,187.94,528.23,177,531.35,172.09Z"/><path class="cls-4" d="M562.81,173.06s-32.08,39.77-34.36,43.1-19.72,44.44-22.14,53.24c0,0,26.85-33.52,30.64-36.55s17.83-14.71,17.83-14.71a2,2,0,0,0,.19-1.29c-.19-.53-4.09-9.37-4.09-9.37s11.68,1.74,12.74,1.67,6.31-26.13,6.46-26.89S562.81,173.06,562.81,173.06Z"/><path class="cls-4" d="M531.42,172s-8.49,2-9.85,2.72-12.13,18.66-12.44,20.17a1,1,0,0,0,.45,1,31.59,31.59,0,0,1,3.07,1.93c.23.23-3.75.68-3.75.68s-.45.17-.38.87-1.44,67.5-1.44,67.5,13.24-73.86,15.2-78.72,7.23-12.55,7.23-12.55Z"/><circle class="cls-11" cx="517.03" cy="137.33" r="7.57" transform="translate(-0.75 2.86) rotate(-0.32)"/><circle class="cls-11" cx="567.51" cy="137.04" r="7.56" transform="translate(-0.75 3.13) rotate(-0.32)"/><path class="cls-12" d="M539.62,90.88h0c14.25-.09,26,12.56,26.06,28.1l.13,25.68c.08,15.54-11.52,28.33-25.77,28.41h0c-14.25.09-26-12.56-26.06-28.1l-.13-25.68C513.77,103.75,525.36,91,539.62,90.88Z"/><path class="cls-16" d="M564.67,111.34a30.45,30.45,0,0,1,1,7.63l.13,25.68c.07,14.29-9.72,26.25-22.38,28.15l-2.21.23h0c14.15-1.4,17.15-20,17.15-25.6V132.88c0-2.14-7.47-6.91-9.45-10.9a29.28,29.28,0,0,1-2.37-9.29s-10.45,0-17.4,3.17c-8.22,3.79-15.28,10.93-15.28,10.93v-7.49a29.43,29.43,0,0,1,8.36-20.89c13,2.53,34.55,6.85,36,7.78C559.05,106.68,561.69,108.84,564.67,111.34Z"/><path class="cls-13" d="M343.33,399.25s-4.25-79.42-3.41-100.77C341,269.82,325.81,229.31,280.3,246c0,0-10.38,9-15.23,16.5-4.19,6.45-7.91,42.33-5.22,123.28L331,388.2s.5,2.82,3.95,6.09A26.41,26.41,0,0,0,343.33,399.25Z"/><path class="cls-14" d="M330.48,382.64s1.09-89.57-2.93-99.27c-1.39-3.35-42.49-5.54-42.49-5.54l-.22,89.23Z"/><path class="cls-14" d="M266.32,275.31c4.12-16.86,15.86-26.12,29.83-33A61.71,61.71,0,0,0,280.3,246s-10.43,5.61-15.23,16.5c-3.1,7-10.91,27.33-8.22,108.28l7.14,0c.26-5,.45-10.08.5-15.12C265.12,329.55,260.06,300.93,266.32,275.31Z"/><path class="cls-3" d="M276.63,325.83c9.73,3.05,23,6.7,34.52,12.35.79.39-.82,3.44-.09,3.85a26.91,26.91,0,0,1,5,4.09c5.36,5.3,16.27,46.78,15.29,50.91-1.57,6.65-15.34,24.91-15.34,24.91-2.74,5.28-6.13,13-9.46,21.3H238.15c4.77-15.49,6.54-26,6.67-35.45h0c3.65-32.16-13.64-39.16-13.64-39.16l17.91-42.14c7-2.47,20.86-1.54,20.86-1.54C273.62,324.95,273.34,324.8,276.63,325.83Z"/><path class="cls-4" d="M306.58,443.24h-9.66c1.8-4.82,10.17-27.6,12-32.46-8.14-1.42-19.34-3.36-21.32-3.83S278,410.8,278,410.8l.84-4.92-8.12,8.18,13.89-25.93s22.66,5.12,27.48,6,1.88.21,2.77.14c2.68-7.53-1.71-9.64-1.19-13.28s.67-39,.67-39c2.93,1.52,4.25,4.82,5.91,10,1.09,3.42,6.88,25.93,9.27,39.23.57,3.17,1,5.54,1.31,7.42C325.48,412.35,313.43,426.13,306.58,443.24Z"/><path class="cls-9" d="M293.53,287l-3.43,10.29s-5.18,24.29-6.38,27.44c-.42,1.09-1.79,1.43-3.89,1.38,3,4.34,8.92,11,17.43,12.58,5.44,1,9.24,0,11.82-1.51-1.82-1-3.56-2.1-3.55-3,.07-8.29,1.5-22.88,6-25.58C316.66,305.46,293.53,287,293.53,287Z"/><path class="cls-7" d="M281.53,326a21.58,21.58,0,0,1-4.9-.19,37,37,0,0,0,10.9,9.84c13.42,8.5,19.89,3.87,21.93,1.68a14.92,14.92,0,0,1-3.27-2.1h0c-12.53,6.12-24.65-9.24-24.65-9.24Z"/><path class="cls-8" d="M310.6,337.91s5.35,53.87,4.7,58.42-9.16,27-16.62,46.91h12.83c2.53-4.88,4.47-8.69,4.82-9.61.23-.59,1.11-2.32,2.33-4.57,2.19-4.06,5.47-9.84,7.93-13.89,7.86-12.91,7.84-9.9,5.12-25-2.4-13.31-9.75-37.93-10.84-41.36C319.22,343.58,312,337.53,310.6,337.91Z"/><path class="cls-15" d="M309.85,412.88c-1.76,4.93-3.81,10.54-5.94,16.3a42.87,42.87,0,0,1,8.12,1.16c3.9,1.53,4.31,3.28,4.31,3.28.23-.59,1.11-2.32,2.33-4.57,2.19-4.06,5.47-9.84,7.93-13.89,2.36-3.88,4-6.32,5.1-8.25-1.51,1.33-3.93,3.33-5.1,3.69C325.17,411,314.24,412.36,309.85,412.88Z"/><path class="cls-8" d="M274.61,324.68s9.82,47.58,11.17,61.41-3,23.73-7.85,34.12c-1.64,3.5-6.9,12.44-13.38,23H234.32l3.23-74.74-8.67-2c.51-3.75.94-6.86,1.22-9l17.07-30.19S253.61,322,274.61,324.68Z"/><path class="cls-15" d="M256.23,347.58C251.4,367,254.75,375,254.75,375l2.58-12.06s2.44,17.8,5.16,20.06c1.35,1.13,17.42,4.21,23.45,5.33a50.53,50.53,0,0,1-3,19.93c-4.32.44-30.33-3.22-31.58,5.18-.62,4.19-.48-9.29-.48-9.29l-1.54,39.08H234.32l3.23-74.74-8.67-2,0-.18,0-.17,0-.17,0-.17h0l0-.17,0-.17,0-.17,0-.17,0-.17,0-.17,0-.17h0l0-.17,0-.16,0-.16h0l0-.16,0-.16h0l0-.16h0l0-.16h0l0-.16h0l0-.16h0l0-.16h0l0-.15h0l0-.15h0l0-.15h0l0-.15h0l0-.15h0l0-.15h0l0-.15h0l0-.15h0l0-.14h0l0-.14h0l0-.14h0l0-.14h0l0-.14h0l0-.14h0l0-.14h0l0-.14h0l0-.14h0l0-.13h0l0-.13h0l0-.13h0l0-.13h0l0-.13h0l0-.13h0l0-.13h0l0-.13h0l0-.12h0l0-.12h0l0-.12h0l0-.12h0l0-.12h0l0-.12h0l0-.12h0l0-.12h0v-.11h0l0-.11h0v-.11h0v-.11h0V358h0v-.11h0v-.11h0v-.1h0v-.1h0v-.1l9.25-16.35Z"/><path class="cls-8" d="M232.32,348.37c-5.54,15.13-7,67-2.48,94.86h24.29c-9.94-55.29,10.93-94.84,6.35-108.85C253.13,312,236,338.43,232.32,348.37Z"/><circle class="cls-11" cx="325.79" cy="300.43" r="7.74" transform="translate(-6.6 593.53) rotate(-84.09)"/><path class="cls-9" d="M272.66,287.23l-.57,0h0a7.75,7.75,0,1,0,6.31,2.09c0,2.29-.6,5.08-3.53,5.12l.46-4.44A2.66,2.66,0,0,0,272.66,287.23Z"/><path class="cls-12" d="M292.79,267.65c-3.76,4.06-15.29,15.32-15.9,21.22l-2.48,10A26.6,26.6,0,0,0,298.06,328h0a26.6,26.6,0,0,0,29.11-23.65l.48-18a60.92,60.92,0,0,0-24.8-18.64C295.28,264.1,292.79,267.65,292.79,267.65Z"/><path class="cls-15" d="M307.75,336.41s6.9,56.62,6.76,58.46-2,10.69-2,10.69,3.33-5.59,4.15-10.22,3-36,3-36l-3.68-2,3.4-.2-5.62-17.59a5,5,0,0,0-1.53-1.82c-.89-.51-4.11-2.13-4.16-2.15a2.11,2.11,0,0,0-1.26.15Z"/><path class="cls-15" d="M274.61,324.68s9.82,47.58,11.17,61.41a49.09,49.09,0,0,1-.85,15.33c1.81-14.15-18.1-47.44-18.1-47.44l5.17-2.45-6.94-3.13s3.2-17.91,3.4-20.9S267.12,324,267,324C269.32,324.12,271.84,324.33,274.61,324.68Z"/><path class="cls-18" d="M78.12,464.25h8.6A6.25,6.25,0,0,0,93,458h0a6.25,6.25,0,0,0-6.23-6.23H64a5,5,0,0,1-4.95-4.94h0A5,5,0,0,1,64,441.9H664.08a5,5,0,0,1,4.95,4.95h0a5,5,0,0,1-4.95,4.94H632.93A6.25,6.25,0,0,0,626.7,458h0a6.25,6.25,0,0,0,6.23,6.23h7.3a9.92,9.92,0,0,1,9.89,9.89h0a9.92,9.92,0,0,1-9.89,9.89H78.12a9.92,9.92,0,0,1-9.89-9.89h0a9.92,9.92,0,0,1,9.89-9.89ZM50.64,441.9a4.95,4.95,0,1,1-4.95,4.95A4.95,4.95,0,0,1,50.64,441.9Z"/><path class="cls-19" d="M386.69,292.09s-4.4,1.63-.22,6.83c3.37,4.19,5.26,3.34,6.75,3.09,2.71-.47,6.68-3,6.29-6.69S392.32,291.51,386.69,292.09Z"/><path class="cls-20" d="M424.75,289.75s-3.43,3.26,2.38,6.39c4.68,2.52,6.1,1,7.37.15,2.31-1.51,5-5.4,3.25-8.7S429.7,287,424.75,289.75Z"/><path class="cls-21" d="M401.54,264.88s-5.67,2.66.45,9.1c4.93,5.18,7.35,3.84,9.29,3.33,3.54-.93,8.55-4.69,7.63-9.61S409,263.47,401.54,264.88Z"/><g id="_Group_" data-name="&lt;Group&gt;"><g id="_Group_2" data-name="&lt;Group&gt;"><path id="_Path_" data-name="&lt;Path&gt;" class="cls-22" d="M421,287.17s-4.61-11.07,1.92-14.09,12.63,4.69,12.28,7.13S432,289.93,421,287.17Z"/><path id="_Path_2" data-name="&lt;Path&gt;" class="cls-23" d="M421.48,288.4c-1.33-1.23-2-3.25-2-6s1-5.42,3.62-6.62c6.54-3,12.33,4,12,6.4a9,9,0,0,1-6.46,7.18C425.49,290.2,423.06,289.85,421.48,288.4Z"/><g id="_Group_3" data-name="&lt;Group&gt;"><path id="_Path_3" data-name="&lt;Path&gt;" class="cls-24" d="M420.17,285a5.63,5.63,0,0,0,7.85,2,6,6,0,0,0,2.09-8,5.63,5.63,0,0,0-7.84-2A6,6,0,0,0,420.17,285Z"/><path id="_Path_4" data-name="&lt;Path&gt;" class="cls-14" d="M421.9,283.93a3.57,3.57,0,0,0,5,1.28,3.79,3.79,0,0,0,1.31-5.1,3.56,3.56,0,0,0-5-1.28A3.8,3.8,0,0,0,421.9,283.93Z"/></g><path id="_Path_5" data-name="&lt;Path&gt;" class="cls-25" d="M423.06,275.76c6.54-3,12.33,4,12,6.4a9,9,0,0,1-4.52,6.4c1.8-1.87,5.16-6.13,1.45-9-4.86-3.74-10-2.67-11.52,1.49a13.58,13.58,0,0,0-.76,4C419.13,281.79,419.24,277.53,423.06,275.76Z"/><g id="_Group_4" data-name="&lt;Group&gt;"><path id="_Path_6" data-name="&lt;Path&gt;" class="cls-14" d="M419.37,284a10.87,10.87,0,0,1,.07-1.74,10.67,10.67,0,0,1,.36-1.86,7.72,7.72,0,0,1,1-2c.11-.16.25-.3.38-.45l.19-.23.23-.19.46-.39.53-.3.27-.16.29-.11.6-.21c.42-.1.86-.17,1.3-.26l1.38-.06.76,0,.7.08a8.8,8.8,0,0,1,2.82.93A7,7,0,0,1,433,279a6.5,6.5,0,0,1,.78,1.3,5.29,5.29,0,0,1,.37,1.43,5.6,5.6,0,0,1-.49,2.77,8.78,8.78,0,0,1-1.41,2.15,15,15,0,0,1-1.56,1.51l-.71.57-.62.45c-.38.28-.69.47-.89.61l-.32.21.36-.11a10.53,10.53,0,0,0,1-.34l.71-.29.82-.4c.29-.16.58-.35.91-.54s.63-.44.95-.72a7.84,7.84,0,0,0,1.86-2.19,6.69,6.69,0,0,0,.89-3.66,7.49,7.49,0,0,0-.45-2.15,7.6,7.6,0,0,0-1-1.88,9,9,0,0,0-3-2.51,10.32,10.32,0,0,0-3.32-1l-.84-.08h-.76c-.57,0-1.06.11-1.58.17a13.76,13.76,0,0,0-1.48.43l-.68.33-.33.17-.31.22-.6.44c-.18.18-.35.36-.51.54l-.24.27-.2.31c-.13.21-.27.4-.38.61a8,8,0,0,0-.79,2.52,9.9,9.9,0,0,0-.07,2.08,10.24,10.24,0,0,0,.17,1.32C419.33,283.8,419.37,284,419.37,284Z"/></g></g></g><ellipse class="cls-26" cx="422.15" cy="285.74" rx="2.25" ry="2.32" transform="translate(-27 44.65) rotate(-5.87)"/><ellipse class="cls-26" cx="427.87" cy="279.35" rx="1.4" ry="1.44" transform="translate(-26.31 45.2) rotate(-5.87)"/><g id="_Group_5" data-name="&lt;Group&gt;"><g id="_Group_6" data-name="&lt;Group&gt;"><path id="_Path_7" data-name="&lt;Path&gt;" class="cls-22" d="M401.12,289.21s2.32-11.75-4.7-13.38S385,283,385.8,285.28,390.83,294.16,401.12,289.21Z"/><path id="_Path_8" data-name="&lt;Path&gt;" class="cls-23" d="M400.86,290.52c1-1.47,1.34-3.6.78-6.3s-2.11-5.1-4.89-5.74c-7-1.63-11.27,6.38-10.44,8.7a9,9,0,0,0,7.79,5.71C397.3,293.09,399.61,292.26,400.86,290.52Z"/><g id="_Group_7" data-name="&lt;Group&gt;"><path id="_Path_9" data-name="&lt;Path&gt;" class="cls-27" d="M401.46,287a5.63,5.63,0,0,1-7.28,3.55,6,6,0,0,1-3.67-7.42,5.63,5.63,0,0,1,7.27-3.55A6,6,0,0,1,401.46,287Z"/><path id="_Path_10" data-name="&lt;Path&gt;" class="cls-14" d="M399.62,286.27a3.6,3.6,0,0,1-4.65,2.27,3.81,3.81,0,0,1-2.35-4.75,3.6,3.6,0,0,1,4.65-2.27A3.82,3.82,0,0,1,399.62,286.27Z"/></g><path id="_Path_11" data-name="&lt;Path&gt;" class="cls-25" d="M396.75,278.47c-7-1.63-11.27,6.38-10.44,8.7a9,9,0,0,0,5.73,5.35c-2.15-1.46-6.3-5-3.25-8.5,4-4.65,9.22-4.64,11.58-.88a13.59,13.59,0,0,1,1.55,3.72C401.82,283.57,400.84,279.42,396.75,278.47Z"/><g id="_Group_8" data-name="&lt;Group&gt;"><path id="_Path_12" data-name="&lt;Path&gt;" class="cls-14" d="M402,285.74a10.87,10.87,0,0,0-.42-1.69,10.67,10.67,0,0,0-.73-1.74,7.72,7.72,0,0,0-1.35-1.79c-.14-.13-.31-.24-.46-.36l-.23-.18-.26-.14-.53-.28-.58-.19-.29-.1-.31,0-.63-.09c-.43,0-.88,0-1.32,0l-1.36.23-.73.2-.66.22a8.8,8.8,0,0,0-2.57,1.48,7,7,0,0,0-1.93,2.35,6.5,6.5,0,0,0-.5,1.43,5.29,5.29,0,0,0-.08,1.47,5.6,5.6,0,0,0,1,2.61,8.78,8.78,0,0,0,1.82,1.81,15,15,0,0,0,1.83,1.16l.81.41.7.31c.42.19.77.32,1,.42l.36.14-.37,0a10.51,10.51,0,0,1-1.06-.12l-.75-.14-.88-.23c-.32-.09-.64-.22-1-.34s-.71-.3-1.08-.52a7.84,7.84,0,0,1-2.26-1.77,6.69,6.69,0,0,1-1.61-3.4,7.48,7.48,0,0,1,0-2.2,7.59,7.59,0,0,1,.63-2.06,9,9,0,0,1,2.41-3.06,10.32,10.32,0,0,1,3-1.67l.81-.25.75-.15c.57-.07,1.06-.1,1.58-.15a13.76,13.76,0,0,1,1.53.12l.74.19.36.1.35.15.67.31.61.43.29.22.26.26c.17.18.34.34.49.52a8,8,0,0,1,1.28,2.31,9.9,9.9,0,0,1,.5,2,10.23,10.23,0,0,1,.11,1.33C402,285.58,402,285.74,402,285.74Z"/></g></g></g><ellipse class="cls-26" cx="392.51" cy="288.31" rx="2.25" ry="2.32" transform="translate(-27.42 41.64) rotate(-5.87)"/><ellipse class="cls-26" cx="398.88" cy="283.28" rx="1.4" ry="1.44" transform="translate(-26.87 42.26) rotate(-5.87)"/><path class="cls-22" d="M406.31,292.45a8.85,8.85,0,0,0,5.16,1.3,5.31,5.31,0,0,0,4.6-2.32s1.36,1.14.74,2.35a12.4,12.4,0,0,1-4.33,3.72C411.63,297.71,404.71,295.63,406.31,292.45Z"/><ellipse class="cls-28" cx="412.02" cy="292.44" rx="1.6" ry="0.71" transform="translate(-27.73 43.65) rotate(-5.87)"/><path class="cls-29" d="M409.49,294a2.08,2.08,0,0,0-.86-.1c-.43,0-.78.31-.74.45s.4.17.7.3a2.66,2.66,0,0,1,.55.32,2.51,2.51,0,0,1,.58.24c.29.16.55.44.67.38s0-.53-.24-.93A2.55,2.55,0,0,0,409.49,294Z"/><path class="cls-29" d="M415.86,293.15c0-.14-.39-.17-.75-.07a2.51,2.51,0,0,0-.67.31,3,3,0,0,0-.41.68c-.16.37-.21.78-.09.85s.36-.18.6-.36a5.2,5.2,0,0,1,.49-.33,6,6,0,0,1,.39-.48C415.64,293.51,415.9,293.29,415.86,293.15Z"/><path class="cls-29" d="M408.09,294.7l-.8-.66a1.12,1.12,0,0,1-.25-.26.53.53,0,0,1-.15-.2,1.15,1.15,0,0,1,0-.76c.2-.62.81-1.17.71-1.29s-.22,0-.47.13a2.24,2.24,0,0,0-.82.79,2,2,0,0,0-.23,1.4,1.6,1.6,0,0,0,.32.67,2.17,2.17,0,0,0,.47.35l.91.48c.66.33,1.34.63,1.4.5S408.67,295.2,408.09,294.7Z"/><path class="cls-29" d="M417.23,292.72s0-.1-.17-.43a2.25,2.25,0,0,0-.27-.43c-.1-.13-.2-.26-.32-.39-.45-.52-1-.9-1.06-.79s.27.66.54,1.24l.2.42a1.5,1.5,0,0,1,.12.31l.07.37a.54.54,0,0,1,0,.15.91.91,0,0,1-.26.54c-.37.44-.84,1-.73,1.08s.59-.13,1.15-.48a1.57,1.57,0,0,0,.68-.9A1.52,1.52,0,0,0,417.23,292.72Z"/><path class="cls-29" d="M414.54,291.16c0-.14-.69-.46-1.45-.6a4.05,4.05,0,0,0-3,.35c-.71.31-1.33.79-1.27.92s.76-.09,1.46-.19a34.19,34.19,0,0,0,2.8-.33C413.78,291.25,414.51,291.3,414.54,291.16Z"/><path class="cls-29" d="M423.1,273.29c0,.06-.65.46-1.22,1a12.51,12.51,0,0,0-1.92,2.41c-.39.67-.63,1.42-.7,1.41a3.91,3.91,0,0,1,.42-1.55,5.69,5.69,0,0,1,2-2.51A3.91,3.91,0,0,1,423.1,273.29Z"/><path class="cls-29" d="M421.85,272.73c0,.05-.55.47-1,1a11,11,0,0,0-1.5,2.34c-.28.64-.42,1.34-.48,1.34A3.28,3.28,0,0,1,419,276a4.84,4.84,0,0,1,1.57-2.45A3.28,3.28,0,0,1,421.85,272.73Z"/><path class="cls-29" d="M401.56,281c-.06,0-.39-.79-.85-1.52a20.05,20.05,0,0,0-2.11-2.7c-.6-.62-1.3-1.14-1.27-1.19a5.13,5.13,0,0,1,1.48,1,7.64,7.64,0,0,1,2.17,2.78A5.13,5.13,0,0,1,401.56,281Z"/><path class="cls-29" d="M400.9,278.07c-.05,0-.3-.32-.56-.64s-.54-.62-.54-.62-.24-.33-.51-.64-.56-.61-.53-.66.41.17.74.44a3.39,3.39,0,0,1,1.1,1.31C400.81,277.63,401,278,400.9,278.07Z"/><path class="cls-30" d="M387.16,275.16a3.06,3.06,0,0,0,.49-.19c1.09-.55,2-1.33,3.19-1.77a16,16,0,0,1,4.39-.93c1.34-.1,3.42.45,4.55-.43,1.31-1,1.19-3.63-.73-3.91a8.39,8.39,0,0,0-.51,1.75c-.1-.43-.18-1.67-.52-1.95s-1.46-.09-1.87-.05a15.84,15.84,0,0,0-3.83.93,11.44,11.44,0,0,0-6.57,5.43C385,275.42,386.27,275.42,387.16,275.16Z"/><path class="cls-14" d="M394.73,267.9l0,.13c-.1.74-.15,1.48-.15,1.48s-.11.74-.16,1.48c0,.55-.06,1.1-.09,1.36h-.09a8.73,8.73,0,0,1-.13-1.37c0-.76,0-1.52,0-1.52s.1-.76.29-1.5h0Zm-1.86,3.63a9.12,9.12,0,0,1,0-1.63,9.26,9.26,0,0,1,.21-1.56l-.37.12a8.44,8.44,0,0,0-.27,1.4,8.14,8.14,0,0,0,.12,1.7,6.25,6.25,0,0,0,.29,1l.18,0A9.14,9.14,0,0,1,392.87,271.53Zm6-3a9.94,9.94,0,0,1-.08,1.78,6.86,6.86,0,0,1-.52,2l0,0,.37,0a6.93,6.93,0,0,0,.61-2s0-.28,0-.69a9.11,9.11,0,0,0-.11-1.5l0-.19-.07,0A5.11,5.11,0,0,1,398.86,268.49ZM388,273.82a8.25,8.25,0,0,1-.2-1.16,7.87,7.87,0,0,1-.13-1.17s0,0,0,0-.22.25-.34.37a6.87,6.87,0,0,0,0,.89,6.7,6.7,0,0,0,.34,1.2,4.81,4.81,0,0,0,.4.81l.14-.08C388.15,274.43,388,274.13,388,273.82Zm7.72-4.52s0-.83,0-1.57l-.29,0c-.1.72-.19,1.5-.19,1.5a20,20,0,0,0,0,2.7A20.09,20.09,0,0,0,395.69,269.3Zm-6.36,1.09c0-.11,0-.22,0-.33l-.35.25v0a4.38,4.38,0,0,0,.16,2.74,4.55,4.55,0,0,0,.36.78l.17-.1a6.72,6.72,0,0,1-.23-.77,10.19,10.19,0,0,1-.15-2.6Z"/><path class="cls-14" d="M390.84,273.19a16,16,0,0,1,4.39-.93c1.34-.1,3.42.45,4.55-.43a2.49,2.49,0,0,0,.66-2.87c-.3,1.29-1.95,2-3.92,1.81-2.45-.28-5.44,1.63-8.09,2.2-1.11.24-1.36-.29-1.27-1a10.19,10.19,0,0,0-1.4,2c-.72,1.39.52,1.39,1.41,1.12a3.06,3.06,0,0,0,.49-.19C388.74,274.42,389.7,273.64,390.84,273.19Z"/><path class="cls-30" d="M431.83,270.5a3.06,3.06,0,0,1-.51-.08c-1.18-.31-2.28-.88-3.49-1.08a16,16,0,0,0-4.49,0c-1.34.18-3.26,1.14-4.54.52-1.5-.73-1.91-3.3-.09-4,.15.34.86,1.29.86,1.61,0-.44-.17-1.67.11-2s1.41-.39,1.82-.44a15.84,15.84,0,0,1,3.94.12,11.44,11.44,0,0,1,7.54,4C434,270.32,432.77,270.58,431.83,270.5Z"/><path class="cls-14" d="M423.48,268.47c0,.31,0,.62-.08.86h-.05l-.13,0c0-.25,0-.57,0-.89l-.09-1.36,0-1.36c0-.28,0-.55,0-.78h.21c0,.22.09.49.13.75.1.68.15,1.37.15,1.37S423.52,267.78,423.48,268.47Zm4.6.93c.06-.29.14-.84.27-1.39.18-.8.44-1.56.44-1.56l.1-.36-.39-.16c-.09.23-.14.39-.14.39A12.71,12.71,0,0,0,428,268a8.59,8.59,0,0,0-.07,1.42Zm1.38-3c-.21.66-.35,1.28-.35,1.28s-.12.75-.18,1.51c0,.16,0,.32,0,.47l.25.08.09-.51c.13-.74.3-1.46.3-1.46s.09-.58.22-1.22ZM420,269.56a10.52,10.52,0,0,1-.72-1.47,7,7,0,0,1-.5-1.54,4.71,4.71,0,0,1-.09-.67l-.24.11a4.1,4.1,0,0,0,0,.61,6.54,6.54,0,0,0,.41,1.66,9.17,9.17,0,0,0,.87,1.47l.24.32.3,0Zm1.57-1-.42-1.51-.47-1.49c0-.13-.07-.27-.11-.4l-.27,0c0,.14,0,.28.07.42.15.78.35,1.54.35,1.54s.25.75.54,1.49c.16.41.34.81.48,1.08l.15,0C421.84,269.38,421.71,269,421.59,268.53Zm3.24-.84s0-.87,0-1.74c0-.3,0-.6-.06-.87l-.22,0c0,.27,0,.58,0,.89,0,.86-.13,1.71-.13,1.71s0,.77-.1,1.58l.33,0C424.76,268.43,424.83,267.69,424.83,267.69Z"/><path class="cls-14" d="M431.83,270.5c.93.08,2.14-.18,1.15-1.39a10.27,10.27,0,0,0-2.45-2.17c.46.77,1.22,2.25.35,2.25-1.18,0-4-1.95-8.25-1-3.45.79-4.74-.27-5.11-.8a2.49,2.49,0,0,0,1.28,2.42c1.28.63,3.2-.34,4.54-.52a16,16,0,0,1,4.49,0c1.21.2,2.31.76,3.49,1.08A3.06,3.06,0,0,0,431.83,270.5Z"/><g class="cls-31"><path class="cls-32" d="M420.47,298.7s-.32.43-.95.91a13.34,13.34,0,0,1-2.49,1.46,16.84,16.84,0,0,1-2.73,1c-.77.2-1.29.29-1.29.29s-.52.08-1.32.12a13.57,13.57,0,0,1-2.91-.14,10.44,10.44,0,0,1-2.78-.84,3,3,0,0,1-1.1-.71,7,7,0,0,1,1.23.39,12.4,12.4,0,0,0,2.72.54,15.5,15.5,0,0,0,4-.24,19,19,0,0,0,3.92-1,17.21,17.21,0,0,0,2.54-1.17A5.72,5.72,0,0,1,420.47,298.7Z"/></g><g class="cls-31"><path class="cls-32" d="M421.7,299.26c0,.06-.26.14-.54.08a1,1,0,0,1-.81-.7c-.1-.27-.06-.54,0-.54s.13.23.27.4a6.81,6.81,0,0,0,.64.56C421.45,299.16,421.69,299.2,421.7,299.26Z"/><path class="cls-32" d="M405.55,299.63c.06,0,0,.28-.06.55a1.75,1.75,0,0,1-.27.51,1.31,1.31,0,0,1-.52.28,3.3,3.3,0,0,1-.5.14c-.07,0,.13-.29.37-.42a1.39,1.39,0,0,0,.25-.2l.09-.1a1.82,1.82,0,0,0,.31-.35C405.36,299.84,405.49,299.61,405.55,299.63Z"/><path class="cls-32" d="M415.09,303.74c.06,0-.21.41-.61.59a3.09,3.09,0,0,1-.55.19l-.25.06a3.39,3.39,0,0,1-.85,0c-.45,0-.81-.35-.75-.4a4.14,4.14,0,0,0,.77.09,4.24,4.24,0,0,0,.76-.12l.25,0a3.78,3.78,0,0,0,.52-.09C414.74,304,415.05,303.71,415.09,303.74Z"/></g><path class="cls-33" d="M283.11,323a201.55,201.55,0,0,1-.76-26.68c.6-9.32,6.85-17.92,14.29-24.32,9.33,1,21,4.29,24.22,6.94C312.79,270,300.2,265,294.18,265,294.18,265,266.06,295.57,283.11,323Z"/><path class="cls-34" d="M280.16,298.82s-4.54.77-1.45,6.55c2.49,4.66,4.47,4.18,5.95,4.21,2.7,0,7-1.63,7.29-5.31S285.7,299.28,280.16,298.82Z"/><path class="cls-35" d="M317.32,303.5s-3.9,2.52,1.13,6.6c4.06,3.29,5.71,2.06,7.08,1.49,2.51-1,5.83-4.29,4.72-7.8S322.61,301.71,317.32,303.5Z"/><path class="cls-36" d="M299.46,275.27s-6,1.54-1.23,8.86c3.81,5.9,6.39,5,8.36,4.91,3.59-.25,9.1-3,9.12-7.89S306.88,275.26,299.46,275.27Z"/><g id="_Group_9" data-name="&lt;Group&gt;"><g id="_Group_10" data-name="&lt;Group&gt;"><path id="_Path_13" data-name="&lt;Path&gt;" class="cls-11" d="M314.13,300.31s-2.43-11.52,4.43-13.25,11.33,6.83,10.55,9.12S324.33,305,314.13,300.31Z"/><path id="_Path_14" data-name="&lt;Path&gt;" class="cls-23" d="M314.41,301.6c-1.06-1.43-1.38-3.51-.87-6.18s2-5,4.7-5.73c6.86-1.72,11.18,6.06,10.4,8.36a8.8,8.8,0,0,1-7.55,5.75C318,304.07,315.67,303.29,314.41,301.6Z"/><g id="_Group_11" data-name="&lt;Group&gt;"><path id="_Path_15" data-name="&lt;Path&gt;" class="cls-37" d="M313.76,298.12a5.53,5.53,0,0,0,7.21,3.36,5.85,5.85,0,0,0,3.47-7.36,5.53,5.53,0,0,0-7.2-3.35A5.85,5.85,0,0,0,313.76,298.12Z"/><path id="_Path_16" data-name="&lt;Path&gt;" class="cls-14" d="M315.63,297.36a3.51,3.51,0,0,0,4.57,2.14,3.72,3.72,0,0,0,2.2-4.68,3.5,3.5,0,0,0-4.56-2.14A3.73,3.73,0,0,0,315.63,297.36Z"/></g><path id="_Path_17" data-name="&lt;Path&gt;" class="cls-25" d="M318.24,289.69c6.86-1.72,11.18,6.06,10.4,8.36a8.87,8.87,0,0,1-5.53,5.36c2.08-1.47,6.09-5,3-8.4-4-4.5-9.14-4.4-11.39-.66A13.34,13.34,0,0,0,313.3,298C313.34,294.79,314.23,290.7,318.24,289.69Z"/><g id="_Group_12" data-name="&lt;Group&gt;"><path id="_Path_18" data-name="&lt;Path&gt;" class="cls-14" d="M313.19,296.93a10.68,10.68,0,0,1,.38-1.67,10.48,10.48,0,0,1,.69-1.73,7.58,7.58,0,0,1,1.29-1.78c.14-.13.3-.24.45-.36l.23-.18.25-.14.51-.29.57-.2.28-.1.3,0,.62-.1c.42,0,.86,0,1.3,0l1.34.2.72.19.66.21a8.65,8.65,0,0,1,2.55,1.41,6.91,6.91,0,0,1,1.94,2.27,6.38,6.38,0,0,1,.51,1.4,5.19,5.19,0,0,1,.1,1.44,5.5,5.5,0,0,1-1,2.58,8.63,8.63,0,0,1-1.76,1.81,14.69,14.69,0,0,1-1.78,1.17l-.79.42-.68.32c-.41.2-.75.32-1,.43l-.35.15.37,0a10.34,10.34,0,0,0,1-.14l.73-.15.86-.24c.31-.1.63-.23,1-.35s.69-.31,1-.53a7.7,7.7,0,0,0,2.19-1.78,6.57,6.57,0,0,0,1.52-3.37,7.35,7.35,0,0,0,0-2.16,7.46,7.46,0,0,0-.66-2,8.8,8.8,0,0,0-2.42-3,10.13,10.13,0,0,0-3-1.59l-.8-.23-.74-.13c-.56-.06-1-.08-1.55-.12a13.51,13.51,0,0,0-1.5.14l-.72.2-.35.11-.34.16-.66.32-.59.43-.28.22-.25.26c-.16.18-.33.34-.47.52a7.89,7.89,0,0,0-1.22,2.29,9.73,9.73,0,0,0-.45,2,10.06,10.06,0,0,0-.08,1.31C313.17,296.77,313.19,296.93,313.19,296.93Z"/></g></g></g><ellipse class="cls-26" cx="315.55" cy="299.15" rx="2.28" ry="2.21" transform="translate(-9.12 588.38) rotate(-85.17)"/><ellipse class="cls-26" cx="322.22" cy="294.03" rx="1.42" ry="1.38" transform="matrix(0.08, -1, 1, 0.08, 2.09, 590.34)"/><g id="_Group_13" data-name="&lt;Group&gt;"><g id="_Group_14" data-name="&lt;Group&gt;"><path id="_Path_19" data-name="&lt;Path&gt;" class="cls-11" d="M294.62,298.67s4.38-10.91-2.09-13.77-12.36,4.79-12,7.18S283.78,301.57,294.62,298.67Z"/><path id="_Path_20" data-name="&lt;Path&gt;" class="cls-23" d="M294.12,299.88c1.28-1.23,2-3.23,1.9-5.94s-1.1-5.3-3.67-6.43c-6.48-2.85-12,4.1-11.66,6.49a8.8,8.8,0,0,0,6.48,6.93C290.22,301.72,292.6,301.34,294.12,299.88Z"/><g id="_Group_15" data-name="&lt;Group&gt;"><path id="_Path_21" data-name="&lt;Path&gt;" class="cls-38" d="M295.35,296.56a5.53,5.53,0,0,1-7.67,2.1,5.85,5.85,0,0,1-2.19-7.84,5.53,5.53,0,0,1,7.67-2.1A5.85,5.85,0,0,1,295.35,296.56Z"/><path id="_Path_22" data-name="&lt;Path&gt;" class="cls-14" d="M293.7,295.56a3.54,3.54,0,0,1-4.91,1.34,3.74,3.74,0,0,1-1.4-5,3.53,3.53,0,0,1,4.9-1.34A3.75,3.75,0,0,1,293.7,295.56Z"/></g><path id="_Path_23" data-name="&lt;Path&gt;" class="cls-25" d="M292.35,287.5c-6.48-2.85-12,4.1-11.66,6.49a8.88,8.88,0,0,0,4.56,6.21c-1.8-1.8-5.17-5.93-1.59-8.79,4.71-3.76,9.75-2.8,11.34,1.26a13.35,13.35,0,0,1,.82,3.87C296.32,293.35,296.13,289.17,292.35,287.5Z"/><g id="_Group_16" data-name="&lt;Group&gt;"><path id="_Path_24" data-name="&lt;Path&gt;" class="cls-14" d="M296.12,295.48a10.67,10.67,0,0,0-.1-1.71,10.48,10.48,0,0,0-.39-1.82,7.58,7.58,0,0,0-1-2c-.11-.15-.25-.29-.38-.43l-.19-.22-.23-.18-.46-.37-.53-.29-.26-.15-.29-.1-.59-.2c-.41-.09-.85-.15-1.28-.23l-1.35,0-.75.06-.68.09a8.64,8.64,0,0,0-2.75,1,6.91,6.91,0,0,0-2.3,1.91,6.38,6.38,0,0,0-.74,1.29,5.19,5.19,0,0,0-.34,1.41,5.5,5.5,0,0,0,.53,2.71,8.62,8.62,0,0,0,1.43,2.08,14.7,14.7,0,0,0,1.56,1.45l.71.54.62.43c.37.27.69.45.89.58l.32.2-.36-.1a10.32,10.32,0,0,1-1-.31l-.7-.27-.81-.38c-.29-.15-.58-.33-.9-.51s-.63-.42-.94-.69a7.7,7.7,0,0,1-1.86-2.12,6.57,6.57,0,0,1-.94-3.58,7.35,7.35,0,0,1,.4-2.12,7.45,7.45,0,0,1,1-1.87,8.8,8.8,0,0,1,2.88-2.51,10.13,10.13,0,0,1,3.25-1.06l.83-.09h.75c.56,0,1,.09,1.55.14a13.51,13.51,0,0,1,1.46.39l.68.32.33.16.31.21.59.42c.18.17.35.35.51.52l.24.26.21.3c.13.2.27.39.38.59a7.89,7.89,0,0,1,.82,2.47,9.72,9.72,0,0,1,.11,2,10,10,0,0,1-.14,1.3C296.15,295.33,296.12,295.48,296.12,295.48Z"/></g></g></g><ellipse class="cls-26" cx="285.63" cy="296.62" rx="2.28" ry="2.21" transform="translate(-34 556.25) rotate(-85.17)"/><ellipse class="cls-26" cx="293.54" cy="292.54" rx="1.42" ry="1.38" transform="translate(-22.69 560.38) rotate(-85.17)"/><path class="cls-39" d="M301.06,304.71a8.69,8.69,0,0,0,4.75,2.19,5.21,5.21,0,0,0,4.86-1.4s1.1,1.35.28,2.4a12.18,12.18,0,0,1-4.86,2.8C305.23,310.76,298.93,307.49,301.06,304.71Z"/><ellipse class="cls-40" cx="306.57" cy="305.74" rx="0.7" ry="1.58" transform="translate(-23.92 585.47) rotate(-85.17)"/><path class="cls-11" d="M303.84,306.82a2,2,0,0,0-.81-.25c-.43,0-.81.15-.79.3s.35.24.62.42a2.61,2.61,0,0,1,.47.41,2.46,2.46,0,0,1,.51.34c.25.21.45.52.58.49s.13-.51-.06-.95A2.51,2.51,0,0,0,303.84,306.82Z"/><path class="cls-11" d="M310.15,307.13c0-.14-.35-.24-.71-.21a2.46,2.46,0,0,0-.7.18,3,3,0,0,0-.52.58c-.22.33-.34.72-.24.8s.38-.11.65-.24a5.11,5.11,0,0,1,.53-.23,5.87,5.87,0,0,1,.46-.39C309.87,307.44,310.16,307.28,310.15,307.13Z"/><path class="cls-11" d="M302.37,307.21l-.65-.79a1.1,1.1,0,0,1-.19-.3.52.52,0,0,1-.11-.22,1.13,1.13,0,0,1,.14-.73c.31-.56,1-1,.92-1.12s-.21,0-.48,0a2.2,2.2,0,0,0-.94.61,2,2,0,0,0-.48,1.31,1.57,1.57,0,0,0,.18.71,2.13,2.13,0,0,0,.39.43l.79.63c.58.44,1.18.85,1.26.74S302.84,307.8,302.37,307.21Z"/><path class="cls-11" d="M311.55,307s0-.1-.08-.45a2.21,2.21,0,0,0-.19-.47c-.07-.14-.15-.29-.23-.43-.34-.58-.78-1-.88-1s.14.69.3,1.29l.11.44a1.47,1.47,0,0,1,.06.33v.37a.53.53,0,0,1,0,.15.9.9,0,0,1-.35.47c-.44.35-1,.77-.9.91s.59,0,1.2-.26a1.54,1.54,0,0,0,.82-.74A1.49,1.49,0,0,0,311.55,307Z"/><path class="cls-11" d="M309.24,305c.05-.13-.58-.57-1.29-.84a4,4,0,0,0-3-.21c-.74.17-1.43.52-1.4.66s.75.06,1.45.08a33.58,33.58,0,0,0,2.76.19C308.49,304.92,309.18,305.1,309.24,305Z"/><g class="cls-41"><path class="cls-42" d="M279.23,274.65l-.08,1.48c0,.18.27.2.27,0l-.05-1.49c0-.09-.13-.1-.13,0Z"/></g><path class="cls-11" d="M318.73,287.31c0,.06-.71.33-1.36.73a12.29,12.29,0,0,0-2.29,2c-.5.58-.87,1.26-.93,1.23a3.84,3.84,0,0,1,.68-1.42,5.58,5.58,0,0,1,2.39-2.05A3.84,3.84,0,0,1,318.73,287.31Z"/><path class="cls-11" d="M317.62,286.54c0,.06-.62.35-1.16.78a10.83,10.83,0,0,0-1.87,2c-.39.57-.65,1.22-.71,1.2a3.22,3.22,0,0,1,.45-1.36,4.75,4.75,0,0,1,2-2.08A3.22,3.22,0,0,1,317.62,286.54Z"/><path class="cls-11" d="M296.53,290.82c-.06,0-.24-.83-.54-1.62a19.7,19.7,0,0,0-1.54-3c-.47-.71-1-1.34-1-1.38a5,5,0,0,1,1.25,1.2,7.51,7.51,0,0,1,1.59,3.08A5,5,0,0,1,296.53,290.82Z"/><path class="cls-11" d="M296.43,287.87c-.06,0-.23-.36-.42-.72s-.41-.7-.41-.7-.17-.36-.38-.72-.43-.7-.39-.74.36.24.64.56a3.33,3.33,0,0,1,.82,1.47A1.75,1.75,0,0,1,296.43,287.87Z"/><path class="cls-14" d="M324.95,291c.31.64,1.19.63,1.8.54a2.34,2.34,0,0,0,1.78-1.59,1,1,0,0,0-1.78-.93,7.66,7.66,0,0,1-.84.89c-.29.29-.68.37-.92.71a.39.39,0,0,0,0,.39Z"/><path class="cls-14" d="M327,293.21c.17.69,1,.86,1.65.89a2.34,2.34,0,0,0,2.06-1.19,1,1,0,0,0-1.55-1.28,7.67,7.67,0,0,1-1,.7c-.34.23-.74.22-1,.5a.39.39,0,0,0-.11.37Z"/><path class="cls-14" d="M328.55,296c.09.57.77.77,1.27.84a1.9,1.9,0,0,0,1.76-.81.83.83,0,0,0-1.16-1.15,6.23,6.23,0,0,1-.86.49c-.29.16-.62.13-.89.33a.32.32,0,0,0-.12.29Z"/><path class="cls-14" d="M285.32,287.71c-.41.58-1.27.43-1.86.24a2.34,2.34,0,0,1-1.49-1.86,1,1,0,0,1,1.91-.63,7.66,7.66,0,0,0,.68,1c.23.33.61.48.79.85a.39.39,0,0,1,0,.39Z"/><path class="cls-14" d="M282.94,289.55c-.28.65-1.16.68-1.77.61a2.34,2.34,0,0,1-1.84-1.52,1,1,0,0,1,1.74-1,7.67,7.67,0,0,0,.87.85c.3.28.69.34,1,.67a.39.39,0,0,1,0,.39Z"/><path class="cls-14" d="M280.94,292.07c-.18.55-.89.63-1.39.62a1.9,1.9,0,0,1-1.6-1.09.83.83,0,0,1,1.34-.94,6.23,6.23,0,0,0,.77.63c.26.2.59.23.82.47a.32.32,0,0,1,.07.31Z"/><path class="cls-43" d="M295.14,312.12s6.23-.23,7.95,3.36c0,0,2.91-2.71,8.35-.12,0,0-4,6.31-9.25,5.68C297.27,320.45,295.14,312.12,295.14,312.12Z"/><path class="cls-44" d="M295.12,311.88s6.21-.13,8,3.26c0,0,2.86-2.51,8.32,0,0,0-3.94,5.87-9.15,5.21C297.37,319.72,295.12,311.88,295.12,311.88Z"/><g class="cls-31"><path class="cls-45" d="M295.77,310.21a1.13,1.13,0,0,1-.08.91,1.78,1.78,0,0,1-1.45,1.12,1.13,1.13,0,0,1-.9-.15c0-.06.45,0,.83-.15a3.2,3.2,0,0,0,1.25-1C295.66,310.64,295.71,310.21,295.77,310.21Z"/></g><g class="cls-31"><path class="cls-45" d="M311.79,314.95a4.06,4.06,0,0,1-1.23.88,10.65,10.65,0,0,1-3.15,1.12,12.87,12.87,0,0,1-3.36.17,14.15,14.15,0,0,1-1.52-.19,12.59,12.59,0,0,1-1.48-.39,13.27,13.27,0,0,1-3.05-1.42,8,8,0,0,1-2.43-2.32,3.1,3.1,0,0,1-.6-1.4c.07,0,.31.52.87,1.2a8.46,8.46,0,0,0,2.47,2,13.45,13.45,0,0,0,3,1.18,12.66,12.66,0,0,0,1.42.31,14.45,14.45,0,0,0,1.43.25,13,13,0,0,0,3.19,0,12,12,0,0,0,3.1-.82A9,9,0,0,1,311.79,314.95Z"/></g><g class="cls-31"><path class="cls-45" d="M313.22,316.13c0,.06-.42.08-.8-.11a1.63,1.63,0,0,1-1-1.27c-.09-.42,0-.82.09-.8s.06.39.2.72a3.67,3.67,0,0,0,.86,1.09C312.86,316,313.22,316.07,313.22,316.13Z"/></g><path class="cls-46" d="M302.82,316.44a12.31,12.31,0,0,0,8.43-1.07l.17-.23c-5.46-2.5-8.32,0-8.32,0-1.77-3.39-8-3.26-8-3.26S296.06,315.16,302.82,316.44Z"/><ellipse class="cls-47" cx="303.71" cy="318.85" rx="0.61" ry="1" transform="translate(-47.08 585.04) rotate(-83.59)"/><path class="cls-46" d="M307.4,314.05c.47.4,1.12,1,.8,1.55-.5.81-5.87,1.2-8.73-1-1.55-1.21-1.35-1.9-.85-2.28a15.88,15.88,0,0,0-3.5-.4,18.58,18.58,0,0,0,3.11,6c-.38-1.53-.25-2.87,1.78-1.57,3.17,2,5.52.66,6.76,1.42.53.33.29,1-.16,1.76a14.85,14.85,0,0,0,4.81-4.34A11.41,11.41,0,0,0,307.4,314.05Z"/><path class="cls-30" d="M296,279.6c-.09.09-.45-.11-1-.36a8.43,8.43,0,0,0-2-.63,6.7,6.7,0,0,0-2,0,8,8,0,0,0-.9.18,9,9,0,0,0-.92.17,12.44,12.44,0,0,0-2,.69c-1.47.62-2.89,1.5-3,1.3s1-1.4,2.45-2.37a11.08,11.08,0,0,1,2.13-1.14,9,9,0,0,1,1.08-.35,8.11,8.11,0,0,1,1.14-.08,7.16,7.16,0,0,1,2.46.45,6.36,6.36,0,0,1,2.08,1.25C295.84,279.13,296.06,279.52,296,279.6Z"/><path class="cls-30" d="M315.93,281.26c.07.11.47,0,1-.18a8.43,8.43,0,0,1,2.11-.29,6.7,6.7,0,0,1,2,.3,8,8,0,0,1,.86.33,9,9,0,0,1,.88.32,12.45,12.45,0,0,1,1.88,1c1.34.86,2.6,2,2.78,1.78s-.77-1.55-2-2.74a11.09,11.09,0,0,0-1.91-1.48,9,9,0,0,0-1-.52,8.12,8.12,0,0,0-1.12-.26,7.16,7.16,0,0,0-2.5,0,6.36,6.36,0,0,0-2.26.89C316.15,280.82,315.87,281.17,315.93,281.26Z"/><ellipse class="cls-47" cx="304.97" cy="315.75" rx="1" ry="0.61"/><path class="cls-14" d="M513.67,126.64a1,1,0,0,1-.08-.23c-.29-1.24.89-2.94,1.64-3.79a9.37,9.37,0,0,1,3.9-2.64,12.42,12.42,0,0,1,4.17-.73,3.28,3.28,0,0,1,1.92.47c1,.73,1.28,2.25,0,2.73-1.17.42-2.4.63-3.57,1a27.62,27.62,0,0,0-4.12,1.84C516.79,125.69,514.26,127.79,513.67,126.64Z"/><path class="cls-14" d="M515.12,134.77c4.81-4.37,11.07-2.79,14.62,2.18.1.15.41.12.38-.1-.7-6.53-13.68-9.39-15.23-2.21a.14.14,0,0,0,.23.13Z"/><path class="cls-11" d="M530.23,133.2c-.47-3.19-4.18-5-7.14-4.4-.32.07-.24.56.08.56a7.83,7.83,0,0,1,4.19,1.06,11.2,11.2,0,0,1,2.77,2.84c0,.06.12,0,.11-.06Z"/><path class="cls-48" d="M534.33,145s1.65-2.12,2.91-.63S537.58,144.18,534.33,145Z"/><path class="cls-11" d="M532.82,146.15c-1.4,1.26-.08,4.42,1.88,3.8a.16.16,0,0,0,0-.29,3.75,3.75,0,0,1-1.66-1.1,2.75,2.75,0,0,1-.1-2.31.09.09,0,0,0-.16-.09Z"/><path class="cls-11" d="M537.36,149.93a3.1,3.1,0,0,0,2-.8c.32-.26-.1-.8-.44-.57a5.8,5.8,0,0,1-.82.49,7,7,0,0,0-.86.38.27.27,0,0,0,.13.49Z"/><path class="cls-14" d="M560.3,126.64a1,1,0,0,0,.08-.23c.29-1.24-.89-2.94-1.64-3.79a9.37,9.37,0,0,0-3.9-2.64,12.42,12.42,0,0,0-4.17-.73,3.28,3.28,0,0,0-1.92.47c-1,.73-1.28,2.25,0,2.73,1.17.42,2.4.63,3.57,1a27.63,27.63,0,0,1,4.12,1.84C557.18,125.69,559.71,127.79,560.3,126.64Z"/><path class="cls-14" d="M559.08,134.64c-1.56-7.19-14.53-4.32-15.24,2.21,0,.22.28.25.38.1,3.55-5,9.81-6.55,14.62-2.18a.14.14,0,0,0,.23-.13Z"/><path class="cls-11" d="M543.85,133.26a11,11,0,0,1,2.77-2.84,7.89,7.89,0,0,1,4.19-1.06c.31,0,.4-.49.08-.56-3-.65-6.67,1.22-7.14,4.4,0,.06.06.12.11.06Z"/><path class="cls-49" d="M550.79,155.52c-.78-3-4.47-2-6.8-1.9s-4.5.19-6.75.15-4.25-.29-6.37-.29c-1.38,0-3.06-.46-4.15.68-2.26,2.4.8,6.51,2.76,8a15.5,15.5,0,0,0,8.93,2.85,14.6,14.6,0,0,0,8.14-2.25c2.16-1.39,4.86-4.19,4.29-7Z"/><g class="cls-50"><path class="cls-51" d="M547.26,163.56s-9.19-5.92-16.65-.31c-5.08,4.59,12.83,4.42,12.83,4.42Z"/></g><path class="cls-23" d="M544,153.62q-3.37.2-6.75.15c-2.12,0-4.25-.29-6.37-.29-1.38,0-3.06-.46-4.15.68,0,0,7.69,4,23.42.11C548.76,152.81,545.91,153.51,544,153.62Z"/><path class="cls-13" d="M571.33,118.62c1.74-10.8-9.59-25-20.38-26.74l-15.82-2.25c-11.5-1.88-22.37,8.84-24.37,20.31l2.65,14.62S518.19,110.2,549,109c0,0,1.56,16.13,17,23.1Z"/><path class="cls-13" d="M442.71,258.2,429.25,237,408.74,231l-11.26,1.66-13.64,8.64-4.53,24.21c3.76,2.57,5,14.67,5,14.67s2-14.19,23-14.44c13.8-.16,18.38-9.16,20.18-15.62.38,7.54,1,12.08,5.48,16.09,2.67,2.39,7,2.69,9.78,2.87Z"/><path class="cls-13" d="M294.28,265.19S279.53,282.83,282.51,302c14.26,38.72-3.71,63,1.52,98.08,0,0-6.28-3.85-11-17.12s-1.91-28.33-1.91-28.33A37.84,37.84,0,0,1,270.06,341c1.11-10.72,2.71-49.52,3.39-59.14S294.28,265.19,294.28,265.19Z"/><path class="cls-14" d="M273.46,281.88c-.68,9.62-2.29,48.43-3.39,59.14-.79,7.61-1.18,13.93-1.18,13.93s-.55,14.76,4.16,28c.14.38.28.73.42,1.1-.15-6.45-.27-12.9-.33-19.34C273.11,330.51,274,274.84,273.46,281.88Z"/><rect class="cls-52" x="544.27" y="395.78" width="9.05" height="11.16"/><path class="cls-10" d="M548.65,398.09a2,2,0,0,0-2,2v2.62h-2.34v-6.16H552a12.33,12.33,0,0,1,1.28.06v1.44Z"/><rect class="cls-52" x="566.91" y="395.78" width="9.05" height="11.16"/><path class="cls-8" d="M581.63,430.47H538.9a1.36,1.36,0,0,1-1.37-1.64l4-24.43a2,2,0,0,1,1.91-1.64h33.64a2,2,0,0,1,1.91,1.64l4,24.43A1.36,1.36,0,0,1,581.63,430.47Z"/><path class="cls-10" d="M560.12,429H537.38a4.18,4.18,0,0,0-2.83,1.61l-3.28,4.34H589l-3.28-4.34a4.18,4.18,0,0,0-2.83-1.61Z"/><path class="cls-15" d="M545.07,405.4a2,2,0,0,1,1.91-1.64h31.78a2,2,0,0,0-1.68-1H543.45a2,2,0,0,0-1.91,1.64l-4,24.43s0,.09,0,.14h3.69l3.61-22,.25-1.54Zm25.51,11.2a11.4,11.4,0,1,1-11.4-11.4A11.4,11.4,0,0,1,570.58,416.6Z"/><rect class="cls-53" x="530.97" y="434.24" width="58.28" height="7.76" rx="1.61" ry="1.61"/><path class="cls-7" d="M560.23,427.2a11.4,11.4,0,1,1,11.4-11.4A11.42,11.42,0,0,1,560.23,427.2Z"/><path class="cls-8" d="M560.23,421.33a5.52,5.52,0,1,1,5.52-5.52A5.53,5.53,0,0,1,560.23,421.33Z"/><path class="cls-17" d="M554.72,415.44c0,.12,0,.24,0,.37a5.52,5.52,0,0,0,.3,1.81h5.22a1.09,1.09,0,1,0,0-2.18Z"/><circle class="cls-54" cx="560.23" cy="415.81" r="2.65"/><circle class="cls-55" cx="560.23" cy="407.32" r="1.22"/><circle class="cls-55" cx="554.23" cy="409.81" r="1.22" transform="translate(-127.46 511.85) rotate(-44.99)"/><circle class="cls-55" cx="554.23" cy="421.81" r="1.22" transform="translate(-135.89 515.72) rotate(-45.02)"/><circle class="cls-55" cx="560.23" cy="424.29" r="1.22"/><circle class="cls-55" cx="566.23" cy="421.81" r="1.22" transform="translate(-132.46 523.65) rotate(-44.98)"/><circle class="cls-55" cx="568.72" cy="415.81" r="1.22"/><circle class="cls-55" cx="566.23" cy="409.81" r="1.22" transform="translate(-123.92 520.5) rotate(-45.01)"/><path class="cls-10" d="M560.23,416.9a1.09,1.09,0,1,0,0-2.18h-8.49a1.09,1.09,0,0,0,0,2.18Z"/><path class="cls-56" d="M545.85,396.59c-6,0-8,3.88-8,6.94l-1,1.72H524.21l-.86-.94v-4.2c0-1.57-.3-10.76,13.88-10.76h46.08c14.18,0,13.88,9.19,13.88,10.76v4.2l-.86.94H583.66l-1-1.72c0-3.06-2-6.94-8-6.94H545.85Z"/><path class="cls-7" d="M582.27,403.53H598a1.11,1.11,0,0,1,1,1.19v5.86a1.11,1.11,0,0,1-1,1.19H582.27a1.11,1.11,0,0,1-1-1.19v-5.86A1.11,1.11,0,0,1,582.27,403.53Z"/><path class="cls-10" d="M571.29,398.09a2,2,0,0,0-2,2v2.62h-2.34v-6.16h7.78a12.35,12.35,0,0,1,1.28.06v1.44Z"/><path class="cls-10" d="M533.07,437.93a1.62,1.62,0,0,0,1.61,1.61h54.58v.84a1.6,1.6,0,0,1-.2.78H531.18a1.6,1.6,0,0,1-.2-.78v-4.53a1.6,1.6,0,0,1,.3-.93h0l.06-.07a1.61,1.61,0,0,1,1.26-.61h.48v3.69Z"/><path class="cls-10" d="M560.27,396.59H545.85a11.91,11.91,0,0,0-1.59.1c-4.74.63-6.4,4.07-6.4,6.84h-4l.05-.09c0-3.49,2.3-7.9,9.08-7.9H575.8c6.78,0,9.08,4.41,9.08,7.9l.05.09h-2.27c0-2.83-1.73-6.36-6.7-6.88a12.35,12.35,0,0,0-1.28-.06H560.27Z"/><rect class="cls-57" x="585.92" y="404.74" width="10.88" height="4.26" rx="0.61" ry="0.61"/><path class="cls-58" d="M583.14,404.34v4.82a1.11,1.11,0,0,0,1,1.19H599v.23a1.11,1.11,0,0,1-1,1.19H582.27a1.11,1.11,0,0,1-1-1.19v-5.86a1.11,1.11,0,0,1,1-1.19h.87Z"/><path class="cls-7" d="M522.55,403.53h15.72a1.11,1.11,0,0,1,1,1.19v5.86a1.11,1.11,0,0,1-1,1.19H522.55a1.11,1.11,0,0,1-1-1.19v-5.86A1.11,1.11,0,0,1,522.55,403.53Z"/><rect class="cls-57" x="526.21" y="404.74" width="10.88" height="4.26" rx="0.61" ry="0.61"/><path class="cls-58" d="M523.42,404.34v4.82a1.11,1.11,0,0,0,1,1.19h14.85v.23a1.11,1.11,0,0,1-1,1.19H522.55a1.11,1.11,0,0,1-1-1.19v-5.86a1.11,1.11,0,0,1,1-1.19h.87Z"/><path class="cls-5" d="M311.22,325.52H444a3.94,3.94,0,0,1,3.67,3.05l16.91,83.5a2.68,2.68,0,0,1-.23,1.81c-.54,1-2.86,3.54-3.45,3.52L332.79,412a4.21,4.21,0,0,1-3.67-3.05L306.43,329.2a35,35,0,0,1,3.35-3.26A2.59,2.59,0,0,1,311.22,325.52Z"/><path class="cls-7" d="M308.41,328.29H441.17a3.94,3.94,0,0,1,3.67,3.05l16.91,83.5a2.43,2.43,0,0,1-2.44,3.05H326.56a3.94,3.94,0,0,1-3.67-3.05L306,331.34A2.43,2.43,0,0,1,308.41,328.29Z"/><path class="cls-3" d="M342.41,363.24h58.45a3,3,0,0,1,2.77,2.34l7.22,38.87a1.89,1.89,0,0,1-1.9,2.34H350.5a3,3,0,0,1-2.77-2.34l-7.22-38.87A1.89,1.89,0,0,1,342.41,363.24Z"/><path class="cls-5" d="M373.54,382.51h17.21a2.94,2.94,0,0,1,2.92,3.85l-11.93,49.21a5.23,5.23,0,0,1-4.79,3.85H359.74a2.94,2.94,0,0,1-2.92-3.85l11.93-49.21A5.24,5.24,0,0,1,373.54,382.51Z"/><path class="cls-7" d="M367.6,382.51h17.21a2.94,2.94,0,0,1,2.92,3.85l-11.93,49.21a5.23,5.23,0,0,1-4.79,3.85H353.79a2.94,2.94,0,0,1-2.92-3.85l11.93-49.21A5.23,5.23,0,0,1,367.6,382.51Z"/><path class="cls-7" d="M331.67,445.55H409a4.6,4.6,0,0,0,4.58-4.58h0a4.6,4.6,0,0,0-4.58-4.58H331.67a4.6,4.6,0,0,0-4.58,4.58h0A4.6,4.6,0,0,0,331.67,445.55Z"/><path class="cls-5" d="M393.5,445.55h28.85a4.6,4.6,0,0,0,4.58-4.58h0a4.6,4.6,0,0,0-4.58-4.58H393.5a4.6,4.6,0,0,0-4.58,4.58h0A4.6,4.6,0,0,0,393.5,445.55Z"/><path class="cls-3" d="M324.06,335.65h.71A1.34,1.34,0,0,1,326,336.7l3.27,17.59a.86.86,0,0,1-.86,1.06h-.71a1.34,1.34,0,0,1-1.25-1.06L323.2,336.7A.86.86,0,0,1,324.06,335.65Z"/><path class="cls-3" d="M329.64,335.65h.71a1.34,1.34,0,0,1,1.25,1.06l3.27,17.59a.86.86,0,0,1-.86,1.06h-.71a1.34,1.34,0,0,1-1.25-1.06l-3.27-17.59A.85.85,0,0,1,329.64,335.65Z"/><path class="cls-3" d="M335.22,335.65h.71a1.34,1.34,0,0,1,1.25,1.06l3.27,17.59a.86.86,0,0,1-.86,1.06h-.71a1.34,1.34,0,0,1-1.25-1.06l-3.27-17.59A.86.86,0,0,1,335.22,335.65Z"/><path class="cls-3" d="M340.8,335.65h.71a1.34,1.34,0,0,1,1.25,1.06L346,354.29a.86.86,0,0,1-.86,1.06h-.71a1.34,1.34,0,0,1-1.25-1.06l-3.27-17.59A.86.86,0,0,1,340.8,335.65Z"/><path class="cls-3" d="M346.38,335.65h.71a1.34,1.34,0,0,1,1.25,1.06l3.27,17.59a.86.86,0,0,1-.86,1.06H350a1.34,1.34,0,0,1-1.25-1.06l-3.27-17.59A.86.86,0,0,1,346.38,335.65Z"/><path class="cls-3" d="M352,335.65h.71a1.34,1.34,0,0,1,1.25,1.06l3.27,17.59a.86.86,0,0,1-.86,1.06h-.71a1.34,1.34,0,0,1-1.25-1.06L351.1,336.7A.86.86,0,0,1,352,335.65Z"/><path class="cls-3" d="M357.55,335.65h.71a1.34,1.34,0,0,1,1.25,1.06l3.27,17.59a.86.86,0,0,1-.86,1.06h-.71a1.34,1.34,0,0,1-1.25-1.06l-3.27-17.59A.86.86,0,0,1,357.55,335.65Z"/><path class="cls-3" d="M363.13,335.65h.71a1.34,1.34,0,0,1,1.25,1.06l3.27,17.59a.86.86,0,0,1-.86,1.06h-.71a1.34,1.34,0,0,1-1.25-1.06l-3.27-17.59A.86.86,0,0,1,363.13,335.65Z"/><path class="cls-3" d="M368.71,335.65h.71a1.34,1.34,0,0,1,1.25,1.06l3.27,17.59a.86.86,0,0,1-.86,1.06h-.71a1.34,1.34,0,0,1-1.25-1.06l-3.27-17.59A.86.86,0,0,1,368.71,335.65Z"/><path class="cls-3" d="M374.29,335.65H375a1.34,1.34,0,0,1,1.25,1.06l3.27,17.59a.86.86,0,0,1-.86,1.06H378a1.34,1.34,0,0,1-1.25-1.06l-3.27-17.59A.86.86,0,0,1,374.29,335.65Z"/><path class="cls-3" d="M379.87,335.65h.71a1.34,1.34,0,0,1,1.25,1.06l3.27,17.59a.86.86,0,0,1-.86,1.06h-.71a1.34,1.34,0,0,1-1.25-1.06L379,336.7A.86.86,0,0,1,379.87,335.65Z"/><path class="cls-3" d="M385.45,335.65h.71a1.34,1.34,0,0,1,1.25,1.06l3.27,17.59a.86.86,0,0,1-.86,1.06h-.71a1.34,1.34,0,0,1-1.25-1.06l-3.27-17.59A.86.86,0,0,1,385.45,335.65Z"/><path class="cls-3" d="M391,335.65h.71A1.34,1.34,0,0,1,393,336.7l3.27,17.59a.86.86,0,0,1-.86,1.06h-.71a1.34,1.34,0,0,1-1.25-1.06l-3.27-17.59A.86.86,0,0,1,391,335.65Z"/><path class="cls-3" d="M396.62,335.65h.71a1.34,1.34,0,0,1,1.25,1.06l3.27,17.59a.86.86,0,0,1-.86,1.06h-.71a1.34,1.34,0,0,1-1.25-1.06l-3.27-17.59A.86.86,0,0,1,396.62,335.65Z"/><path class="cls-3" d="M402.2,335.65h.71a1.34,1.34,0,0,1,1.25,1.06l3.27,17.59a.86.86,0,0,1-.86,1.06h-.71a1.34,1.34,0,0,1-1.25-1.06l-3.27-17.59A.86.86,0,0,1,402.2,335.65Z"/><path class="cls-3" d="M407.78,335.65h.71a1.34,1.34,0,0,1,1.25,1.06L413,354.29a.86.86,0,0,1-.86,1.06h-.71a1.34,1.34,0,0,1-1.25-1.06l-3.27-17.59A.86.86,0,0,1,407.78,335.65Z"/><path class="cls-3" d="M413.36,335.65h.71a1.34,1.34,0,0,1,1.25,1.06l3.27,17.59a.86.86,0,0,1-.86,1.06H417a1.34,1.34,0,0,1-1.25-1.06L412.5,336.7A.86.86,0,0,1,413.36,335.65Z"/><path class="cls-3" d="M418.94,335.65h.71a1.34,1.34,0,0,1,1.25,1.06l3.27,17.59a.86.86,0,0,1-.86,1.06h-.71a1.34,1.34,0,0,1-1.25-1.06l-3.27-17.59A.86.86,0,0,1,418.94,335.65Z"/><path class="cls-3" d="M424.52,335.65h.71a1.34,1.34,0,0,1,1.25,1.06l3.27,17.59a.86.86,0,0,1-.86,1.06h-.71a1.34,1.34,0,0,1-1.25-1.06l-3.27-17.59A.86.86,0,0,1,424.52,335.65Z"/><rect class="cls-59" x="135.91" y="431.82" width="83.57" height="7.66"/><path class="cls-7" d="M209.19,432.49a1.66,1.66,0,1,1,0-3.31h59a6.45,6.45,0,0,1,4.57,1.9h0a6.48,6.48,0,0,1-4.58,11h-59a1.66,1.66,0,1,1,0-3.31h2.7a10.41,10.41,0,0,0,1.3-1.13,3.51,3.51,0,0,0,1.22-2.61,4,4,0,0,0-1.56-2.58Z"/><path class="cls-60" d="M135.91,432.49a1.66,1.66,0,1,1,0-3.31h74a6.45,6.45,0,0,1,4.57,1.9h0a6.48,6.48,0,0,1-4.58,11h-74a1.66,1.66,0,1,1,0-3.31h74a3.16,3.16,0,1,0,0-6.33Z"/><rect class="cls-61" x="195.57" y="417.17" width="70.07" height="9.3"/><path class="cls-8" d="M208.06,418a2,2,0,1,0,0-4H153.65a7.83,7.83,0,0,0-5.54,2.3h0a7.86,7.86,0,0,0,5.55,13.4h54.41a2,2,0,0,0,0-4h-3.28a12.78,12.78,0,0,1-1.58-1.37,4.26,4.26,0,0,1-1.48-3.17,4.87,4.87,0,0,1,1.89-3.14Z"/><path class="cls-15" d="M265.64,418a2,2,0,1,0,0-4H207.13a7.83,7.83,0,0,0-5.54,2.3h0a7.86,7.86,0,0,0,5.55,13.4h58.51a2,2,0,0,0,0-4H207.13a3.84,3.84,0,0,1,0-7.68Z"/><rect class="cls-61" x="168.06" y="401.16" width="45.47" height="9.51"/><path class="cls-10" d="M200.75,402a2.06,2.06,0,0,1,0-4.11h33.52a8,8,0,0,1,5.67,2.36h0A8,8,0,0,1,234.27,414H200.75a2.06,2.06,0,0,1,0-4.11h3.36a12.9,12.9,0,0,0,1.62-1.4,4.35,4.35,0,0,0,1.51-3.25A5,5,0,0,0,205.3,402Z"/><path class="cls-56" d="M168.06,402a2.06,2.06,0,1,1,0-4.11H201.7a8,8,0,0,1,5.67,2.36h0A8,8,0,0,1,201.7,414H168.06a2.06,2.06,0,1,1,0-4.11H201.7a3.93,3.93,0,0,0,0-7.85Z"/><path class="cls-3" d="M154.41,430.21h-39.2a5.86,5.86,0,0,0,0,11.72h39.2a5.86,5.86,0,0,0,0-11.72Z"/><path class="cls-7" d="M66.73,430.9h50.13a5.19,5.19,0,0,1,5.18,5.18h0a5.19,5.19,0,0,1-5.18,5.18H66.73Z"/><path class="cls-5" d="M66.73,430.21a.68.68,0,1,0,0,1.37h50.13a4.49,4.49,0,0,1,0,9H66.73a.68.68,0,1,0,0,1.37h50.13a5.86,5.86,0,0,0,0-11.72Z"/><path class="cls-5" d="M152.6,436.07a5.87,5.87,0,0,0-5.86-5.86h5.1a5.86,5.86,0,0,1,0,11.72h-5.1a5.87,5.87,0,0,0,5.86-5.86Z"/><path class="cls-5" d="M145.22,436.07a5.87,5.87,0,0,0-5.86-5.86h5.1a5.86,5.86,0,0,1,0,11.72h-5.1a5.87,5.87,0,0,0,5.86-5.86Z"/><path class="cls-8" d="M77,420h34.33a5.13,5.13,0,0,1,0,10.26H77A5.13,5.13,0,0,1,77,420Z"/><path class="cls-7" d="M153.81,420.55h-43.9a4.55,4.55,0,0,0-4.53,4.53h0a4.55,4.55,0,0,0,4.53,4.53h43.9Z"/><path class="cls-15" d="M153.81,420a.6.6,0,0,1,0,1.2h-43.9a3.94,3.94,0,0,0,0,7.87h43.9a.6.6,0,0,1,0,1.19h-43.9a5.13,5.13,0,0,1,0-10.26Z"/><path class="cls-15" d="M78.61,425.08A5.15,5.15,0,0,1,83.74,420H79.28a5.13,5.13,0,0,0,0,10.26h4.46a5.14,5.14,0,0,1-5.13-5.13Z"/><path class="cls-15" d="M85.08,425.08A5.15,5.15,0,0,1,90.21,420H85.75a5.13,5.13,0,0,0,0,10.26h4.46a5.14,5.14,0,0,1-5.13-5.13Z"/></g></g></g></svg>