<?xml version="1.0" encoding="utf-8"?>
<!-- Generator: Adobe Illustrator 21.1.0, SVG Export Plug-In . SVG Version: 6.00 Build 0)  -->
<svg version="1.1" id="Layer_1" xmlns="http://www.w3.org/2000/svg" xmlns:xlink="http://www.w3.org/1999/xlink" x="0px" y="0px"
	 viewBox="0 0 685 485.2" style="enable-background:new 0 0 685 485.2;" xml:space="preserve">
<style type="text/css">
	.st0{fill:none;}
	.st1{fill:#EBF4F4;}
	.st2{clip-path:url(#SVGID_2_);}
	.st3{fill:#D19E5C;}
	.st4{fill:#C8DEE1;}
	.st5{opacity:0.3;}
	.st6{fill:#96AFBE;}
	.st7{fill:#F5F5F7;}
	.st8{opacity:0.2;fill:#96AFBE;enable-background:new    ;}
	.st9{opacity:0.3;fill:#96AFBE;enable-background:new    ;}
	.st10{fill:#C0C293;}
	.st11{fill:#00000F;}
	.st12{fill:#2A0404;}
	.st13{fill:#3F1F13;}
	.st14{clip-path:url(#SVGID_4_);}
	.st15{fill:#FFB794;}
	.st16{fill:#FFFFFF;}
	.st17{fill:#EE6261;}
	.st18{fill:#3D3C1F;}
	.st19{fill:#605F43;}
	.st20{fill:#F5AC83;}
	.st21{fill:#EE9073;}
	.st22{fill:#7D7D58;}
	.st23{fill:#DC5748;}
	.st24{fill:#EB997A;}
	.st25{fill:#F9BB96;}
	.st26{fill:#4D5A7E;}
	.st27{fill:#7B96A6;}
	.st28{fill:#DBDAD9;}
	.st29{opacity:0.4;fill:url(#SVGID_5_);enable-background:new    ;}
	.st30{opacity:0.4;fill:url(#SVGID_6_);enable-background:new    ;}
	.st31{opacity:0.4;fill:url(#SVGID_7_);enable-background:new    ;}
	.st32{opacity:0.42;fill:#E98C4D;enable-background:new    ;}
	.st33{opacity:0.45;fill:#E98C4D;enable-background:new    ;}
	.st34{fill:#DA774E;}
	.st35{opacity:0.45;fill:#6C293E;enable-background:new    ;}
	.st36{opacity:0.4;fill:url(#SVGID_8_);enable-background:new    ;}
	.st37{opacity:0.4;fill:url(#SVGID_9_);enable-background:new    ;}
	.st38{opacity:0.4;fill:url(#SVGID_10_);enable-background:new    ;}
	.st39{opacity:0.2;fill:#320033;enable-background:new    ;}
	.st40{opacity:0.45;fill:#CA6633;enable-background:new    ;}
	.st41{fill:#3F3632;}
	.st42{clip-path:url(#SVGID_12_);}
	.st43{fill:#F28B60;}
	.st44{fill:#AFAF7E;}
	.st45{fill:#999865;}
	.st46{fill:#4C4B31;}
	.st47{opacity:0.1;enable-background:new    ;}
</style>
<title>ISFJ</title>
<g>
	<g id="Layer_2">
		<g id="OBJECTS">
			<rect class="st0" width="685" height="485.2"/>
			<path class="st1" d="M202.9,440.3c-38.7-0.1-70.1-31.5-70.2-70.2l0,0c0.1-38.7,31.5-70.1,70.2-70.2l0,0
				c16.4,0,29.6-13.3,29.7-29.7l0,0c0-16.4-13.3-29.6-29.7-29.7h-3.5c-17-0.1-30.8-13.8-30.9-30.9l0,0c0.1-17,13.8-30.8,30.9-30.9
				h10.8c6.6,0,12-5.4,12-12l0,0c0-6.6-5.4-12-12-12h-8c-4.6,0-8.3-3.7-8.3-8.3l0,0c0-4.6,3.7-8.3,8.3-8.3h53.5c7.2,0,13-5.8,13-13
				l0,0c0-7.2-5.8-13-13-13h-16c-4.6,0-8.3-3.7-8.3-8.3l0,0c0-4.6,3.7-8.3,8.3-8.3h234.4c5.9,0,10.8,4.8,10.8,10.7l0,0
				c0,6-4.9,10.8-10.8,10.8h-16.4c-9.4,0-17,7.6-17,17l0,0c0,9.4,7.6,17,17,17h63.5c6,0,10.8,4.9,10.8,10.8l0,0
				c0,6-4.9,10.8-10.8,10.8h-10.4c-8.7,0-15.7,7-15.7,15.7l0,0c0,8.7,7,15.7,15.7,15.7H525c22.2,0.1,40.2,18.1,40.3,40.3l0,0
				c-0.1,22.2-18.1,40.2-40.3,40.3h-4.6c-21.4,0.1-38.7,17.4-38.7,38.7l0,0c0.1,21.4,17.4,38.7,38.7,38.7h10c21.5,0.1,39,17.5,39,39
				l0,0c-0.1,21.5-17.5,39-39,39L202.9,440.3z M501.9,117.2c6,0,10.8-4.9,10.7-10.9c0-6-4.9-10.8-10.9-10.7
				c-5.9,0-10.7,4.9-10.7,10.8C491,112.4,495.8,117.2,501.9,117.2L501.9,117.2L501.9,117.2z M179,154.8c4.6,0,8.3-3.7,8.3-8.3
				s-3.7-8.3-8.3-8.3s-8.3,3.7-8.3,8.3v0C170.7,151.1,174.4,154.8,179,154.8z"/>
			<g>
				<defs>
					<path id="SVGID_1_" d="M202.9,440.3c-38.7-0.1-70.1-31.5-70.2-70.2l0,0c0.1-38.7,31.5-70.1,70.2-70.2l0,0
						c16.4,0,29.6-13.3,29.7-29.7l0,0c0-16.4-13.3-29.6-29.7-29.7h-3.5c-17-0.1-30.8-13.8-30.9-30.9l0,0c0.1-17,13.8-30.8,30.9-30.9
						h10.8c6.6,0,12-5.4,12-12l0,0c0-6.6-5.4-12-12-12h-8c-4.6,0-8.3-3.7-8.3-8.3l0,0c0-4.6,3.7-8.3,8.3-8.3h53.5
						c7.2,0,13-5.8,13-13l0,0c0-7.2-5.8-13-13-13h-16c-4.6,0-8.3-3.7-8.3-8.3l0,0c0-4.6,3.7-8.3,8.3-8.3h234.4
						c5.9,0,10.8,4.8,10.8,10.7l0,0c0,6-4.9,10.8-10.8,10.8h-16.4c-9.4,0-17,7.6-17,17l0,0c0,9.4,7.6,17,17,17h63.5
						c6,0,10.8,4.9,10.8,10.8l0,0c0,6-4.9,10.8-10.8,10.8h-10.4c-8.7,0-15.7,7-15.7,15.7l0,0c0,8.7,7,15.7,15.7,15.7H525
						c22.2,0.1,40.2,18.1,40.3,40.3l0,0c-0.1,22.2-18.1,40.2-40.3,40.3h-4.6c-21.4,0.1-38.7,17.4-38.7,38.7l0,0
						c0.1,21.4,17.4,38.7,38.7,38.7h10c21.5,0.1,39,17.5,39,39l0,0c-0.1,21.5-17.5,39-39,39L202.9,440.3z M501.9,117.2
						c6,0,10.8-4.9,10.7-10.9c0-6-4.9-10.8-10.9-10.7c-5.9,0-10.7,4.9-10.7,10.8C491,112.4,495.8,117.2,501.9,117.2L501.9,117.2
						L501.9,117.2z M179,154.8c4.6,0,8.3-3.7,8.3-8.3s-3.7-8.3-8.3-8.3s-8.3,3.7-8.3,8.3v0C170.7,151.1,174.4,154.8,179,154.8z"/>
				</defs>
				<clipPath id="SVGID_2_">
					<use xlink:href="#SVGID_1_"  style="overflow:visible;"/>
				</clipPath>
				<g class="st2">
					<path class="st3" d="M297.7,355.7H324c0,0,0,53.4-12.5,53.4S297.7,355.7,297.7,355.7z"/>
					<path class="st3" d="M741.6,355.7h26.3c0,0,0,53.4-12.5,53.4S741.6,355.7,741.6,355.7z"/>
					<path class="st4" d="M324.5,362.6c0,0-82.4-190-19.1-243.5s380.8-82.2,457.8,1.9c49,53.5-2.9,241.6-2.9,241.6H324.5z"/>
					<g class="st5">
						<path class="st4" d="M293.5,322.8h238.4c0,0,1.2-49-34.1-59.4s-144.6-11-169.5,0S293.5,322.8,293.5,322.8z"/>
						<path class="st6" d="M518.8,276.8c-12.6-14.4-32.5-18.4-50.6-20.3c-49.6-5.1-109.5-0.8-131.4,3.6c-0.2,0-0.5,0.7,0.3,0.6
							c20.2-3.1,96-4.5,120-2.1c20.3,2,41.3,4.3,55.3,17.2c12.1,11.1,19.2,28.5,19.1,45.9c0,1.6,1.3,1.5,1.3,0
							C533.2,304.7,529.6,289.1,518.8,276.8z"/>
						<path class="st7" d="M772.1,322.8H533.8c0,0-1.2-49,34.1-59.4s144.6-11,169.5,0S772.1,322.8,772.1,322.8z"/>
						<path class="st6" d="M546.9,276.8c12.6-14.4,32.5-18.4,50.6-20.3c49.6-5.1,109.5-0.8,131.4,3.6c0.2,0,0.5,0.7-0.3,0.6
							c-20.2-3.1-96-4.5-120-2.1c-20.3,2-41.3,4.3-55.3,17.2c-12.1,11.1-19.2,28.5-19.1,45.9c0,1.6-1.3,1.5-1.3,0
							C532.4,304.7,536,289.1,546.9,276.8z"/>
						<path class="st6" d="M742.2,321.5c-108.8-1.1-217.7-0.5-326.5-0.3c-30.9,0.1-61.8,0.2-92.7,0.6c-0.1,0-0.1,0.1-0.1,0.1
							c0,0.1,0.1,0.1,0.1,0.1c108.8,1.4,217.7,0.6,326.5,0.5c30.9,0,61.8,0.1,92.7-0.2c0.3,0,0.5-0.2,0.5-0.5
							C742.7,321.7,742.5,321.5,742.2,321.5z"/>
					</g>
					<g class="st5">
						<path class="st6" d="M369.5,167.9c0.3-2.2,1-4.3,2.1-6.2c1-1.9,2.3-3.7,3.8-5.3c2.9-3.3,6.8-5.6,11.1-6.5
							c-1.5,1.6-3,3-4.4,4.5s-2.9,2.9-4.2,4.3C375.1,161.7,372.5,164.7,369.5,167.9z"/>
						<path class="st6" d="M368.2,150.4c2.2,0.3,4.3,1,6.2,2.1c1.9,1,3.7,2.3,5.3,3.8c3.3,2.9,5.6,6.8,6.5,11.1
							c-1.6-1.5-3-3-4.5-4.4s-2.9-2.9-4.3-4.2C374.4,156,371.4,153.4,368.2,150.4z"/>
					</g>
					<g class="st5">
						<path class="st6" d="M409.6,215.7c0.3-2.2,1-4.3,2.1-6.2c1-1.9,2.3-3.7,3.8-5.3c2.9-3.3,6.8-5.6,11.1-6.5
							c-1.5,1.6-3,3-4.4,4.5s-2.9,2.9-4.2,4.3C415.1,209.5,412.6,212.6,409.6,215.7z"/>
						<path class="st6" d="M408.3,198.2c2.2,0.3,4.3,1,6.2,2.1c1.9,1,3.7,2.3,5.3,3.8c3.3,2.9,5.6,6.8,6.5,11.1
							c-1.6-1.5-3-3-4.5-4.4s-2.9-2.9-4.3-4.2C414.5,203.8,411.4,201.2,408.3,198.2z"/>
					</g>
					<g class="st5">
						<path class="st6" d="M489,215.7c0.3-2.2,1-4.3,2.1-6.2c1-1.9,2.3-3.7,3.8-5.3c2.9-3.3,6.8-5.6,11.1-6.5c-1.5,1.6-3,3-4.4,4.5
							s-2.9,2.9-4.2,4.3C494.5,209.5,492,212.6,489,215.7z"/>
						<path class="st6" d="M487.7,198.2c2.2,0.3,4.3,1,6.2,2.1c1.9,1,3.7,2.3,5.3,3.8c3.3,2.9,5.6,6.8,6.5,11.1
							c-1.6-1.5-3-3-4.5-4.4s-2.9-2.9-4.3-4.2C493.9,203.8,490.8,201.2,487.7,198.2z"/>
					</g>
					<g class="st5">
						<path class="st6" d="M568.3,215.7c0.3-2.2,1-4.3,2.1-6.2c1-1.9,2.3-3.7,3.8-5.3c2.9-3.3,6.8-5.6,11.1-6.5
							c-1.5,1.6-3,3-4.4,4.5s-2.8,2.9-4.2,4.3C573.9,209.5,571.4,212.6,568.3,215.7z"/>
						<path class="st6" d="M567.1,198.2c2.2,0.3,4.3,1,6.2,2.1c1.9,1,3.7,2.3,5.3,3.8c3.3,2.9,5.6,6.8,6.5,11.1
							c-1.7-1.5-3-3-4.5-4.4s-2.8-2.9-4.3-4.2C573.3,203.8,570.2,201.2,567.1,198.2z"/>
					</g>
					<g class="st5">
						<path class="st6" d="M647.7,215.7c0.3-2.2,1-4.3,2.1-6.2c1-1.9,2.3-3.7,3.8-5.3c2.9-3.3,6.8-5.6,11.1-6.5
							c-1.5,1.6-3,3-4.4,4.5s-2.8,2.9-4.2,4.3C653.3,209.5,650.8,212.6,647.7,215.7z"/>
						<path class="st6" d="M646.5,198.2c2.2,0.3,4.3,1,6.2,2.1c1.9,1,3.7,2.3,5.3,3.8c3.3,2.9,5.6,6.8,6.5,11.1
							c-1.7-1.5-3-3-4.5-4.4s-2.8-2.9-4.3-4.2C652.7,203.8,649.6,201.2,646.5,198.2z"/>
					</g>
					<g class="st5">
						<path class="st6" d="M449.4,167.9c0.3-2.2,1-4.3,2.1-6.2c1-1.9,2.3-3.7,3.8-5.3c2.9-3.3,6.8-5.6,11.1-6.5
							c-1.5,1.6-3,3-4.4,4.5s-2.9,2.9-4.2,4.3C455,161.7,452.4,164.7,449.4,167.9z"/>
						<path class="st6" d="M448.1,150.4c2.2,0.3,4.3,1,6.2,2.1c1.9,1,3.7,2.3,5.3,3.8c3.3,2.9,5.6,6.8,6.5,11.1
							c-1.6-1.5-3-3-4.5-4.4s-2.9-2.9-4.3-4.2C454.3,156,451.2,153.4,448.1,150.4z"/>
					</g>
					<g class="st5">
						<path class="st6" d="M529.3,167.9c0.3-2.2,1-4.3,2.1-6.2c1-1.9,2.3-3.7,3.8-5.3c2.9-3.3,6.8-5.6,11.1-6.5
							c-1.5,1.6-3,3-4.4,4.5s-2.8,2.9-4.2,4.3C534.9,161.7,532.3,164.7,529.3,167.9z"/>
						<path class="st6" d="M528,150.4c2.2,0.3,4.3,1,6.2,2.1c1.9,1,3.7,2.3,5.3,3.8c3.3,2.9,5.6,6.8,6.5,11.1c-1.7-1.5-3-3-4.5-4.4
							s-2.8-2.9-4.3-4.2C534.2,156,531.1,153.4,528,150.4z"/>
					</g>
					<g class="st5">
						<path class="st6" d="M609.2,167.9c0.3-2.2,1-4.3,2.1-6.2c1-1.9,2.3-3.7,3.8-5.3c2.9-3.3,6.8-5.6,11.1-6.5
							c-1.5,1.6-3,3-4.4,4.5s-2.8,2.9-4.2,4.3C614.8,161.7,612.2,164.7,609.2,167.9z"/>
						<path class="st6" d="M607.9,150.4c2.2,0.3,4.3,1,6.2,2.1c1.9,1,3.7,2.3,5.3,3.8c3.3,2.9,5.6,6.8,6.5,11.1
							c-1.7-1.5-3-3-4.5-4.4s-2.8-2.9-4.3-4.2C614.1,156,611,153.4,607.9,150.4z"/>
					</g>
					<g class="st5">
						<path class="st6" d="M689.1,167.9c0.3-2.2,1-4.3,2.1-6.2c1-1.9,2.3-3.7,3.8-5.3c2.9-3.3,6.8-5.6,11.1-6.5
							c-1.5,1.6-3,3-4.4,4.5s-2.8,2.9-4.2,4.3C694.6,161.7,692.1,164.7,689.1,167.9z"/>
						<path class="st6" d="M687.8,150.4c2.2,0.3,4.3,1,6.2,2.1c1.9,1,3.7,2.3,5.3,3.8c3.3,2.9,5.6,6.8,6.5,11.1
							c-1.7-1.5-3-3-4.5-4.4s-2.8-2.9-4.3-4.2C694,156,690.9,153.4,687.8,150.4z"/>
					</g>
					<path class="st4" d="M228,235.4c5-38.5,84.3-24.3,93.8-14.2s26.6,145.6,17.1,145.6h-73.2C260.3,366.9,222.6,276.5,228,235.4z"
						/>
					<path class="st8" d="M324.4,219.7c-8.9-7.1-26-8.1-41.3-9.3c-0.2,0-0.2,0.3,0,0.4c11.9,1.4,35.6,7.4,38.8,11.6
						c8.4,11,18,91.4,18.9,139.7c0,0.7,0.5,0.5,0.5-0.1C344.1,304,334.6,227.9,324.4,219.7z"/>
					<path class="st7" d="M837.7,235.4c-5-38.5-84.3-24.3-93.8-14.2s-26.6,145.6-17.1,145.6H800
						C805.3,366.9,843.1,276.5,837.7,235.4z"/>
					<path class="st9" d="M741.2,219.7c8.9-7.1,26-8.1,41.3-9.3c0.2,0,0.2,0.3,0,0.4c-11.9,1.4-35.6,7.4-38.8,11.6
						c-8.3,11-18,91.4-18.9,139.7c0,0.7-0.5,0.5-0.5-0.1C721.6,304,731,227.9,741.2,219.7z"/>
				</g>
			</g>
			<rect x="133" y="68.6" class="st10" width="23.9" height="69.1"/>
			<rect x="127.4" y="202.3" class="st4" width="50.3" height="30"/>
			<path class="st1" d="M213.3,149.9H112.9V49.5h100.4V149.9z M116.9,145.9h92.4V53.5h-92.4L116.9,145.9z"/>
			<path class="st1" d="M213.3,285.8H112.9V185.4h100.4V285.8z M116.9,281.8h92.4v-92.4h-92.4L116.9,281.8z"/>
			<rect x="144.8" y="81.5" class="st1" width="36.6" height="36.6"/>
			<rect x="144.8" y="217.3" class="st1" width="36.6" height="36.6"/>
			<path class="st11" d="M543.9,461h-23.6c-3.6,0-6.6,3-6.6,6.6l0,0c0,3.6,3,6.6,6.6,6.6h9.9c2.9,0,5.2,2.3,5.2,5.2l0,0
				c0,2.9-2.3,5.2-5.2,5.2h-399c-2.9,0-5.2-2.3-5.2-5.2l0,0c0-2.9,2.3-5.2,5.2-5.2h9.4c3.6,0,6.6-3,6.6-6.6l0,0c0-3.6-3-6.6-6.6-6.6
				H119c-5.8,0-10.4-4.7-10.4-10.4l0,0c0-5.8,4.7-10.5,10.4-10.5h424.9c5.8,0,10.4,4.7,10.4,10.5l0,0
				C554.3,456.3,549.7,461,543.9,461z M544.3,484.6c2.9,0,5.2-2.3,5.2-5.2s-2.3-5.2-5.2-5.2c-2.9,0-5.2,2.3-5.2,5.2v0
				C539.1,482.3,541.5,484.6,544.3,484.6L544.3,484.6z"/>
			<path class="st12" d="M111.8,382.7c8,4.9,12.5,1.3,16.2,3.8l59.8-13.3c0-1.5,0-2.7,0-3.3c0.4-3.3,1.9-6.3,4.2-8.6
				c5.1-4.5,5.5-12.3,1-17.4c0-0.1-0.1-0.1-0.1-0.2c-1-1.1-2.1-1.9-3.4-2.6c-1.3-0.7-2-2.1-1.8-3.6c0.3-3.2-1.1-6-2.8-7.2
				c-1.9-1.3-3.7-3-8.4-1.2c-5.7,2.1-5.5-4.9-6.5-9.9c-1.5-7.2-14.9-9.9-24.7,5.1c0,0-1.4,3.5-8.4,3s-21.3-1.8-29,8.6
				s3.6,17,1.8,24.4S103.8,377.8,111.8,382.7z"/>
			<path class="st13" d="M131.3,327c-7.4-0.1-17.4,0.9-23.4,8.9c-4.1,5.5-2.8,9.9-1,14l0,0C106.9,349.9,106.3,330.1,131.3,327z"/>
			<path class="st13" d="M170.5,322.1V322c-0.1-1-0.3-2-0.5-2.9c-1.2-5.9-10.2-8.7-18.8-1.6l0,0
				C151.2,317.5,166.1,311.7,170.5,322.1z"/>
			<path class="st13" d="M177.5,328.7c0,0,7.9,0.4,10.2,7.9c0-2.9-1.2-5.3-2.8-6.4C183.2,329,181.6,327.5,177.5,328.7z"/>
			<g>
				<defs>
					<rect id="SVGID_3_" x="95.2" y="62.4" width="488.9" height="378"/>
				</defs>
				<clipPath id="SVGID_4_">
					<use xlink:href="#SVGID_3_"  style="overflow:visible;"/>
				</clipPath>
				<g class="st14">
					<path class="st15" d="M333.4,485.6l-2.7,17.1c0,0,1.6,16.3-3.9,16.8s-95.1,8.8-95.1,4s51.7-17.7,52.6-19.9
						c0.3-0.7-0.2-8.9-1.1-20c-2-26-5.9-68-5.9-68l59.6-0.5L333.4,485.6z"/>
					<path class="st16" d="M330.8,502.8c0,0,1.6,16.3-3.9,16.8s-95.1,8.8-95.1,4s51.7-17.7,52.6-19.9c0.3-0.7-0.2-8.9-1.1-20
						c8.5,2.2,26.8,5.5,50.2,2L330.8,502.8z"/>
					<path class="st17" d="M283.4,503.4c-2.7-1-52.3,14.2-52.5,20s95.8-0.6,99-2.7s2.1-16.5,1.9-17.1S314,514.7,283.4,503.4z"/>
					<path class="st16" d="M330.9,519.7c-17.1,1.6-34.3,3.5-51.5,4.8c-15.7,1.2-33.3,2.1-48.8-1.5c-1.6-0.4-3.4,1.8-1.9,3.1
						c4.3,3.7,10,3.9,15.5,4.5c9.4,0.9,18.8,1,28.3,0.5c19.4-1,38.9-3.3,58.2-5.1C334.7,525.5,334.9,519.3,330.9,519.7z"/>
					<path class="st16" d="M273.5,514.2c-1.7-3.8-5.6-7.7-10-7.6c-0.7-0.1-1.2,0.4-1.3,1.1c0,0.4,0.1,0.8,0.4,1
						c1.5,1.2,3,2.3,4.3,3.6s2.5,2.8,3.9,4S274.2,515.7,273.5,514.2z"/>
					<path class="st16" d="M277.8,512.4c-1.7-3.8-5.6-7.7-10-7.6c-0.7-0.1-1.2,0.4-1.3,1.1c0,0.4,0.1,0.8,0.4,1
						c1.5,1.2,3,2.3,4.3,3.6s2.5,2.8,3.9,4S278.5,513.9,277.8,512.4z"/>
					<path class="st16" d="M282,510.6c-1.7-3.8-5.6-7.7-10-7.6c-0.7-0.1-1.2,0.4-1.3,1.1c0,0.4,0.1,0.8,0.4,1c1.5,1.2,3,2.3,4.3,3.6
						s2.5,2.8,3.9,4S282.7,512.1,282,510.6z"/>
					<path class="st18" d="M419.7,372.1c0,0-8.4-10.4-12.9-12.5s-67.6-58.1-84.3-66.4s-48.9,10-56.8,24.6s9.6,165.3,12.9,168.7
						s32.6,10.6,43,9.3s26.3-11.4,28.4-13.9s-11.7-65.5-10-66.8s8.6,24.6,41.9,39.7s68.3-10.4,80.4-20.9s17.5-63,17.5-63
						L419.7,372.1z"/>
					<path class="st19" d="M336.5,389.9c0-0.1-0.2-0.2-0.3-0.1c-0.1,0-0.1,0.1-0.1,0.2c1.2,5.1,2,10.3,2.4,15.5
						c-2.1-8.4-5.6-16.2-11.6-22.7c-0.2-0.2-0.5,0.1-0.3,0.2c7,9,9.8,20.2,12.5,31.1c0,0.5,0,1,0.1,1.5c0,0.3,0.4,0.6,0.7,0.5
						c0.3,0,0.5-0.3,0.5-0.5C340.8,406.9,339,398.3,336.5,389.9z"/>
					<path class="st19" d="M329.5,394.6c0-0.1-0.1-0.1-0.1,0c1.5,29.4,6.4,58.8,13.2,87.4c0.1,0.4,0.8,0.2,0.6-0.2
						C337.1,452.9,333,423.9,329.5,394.6z"/>
					<path class="st19" d="M472.3,378.2c-2.6,14.7-6.4,31-15.1,43.5c-8.5,12.3-22,20.7-36.8,23.7c-15.8,3.2-33.3,0.7-46.9-8
						c-12.1-7.7-21.6-19.5-30.2-30.8c0,0-0.1,0-0.1,0c7,9.4,13.6,18.8,22.7,26.4c8.8,7.5,19.6,12.4,31,13.9c23.5,3.2,48.5-6,61.5-26
						c8.1-12.5,11.8-28.2,14.3-42.7C472.9,378,472.3,377.9,472.3,378.2z"/>
					<path class="st20" d="M409.6,332.3C393,346.5,372,355.7,352,361.7c-21.2,6.3-43,10-65,11.2c-3.6,2.7-21.6-2.2-31.5-6.4
						c-10.4-4.4-19.8-4.5-19.1-10.6c0.7-5.6,9.4-9.5,24.5-11.7c9.6-1.4,23.5,0.9,26.6-0.5c6.4-2.8,17.6-9.3,29.5-16.7
						c20-12.4,41.6-27.4,44.6-31.4c2.6-3.5,15.8-45.4,20.1-74.6c6.7-44.2,44.3-40.8,51.2-19.2C442.2,230.4,430.7,314.2,409.6,332.3z
						"/>
					<path class="st21" d="M409.6,332.3C393,346.5,372,355.7,352,361.7c-4.5-3-8.8-6.1-13-9.4c-6.5-5.1-14.1-10.5-18.6-17.6
						c-1.5-2.4-2.6-5-3.4-7.7c20-12.4,41.6-27.4,44.6-31.4c2.6-3.5,15.8-45.4,20.1-74.6c6.7-44.2,44.3-40.8,51.2-19.2
						C442.2,230.4,430.7,314.2,409.6,332.3z"/>
					<path class="st10" d="M330.7,310.7c-3.3,2.7,3.1,44.2,18.3,57.3c2.1,1.8,58.8-24.6,70.1-40.6s18-67.4,18.9-92.4
						s-3.1-48.5-21.5-52s-32,11.9-37.3,37s-12.5,62.7-15.1,67.6S333.8,308.1,330.7,310.7z"/>
					<path class="st22" d="M324.1,312.9c-1.6,6.8,2,30.5,5.1,36.8s17.8,19.5,20.4,19.7s21-6.9,22.1-8s-12.9-18.1-15.4-25.3
						s-4.8-38-6.9-39.4S325.1,308.9,324.1,312.9z"/>
					<path class="st16" d="M560.3,473.5c0,0,9.6-13.3,14-10s77,56.5,73.8,60.1s-50.5-21.1-52.5-20c-0.7,0.3-25.3,15.4-39,16.5
						c-4.9-7.3-25.5-47.4-23.4-53.4L560.3,473.5z"/>
					<path class="st17" d="M596.1,504.5c1.4,2.6,48.6,24.1,52.5,19.9s-72.1-63.2-75.9-63.7s-12.5,11-12.8,11.5
						S580.7,475.6,596.1,504.5z"/>
					<path class="st16" d="M571.4,460.7c13.9,10.2,28,20.1,41.7,30.5c12.6,9.5,26.3,20.5,35.5,33.5c1,1.4,3.7,1,3.5-1
						c-0.8-5.6-4.9-9.5-8.6-13.6c-6.4-6.9-13.4-13.3-20.8-19.1c-15.2-12.1-31.3-23.3-47-34.8C572.5,453.8,568.2,458.3,571.4,460.7z"
						/>
					<path class="st16" d="M610.7,502.9c-1.3,4-0.9,9.5,2.5,12.4c0.5,0.5,1.2,0.4,1.7,0c0.2-0.3,0.4-0.6,0.3-1
						c-0.3-1.8-0.7-3.7-0.9-5.5s-0.1-3.8-0.3-5.6S611.2,501.3,610.7,502.9z"/>
					<path class="st16" d="M606.3,501.4c-1.3,4-0.9,9.5,2.5,12.4c0.5,0.5,1.2,0.4,1.7,0c0.2-0.3,0.4-0.6,0.3-1
						c-0.3-1.8-0.7-3.7-0.9-5.5s-0.1-3.8-0.3-5.6S606.8,499.8,606.3,501.4z"/>
					<path class="st16" d="M602,499.9c-1.3,4-0.9,9.5,2.5,12.4c0.5,0.5,1.2,0.4,1.7,0c0.2-0.3,0.4-0.6,0.3-1
						c-0.3-1.8-0.7-3.7-0.9-5.5s-0.1-3.8-0.3-5.6S602.4,498.3,602,499.9z"/>
					<path class="st18" d="M544.4,370.9c0,0,6.5,22.4,5.3,39.4c-0.8,12.2-9.5,38.4-33.7,46.7c-16.7,5.8-114.7,22.8-114.7,22.8
						s66.8-20.6,82.4-23.4s78.5-2.8,84.1-1.1s14.5,30.6,16.1,40.6s-9.5,24.5-13.4,25.6s-201,10.3-218.6,5.6
						c-33.9-9.2-41.9-45.1-38-62.9s84-61.5,89-66.4s8-26.5,8-26.5L544.4,370.9z"/>
					<path class="st19" d="M522.5,453.6c-10.4,0.3-21.8,1.1-32.1,1.7c-9.7,0.6-19.5,0.9-29.1,2.3c-10.7,1.6-21.3,4.1-31.7,7.5
						c-5.9,0.1-11.8,1.1-17.4,2.9c-0.1,0,0,0.1,0,0.1c4.6-0.9,9.2-1.5,13.9-1.9c-6.4,2.1-12.7,4.4-19,6.7c-0.1,0,0,0.1,0,0.1
						c17.5-5.5,35.5-11,53.9-13.7c20-2.9,41.6-3.3,61.8-5.2C523.5,454.2,523.4,453.6,522.5,453.6z"/>
					<path class="st19" d="M570.6,461.7c-46.3-0.2-93-1-138.7,6.9c-0.1,0,0,0.1,0,0.1c46-6.6,92.4-7,138.7-6.7c0.1,0,0.1,0,0.2-0.1
						C570.7,461.8,570.6,461.7,570.6,461.7L570.6,461.7z"/>
					<path class="st19" d="M532.3,375.5c0-0.1-0.1,0-0.1,0c1.5,14.1,2.2,30.4-2.4,44.1s-18,22.2-30.7,27.3
						c-25.4,10-53.4,7.6-78.8,17.7c-0.4,0.2-0.8,0.7-0.3,0.5c27.5-9.7,58.3-7.1,84.9-19.7c11-5.2,21.8-13.5,25.7-25.5
						C535.2,406,534.6,389.7,532.3,375.5z"/>
					<path class="st19" d="M503.9,412.1c-8.7-2.1-18-2.1-26.2-5.9c-8.6-4-12.6-12.2-15.4-20.3c-0.2-0.6-1.2-0.4-1,0.3
						c2.2,8.5,4.4,16.8,13.2,21.5c8.2,4.3,20.1,5.4,29.4,5.1c0.2,0,0.4-0.1,0.4-0.3S504.1,412.1,503.9,412.1z"/>
					<path class="st19" d="M392.7,405.2c-2-6.8-3.2-13.8-3.5-20.9c0-0.1-0.1-0.3-0.3-0.3s-0.3,0.1-0.3,0.3c-0.8,7,0,14.1,2.2,20.8
						c-13.1,7.4-44.2,28.2-54.9,35.6c-8.8,6-17.5,13.1-21.6,23.3c-4.3,10.8-0.9,22.1,3,32.4c0,0.1,0.2,0.2,0.3,0.2
						c0.1,0,0.2-0.2,0.2-0.3c-3.3-12.2-6.3-24.4,0.6-36c5.9-9.9,16-16.1,25.4-22.3C353.8,431.3,393.1,405.1,392.7,405.2z"/>
					<path class="st10" d="M423.4,178.9c-29.1,3.3-39.4,34.4-40.8,69.6c-2.2,57.9,0.8,149.3,6.3,156.4s47.7-7,97.9-7
						c28.4,0,50.1,40.8,59.6,31.6c8.9-8.7,9.9-39.5,7.5-55.7c-3.2-22.8-62.3-146.4-71-161.1S448.6,176,423.4,178.9z"/>
					<path class="st22" d="M382.5,249.6c0-0.1-0.1-0.2-0.2-0.2s-0.2,0.1-0.2,0.2c-0.2,5.8-0.5,11.7-0.7,17.5c-0.4-3.3-0.7-6.6-1-9.9
						c0-0.2-0.4-0.2-0.3,0c0.2,4.5,0,9.7,1.2,14.2c-1.5,44.3-1.4,88.8,6.1,132.6c0.2,0.9,1.5,0.5,1.4-0.4
						C381.2,352.6,382.1,301,382.5,249.6z"/>
					<path class="st22" d="M425.5,169.4c4,0.3,12.4,4.8,18.5,12c2.3,2.7-5.8,42.9-25.7,63.7c-1.8,1.9-13.1-24.2-14.7-24.2
						s-12.1,24.4-12.5,24.2s-7.4-21.1-7.1-27.8s5.3-24.2,12-33.2S419.9,169,425.5,169.4z"/>
					<path class="st23" d="M433.2,182.3c-1.8,14.7-12.7,36.2-23.3,37.7s-17.1-6.2-18-11c-0.8-4,0.6-8.1-0.4-12.9
						c-0.2-1-0.4-1.9-0.8-2.8c-4.5-11.6-14.1-23.9-14.1-23.9l33.3-23.6c0,0,3.7-4.3,4.2-3c2.6,6.6,6,13.6,9.2,19.9
						C428.6,173.1,433.3,181.3,433.2,182.3z"/>
					<path class="st20" d="M394.9,84.1c11.9,11.5,29.7,60.4,26.3,75.2c-3.3,14.3-34.5,35.8-55,24.7c-19.9-10.8-38.1-68.6-31.6-82.8
						C344.3,80.3,377.4,67.1,394.9,84.1z"/>
					<path class="st21" d="M396.8,89.1c7.1,3.8,8.9,11.1,11.9,19.2l10.8,29.2c6.9,21.1,0.2,30.3-11.6,39.2
						c5.5-6.5,9.2-15.6,8.9-23.5c-0.4-10.3-4.5-20.2-11.4-27.8c-3.1-3.5-9.2-25.5-12.2-21c-1.1,1.7-8.5,4.7-10.9,2.7
						c-2.8-2.2,1.1-3.5-0.2-7.3c0,0-3.7,9.2-23.2,23c-7.3,5.2-16.3,24.9-16.3,24.9c-0.4-5.6,0.6-36.2,2.9-41.3
						c7.7-2.9,26.2-25.2,34.1-29.5C382.7,75,391.5,88.6,396.8,89.1z"/>
					<path class="st24" d="M329.2,271.9c-2.3,3.7-5.9,6.5-10,8c3.2,6.4,5.3,13.2,6.4,20.3c0.6,3.9,2.9,18.9-14.9,28.1
						c-1.2,0.7-2.6,1.3-4,1.9c-2.1,0.9,19.4,13.1,23,14.9s9.6,7.9,5.3,12.4s-15-0.1-15-0.1c5.6,9.6-1,18.4-1,18.4
						c1.6,2.2,13.8,9.9,12.1,15.6c-4.6,14.6-19.4,17.7-25.3,16.7s-11.4-20.5-11.4-20.5c-7.4,1.6-19.8,1.6-26.5-1.8
						c-0.3-0.2-0.7-0.3-1-0.5l-0.1,0c-7.6-4.8-9.9-11.3-10.4-16.1v-0.5c-0.2-2.1,0-4.1,0.4-6.1c0.8-14.8,10.8-28.1,11.1-28.6l0,0
						c-6.9-1.4-13.9-4.2-18.6-9.4c-3.4-3.7-5.4-8.5-5.8-13.5c-0.1-0.8-0.1-1.6-0.1-2.5c-0.2-8.6,1.3-17.1,4.5-25.1
						c-3.6-1.1-6.8-3.3-9.2-6.2c-6-7.6-2.6-18.5,8.7-21.1c7.6-1.8,12.6,4.2,15,8.3c0.3-0.2,0.6-0.4,0.9-0.6
						c4.9-3.3,10.5-5.5,16.4-6.2c4.8-0.5,9.7-0.1,14.3,1.3c3.3,0.9,6.4,2.3,9.3,4l0.4,0.2c1.7-4.2,5.9-12,14.4-11
						C329.6,253.2,334.3,263.7,329.2,271.9z"/>
					<path class="st24" d="M267,338.2c-5.9,6.8-9.5,15.3-10,24.3c-2,0.5-4.1,0.8-6.2,1c-10.7,0.9-12.8-3.9-11.3-8.2
						c0.9-2.7,4-5.4,7.9-7.8C255.3,342.4,266.4,338.5,267,338.2z"/>
					<path class="st10" d="M267,338.2c-5.9,6.8-9.5,15.3-10,24.3c-2,0.5-4.1,0.8-6.2,1c1-9.9-3.4-16-3.4-16l0,0
						C255.3,342.4,266.4,338.5,267,338.2z"/>
					<path class="st25" d="M308.5,266.3c0,0,2.1-8.5,8.7-7.8s9.2,6.7,6.3,11.4c-1.8,2.8-4.8,4.7-8.1,5.1L308.5,266.3z"/>
					<path class="st25" d="M258.1,268.8c0,0-3.1-8.2-9.5-6.7s-8.4,7.7-5,12c1.8,2.5,4.7,4,7.8,4.2L258.1,268.8z"/>
					<path class="st24" d="M267,385.3c-5.3,6.7-12.4,11.7-20.4,14.5c-15.6,5.2-22.7-20.4-14.1-21.6c7.3-1,20.4-7.3,24.1-9.2
						c0.5,4.8,2.7,11.3,10.3,16.1L267,385.3z"/>
					<path class="st19" d="M246.6,348.9c2.7,3.8,3,9.1,2.1,13.5c-0.3,1.6,2.2,1.9,2.5,0.3c1-5.1,0.4-11-2.6-15.4
						C247.7,345.9,245.7,347.5,246.6,348.9z"/>
					<path class="st25" d="M305.7,406.5c0.8-2.5,2-4.9,3.6-6.9c1.6-2.1,3.5-4,5.7-5.5c2.2-1.5,4.5-2.7,7.1-3.5
						c2.5-0.8,5.1-1.2,7.7-1.3c-2.5,0.4-5,1.1-7.5,2c-1.2,0.5-2.4,1-3.5,1.6c-0.6,0.3-1.1,0.6-1.7,0.9s-1.1,0.7-1.6,1.1
						c-2.1,1.5-4,3.2-5.6,5.1C308.3,402,306.8,404.2,305.7,406.5z"/>
					<path class="st25" d="M311.6,380c0.9,0.8,1.8,1.7,2.6,2.6c0.8,0.9,1.6,1.9,2.4,2.8s1.5,1.9,2.2,3c0.7,1,1.4,2.1,2,3.1
						c-0.9-0.8-1.8-1.7-2.6-2.6c-0.8-0.9-1.6-1.9-2.4-2.8s-1.5-2-2.2-3C312.9,382.1,312.2,381.1,311.6,380z"/>
					<path class="st25" d="M282.2,334.5c-1.2-1.3-2.2-2.6-3.1-4.1c-0.2-0.4-0.5-0.7-0.6-1.1l-0.6-1.1c-0.4-0.8-0.8-1.5-1.1-2.3
						c-1.4-3.2-2.4-6.4-3.2-9.8c-1.5-6.7-2.2-13.6-2.1-20.5V293c0-0.9,0.1-1.7,0.1-2.6s0.1-1.7,0.2-2.6l0.2-2.6
						c0.3-3.4,0.9-6.8,1.7-10.2c0.8-3.3,1.9-6.6,3.3-9.8c0.7-1.6,1.6-3.1,2.5-4.5c0.9-1.5,2.1-2.7,3.5-3.8c-0.7,0.5-1.3,1.1-1.8,1.8
						c-0.3,0.3-0.5,0.7-0.8,1s-0.5,0.7-0.7,1.1c-0.9,1.5-1.6,3-2.3,4.5c-1.3,3.1-2.3,6.4-3,9.7c-1.4,6.7-2.1,13.5-2,20.3
						c-0.1,6.8,0.5,13.6,1.9,20.3c0.7,3.3,1.7,6.6,3,9.8c0.3,0.8,0.6,1.6,1,2.3l0.5,1.1c0.2,0.4,0.4,0.8,0.6,1.1
						C280.2,331.8,281.1,333.2,282.2,334.5z"/>
					<path class="st25" d="M230.8,380.3c1.9,0.6,3.8,1.6,5.4,2.8c1.7,1.2,3.1,2.7,4.3,4.4c1.2,1.7,2,3.6,2.5,5.6c0.2,1,0.4,2,0.4,3
						c0.1,1,0,2-0.1,3c0-2-0.3-4-0.8-6c-0.3-1-0.6-1.9-1-2.8c-0.4-0.9-0.9-1.8-1.5-2.6c-1.1-1.7-2.5-3.1-4.1-4.4
						c-0.8-0.6-1.6-1.2-2.5-1.7C232.7,381.1,231.8,380.7,230.8,380.3z"/>
					<path class="st25" d="M233.3,381.4c1-0.3,1.9-0.5,2.9-0.8s1.9-0.6,2.9-0.9c1.9-0.6,3.8-1.3,5.6-2.1s3.6-1.6,5.4-2.6
						c0.9-0.5,1.7-1,2.6-1.5s1.6-1.1,2.5-1.7c-1.5,1.4-3.1,2.6-4.8,3.6c-1.7,1-3.5,1.9-5.4,2.7c-1.9,0.8-3.8,1.4-5.7,2
						C237.2,380.6,235.2,381.1,233.3,381.4z"/>
					<path class="st19" d="M312.9,334.3c-25.2,13.3-48.5,5.2-48.5,5.2c-1.7-6.1,3.6-5.6,3.6-5.6c26.2,2.7,38.6-3.8,38.6-3.8
						C312.5,328,312.9,334.3,312.9,334.3z"/>
					<path class="st10" d="M331.1,345.8c-3.8,3.3-6.3,7.9-6.9,12.9l-1.2-0.4l-3-1c2.3,3.1,4,8.9,4.6,11.4c0.2,0.7,0.3,1.2,0.3,1.2
						c-4.1,1.9-8.2,3.5-12.5,4.9c-39,12.6-60.2-5.6-60-6.4c0.1-0.4,0.1-0.7,0.2-1.1c2.4-12.8,11.9-27.6,11.9-27.6
						c5.9,1.8,12,2.6,18.1,2.5c10.6-0.1,21-2.7,30.4-7.7l17,10.8L331.1,345.8z"/>
					<path class="st19" d="M260.9,346.1c-1.5,2-2.8,4.2-4.1,6.4c0-0.2,0.1-0.4,0.1-0.7c0.2-1.1,0.5-2.1,0.9-3.1
						c0-0.2-0.2-0.3-0.2-0.1c-0.7,1.6-1.2,3.3-1.4,5.1c-1.7,3.1-2.7,6.5-3,10.1c0,0.1,0.1,0.2,0.2,0.2c0.1,0,0.2-0.1,0.2-0.1
						C255.1,357.6,257.6,351.7,260.9,346.1C261,346.1,260.9,346,260.9,346.1z"/>
					<path class="st19" d="M331.9,346.8c-3.4,3-6.3,7.4-6.5,12c-0.1,1.6-2.6,1.3-2.5-0.3c0-0.1,0-0.2,0-0.2
						c0.3-5.1,3.4-9.8,7.1-13.1l0.3-0.3C331.5,343.7,333.1,345.8,331.9,346.8z"/>
					<path class="st19" d="M326.4,370.6c-3.1,1.5-6.2,2.8-9.5,3.8l-0.9,0.3c-6.6,2.1-13.3,3.7-20.2,4.6c-8.3,1.1-16.8,1.7-25-0.2
						c-7.4-1.8-15.3-5.2-20.7-10.8c-1.1-1.2,0.9-2.7,2-1.6l0.4,0.4c1.9,1.7,4,3.2,6.2,4.5c12.8,7.5,27.6,7,41.8,4.4
						c2.7-0.5,5.4-1,8.1-1.7c5.5-1.3,10.8-3.2,15.9-5.6l0.8-0.4C326.8,367.5,327.8,369.8,326.4,370.6z"/>
					<path class="st26" d="M319.9,357.3c-1.3-0.2-2.5-0.5-3.7-0.9c-1.2-0.4-2.4-0.9-3.5-1.4c-1.2-0.5-2.3-1.1-3.4-1.7
						c-1.1-0.6-2.2-1.3-3.2-2.1c1.2,0.4,2.4,0.9,3.5,1.4l3.5,1.5c1.1,0.5,2.3,1,3.4,1.5S318.8,356.7,319.9,357.3z"/>
					
						<ellipse transform="matrix(0.9968 -8.019892e-02 8.019892e-02 0.9968 -24.6272 23.325)" class="st25" cx="278.1" cy="318.2" rx="14.9" ry="12.3"/>
					<path class="st12" d="M279.6,317.3c0-0.1-0.1-0.1-0.1-0.1c0,0-0.1,0-0.1,0.1c0,0.8,0,1.6-0.2,2.3c-0.2,1.1-1.2,1.9-2.3,1.9
						c-2-0.1-3-1.6-3.8-2.8c0-0.1-0.2,0-0.2,0.1c0.5,1.6,2.1,3.7,4.5,3.4C280.1,321.7,280.1,318.8,279.6,317.3z"/>
					<path class="st12" d="M275.3,311.2c0-0.1-0.2-0.1-0.2,0c-0.2,3.6,0.3,7.3,1.6,10.7c0.1,0.2,0.5,0.1,0.4-0.1
						C276.4,318.2,275.7,314.7,275.3,311.2z"/>
					<path class="st12" d="M268.5,310.3c0.2,1.4,5.5,3.3,7.1,3s6.4-3.2,6.2-4.6c-0.2-1.6-3.6-2.1-7-1.8
						C272.3,307.1,268.2,308.7,268.5,310.3z"/>
					<path class="st12" d="M259.4,306.2c-5.9-0.1-5.5,9.8-0.1,9.9S264.3,306.3,259.4,306.2z"/>
					<path class="st12" d="M297.2,304.6c-5.8,0.7-4.2,10.4,1.1,9.8S302.1,304,297.2,304.6z"/>
					<path class="st12" d="M258.1,297.6c-1,0.1-1.9,0.6-2.5,1.4c-0.4,0.6-0.3,1.3,0.3,1.7c0.2,0.1,0.3,0.2,0.5,0.2
						c0.7,0,1.4-0.1,2.1-0.3C260.5,300.3,260,297.1,258.1,297.6z"/>
					<path class="st12" d="M296.9,294.9c1-0.1,2,0.3,2.7,0.9c0.5,0.5,0.5,1.3,0,1.8c-0.1,0.1-0.3,0.2-0.5,0.3
						c-0.7,0.1-1.4,0.1-2.1,0.1C295,298,294.9,294.8,296.9,294.9z"/>
					<path class="st20" d="M444.3,350.4c-22.1,15.8-54.2,23.4-82.3,27c-19.9,2.5-40,3.5-60.1,3c-3.9,2.3-21.3-4.1-30.9-9.1
						C261,366,251.8,365.1,253,359c1.1-5.6,10.2-8.7,25.4-9.6c9.7-0.5,23.4,2.9,26.5,1.8c7-2.4,22.6-8.5,39.1-15.4
						c25.1-10.5,52.5-22.7,55.7-26.3c2.9-3.2,19.6-43.9,26.5-72.6c10.5-43.5,47.7-36.8,52.7-14.8
						C485.6,251.7,466.9,334.2,444.3,350.4z"/>
					<path class="st21" d="M444.3,350.4c-22.1,15.8-54.2,23.4-82.3,27c-11.2-11-17.6-25.9-18-41.5c25.1-10.5,52.5-22.7,55.7-26.3
						c2.9-3.2,19.6-43.9,26.5-72.6c10.5-43.5,47.7-36.8,52.7-14.8C485.6,251.7,466.9,334.2,444.3,350.4z"/>
					<path class="st10" d="M367.6,322c-3.5,2.4-0.7,44.3,13.2,58.7c1.9,2,60.7-19.4,73.4-34.4s23.8-65.6,26.8-90.4
						s1.1-48.6-16.9-53.7s-33,9.1-40.3,33.6S406,297.3,402.9,302S370.9,319.8,367.6,322z"/>
					<path class="st22" d="M485.2,279.1c-2.2,2.8-4.5,5.7-6.5,8.7c2.5-8.2,5.1-16.4,8.1-24.4c0.1-0.4-0.5-0.5-0.6-0.2
						c-5.2,13.5-10.6,26.9-15.1,40.7c-4,12.6-7.1,28.9-15.7,39.1c-4.4,5.2-24.7,17.3-35.8,22.2c-12.7,5.7-25.5,10.5-38.5,15.3
						c-0.2,0-0.2,0.2-0.2,0.4c0,0.2,0.2,0.2,0.4,0.2c32.2-5.8,72.2-31,76.5-36.8c7.1-9.7,11.4-24.8,14.7-36c1.5-5,3-10,4.5-15.1
						c2.9-4.6,5.4-9.3,8.5-13.8C485.8,279.1,485.4,278.8,485.2,279.1z"/>
					<path class="st22" d="M417.8,256.7c0-0.1,0-0.2-0.1-0.2s-0.2,0-0.2,0.1c-1.2,3.6-2.5,7.1-3.8,10.7c0-2.1,0-4.1-0.1-6.2
						c0-0.1-0.1-0.1-0.1-0.1c-0.1,0-0.1,0.1-0.1,0.1c0,3.9-0.8,7.7-1.5,11.5c-1,2.9-4.9,15.3-7,22.7c-0.7,1.6-1.4,3.2-2.2,4.8
						c-2.3,4.6-6.9,6.3-11.3,8.6c-8.2,4.2-16.6,8.3-24.4,13.4c0,0,0,0.1,0,0.1c9.7-3.7,19-8.7,28.2-13.4c3-1.5,6.3-3,8.1-6
						c1.5-2.7,2.7-5.6,3.5-8.6C410.8,282.9,415.9,264.4,417.8,256.7z"/>
					<path class="st22" d="M355.8,325.1c-2.2,6.8-0.6,31.7,1.9,38.4s16.1,21.7,18.6,22.1s21.5-5.2,22.8-6.3s-11.3-19.8-13.1-27.5
						s-1.5-39.6-3.5-41.3S357.1,321.1,355.8,325.1z"/>
					<path class="st6" d="M147.2,465.4c3.8-1.6,77.8,1.6,79.3,0.9s8.8-17.9,11.9-16.8s-0.6,35.2-2.8,36.5s-105.6,26.9-110.2,27
						S136.1,470.1,147.2,465.4z"/>
					<path class="st20" d="M155.8,431.6c4.1,1.9,30.3,4.5,39.5,0.7s33.5-23.5,37.5-29.6s-0.8-13.3-9.6-9s-31.2,15.5-33.8,16.7
						s-22.8-0.5-29.2-0.5C145.7,410,142.1,425.4,155.8,431.6z"/>
					<path class="st10" d="M216.9,396.4c2.4-0.5,10.3,11.3,9,16.5c-0.9,3.4-24,18.1-29.3,20c-8.3,2.9-24,6.5-40-0.2
						s-16-22.4-0.8-23.4c10.8-0.7,32.7-0.7,34.7-1S214.6,396.9,216.9,396.4z"/>
					<path class="st10" d="M155.3,410.4c9.9,4.1,26.9,28.5,33.6,51.5s5.5,30.1-9.6,42.6c-19.9,16.5-19.9,27.3-31.1,30.2
						c-14,3.6-25.9-0.8-31.2-6.3c-11.2-11.6-13.3-24.6-6.5-47.8c4-13.6,10.1-46,16.1-57.4C133.4,410,145.1,406.1,155.3,410.4z"/>
					<path class="st27" d="M192.5,470.8c-2.1-9.4-6.2-18.1-11-26.4c-0.6-3.3-2.2-6.7-3.4-9.8c0-0.1-0.1-0.1-0.2-0.1
						c-0.1,0-0.1,0.1-0.1,0.2c0.5,1.9,1,4,1.5,6.1c-2-3.4-4.2-6.8-6.3-10.1c-0.1-0.1-0.2,0-0.2,0.1c10.4,18.8,32.1,52,9.9,70
						c-0.1,0.1-0.2,0.3-0.1,0.4c0.1,0.1,0.3,0.2,0.4,0.1C193.9,495.8,194.9,481.4,192.5,470.8z"/>
					<path class="st6" d="M162.2,492.5c4.3-0.7,61.2,11.8,80.4,20.3c1.6,0.7,13.4-16,16.1-14.1c2.8,1.9-9.2,35.6-11.8,36.4
						s-114.1,5.3-121.7-1.7C121.7,530.1,149.8,494.6,162.2,492.5z"/>
					<path class="st22" d="M244.2,528.5c-15.7,0.5-31.4,1.6-47.1,2.3l-5.8,0.3c-0.1-0.6-0.2-1.3-0.3-1.9c0-0.3-0.5-0.3-0.5,0
						c0,0.6,0.1,1.3,0.1,1.9l-1.7,0.1c-0.1-0.7-0.1-1.5-0.1-2.2c0-0.4-0.6-0.4-0.6,0c0,0.7-0.1,1.5-0.1,2.2
						c-13.1,0.6-26.4,1-39.2-1.4c-6-1.1-11.7-3.2-17-6.3c0.2-0.2,0.4-0.4,0.5-0.6c0.1-0.1,0.1-0.3-0.1-0.4c-0.1-0.1-0.2-0.1-0.3,0
						c-0.3,0.2-0.6,0.3-0.9,0.6c-0.5-0.3-0.9-0.6-1.4-0.9c0.5-0.4,1.1-0.8,1.6-1.3c0.2-0.1,0.2-0.3,0.1-0.5
						c-0.1-0.2-0.3-0.2-0.5-0.1c0,0-0.1,0-0.1,0.1c-0.6,0.5-1.1,1-1.6,1.5c-5.8-3.9-10.1-9.6-12.1-16.3c-2.4-8.2-0.8-16.9,1.1-25
						c1.5-6.5,2.9-12.9,4.1-19.4c0.3,0,0.6-0.1,0.8-0.1c0.2,0,0.4-0.2,0.4-0.4s-0.2-0.4-0.4-0.4h-0.6c0-0.2,0.1-0.5,0.2-0.7l0.2-1.2
						c0.4,0,0.9,0,1.3,0c0.3,0,0.4-0.6,0.1-0.6c-0.4-0.1-0.8-0.1-1.3-0.1c2.6-14.4,5.5-28.9,13.7-41.4c0.1-0.1-0.1-0.2-0.2-0.1
						c-8.2,11.3-11.3,25-13.8,38.5l-0.6,2.9c-0.4,0-0.8,0-1.2,0c-0.2,0-0.3,0.4,0,0.4l1.2,0.2l-0.4,2.2c-0.6,0-1.2,0.3-1.6,0.6
						c0,0,0,0.1,0,0.1c0,0,0,0,0,0c0.5,0.2,1,0.2,1.4,0.1c-1,5.4-2.1,10.7-3.3,16c-1.8,7.5-3.7,15.4-2.8,23.1
						c0.8,9,5.7,17.1,13.2,22c-0.6,0.6-1.2,1.1-1.8,1.7c-0.1,0.1,0.1,0.4,0.2,0.2c0.7-0.5,1.4-1.1,2.1-1.6c0.5,0.3,1,0.6,1.4,0.9
						c-0.4,0.4-0.8,0.8-1.1,1.1c-0.1,0.1-0.1,0.2,0,0.3c0.1,0.1,0.2,0.1,0.3,0c0.5-0.3,1-0.7,1.5-1.1c15,8.4,37.4,8.4,52.7,7.8
						l4.3-0.2c0,0.9,0.2,1.8,0.5,2.6c0.1,0.2,0.3,0.3,0.4,0.2c0.1,0,0.2-0.2,0.2-0.3c0-0.9-0.1-1.7-0.2-2.5l1.7-0.1
						c0,0.8,0.1,1.7,0.3,2.5c0.1,0.4,0.7,0.3,0.7-0.1c0-0.8-0.1-1.6-0.2-2.4c17.6-0.7,35.3-1.7,52.9-2.9
						C244.3,528.6,244.2,528.5,244.2,528.5z"/>
					<path class="st20" d="M139.9,455.1c4.5,2.5,34.4,7.9,45.2,4.4s40.6-23.9,45.7-30.5s0.3-15.3-10.2-11.2s-37.2,14.9-40.3,16
						s-26.1-2.6-33.4-3.2C130.3,429.4,124.8,446.6,139.9,455.1z"/>
					<path class="st10" d="M206.3,423.2c2.9,0.9,14,18.5,8.8,22.2s-24.4,17.5-31.9,18.5s-33.1,0.2-42.1-5
						c-12.9-7.4-22-24.1-11.7-30.3c11.1-6.8,39.9,3.7,46,3.9S201.7,421.8,206.3,423.2z"/>
					<path class="st22" d="M148.6,427.4c-0.1,0-0.2-0.2-0.1-0.3c0-0.1,0.1-0.2,0.2-0.2c4.3,0.6,8.6,1.4,12.9,2.5
						c4.2,1,8.6,1.7,12.7,2.9c1-0.3,2-0.3,2.9,0c1.5-1,3.2-1.8,4.9-2.4c5.6-2.2,11.4-4,17.2-5.6c0.1,0,0.1,0.1,0,0.2
						c-4.8,2.3-10,4-15,5.9c-2.4,0.8-4.7,1.8-6.9,3.1c-2.4,1.5-3.9,3.7-5.8,5.8c-0.2,0.2-0.6,0-0.5-0.3c1.2-2.3,2.9-4.3,4.9-5.9
						c-1.1,0-2.3,0.3-3.3,0.8c-1.5,0.9-2.8,2.1-4.3,3c-0.2,0.1-0.6-0.1-0.3-0.4c1.4-1.5,3-2.8,4.8-3.8c-3.8-0.3-7.5-1-11.2-2
						C157.5,429.7,153,428.6,148.6,427.4z"/>
					<path class="st22" d="M147.6,462c4.7-0.1,9.4,0.8,14.1,1.5c5.5,0.8,17.5,0.7,22.8-1.2c10.5-3.7,21.8-12.6,31.5-18
						c0,0,0.1,0,0.1,0c0,0,0,0.1,0,0.1c-5.2,4.5-10.9,8.4-16.8,11.8c-4.7,2.7-9.7,5.6-14.8,7.3c-4.5,1.5-15.4,2-19.9,1.3l-3.1-0.4
						c-2.6,0.6-5.3,0.8-7.9,1.2c-0.2,0-0.3-0.3-0.1-0.4c1.8-0.5,3.6-0.9,5.4-1.2c-3.7-0.5-7.4-1.1-11.2-1.6c-0.1,0-0.2-0.2-0.2-0.3
						C147.5,462.1,147.6,462,147.6,462z"/>
					<path class="st22" d="M131.3,442.6c-0.1-6.4,3.4-15.1,10.7-15.7c0,0,0.1,0.1,0,0.1c0,0,0,0,0,0c-7.7,1.1-10.9,10.5-10.1,17.2
						c0.8,7,5.6,12.8,11.6,16.2c0.1,0,0,0.2-0.1,0.1C136.5,457.2,131.5,450.5,131.3,442.6z"/>
					<path class="st23" d="M158.9,419.2c0,0,0.2,5.1-4.8,5c-6.2-0.1-14.3-8.5-15-9.9c-0.7-3.2-1.2-6.5-1.3-9.9v-1.4
						c0-0.5,0-0.9,0-1.3s0-1.1,0-1.7c0.1-4.3,0.2-7.9,0.2-7.9l2.9,1.2l20.3,8.9l-1.5,10.7l-0.1,0.7v0.2l-0.4,3.2l0,0L158.9,419.2z"
						/>
					<path class="st20" d="M190.2,375.8c0.8,22.7-21.2,28.5-30.3,30c-8.6,1.3-22.6-1.2-30.5-11.7c-8.6-11.4-13.4-39.8-3.3-51
						c12.5-14,33-15.5,44.5-8.1c5.7,3.7,12.8,16.6,16.7,27.8c1.2,3.4,2.1,6.8,2.7,10.4C190.1,374,190.2,374.9,190.2,375.8z"/>
					<path class="st21" d="M121.5,356.2c-1.6,5.2-1.8,14.8,2,24.4c3.8,11.1,5.7,12.3,5.7,12.3c8.6,11.5,20.4,14.8,30.3,13.5
						c-5.8-0.5-11.9-4.2-15.5-8.2c-5.9-6.4-4.6-18.4-4.7-23.7c-0.1-7.1-3.8-10.6-4.5-14.6c-0.9-5.5,1-11,2.3-11.4
						c5.2-1.9,9.1,8.8,22.1,7.1c3-0.4,5.6-2.8,11.4-2.1c2.6,0.3,5.8,4.2,8.6,5.2c2.1,0.7,4.3,0.4,6.2-0.7
						c-2.5-2.9-0.7-15.2-4.2-16.5c-5.1,2.2-46.6-0.4-52.5,1.2C126.3,343.4,123.8,353.5,121.5,356.2z"/>
				</g>
			</g>
			<path class="st16" d="M394,158.6c-2-2.4-4.9,0.1-7,1.2s-4,2.1-6,3s-4,1.6-5.9,2.5c-1.2,0.6-3,0.9-3.5,2.4c-1,3.1,3.5,5.5,5.9,6
				c3.2,0.5,6.4,0.1,9.3-1.3c2.6-1.1,4.8-3,6.4-5.4c1.4-2.2,2.6-5.9,0.9-8.2L394,158.6z"/>
			<path class="st28" d="M394.3,159c0,0-1,3.5-2.2,3.7s0.1,0.8,1.2,0.3c0.8-0.3,1.4-1,1.7-1.8C394.9,160.4,394.7,159.7,394.3,159z"
				/>
			<path class="st28" d="M371.8,169.7c0,0,3.5,1.4,4.4,0.6s0.6,0.6-0.5,1.1c-0.8,0.4-1.7,0.5-2.5,0.1
				C372.6,171.1,372.1,170.4,371.8,169.7z"/>
			
				<radialGradient id="SVGID_5_" cx="1190.1581" cy="29.0158" r="8.46" gradientTransform="matrix(0.91 -0.35 -0.36 -0.93 -716.24 598.71)" gradientUnits="userSpaceOnUse">
				<stop  offset="0" style="stop-color:#E98C4D"/>
				<stop  offset="0.84" style="stop-color:#E98C4D;stop-opacity:0"/>
			</radialGradient>
			<path class="st29" d="M344.1,157.3c0,0-5,3.5,2,8.6c5.6,4.1,7.7,2.4,9.5,1.6c3.2-1.5,7.3-5.9,5.6-10.5S350.9,154.7,344.1,157.3z"
				/>
			
				<radialGradient id="SVGID_6_" cx="811.0251" cy="-1234.1492" r="8.46" gradientTransform="matrix(0.7 -0.68 -0.68 -0.73 -1006.7501 -198.82)" gradientUnits="userSpaceOnUse">
				<stop  offset="0" style="stop-color:#E98C4D"/>
				<stop  offset="0.84" style="stop-color:#E98C4D;stop-opacity:0"/>
			</radialGradient>
			<path class="st30" d="M390.8,141.6c0,0-3.2,5.2,5.1,7.2c6.7,1.6,7.9-0.8,9.2-2.3c2.4-2.7,4.5-8.4,1.1-11.9
				S396.1,136.5,390.8,141.6z"/>
			
				<radialGradient id="SVGID_7_" cx="1183.1407" cy="-205.153" r="11.28" gradientTransform="matrix(0.88 -0.42 -0.43 -0.9 -758.23 437.66)" gradientUnits="userSpaceOnUse">
				<stop  offset="0" style="stop-color:#E98C4D"/>
				<stop  offset="0.84" style="stop-color:#E98C4D;stop-opacity:0"/>
			</radialGradient>
			<path class="st31" d="M353.5,118.4c0,0-6.2,5.2,3.6,11.2c7.9,4.8,10.5,2.3,12.7,1.1c4.1-2.4,9.1-8.7,6.3-14.6
				S362.3,114.1,353.5,118.4z"/>
			<path class="st32" d="M368.7,154.2c2.3,0.7,4.7,0.6,6.9-0.1c2.3-0.5,4.2-2.2,5-4.4c0,0,2.1,1,1.7,2.7c-0.9,2.3-2.3,4.4-4.2,6.1
				C377.1,159,367.8,158.7,368.7,154.2z"/>
			
				<ellipse transform="matrix(0.9343 -0.3564 0.3564 0.9343 -29.5795 143.9467)" class="st33" cx="375.8" cy="152.2" rx="2.1" ry="0.9"/>
			<path class="st34" d="M373.2,155.1c-0.4,0-0.7,0-1.1,0.2c-0.5,0.2-0.9,0.6-0.8,0.8s0.5,0.1,1,0.1c0.3,0,0.5,0.1,0.8,0.2
				c0.3,0,0.5,0,0.8,0.1c0.4,0.1,0.8,0.4,1,0.2s-0.1-0.7-0.6-1.1C374,155.4,373.6,155.2,373.2,155.1z"/>
			<path class="st34" d="M380.9,151.9c-0.1-0.2-0.5-0.1-1,0.2c-0.3,0.2-0.5,0.4-0.7,0.6c-0.1,0.3-0.2,0.7-0.3,1
				c-0.1,0.5,0,1,0.2,1.1s0.4-0.3,0.6-0.6c0.2-0.2,0.3-0.4,0.5-0.6c0.1-0.2,0.2-0.5,0.3-0.7C380.7,152.4,381,152,380.9,151.9z"/>
			<path class="st34" d="M371.7,156.4l-1.2-0.6c-0.1-0.1-0.3-0.1-0.4-0.2c-0.1,0-0.2-0.1-0.2-0.2c-0.2-0.3-0.3-0.6-0.3-0.9
				c0-0.8,0.6-1.7,0.5-1.9s-0.3,0.1-0.5,0.3c-0.4,0.3-0.6,0.8-0.8,1.3c-0.2,0.6-0.1,1.3,0.2,1.8c0.1,0.3,0.4,0.5,0.6,0.7
				c0.2,0.1,0.5,0.2,0.7,0.3l1.3,0.3c0.9,0.2,1.9,0.3,1.9,0.2S372.6,156.8,371.7,156.4z"/>
			<path class="st34" d="M382.4,150.9c0,0-0.1-0.1-0.4-0.5c-0.1-0.2-0.3-0.3-0.5-0.4c-0.2-0.1-0.3-0.3-0.5-0.4
				c-0.7-0.5-1.5-0.8-1.6-0.6s0.5,0.7,1.1,1.4l0.4,0.5c0.1,0.1,0.2,0.2,0.3,0.4l0.2,0.4c0,0.1,0.1,0.1,0.1,0.2c0,0.3,0,0.5-0.1,0.8
				c-0.3,0.7-0.7,1.5-0.5,1.6s0.7-0.4,1.3-1c0.3-0.4,0.5-0.8,0.5-1.4C382.6,151.4,382.6,151.1,382.4,150.9z"/>
			<path class="st34" d="M378.5,149.8c0-0.2-1-0.4-2-0.3c-1.4,0-2.7,0.5-3.6,1.4c-0.8,0.6-1.4,1.4-1.3,1.6s0.9-0.4,1.8-0.7
				c1.1-0.4,2.3-0.9,3.4-1.4C377.6,150.2,378.6,150,378.5,149.8z"/>
			<path class="st34" d="M386,126c0,0.1-0.7,0.8-1.2,1.6c-0.7,1.1-1.2,2.4-1.6,3.6c-0.3,1-0.3,2-0.4,2c-0.1-0.7-0.1-1.4,0-2.1
				c0.2-1.4,0.8-2.7,1.7-3.8C384.9,126.8,385.4,126.4,386,126z"/>
			<path class="st34" d="M384.2,125.7c0.1,0.1-0.5,0.8-0.9,1.6c-0.5,1.1-0.9,2.2-1.1,3.4c-0.1,0.9-0.1,1.8-0.2,1.8
				c-0.2-0.6-0.3-1.2-0.2-1.9c0-1.3,0.4-2.5,1.2-3.6C383.3,126.6,383.7,126.1,384.2,125.7z"/>
			<path class="st34" d="M361.7,142.8c-0.1,0-0.8-0.9-1.6-1.6c-1.1-1-2.3-1.9-3.5-2.7c-1-0.6-2-1-2-1.1c0.8,0.1,1.5,0.3,2.2,0.7
				c1.4,0.6,2.7,1.6,3.6,2.8C360.9,141.5,361.4,142.1,361.7,142.8z"/>
			<path class="st34" d="M359.9,139.4c-0.1,0.1-0.5-0.3-0.9-0.6s-0.9-0.6-0.9-0.6s-0.4-0.3-0.9-0.6s-0.9-0.6-0.9-0.6
				s0.6,0.1,1.1,0.3c0.7,0.3,1.3,0.7,1.8,1.3C359.6,138.9,360,139.3,359.9,139.4z"/>
			<path class="st13" d="M339.9,136.2c0.2-0.1,0.3-0.3,0.5-0.5c1-1.2,1.8-2.6,2.9-3.7c1.4-1.3,3-2.5,4.7-3.4
				c1.5-0.8,4.3-1.2,5.2-2.8c1-1.9-0.5-4.9-2.9-4.3c0,0.8,0.1,1.6,0.3,2.3c-0.3-0.4-1.1-1.9-1.6-2s-1.8,0.6-2.2,0.9
				c-1.5,0.9-2.8,1.9-4.1,3.1c-2.9,2.5-4.7,6-5,9.8C337.5,137.6,338.9,137,339.9,136.2z"/>
			<path class="st35" d="M345.1,123.7v0.2c0.3,0.9,0.6,1.8,0.6,1.8s0.2,0.9,0.6,1.8c0.2,0.7,0.5,1.3,0.6,1.7l-0.1,0.1
				c-0.3-0.5-0.6-1-0.9-1.6c-0.4-0.9-0.7-1.8-0.7-1.8s-0.3-1-0.4-1.9l0,0L345.1,123.7z M344.8,129c-0.3-0.6-0.6-1.3-0.8-1.9
				c-0.2-0.6-0.4-1.3-0.5-2l-0.4,0.3c0.1,0.6,0.2,1.2,0.4,1.8c0.3,0.7,0.6,1.4,1,2c0.3,0.4,0.5,0.7,0.9,1.1l0.2-0.1
				C345.2,129.8,345,129.4,344.8,129L344.8,129z M350.3,122.3c0.3,0.7,0.6,1.4,0.8,2.2c0.3,0.9,0.4,1.8,0.4,2.7c0,0,0,0,0,0.1
				s0.3-0.2,0.4-0.2c0-0.9-0.1-1.8-0.3-2.6c0,0-0.1-0.3-0.3-0.8c-0.3-0.6-0.6-1.2-0.9-1.7l-0.1-0.2h-0.1
				C350.3,121.8,350.3,122.1,350.3,122.3L350.3,122.3z M340.1,134.2c-0.3-0.4-0.6-0.8-0.8-1.3c-0.3-0.4-0.5-0.9-0.8-1.3l0,0
				c-0.1,0.2-0.1,0.4-0.2,0.6c0.1,0.3,0.3,0.7,0.5,1c0.3,0.4,0.6,0.9,1,1.2c0.3,0.3,0.6,0.5,0.9,0.8l0.1-0.2
				C340.6,134.9,340.4,134.6,340.1,134.2L340.1,134.2z M347,124.9c0,0-0.4-1-0.8-1.9l-0.3,0.2c0.2,0.9,0.5,1.9,0.5,1.9
				c0.4,1.1,0.9,2.2,1.4,3.2C347.6,127.2,347.4,126,347,124.9L347,124.9z M340,129.5c0-0.1-0.1-0.3-0.1-0.4
				c-0.1,0.1-0.2,0.3-0.3,0.5l0,0c0.2,1.2,0.7,2.3,1.6,3.2c0.3,0.3,0.5,0.5,0.8,0.7l0.1-0.2c-0.2-0.3-0.5-0.5-0.7-0.8
				C340.9,131.5,340.4,130.5,340,129.5L340,129.5z"/>
			<path class="st35" d="M343.2,132c1.4-1.3,3-2.5,4.7-3.4c1.5-0.8,4.3-1.2,5.2-2.8c0.6-1.3,0.3-2.8-0.7-3.8
				c0.3,1.7-1.3,3.4-3.7,4.2c-3,0.9-5.6,4.7-8.5,6.8c-1.2,0.9-1.8,0.4-2-0.5c-0.3,1-0.5,2.1-0.6,3.1c-0.1,2,1.3,1.4,2.2,0.6
				c0.2-0.1,0.3-0.3,0.5-0.5C341.4,134.5,342.1,133.1,343.2,132z"/>
			<path class="st13" d="M392.6,114.9c-0.2,0-0.4,0-0.7,0c-1.6-0.2-3.1-0.7-4.7-0.7c-1.9,0-3.9,0.3-5.7,0.9
				c-1.7,0.5-3.9,2.1-5.7,1.6c-2.1-0.6-3.1-3.8-0.9-5.1c0.3,0.4,1.4,1.5,1.4,1.9c-0.1-0.6-0.5-2.1-0.3-2.6s1.7-0.8,2.2-0.9
				c1.6-0.4,3.3-0.6,5-0.6c3.8-0.2,7.5,1.1,10.4,3.5C395.2,114.2,393.8,114.8,392.6,114.9z"/>
			<path class="st35" d="M381.5,114c0,0.4,0.1,0.8,0.1,1.1h-0.1l-0.2,0.1c-0.1-0.3-0.1-0.7-0.2-1.1l-0.4-1.7l-0.3-1.7l-0.2-1h0.3
				c0.1,0.3,0.2,0.6,0.3,0.9c0.3,0.8,0.5,1.7,0.5,1.7S381.4,113.1,381.5,114z M387.5,114.3c0-0.4,0-1.1,0.1-1.8
				c0.1-1.1,0.2-2.1,0.2-2.1s0-0.2,0.1-0.5l-0.5-0.1c-0.1,0.3-0.1,0.5-0.1,0.5c-0.1,0.7-0.1,1.4-0.1,2.2c0,0.6,0.1,1.2,0.2,1.8
				L387.5,114.3z M388.7,110.1c-0.1,0.9-0.2,1.7-0.2,1.7s0,1,0.1,2c0,0.2,0,0.4,0.1,0.6l0.3,0.1c0-0.2,0-0.4,0-0.7
				c0-1,0.1-1.9,0.1-1.9s0-0.8,0-1.6L388.7,110.1z M377.3,116.1c-0.4-0.5-0.9-1.1-1.2-1.7c-0.4-0.6-0.7-1.2-1-1.9
				c-0.1-0.3-0.2-0.6-0.2-0.8c-0.1,0.1-0.2,0.1-0.3,0.2c0,0.3,0.1,0.5,0.1,0.8c0.2,0.7,0.5,1.4,0.9,2c0.4,0.6,0.9,1.2,1.4,1.7
				l0.4,0.4l0.4-0.1L377.3,116.1z M379.1,114.5l-0.8-1.8l-0.9-1.8c-0.1-0.2-0.1-0.3-0.2-0.5l-0.3,0.1c0,0.2,0.1,0.3,0.2,0.5
				c0.4,1,0.8,1.9,0.8,1.9s0.5,0.9,1,1.8c0.3,0.5,0.6,1,0.8,1.3l0.2-0.1C379.6,115.5,379.3,114.9,379.1,114.5L379.1,114.5z
				 M383.1,112.8c0,0-0.1-1.1-0.4-2.2c-0.1-0.4-0.2-0.8-0.2-1.1h-0.3c0,0.3,0.1,0.7,0.1,1.1c0.1,1.1,0.2,2.2,0.2,2.2s0.1,1,0.2,2
				l0.4-0.1C383.1,113.7,383.1,112.7,383.1,112.8L383.1,112.8z"/>
			<path class="st35" d="M392.6,114.9c1.2-0.1,2.7-0.7,1.2-2c-1.1-0.9-2.3-1.7-3.6-2.3c0.7,0.9,2,2.6,0.9,2.8
				c-1.5,0.2-5.5-1.7-10.7,0.4c-4.2,1.7-6.1,0.6-6.7,0c0.1,1.3,0.9,2.4,2.1,2.8c1.8,0.5,4-1.1,5.7-1.6c1.9-0.6,3.8-0.9,5.7-0.9
				c1.6,0,3.1,0.5,4.7,0.7C392.1,114.9,392.3,114.9,392.6,114.9z"/>
			<path class="st13" d="M400,128.3c-1.3-0.4-2.7-0.5-4.1-0.4c-0.9,0.1-1.8,0.2-2.7,0.4c1.6-1.2,3.2-2.1,3.1-2.3s-2.7,0.4-5,1.8
				c-1.1,0.6-2.1,1.4-3,2.2c-0.8,0.7-1.2,1.2-1.2,1.2c-1.2,1.4-2.2,3-3,4.7c-0.6,1.2-0.9,2.5-0.9,3.8c0,1.1,0.3,1.8,0.4,1.8
				s0.1-0.7,0.4-1.6c0-0.2,0.1-0.4,0.2-0.6c0,0.1,0.1,0.1,0.1,0.1s0.3-0.7,0.7-1.6c0.6-1.1,1.3-2.1,2.1-3.1c0.8-0.9,1.8-1.7,2.8-2.4
				c0.4-0.3,0.8-0.5,1-0.6l0.4-0.2c0.5-0.3,0.9-0.6,1.4-0.8c2.2-1.1,4.7-1.6,7.2-1.5c1,0.1,1.7,0.2,1.8,0.1S401,128.7,400,128.3z"/>
			<path class="st13" d="M342.9,150.2c0.7-1.2,1.7-2.2,2.8-3c0.7-0.6,1.5-1.1,2.3-1.5c-2,0.2-3.8,0.6-3.9,0.4s2.3-1.5,5-2
				c1.2-0.2,2.5-0.4,3.7-0.4c1,0,1.7,0,1.7,0c1.8,0.3,3.6,0.8,5.3,1.5c1.2,0.5,2.3,1.3,3.2,2.2c0.7,0.8,1,1.5,0.9,1.6
				s-0.6-0.4-1.4-1c-0.2-0.1-0.4-0.2-0.5-0.3c0,0.1,0,0.1,0,0.1s-0.7-0.4-1.6-0.8c-1.2-0.5-2.4-0.8-3.6-0.9
				c-1.2-0.1-2.4-0.1-3.6,0.1c-0.5,0.1-0.9,0.2-1.2,0.2l-0.4,0.1c-0.5,0.1-1.1,0.2-1.6,0.4c-2.4,0.7-4.6,2-6.3,3.7
				c-0.7,0.7-1.1,1.3-1.3,1.3S342.3,151.1,342.9,150.2z"/>
			<g>
				<path class="st34" d="M390.2,136.1c0,0.1-0.7,0.6-1.4,1.3c-0.9,0.9-1.7,1.8-2.4,2.8c-0.5,0.8-1,1.6-1,1.6
					c0.1-0.6,0.3-1.2,0.7-1.8c0.6-1.2,1.4-2.2,2.5-2.9C389,136.7,389.6,136.4,390.2,136.1z"/>
			</g>
			<g>
				<path class="st34" d="M389.4,139.7c0,0.1-0.3,0.2-0.5,0.4c-0.3,0.3-0.6,0.5-1,0.8c-0.2,0.2-0.5,0.4-0.5,0.4s0.1-0.4,0.3-0.7
					c0.2-0.4,0.6-0.7,1.1-0.8C389.1,139.7,389.4,139.6,389.4,139.7z"/>
			</g>
			<g>
				<path class="st34" d="M364.5,150.4c-0.5-0.1-1.1-0.3-1.6-0.6c-0.8-0.3-1.6-0.5-1.6-0.5s-0.8-0.3-1.6-0.5
					c-0.5-0.1-1.1-0.3-1.6-0.5c0.6-0.1,1.1,0,1.7,0.1c1.1,0.1,2.2,0.5,3.2,1C363.6,149.7,364,150,364.5,150.4z"/>
			</g>
			<g>
				<path class="st34" d="M364.1,151.9c0,0.1-0.5-0.2-0.9-0.3c-0.6-0.1-1.2-0.2-1.8-0.3c-0.5,0-1,0.1-1,0s0.4-0.3,0.9-0.4
					c0.7-0.2,1.4-0.1,2,0.3C363.8,151.4,364.1,151.8,364.1,151.9z"/>
			</g>
			
				<radialGradient id="SVGID_8_" cx="967.3831" cy="-178.9043" r="5.87" gradientTransform="matrix(0.91 -0.33 -0.34 -0.94 -792 541.4)" gradientUnits="userSpaceOnUse">
				<stop  offset="0" style="stop-color:#E98C4D"/>
				<stop  offset="0.84" style="stop-color:#E98C4D;stop-opacity:0"/>
			</radialGradient>
			<path class="st36" d="M148,383.8c0,0-3.5,2.4,1.3,6c3.9,2.9,5.3,1.8,6.5,1.2c2.2-1,5.2-4,4-7.2S152.8,382.1,148,383.8z"/>
			
				<radialGradient id="SVGID_9_" cx="502.3689" cy="-1332.9602" r="5.87" gradientTransform="matrix(0.71 -0.67 -0.67 -0.74 -1062.28 -267.87)" gradientUnits="userSpaceOnUse">
				<stop  offset="0" style="stop-color:#E98C4D"/>
				<stop  offset="0.84" style="stop-color:#E98C4D;stop-opacity:0"/>
			</radialGradient>
			<path class="st37" d="M180.6,373.4c0,0-2.3,3.6,3.5,5c4.6,1.2,5.5-0.5,6.4-1.5c1.7-1.8,3.2-5.8,0.9-8.3S184.3,369.9,180.6,373.4z
				"/>
			
				<radialGradient id="SVGID_10_" cx="929.3192" cy="-404.8969" r="7.83" gradientTransform="matrix(0.88 -0.41 -0.42 -0.91 -824.44 373.75)" gradientUnits="userSpaceOnUse">
				<stop  offset="0" style="stop-color:#E98C4D"/>
				<stop  offset="0.84" style="stop-color:#E98C4D;stop-opacity:0"/>
			</radialGradient>
			<path class="st38" d="M155,356.9c0,0-4.3,3.6,2.4,7.8c5.4,3.4,7.2,1.7,8.8,0.9c2.9-1.6,6.4-6,4.5-10S161.1,354.1,155,356.9z"/>
			<g id="_Group_">
				<g id="_Group_2">
					<path id="_Path_" class="st32" d="M176.8,372c0,0-6.4-8.6-1.4-12.7s12,1.3,12.2,3.5S187,372,176.8,372z"/>
					<path id="_Path_2" class="st16" d="M177.5,373c-1.4-0.8-2.5-2.4-3.1-4.8s-0.3-4.9,1.7-6.5c5-4.1,11.6,0.7,11.8,2.9
						c0.3,3.1-1.3,6.1-4,7.7C181.4,373.7,179.2,373.9,177.5,373z"/>
					<g id="_Group_3">
						<path id="_Path_3" class="st22" d="M177.5,368.2c1.9,2,5.1,2.1,7.1,0.2c0.1-0.1,0.1-0.1,0.2-0.2c2-2.1,2-5.3,0.1-7.4
							c-1.9-2-5.1-2.1-7.1-0.2c-0.1,0.1-0.1,0.1-0.2,0.2C175.6,362.8,175.5,366.1,177.5,368.2z"/>
						<path id="_Path_4" class="st13" d="M178.8,366.8c1.2,1.3,3.3,1.3,4.5,0.1c0,0,0.1,0,0.1-0.1c1.3-1.3,1.3-3.4,0-4.7
							c-1.2-1.3-3.2-1.3-4.5-0.1c0,0-0.1,0.1-0.1,0.1C177.5,363.4,177.5,365.5,178.8,366.8z"/>
					</g>
					<path id="_Path_5" class="st39" d="M176.1,361.6c5-4.1,11.6,0.7,11.8,2.9c0.2,2.5-0.7,4.9-2.5,6.6c1.2-2,3.1-6.5-0.7-8.1
						c-5-2.2-9.3-0.1-9.7,3.8c-0.1,1.2,0,2.4,0.2,3.6C174,367.8,173.1,364,176.1,361.6z"/>
				</g>
			</g>
			
				<ellipse transform="matrix(0.9395 -0.3427 0.3427 0.9395 -115.391 83.6935)" class="st40" cx="179.1" cy="368.4" rx="2" ry="2.1"/>
			
				<ellipse transform="matrix(0.9395 -0.3427 0.3427 0.9395 -112.8126 84.5916)" class="st40" cx="183" cy="361.5" rx="1.3" ry="1.3"/>
			<g id="_Group_4">
				<g id="_Group_5">
					<path id="_Path_6" class="st32" d="M160,378.1c0,0-0.6-10.7-7-10.6s-8.4,8.7-7.2,10.5S152.1,384.7,160,378.1z"/>
					<path id="_Path_7" class="st16" d="M160,379.4c0.6-1.5,0.4-3.4-0.7-5.6s-3-4-5.5-3.9c-6.5,0.1-8.4,8-7.2,9.9
						c1.8,2.6,4.9,3.8,8,3.3C157.5,382.4,159.3,381.1,160,379.4z"/>
					<g id="_Group_6">
						<path id="_Path_8" class="st22" d="M159.4,374.8c-0.2,2.8-2.5,4.9-5.3,4.7c-0.1,0-0.2,0-0.3,0c-2.9-0.3-5-2.8-4.8-5.6
							c0.2-2.8,2.5-4.9,5.3-4.7c0.1,0,0.2,0,0.3,0C157.4,369.4,159.6,371.9,159.4,374.8z"/>
						<path id="_Path_9" class="st13" d="M157.6,374.6c-0.1,1.8-1.7,3.1-3.4,3c0,0-0.1,0-0.1,0c-1.8-0.2-3.2-1.8-3.1-3.6
							c0.1-1.8,1.6-3.1,3.4-3c0,0,0.1,0,0.1,0C156.4,371.2,157.7,372.8,157.6,374.6z"/>
					</g>
					<path id="_Path_10" class="st39" d="M153.8,369.8c-6.5,0.1-8.4,8-7.2,9.9c1.4,2,3.7,3.3,6.2,3.4c-2.2-0.8-6.6-2.9-4.7-6.7
						c2.4-4.9,7-6.1,9.9-3.3c0.9,0.9,1.6,1.8,2.2,2.9C159.3,373.1,157.6,369.7,153.8,369.8z"/>
				</g>
			</g>
			
				<ellipse transform="matrix(0.9395 -0.3427 0.3427 0.9395 -120.3137 74.9334)" class="st40" cx="151.9" cy="377.9" rx="2" ry="2.1"/>
			
				<ellipse transform="matrix(0.9395 -0.3427 0.3427 0.9395 -118.0684 76.1038)" class="st40" cx="156.3" cy="372.2" rx="1.3" ry="1.3"/>
			<path class="st32" d="M168,379.8c1.6,0.5,3.2,0.5,4.8,0c1.6-0.3,2.9-1.5,3.5-3c0,0,1.4,0.7,1.2,1.9c-0.6,1.6-1.7,3-2.9,4.2
				C173.8,383.2,167.3,383,168,379.8z"/>
			
				<ellipse transform="matrix(0.9404 -0.3401 0.3401 0.9404 -118.735 81.1242)" class="st33" cx="172" cy="379.2" rx="1.4" ry="0.6"/>
			<path class="st34" d="M171.1,380.5c-0.3,0-0.5,0-0.8,0.1c-0.4,0.1-0.6,0.4-0.5,0.5s0.4,0.1,0.7,0.1c0.2,0,0.4,0.1,0.6,0.2
				c0.2,0,0.4,0,0.6,0.1c0.3,0.1,0.6,0.3,0.7,0.2s-0.1-0.5-0.4-0.8C171.6,380.7,171.4,380.6,171.1,380.5z"/>
			<path class="st34" d="M176.4,378.4c-0.1-0.1-0.4-0.1-0.7,0.1c-0.2,0.1-0.4,0.3-0.5,0.4c-0.1,0.2-0.2,0.4-0.2,0.7
				c-0.1,0.4,0,0.7,0.1,0.8s0.3-0.2,0.4-0.5c0.1-0.1,0.2-0.3,0.4-0.4c0.1-0.2,0.1-0.3,0.2-0.5C176.3,378.7,176.5,378.5,176.4,378.4z
				"/>
			<path class="st34" d="M170,381.4l-0.8-0.4c-0.1,0-0.2-0.1-0.3-0.2c-0.1,0-0.1-0.1-0.2-0.1c-0.1-0.2-0.2-0.4-0.2-0.7
				c0-0.6,0.4-1.2,0.3-1.3s-0.2,0-0.4,0.2c-0.3,0.2-0.4,0.5-0.5,0.9c-0.1,0.4-0.1,0.9,0.1,1.3c0.1,0.2,0.2,0.4,0.4,0.5
				c0.2,0.1,0.3,0.2,0.5,0.2l0.9,0.2c0.6,0.1,1.3,0.2,1.3,0.1S170.6,381.7,170,381.4z"/>
			<path class="st34" d="M177.5,377.7c0,0,0-0.1-0.2-0.3c-0.1-0.1-0.2-0.2-0.3-0.3l-0.4-0.3c-0.5-0.4-1-0.6-1.1-0.5s0.4,0.5,0.7,1
				l0.3,0.3c0.1,0.1,0.1,0.2,0.2,0.2l0.1,0.3c0,0,0.1,0.1,0.1,0.1c0,0.2,0,0.4-0.1,0.5c-0.2,0.5-0.5,1-0.4,1.1s0.5-0.2,0.9-0.7
				c0.2-0.3,0.4-0.6,0.4-0.9C177.7,378.1,177.6,377.9,177.5,377.7z"/>
			<path class="st34" d="M174.9,376.9c0-0.1-0.7-0.2-1.4-0.2c-0.9,0-1.8,0.4-2.5,1c-0.6,0.4-1,1-0.9,1.1s0.6-0.2,1.2-0.5
				c0.8-0.3,1.6-0.6,2.4-0.9C174.2,377.1,174.9,377,174.9,376.9z"/>
			<path class="st34" d="M175.6,359.5c0,0-0.5,0.5-0.8,1.1c-0.5,0.8-0.9,1.6-1.1,2.5c-0.2,0.7-0.2,1.4-0.3,1.4c-0.1-0.5-0.1-1,0-1.4
				c0.1-1,0.6-1.9,1.2-2.6C174.8,360.1,175.1,359.7,175.6,359.5z"/>
			<path class="st34" d="M174.4,359.3c0,0-0.4,0.5-0.7,1.1c-0.4,0.8-0.6,1.5-0.8,2.4c-0.1,0.6-0.1,1.3-0.1,1.3
				c-0.1-0.4-0.2-0.9-0.1-1.3c0-0.9,0.3-1.8,0.8-2.5C173.7,359.8,174,359.5,174.4,359.3z"/>
			<path class="st34" d="M158.5,370.9c0,0-0.5-0.6-1.1-1.1c-0.8-0.7-1.6-1.3-2.5-1.9c-0.7-0.4-1.4-0.7-1.4-0.8
				c0.5,0.1,1,0.3,1.5,0.5c1,0.4,1.8,1.1,2.5,1.9C158,370,158.3,370.4,158.5,370.9z"/>
			<path class="st34" d="M157.3,368.5c0,0-0.3-0.2-0.6-0.4s-0.6-0.4-0.6-0.4s-0.3-0.2-0.6-0.5s-0.6-0.4-0.6-0.5s0.4,0.1,0.7,0.2
				c0.5,0.2,0.9,0.5,1.2,0.9C157.1,368.2,157.4,368.5,157.3,368.5z"/>
			<path class="st13" d="M144.6,367.9c0.1-0.1,0.3-0.2,0.4-0.3c0.8-0.7,1.5-1.6,2.4-2.2c1.1-0.8,2.3-1.4,3.6-1.8
				c1.1-0.4,3.1-0.4,3.9-1.4c0.9-1.2,0.2-3.4-1.5-3.2c-0.1,0.5-0.1,1.1-0.1,1.6c-0.2-0.4-0.5-1.4-0.9-1.6s-1.3,0.2-1.6,0.4
				c-1.1,0.4-2.2,1-3.1,1.6c-2.2,1.4-3.9,3.6-4.5,6.2C142.8,368.6,143.9,368.4,144.6,367.9z"/>
			<path class="st35" d="M149.6,360v0.1c0.1,0.7,0.2,1.3,0.2,1.3s0.1,0.7,0.2,1.3c0.1,0.5,0.2,1,0.2,1.2h-0.1
				c-0.2-0.4-0.3-0.8-0.4-1.2c-0.2-0.7-0.3-1.3-0.3-1.3s-0.1-0.7-0.1-1.4l0,0L149.6,360z M148.7,363.6c-0.2-0.5-0.3-0.9-0.4-1.4
				c-0.1-0.5-0.1-0.9-0.2-1.4l-0.3,0.2c0,0.4,0,0.9,0.1,1.3c0.1,0.5,0.3,1,0.5,1.5c0.1,0.3,0.3,0.6,0.5,0.8l0.1-0.1
				C149,364.1,148.8,363.8,148.7,363.6L148.7,363.6z M153.3,359.6c0.2,0.5,0.3,1,0.3,1.6c0.1,0.6,0.1,1.3,0,1.9l0,0l0.3-0.1
				c0.1-0.6,0.2-1.2,0.1-1.8c0,0,0-0.2-0.1-0.6c-0.1-0.4-0.2-0.9-0.4-1.3l-0.1-0.2h-0.1C153.3,359.2,153.3,359.4,153.3,359.6
				L153.3,359.6z M145,366.6c-0.2-0.3-0.3-0.7-0.4-1c-0.1-0.3-0.3-0.7-0.4-1l0,0c-0.1,0.1-0.1,0.3-0.2,0.4c0.1,0.3,0.1,0.5,0.2,0.8
				c0.2,0.4,0.3,0.7,0.6,1c0.2,0.2,0.3,0.4,0.5,0.6l0.1-0.1C145.3,367.1,145.1,366.9,145,366.6L145,366.6z M150.7,361
				c0,0-0.1-0.7-0.3-1.4l-0.2,0.1c0.1,0.6,0.2,1.4,0.2,1.4c0.1,0.8,0.4,1.6,0.6,2.4C150.9,362.6,150.8,361.8,150.7,361z
				 M145.4,363.3c0-0.1,0-0.2,0-0.3l-0.2,0.3l0,0c0,0.8,0.2,1.7,0.7,2.4c0.1,0.2,0.3,0.4,0.5,0.6l0.1-0.1c-0.1-0.2-0.3-0.4-0.4-0.6
				C145.8,364.8,145.6,364.1,145.4,363.3L145.4,363.3z"/>
			<path class="st35" d="M147.3,365.4c1.1-0.8,2.3-1.4,3.6-1.8c1.1-0.4,3.1-0.4,3.9-1.4c0.6-0.8,0.5-1.9-0.1-2.6
				c0,1.2-1.2,2.2-3,2.4c-2.2,0.3-4.4,2.6-6.6,3.7c-0.9,0.5-1.2,0-1.3-0.6c-0.3,0.7-0.6,1.4-0.8,2.1c-0.3,1.4,0.8,1.1,1.5,0.7
				c0.1-0.1,0.3-0.2,0.4-0.3C145.8,367,146.4,366.1,147.3,365.4z"/>
			<path class="st13" d="M182.4,354.1c-0.2,0-0.3,0-0.5,0c-1.1,0-2.2-0.3-3.3-0.2c-1.3,0.1-2.7,0.5-3.9,1c-1.1,0.5-2.6,1.7-3.8,1.4
				c-1.5-0.3-2.4-2.5-1-3.4c0.2,0.3,1,0.9,1.1,1.2c-0.1-0.4-0.5-1.4-0.4-1.8s1.1-0.6,1.5-0.8c1.1-0.4,2.3-0.7,3.4-0.8
				c2.6-0.4,5.3,0.3,7.4,1.8C184.2,353.5,183.2,354,182.4,354.1z"/>
			<path class="st35" d="M174.7,354.2c0.1,0.3,0.1,0.5,0.1,0.8l0,0l-0.1,0l-0.2-0.8l-0.4-1.2l-0.3-1.2l-0.2-0.7h0.2
				c0.1,0.2,0.2,0.4,0.3,0.6c0.2,0.6,0.4,1.2,0.4,1.2S174.6,353.5,174.7,354.2z M178.9,354c0-0.3-0.1-0.8-0.1-1.3c0-0.7,0-1.5,0-1.5
				s0-0.1,0-0.3l-0.4,0c0,0.2,0,0.4,0,0.4c0,0.5,0,1,0.1,1.5c0,0.4,0.1,0.8,0.2,1.2H178.9z M179.4,351c0,0.6,0,1.2,0,1.2
				s0.1,0.7,0.2,1.4c0,0.1,0.1,0.3,0.1,0.4h0.2c0-0.1,0-0.3,0-0.5c0-0.7-0.1-1.3-0.1-1.3s0-0.5-0.1-1.1L179.4,351z M171.9,355.8
				c-0.3-0.3-0.7-0.7-0.9-1.1c-0.3-0.4-0.6-0.8-0.8-1.2c-0.1-0.2-0.1-0.3-0.2-0.5l-0.2,0.1c0,0.2,0.1,0.4,0.2,0.5
				c0.2,0.5,0.4,0.9,0.7,1.4c0.3,0.4,0.7,0.8,1.1,1.1l0.3,0.2l0.3-0.1L171.9,355.8z M173,354.6l-0.7-1.2l-0.7-1.2
				c-0.1-0.1-0.1-0.2-0.2-0.3l-0.2,0.1c0,0.1,0.1,0.2,0.1,0.4c0.3,0.6,0.6,1.3,0.6,1.3s0.4,0.6,0.8,1.2c0.2,0.3,0.5,0.6,0.6,0.8
				l0.1-0.1L173,354.6z M175.7,353.1c0,0-0.2-0.8-0.4-1.5c-0.1-0.3-0.2-0.5-0.2-0.7h-0.2c0.1,0.2,0.1,0.5,0.2,0.8
				c0.1,0.8,0.3,1.5,0.3,1.5s0.1,0.7,0.3,1.4l0.3-0.1C175.8,353.8,175.7,353.2,175.7,353.1L175.7,353.1z"/>
			<path class="st35" d="M182.4,354.1c0.8-0.1,1.8-0.6,0.7-1.5c-0.8-0.6-1.7-1-2.6-1.4c0.6,0.6,1.6,1.7,0.8,1.9
				c-1,0.3-3.9-0.8-7.4,1c-2.8,1.4-4.2,0.8-4.6,0.4c0.1,0.9,0.8,1.6,1.6,1.8c1.2,0.3,2.7-1,3.8-1.4c1.2-0.5,2.6-0.9,3.9-1
				c1.1-0.1,2.2,0.2,3.3,0.2C182.1,354.1,182.2,354.1,182.4,354.1z"/>
			<g id="_Group_7">
				<path id="_Path_11" class="st13" d="M174.7,369.6c-0.1-0.5-0.3-1-0.3-1.5c-0.1-0.6-0.1-1.1-0.1-1.7c0-0.7,0.2-1.4,0.4-2
					c0.1-0.2,0.1-0.3,0.2-0.5l0.1-0.2l0.2-0.2l0.3-0.4l0.4-0.4l0.2-0.2l0.2-0.2l0.5-0.3c0.3-0.2,0.7-0.3,1.1-0.5l1.2-0.4l0.7-0.1
					l0.6-0.1c0.9-0.1,1.8,0,2.7,0.2c0.9,0.2,1.7,0.6,2.5,1.1c0.4,0.3,0.7,0.6,1,1c0.3,0.4,0.5,0.7,0.6,1.2c0.3,0.8,0.3,1.7,0.2,2.5
					c-0.1,0.8-0.4,1.5-0.8,2.2c-0.3,0.6-0.6,1.1-1,1.6l-0.5,0.6l-0.4,0.5c-0.3,0.3-0.5,0.6-0.6,0.7l-0.2,0.3l0.3-0.2
					c0.3-0.2,0.5-0.3,0.8-0.5l0.6-0.4l0.6-0.5c0.2-0.2,0.4-0.4,0.7-0.7s0.4-0.5,0.7-0.8c0.5-0.7,0.9-1.5,1.1-2.3
					c0.3-1.1,0.3-2.3,0-3.4c-0.2-0.6-0.5-1.2-0.9-1.8c-0.4-0.5-0.8-1-1.3-1.4c-0.9-0.7-2-1.3-3.1-1.5c-1-0.2-2.1-0.3-3.1-0.1
					l-0.8,0.1l-0.7,0.2c-0.5,0.2-0.9,0.3-1.3,0.5c-0.4,0.2-0.8,0.4-1.2,0.7l-0.5,0.4l-0.2,0.2l-0.2,0.3l-0.4,0.5
					c-0.1,0.2-0.2,0.4-0.3,0.6l-0.1,0.3l-0.1,0.3c-0.1,0.2-0.1,0.4-0.2,0.6c-0.2,0.8-0.2,1.6-0.1,2.4c0.1,0.6,0.2,1.2,0.4,1.8
					c0.1,0.4,0.3,0.7,0.4,1.1C174.6,369.5,174.7,369.6,174.7,369.6z"/>
			</g>
			<g id="_Group_8">
				<path id="_Path_12" class="st13" d="M160,374.9c-0.2-0.5-0.5-0.9-0.7-1.4c-0.3-0.5-0.6-0.9-1-1.4c-0.5-0.5-1-0.9-1.6-1.3
					c-0.1-0.1-0.3-0.1-0.5-0.2l-0.2-0.1l-0.3-0.1l-0.5-0.1h-0.6h-0.3h-0.3l-0.6,0.1c-0.4,0.1-0.8,0.2-1.1,0.3l-1.1,0.5l-0.6,0.3
					l-0.5,0.3c-0.7,0.5-1.4,1.1-1.9,1.9c-0.6,0.7-1,1.6-1.2,2.5c-0.1,0.4-0.1,0.9-0.1,1.4c0,0.4,0.1,0.9,0.3,1.3
					c0.3,0.8,0.8,1.5,1.5,2c0.6,0.5,1.3,0.9,2,1.2c0.6,0.2,1.2,0.5,1.9,0.6l0.8,0.2l0.7,0.1c0.4,0.1,0.7,0.1,1,0.1h0.3l-0.3,0
					c-0.3,0.1-0.6,0.1-0.9,0.1h-0.7h-0.8c-0.3,0-0.6,0-0.9-0.1s-0.7-0.1-1-0.2c-0.8-0.2-1.6-0.5-2.4-1c-1-0.6-1.7-1.5-2.1-2.6
					c-0.3-0.6-0.4-1.3-0.5-1.9c-0.1-0.6,0-1.3,0.1-1.9c0.2-1.2,0.7-2.2,1.4-3.2c0.6-0.8,1.4-1.5,2.3-2.1l0.6-0.4l0.6-0.3
					c0.5-0.2,0.9-0.3,1.3-0.5c0.4-0.1,0.9-0.2,1.4-0.2h1l0.3,0.1l0.6,0.1l0.6,0.2l0.3,0.1l0.3,0.2c0.2,0.1,0.4,0.2,0.5,0.3
					c0.6,0.5,1.2,1.1,1.6,1.7c0.3,0.5,0.6,1.1,0.9,1.6c0.2,0.4,0.3,0.7,0.4,1.1C159.9,374.8,160,374.9,160,374.9z"/>
			</g>
			<path class="st41" d="M178.1,387.1c-0.8-1.7-2.9-0.7-4.3-0.3s-2.6,0.6-4,0.9s-2.6,0.3-3.8,0.6c-0.8,0.2-1.9,0.1-2.4,0.9
				c-1.1,1.7,1.2,3.8,2.6,4.4c1.8,0.8,3.7,1,5.6,0.6c1.7-0.3,3.3-1.1,4.6-2.3c1.1-1.1,2.4-3.1,1.7-4.7L178.1,387.1z"/>
			<g>
				<defs>
					<path id="SVGID_11_" d="M178.1,387.1c-0.8-1.7-2.9-0.7-4.3-0.3s-2.6,0.6-4,0.9s-2.6,0.3-3.8,0.6c-0.8,0.2-1.9,0.1-2.4,0.9
						c-1.1,1.7,1.2,3.8,2.6,4.4c1.8,0.8,3.7,1,5.6,0.6c1.7-0.3,3.3-1.1,4.6-2.3c1.1-1.1,2.4-3.1,1.7-4.7L178.1,387.1z"/>
				</defs>
				<clipPath id="SVGID_12_">
					<use xlink:href="#SVGID_11_"  style="overflow:visible;"/>
				</clipPath>
				<g class="st42">
					<path class="st43" d="M177,392.3c0,0-6.2-2.4-9.9,1.8c-2.5,3.3,8.1,1.1,8.1,1.1L177,392.3z"/>
				</g>
			</g>
			<path class="st16" d="M173.8,386.8c-1.3,0.3-2.7,0.6-4,0.9c-1.3,0.2-2.6,0.3-3.8,0.6c-0.8,0.2-1.9,0.1-2.4,0.9
				c0,0,5.1,1.5,13.9-2.7C176.6,385.8,175,386.5,173.8,386.8z"/>
			<path class="st21" d="M412.3,125.4c0,0,2.3-17.9,9.9-17.8s10.8,22.8,5.1,29c-2.7,3.5-7.7,4.1-11.2,1.4c-0.1-0.1-0.2-0.2-0.3-0.2
				L412.3,125.4z"/>
			<path class="st12" d="M191.7,346.5c0.2-6.8-6.3-6.6-11.3-10.9c-4-3.4-11.9-4.2-17-4.4c-1.8,0-3.4-1-4.1-2.6
				c-1,0.3-20.8,3.2-21.8,3.4c-22.2,6.3-10.9,22.5-10.9,22.5s9.4-17.8,22.3-5.5c2.9,2.8,7.1,5.2,13.7,1.1c3-1.9,6.7-2.3,10-1.1
				c5.5,2.1,1.3,7.3,10.7,6.9c1.6-0.1,3.2,0.1,4.6-0.6c2.2-1.2,3.8-3.1,4.8-5.4C192.1,348.9,191.7,347.7,191.7,346.5z"/>
			<path class="st12" d="M344.5,156.9c0,0-8.9-23,10.1-37.7s29.6-24.8,25.6-41.3c0,0,11,12.1,7.2,23.8c0,0,8.2-2,7.9-7.9
				c0,0,5.9,8,5.4,11.4c0,0,3.9-1.5,2.6-7.5l8,24l7.9,12.5l-0.1-23.8c0,0,4.8-45.8-34.7-45.5c0,0-38.5-17.2-61,22.8
				c0,0-19.4,28.2,7.5,55.1L344.5,156.9z"/>
			<path class="st13" d="M323.5,87.8c-4.8,7.8-7.2,16.9-6.7,26c1.6-6.6,7.8-27,24-37.8c19.4-12.9,43.8-11.1,43.8-11.1
				S346,47.7,323.5,87.8z"/>
			<path class="st13" d="M418.2,93.5L418.2,93.5c-2.6-13-10.5-28.8-33.7-28.5C384.5,64.9,412.6,72.7,418.2,93.5z"/>
			<path class="st12" d="M127.9,391.7c0,0-9.1-15.1-9.3-20.5s-1.3-17.6,1.6-23c2.7-5,16.2-3.5,16.2-3.5s-6.9,7.8-5.5,15.8
				s5.3,8.1,5.6,13C137.1,382.9,127.9,391.7,127.9,391.7z"/>
			<path class="st21" d="M135.3,380.3c0,0-8.8-7.6-14.4-5.7c-6,2-3.2,13.2,2.5,16.1c6.7,3.5,13.3-1.1,13.3-1.1L135.3,380.3z"/>
			<path class="st21" d="M135.3,389.8L135.3,389.8z"/>
			<path class="st44" d="M262.3,415.1c-0.4-0.6-0.4-1.3-0.1-1.9c3.5-6.5,1.1-14.6-5.4-18.1c-6.5-3.5-14.6-1.1-18.1,5.4
				c-2.5,4.5-2.1,10.1,1,14.2c0.7,1,0.7,2.3-0.1,3.2c-1.2,1.3-3.8,2.2-9.3-1.5c-0.6-0.4-1.3-0.6-2-0.6l0,0c-1.8,0-3.3,1.3-3.6,3.1
				c-1,6.5-1.1,21.1,17.1,21.1h6.4C265.2,439.9,269.8,425.4,262.3,415.1z"/>
			<path class="st19" d="M239.6,417.9c-0.4,0.5-0.9,0.8-1.5,1c2.2,0.5,3.5-0.1,4.3-1c0.8-0.9,0.9-2.2,0.1-3.2
				c-4.4-5.9-3.1-14.3,2.9-18.6c1.9-1.4,4.1-2.3,6.5-2.5c-7.3-0.8-13.9,4.5-14.6,11.8c-0.3,3.3,0.5,6.6,2.5,9.3
				C240.4,415.6,240.4,417,239.6,417.9z"/>
			<path class="st19" d="M227.4,418.9c0.2-1.3,1-2.3,2.2-2.8c-0.4-0.2-0.9-0.3-1.4-0.3l0,0c-1.8,0-3.3,1.3-3.6,3.1
				c-1,6.5-1.1,21.1,17.1,21.1h2.8C226.3,439.9,226.4,425.4,227.4,418.9z"/>
			<path class="st19" d="M230.2,424.7c-0.8,0.8-1,2.1-0.3,3c3.2,5,8.8,8,14.7,7.8c5.2,0,10.7-3.2,11.7-8.6c0.9-4.4-1.8-9.9-6.8-9.6
				c-3.7,0.2-5.9,3.4-9.1,4.9c-2.2,1-4.6,1.7-7.1,1.9C232.2,424.2,231.2,423.8,230.2,424.7z"/>
			<path class="st13" d="M258.2,403.5c-0.3,0-0.6-0.2-0.7-0.5l-0.3-1.4c-0.1-0.4,0.2-0.7,0.6-0.8c0.3-0.1,0.7,0.1,0.8,0.5l0.3,1.4
				c0.1,0.4-0.1,0.8-0.5,0.8L258.2,403.5z"/>
			<path class="st19" d="M261.7,399.7c0,0,0.3,4.2-1.6,6s1.3,4.8,5.1,2.1c0.5-0.4,1.1-0.6,1.6-0.8c0.7-0.2,1.2-0.8,1.2-1.5l0,0
				c0-0.7-0.5-1.3-1.1-1.5c-0.5-0.2-1.1-0.2-1.7-0.1c0,0,2.3-2,1.7-4.3c-0.2-0.6-0.7-0.9-1.3-0.8c-0.1,0-0.3,0.1-0.4,0.2
				C264.3,399.6,263,400,261.7,399.7z"/>
			<path class="st45" d="M447.8,392.5l4-17.5l-4-1.4l-8.4,17.6l0,0l-0.6,1.2L447.8,392.5z"/>
			<path class="st44" d="M465.2,366.5c0,0.2-0.1,0.4-0.2,0.5c-2.2,6.3-9.1,9.7-15.4,7.5c-5.7-2-9.1-7.9-7.9-13.8l3.7-1
				c1.4-0.3,2.8,0.2,3.6,1.3l1,1.3c0.8,1.1,2.3,1.6,3.6,1.2l1.6-0.4c1.4-0.4,2.8,0.1,3.6,1.2l1,1.3c0.8,1.1,2.3,1.6,3.6,1.3
				L465.2,366.5z"/>
			<path class="st22" d="M465.2,366.5l-1.8,0.5c-1.4,0.3-2.8-0.2-3.6-1.3l-1-1.3c-0.8-1.1-2.3-1.6-3.6-1.2l-1.6,0.4
				c-1.3,0.4-2.8-0.1-3.6-1.2l-1-1.3c-0.8-1.1-2.3-1.6-3.6-1.3l-3.7,1c0.1-0.5,0.2-1.1,0.4-1.6c2.4-6.2,9.4-9.3,15.7-6.9
				C463.5,354.5,466.7,360.6,465.2,366.5L465.2,366.5z"/>
			<path class="st44" d="M379.2,380c-5.9-2.2-11.5-1.3-12.9,2s1.8,7.7,7.1,10.4h5.6L379.2,380z"/>
			<path class="st19" d="M408.9,372.4l-1.4,20l-30.3,0c-0.4-4.3,0.3-8.5,2-12.5c0.6-1.5,1.4-2.8,2.4-4.1c0.4-0.6,0.9-1.2,1.4-1.8
				l20.4-4.9c0.7,0.3,1.4,0.6,2,0.9C406.6,370.7,407.8,371.5,408.9,372.4z"/>
			<path class="st46" d="M405.4,370.1c-4.6,8.1-14.8,10.9-22.9,6.3c-0.3-0.2-0.6-0.3-0.9-0.5c0.4-0.6,0.9-1.2,1.4-1.8l20.4-4.9
				C404,369.5,404.7,369.8,405.4,370.1z"/>
			<path class="st19" d="M377.8,354.8c-2.4-3-6.7-3.5-9.7-1.1c-3,2.4-3.5,6.7-1.1,9.7c1.7,2.1,4.4,3.1,7,2.4
				c0.6-0.1,1.1-0.3,1.6-0.6L377.8,354.8z"/>
			<path class="st19" d="M405.9,357.9c0.6,0,1.2,0,1.7-0.2c3.7-0.9,6-4.6,5.1-8.3c-0.9-3.7-4.6-6-8.3-5.1c-2.7,0.6-4.7,2.8-5.2,5.5
				L405.9,357.9z"/>
			<path class="st44" d="M405.9,358.1c-1.8-7.4-10-11.8-18.4-9.8s-13.7,9.7-11.9,17.1s10,11.8,18.4,9.8S407.7,365.5,405.9,358.1z"/>
			<path class="st19" d="M391.2,365.1c-0.8,0-1.5-0.6-1.7-1.3l-0.4-1.7c-0.3-0.9,0.3-1.9,1.2-2.1c0.9-0.3,1.9,0.3,2.1,1.2
				c0,0.1,0,0.1,0,0.2l0.4,1.7c0.2,0.9-0.4,1.9-1.3,2.1C391.4,365.1,391.3,365.1,391.2,365.1L391.2,365.1z"/>
			<path class="st19" d="M386.6,359.6c0,1-0.8,1.7-1.7,1.7s-1.7-0.8-1.7-1.7c0-1,0.8-1.7,1.7-1.7S386.6,358.6,386.6,359.6
				C386.6,359.6,386.6,359.6,386.6,359.6z"/>
			<path class="st19" d="M396.7,357.1c0,1-0.8,1.7-1.7,1.7s-1.7-0.8-1.7-1.7c0-1,0.8-1.7,1.7-1.7S396.7,356.2,396.7,357.1
				C396.7,357.1,396.7,357.1,396.7,357.1z"/>
			<path d="M420.2,383L420.2,383c-1,0-1.7-0.8-1.7-1.7c0-1,0.8-1.7,1.7-1.7c1,0,1.7,0.8,1.7,1.7C421.9,382.2,421.1,383,420.2,383
				C420.2,383,420.2,383,420.2,383L420.2,383z"/>
			<path class="st44" d="M439,381.8c-8-2.7-14.1-2.4-18.8-0.5c-1.1,0.4-2.3,1-3.3,1.6c-3.6,2.4-6.6,5.6-8.5,9.5h-5.9
				c-0.5-1.7-0.7-3.4-0.7-5.2c0-5.8,2.6-11.3,7.2-14.9c1-0.8,2-1.4,3.1-2c2.7-1.4,5.7-2.1,8.8-2.1h0.5
				C429.5,368.4,436.7,373.9,439,381.8z"/>
			<path class="st45" d="M439.8,387.3c0,1.3-0.1,2.7-0.4,4l0,0c-0.1,0.4-0.2,0.8-0.3,1.2h-30.7c1.9-3.9,4.9-7.2,8.5-9.5
				c1-0.7,2.1-1.2,3.3-1.6c4.7-1.8,10.9-2.1,18.8,0.5C439.5,383.6,439.8,385.4,439.8,387.3z"/>
			<path class="st19" d="M368.9,392.5h93.4c1.9,0,3.5,1.5,3.5,3.5v27.7c0,9.5-7.7,17.3-17.3,17.3c0,0,0,0,0,0h-65.7
				c-9.5,0-17.3-7.7-17.3-17.3c0,0,0,0,0,0v-27.7C365.4,394,367,392.5,368.9,392.5z"/>
			<path class="st44" d="M462.3,395.9v27.7c0,9.5-7.7,17.3-17.3,17.3h-58.8c-9.5,0-17.3-7.7-17.3-17.3v-27.7c0-1.9,1.6-3.5,3.5-3.5
				h86.5C460.7,392.5,462.3,394,462.3,395.9z"/>
			<path class="st10" d="M462.3,399.4h3.5v6.9h-3.5V399.4z"/>
			<path class="st10" d="M365.4,399.4h3.5v6.9h-3.5V399.4z"/>
			<path class="st10" d="M368.9,399.4h93.4v6.9h-93.4V399.4z"/>
			<path class="st10" d="M416.4,414.9l2.2,4.8c0.1,0.3,0.4,0.4,0.6,0.5l5,0.8c0.5,0.1,0.8,0.5,0.7,1c0,0.2-0.1,0.4-0.2,0.5l-3.7,3.8
				c-0.2,0.2-0.3,0.5-0.2,0.7l0.9,5.3c0.1,0.5-0.2,0.9-0.7,1c-0.2,0-0.4,0-0.6-0.1l-4.4-2.5c-0.3-0.1-0.6-0.1-0.8,0l-4.4,2.5
				c-0.4,0.2-0.9,0.1-1.2-0.3c-0.1-0.2-0.1-0.4-0.1-0.6l0.9-5.3c0-0.3,0-0.5-0.2-0.7l-3.7-3.8c-0.3-0.3-0.3-0.9,0-1.2
				c0.1-0.1,0.3-0.2,0.5-0.2l5-0.8c0.3,0,0.5-0.2,0.6-0.5l2.2-4.8c0.2-0.4,0.7-0.6,1.1-0.4C416.1,414.5,416.3,414.7,416.4,414.9
				L416.4,414.9z"/>
			<path class="st10" d="M388.7,414.9l2.2,4.8c0.1,0.3,0.4,0.4,0.6,0.5l5,0.8c0.5,0.1,0.8,0.5,0.7,1c0,0.2-0.1,0.4-0.2,0.5l-3.7,3.8
				c-0.2,0.2-0.3,0.5-0.2,0.7l0.9,5.3c0.1,0.5-0.2,0.9-0.7,1c-0.2,0-0.4,0-0.6-0.1l-4.4-2.5c-0.3-0.1-0.6-0.1-0.8,0l-4.5,2.4
				c-0.4,0.2-0.9,0.1-1.2-0.3c-0.1-0.2-0.1-0.4-0.1-0.6l0.9-5.3c0-0.3,0-0.5-0.2-0.7l-3.7-3.8c-0.3-0.3-0.3-0.9,0-1.2
				c0.1-0.1,0.3-0.2,0.5-0.2l5-0.8c0.3,0,0.5-0.2,0.6-0.5l2.2-4.8c0.2-0.4,0.7-0.6,1.1-0.4C388.4,414.5,388.6,414.7,388.7,414.9
				L388.7,414.9z"/>
			<path class="st10" d="M444,414.9l2.2,4.8c0.1,0.3,0.4,0.4,0.6,0.5l5,0.8c0.5,0.1,0.8,0.5,0.7,1c0,0.2-0.1,0.4-0.2,0.5l-3.7,3.8
				c-0.2,0.2-0.3,0.5-0.2,0.7l0.9,5.3c0.1,0.5-0.2,0.9-0.7,1c-0.2,0-0.4,0-0.6-0.1l-4.4-2.5c-0.3-0.1-0.6-0.1-0.8,0l-4.4,2.5
				c-0.4,0.2-0.9,0.1-1.2-0.3c-0.1-0.2-0.1-0.4-0.1-0.6l0.9-5.3c0-0.3,0-0.5-0.2-0.7l-3.7-3.8c-0.3-0.3-0.3-0.9,0-1.2
				c0.1-0.1,0.3-0.2,0.5-0.2l5-0.8c0.3,0,0.5-0.2,0.6-0.5l2.2-4.8c0.2-0.4,0.7-0.6,1.2-0.4C443.7,414.6,443.9,414.7,444,414.9
				L444,414.9z"/>
			<path class="st22" d="M334.1,418.4h-22.4v-12.6h20.6c1,0,1.8,0.8,1.8,1.8L334.1,418.4L334.1,418.4z"/>
			<path class="st10" d="M335.5,418.4h-46.3c-1.7,0-3,1.3-3,3v7c0,1.7,1.3,3,3,3h52.3c1.5,0,2.8-1.2,2.8-2.8c0-0.6-0.2-1.2-0.6-1.7
				l-5.4-7.2C337.6,418.9,336.6,418.3,335.5,418.4z"/>
			<path class="st47" d="M290.8,428.4v-7c0-1.7,1.3-3,3-3h-4.6c-1.7,0-3,1.3-3,3v7c0,1.7,1.3,3,3,3h4.6
				C292.1,431.4,290.8,430,290.8,428.4z"/>
			<circle class="st22" cx="300.5" cy="431.4" r="9.1"/>
			<circle class="st19" cx="300.5" cy="431.4" r="4"/>
			<circle class="st22" cx="327.1" cy="431.4" r="9.1"/>
			<circle class="st19" cx="327.1" cy="431.4" r="4"/>
			<rect x="290.8" y="397.8" class="st45" width="20.9" height="20.5"/>
			<rect x="290.8" y="397.8" class="st47" width="20.9" height="3.5"/>
			<path class="st10" d="M313.1,390.3h-23.7c-1.2,0-2.2,1-2.2,2.2v0v3.1c0,1.2,1,2.2,2.2,2.2h0h23.7c1.2,0,2.2-1,2.2-2.2v0v-3.1
				C315.3,391.3,314.3,390.3,313.1,390.3C313.1,390.3,313.1,390.3,313.1,390.3z"/>
			<path class="st47" d="M291.1,395.6v-3.1c0-1.2,1-2.2,2.2-2.2h0h-3.9c-1.2,0-2.2,1-2.2,2.2v0v3.1c0,1.2,1,2.2,2.2,2.2h0h3.9
				C292.1,397.8,291.1,396.8,291.1,395.6z"/>
			<rect x="322.3" y="398.1" class="st45" width="8.5" height="7.6"/>
			<rect x="322.3" y="398.1" class="st47" width="8.5" height="2.6"/>
			<path class="st10" d="M331.6,398.1h-10c-0.8,0-1.4-0.6-1.4-1.4v-2.6c0-0.8,0.6-1.4,1.4-1.4h10c0.8,0,1.4,0.6,1.4,1.4v2.6
				C333,397.4,332.3,398.1,331.6,398.1z"/>
			<path class="st47" d="M322.9,396.7v-2.6c0-0.8,0.6-1.4,1.4-1.4h-2.8c-0.8,0-1.4,0.6-1.4,1.4v2.6c0,0.8,0.6,1.4,1.4,1.4h2.8
				C323.5,398.1,322.9,397.4,322.9,396.7z"/>
			<circle class="st16" cx="301.2" cy="407.4" r="5"/>
			<rect x="311.7" y="405.7" class="st47" width="3.8" height="12.6"/>
		</g>
	</g>
</g>
</svg>
