<svg xmlns="http://www.w3.org/2000/svg" xmlns:xlink="http://www.w3.org/1999/xlink" viewBox="0 0 685.04 485.21"><defs><style>.cls-1{fill:none;}.cls-2{isolation:isolate;}.cls-20,.cls-3{fill:#e3f3fd;}.cls-29,.cls-3,.cls-30,.cls-31,.cls-32,.cls-35,.cls-45,.cls-46,.cls-47,.cls-48,.cls-55,.cls-69,.cls-70{fill-rule:evenodd;}.cls-4{fill:#c3e5f3;}.cls-5{fill:#252626;}.cls-6{fill:#0c0e0e;}.cls-11,.cls-26,.cls-43,.cls-7{fill:#fff;}.cls-8{fill:#0076bd;}.cls-9{fill:#05304b;}.cls-10{fill:#15546d;}.cls-11{opacity:0.8;}.cls-12{fill:#026a9e;}.cls-13{fill:#f4f4f4;}.cls-14,.cls-18{fill:#d3e5f4;}.cls-15{fill:#f47458;}.cls-16{fill:#466eb6;}.cls-17,.cls-28{fill:#50bfa5;}.cls-18,.cls-22,.cls-28,.cls-36,.cls-56,.cls-57,.cls-59,.cls-61,.cls-64,.cls-65{mix-blend-mode:multiply;}.cls-19{fill:#118ecc;}.cls-21{fill:#0b405b;}.cls-22{fill:#daeef7;}.cls-23{fill:#13375b;}.cls-24{fill:#0e2e35;}.cls-25{fill:#c5ddf9;opacity:0.6;}.cls-26{mix-blend-mode:soft-light;}.cls-27{fill:#184655;}.cls-28{opacity:0.5;}.cls-29{fill:#00000f;}.cls-30{fill:#030822;}.cls-31{fill:#0b1329;}.cls-32{fill:#01051d;}.cls-33{fill:#ffa898;}.cls-34{fill:#db5b4d;}.cls-35,.cls-36,.cls-39{fill:#df7668;}.cls-36,.cls-56,.cls-57,.cls-58{opacity:0.4;}.cls-37{fill:#200903;}.cls-38{fill:#f9c7c0;}.cls-40,.cls-47{fill:#212741;}.cls-41{clip-path:url(#clip-path);}.cls-42{fill:#231f20;opacity:0.21;}.cls-43{opacity:0.66;}.cls-44{clip-path:url(#clip-path-2);}.cls-45{fill:#141a33;}.cls-46{fill:#272c45;}.cls-48{fill:#2c3049;}.cls-49{fill:#99d7e0;opacity:0.43;}.cls-49,.cls-58,.cls-62,.cls-63{mix-blend-mode:screen;}.cls-50{fill:#dceeef;opacity:0.68;}.cls-51{fill:#8e3a2d;}.cls-52{fill:#d88460;}.cls-53{fill:#2a0404;}.cls-54,.cls-55{fill:#a55641;}.cls-56{fill:url(#radial-gradient);}.cls-57{fill:url(#radial-gradient-2);}.cls-58{fill:url(#radial-gradient-3);}.cls-59,.cls-63{fill:#e98c4d;}.cls-59{opacity:0.42;}.cls-60,.cls-70{fill:#0e1632;}.cls-61{fill:#320033;opacity:0.2;}.cls-62{fill:#ca6633;}.cls-62,.cls-63,.cls-65{opacity:0.45;}.cls-64{fill:#da774e;}.cls-65{fill:#6c293e;}.cls-66{fill:#3f3632;}.cls-67{clip-path:url(#clip-path-3);}.cls-68{fill:#f28b60;}.cls-69{fill:#01020e;}</style><clipPath id="clip-path"><path class="cls-1" d="M198.06,290.42c-.4,1.16,1.34,3.69,2,4.43,5.52,6.12,18.5-1.79,15.38-9.66a9.67,9.67,0,0,0-7.18-.57c-4.41,1.14-7.63.78-8.61,2.48A28,28,0,0,0,198.06,290.42Z"/></clipPath><clipPath id="clip-path-2"><path class="cls-1" d="M180.53,290.42c.4,1.16-1.34,3.69-2,4.43-5.52,6.12-18.5-1.79-15.38-9.66a9.67,9.67,0,0,1,7.18-.57c4.41,1.14,7.63.78,8.61,2.48A28,28,0,0,1,180.53,290.42Z"/></clipPath><radialGradient id="radial-gradient" cx="343" cy="202.2" r="5.36" gradientTransform="matrix(0.97, 0.07, -0.07, 1, 83.06, -27.87)" gradientUnits="userSpaceOnUse"><stop offset="0" stop-color="#e98c4d"/><stop offset="0.84" stop-color="#e98c4d" stop-opacity="0"/></radialGradient><radialGradient id="radial-gradient-2" cx="127.88" cy="275.62" r="5.36" gradientTransform="matrix(0.92, -0.33, 0.31, 0.94, 230.08, -20.61)" xlink:href="#radial-gradient"/><radialGradient id="radial-gradient-3" cx="323.07" cy="198.23" r="7.14" gradientTransform="matrix(0.97, -0.02, 0.01, 1, 102.86, -14.95)" xlink:href="#radial-gradient"/><clipPath id="clip-path-3"><path class="cls-1" d="M412.16,207.1c.39,1.51,2.24,1,3.4.95s2.25-.09,3.38-.08,2.13.14,3.19.14c.69,0,1.53.23,2.07-.34,1.13-1.2-.4-3.26-1.38-4a7.75,7.75,0,0,0-4.46-1.42,7.3,7.3,0,0,0-4.07,1.13c-1.08.69-2.43,2.09-2.15,3.52Z"/></clipPath></defs><title>ENFJ</title><g class="cls-2"><g id="Layer_2" data-name="Layer 2"><g id="OBJECTS"><rect class="cls-1" width="685.04" height="485.21"/><path class="cls-3" d="M141.87,441.72a70.41,70.41,0,0,1-70.2-70.2h0a70.4,70.4,0,0,1,70.2-70.2h0a29.77,29.77,0,0,0,29.68-29.68h0A29.77,29.77,0,0,0,141.87,242h-3.53a31,31,0,0,1-30.86-30.86h0a31,31,0,0,1,30.86-30.86h10.84a12,12,0,0,0,12-12h0a12,12,0,0,0-12-12h-8a8.32,8.32,0,0,1-8.29-8.29h0a8.32,8.32,0,0,1,8.29-8.29h53.53a13.07,13.07,0,0,0,13-13h0a13.07,13.07,0,0,0-13-13h-16a8.32,8.32,0,0,1-8.29-8.29h0A8.32,8.32,0,0,1,178.74,97H413.15A10.85,10.85,0,0,1,424,107.81h0a10.85,10.85,0,0,1-10.82,10.82H396.73a17.05,17.05,0,0,0-17,17h0a17.05,17.05,0,0,0,17,17h63.5a10.85,10.85,0,0,1,10.82,10.82h0a10.85,10.85,0,0,1-10.82,10.82H449.84a15.72,15.72,0,0,0-15.68,15.68h0a15.72,15.72,0,0,0,15.68,15.68H464a40.38,40.38,0,0,1,40.27,40.27h0A40.39,40.39,0,0,1,464,286.16h-4.61a38.84,38.84,0,0,0-38.73,38.73h0a38.84,38.84,0,0,0,38.73,38.73h10a39.17,39.17,0,0,1,39.05,39.05h0a39.17,39.17,0,0,1-39.05,39.05Zm299-323.1A10.82,10.82,0,1,0,430,107.81a10.82,10.82,0,0,0,10.82,10.82ZM117.94,156.21a8.29,8.29,0,1,0-8.29-8.29A8.29,8.29,0,0,0,117.94,156.21Z"/><path class="cls-4" d="M552,267.44l-.78,174.11,107.38.48Zm53.38,107-44.28-.2.33-74ZM561.07,380l47.76.21L639,431.13l-78.12-.35Z"/><path class="cls-5" d="M141.92,115.77h393a17.44,17.44,0,0,1,17.44,17.44V368.39c0,6.76-4.47,12.23-10,12.23H373.72v48.27h99.93a13.52,13.52,0,0,1,13.51,13.51H191.84a13.52,13.52,0,0,1,13.51-13.51h99.93V380.63H134.46c-5.51,0-10-5.48-10-12.23V133.21A17.44,17.44,0,0,1,141.92,115.77Z"/><path class="cls-6" d="M196,428.89H296V371.82h68.43v57.07h99.93a13.52,13.52,0,0,1,13.51,13.51H182.53A13.52,13.52,0,0,1,196,428.89Z"/><path class="cls-6" d="M115.17,335.91V133.21a17.44,17.44,0,0,1,17.44-17.44h393a17.44,17.44,0,0,1,17.44,17.44v202.7Z"/><path class="cls-6" d="M543.06,335.91v32.48c0,6.76-4.47,12.23-10,12.23H125.14c-5.51,0-10-5.48-10-12.23V335.91Z"/><path class="cls-7" d="M125.19,327.11V133.75a9.35,9.35,0,0,1,9.51-9.18H523.54a9.35,9.35,0,0,1,9.51,9.18V327.11Z"/><path class="cls-8" d="M446.92,54.32H560.29a7.1,7.1,0,0,1,7.09,7.11v80.84a7.1,7.1,0,0,1-7.09,7.11H471c-3.61,5.06-10.16,14.11-10.74,14.11s.5-8.55,1.24-14.11H446.92a7.1,7.1,0,0,1-7.09-7.11V61.43A7.1,7.1,0,0,1,446.92,54.32Z"/><polygon class="cls-9" points="479.71 115.54 478.24 114.98 490.43 82.85 526.63 94.38 544.22 68.52 545.52 69.41 527.27 96.23 491.37 84.8 479.71 115.54"/><circle class="cls-10" cx="475.32" cy="120.26" r="13.93" transform="translate(-14.35 145.1) rotate(-17.1)"/><circle class="cls-10" cx="527.32" cy="96.49" r="9" transform="translate(-5.06 159.34) rotate(-17.1)"/><circle class="cls-10" cx="544.87" cy="68.96" r="3.1" transform="translate(3.81 163.29) rotate(-17.1)"/><circle class="cls-10" cx="490.9" cy="83.82" r="7.45" transform="translate(-2.94 148.07) rotate(-17.1)"/><rect class="cls-11" x="498.76" y="113.98" width="58.76" height="2.83"/><rect class="cls-11" x="498.76" y="121.96" width="42.55" height="2.83"/><rect class="cls-11" x="448.27" y="64.56" width="42.55" height="2.83"/><rect class="cls-11" x="448.27" y="72.49" width="30.98" height="2.83"/><rect class="cls-11" x="498.76" y="129.94" width="58.76" height="2.83"/><path class="cls-8" d="M386.95,97.44H300.66a5.41,5.41,0,0,0-5.4,5.42v61.54a5.41,5.41,0,0,0,5.4,5.42h67.94c2.75,3.85,7.73,10.74,8.17,10.74s-.38-6.51-.94-10.74h11.12a5.41,5.41,0,0,0,5.4-5.42V102.86A5.41,5.41,0,0,0,386.95,97.44Z"/><path class="cls-11" d="M366.54,125.64a40.06,40.06,0,0,0-3.94-1.27,40.11,40.11,0,0,0,.87-4c1-6-.06-10.24-2.85-11.84s-6.94-.38-11.68,3.45a40.1,40.1,0,0,0-3.07,2.77,40.1,40.1,0,0,0-3.07-2.77c-4.75-3.84-8.89-5.06-11.68-3.45s-3.8,5.82-2.85,11.84a40.18,40.18,0,0,0,.87,4,40.09,40.09,0,0,0-3.94,1.27c-5.7,2.19-8.83,5.17-8.83,8.39s3.14,6.2,8.83,8.39a40.13,40.13,0,0,0,3.94,1.27,40.18,40.18,0,0,0-.87,4c-1,6,.06,10.23,2.85,11.84a5.35,5.35,0,0,0,2.72.69c2.5,0,5.58-1.41,9-4.14a40.1,40.1,0,0,0,3.07-2.77,40.1,40.1,0,0,0,3.07,2.77c3.38,2.74,6.46,4.14,9,4.14a5.35,5.35,0,0,0,2.72-.69c2.79-1.61,3.8-5.82,2.85-11.84a40.11,40.11,0,0,0-.87-4,40.09,40.09,0,0,0,3.94-1.27c5.7-2.19,8.83-5.17,8.83-8.39S372.24,127.83,366.54,125.64Zm-16.9-12.84c3.16-2.55,6-3.89,8.28-3.89a4.25,4.25,0,0,1,2.15.53c2.33,1.34,3.17,5.25,2.31,10.71a39.13,39.13,0,0,1-.85,3.94,60.78,60.78,0,0,0-9.08-1.46,60.8,60.8,0,0,0-5.81-7.13A39,39,0,0,1,349.64,112.8Zm5.4,26.52c-1,1.76-2.08,3.45-3.19,5.05-1.94.16-3.94.24-6,.24s-4-.08-6-.24c-1.11-1.6-2.18-3.29-3.19-5.05s-1.94-3.53-2.78-5.29c.83-1.76,1.76-3.53,2.78-5.29s2.09-3.45,3.19-5.05c1.94-.16,3.94-.24,6-.24s4,.08,6,.24c1.11,1.6,2.18,3.29,3.19,5.05s1.94,3.53,2.78,5.29C357,135.79,356.06,137.56,355,139.32Zm3.38-4a58.63,58.63,0,0,1,2.82,7.57,58.64,58.64,0,0,1-8,1.34q1.41-2.1,2.72-4.37C356.87,138.37,357.68,136.85,358.42,135.33ZM351,145.55a58.66,58.66,0,0,1-5.14,6.23,58.66,58.66,0,0,1-5.14-6.23c1.68.11,3.4.17,5.14.17S349.34,145.66,351,145.55Zm-12.54-1.3a58.66,58.66,0,0,1-8-1.34,58.62,58.62,0,0,1,2.82-7.57c.74,1.51,1.55,3,2.42,4.54S337.54,142.84,338.48,144.24Zm-5.14-11.51a58.61,58.61,0,0,1-2.82-7.57,58.64,58.64,0,0,1,8-1.34q-1.41,2.1-2.72,4.37C334.88,129.7,334.08,131.22,333.34,132.73Zm7.4-10.21a58.67,58.67,0,0,1,5.14-6.23,58.64,58.64,0,0,1,5.14,6.23c-1.68-.11-3.4-.17-5.14-.17S342.42,122.4,340.74,122.52ZM356,128.19q-1.31-2.26-2.72-4.37a58.64,58.64,0,0,1,8,1.34,58.63,58.63,0,0,1-2.82,7.57C357.68,131.22,356.87,129.7,356,128.19Zm-26.63-8c-.86-5.46,0-9.37,2.31-10.71a4.24,4.24,0,0,1,2.15-.53c2.23,0,5.12,1.34,8.28,3.89a39.09,39.09,0,0,1,3,2.7,60.8,60.8,0,0,0-5.81,7.13,60.8,60.8,0,0,0-9.07,1.46A39.09,39.09,0,0,1,329.37,120.16Zm-3.76,21.23c-5.16-2-8.12-4.67-8.12-7.36s3-5.37,8.12-7.36a39,39,0,0,1,3.83-1.24,60.75,60.75,0,0,0,3.27,8.59,60.75,60.75,0,0,0-3.27,8.6A39.06,39.06,0,0,1,325.61,141.39Zm16.5,13.88c-4.3,3.48-8.1,4.7-10.43,3.36s-3.17-5.25-2.31-10.71a39.1,39.1,0,0,1,.85-3.94,60.79,60.79,0,0,0,9.07,1.46,60.76,60.76,0,0,0,5.81,7.13A39.06,39.06,0,0,1,342.11,155.26Zm20.27-7.36c.86,5.46,0,9.37-2.31,10.71s-6.13.12-10.43-3.36a39,39,0,0,1-3-2.7,60.77,60.77,0,0,0,5.81-7.13,60.8,60.8,0,0,0,9.08-1.46A39.12,39.12,0,0,1,362.38,147.91Zm3.76-6.52a39.06,39.06,0,0,1-3.83,1.24A60.76,60.76,0,0,0,359,134a60.76,60.76,0,0,0,3.27-8.59,39.06,39.06,0,0,1,3.83,1.24c5.16,2,8.12,4.67,8.12,7.36S371.31,139.4,366.15,141.39Z"/><circle class="cls-10" cx="345.88" cy="134.03" r="5.24"/><circle class="cls-9" cx="324.8" cy="126.73" r="2.86"/><rect class="cls-11" x="300.61" y="102.82" width="35.54" height="1.83"/><rect class="cls-11" x="300.61" y="107.99" width="23.84" height="1.83"/><rect class="cls-11" x="300.61" y="113.17" width="14.61" height="1.83"/><rect class="cls-11" x="301.89" y="154.84" width="23.84" height="1.83"/><rect class="cls-11" x="301.89" y="160.02" width="14.61" height="1.83"/><path class="cls-8" d="M282.94,22.92c-17.75,8.8-16.68,36.11,1.71,42.94a14.63,14.63,0,0,1,7.73,7l5.87,11.09a6.16,6.16,0,0,0,8.24,2.75l6.72-3.33a7,7,0,0,0,3.37-8.5c-4.14-12-6.49-16.13-4.1-22.77C319.49,32.65,300.69,14.12,282.94,22.92Z"/><path class="cls-7" d="M309.16,68.37l-2.31,1c-.14-.38-4.31-11-8.58-23.76a30.38,30.38,0,0,1-7.92,5.09c4.48,9.91,9.78,23.74,9.8,23.78l-2.31,1S292.49,61.58,288,51.64c-4.66,1.47-6.72-.49-7.4-1.43a4.7,4.7,0,0,1-.13-5.34c1.67-2.36,5.81-1.95,8.75,3.47a28,28,0,0,0,8.18-5.43c-.72-2.16-1.49-4.2-1.2-6.22a4.27,4.27,0,0,1,3.76-3.92c2.79-.09,5.64,3.9,2.28,8.65a20.51,20.51,0,0,1-1.92,2.26C304.81,57.36,308.87,67.58,309.16,68.37Zm-9.82-27.51c3-3.47,1.65-5.28.82-5.42C298.2,36.74,298.36,37.88,299.34,40.85Zm-17.08,7c.4,1.93,2.71,1.87,4.51,1.36C284.55,45.42,281.75,45.4,282.27,47.88Z"/><path class="cls-9" d="M292.21,72.57l.16.27,5.87,11.09a6.16,6.16,0,0,0,8.24,2.75l6.72-3.33a7,7,0,0,0,3.37-8.5c-1.84-5.35-3.33-9.13-4.2-12.27Z"/><path class="cls-8" d="M324.57,16.49l-5.51,5c-1.44,1.3-3.33,3.67-5.41,3.66a1,1,0,0,1-1-1c.23-2.15,2.61-3.67,4.12-5l5.54-5c1.58-1.41,3.89.94,2.3,2.37Z"/><path class="cls-8" d="M303.95,2c-3.32,13.2-3.08,12.88-4,13.89a1.41,1.41,0,0,1-2.34-.65c-.3-1.25-.25-.9,3.2-14.08a1.63,1.63,0,0,1,3.14.84Z"/><path class="cls-8" d="M276.18,17,272,10.83C270.75,9,268.91,7,268.65,4.75c-.11-1,1.14-1.49,1.88-1.08,2,1.07,3.14,3.75,4.34,5.55L279,15.46c1.17,1.75-1.68,3.33-2.85,1.59Z"/><path class="cls-8" d="M262.7,51A107.7,107.7,0,0,1,252,54.88c-2,.55-2.64-2.34-.78-3,3.57-1.28,7.16-2.47,10.7-3.86,1.85-.73,2.59,2.26.78,3Z"/><path class="cls-8" d="M263.08,33.55c-2.26-.27-4.52-.61-6.77-1-2.05-.33-4.73-.32-6.38-1.64-.88-.7-.24-2,.65-2.32,1.11-.35,1.44-.08,6.32.73,2.2.36,4.41.68,6.6,1.07,1.76.31,1.38,3.35-.42,3.14Z"/><path class="cls-9" d="M269.36,236.23l14.36-34.3L260.6,171.19l-37.19,4.32-14.63,34.38L172,214.17,157,249.57l22.73,30.21,36.9-4.51,22.27,29.6,38.19-4.66,14.46-34.54Zm-45-59.47L260,172.62l22.2,29.5L268.42,235l0,0-37.05,4.31-21.45-28.52Zm-65.83,72.62,14.45-34,35.65-4.14,22,29.29-14.2,33.37-36.15,4.41ZM276.12,299l-36.64,4.47L218,274.88,232.17,241l35.8-4.37,22,29.25Z"/><circle class="cls-8" cx="260.54" cy="172.62" r="4.51"/><circle class="cls-8" cx="172.73" cy="215.34" r="4.51"/><circle class="cls-8" cx="282.18" cy="202.44" r="4.51"/><circle class="cls-8" cx="289.98" cy="265.54" r="4.51"/><circle class="cls-8" cx="239.23" cy="303.44" r="4.51"/><circle class="cls-8" cx="231.33" cy="239.93" r="4.51"/><circle class="cls-12" cx="272.57" cy="187.99" r="2.77"/><circle class="cls-12" cx="209.29" cy="210.84" r="2.77"/><circle class="cls-12" cx="268.38" cy="236.3" r="2.61"/><circle class="cls-12" cx="156.96" cy="249.46" r="3.8"/><path class="cls-8" d="M256.81,161.06v-17h1.85v7.27h8.55v-7.27h1.86v17h-1.86V153h-8.55v8.1Z"/><path class="cls-8" d="M298.94,274.28v-17h1.85v7.27h8.55v-7.27h1.86v17h-1.86v-8.1h-8.55v8.1Z"/><path class="cls-8" d="M271.63,167.48V166.3a8.81,8.81,0,0,1,1.1-1.82,12.66,12.66,0,0,1,1.69-1.76q.45-.4,1.45-1.12a11.16,11.16,0,0,0,1.39-1.13,5.14,5.14,0,0,0,.89-1.21,2.58,2.58,0,0,0,.28-1.16,2.31,2.31,0,0,0-.64-1.73,2.42,2.42,0,0,0-1.77-.63,2.76,2.76,0,0,0-1.93.7,3.62,3.62,0,0,0-1,2l-1.22-.26a4.58,4.58,0,0,1,1.45-2.65,4.18,4.18,0,0,1,2.78-.9,3.89,3.89,0,0,1,2.73.92,3.21,3.21,0,0,1,1,2.49,4.22,4.22,0,0,1-.16,1.21,3.34,3.34,0,0,1-.5,1,12.88,12.88,0,0,1-2.7,2.44l-.68.5A12.78,12.78,0,0,0,274,164.8a5.7,5.7,0,0,0-1,1.52h6.84v1.17Z"/><path class="cls-9" d="M390.41,34.47l-9.73-3.91-28,33.19a5.5,5.5,0,0,0,2.06,8.65h0a5.38,5.38,0,0,0,6.15-1.59l6.52-7.86L377.62,67,377,77.34a5.43,5.43,0,0,0,3.36,5.37l.19.07A5.46,5.46,0,0,0,388,77.94Zm-16.6,20.37,5.14-6.1-.45,8Z"/><rect class="cls-13" x="209.83" y="406.07" width="101.81" height="35.66" transform="translate(521.46 847.8) rotate(180)"/><rect class="cls-14" x="209.83" y="412.6" width="101.81" height="0.6" transform="translate(521.46 825.8) rotate(180)"/><rect class="cls-14" x="209.83" y="418.48" width="101.81" height="0.6" transform="translate(521.46 837.56) rotate(180)"/><rect class="cls-14" x="209.83" y="424.36" width="101.81" height="0.6" transform="translate(521.46 849.33) rotate(180)"/><rect class="cls-14" x="209.83" y="430.25" width="101.81" height="0.6" transform="translate(521.46 861.09) rotate(180)"/><path class="cls-14" d="M261.45,419.08s-47.9,4.11-53.91,9.27c0,0,.3-6.12,2.28-9.87l15,.57Z"/><polygon class="cls-15" points="287.07 419.08 281.85 427.36 276 419.08 287.07 419.08"/><polygon class="cls-16" points="262.7 424.96 257.47 433.24 251.63 424.96 262.7 424.96"/><rect class="cls-14" x="209.83" y="436.1" width="101.81" height="0.6" transform="translate(521.46 872.8) rotate(180)"/><polygon class="cls-17" points="235.64 430.87 230.41 439.14 224.56 430.87 235.64 430.87"/><polygon class="cls-18" points="287.4 406.07 287.4 423.76 287.4 424.04 287.4 441.73 311.63 441.73 311.63 424.04 311.63 423.76 311.63 406.07 287.4 406.07"/><path class="cls-8" d="M449.23,407.74h-5.66a5.52,5.52,0,0,1,3.34-1.12H588.6A13.29,13.29,0,0,1,602,419.78v8.36A13.29,13.29,0,0,1,588.6,441.3l-140.1,0Z"/><path class="cls-19" d="M529.67,406.66a12.71,12.71,0,0,1,12.84,12.58v9.45a12.71,12.71,0,0,1-12.84,12.58h-88.2v-2.11h.36l22.42-2.08,4.53-17.43s-8.75-9.63-9.32-9.88-17.64-1-17.64-1h-.36v-2.1Z"/><path class="cls-13" d="M447.19,423.9c0-10.19-5.37-15.13-5.37-15.13h86a11.68,11.68,0,0,1,11.79,11.56v7.27a11.68,11.68,0,0,1-11.79,11.56h-86S447.19,436.73,447.19,423.9Z"/><path class="cls-20" d="M539.65,420.33v7.27a11.38,11.38,0,0,1-.34,2.77c-2.9-7-8.46-13.67-19.05-15.82-24.72-5-78.44-5.78-78.44-5.78h86A11.68,11.68,0,0,1,539.65,420.33Z"/><path class="cls-21" d="M608,380h5.66a6.51,6.51,0,0,0-3.34-.89H468.55c-7.42,0-13.43,4.67-13.43,10.44v6.63c0,5.77,6,10.44,13.43,10.44l140.15,0Z"/><path class="cls-9" d="M527.51,379.17c-7.09,0-12.84,4.47-12.84,10v7.49c0,5.51,5.75,10,12.84,10h88.24V405h-.36l-22.43-1.65-4.53-13.83s8.75-7.64,9.32-7.84,17.64-.8,17.64-.8h.36v-1.67Z"/><path class="cls-13" d="M610,392.85a15.24,15.24,0,0,1,5.37-12H529.31c-6.51,0-11.79,4.11-11.79,9.17v5.77c0,5.07,5.28,9.17,11.79,9.17H615.4S610,403,610,392.85Z"/><path class="cls-22" d="M517.52,390v5.77a7.27,7.27,0,0,0,.34,2.2c2.9-5.52,8.47-10.84,19.06-12.55,24.73-4,78.47-4.59,78.47-4.59H529.31C522.8,380.85,517.52,385,517.52,390Z"/><polygon class="cls-8" points="597.42 392.71 591.97 401.35 585.87 392.71 597.42 392.71"/><path class="cls-22" d="M517.6,392.71H610V392c0-.1-92.51,0-92.51,0Z"/><polygon class="cls-9" points="459.84 424.7 465.29 433.33 471.39 424.7 459.84 424.7"/><path class="cls-22" d="M539.66,424.7H447.23V424c0-.1,92.51,0,92.51,0Z"/><path class="cls-19" d="M471.75,352.66h-4.47a4.36,4.36,0,0,1,2.64-.88H581.86a10.5,10.5,0,0,1,10.6,10.4v6.6a10.5,10.5,0,0,1-10.6,10.4l-110.68,0Z"/><path class="cls-8" d="M535.3,351.8a10,10,0,0,1,10.14,9.94v7.46a10,10,0,0,1-10.14,9.94H465.62v-1.67h.29l17.71-1.64,3.58-13.77s-6.91-7.61-7.36-7.81-13.93-.79-13.93-.79h-.29V351.8Z"/><path class="cls-13" d="M470.14,365.42c0-8.05-4.24-12-4.24-12h68a9.22,9.22,0,0,1,9.31,9.13v5.74a9.22,9.22,0,0,1-9.31,9.13h-68S470.14,375.56,470.14,365.42Z"/><path class="cls-20" d="M543.19,362.6v5.74a9,9,0,0,1-.27,2.19A19.92,19.92,0,0,0,527.86,358c-19.53-4-62-4.57-62-4.57h68A9.22,9.22,0,0,1,543.19,362.6Z"/><polygon class="cls-23" points="518.16 364.86 522.96 373.39 527.28 364.86 518.16 364.86"/><path class="cls-22" d="M543.19,364.86H470.1v-.69c0-.1,73.08,0,73.08,0Z"/><path class="cls-24" d="M572.87,211.91q1.81-1.28,3.43-2.69l15.51,21.87c1,1.34.14,3.56-1.82,5s-4.32,1.43-5.28.08l-15.51-21.87Q571.05,213.19,572.87,211.91Z"/><ellipse class="cls-25" cx="544.41" cy="171.77" rx="48.38" ry="48.68" transform="translate(0.96 346.57) rotate(-35.34)"/><path class="cls-26" d="M572.71,211a48.34,48.34,0,0,1-33,9.3L497.65,158.4l.08-.29a48.67,48.67,0,0,1,20.5-27.31Z"/><path class="cls-26" d="M552.72,123.9l38.89,57.24c-.29,1.46-.65,2.93-1.08,4.39a48.77,48.77,0,0,1-9.4,17.55l-52.52-77.3A47.94,47.94,0,0,1,552.72,123.9Z"/><path class="cls-27" d="M499.79,203.41a54.7,54.7,0,1,0,12.78-76.53A54.87,54.87,0,0,0,499.79,203.41Zm5.15-3.65a48.38,48.38,0,1,1,67.62,11.72A48.53,48.53,0,0,1,504.94,199.76Z"/><path class="cls-28" d="M502.5,201.49a51.38,51.38,0,1,0,12-71.89A51.54,51.54,0,0,0,502.5,201.49Zm2.44-1.73a48.38,48.38,0,1,1,67.62,11.72A48.53,48.53,0,0,1,504.94,199.76Z"/><path class="cls-27" d="M638.44,307.43l3.49-2.51a7.77,7.77,0,0,0,1.77-10.85l-44.85-62.76A7.77,7.77,0,0,0,588,229.54L584.52,232a7.77,7.77,0,0,0-1.77,10.85l44.85,62.76A7.77,7.77,0,0,0,638.44,307.43Z"/><path class="cls-8" d="M102,220.62H20.47a6.53,6.53,0,0,0-6.53,6.53v43.09a6.53,6.53,0,0,0,6.53,6.53h59.3c3.33,4.64,9.36,13,9.89,13s-.46-7.85-1.14-13H102a6.53,6.53,0,0,0,6.53-6.53V227.15A6.53,6.53,0,0,0,102,220.62Z"/><rect class="cls-11" x="21.42" y="233.4" width="82.51" height="4.41"/><rect class="cls-11" x="32.44" y="245.62" width="60.46" height="4.41"/><rect class="cls-11" x="28.15" y="257.92" width="69.05" height="4.41"/><path class="cls-29" d="M659.91,461.61H636.33a6.6,6.6,0,0,0-6.58,6.58h0a6.6,6.6,0,0,0,6.58,6.58h9.87a5.24,5.24,0,0,1,5.22,5.22h0a5.24,5.24,0,0,1-5.22,5.22h-518a5.24,5.24,0,0,1-5.22-5.22h0a5.24,5.24,0,0,1,5.22-5.22h9.42a6.6,6.6,0,0,0,6.58-6.58h0a6.6,6.6,0,0,0-6.58-6.58H116a10.48,10.48,0,0,1-10.45-10.44h0A10.48,10.48,0,0,1,116,440.72h543.9a10.48,10.48,0,0,1,10.44,10.45h0a10.48,10.48,0,0,1-10.44,10.44Zm.4,23.6a5.22,5.22,0,1,0-5.22-5.22A5.22,5.22,0,0,0,660.31,485.21Z"/><path class="cls-30" d="M223,320.63a.74.74,0,1,1,.85,1.21,23.86,23.86,0,0,0-10.21,16.66c-1,7.3,1,15.21,5,22.12a.74.74,0,1,1-1.28.74c-4.15-7.17-6.23-15.43-5.19-23.06A25.28,25.28,0,0,1,223,320.63Z"/><path class="cls-31" d="M223.79,275.75A46.07,46.07,0,0,0,232,287c5.27,5.21,8.55,25.19-8,35s-18.55,27.08-6.12,38.58-79.7-13.69-79.7-13.69l10.63-46.08,41.92-15.05S223.39,274.68,223.79,275.75Z"/><path class="cls-32" d="M225.82,279.29A45.19,45.19,0,0,0,232,287c5.27,5.21,8.55,25.19-8,35s-18.55,27.08-6.12,38.58-79.7-13.69-79.7-13.69l10.63-46.08,41.92-15.05s15-5.12,24.86-8.08A19.3,19.3,0,0,0,225.82,279.29Z"/><path class="cls-29" d="M205.9,362.71c-6.44-1-14.63-2.66-23.08-4.57-7.85-4.18-14.59-8.61-14.34-9.47.69-2.35-29.52-5.42-28.64-9.24s15.54-30.9,15.54-30.9l44.4-12.26,21,2.79s6.68,7.25-1.66,16.52-31,21.27-15.8,42.63A19,19,0,0,1,205.9,362.71Z"/><path class="cls-31" d="M220.2,283.06c-4.1-1.6-5.91,3.24-5.91,3.24l-.27,4.81c-1.63-.09-3.46-2.57-3.34-4.69s.25-4.4.25-4.4a45.82,45.82,0,0,1-5.27-11.12s7.13,7.7,16.3,8.49c-.87,1.75-1.72,3.5-1.76,3.67Zm-68-7.31c-.73.95-1.51,1.88-2.36,2.79,0,0-.13,2.28-.25,4.4s-2.22,4.37-3.85,4.28l.27-4.81S139.3,293.2,134.92,293c0,0-11.77-19.33-13.08-30.85a10.11,10.11,0,0,1,.69-4.3C122.52,258.26,122.38,270.64,152.19,275.76Z"/><path class="cls-32" d="M220.2,283.06c-4.1-1.6-5.91,3.24-5.91,3.24l-.27,4.81c-1.63-.09-3.46-2.57-3.34-4.69s.25-4.4.25-4.4a45.82,45.82,0,0,1-5.27-11.12s7.13,7.7,16.3,8.49c-.87,1.75-1.72,3.5-1.76,3.67Zm-68-7.31c-.73.95-1.51,1.88-2.36,2.79,0,0-.13,2.28-.25,4.4s-2.22,4.37-3.85,4.28l.27-4.81S139.3,293.2,134.92,293c0,0-11.77-19.33-13.08-30.85a10.11,10.11,0,0,1,.69-4.3C122.52,258.26,122.38,270.64,152.19,275.76Z"/><g id="_Group_" data-name="&lt;Group&gt;"><g id="_Group_2" data-name="&lt;Group&gt;"><g id="_Group_3" data-name="&lt;Group&gt;"><g id="_Group_4" data-name="&lt;Group&gt;"><path id="_Path_" data-name="&lt;Path&gt;" class="cls-33" d="M205.6,382.71c-.21,5.93-.49,12.13-.77,18.09-.1,2-.19,4-.3,5.95-.81,16.13-1.64,29.3-1.64,29.3l-31.26-.72,4.6-27.57.38-2.26,3.29-19.65,9.6-57.39s15.7,6.48,16.49,25.92C206.26,360.58,206,371.17,205.6,382.71Z"/><path id="_Path_2" data-name="&lt;Path&gt;" class="cls-12" d="M207.45,399.89c-9.77,3.48-23.79,5.36-30.83,5.59l12.89-77s15.7,6.48,16.49,25.92C206.39,363.78,208.29,382.34,207.45,399.89Z"/></g><g id="_Group_5" data-name="&lt;Group&gt;"><g id="_Group_6" data-name="&lt;Group&gt;"><path id="_Path_3" data-name="&lt;Path&gt;" class="cls-34" d="M182.1,325c.09,15.27-12.19,28.11-22.54,29.34-9.46,1.14-24.9-22.71-30.44-31.81a124,124,0,0,1,13.19-4.4s3-7.92,5.24-14.37c.65-1.81,1.24-3.53,1.7-4.9a23.53,23.53,0,0,0,.93-3.19l30.69,9.6-.21.86L177.48,319l-1.06,4.31A50.26,50.26,0,0,1,182.1,325Z"/></g><g id="_Group_7" data-name="&lt;Group&gt;"><g id="_Group_8" data-name="&lt;Group&gt;"><ellipse id="_Path_4" data-name="&lt;Path&gt;" class="cls-34" cx="213.97" cy="284.4" rx="13.26" ry="9.24" transform="translate(-60.43 57.75) rotate(-13.49)"/><g id="_Group_9" data-name="&lt;Group&gt;"><path id="_Path_5" data-name="&lt;Path&gt;" class="cls-33" d="M216.53,274.66c-2.27,33.29-14.9,49-36.65,47.56s-39-23.42-37.49-50.33c2.22-40.2,22.26-48.52,44-47.06S218.36,247.76,216.53,274.66Z"/></g><ellipse id="_Path_6" data-name="&lt;Path&gt;" class="cls-34" cx="139.05" cy="281.46" rx="9.24" ry="13.26" transform="translate(-171.09 330.18) rotate(-72.64)"/><path class="cls-35" d="M154.68,234.61c-6.35,5.31-11.69,23.28-11.92,31.64,0,0,2.46-.64.16,15.12-3.09,21.11,16.23,34.9,29.75,39.38-7-4.26-11.25-13.47-13.43-20.83-3.51-11.83,3-18.17,5.92-25.18s6.89-9.66,10.3-9.83c6.15-.3,12.83.91,21.43-.31,3.68-.52,2.72,3.86,6.12,6.74,4.54,3.85,13,9.6,13,9.6,2.06-12.82-9-42.14-12.67-46.09-7.95-.32-27.2-1.24-35.79-2.79C163.89,231.42,159.41,232.55,154.68,234.61Z"/></g></g></g><g id="_Group_10" data-name="&lt;Group&gt;"><path id="_Path_7" data-name="&lt;Path&gt;" class="cls-8" d="M179.23,407.76c-3.66,12.63-5.45,28.28-5.45,28.28L81.15,427.9S96.14,351,106.53,337a26,26,0,0,1,4.51-4.6c5.08-4.12,12-7.44,18.07-9.84a124,124,0,0,1,13.19-4.4s17.94,30.76,21.79,30.22,13.12-12.29,12.32-25.05a50.26,50.26,0,0,1,5.68,1.7c4.87,1.73,11.37,4.85,13.2,9.55C197.87,341.13,186.77,381.82,179.23,407.76Z"/><path id="_Path_8" data-name="&lt;Path&gt;" class="cls-12" d="M179.23,407.76c-3.66,12.63-5.45,28.28-5.45,28.28L81.15,427.9S96.14,351,106.53,337a26,26,0,0,1,4.51-4.6l11.83,7C117.78,365.78,115.18,419.37,179.23,407.76Z"/></g><g id="_Group_11" data-name="&lt;Group&gt;"><g id="_Group_12" data-name="&lt;Group&gt;"><path id="_Path_9" data-name="&lt;Path&gt;" class="cls-33" d="M177.57,431.73c-2.8,1-8.85-11.11-9.47-12.36.55,1.39,6.23,16.05,2.3,17.78-3.16,1.4-9.8-13.15-10.25-14.12.34.94,5.08,14.86,2.39,16.61a3.21,3.21,0,0,1-3.57-.13,8,8,0,0,1-1.14-.86,3.5,3.5,0,0,1-.25-.25,2.71,2.71,0,0,1-1.28,3.39c-3.42,1.64-10.9-10.27-10.9-10.27-6.4,3.79-13.84,2.21-13.84,2.21s-53.61,4.12-67.5-2.17c-6.8-3.07-4.06-15.45,1.68-29.68.86-2.17,1.8-4.38,2.79-6.61,3.08-7,6.61-14.09,9.87-20.58,2.82-5.64,5.44-10.76,7.41-14.9C95.49,339.36,116,328.91,116,328.91c20.8,2.66,5.93,38.08,3.67,42.95-1,2.07-4.93,10.06-8.94,18.07-3,6-6,12-7.79,15.54-.3.58-.55,1.09-.77,1.52-.5,1-.8,1.59-.8,1.59l32,3.45s16.7-10,29.37-10C174.78,402,181.87,430.11,177.57,431.73Z"/><path id="_Path_10" data-name="&lt;Path&gt;" class="cls-36" d="M110.69,389.93c-3,6-6,12-7.79,15.54-.3.58-.55,1.09-.77,1.52-7.2,1.21-20.42,1.81-36.4-5.1.86-2.17,1.8-4.38,2.79-6.61,3.08-7,6.61-14.09,9.87-20.58Z"/><path id="_Path_11" data-name="&lt;Path&gt;" class="cls-37" d="M159,439.51a8,8,0,0,1-1.14-.86,41.65,41.65,0,0,0-1.56-4.43c-1.17-2.73-2.76-5.21-4-7.91-.06-.15.12-.31.24-.18C155.67,429.52,157.88,434.7,159,439.51Z"/></g><path id="_Path_12" data-name="&lt;Path&gt;" class="cls-8" d="M121,372.84c-3.62,10.28-8.87,24.5-13,32.69-16.16.46-36.09-5.65-43-10.75,7-13.66,14.62-26.39,19.6-34.89,12.75-21.75,31.36-31,31.36-31C136.76,331.57,123.59,365.47,121,372.84Z"/></g></g><g id="_Group_13" data-name="&lt;Group&gt;"><g id="_Group_14" data-name="&lt;Group&gt;"><path id="_Path_13" data-name="&lt;Path&gt;" class="cls-10" d="M351.61,432.8H201.42l-3.12-4.39L225.63,348a6.12,6.12,0,0,1,5.79-4.15H378.13a6.38,6.38,0,0,1,4.94,2.34h0a4.6,4.6,0,0,1,.72,4.6Z"/><path id="_Path_14" data-name="&lt;Path&gt;" class="cls-21" d="M349.77,432.8H201.42l26.81-77.89a9.77,9.77,0,0,1,9.23-6.59H380.81a2.7,2.7,0,0,1,2.52,3.69l-31,79.07A2.7,2.7,0,0,1,349.77,432.8Z"/><ellipse id="_Path_15" data-name="&lt;Path&gt;" class="cls-10" cx="294.16" cy="389.57" rx="21.21" ry="7.33"/></g><g id="_Group_15" data-name="&lt;Group&gt;"><rect id="_Rectangle_" data-name="&lt;Rectangle&gt;" class="cls-9" x="119.44" y="431.62" width="222.24" height="10.33" rx="2.22" ry="2.22"/><g id="_Group_16" data-name="&lt;Group&gt;"><rect id="_Rectangle_2" data-name="&lt;Rectangle&gt;" class="cls-21" x="119.44" y="431.62" width="76.24" height="10.33" rx="2.22" ry="2.22"/><g id="_Group_17" data-name="&lt;Group&gt;"><rect id="_Rectangle_3" data-name="&lt;Rectangle&gt;" class="cls-9" x="125.71" y="436.04" width="8.97" height="2.25"/><rect id="_Rectangle_4" data-name="&lt;Rectangle&gt;" class="cls-9" x="136.73" y="436.04" width="8.97" height="2.25"/><rect id="_Rectangle_5" data-name="&lt;Rectangle&gt;" class="cls-9" x="164.81" y="436.04" width="8.97" height="2.25"/><path id="_Path_16" data-name="&lt;Path&gt;" class="cls-9" d="M184.47,438.29h-6.72a1.13,1.13,0,0,1-1.13-1.13h0a1.13,1.13,0,0,1,1.13-1.13h6.72a1.13,1.13,0,0,1,1.13,1.13h0A1.13,1.13,0,0,1,184.47,438.29Z"/><circle id="_Path_17" data-name="&lt;Path&gt;" class="cls-9" cx="158.96" cy="437.4" r="1.36"/></g></g></g></g></g></g><path class="cls-38" d="M188.42,298.67s2-2.59,3.56-.77S192.4,297.72,188.42,298.67Z"/><path class="cls-39" d="M198.46,289.1s-1.26-7.65,5.65-9.09,11.34,5.18,11.34,5.18-6.07-1.73-9.65-.74S198.86,287.79,198.46,289.1Z"/><path class="cls-40" d="M215.13,276.25a1.21,1.21,0,0,0,0-.3c-.27-1.53-2.42-2.87-3.67-3.47a11.45,11.45,0,0,0-5.66-1.09,15.19,15.19,0,0,0-5,1.19,4,4,0,0,0-1.93,1.45c-.73,1.29-.35,3.15,1.37,3,1.52-.09,3-.45,4.51-.56a33.78,33.78,0,0,1,5.52.08C211.17,276.69,215,277.82,215.13,276.25Z"/><path class="cls-7" d="M198.06,290.42c-.4,1.16,1.34,3.69,2,4.43,5.52,6.12,18.5-1.79,15.38-9.66a9.67,9.67,0,0,0-7.18-.57c-4.41,1.14-7.63.78-8.61,2.48A28,28,0,0,0,198.06,290.42Z"/><g class="cls-41"><ellipse class="cls-8" cx="209.29" cy="289.12" rx="6.83" ry="7.91"/><ellipse class="cls-40" cx="209.52" cy="289.19" rx="3.59" ry="4.03"/><path class="cls-42" d="M197.95,290.93s.13.75.5.7,5.64-5.87,10.38-4.76,6.9,1.21,7.11,1-1.05-2.63-1.94-3.29-7-.48-7-.48l-6,2Z"/><path class="cls-43" d="M216.69,289.52s-6.6-1.12-6.13-.33,5,3.6,5.66,3.37S217.92,289.71,216.69,289.52Z"/></g><path class="cls-40" d="M216.24,286.89c-.44-4.89-9.49-3.62-12.56-2.92-3.52.8-6.59,3.58-6.1,7.46a.27.27,0,0,0,.5.14c1.42-2.46,1.85-4.35,4.92-5.3s10.55-1.79,12.93.76a.18.18,0,0,0,.31-.13Z"/><path class="cls-40" d="M197.76,283.43c2.42-2.89,5-4.42,8.91-4.09.33,0,.38-.48.08-.56-3.57-1-8,.85-9.09,4.59,0,.06.07.12.11.06Z"/><path class="cls-34" d="M186.58,300.13c-1.72,1.55-.1,5.41,2.3,4.64a.2.2,0,0,0,0-.36,4.58,4.58,0,0,1-2-1.35,3.36,3.36,0,0,1-.12-2.82.12.12,0,0,0-.19-.11Z"/><path class="cls-34" d="M192.13,304.75a3.79,3.79,0,0,0,2.43-1c.39-.32-.12-1-.53-.69a7.09,7.09,0,0,1-1,.6,8.52,8.52,0,0,0-1.06.46.33.33,0,0,0,.16.6Z"/><path class="cls-39" d="M180.13,289.1s1.26-7.65-5.65-9.09-11.34,5.18-11.34,5.18,6.07-1.73,9.65-.74S179.73,287.79,180.13,289.1Z"/><path class="cls-40" d="M163.46,276.25a1.22,1.22,0,0,1,0-.3c.27-1.53,2.42-2.87,3.67-3.47a11.45,11.45,0,0,1,5.66-1.09,15.19,15.19,0,0,1,5,1.19,4,4,0,0,1,1.93,1.45c.73,1.29.35,3.15-1.37,3-1.52-.09-3-.45-4.51-.56a33.78,33.78,0,0,0-5.52.08C167.42,276.69,163.57,277.82,163.46,276.25Z"/><path class="cls-7" d="M180.53,290.42c.4,1.16-1.34,3.69-2,4.43-5.52,6.12-18.5-1.79-15.38-9.66a9.67,9.67,0,0,1,7.18-.57c4.41,1.14,7.63.78,8.61,2.48A28,28,0,0,1,180.53,290.42Z"/><g class="cls-44"><ellipse class="cls-8" cx="174.3" cy="289.12" rx="6.83" ry="7.91"/><ellipse class="cls-40" cx="174.07" cy="289.19" rx="3.59" ry="4.03"/><path class="cls-42" d="M180.64,290.93s-.13.75-.5.7-5.64-5.87-10.38-4.76-6.9,1.21-7.11,1,1.05-2.63,1.94-3.29,7-.48,7-.48l6,2Z"/><path class="cls-43" d="M166.9,289.52s6.6-1.12,6.13-.33-5,3.6-5.66,3.37S165.67,289.71,166.9,289.52Z"/></g><path class="cls-40" d="M162.66,287c2.35-2.53,10-1.69,12.93-.76s3.5,2.83,4.92,5.3a.27.27,0,0,0,.5-.14c.49-3.87-2.58-6.68-6.1-7.46-3.1-.69-12.12-2-12.56,2.92a.18.18,0,0,0,.31.13Z"/><path class="cls-40" d="M180.94,283.37c-1.06-3.74-5.52-5.59-9.09-4.59-.3.08-.25.59.08.56,3.89-.32,6.49,1.21,8.91,4.09,0,.05.13,0,.11-.06Z"/><path class="cls-34" d="M175.82,309.53c2.66,3.72,8.48,4.34,12.73,3.64,2.59-.43,7.65-2,8.21-4.83a.33.33,0,0,0-.48-.37c-2.26,1.31-4.26,3-6.87,3.67-4.07,1.05-10.09.51-13.21-2.42-.2-.18-.56.06-.39.3Z"/><path class="cls-45" d="M214.5,246a.74.74,0,1,1,.1-1.47s12.71.72,12.47,12.34a55.44,55.44,0,0,1-1.4,9.88c-1.46,7.18-2.85,14,3.14,19.57a.74.74,0,1,1-1,1.08c-6.58-6.16-5.12-13.35-3.57-20.95a54.27,54.27,0,0,0,1.37-9.62C225.8,246.65,214.53,246,214.5,246Z"/><path class="cls-45" d="M216.2,278.06c-1.52-9.66-12.94-7.08-12.25-19.31,0,0-30.09,3.94-43.58-.43a46.38,46.38,0,0,1-10.55,20.22s-.13,2.28-.25,4.4-2.22,4.37-3.85,4.28l.27-4.81S139.3,293.2,134.92,293c0,0-11.77-19.33-13.08-30.85s33.39-49.14,62.24-47.5,39.19,15.8,31.64,28.61c0,0,6.46,1.51,8.89,7.7s-4.83,15.79-.82,25.83C223.79,276.75,217.87,273.49,216.2,278.06Z"/><path class="cls-46" d="M126.23,250.66a81.2,81.2,0,0,1,10.13-12.27c33.39,13.82,55.48-8.86,64.37-20.94a41.83,41.83,0,0,1,4.95,1.91C184.21,262.77,141.47,255.07,126.23,250.66Z"/><path class="cls-30" d="M123,290a.74.74,0,1,1,1.18.89s-3.31,4.24,1.69,14.79c2.63,5.54,4.83,11.5,5.48,17.32s-.29,11.63-4,16.64a.74.74,0,1,1-1.19-.87c3.45-4.67,4.32-10.05,3.71-15.6s-2.78-11.43-5.34-16.85C119.12,294.92,123,290,123,290Z"/><path class="cls-29" d="M204,258.75h0s-25.47,3.34-40.05.47c5.43-6.14,18.29-17.31,30.92-16.44,0,0,12.05,7.34,9.14,16Z"/><path class="cls-47" d="M204,258.75s7-18.9-1.81-25.29-36.19-7.94-48.94,6.38S122.57,278,122.14,291.4s15.84,26.42,8.66,37.46-17.83,31.7-2.35,47,10.68,2.08,10.68,2.08,19,8.28,30.13,2.37S173,360.7,162.52,355c0,0,5.2.7,5.3-2.48s-14.42-2.46-13.14-16.29S163.12,312.88,157,303s3.11-40.39,24.75-49.79S204,258.75,204,258.75Z"/><path class="cls-48" d="M185.73,228.87q-1.49-.09-3-.09c-4.88,11.29-18,32.62-48.57,35.56a105.5,105.5,0,0,0-9,16C142.36,276.37,175.59,264.25,185.73,228.87Z"/><path class="cls-30" d="M122.87,286.7a22,22,0,0,0-.73,4.7c-.43,13.39,15.84,26.42,8.66,37.46s-17.83,31.7-2.35,47,10.68,2.08,10.68,2.08,19,8.28,30.13,2.37c10.18-5.4,4.86-17.29-4.12-23.62,1.86,1.44,3.69,8.66-4.25,10.12-8.11,1.49-17.6-3.44-17.6-3.44,1.87,0,5.64-2.93-.71-4.69s-14.07-12.76-5.62-27.4-4.44-21.8-10.08-30.31C121.62,293,122.7,287.41,122.87,286.7Z"/><g id="_Group_18" data-name="&lt;Group&gt;"><g id="_Group_19" data-name="&lt;Group&gt;"><path id="_Path_18" data-name="&lt;Path&gt;" class="cls-49" d="M187.24,288.42A14.61,14.61,0,1,1,183,278.08a13.73,13.73,0,0,1,1,1.09A14.62,14.62,0,0,1,187.24,288.42Z"/><path id="_Path_19" data-name="&lt;Path&gt;" class="cls-50" d="M171.74,303c-.3,0-.59,0-.89,0a14.63,14.63,0,0,1-14.62-14.62,14.35,14.35,0,0,1,.63-4.23,11.52,11.52,0,0,1,.5-1.42,14.62,14.62,0,0,1,13.48-9c.3,0,.59,0,.89,0a14.6,14.6,0,0,0,0,29.15Z"/></g><g id="_Group_20" data-name="&lt;Group&gt;"><ellipse id="_Path_20" data-name="&lt;Path&gt;" class="cls-49" cx="206.46" cy="288.42" rx="13.19" ry="14.62"/><path id="_Path_21" data-name="&lt;Path&gt;" class="cls-50" d="M205.67,303c-.27,0-.53,0-.8,0-7.29,0-13.19-6.55-13.19-14.62a15.54,15.54,0,0,1,2.45-8.47,11.42,11.42,0,0,1,.86-1.22,12.65,12.65,0,0,1,9.88-4.93c.27,0,.53,0,.8,0-6.92.46-12.39,6.8-12.39,14.58S198.75,302.54,205.67,303Z"/></g><g id="_Group_21" data-name="&lt;Group&gt;"><path id="_Path_22" data-name="&lt;Path&gt;" class="cls-37" d="M195,278.73a11.42,11.42,0,0,0-.86,1.22.46.46,0,0,1-.22-.19c-1.43-2.08-3-3.2-4.69-3.32s-3.54.84-5.21,2.67c0,0,0,0-.06.06a13.73,13.73,0,0,0-1-1.09c2-2.18,4.2-3.25,6.36-3.1S193.32,276.39,195,278.73Z"/></g></g><g id="_Group_22" data-name="&lt;Group&gt;"><g id="_Group_23" data-name="&lt;Group&gt;"><g id="_Group_24" data-name="&lt;Group&gt;"><g id="_Group_25" data-name="&lt;Group&gt;"><path id="_Path_23" data-name="&lt;Path&gt;" class="cls-51" d="M440,235.5c-5.69,6.65-30.82,35.76-34,36.31s-6.67-28.43-5.67-40.25c4.78-.9,8.35-1.49,9.07-3.19a3.64,3.64,0,0,0,.15-.35l.09-.24c1.76-4.6,2.42-12.67,2.58-15l0-.63,23.8-5.83s-.06.24-.18.66c-.43,1.64-1.56,6.09-2.4,10.87-.31,1.68-.56,3.39-.75,5.06-.53,4.77-.41,9,1.36,10.15A28.6,28.6,0,0,0,440,235.5Z"/></g><g id="_Group_26" data-name="&lt;Group&gt;"><polygon id="_Path_24" data-name="&lt;Path&gt;" class="cls-8" points="399.58 243.15 409.69 251.72 430.55 247.99 415.07 271.67 401.03 276.35 391.45 249.15 399.58 243.15"/><path id="_Path_25" data-name="&lt;Path&gt;" class="cls-9" d="M407.53,256.6c.21,0,5.38,2.07,5.38,2.07l1.52,10.54-8.75,5-5.52-6.13Z"/><path id="_Path_26" data-name="&lt;Path&gt;" class="cls-21" d="M405.81,247.92l3.88,3.8,7.42-1.46s-2.55,7.72-4.2,8.41-5.31.07-6.2-.69S404.63,249.5,405.81,247.92Z"/></g><g id="_Group_27" data-name="&lt;Group&gt;"><path id="_Path_27" data-name="&lt;Path&gt;" class="cls-9" d="M393,233.16a50.41,50.41,0,0,0-21.19,9.93c-10.52,8.28-27.32,19.93-29.56,18.81-1.83-.91-15-18.18-21.66-24.84-2.52-2.52-6.59-1.48-6.88-1.77l-19.62,13.55s-1.16,5.67,1.47,9.4c6.85,9.72,32.47,41.55,41.15,41.57,13.15,0,45-13.73,45-13.73Z"/><g id="_Group_28" data-name="&lt;Group&gt;"><path id="_Path_28" data-name="&lt;Path&gt;" class="cls-52" d="M310.69,218.89c-.31,3.19-1.52,14.27-1.52,14.27l-13.44,11.63s-24.46-17.06-25.38-19.21a2.25,2.25,0,0,1,.41-2.85,1,1,0,0,1,.24-.16,2.36,2.36,0,0,1-.44-.34,3.9,3.9,0,0,1-1.17-2.58A2,2,0,0,1,271,217.5a4.06,4.06,0,0,1,.77-.16,4.18,4.18,0,0,1-.37-.35,2.37,2.37,0,0,1-.09-3.26c1.34-1.68,19.27,4,19.27,4s-11.4-10.28-9.34-13S304,219.64,304,219.64c1.74-6.74,4.62-11.6,6.68-10.8S311,215.7,310.69,218.89Z"/><path id="_Path_29" data-name="&lt;Path&gt;" class="cls-53" d="M303.6,220.27c-3,1.78-3.78,7-3.22,10.09.06.33.63.26.59-.08a12.11,12.11,0,0,1,.31-5.22c.55-1.79,1.74-3,2.54-4.58A.16.16,0,0,0,303.6,220.27Z"/><path id="_Path_30" data-name="&lt;Path&gt;" class="cls-53" d="M288.88,229.77c-2.63-.83-3.76,1-6.23-.81-4-2.92-7-5.69-11.89-6.24a1,1,0,0,1,.24-.16,2.36,2.36,0,0,1-.44-.34,13.22,13.22,0,0,1,8.29,2.69c1.92,1.3,3.39,3,5.61,3.75,1.77.62,2.94-.13,4.62.4C289.53,229.2,289.34,229.92,288.88,229.77Z"/><path id="_Path_31" data-name="&lt;Path&gt;" class="cls-53" d="M289.31,223.55c-2.63-.21-4.49-1.55-6.74-2.77A31.1,31.1,0,0,0,271,217.5a4.06,4.06,0,0,1,.77-.16,4.18,4.18,0,0,1-.37-.35,23.13,23.13,0,0,1,8.17,1.46c3.26,1.21,6.27,3.92,9.78,4.22C289.87,222.72,289.87,223.61,289.31,223.55Z"/></g><path id="_Path_32" data-name="&lt;Path&gt;" class="cls-10" d="M295.42,250.62s6,1.75,13.62-3.7c6.92-5,5.57-9.91,5.57-9.91.06-.94-3.88-5.92-5.21-5.91,0,0-9.76,10.87-17.47,11C291.93,242.1,291,245.16,295.42,250.62Z"/></g><g id="_Group_29" data-name="&lt;Group&gt;"><path id="_Path_33" data-name="&lt;Path&gt;" class="cls-21" d="M455.86,258.76c-.07,23.25-5.31,68.77-5.31,68.77h-82.6s.35-3.38,1-8.84c2.7-22.6,10.59-81,20.05-84.3a58,58,0,0,1,6.49-1.84c1.7-.4,3.3-.71,4.81-1-1,11.82,2.51,40.81,5.67,40.25s28.3-29.65,34-36.31c1.37.46,2.83,1,4.28,1.55,4.23,1.76,8.47,4.38,10.52,9.49C455.57,248.51,455.88,252.94,455.86,258.76Z"/><path id="_Path_34" data-name="&lt;Path&gt;" class="cls-9" d="M446.19,256.95c-.07,23.25,4.37,70.58,4.37,70.58h-82.6s.35-3.38,1-8.84C431.87,327.14,439.05,289.88,446.19,256.95Z"/><path id="_Path_35" data-name="&lt;Path&gt;" class="cls-10" d="M444.25,237c-10.78,13.82-32.8,40.93-38.93,40.06-6.67-.94-9.12-32.52-9.81-44.56,1.7-.4,3.3-.71,4.81-1-1,11.82,2.51,40.81,5.67,40.25s28.3-29.65,34-36.31C441.35,236,442.81,236.46,444.25,237Z"/></g><g id="_Group_30" data-name="&lt;Group&gt;"><path id="_Path_36" data-name="&lt;Path&gt;" class="cls-8" d="M409.69,251.87c-3.38-7.18-3-15.87-.3-23.5,0,0-8.78-.49-13,4s-8.18,20.32-8.18,20.32S399,245.42,409.69,251.87Z"/><path id="_Path_37" data-name="&lt;Path&gt;" class="cls-8" d="M432.51,229.19a66.84,66.84,0,0,1-22.83,22.68c2.22,0,15.46-2.45,24.81,7.88C435.41,259.93,448.85,229.84,432.51,229.19Z"/></g><path id="_Path_38" data-name="&lt;Path&gt;" class="cls-21" d="M441.09,259l9.21-18.46s10.92,6,17.27,26c4.43,13.89,15.81,61.05,15.81,61.05H446.19S434.45,286.08,441.09,259Z"/><g id="_Group_31" data-name="&lt;Group&gt;"><g id="_Group_32" data-name="&lt;Group&gt;"><ellipse id="_Path_39" data-name="&lt;Path&gt;" class="cls-54" cx="398.19" cy="194.66" rx="5.89" ry="8.71" transform="translate(76.28 499.33) rotate(-69.48)"/><g id="_Group_33" data-name="&lt;Group&gt;"><path id="_Path_40" data-name="&lt;Path&gt;" class="cls-52" d="M446.81,191.9c-2.63,17.11-18.18,29.55-31.44,27.52-13.1-2-17.36-17.26-16.6-34.32,0-.19,0-.4,0-.59.41-8.2,2.42-14.24,5.43-18.55,5.59-8.1,14.69-10.08,23.34-8.73a20.27,20.27,0,0,1,11.6,6.23,23.86,23.86,0,0,1,2.38,2.89C446.16,172.87,448.31,182.12,446.81,191.9Z"/></g><ellipse id="_Path_41" data-name="&lt;Path&gt;" class="cls-54" cx="446.19" cy="196.71" rx="8.71" ry="5.89" transform="translate(-32.7 104.82) rotate(-12.93)"/><path class="cls-55" d="M443.51,169c2.22,4.69,4.81,16.16,3.27,21.51l-3.56,11.24c-2.76,9.53-15.22,18.24-25,17.9,5.31-1.27,11.71-4.58,14.58-8.8,4.62-6.78,5.45-18.23,5-23.26s-4.16-10.65-5.9-12.1-7.14-1.65-17.18-3.68c-5.65-1.15-13.79,2.9-13.79,2.9-1-5.16,8.61-13.6,11.7-15.37,5.1,1.4,17.47,4.72,23.22,5.48C438.32,165.08,440.93,166.7,443.51,169Z"/></g></g></g></g></g><path class="cls-56" d="M398.15,191.83s-3.77.7-1.12,5.47c2.14,3.85,3.78,3.42,5,3.42,2.25,0,5.79-1.46,6-4.53S402.77,192.14,398.15,191.83Z"/><path class="cls-57" d="M429.16,195.21s-3.22,2.15,1,5.48c3.43,2.68,4.78,1.64,5.92,1.14,2.07-.9,4.79-3.66,3.83-6.56S433.55,193.65,429.16,195.21Z"/><path class="cls-58" d="M413.9,171.94s-4.94,1.36-.9,7.4c3.25,4.86,5.39,4.12,7,4,3-.26,7.54-2.6,7.49-6.7S420.08,171.83,413.9,171.94Z"/><g id="_Group_34" data-name="&lt;Group&gt;"><g id="_Group_35" data-name="&lt;Group&gt;"><path id="_Path_42" data-name="&lt;Path&gt;" class="cls-59" d="M426.47,192.6s-2.19-9.57,3.5-11.1,9.53,5.53,8.92,7.45S435,196.37,426.47,192.6Z"/><path id="_Path_43" data-name="&lt;Path&gt;" class="cls-7" d="M426.72,193.67c-.9-1.18-1.2-2.91-.81-5.13s1.58-4.23,3.83-4.84c5.69-1.53,9.4,4.9,8.78,6.82a7.33,7.33,0,0,1-6.21,4.89C429.7,195.68,427.79,195.06,426.72,193.67Z"/><g id="_Group_36" data-name="&lt;Group&gt;"><path id="_Path_44" data-name="&lt;Path&gt;" class="cls-8" d="M426.13,190.78a4.61,4.61,0,0,0,6.05,2.7A4.88,4.88,0,0,0,435,187.3a4.61,4.61,0,0,0-6-2.7A4.87,4.87,0,0,0,426.13,190.78Z"/><path id="_Path_45" data-name="&lt;Path&gt;" class="cls-60" d="M427.68,190.12a2.92,2.92,0,0,0,3.83,1.72,3.1,3.1,0,0,0,1.77-3.93,2.91,2.91,0,0,0-3.83-1.72A3.11,3.11,0,0,0,427.68,190.12Z"/></g><path id="_Path_46" data-name="&lt;Path&gt;" class="cls-61" d="M429.74,183.7c5.69-1.53,9.4,4.9,8.78,6.82a7.39,7.39,0,0,1-4.54,4.54c1.71-1.26,5-4.23,2.41-7-3.4-3.69-7.67-3.54-9.49-.39a11.12,11.12,0,0,0-1.16,3.09C425.74,188,426.42,184.6,429.74,183.7Z"/><g id="_Group_37" data-name="&lt;Group&gt;"><path id="_Path_47" data-name="&lt;Path&gt;" class="cls-60" d="M425.63,189.8a8.89,8.89,0,0,1,.3-1.39,8.73,8.73,0,0,1,.55-1.45,6.32,6.32,0,0,1,1.05-1.5c.11-.11.24-.2.37-.31l.19-.16.21-.12.42-.25.47-.17.24-.09.25,0,.51-.09c.35,0,.72,0,1.08,0l1.12.15.61.14.55.16a7.2,7.2,0,0,1,2.15,1.14,5.76,5.76,0,0,1,1.65,1.87,5.32,5.32,0,0,1,.45,1.16,4.33,4.33,0,0,1,.1,1.2,4.58,4.58,0,0,1-.78,2.16,7.19,7.19,0,0,1-1.44,1.53,12.24,12.24,0,0,1-1.47,1l-.65.36-.57.28c-.34.17-.62.28-.8.37l-.29.13.31,0a8.61,8.61,0,0,0,.86-.13l.61-.13.72-.21c.26-.09.52-.2.81-.31s.57-.27.87-.45a6.41,6.41,0,0,0,1.8-1.51,5.47,5.47,0,0,0,1.22-2.83,6.13,6.13,0,0,0-.07-1.8,6.22,6.22,0,0,0-.58-1.66,7.33,7.33,0,0,0-2.05-2.43,8.44,8.44,0,0,0-2.54-1.28l-.67-.18-.62-.1-1.3-.08a11.26,11.26,0,0,0-1.25.14l-.6.17-.29.09-.28.14-.54.27-.49.37-.23.19-.21.22c-.13.15-.27.29-.39.44a6.57,6.57,0,0,0-1,1.93,8.1,8.1,0,0,0-.35,1.67,8.38,8.38,0,0,0,0,1.09C425.62,189.67,425.63,189.8,425.63,189.8Z"/></g></g></g><ellipse class="cls-62" cx="427.63" cy="191.62" rx="1.9" ry="1.84" transform="translate(207.49 605.29) rotate(-86.12)"/><ellipse class="cls-62" cx="433.12" cy="187.26" rx="1.18" ry="1.15" transform="translate(216.96 606.71) rotate(-86.12)"/><g id="_Group_38" data-name="&lt;Group&gt;"><g id="_Group_39" data-name="&lt;Group&gt;"><path id="_Path_48" data-name="&lt;Path&gt;" class="cls-59" d="M410.19,191.5s3.5-9.15-1.93-11.44-10.23,4.16-9.88,6.15S401.2,194.07,410.19,191.5Z"/><path id="_Path_49" data-name="&lt;Path&gt;" class="cls-7" d="M409.79,192.52c1.05-1,1.58-2.72,1.5-5s-1-4.4-3.15-5.31c-5.43-2.29-10,3.58-9.62,5.57a7.33,7.33,0,0,0,5.49,5.69C406.57,194.11,408.55,193.76,409.79,192.52Z"/><g id="_Group_40" data-name="&lt;Group&gt;"><path id="_Path_50" data-name="&lt;Path&gt;" class="cls-8" d="M410.77,189.74a4.61,4.61,0,0,1-6.36,1.85,4.88,4.88,0,0,1-1.93-6.5,4.61,4.61,0,0,1,6.36-1.85A4.87,4.87,0,0,1,410.77,189.74Z"/><path id="_Path_51" data-name="&lt;Path&gt;" class="cls-60" d="M409.39,188.92a3,3,0,0,1-4.07,1.19,3.12,3.12,0,0,1-1.24-4.16,2.94,2.94,0,0,1,4.06-1.19A3.12,3.12,0,0,1,409.39,188.92Z"/></g><path id="_Path_52" data-name="&lt;Path&gt;" class="cls-61" d="M408.15,182.23c-5.43-2.29-10,3.58-9.62,5.57a7.4,7.4,0,0,0,3.88,5.11c-1.53-1.48-4.39-4.87-1.44-7.3,3.87-3.2,8.08-2.47,9.46.9a11.12,11.12,0,0,1,.74,3.21C411.53,187.05,411.32,183.57,408.15,182.23Z"/><g id="_Group_41" data-name="&lt;Group&gt;"><path id="_Path_53" data-name="&lt;Path&gt;" class="cls-60" d="M411.39,188.83a8.89,8.89,0,0,0-.1-1.42,8.73,8.73,0,0,0-.35-1.51,6.32,6.32,0,0,0-.84-1.63c-.1-.12-.22-.23-.32-.36l-.16-.18-.19-.15-.39-.3-.44-.23-.22-.12-.24-.08-.5-.16c-.35-.07-.71-.12-1.07-.18h-1.13l-.62.06-.57.09a7.2,7.2,0,0,0-2.28.84,5.75,5.75,0,0,0-1.89,1.63,5.32,5.32,0,0,0-.6,1.09,4.33,4.33,0,0,0-.27,1.18,4.58,4.58,0,0,0,.48,2.25,7.18,7.18,0,0,0,1.22,1.71,12.25,12.25,0,0,0,1.32,1.19l.6.44.52.35c.32.22.58.36.75.47l.27.17-.3-.08a8.6,8.6,0,0,1-.84-.25l-.59-.21-.68-.31c-.24-.12-.49-.27-.76-.41s-.53-.34-.8-.57a6.42,6.42,0,0,1-1.58-1.74,5.47,5.47,0,0,1-.83-3,6.12,6.12,0,0,1,.31-1.77,6.21,6.21,0,0,1,.8-1.57,7.33,7.33,0,0,1,2.36-2.13,8.44,8.44,0,0,1,2.69-.93l.69-.09h.62l1.3.09a11.26,11.26,0,0,1,1.22.31l.57.25.28.13.26.17.5.34.43.43.21.22.18.25c.11.17.23.32.33.49a6.57,6.57,0,0,1,.71,2,8.1,8.1,0,0,1,.12,1.7,8.37,8.37,0,0,1-.1,1.09C411.42,188.7,411.39,188.83,411.39,188.83Z"/></g></g></g><ellipse class="cls-62" cx="403.37" cy="189.58" rx="1.9" ry="1.84" transform="translate(186.91 579.19) rotate(-86.12)"/><ellipse class="cls-62" cx="409.2" cy="186.41" rx="1.18" ry="1.15" transform="translate(195.51 582.05) rotate(-86.12)"/><path class="cls-59" d="M412.92,194.83a7.24,7.24,0,0,0,4,1.76,4.34,4.34,0,0,0,4-1.24s.94,1.11.27,2a10.15,10.15,0,0,1-4,2.4C416.48,199.82,411.19,197.18,412.92,194.83Z"/><ellipse class="cls-63" cx="417.53" cy="195.62" rx="0.58" ry="1.31" transform="translate(194.08 598.94) rotate(-86.12)"/><path class="cls-64" d="M415.27,196.55a1.7,1.7,0,0,0-.68-.2c-.36,0-.68.14-.66.26s.3.19.52.34a2.17,2.17,0,0,1,.4.34,2.05,2.05,0,0,1,.43.28c.21.17.38.43.49.4s.1-.43-.06-.79A2.09,2.09,0,0,0,415.27,196.55Z"/><path class="cls-64" d="M420.53,196.72c0-.12-.29-.19-.59-.16a2.05,2.05,0,0,0-.58.16,2.49,2.49,0,0,0-.42.49c-.18.28-.27.6-.19.67s.31-.09.54-.21a4.25,4.25,0,0,1,.44-.2,4.89,4.89,0,0,1,.38-.33C420.3,197,420.54,196.84,420.53,196.72Z"/><path class="cls-64" d="M414,196.9l-.55-.65a.92.92,0,0,1-.17-.24.44.44,0,0,1-.09-.18.94.94,0,0,1,.1-.61c.25-.47.81-.83.75-.94s-.17,0-.4,0a1.83,1.83,0,0,0-.77.52,1.63,1.63,0,0,0-.38,1.1,1.31,1.31,0,0,0,.16.59,1.78,1.78,0,0,0,.33.35l.67.51c.49.36,1,.7,1.06.6S414.45,197.38,414,196.9Z"/><path class="cls-64" d="M421.69,196.56s0-.09-.07-.37a1.84,1.84,0,0,0-.16-.39c-.06-.12-.13-.24-.2-.36-.29-.48-.66-.86-.74-.78s.12.57.27,1.07l.1.37a1.23,1.23,0,0,1,.05.27v.31a.44.44,0,0,1,0,.12.75.75,0,0,1-.29.4c-.36.3-.81.65-.74.77s.49,0,1-.23a1.28,1.28,0,0,0,.67-.63A1.24,1.24,0,0,0,421.69,196.56Z"/><path class="cls-64" d="M419.74,194.93c0-.11-.49-.47-1.08-.69a3.32,3.32,0,0,0-2.47-.13c-.62.15-1.18.45-1.16.57s.62,0,1.21,0a28,28,0,0,0,2.3.12C419.11,194.9,419.7,195,419.74,194.93Z"/><path class="cls-64" d="M430.12,181.71s-.59.28-1.12.63a10.24,10.24,0,0,0-1.88,1.67c-.41.49-.71,1.06-.76,1a3.2,3.2,0,0,1,.55-1.19,4.65,4.65,0,0,1,2-1.74A3.2,3.2,0,0,1,430.12,181.71Z"/><path class="cls-64" d="M429.18,181.08s-.51.3-1,.66a9,9,0,0,0-1.53,1.68c-.32.48-.53,1-.57,1a2.68,2.68,0,0,1,.35-1.14,4,4,0,0,1,1.61-1.76A2.68,2.68,0,0,1,429.18,181.08Z"/><path class="cls-64" d="M411.68,184.94c-.05,0-.21-.69-.47-1.34a16.41,16.41,0,0,0-1.33-2.47c-.4-.58-.89-1.1-.86-1.14a4.19,4.19,0,0,1,1.06,1,6.25,6.25,0,0,1,1.37,2.55A4.2,4.2,0,0,1,411.68,184.94Z"/><path class="cls-64" d="M411.55,182.48s-.2-.3-.36-.59-.35-.57-.35-.57-.15-.3-.32-.59-.37-.57-.33-.61.31.19.54.46a2.77,2.77,0,0,1,.7,1.21A1.46,1.46,0,0,1,411.55,182.48Z"/><path class="cls-60" d="M400.88,178.23a2.5,2.5,0,0,0,.42-.09c1-.29,1.84-.79,2.82-1a13.1,13.1,0,0,1,3.67-.14c1.1.11,2.7.83,3.73.28,1.2-.64,1.46-2.76,0-3.26-.11.29-.67,1.08-.65,1.34,0-.36.09-1.37-.15-1.64s-1.16-.28-1.5-.3a13,13,0,0,0-3.22.22,9.36,9.36,0,0,0-6,3.47C399.13,178.15,400.12,178.33,400.88,178.23Z"/><path class="cls-65" d="M408,173.44l0,.1c-.19.58-.33,1.18-.33,1.18s-.19.58-.33,1.18c-.11.44-.2.88-.26,1.08H407a7.14,7.14,0,0,1,.08-1.13c.08-.62.24-1.22.24-1.22s.19-.6.44-1.17H408Zm-2,2.67a7.46,7.46,0,0,1,.23-1.31,7.58,7.58,0,0,1,.38-1.23l-.32,0a6.9,6.9,0,0,0-.42,1.09,6.66,6.66,0,0,0-.14,1.39,5.11,5.11,0,0,0,.09.88H406A7.48,7.48,0,0,1,406,176.1Zm5.25-1.63a8.13,8.13,0,0,1-.31,1.43,5.61,5.61,0,0,1-.7,1.55l0,0h.3a5.67,5.67,0,0,0,.76-1.49s.06-.22.13-.55a7.45,7.45,0,0,0,.12-1.23c0-.05,0-.11,0-.16l-.05,0A4.18,4.18,0,0,1,411.23,174.48Zm-9.52,2.8a6.75,6.75,0,0,1,0-1,6.44,6.44,0,0,1,.06-1v0l-.32.25a5.62,5.62,0,0,0-.1.72,5.48,5.48,0,0,0,.11,1,3.94,3.94,0,0,0,.21.71l.12,0C401.77,177.79,401.73,177.53,401.72,177.27Zm6.85-2.58s.14-.67.25-1.26h-.24c-.18.56-.36,1.18-.36,1.18a16.35,16.35,0,0,0-.36,2.18A16.44,16.44,0,0,0,408.57,174.7Zm-5.28,0c0-.09.05-.18.08-.26l-.31.15v0a3.58,3.58,0,0,0-.25,2.23,3.73,3.73,0,0,0,.18.68l.15-.05a5.5,5.5,0,0,1-.08-.65,8.34,8.34,0,0,1,.24-2.12Z"/><path class="cls-65" d="M404.12,177.16a13.1,13.1,0,0,1,3.67-.14c1.1.11,2.7.83,3.73.28a2,2,0,0,0,.93-2.22c-.42,1-1.85,1.37-3.41.92-1.94-.56-4.61.56-6.83.65-.93,0-1.05-.42-.89-1a8.34,8.34,0,0,0-1.41,1.45c-.77,1,.22,1.19,1,1.1a2.5,2.5,0,0,0,.42-.09C402.25,177.86,403.13,177.36,404.12,177.16Z"/><path class="cls-60" d="M437.55,180.67a2.5,2.5,0,0,1-.4-.14c-.91-.42-1.72-1-2.66-1.35a13.1,13.1,0,0,0-3.62-.63c-1.1,0-2.79.47-3.73-.21-1.1-.8-1.09-2.93.48-3.22a6.86,6.86,0,0,1,.47,1.42c.07-.35.09-1.37.37-1.61s1.19-.12,1.53-.1a13,13,0,0,1,3.16.64,9.36,9.36,0,0,1,5.54,4.24C439.3,180.82,438.29,180.87,437.55,180.67Z"/><path class="cls-65" d="M431.09,177.88c-.06.25-.12.49-.18.68h-.15c0-.2.06-.46.09-.73l.12-1.11.17-1.1.09-.63.17,0c0,.19,0,.41,0,.63,0,.56-.07,1.13-.07,1.13S431.22,177.33,431.09,177.88Zm3.58,1.39c.09-.23.23-.66.41-1.08.25-.62.57-1.2.57-1.2l.13-.28-.29-.18-.17.29a10.4,10.4,0,0,0-.49,1.27,7,7,0,0,0-.25,1.13Zm1.54-2.27c-.26.5-.46,1-.46,1s-.2.59-.35,1.19c0,.13-.06.25-.09.37l.19.1.14-.4c.21-.58.45-1.14.45-1.14s.15-.45.35-1Zm-8.06,1.28a8.61,8.61,0,0,1-.38-1.28,5.73,5.73,0,0,1-.19-1.31,3.86,3.86,0,0,1,0-.56l-.21.06a3.36,3.36,0,0,0-.06.49,5.35,5.35,0,0,0,.1,1.4,7.51,7.51,0,0,0,.49,1.3l.15.29.25,0Zm1.41-.61-.13-1.27-.18-1.27c0-.11,0-.22,0-.33H429c0,.12,0,.23,0,.35,0,.65.07,1.29.07,1.29s.09.64.23,1.27c.08.35.16.7.24.94h.12C429.65,178.38,429.6,178,429.56,177.66Zm2.73-.23s.15-.7.24-1.41c0-.25.06-.49.07-.71l-.17-.05c0,.22-.09.47-.15.71-.15.69-.34,1.37-.34,1.37s-.13.62-.3,1.26l.27,0C432.13,178,432.29,177.43,432.29,177.43Z"/><path class="cls-65" d="M437.55,180.67c.74.19,1.75.15,1.12-1a8.41,8.41,0,0,0-1.67-2.09c.26.68.68,2,0,1.86-1-.16-2.94-2.12-6.52-1.93-2.89.16-3.78-.87-4-1.35a2,2,0,0,0,.7,2.13c.95.68,2.63.17,3.73.21a13.1,13.1,0,0,1,3.62.63c.95.33,1.76.94,2.66,1.35A2.5,2.5,0,0,0,437.55,180.67Z"/><path class="cls-66" d="M412.16,207.1c.39,1.51,2.24,1,3.4.95s2.25-.09,3.38-.08,2.13.14,3.19.14c.69,0,1.53.23,2.07-.34,1.13-1.2-.4-3.26-1.38-4a7.75,7.75,0,0,0-4.46-1.42,7.3,7.3,0,0,0-4.07,1.13c-1.08.69-2.43,2.09-2.15,3.52Z"/><g class="cls-67"><path class="cls-68" d="M412.64,208.5c.16,0,.84-.77,1-.87a9.32,9.32,0,0,1,2.27-1.34,6.45,6.45,0,0,1,5.07.17c.46.22,3,1.62,2.78,2.36C423.69,209.06,412.66,208.5,412.64,208.5Z"/><path class="cls-7" d="M423.52,203s-5.78-2.72-10.43,0c0,0,6.31,1.85,10.43,0"/></g><path class="cls-7" d="M423.52,203"/><path class="cls-69" d="M396,170l4.26,4.28s2-8,19.24-5.5-15.86-16-19.6-14S392.9,162.72,396,170Z"/><path class="cls-70" d="M440.67,170.37s-16.92,1.86-25.54-3.61-15.9-8-18.11-5c-2.09,2.82,6-.85,3.94,12.37-1.23,7.85-1.63,23.67-1.89,24.41-.08-4.68-1.58-16.65-3.14-19.65-4.63-8.94-11.88-15.66-2.47-29.07,5.78-8.23,15.59-12.09,20.15-7.92,14.85,13.57,35.3-4.06,35.43,18.42,0,0,10,7.71-.22,30.25-2.32,0-3,2.77-3,4.25l-1.91,4C437.9,190,439.13,173.73,440.67,170.37Z"/></g></g></g></svg>