<?xml version="1.0" encoding="utf-8"?>
<!-- Generator: Adobe Illustrator 21.1.0, SVG Export Plug-In . SVG Version: 6.00 Build 0)  -->
<svg version="1.1" id="Layer_1" xmlns="http://www.w3.org/2000/svg" xmlns:xlink="http://www.w3.org/1999/xlink" x="0px" y="0px"
	 viewBox="0 0 685 485.2" style="enable-background:new 0 0 685 485.2;" xml:space="preserve">
<style type="text/css">
	.st0{fill:none;}
	.st1{fill:#E2E8F5;}
	.st2{fill:#FFFAFB;}
	.st3{fill:#B1C0E2;}
	.st4{fill:#FFFFFF;}
	.st5{fill:#9DACC6;}
	.st6{fill:#6A61AF;}
	.st7{fill:#F1F2F3;}
	.st8{fill:#CFD8E8;}
	.st9{fill:#EDF1F9;}
	.st10{fill:#222A48;}
	.st11{clip-path:url(#SVGID_2_);}
	.st12{fill:#ABC4C8;}
	.st13{fill:#5B4E99;}
	.st14{fill:#7A9297;}
	.st15{fill:#48417C;}
	.st16{fill:#00000F;}
	.st17{fill:#141A33;}
	.st18{fill:#030822;}
	.st19{fill:#C83C4A;}
	.st20{fill:#DA5252;}
	.st21{fill:#EC6957;}
	.st22{fill:#D84743;}
	.st23{fill:#F2DDDC;}
	.st24{fill:#EA5A50;}
	.st25{fill:#AC3C31;}
	.st26{fill:#F6F5F4;}
	.st27{fill:#9E9BA5;}
	.st28{fill:#3C3C6B;}
	.st29{fill:#F08A71;}
	.st30{fill:#DF7668;}
	.st31{opacity:0.2;fill:#C14A44;enable-background:new    ;}
	.st32{fill:#2C3049;}
	.st33{fill:#3A3F57;}
	.st34{fill:#242942;}
	.st35{clip-path:url(#SVGID_4_);}
	.st36{fill:url(#SVGID_5_);}
	.st37{opacity:0.21;fill:#231F20;enable-background:new    ;}
	.st38{opacity:0.66;fill:#FFFFFF;enable-background:new    ;}
	.st39{fill:#BF875B;}
	.st40{clip-path:url(#SVGID_7_);}
	.st41{fill:url(#SVGID_8_);}
	.st42{fill:#EF9D95;}
	.st43{fill:#3B3A3A;}
	.st44{fill:#242525;}
</style>
<title>ENTJs</title>
<g>
	<g id="Layer_2">
		<g id="OBJECTS">
			<rect class="st0" width="685" height="485.2"/>
			<path class="st1" d="M252.6,438.6c-38.7-0.1-70.1-31.5-70.2-70.2l0,0c0.1-38.7,31.5-70.1,70.2-70.2l0,0
				c16.4,0,29.6-13.3,29.7-29.7l0,0c0-16.4-13.3-29.6-29.7-29.7h-3.5c-17-0.1-30.8-13.8-30.9-30.9l0,0c0.1-17,13.8-30.8,30.9-30.9
				h10.8c6.6,0,12-5.4,12-12l0,0c0-6.6-5.4-12-12-12h-8c-4.6,0-8.3-3.7-8.3-8.3l0,0c0-4.6,3.7-8.3,8.3-8.3h53.5c7.2,0,13-5.8,13-13
				l0,0c0-7.2-5.8-13-13-13h-16c-4.6,0-8.3-3.7-8.3-8.3l0,0c0-4.6,3.7-8.3,8.3-8.3h234.4c6,0,10.8,4.9,10.8,10.8l0,0
				c0,6-4.9,10.8-10.8,10.8h-16.4c-9.4,0-17,7.6-17,17l0,0c0,9.4,7.6,17,17,17H571c6,0,10.8,4.9,10.8,10.8l0,0
				c-0.1,5.9-4.9,10.7-10.8,10.7h-10.4c-8.7,0-15.7,7-15.7,15.7l0,0c0,8.7,7,15.7,15.7,15.7h14.1c22.2,0.1,40.2,18,40.3,40.3l0,0
				c-0.1,22.2-18.1,40.2-40.3,40.3h-4.6c-21.4,0.1-38.7,17.4-38.7,38.7l0,0c0.1,21.4,17.4,38.7,38.7,38.7h10c21.5,0.1,39,17.5,39,39
				l0,0c-0.1,21.5-17.5,39-39,39H252.6z M551.6,115.5c6,0,10.8-4.8,10.8-10.8s-4.8-10.8-10.8-10.8s-10.8,4.8-10.8,10.8
				C540.8,110.6,545.6,115.5,551.6,115.5L551.6,115.5z M228.7,153c4.6,0,8.3-3.7,8.3-8.3s-3.7-8.3-8.3-8.3s-8.3,3.7-8.3,8.3v0
				C220.4,149.3,224.1,153,228.7,153z"/>
			<rect x="476.9" y="278.4" class="st1" width="51.4" height="160.2"/>
			<path class="st2" d="M476.9,438.6V291.4h27.2c5.6,0,10.1,4.5,10.1,10.1v137L476.9,438.6z"/>
			<path class="st3" d="M523.6,278.4h69.8c-5.8,3.1-12.2,4.6-18.7,4.6h-4.6c-21.4,0.1-38.7,17.4-38.7,38.7l0,0
				c0.1,21.4,17.4,38.7,38.7,38.7h10c21.5,0.1,39,17.5,39,39l0,0c-0.1,21.5-17.5,39-39,39h-56.5V278.4z"/>
			<path class="st1" d="M534.5,438.6V336.8c6.1,14.3,20.1,23.6,35.7,23.6h10c21.5,0.1,39,17.5,39,39l0,0c-0.1,21.5-17.5,39-39,39
				L534.5,438.6z M534.5,306.6v-5.1c0-5.6,4.5-10.1,10.1-10.1h1.5C541,295.5,537,300.7,534.5,306.6z"/>
			<path class="st4" d="M599.7,274.3H475.4c-2.6,0-4.8,2.2-4.8,4.8l0,0c0,2.6,2.2,4.8,4.8,4.8h86.4c2.7-0.6,5.5-0.9,8.2-0.9h4.6
				C583.8,283,592.6,279.9,599.7,274.3z"/>
			<rect x="412.8" y="111.8" class="st5" width="63.5" height="59.7"/>
			<rect x="410.8" y="109.3" class="st3" width="63.5" height="59.7"/>
			<path class="st3" d="M377.9,93.8v344.7H252.6c-38.7-0.1-70.1-31.5-70.2-70.2l0,0c0.1-38.7,31.5-70.1,70.2-70.2l0,0
				c16.4,0,29.6-13.3,29.7-29.7l0,0c0-16.4-13.3-29.6-29.7-29.7h-3.5c-17-0.1-30.8-13.8-30.9-30.9l0,0c0.1-17,13.8-30.8,30.9-30.9
				h10.8c6.6,0,12-5.4,12-12l0,0c0-6.6-5.4-12-12-12h-8c-4.6,0-8.3-3.7-8.3-8.3l0,0c0-4.6,3.7-8.3,8.3-8.3h53.5c7.2,0,13-5.8,13-13
				l0,0c0-7.2-5.8-13-13-13h-16c-4.6,0-8.3-3.7-8.3-8.3l0,0c0-4.6,3.7-8.3,8.3-8.3L377.9,93.8z M228.7,153c4.6,0,8.3-3.7,8.3-8.3
				s-3.7-8.3-8.3-8.3s-8.3,3.7-8.3,8.3v0C220.4,149.3,224.1,153,228.7,153z"/>
			<path class="st6" d="M366,93.8v3.6h11.9v0.3h-32.2v11.7h32.2v0.4H366v11.7h11.9v0.3h-32.2v11.7h32.2v0.4H366v11.7h11.9v0.4h-32.2
				v11.7h32.2v0.4H366v11.7h11.9v0.4h-32.2v11.7h32.2v0.4H366v11.7h11.9v0.4h-32.2v11.7h32.2v0.4H366v11.7h11.9v0.3h-32.2v11.7h32.2
				v0.3H366v11.7h11.9v0.3h-32.2v11.7h32.2v0.4H366v11.7h11.9v0.4h-32.2v11.7h32.2v0.4H366v11.7h11.9v0.4h-32.2v11.7h32.2v0.4H366
				v11.7h11.9v0.4h-32.2v11.7h32.2v0.4H366v11.7h11.9v0.4h-32.2v11.7h32.2v0.4H366v11.7h11.9v0.4h-32.2V374h32.2v0.4H366V386h11.9
				v0.4h-32.2V398h32.2v0.4H366V410h11.9v0.4h-32.2V422h32.2v0.4H366V434h11.9v0.4h-32.2v4.1h-0.4v-4.1h-40.3v4.1h-0.4v-4.1h-40.2
				v4.1h-0.4v-4.1h-35.2l-1-0.4h15.9v-11.6h-35.9l-0.4-0.4h16.1v-11.7h-27.1l-0.3-0.4h7.1v-11.7h-14.1L189,398h34.6v-11.7h-38.8
				l-0.1-0.4h18.6v-11.7h-20.6c0-0.1,0-0.2,0-0.4h0.3v-11.7h-0.3v-0.4h20.6v-11.7h-18.5l0.1-0.4h38.7v-11.7h-34.3l0.2-0.4h13.9
				v-11.7h-6.7l0.3-0.4h26.7v-11.7h-15.5l0.4-0.4h35.3v-11.7h-14.5l1-0.4h33.8v-6l0.4-0.2v6.1h40.2v-11.7h-31.9l0.4-0.4h11.2v-11.7
				h-3.8l0.1-0.4h23.9v-11.7h-22.5c0-0.1,0-0.2,0-0.4h2.3v-11.7h-5.9l-0.2-0.4h26.4V242H266l-0.7-0.4h19.1V230h-40.2v8.4l-0.4-0.1
				V230h-16.3l-0.4-0.4h36.9V218h-40.2v7.8l-0.4-0.5V218h-3.7l-0.1-0.4h24.1V206h-25.6c0-0.1,0-0.2,0-0.4h5.3v-11.7h-2l0.2-0.4h22.1
				v-11.7h-11.3l0.6-0.4h31v-5.3l0.4-0.1v5.4h40.2v-11.7h-33.8l0.1-0.4h13.4v-11.7h-14.9l-0.3-0.4h35.5v-11.7h-40.2v8.2l-0.4-0.1v-8
				h-20.4c0-0.1,0-0.2,0-0.4h0.2v-2.6c0.1-0.4,0.2-0.8,0.4-1.2v3.7h40.2v-9h0.4v9H325v-11.7h-11.7l0.5-0.4h31.5v-11.7h-26.9
				c0-0.1,0-0.2,0-0.3h6.6v-11.7h-38.7c-0.3-0.1-0.5-0.2-0.8-0.4h19.2V97.8h-22.3l0.2-0.3h1.8v-1.9l0.4-0.3v2.1H325v-3.6h0.4v3.6
				h40.2v-3.6H366z M236.9,145.8c0-0.1,0-0.2,0-0.4h-16.5c0,0.1,0,0.2,0,0.4h3.1v5.4l0.4,0.3v-5.7H236.9z M365.6,422.4h-40.2v11.7
				h40.2V422.4z M325,422.4h-40.2v11.7H325L325,422.4L325,422.4z M284.4,422.4h-40.2v11.7h40.2L284.4,422.4L284.4,422.4z
				 M345.3,410.4h-40.2V422h40.2V410.4L345.3,410.4z M304.7,410.4h-40.2V422h40.2L304.7,410.4L304.7,410.4z M264.1,410.4h-40.2V422
				h40.2L264.1,410.4L264.1,410.4z M365.6,398.4h-40.2V410h40.2L365.6,398.4L365.6,398.4z M325,398.4h-40.2V410H325L325,398.4
				L325,398.4z M284.4,398.4h-40.2V410h40.2L284.4,398.4L284.4,398.4z M243.9,398.4h-40.2V410h40.2L243.9,398.4L243.9,398.4z
				 M345.3,386.4h-40.2V398h40.2L345.3,386.4L345.3,386.4z M304.7,386.4h-40.2V398h40.2L304.7,386.4L304.7,386.4z M264.1,386.4
				h-40.2V398h40.2L264.1,386.4L264.1,386.4z M365.6,374.4h-40.2V386h40.2L365.6,374.4L365.6,374.4z M325,374.4h-40.2V386H325
				L325,374.4L325,374.4z M284.4,374.4h-40.2V386h40.2L284.4,374.4L284.4,374.4z M243.9,374.4h-40.2V386h40.2L243.9,374.4
				L243.9,374.4z M345.3,362.4h-40.2v11.7h40.2v-11.8L345.3,362.4z M304.7,362.4h-40.2v11.7h40.2v-11.8L304.7,362.4z M264.1,362.4
				h-40.2v11.7h40.2v-11.8L264.1,362.4z M223.6,362.4h-40.2v11.7h40.2v-11.8L223.6,362.4z M365.6,350.4h-40.2v11.7h40.2v-11.8
				L365.6,350.4z M325,350.4h-40.2v11.7H325v-11.8L325,350.4z M284.4,350.4h-40.2v11.7h40.2v-11.8L284.4,350.4z M243.8,350.4h-40.2
				v11.7h40.2v-11.8L243.8,350.4z M345.3,338.4h-40.2v11.7h40.2v-11.8L345.3,338.4z M304.7,338.4h-40.2v11.7h40.2v-11.8L304.7,338.4
				z M264.1,338.4h-40.2v11.7h40.2v-11.8L264.1,338.4z M365.6,326.4h-40.2v11.7h40.2v-11.9L365.6,326.4z M325,326.4h-40.2v11.7H325
				v-11.9L325,326.4z M284.4,326.4h-40.2v11.7h40.2v-11.9L284.4,326.4z M243.8,326.4h-40.2v11.7h40.2v-11.9L243.8,326.4z
				 M345.3,314.4h-40.2v11.7h40.2v-11.9L345.3,314.4z M304.7,314.4h-40.2v11.7h40.2v-11.9L304.7,314.4z M264.1,314.4h-40.2v11.7
				h40.2v-11.9L264.1,314.4z M365.6,302.4h-40.2v11.7h40.2v-11.9L365.6,302.4z M325,302.4h-40.2v11.7H325v-11.9L325,302.4z
				 M284.4,302.4h-40.2v11.7h40.2v-11.9L284.4,302.4z M345.3,290.4h-40.2v11.7h40.2v-11.9L345.3,290.4z M365.6,278.4h-40.2v11.7
				h40.2v-12L365.6,278.4z M325,278.4h-40.2v11.7H325v-12L325,278.4z M345.3,266.4h-40.2v11.7h40.2v-12L345.3,266.4z M365.6,254.4
				h-40.2v11.7h40.2v-12L365.6,254.4z M325,254.4h-40.2v11.7H325v-12L325,254.4z M345.3,242.4h-40.2v11.3h40.2V242L345.3,242.4z
				 M365.6,230.4h-40.2v11.7h40.2V230L365.6,230.4z M325,230h-40.2v11.7H325V230z M345.3,218h-40.2v11.7h40.2L345.3,218L345.3,218z
				 M304.7,218h-40.2v11.7h40.2L304.7,218L304.7,218z M365.6,206h-40.2v11.7h40.2L365.6,206L365.6,206z M325,206h-40.2v11.7H325V206
				z M284.4,206h-40.2v11.7h40.2L284.4,206L284.4,206z M345.3,194h-40.2v11.6h40.2L345.3,194L345.3,194z M304.7,194h-40.2v11.6h40.2
				L304.7,194L304.7,194z M264.1,194h-40.2v11.6h40.2L264.1,194L264.1,194z M365.6,182h-40.2v11.7h40.2L365.6,182L365.6,182z
				 M325,182h-40.2v11.7H325L325,182L325,182z M284.4,182h-40.2v11.7h40.2L284.4,182L284.4,182z M345.3,170h-40.2v11.7h40.2v-11.8
				L345.3,170z M365.6,158h-40.2v11.7h40.2v-11.8L365.6,158z M325,158h-40.2v11.7H325v-11.8L325,158z M345.3,146h-40.2v11.7h40.2
				v-11.8L345.3,146z M365.6,134h-40.2v11.7h40.2v-11.8L365.6,134z M365.6,110h-40.2v11.7h40.2v-11.9L365.6,110z M345.3,98h-40.2
				v11.7h40.2L345.3,98z"/>
			<path class="st7" d="M419.5,129.7h0.2c0.1,0,0.2,0.1,0.3,0.2v0.6h3.1v-0.9c0-0.1,0.1-0.2,0.3-0.2h3.3c0.1,0,0.3,0.1,0.3,0.2v2.1
				h1.3v-0.9c0-0.1,0-0.1,0.1-0.2c0.1,0,0.1-0.1,0.2-0.1h1.2c0.1,0,0.3,0.1,0.3,0.2v8.3h1.2c0.1,0,0.1,0,0.2,0.1
				c0,0,0.1,0.1,0.1,0.2v1.7h1v-0.4c0-0.1,0.1-0.2,0.3-0.2h0.6c0.1,0,0.2,0.1,0.3,0.2v-8.2c0-0.1,0.1-0.2,0.2-0.2l0.3-0.1h0
				c0-0.1,0-0.2,0-0.2c0-0.3,0-0.5,0-0.8c0-0.1,0.1-0.2,0.3-0.2h0.4v-4.7c0-0.1,0.1-0.2,0.3-0.2c0,0,0,0,0,0h0.5V124
				c0-0.1,0.1-0.2,0.3-0.2h0.2c0-0.1,0-0.3,0-0.4c0-0.5,0-1,0-1.5c0-0.1,0-0.1,0.1-0.2c0.1,0,0.1-0.1,0.2-0.1h4
				c0.1,0,0.3,0.1,0.3,0.2v1.9c0.1,0,0.3,0,0.4,0.1c0.1,0,0.1,0.1,0.1,0.2v1.8h0.5c0.1,0,0.3,0.1,0.3,0.2c0,0,0,0,0,0v4.7h0.5
				c0.1,0,0.3,0.1,0.3,0.2c0,0,0,0,0,0v1h0.2c0.1,0,0.3,0.1,0.3,0.2v18.4h2v-14.4c0-0.1,0-0.2,0-0.3c0-0.1,0-0.2,0.1-0.3
				c0.1-0.1,0.2-0.1,0.3-0.1l0,0v-1c0-0.1,0.1-0.2,0.3-0.2h0.4c0-0.2,0-0.3,0-0.5c0-0.5,0-1,0-1.5c0-0.2,0-0.3,0-0.5
				c0-0.1,0.1-0.2,0.2-0.3l0,0v-0.1c0-0.1,0-0.3,0-0.4c0-0.1,0-0.3,0-0.4c0-0.1,0.1-0.2,0.3-0.2h2c0.1,0,0.2,0,0.2,0.1
				c0-0.3,0-0.7,0-1c0-0.1,0.1-0.2,0.3-0.2h2.1c0.1,0,0.3,0.1,0.3,0.2v1.9l0,0c0.1,0,0.2,0.1,0.3,0.2c0.1,0,0.1,0.1,0.1,0.2v2.5h0.4
				c0.1,0,0.2,0.1,0.2,0.2l0.1,1l0.1,0.1c0.1,0.1,0.2,0.2,0.2,0.3l0,0v12.5h1.9v-1.9c0-0.1,0-0.1,0.1-0.2c0.1,0,0.1-0.1,0.2-0.1h0.7
				c0.1,0,0.2,0.1,0.3,0.2v1.9h1.3c0.1,0,0.2,0.1,0.3,0.2v0.6h0.2v-1.3c0-0.1,0.1-0.2,0.3-0.2h1.9c0.1,0,0.3,0.1,0.3,0.2
				c0,0.2,0,0.4,0,0.6c0,0,0.1,0,0.1,0h1.8c0.1,0,0.3,0.1,0.3,0.2v0.5l0,0c0-0.1,0.1-0.2,0.1-0.2c0-0.2,0-0.4,0-0.6
				c0-0.2,0-0.5,0-0.8c0-0.1,0.1-0.2,0.3-0.2h1.5v-28.6h1v40.6h-46L419.5,129.7z"/>
			<path class="st3" d="M571.4,181.8c-8.7-8.8-15.1,2.4-14.2,13.6c0.8,10.7,10,47.3,8.3,62.7h3.5
				C577.7,238.3,582.5,193.1,571.4,181.8z"/>
			<path class="st2" d="M567.8,258.1c8.4-31.1-2.2-74.2-2.3-74.3c-0.1-0.3-0.3-0.4-0.6-0.4c-0.3,0.1-0.4,0.3-0.4,0.6
				c0,0.1,10.7,43.2,2.2,74.1H567.8z"/>
			<path class="st4" d="M550,201.2c-9.1-4.8-11.4,5.7-7.9,14.5c3,7.2,16,28.6,20.9,42.4h4.6C568.1,239.1,560.8,206.9,550,201.2z"/>
			<path class="st8" d="M566,258.1c-3-25.7-20.1-53.7-20.2-53.8c-0.1-0.2-0.3-0.3-0.5-0.2s-0.3,0.3-0.2,0.5c0,0,0,0.1,0.1,0.1
				c0.1,0.1,17,27.9,20.1,53.3H566z"/>
			<path class="st8" d="M588.6,213.4c8.8-3.9,10.3,6.1,6.3,14c-2.7,5.3-12.2,19-18.7,30.6h-7.4C571.4,240.5,579.5,217.4,588.6,213.4
				z"/>
			<path class="st2" d="M571.5,258.1c6.3-21.3,20.8-41.4,20.8-41.5c0.1-0.2,0.3-0.3,0.5-0.2c0.2,0.1,0.3,0.3,0.2,0.5
				c0,0,0,0.1-0.1,0.1c-0.1,0.1-14.4,20-20.7,41L571.5,258.1z"/>
			<path class="st5" d="M557.5,251.1h25.9c0.8,0,1.4,0.6,1.4,1.4v6.4c0,0.8-0.6,1.4-1.4,1.4h-25.9c-0.8,0-1.4-0.6-1.4-1.4v-6.4
				C556.1,251.7,556.7,251.1,557.5,251.1z"/>
			<polygon class="st5" points="562,256.3 579,256.3 583.5,260.3 579.8,274.3 570.5,274.3 561.2,274.3 557.5,260.3 			"/>
			<polygon class="st3" points="583.5,260.3 582.7,263.2 558.3,263.2 557.5,260.3 			"/>
			<polygon class="st5" points="533.3,256.3 514.2,256.3 522.5,274.3 541.7,274.3 			"/>
			<polygon class="st3" points="498.8,237.4 538,237.4 529.1,274.3 489.9,274.3 			"/>
			<polygon class="st4" points="503.6,244.2 529.9,244.2 524.3,267.5 498,267.5 			"/>
			<polygon class="st1" points="520.1,267.5 498,267.5 501.3,253.8 504.5,251.7 515.5,261.5 			"/>
			<polygon class="st9" points="526.3,259.2 524.3,267.5 498,267.5 498.6,265 518.1,251.9 			"/>
			<path class="st4" d="M588.5,335.6L588.5,335.6c2.7,0,4.8,2.2,4.8,4.8l0,0c0,2.7-2.2,4.8-4.8,4.8l0,0c-2.7,0-4.8-2.2-4.8-4.8l0,0
				C583.7,337.8,585.8,335.7,588.5,335.6z"/>
			<path class="st4" d="M533.8,348.9h13.3c1,0,1.9-0.8,1.9-1.8c0,0,0,0,0,0l0,0c0-1-0.8-1.8-1.8-1.8h-18c-2.7,0-4.8-2.2-4.8-4.8l0,0
				c0-2.7,2.2-4.8,4.8-4.8h46.7c2.7,0,4.8,2.2,4.8,4.8l0,0c0,2.7-2.2,4.8-4.8,4.8h-16.3c-1,0-1.8,0.8-1.8,1.8l0,0
				c0,1,0.8,1.8,1.8,1.8h6.3c2,0,3.7,1.7,3.7,3.7l0,0c0,2-1.7,3.7-3.7,3.7h-10.4c-4.1,0-7.4,3.3-7.4,7.4v3.4c0,1-0.8,1.7-1.7,1.7
				l0,0c-1,0-1.7-0.8-1.7-1.7v-6.4c0-2.4-1.9-4.3-4.3-4.3h-6.5c-2,0-3.7-1.7-3.7-3.7l0,0C530.1,350.6,531.7,349,533.8,348.9z"/>
			<circle class="st4" cx="322.7" cy="248.3" r="1"/>
			<circle class="st4" cx="475.1" cy="225.3" r="1"/>
			<circle class="st4" cx="396" cy="161.8" r="1"/>
			<circle class="st4" cx="315" cy="290.8" r="1"/>
			<circle class="st4" cx="458.7" cy="296.5" r="1"/>
			<circle class="st4" cx="476.7" cy="189.2" r="1"/>
			<circle class="st4" cx="301.2" cy="170.9" r="1"/>
			<circle class="st4" cx="502.2" cy="184.1" r="2.1"/>
			<circle class="st4" cx="453.8" cy="209" r="2.1"/>
			<circle class="st4" cx="362.5" cy="152.2" r="2.1"/>
			<circle class="st4" cx="325.2" cy="193.9" r="2.1"/>
			<circle class="st4" cx="345.3" cy="298.1" r="2.1"/>
			<circle class="st4" cx="458.7" cy="297.7" r="2.1"/>
			<path class="st10" d="M415.1,177.8c-4.9,4.5-8.1,10.5-9.1,17.1c-1.4,10.3,8.1,22.9,8.1,22.9L415.1,177.8z"/>
			<g>
				<defs>
					<rect id="SVGID_1_" x="131" y="146.9" width="432.4" height="293.3"/>
				</defs>
				<clipPath id="SVGID_2_">
					<use xlink:href="#SVGID_1_"  style="overflow:visible;"/>
				</clipPath>
				<g class="st11">
					<path class="st3" d="M158.8,290.7L158.8,290.7c0.9,0,1.6,0.7,1.6,1.6v3c0,0.9-0.7,1.6-1.6,1.6h0c-0.9,0-1.6-0.7-1.6-1.6v-3
						C157.2,291.5,157.9,290.7,158.8,290.7z"/>
					<path class="st3" d="M158.8,298L158.8,298c0.9,0,1.6,0.7,1.6,1.6v3c0,0.9-0.7,1.6-1.6,1.6h0c-0.9,0-1.6-0.7-1.6-1.6v-3
						C157.2,298.7,157.9,298,158.8,298z"/>
					<path class="st3" d="M158.8,305.1L158.8,305.1c0.9,0,1.6,0.7,1.6,1.6v3c0,0.9-0.7,1.6-1.6,1.6h0c-0.9,0-1.6-0.7-1.6-1.6v-3
						C157.2,305.8,157.9,305.1,158.8,305.1z"/>
					<path class="st12" d="M158.8,312.3L158.8,312.3c0.9,0,1.6,0.7,1.6,1.6v3c0,0.9-0.7,1.6-1.6,1.6h0c-0.9,0-1.6-0.7-1.6-1.6v-3
						C157.2,313,157.9,312.3,158.8,312.3z"/>
					<path class="st12" d="M158.8,319.4L158.8,319.4c0.9,0,1.6,0.7,1.6,1.6v3c0,0.9-0.7,1.6-1.6,1.6h0c-0.9,0-1.6-0.7-1.6-1.6v-3
						C157.2,320.1,157.9,319.4,158.8,319.4z"/>
					<path class="st12" d="M158.8,326.5L158.8,326.5c0.9,0,1.6,0.7,1.6,1.6v3c0,0.9-0.7,1.6-1.6,1.6h0c-0.9,0-1.6-0.7-1.6-1.6v-3
						C157.2,327.3,157.9,326.5,158.8,326.5z"/>
					<path class="st12" d="M158.8,333.7L158.8,333.7c0.9,0,1.6,0.7,1.6,1.6v3c0,0.9-0.7,1.6-1.6,1.6h0c-0.9,0-1.6-0.7-1.6-1.6v-3
						C157.2,334.4,157.9,333.7,158.8,333.7z"/>
					<path class="st12" d="M158.8,340.8L158.8,340.8c0.9,0,1.6,0.7,1.6,1.6v3c0,0.9-0.7,1.6-1.6,1.6h0c-0.9,0-1.6-0.7-1.6-1.6v-3
						C157.2,341.5,157.9,340.8,158.8,340.8z"/>
					<path class="st4" d="M159.9,345.1c0.7,0,1.2,0.5,1.4,1.1l3.9,12.4c0.2,0.4,0,0.8-0.4,1c-0.1,0-0.2,0.1-0.3,0.1h-11.3
						c-0.4,0-0.8-0.3-0.8-0.7c0-0.1,0-0.2,0.1-0.3l3.9-12.4c0.2-0.6,0.8-1,1.4-1.1H159.9z"/>
					<path class="st13" d="M189.1,298.3h4.2c1,0,1.8,0.8,1.8,1.8v384.2c0,1-0.8,1.8-1.8,1.8h-4.2c-1,0-1.8-0.8-1.8-1.8V300.1
						C187.2,299.1,188,298.3,189.1,298.3z"/>
					<path class="st13" d="M185.4,265H197c2.8,0,5.1,2.3,5.1,5v32.6c0,2.8-2.3,5-5.1,5h-11.6c-2.8,0-5.1-2.3-5.1-5V270
						C180.3,267.3,182.6,265,185.4,265z"/>
					<path class="st14" d="M185.4,669.8H197c2.8,0,5.1,2.3,5.1,5v22.5c0,2.8-2.3,5-5.1,5h-11.6c-2.8,0-5.1-2.3-5.1-5v-22.5
						C180.3,672.1,182.6,669.8,185.4,669.8z"/>
					<path class="st14" d="M213.3,705H169c-2.4,0-4.3-2-4.3-4.3l0,0c0-2.4,1.9-4.3,4.3-4.4h44.3c2.4,0,4.3,1.9,4.3,4.3l0,0
						C217.7,703,215.7,705,213.3,705z"/>
					<path class="st1" d="M191.2,215.7h20.5c3.4,0.2,6.4,2.5,7.5,5.7l20.6,65.2c1,3.1-0.8,5.7-3.9,5.7h-89.5c-3.1,0-4.9-2.6-3.9-5.7
						l20.6-65.2c1.1-3.2,4.1-5.5,7.5-5.7H191.2z"/>
					<path class="st3" d="M230.8,258.1l2.4,7.4h-83.9l2.4-7.4H230.8z M234.6,270l4.7,14.9h-96.2l4.7-14.9H234.6z"/>
					<circle class="st1" cx="158.8" cy="297.5" r="0.9"/>
					<circle class="st1" cx="158.8" cy="304.6" r="0.9"/>
					<circle class="st1" cx="158.8" cy="311.7" r="0.9"/>
					<circle class="st14" cx="158.8" cy="318.9" r="0.9"/>
					<circle class="st14" cx="158.8" cy="326" r="0.9"/>
					<circle class="st14" cx="158.8" cy="333.2" r="0.9"/>
					<circle class="st14" cx="158.8" cy="340.3" r="0.9"/>
					<path class="st13" d="M344.9,425.7h21.8c9.7,0,16.3-3.2,24.6-17.6l18.8-32.5c0,0,7.2-11.8,25.5-11.8h55c7.1,0,21,1,25.7,12.3
						c4.7,11.3,22.9,55.5,22.9,55.5l-34.7,2.7l-33.3,56.6c0,0-45.9,3.7-55,2.6s-44-3.1-44-3.1L344.9,425.7z"/>
					<path class="st15" d="M418.6,278.7c-4.8,1.5-9.2,4.3-12.6,8c-3.3,3.6-39.9,72.8-42.8,77.5s-4.3,17,0.1,25.1s30.3,54,30.3,54
						l9.9-14.7c0,0-20.7-45.9-21.6-48.2s-1.2-4.5,1.4-8s28.2-34.4,28.2-34.4S429.9,294.2,418.6,278.7z"/>
					<path class="st16" d="M441.4,507.8h1.5c1.1,0,2.1,0.9,2.1,2.1l0,0V695c0,1.1-0.9,2.1-2.1,2.1h-1.5c-1.1,0-2.1-0.9-2.1-2.1
						V509.9C439.3,508.7,440.2,507.8,441.4,507.8z"/>
					<path class="st17" d="M439.3,502.5h5.7c4.3,0,7.7,3.5,7.7,7.7v7.5c0,4.3-3.5,7.7-7.7,7.7h-5.7c-4.3,0-7.7-3.5-7.7-7.7v-7.5
						C431.6,506,435,502.5,439.3,502.5z"/>
					<path class="st17" d="M437.4,685.8h9.4c2.3,0,4.1,1.8,4.1,4.1v3c0,2.3-1.8,4.1-4.1,4.1h-9.4c-2.3,0-4.1-1.8-4.1-4.1v-3
						C433.3,687.6,435.2,685.8,437.4,685.8z"/>
					<path class="st18" d="M417.3,691.4H467c3.5,0,6.3,2.8,6.3,6.3v4.7c0,3.5-2.8,6.3-6.3,6.3h-49.7c-3.5,0-6.3-2.8-6.3-6.3v-4.7
						C410.9,694.2,413.8,691.4,417.3,691.4z"/>
					<path class="st18" d="M481.7,506.4L481.7,506.4c0-3-2.4-5.4-5.5-5.5H408c-3,0-5.4,2.4-5.5,5.5l0,0c0,3,2.4,5.4,5.5,5.5h68.3
						C479.3,511.8,481.7,509.4,481.7,506.4z"/>
					<path class="st16" d="M496.4,504.1L496.4,504.1c0-1.7-1.4-3.1-3.1-3.1H391c-1.7,0-3.1,1.4-3.1,3.1l0,0c0,1.7,1.4,3.1,3.1,3.1
						h102.3C495,507.2,496.4,505.8,496.4,504.1z"/>
					<path class="st19" d="M423.9,492.2h69.3c3.3,0,6,2.7,6,6l0,0c0,3.3-2.7,6-6,6h-69.3c-3.3,0-6-2.7-6-6l0,0l0,0
						C417.9,494.9,420.6,492.2,423.9,492.2z"/>
					<path class="st20" d="M384.4,492.2h59.1c3.3,0,6,2.7,6,6l0,0c0,3.3-2.7,6-6,6l0,0h-59.1c-3.3,0-6-2.7-6-6l0,0l0,0
						C378.4,494.9,381.1,492.2,384.4,492.2z"/>
					<path class="st15" d="M507.4,376.1c4,9.5,17.5,42.2,21.7,52.5h5.6c2,0,3.8,1.2,4.6,3.1c0,0-18.3-44.2-22.9-55.5
						s-18.6-12.3-25.7-12.3h-8.9C488.8,363.8,502.7,364.8,507.4,376.1z"/>
					<path class="st21" d="M320.5,435.6c-2.7,0.4-5.3-1.5-5.6-4.3s1.5-5.3,4.3-5.6c0.4-0.1,0.9-0.1,1.3,0h26.7
						c2.1,0,3.9,1.3,4.6,3.2l26.9,59.5h90.4l32.4-57.2c0.9-1.5,2.5-2.5,4.3-2.5h28.8c2.7-0.4,5.3,1.5,5.6,4.3
						c0.4,2.7-1.5,5.3-4.3,5.6c-0.4,0.1-0.9,0.1-1.3,0h-26l-32.2,56.9c-0.8,1.7-2.6,2.8-4.5,2.9h-96.4c-2,0-3.8-1.1-4.5-2.9
						l-27-59.7L320.5,435.6z"/>
					<path class="st16" d="M339.4,652c0,0-31.4-148.2-32.9-164.9c-1.5-16-10.4-39.1,91.7-55c4.3-0.7,7.6-5,12.3-5.7
						c0,0,81.3,3.9,90.2,7.5s-14.5,34.2-90.6,41.4s-56.6,32.9-56.6,32.9s2.7,136.2,4.5,143.4S346.8,662.5,339.4,652z"/>
					<path class="st18" d="M414,418.3c-3.5,1.5-9.4,15-13.7,16.5c-17.1,6.3-38.9,13-49.2,20c-11,7.5-15.6,18.4-18.9,27.1
						c-4.4,11.4-56.2,130.7-59.2,135.7s6.1,13,9.7,14.9s8.5-4.9,8.5-4.9s65.3-111.8,84.2-139.3l80.8,0.1c0,0,25.9-4.2,40-22.5
						c15.2-19.7,2.7-67.7-4-68.3c-12.7-1.2-52-7.4-72.3,2.6C407.5,406.1,419.5,418.4,414,418.3z"/>
					<path class="st16" d="M414,418.3c-3.5,1.6-9.4,15-13.7,16.5l-4.2,1.5c0,0,42-9.3,54.5,4.6s11.1,34.5-28.7,35.9s-46,1.4-51.6,0
						s-48.5,84.9-59.7,97.1c-4.3,4.7-10.9,2.7-17.5-1.5c-10.4,23.6-19,43.1-20.2,45c-3,5,6.1,13,9.7,14.9s8.5-4.9,8.5-4.9
						s65.3-111.8,84.2-139.3l80.8,0.1c0,0,25.9-4.2,40-22.5c15.2-19.7,2.7-67.7-4-68.3c-12.7-1.2-52-7.4-72.3,2.6
						C407.5,406.1,419.5,418.4,414,418.3z"/>
					<path class="st22" d="M266.7,614.9l13,6.7c1.1,0.6,1.5,1.9,1,2.9l-4.9,9.5c-0.6,1.1-1.9,1.5-2.9,1l-13-6.7
						c-1.1-0.6-1.5-1.9-0.9-2.9l4.9-9.5C264.3,614.8,265.6,614.3,266.7,614.9C266.7,614.9,266.7,614.9,266.7,614.9z"/>
					<path class="st23" d="M287.7,647c0.1,0.6,0.3,1.1,0.5,1.7c0.2,0.4-2.2,4.7-2.4,5.1c-0.8,1.8-2.4,2.9-4.2,2l-11-5.7l6.5-8.5
						l6.3-1.5L287.7,647z"/>
					<path class="st22" d="M278.3,602.7l12,6.1c1.3,0.7,1.9,2.3,1.2,3.7L281,632.9c-0.7,1.3-2.3,1.9-3.7,1.2l-12-6.1
						c-1.3-0.7-1.9-2.3-1.2-3.7l10.5-20.4C275.3,602.5,276.9,602,278.3,602.7C278.3,602.7,278.3,602.7,278.3,602.7z"/>
					<path class="st21" d="M278.9,641.2c1.2-0.9,3,1.1,4.6-1.1c5.8-7.5,12.9-23.8,12-24.3l-6.2-3.2c-0.7-0.4,0.2,0.6-3.5,1
						c-3-1.5-8.9,7.3-14.4,10.8c-3.1,2-3.2,1.7-4.6,1l-1.7-0.9c-1.1-0.6-4.2-0.9,0.3-4.3s8.7-6.7,9.7-8.6s0.2-5.5-0.4-6.5
						s-3.3-0.6-4.1-0.3c-0.9,0.4-1.6,1.1-2,2.1l-3.3,6.5c-0.8,1.5-13.9,6.5-15.8,10.2l-2.1,4c-0.4,0.7-0.5,1.5-0.4,2.3
						c0,0.4,0,0.9,0,1.3l27.8,14.3C276.7,644.5,278.1,643,278.9,641.2z"/>
					<path class="st24" d="M287.7,647l6-11.8c1-1.8-0.2-4.1,1.1-6.7l4.1-8c0.5-0.9-0.9-3.5-1.6-3.9l-6.2-3.2c0,0,0.9,3.8,0.9,4.2
						c0,0.7-2.7,5.2-4,7.8s0,5.3-0.4,6l-2.1,4c-0.8,1.7-4.3,4.8-9.6,1.7s-3.1-5.4-10.1-9l-10.8-5.5c-1-0.4-1.7-1.1-2.1-2.1
						c-1.4,0.6-2.6,1.7-3.4,3l-2.1,4c-0.4,0.7-0.5,1.6-0.3,2.3c0.1,0.5,0.1,0.9,0.1,1.4l30.1,15.5c0-1,0.3-2.1,0.7-3l0.3-1.5
						c1.1-0.3,2.3-0.1,3.2,0.5l4.2,2.1C286.5,645.5,287.1,646.2,287.7,647L287.7,647z"/>
					<path class="st4" d="M278.5,642.3c0,0,1.2,1.8,1.4,2.2s-2.2,4.7-2.4,5.1c-0.9,0.9-2,1.5-3.2,1.9c-0.6,0.1-1.3,0-1.9-0.3
						l-25.1-12.9l-3.2-1.7c-0.8-0.4-1.1-1.3-0.7-2.1l1.9-3.8c0.3-0.7,1.8-0.8,1.8-0.8s2.1,2.7,5.1,2.2s5.7-0.5,8.2,2
						S270.3,646,278.5,642.3z"/>
					<path class="st23" d="M278.5,642.3c0,0,1.2,1.8,1.4,2.2s-2.2,4.7-2.4,5.1c-0.9,0.9-2,1.5-3.2,1.9c-0.6,0.1-1.3,0-1.9-0.3
						l-18.6-9.5c-1.6-1.6-3.1-3-3.1-3l17.6,9c2.3,1.2,4,1,4.4,0.2l1.7-3.4c0.1-0.4,0.1-0.9-0.1-1.3
						C275.8,643.1,277.2,642.8,278.5,642.3z"/>
					<path class="st16" d="M260.6,641.6c1.5,2.3,3.4,4.3,5.4,6.1l-18.7-9.6l-3.2-1.7c-0.8-0.4-1.1-1.3-0.7-2.1l0.3-0.6
						c0,0,2.1,2.9,5.1,2.2S256.6,636.1,260.6,641.6z"/>
					<path class="st4" d="M264.1,618.8c-0.3-0.3-0.2-0.6,0.2-0.8c0.4-0.2,0.8-0.1,1.1,0.2l3.9,4.1l6.7,1.4c0.4,0.1,0.7,0.4,0.6,0.7
						c-0.2,0.3-0.6,0.5-1,0.4l-4.8-1l2.8,2.9c0.3,0.3,0.2,0.6-0.2,0.8c-0.4,0.2-0.8,0.1-1.1-0.2l-3.9-4.1l-6.7-1.4
						c-0.4-0.1-0.7-0.4-0.6-0.7c0.2-0.3,0.6-0.5,1-0.4l4.8,1L264.1,618.8L264.1,618.8z M285.4,614.6l-6.7-1.4l-3.9-4.1
						c-0.3-0.3-0.8-0.3-1.1-0.2c-0.4,0.2-0.5,0.5-0.2,0.8l2.8,2.9l-4.8-1c-0.4-0.1-0.8,0.1-1,0.4c-0.1,0.3,0.1,0.6,0.6,0.7l6.7,1.4
						l3.9,4.1c0.3,0.3,0.8,0.3,1.1,0.2c0.4-0.2,0.5-0.5,0.2-0.8l-2.8-2.9l4.8,1c0.4,0.1,0.8-0.1,1-0.4
						C286.1,615,285.8,614.7,285.4,614.6L285.4,614.6z M280.7,619.1l-6.7-1.4l-3.9-4.1c-0.3-0.3-0.8-0.3-1.1-0.2
						c-0.4,0.2-0.5,0.5-0.2,0.8l2.8,2.9l-4.8-1c-0.4-0.1-0.8,0.1-1,0.4c-0.1,0.3,0.1,0.6,0.6,0.7l6.7,1.4l3.9,4.1
						c0.3,0.3,0.8,0.3,1.1,0.2c0.4-0.2,0.5-0.5,0.2-0.8l-2.8-2.9l4.8,1c0.4,0.1,0.8-0.1,1-0.4C281.4,619.5,281.2,619.2,280.7,619.1z
						"/>
					<path class="st25" d="M461.6,244.5l-0.1,7.4c0,0,0.5,15.7,0.6,17.3s0.9,2.3,2.9,3.6c2.8,4.3-4.1,23.2-9.4,24s-30-0.7-31.7-2
						c-1.2-0.9,10.9-17.4,10.1-20.1c1-0.2,2-0.7,2.8-1.3c5.1-4.5,4.1-16.6,0.2-20.9C434,249.4,461.6,244.5,461.6,244.5z"/>
					<path class="st26" d="M417.9,301.9c4.4-2.6,7-0.5,12,4.1s9.6,4.1,12.3,5.1s4.1,44.5-13.2,51.3c-6.4,2.5-10.5,0-13.2-5.1
						C411,348.1,406.5,308.6,417.9,301.9z"/>
					<path class="st1" d="M499.3,419c-2.1,4.7-9.1,8.6-17.6,11.5c-12.6-4.9-34,2.6-50.2,1.9c-18.4-0.9-25.9-5.1-25.9-5.1l-1.2,0.8
						c-0.5-0.3-0.9-0.8-1.3-1.3l0,0c-2.1-3.2-1.1-8-0.2-12.2c1.5-7.6,7.9-2.3,5.1-38.5s-12.4-97.8,26.4-102.4c0,0-0.4,0.9-1,2.5
						l1.6,0.1c0,0-3.5,11,3.8,14.6s15.2-1.5,18.7-5.7c0.4-0.6,1.1-0.9,1.8-0.9c2.4-3.1,5.1-6.3,8-9.5c8.2,1.3,21.3,7.3,21.3,7.3
						c6.6,2.9,13.8,9,15.1,15.6c1.8,9.4-7.6,41.1-14,61.6C478.8,393.6,505.3,405.4,499.3,419z"/>
					<path class="st27" d="M437.8,302.5c0,0-17.7,67.5-20.4,81c-0.2,2.2,0.3,4.3,1.4,6.2c1.9,3.4,8,14.7,9,16s1.7,0.4,2.9-0.8
						s9.1-9.4,10.4-10.9c0.7-0.9,1.4-2,1.3-5.1c-0.4-18.8-2-36-1-56.3c0.5-11,1.3-21.5,2.4-28.5l5.5-5.5l-2.4-4.9
						c-2.1-1.1-4.4-1.6-6.8-1.5c-2,0.1-3.9,1.2-4.9,3L437.8,302.5z"/>
					<path class="st27" d="M414.7,430.3c-3.2-0.6-6.2-1.6-9.1-3l-1.2,0.8c-0.5-0.3-0.9-0.8-1.3-1.3l0,0c-2.1-3.2-1.1-8-0.2-12.2
						c1.5-7.6,7.9-2.3,5.1-38.5c-2.5-32.3-10.4-85.1,15.7-99.1c5.8,4,9.3,10.6,9.2,21l-0.5,2.4c-0.7,0.7-1.4,1.5-2,2.3
						c-0.2,0.4-4.3,48.4-4.3,48.4L414.7,430.3z"/>
					<path class="st13" d="M436.2,302.5c0,0-17.7,67.5-20.4,81c-0.2,2.2,0.3,4.3,1.4,6.2c1.9,3.4,8,14.7,9,16s1.7,0.4,2.9-0.8
						s9.1-9.4,10.4-10.9c0.7-0.9,1.4-2,1.3-5.1c-0.4-18.8-2-36-1-56.3c0.5-11,1.3-21.5,2.4-28.5l-1.5-5.9
						C440.8,298.3,436.3,300.4,436.2,302.5z"/>
					<path class="st15" d="M429.2,405c1.2-1.1,9.1-9.4,10.4-10.9c0.7-0.9,1.4-2,1.3-5.1c-0.4-18.8-2-36-1-56.3
						c0.5-11,1.3-21.5,2.4-28.5l-1.1-4.3l-2.4,1.2l-0.8,1.2c0.6,0.6,1.1,1.3,1.5,2c0.5,1.1-3,36.8-3.8,45.2s-1.8,40.9-1.7,43
						S429.2,405,429.2,405z"/>
					<path class="st15" d="M427.4,336.5c-4.9,19-10.2,40.1-11.5,47c-0.2,2.2,0.3,4.3,1.4,6.2c0.6,1,1.5,2.7,2.6,4.7l6.3-43.4
						C426.2,351.1,426.7,344.7,427.4,336.5z"/>
					<path class="st13" d="M433.7,295.4l2.5,7.2c2.1-0.7,4.5-0.1,6,1.6l5.5-5.5l-2.4-4.9c-2.1-1.1-4.4-1.6-6.8-1.5
						C436.6,292.4,434.7,293.6,433.7,295.4z"/>
					<path class="st15" d="M439.6,302.5c1,0.3,2,0.9,2.6,1.7l5.5-5.5l-2.4-4.9c-2.1-1.1-4.4-1.6-6.8-1.5c-0.3,0-0.5,0.1-0.8,0.1
						l-0.1,0.3c1.3,0.9,2.6,1.8,3.8,2.9C442.3,296.5,439.6,302.5,439.6,302.5L439.6,302.5z"/>
					<path class="st4" d="M468,273c1.1,0.7,2.1,1.5,3.1,2.4c0.5,1,0.5,2.2,0,3.2c-0.7,1.9-19.1,24.9-19.1,24.9s-0.6,0.8-1.4-0.1
						s-8-11.4-8-11.4l23-19.7C466.2,271.6,467.3,272.6,468,273z"/>
					<path class="st4" d="M437.1,273.1C437.1,273.1,437.1,273.1,437.1,273.1c-1.7-0.5-4.9,0.1-6,1.2c-3.3,3.1-0.5,22.3,0.4,25.5l0,0
						c0.5,0.5,1.2,0.6,1.8,0.3c1-0.6,6.6-8.7,6.6-8.7C439.2,289.8,432.7,281.7,437.1,273.1z"/>
					<path class="st15" d="M469.6,274.1c0,0-26,55.2-28.9,81.1s18.5,80,19.9,83s28.4,15.8,41,15.8c0,0,2-0.1,2.5-0.6s2.4-2.7,3-3.5
						c0.9-1.3,1.1-2.9,0.6-4.4c-0.6-2.1-13.1-67.8-14.7-76.4s10-53.8,11.7-62.2S508.9,283.1,469.6,274.1z"/>
					<path class="st13" d="M463.3,288.1c-7.9,18.1-20.6,49.4-22.6,67.2c-0.2,1.6-0.3,3.3-0.3,4.9c3.1-7.4,5.8-11.9,11.1-17.2
						c4.8-4.8,11.7-11.1,15.8-14.5c6.3-5.2,14.2-10.3,13.1-16.1s-4.9-23.1-4.9-23.1L463.3,288.1z"/>
					<path class="st22" d="M457.9,488.3h17.6l29-54l34.6,1.4l-34,59.7c-0.8,1.7-2.6,2.8-4.5,2.9h-42.7V488.3z"/>
					<path class="st21" d="M455.4,488.3h13.8l32.4-57.2c0.9-1.5,2.5-2.5,4.3-2.5h28.8c2.7-0.4,5.3,1.5,5.6,4.3
						c0.4,2.7-1.5,5.3-4.3,5.6c-0.4,0.1-0.9,0.1-1.3,0h-26l-32.2,56.9c-0.8,1.7-2.6,2.8-4.5,2.9h-16.6V488.3z"/>
					<path class="st15" d="M431.1,274.3c0,0-5.2,67.5-6.6,75.5s-13,71.9-14,76.6s-14.4,6.1-14.4,6.1s7.6-63.1,7.7-64.9
						s0.3-48.7,0.3-54.4s6.7-26.8,7.8-29.1S420.3,276.4,431.1,274.3z"/>
					<path class="st13" d="M429.7,292.4c-1.6,20.6-4.2,52.1-5.2,57.5c-0.3,1.5-0.9,5-1.7,9.7c0,0-7.1-53.3-6.6-55.2s8.7-17,8.7-17
						L429.7,292.4z"/>
					<path class="st3" d="M431.1,274.3c0,0-0.9,11-2,24.7c-3.7-4.9-8.4-11.4-7.9-12.2c0.9-1.4,7-11.8,7.1-11.8
						C429.2,274.7,430.2,274.5,431.1,274.3z"/>
					<path class="st3" d="M477.8,276.3c0,0.1,4,17.1,4.1,18.4c0.1,1-19.4,11.3-27.8,15.7c7.6-19.4,15.5-36.2,15.5-36.2
						C472.5,274.8,475.2,275.5,477.8,276.3z"/>
					<path class="st15" d="M494.9,283.7c4.5,2.4,8.2,6,10.9,10.3c2.6,4.2,32.3,82.6,34.2,87.7s1,17.5-4.9,24.6
						c-2.4,2.9-9.5,11.2-17,20.1c-6.7,7.9-18.6,7.3-27.9,7.9c6.6-9.4,27.3-38.5,28.5-40.2c1.3-2.1,2.1-4.2,0.2-8.1
						s-27.2-44.8-27.2-44.8S480.9,296.7,494.9,283.7z"/>
					<path class="st28" d="M540.6,392c-0.6,5-2.3,10.4-5.5,14.3c-2.6,3.1-10.6,12.5-18.7,22.1c-1.1,1.3-8.2,8.1-14.5,8.1
						c-0.4,0-10.8-2.6-11.3-2.8l6-8.4c6-0.3,20.1-1.1,20.8-2c0.9-1.1,16.2-17.6,19.3-21.9C538.5,398.6,539.9,395.4,540.6,392z"/>
					<path class="st28" d="M495.6,347.6L495.6,347.6l-1.1-19.9c8.7,14.3,21.6,38.5,24.3,44.2c5.1,10.8,5.5,16.8,5.5,18.5
						s-1.3,0.7-2.2,1.2s-6.2,6.4-6.2,6.4c1.5-2.1,2.5-3.5,2.7-3.9c1.3-2.1,2.1-4.2,0.2-8.1C517.4,383,502.8,359.3,495.6,347.6z"/>
					<path class="st28" d="M464.5,441.2l0.2,0.1c1.7,0.4,16.6,11.6,29.7,11.8l7.4-16.6c-4-5.8-3.8-13.5,0.4-19.2
						c-3.8-19.7-8.3-43.3-9.2-48.2c-0.8-4.5,1.9-18.9,5-32.9l-3.5-8.5c0,0-7.3,31.4-8.1,33.8s-12.9,0.2-14.4,0.1s10.4,4.5,12.6,5.5
						s6.1,40.6,5.9,44S465.8,440,464.5,441.2z"/>
					<path class="st28" d="M421,277.5c-5,5.4-13.2,16.6-16.6,34c0,0.1-0.1,0.2-0.1,0.3c0.8-5.1,2-10.2,3.6-15.1
						c2.7-6.5,6.3-12.6,10.9-18C419.4,278.3,420.1,277.9,421,277.5z"/>
					<path class="st28" d="M495.3,333.4c0,0.3-0.2,0.5-0.5,0.5s-0.5-0.2-0.5-0.5c0-0.1-0.8-34,7.4-44.6l0.6,0.6
						C494.5,299.4,495.3,333.2,495.3,333.4z"/>
					<path class="st29" d="M484,422.7h12.3c3.5,0,6.4,2.9,6.4,6.4l0,0c0,3.5-2.9,6.4-6.4,6.4H484c-3.5,0-6.4-2.9-6.4-6.4l0,0
						C477.6,425.5,480.5,422.7,484,422.7z"/>
					<circle class="st25" cx="415.1" cy="229.4" r="10.2"/>
					<circle class="st25" cx="484.9" cy="229.4" r="10.2"/>
					<path class="st30" d="M447.7,167.7L447.7,167.7c19.2,0.1,34.8,15.6,34.9,34.9v31.7c-0.1,19.2-15.6,34.8-34.9,34.9l0,0
						c-19.2-0.1-34.8-15.6-34.9-34.9v-31.7C412.9,183.3,428.5,167.8,447.7,167.7z"/>
					<path class="st31" d="M461.9,170.8L461.9,170.8c12.6,5.7,20.6,18.1,20.6,31.8v31.7c-0.1,19.2-15.6,34.8-34.9,34.9l0,0
						c-4.3,0-8.5-0.8-12.5-2.3c34.1,0.3,37.9-22.9,37.9-42.3c-0.4-6.8-7.6-11.4-11-17.6c-2.6-5.1-4.1-10.7-4.5-16.4
						c0,0-17.9,6.1-24.4,6.8c-17.3,1.9-20.2,1.3-20.2,1.3c1-4.8,3.7-18.1,8-18.1c15.4-0.2,26.9-7,34.8-8.6l5.8-1.2l0.2,0.1
						C461.6,170.8,461.6,170.8,461.9,170.8z"/>
				</g>
			</g>
			<path class="st17" d="M231.1,440.3h150.3c2.6,0,4.8-2.1,4.8-4.8l0,0c0-2.6-2.1-4.8-4.8-4.8H231.1c-2.6,0-4.8,2.1-4.8,4.8l0,0
				C226.3,438.2,228.5,440.3,231.1,440.3z"/>
			<path class="st18" d="M231.1,440.3h150.3c1.6,0,3.1-0.9,4-2.2c-0.9-1.4-2.4-2.2-4-2.2H231.1c-1.6,0-3.1,0.9-4,2.2
				C228,439.5,229.5,440.3,231.1,440.3z"/>
			<path class="st18" d="M227.4,430.8h120.2c3,0.1,5.5-2.3,5.5-5.3c0-0.3,0-0.6-0.1-1l-9.6-77.9c-0.5-3.5-3.5-6.1-7-6.2H216.3
				c-3-0.1-5.5,2.3-5.5,5.3c0,0.3,0,0.6,0.1,1l9.6,77.9C220.9,428,223.8,430.7,227.4,430.8z"/>
			<path class="st32" d="M227.4,430.8h116.7c3,0.1,5.5-2.3,5.5-5.3c0-0.3,0-0.6-0.1-1l-9.6-77.9c-0.5-3.5-3.5-6.1-7-6.2H216.3
				c-3-0.1-5.5,2.3-5.5,5.3c0,0.3,0,0.6,0.1,1l9.6,77.9C220.9,428.1,223.8,430.7,227.4,430.8z"/>
			<path class="st33" d="M233.8,430.8h12l94.8-79.6l-0.6-4.6c-0.2-1.4-0.7-2.6-1.6-3.7L233.8,430.8z M324.7,340.4l-103.4,86.8
				c-0.5-0.8-0.8-1.7-0.9-2.7l-1.5-12.1l85.8-72L324.7,340.4z"/>
			<path class="st32" d="M354.1,440.3h27.3c2.6,0,4.8-2.1,4.8-4.8l0,0c0-2.6-2.1-4.8-4.8-4.8h-27.3c-2.6,0-4.8,2.1-4.8,4.8l0,0
				C349.3,438.2,351.5,440.3,354.1,440.3z"/>
			<path class="st16" d="M228.7,428.4h125.1c1.3,0,2.4,1.1,2.4,2.4v0c0,1.3-1.1,2.4-2.4,2.4H228.7c-1.3,0-2.4-1.1-2.4-2.4v0
				C226.3,429.5,227.4,428.4,228.7,428.4z"/>
			<path class="st34" d="M277.7,373.6c6.8,0.1,12.4,5.3,13.2,12c0.8,5.8-3.4,11.2-9.2,11.9c-0.5,0.1-1.1,0.1-1.6,0.1
				c-6.8-0.1-12.4-5.3-13.2-12c-0.8-5.8,3.4-11.2,9.2-11.9C276.7,373.6,277.2,373.6,277.7,373.6z"/>
			<path class="st16" d="M588.9,460.4h-23.6c-3.6,0-6.6,3-6.6,6.6l0,0c0,3.6,3,6.6,6.6,6.6h9.9c2.9,0,5.2,2.3,5.2,5.2l0,0
				c0,2.9-2.3,5.2-5.2,5.2h-474c-2.9,0-5.2-2.3-5.2-5.2l0,0c0-2.9,2.3-5.2,5.2-5.2h9.4c3.6,0,6.6-3,6.6-6.6l0,0c0-3.6-3-6.6-6.6-6.6
				H89c-5.8,0-10.4-4.7-10.5-10.4l0,0c0-5.8,4.7-10.4,10.5-10.5h499.9c5.8,0,10.4,4.7,10.4,10.5l0,0
				C599.3,455.8,594.6,460.4,588.9,460.4L588.9,460.4z M589.3,484c2.9,0,5.2-2.3,5.2-5.2s-2.3-5.2-5.2-5.2c-2.9,0-5.2,2.3-5.2,5.2v0
				C584.1,481.7,586.4,484,589.3,484L589.3,484z"/>
			<path class="st16" d="M475.7,216.6c0-0.1,0.1-0.2,0.1-0.3c0.4-1.7-1.2-4.1-2.3-5.3c-1.5-1.7-3.4-3-5.5-3.7c-1.9-0.7-3.9-1-5.8-1
				c-0.9-0.1-1.9,0.2-2.7,0.7c-1.4,1-1.8,3.2,0.1,3.8c1.6,0.6,3.4,0.9,5,1.4c2,0.7,3.9,1.6,5.8,2.6
				C471.3,215.3,474.8,218.2,475.7,216.6z"/>
			<path class="st4" d="M453.1,229.6c-0.5,1.3,1.5,4.2,2.3,5.1c6.3,7,21.2-2,17.6-11.1c0,0-2.9-7.2-7.9-5.9s-8.2,3.3-9.3,5.3
				C454.8,225.1,453.9,227.4,453.1,229.6z"/>
			<g>
				<defs>
					<path id="SVGID_3_" d="M453.1,229.6c-0.5,1.3,1.5,4.2,2.3,5.1c6.3,7,21.2-2,17.6-11.1c0,0-2.9-7.2-7.9-5.9s-8.2,3.3-9.3,5.3
						C454.8,225.1,453.9,227.4,453.1,229.6z"/>
				</defs>
				<clipPath id="SVGID_4_">
					<use xlink:href="#SVGID_3_"  style="overflow:visible;"/>
				</clipPath>
				<g class="st35">
					
						<linearGradient id="SVGID_5_" gradientUnits="userSpaceOnUse" x1="-469.4328" y1="487.5492" x2="-465.4228" y2="473.9592" gradientTransform="matrix(1 0 0 -1 928.04 710)">
						<stop  offset="0" style="stop-color:#3C3C6B"/>
						<stop  offset="1" style="stop-color:#5B4E99"/>
					</linearGradient>
					<ellipse class="st36" cx="460.3" cy="228.1" rx="7.8" ry="9.1"/>
					<ellipse class="st16" cx="460.5" cy="228.2" rx="4.1" ry="4.6"/>
					<path class="st37" d="M453,230.2c0,0,0.1,0.9,0.6,0.8s6.4-11,11.8-9.7s8,5.6,8.2,5.4s-1-6-2.1-6.7s-10.2-2.3-10.2-2.3l-5.6,5.6
						L453,230.2z"/>
					<path class="st38" d="M468.8,228.6c0,0-7.6-1.3-7-0.4s5.7,4.1,6.5,3.9S470.2,228.8,468.8,228.6z"/>
				</g>
			</g>
			<path class="st16" d="M474,225.6c-0.5-6.1-5.4-10.1-11.5-8.6s-9.7,7.9-9.8,13.8c0,0.2,0.4,0.4,0.5,0.1c1.7-3.9,2.9-8.1,6.7-10.6
				c6-3.8,10.6,0.2,13.8,5.3C473.7,225.8,474,225.8,474,225.6z"/>
			<path class="st39" d="M452.4,223.9c1.5-4,3.9-6.7,8.2-7.6c0.1-0.1,0.2-0.2,0.2-0.4c0-0.1-0.1-0.2-0.2-0.2
				c-4.2,0.2-8.4,3.8-8.3,8.2C452.2,224,452.3,224,452.4,223.9C452.3,224,452.4,223.9,452.4,223.9L452.4,223.9z"/>
			<path class="st16" d="M410.6,216.6c0-0.1-0.1-0.2-0.1-0.3c-0.4-1.7,1.2-4.1,2.3-5.3c1.5-1.7,3.4-3,5.5-3.7c1.9-0.7,3.9-1,5.8-1
				c0.9-0.1,1.9,0.2,2.7,0.7c1.4,1,1.8,3.2-0.1,3.8c-1.6,0.6-3.4,0.9-5,1.4c-2,0.7-3.9,1.6-5.8,2.6
				C415,215.3,411.4,218.2,410.6,216.6z"/>
			<path class="st4" d="M433.1,229.6c0.5,1.3-1.5,4.2-2.3,5.1c-6.3,7-21.2-2-17.6-11.1c0,0,2.9-7.2,7.9-5.9s8.1,3.3,9.3,5.3
				C431.4,225.1,432.4,227.3,433.1,229.6z"/>
			<g>
				<defs>
					<path id="SVGID_6_" d="M433.1,229.6c0.5,1.3-1.5,4.2-2.3,5.1c-6.3,7-21.2-2-17.6-11.1c0,0,2.9-7.2,7.9-5.9s8.1,3.3,9.3,5.3
						C431.4,225.1,432.4,227.3,433.1,229.6z"/>
				</defs>
				<clipPath id="SVGID_7_">
					<use xlink:href="#SVGID_6_"  style="overflow:visible;"/>
				</clipPath>
				<g class="st40">
					
						<linearGradient id="SVGID_8_" gradientUnits="userSpaceOnUse" x1="-6656.3291" y1="487.5504" x2="-6652.3291" y2="473.9604" gradientTransform="matrix(-1 0 0 -1 -6228.6699 710)">
						<stop  offset="0" style="stop-color:#3C3C6B"/>
						<stop  offset="1" style="stop-color:#5B4E99"/>
					</linearGradient>
					<ellipse class="st41" cx="426" cy="228.1" rx="7.8" ry="9.1"/>
					<ellipse class="st16" cx="425.7" cy="228.2" rx="4.1" ry="4.6"/>
					<path class="st37" d="M433.3,230.2c0,0-0.1,0.9-0.6,0.8s-6.4-11-11.8-9.7s-8,5.6-8.2,5.4s1-6,2.1-6.7s10.2-2.3,10.2-2.3
						l5.6,5.6L433.3,230.2z"/>
					<path class="st38" d="M417.5,228.6c0,0,7.6-1.3,7-0.4s-5.7,4.1-6.5,3.9S416.1,228.8,417.5,228.6z"/>
				</g>
			</g>
			<path class="st16" d="M412.7,225.7c3.2-5.1,7.7-9.2,13.8-5.3c3.8,2.4,5.1,6.7,6.7,10.6c0.1,0.2,0.5,0.1,0.5-0.1
				c-0.1-6-3.8-12.3-9.8-13.8s-11,2.5-11.5,8.6C412.3,225.8,412.6,225.8,412.7,225.7z"/>
			<path class="st39" d="M434,223.9c0.1-4.4-4-8-8.3-8.2c-0.2,0-0.3,0.2-0.3,0.3c0,0.1,0.1,0.2,0.2,0.2c4.3,0.9,6.8,3.6,8.2,7.6
				C433.9,224,433.9,224,434,223.9C434,224,434,223.9,434,223.9L434,223.9z"/>
			<path class="st42" d="M439,241.1c0,0,2.3-3,4.1-0.9S443.5,240,439,241.1z"/>
			<path class="st25" d="M436.8,242.7c-2,1.8-0.1,6.2,2.6,5.3c0.1,0,0.2-0.2,0.1-0.3c0,0,0-0.1-0.1-0.1c-0.9-0.3-1.7-0.8-2.3-1.5
				c-0.5-1-0.6-2.2-0.1-3.2c0-0.1,0-0.1-0.1-0.2C436.9,242.7,436.9,242.7,436.8,242.7z"/>
			<path class="st25" d="M443.2,248c1,0,2-0.4,2.8-1.1c0.4-0.4-0.1-1.1-0.6-0.8c-0.4,0.3-0.7,0.5-1.1,0.7c-0.4,0.1-0.8,0.3-1.2,0.5
				c-0.2,0.1-0.2,0.3-0.1,0.5C442.9,247.9,443.1,248,443.2,248L443.2,248z"/>
			<path class="st25" d="M434.6,256.2c2.4,0.5,5.2-0.1,7.6-0.1c3.1,0,6.2-0.1,9.2-0.4c0.1,0,0.3-0.1,0.3-0.3c0-0.1-0.1-0.2-0.2-0.3
				c-5.5-1.6-11.4-1.5-16.9,0.3C434.3,255.5,434.2,256.1,434.6,256.2L434.6,256.2z"/>
			<path class="st10" d="M463.8,178.7c0,0-2.3,15.5,1,21.2c5.2,9.2,20.8,13,17.8,31.7c-0.7,4.2,16.2-12,14.4-34.2
				c-1.9-21.9-17.5-29.6-20-31.1c0,0-16.8-14.5-33.6-11.2s-31.8,16.6-32.6,21.2s6.8,11.5,3.7,18.2c12.8,0.4,24.9-5.7,32.2-16.2
				c-1.4,4.8-4.5,8.9-8.7,11.6C438,190,451.4,191.7,463.8,178.7z"/>
			<path class="st10" d="M440.4,192.3c10.8-2.2,20.4-8.6,26.5-17.8c0.3-0.4,0.9,0,0.8,0.4c-3.8,10-17.2,16.4-27.2,17.6
				c-0.1,0-0.1,0-0.1-0.1C440.2,192.4,440.3,192.3,440.4,192.3z"/>
			<path class="st10" d="M463,180.5c0-0.1,0.2-0.1,0.2,0c0.2,3.6,0.1,7.2-0.1,10.8c-0.5,6.8,0.4,10.5,5.7,15.1
				c5.9,5,13.3,8.7,17.8,15.2c0.2,0.2,0.1,0.5-0.1,0.7c-0.2,0.1-0.5,0.1-0.6-0.1c-3.7-3.8-7.7-7.3-12.1-10.4
				c-3.5-2.5-7.4-5.1-10-8.6C459.3,197,462.6,187.6,463,180.5z"/>
			<path class="st10" d="M415.6,195.9c14.1-1.6,30-8.9,32.6-24.4c0-0.2,0.2-0.3,0.4-0.3c0.2,0,0.3,0.2,0.3,0.4
				c-0.3,15.1-19.8,25.5-33.3,24.5C415.5,196,415.5,196,415.6,195.9C415.5,195.9,415.5,195.9,415.6,195.9z"/>
			<path class="st10" d="M413.7,193.9c1.7-7.3-8-12.9-3.6-19.8c4-6.3,12.1-10.2,18.5-13.5c0.3-0.1,0.5,0.3,0.2,0.5
				c-6.1,3.7-17.3,9-17.9,16.9c-0.3,4.2,1.6,6.6,2.8,10.4c0.7,1.8,0.8,3.8,0.2,5.6C414,194.2,413.7,194.1,413.7,193.9z"/>
			<path class="st10" d="M421.3,161.6c10-6,21.5-11.4,33.5-8.9c8.3,1.7,21.3,7.7,24.5,16.2c0.2,0.5-0.4,1.2-1,0.8
				c-7.4-6.4-15.8-12-25.5-14c-11.1-2.3-21.4,1.7-31.2,6.6C421.1,162.4,420.9,161.8,421.3,161.6z"/>
			<path class="st10" d="M446.3,148.4c13.7-1.2,31.1,9.2,35,22.8c0.1,0.4-0.5,0.7-0.8,0.3c-8.1-11.6-19.4-22-34.2-22.6
				c-0.2,0-0.3-0.1-0.3-0.3C446,148.6,446.1,148.5,446.3,148.4L446.3,148.4z"/>
			<path class="st10" d="M494.8,222.2c3.4-10.2,4.7-20.9,1.5-31.6c-3.5-11.9-11.5-19.5-21.8-25.1c-0.3-0.1-0.1-0.6,0.2-0.4
				c23.6,8.7,29.4,35.9,20.6,57.4C495.1,222.7,494.7,222.5,494.8,222.2z"/>
			<path class="st13" d="M121.8,277.6c15.3-15.6,26.6,4.2,25.1,24c-1.5,18.8-17.7,83.3-14.7,110.5h-6.2
				C110.7,377.4,102.2,297.5,121.8,277.6z"/>
			<path class="st3" d="M128.2,412.2c-14.8-54.9,3.9-130.7,4-131c0.1-0.5,0.5-0.8,1-0.8c0.5,0.1,0.8,0.5,0.8,1c0,0.1,0,0.1,0,0.2
				c-0.1,0.3-18.8,76.2-3.9,130.6L128.2,412.2z"/>
			<path class="st3" d="M159.5,311.9c16.1-8.5,20.2,10.1,13.9,25.5c-5.2,12.8-28.2,50.5-36.9,74.8h-8.2
				C127.6,378.6,140.5,322,159.5,311.9z"/>
			<path class="st15" d="M131.3,412.2c5.3-45.3,35.5-94.6,35.6-94.8c0.2-0.3,0.7-0.5,1-0.2s0.5,0.7,0.2,1l0,0
				c-0.1,0.2-30.1,49.1-35.4,94L131.3,412.2z"/>
			<path class="st1" d="M91.4,333.4c-15.6-6.8-18.1,10.8-11.2,24.7c4.7,9.4,21.6,33.5,33,54h13C121.8,381.1,107.6,340.5,91.4,333.4z
				"/>
			<path class="st3" d="M121.6,412.2c-11.1-37.6-36.6-73-36.7-73.1c-0.2-0.3-0.6-0.5-0.9-0.3c-0.3,0.2-0.5,0.6-0.3,0.9
				c0,0.1,0.1,0.1,0.1,0.1c0.1,0.1,25.3,35.2,36.4,72.3H121.6z"/>
			<path class="st32" d="M111.6,411.9h26.3c0.9,0,1.6,0.7,1.6,1.6v7.5c0,0.9-0.7,1.6-1.6,1.6h-26.3c-0.9,0-1.7-0.7-1.7-1.6v-7.5
				C110,412.6,110.7,411.9,111.6,411.9z"/>
			<polygon class="st32" points="133.5,418 116,418 111.4,422.7 115.2,439.1 124.8,439.1 134.4,439.1 138.1,422.7 			"/>
			<polygon class="st16" points="111.4,422.7 112.2,426 137.4,426 138.1,422.7 			"/>
			<path class="st43" d="M528.4,425.5h-47.9c-4,0-7.2,3.2-7.2,7.2c0,4,3.2,7.2,7.2,7.2h47.9c4,0,7.2-3.2,7.2-7.2
				S532.4,425.5,528.4,425.5L528.4,425.5z"/>
			<path class="st4" d="M421.3,426.3h61.2c3.5,0,6.3,2.8,6.3,6.3l0,0c0,3.5-2.8,6.3-6.3,6.3h-61.2V426.3z"/>
			<path class="st44" d="M421.3,425.5c-0.5,0-0.8,0.4-0.8,0.8c0,0.5,0.4,0.8,0.8,0.8h61.2c3,0,5.5,2.5,5.5,5.5s-2.5,5.5-5.5,5.5
				h-61.2c-0.5,0-0.8,0.4-0.8,0.8c0,0.5,0.4,0.8,0.8,0.8h61.2c4,0,7.2-3.2,7.2-7.2s-3.2-7.2-7.2-7.2L421.3,425.5z"/>
			<path class="st44" d="M526.2,432.6c0-3.9-3.2-7.1-7.2-7.2h6.2c4,0,7.2,3.2,7.2,7.2s-3.2,7.2-7.2,7.2h-6.2
				C523,439.8,526.2,436.6,526.2,432.6z"/>
			<path class="st44" d="M517.2,432.6c0-3.9-3.2-7.1-7.2-7.2h6.2c4,0,7.2,3.2,7.2,7.2s-3.2,7.2-7.2,7.2H510
				C513.9,439.8,517.1,436.6,517.2,432.6L517.2,432.6z"/>
			<path class="st1" d="M433.9,412.9h41.9c3.5,0,6.3,2.8,6.3,6.3c0,3.5-2.8,6.3-6.3,6.3l0,0h-41.9c-3.5,0-6.3-2.8-6.3-6.3
				C427.6,415.7,430.4,412.9,433.9,412.9z"/>
			<path class="st4" d="M527.7,413.6h-53.6c-3.1,0-5.5,2.5-5.5,5.5l0,0c0,3.1,2.5,5.5,5.5,5.5h53.6V413.6z"/>
			<path class="st3" d="M527.7,412.9c0.4,0,0.7,0.3,0.7,0.7c0,0.4-0.3,0.7-0.7,0.7h-53.6c-2.7,0-4.8,2.2-4.8,4.8
				c0,2.7,2.2,4.8,4.8,4.8h53.6c0.4,0,0.7,0.3,0.7,0.7c0,0.4-0.3,0.7-0.7,0.7h-53.6c-3.5,0-6.3-2.8-6.3-6.3c0-3.5,2.8-6.3,6.3-6.3
				L527.7,412.9z"/>
			<path class="st3" d="M435.8,419.2c0-3.5,2.8-6.3,6.3-6.3h-5.5c-3.5,0-6.3,2.8-6.3,6.3c0,3.5,2.8,6.3,6.3,6.3h5.5
				C438.6,425.4,435.8,422.6,435.8,419.2L435.8,419.2z"/>
			<path class="st3" d="M443.7,419.2c0-3.5,2.8-6.3,6.3-6.3h-5.5c-3.5,0-6.3,2.8-6.3,6.3c0,3.5,2.8,6.3,6.3,6.3h5.5
				C446.5,425.4,443.7,422.6,443.7,419.2L443.7,419.2z"/>
			<path class="st4" d="M524.7,377.6c-1,1.2-10.5,6.5-10.5,6.5l3.5,49.9c0,0,0.1,5.3,6.1,5.3h19.4c6,0,6.1-5.3,6.1-5.3l3.5-49.9
				c0,0-9.5-5.3-10.5-6.5L524.7,377.6z"/>
			<path class="st15" d="M515.1,394.6h37c0.7,0,1.3,0.6,1.3,1.3c0,0,0,0.1,0,0.1l-2.2,31.3c0,0.7-0.6,1.2-1.3,1.2h-32.6
				c-0.7,0-1.2-0.5-1.3-1.2l-2.2-31.3C513.7,395.3,514.3,394.7,515.1,394.6C515,394.6,515,394.6,515.1,394.6L515.1,394.6z"/>
			<path class="st4" d="M520.1,374.2H547c3.3,0,5.9,2.7,5.9,5.9l0,0c-0.1,3.2-2.7,5.9-5.9,5.9h-26.9c-3.3,0-5.9-2.7-5.9-5.9l0,0
				C514.3,376.8,516.9,374.2,520.1,374.2z"/>
			<path class="st15" d="M513.4,380.1h40.2c1.8,0,3.3,1.5,3.3,3.3l0,0c0,1.8-1.5,3.3-3.3,3.3h-40.2c-1.8,0-3.3-1.5-3.3-3.3l0,0
				C510.1,381.6,511.6,380.1,513.4,380.1z"/>
			<path class="st16" d="M533.6,424c6.9,0,12.5-5.6,12.5-12.5c0-6.9-5.6-12.4-12.5-12.4c-6.9,0-12.5,5.6-12.5,12.4
				C521.1,418.4,526.7,424,533.6,424z"/>
			<path class="st2" d="M533.6,422.5c6.1,0,11-4.9,11-11s-4.9-11-11-11s-11,4.9-11,11l0,0C522.6,417.6,527.5,422.5,533.6,422.5z"/>
			<path class="st16" d="M533.6,402.8L533.6,402.8c2.9,0,5.3,2.4,5.3,5.3v7c0,2.2-1.4,4.2-3.5,5v-5.6c0-1.9-0.3-2.2-1-2.9l-0.3-0.3
				c-0.2-0.2-0.4-0.3-0.5-0.5c-0.7-0.6-1.4-1.2-1.4-3.5V403C532.5,402.8,533.1,402.7,533.6,402.8L533.6,402.8z M534.3,420.3v-5.9
				c0-1.5-0.2-1.7-0.7-2.1l-0.4-0.4c-0.2-0.1-0.3-0.3-0.5-0.4c-0.9-0.7-1.8-1.5-1.8-4.2v-3.8c-1.6,0.9-2.7,2.7-2.7,4.6v7
				c0,2.9,2.4,5.3,5.3,5.3l0,0C533.8,420.4,534.1,420.4,534.3,420.3L534.3,420.3z"/>
			<path class="st28" d="M554.5,381.2c0,1.2-0.6,2.2-1.6,2.8c-0.5,0.3-1.1,0.5-1.7,0.5h-40.2c-0.2,0-0.4,0-0.6-0.1
				c0.4,1.4,1.7,2.3,3.2,2.3h40.2c1.8,0,3.3-1.5,3.3-3.3c0-1.6-1.1-3-2.7-3.3C554.4,380.5,554.5,380.8,554.5,381.2z"/>
			<path class="st3" d="M550.2,375.1c-1,2.2-3.1,3.6-5.4,3.6h-26.8c-1.1,0-2.2-0.3-3.2-0.9c-0.3,0.7-0.5,1.5-0.5,2.3h38.7
				C552.9,378.1,551.9,376.2,550.2,375.1z"/>
			<path class="st3" d="M546.7,389.6c0.8,0,1.5,0.7,1.5,1.5c0,0,0,0.1,0,0.1l-0.2,3.5h4.3l0.6-7.9h-38.3l0.2,2.9L546.7,389.6z
				 M545.1,428.5l-0.4,5.7c0,0.7-0.6,1.3-1.4,1.3h-25.2c0.5,1.5,2,3.6,5.8,3.6h19.4c6,0,6.1-5.3,6.1-5.3l0.4-5.3H545.1z"/>
			<path class="st28" d="M548,396l-2.2,31.3c0,0.7-0.6,1.2-1.3,1.2h5.3c0.7,0,1.2-0.5,1.3-1.2l2.3-31.3c0-0.4-0.1-0.7-0.3-1
				c-0.2-0.2-0.5-0.4-0.8-0.4h-5.4C547.5,394.6,548,395.2,548,396C548,395.9,548,396,548,396z"/>
		</g>
	</g>
</g>
</svg>
