<?xml version="1.0" encoding="utf-8"?>
<!-- Generator: Adobe Illustrator 21.1.0, SVG Export Plug-In . SVG Version: 6.00 Build 0)  -->
<svg version="1.1" id="Layer_1" xmlns="http://www.w3.org/2000/svg" xmlns:xlink="http://www.w3.org/1999/xlink" x="0px" y="0px"
	 viewBox="0 0 685 485.2" style="enable-background:new 0 0 685 485.2;" xml:space="preserve">
<style type="text/css">
	.st0{fill:none;}
	.st1{clip-path:url(#SVGID_2_);fill:#E2E8F5;}
	.st2{clip-path:url(#SVGID_2_);}
	.st3{fill:#C7EBFF;}
	.st4{fill:#B1C0E2;}
	.st5{fill:#80D2FF;}
	.st6{fill:#3D98CC;}
	.st7{fill:#9FAFCC;}
	.st8{fill:#A6DFFF;}
	.st9{fill:#EDF9FF;}
	.st10{fill:#E2E8F5;}
	.st11{clip-path:url(#SVGID_4_);fill:#FFFFFF;}
	.st12{clip-path:url(#SVGID_6_);}
	.st13{fill:#E68D45;}
	.st14{fill:#FDB477;}
	.st15{fill:#FFFFFF;}
	.st16{clip-path:url(#SVGID_6_);fill:#FFFFFF;}
	.st17{fill:#3AA1A1;}
	.st18{fill:#48C6C6;}
	.st19{fill:#241F3C;}
	.st20{fill:#2E8080;}
	.st21{fill:#493F7A;}
	.st22{fill:#51DEDE;}
	.st23{fill:#6369CC;}
	.st24{fill:#5B4E99;}
	.st25{fill:#312A52;}
	.st26{fill:#299999;}
	.st27{fill:#61C6FF;}
	.st28{fill:#E6F9FF;}
	.st29{fill:#42377A;}
	.st30{fill:#332C57;}
	.st31{fill:#3F366B;}
	.st32{fill:#FDFDFF;}
	.st33{fill:#82EDED;}
	.st34{clip-path:url(#SVGID_10_);}
	.st35{fill:#F8E8D8;}
	.st36{fill:url(#SVGID_11_);}
	.st37{fill:#302624;}
	.st38{fill:#63281F;}
	.st39{opacity:0.16;fill:#722F27;}
	.st40{fill:#330E00;}
	.st41{fill:url(#SVGID_12_);}
	.st42{fill:#BA5A35;}
	.st43{fill:#DD7E52;}
	.st44{fill:url(#SVGID_13_);}
	.st45{fill:url(#SVGID_14_);}
	.st46{fill:#E58C7A;}
	.st47{opacity:0.4;fill:url(#SVGID_15_);}
	.st48{opacity:0.4;fill:url(#SVGID_16_);}
	.st49{opacity:0.4;fill:url(#SVGID_17_);}
	.st50{opacity:0.42;fill:#E98C4D;}
	.st51{fill:url(#XMLID_2_);}
	.st52{fill:#00000F;}
	.st53{opacity:0.2;fill:#320033;}
	.st54{opacity:0.45;fill:#CA6633;}
	.st55{fill:url(#XMLID_3_);}
	.st56{fill:#CC6A44;}
	.st57{opacity:0.45;fill:#E98C4D;}
	.st58{fill:#DA774E;}
	.st59{fill:#181D3B;}
	.st60{fill:#6C293E;}
	.st61{opacity:0.45;fill:#6C293E;}
	.st62{fill:#F4A9C4;}
	.st63{fill:#CC6942;}
	.st64{fill-rule:evenodd;clip-rule:evenodd;fill:#00000F;}
</style>
<title>ENTPs</title>
<g>
	<rect x="0" y="0.4" class="st0" width="685" height="485.2"/>
	<g>
		<defs>
			<path id="SVGID_1_" d="M504.8,440.4c41.9,0,76.1-34.3,76.1-76.1l0,0c0-41.9-34.3-76.1-76.1-76.1l0,0c-17.7,0-32.2-14.5-32.2-32.2
				l0,0c0-17.7,14.5-32.2,32.2-32.2h3.8c18.4,0,33.5-15.1,33.5-33.5v0c0-18.4-15.1-33.5-33.5-33.5h-11.8c-7.2,0-13-5.9-13-13v0
				c0-7.2,5.9-13,13-13h8.6c4.9,0,9-4,9-9v0c0-4.9-4-9-9-9h-58c-7.8,0-14.1-6.4-14.1-14.1v0c0-7.8,6.4-14.1,14.1-14.1h17.4
				c4.9,0,9-4,9-9l0,0c0-4.9-4-9-9-9H210.6c-6.5,0-11.7,5.3-11.7,11.7v0c0,6.5,5.3,11.7,11.7,11.7h17.8c10.1,0,18.4,8.3,18.4,18.4
				l0,0c0,10.1-8.3,18.4-18.4,18.4h-68.9c-6.5,0-11.7,5.3-11.7,11.7v0c0,6.5,5.3,11.7,11.7,11.7h11.3c9.3,0,17,7.6,17,17v0
				c0,9.3-7.6,17-17,17h-15.3c-24,0-43.7,19.6-43.7,43.7v0c0,24,19.6,43.7,43.7,43.7h5c23.1,0,42,18.9,42,42l0,0
				c0,23.1-18.9,42-42,42h-10.8c-23.3,0-42.3,19.1-42.3,42.3l0,0c0,23.3,19.1,42.3,42.3,42.3C270.2,440.4,384.3,440.4,504.8,440.4
				L504.8,440.4z M180.6,90.1c-6.5,0-11.7-5.3-11.7-11.7c0-6.5,5.3-11.7,11.7-11.7c6.5,0,11.7,5.3,11.7,11.7
				C192.4,84.8,187.1,90.1,180.6,90.1L180.6,90.1z M530.7,130.8c-5,0-9-4-9-9c0-5,4-9,9-9c5,0,9,4,9,9
				C539.7,126.8,535.7,130.8,530.7,130.8z"/>
		</defs>
		<clipPath id="SVGID_2_">
			<use xlink:href="#SVGID_1_"  style="overflow:visible;"/>
		</clipPath>
		<rect x="-596.3" y="-157.3" class="st1" width="1547.6" height="773.8"/>
		<g class="st2">
			<g>
				<g>
					<g>
						<path class="st3" d="M593.7,99.3c0,0-10.6,2-23.7,2c-5.2,0-10.1-0.3-14-0.7c-1.6-0.2-1.6-2.4,0-2.6c3.9-0.4,8.8-0.7,14-0.7
							C583.1,97.3,593.7,99.3,593.7,99.3z"/>
						<path class="st3" d="M593.7,99.3c0,0,2.6-11.3,8-24.2c1.9-4.7,4-9,5.8-12.5c0.7-1.4,2.9-0.5,2.4,1c-1.2,3.8-2.8,8.4-4.8,13.2
							C599.7,89.6,593.7,99.3,593.7,99.3z"/>
						<path class="st3" d="M593.7,99.2c0,0,8.1,7.7,16.3,18.7c3.1,4.2,5.8,8.3,7.9,11.7c0.8,1.4-1,2.7-2.1,1.5
							c-2.6-3-5.6-6.6-8.7-10.7C598.9,109.4,593.7,99.2,593.7,99.2z"/>
						<ellipse class="st3" cx="593.7" cy="99.3" rx="4.3" ry="4.7"/>
					</g>
					<polygon class="st3" points="601.8,102.6 593.7,103.8 593.7,94.6 601.8,95.8 					"/>
					<ellipse class="st3" cx="601.7" cy="99.2" rx="1.4" ry="3.4"/>
				</g>
				<polygon class="st3" points="602.4,294.2 593.5,294.2 596,101.9 599.2,101.9 				"/>
			</g>
			<g>
				<g>
					<g>
						<path class="st4" d="M493.5,119.4c0,0,9.7-1.1,21.3-0.3c4.6,0.3,8.9,0.9,12.3,1.4c1.4,0.2,1,2.2-0.4,2.2
							c-3.5,0.1-7.9,0.1-12.5-0.2C502.6,121.7,493.5,119.4,493.5,119.4z"/>
						<path class="st4" d="M493.5,119.4c0,0-4,9.6-10.7,20.5c-2.4,4-4.9,7.5-7,10.5c-0.9,1.2-2.6,0.3-2-1c1.7-3.2,3.8-7.1,6.2-11.1
							C486.7,127.4,493.5,119.4,493.5,119.4z"/>
						<path class="st4" d="M493.5,119.4c0,0-6-7.1-11.7-17.2c-2.1-3.8-3.9-7.5-5.3-10.6c-0.5-1.2,1.3-2.3,2.1-1.2
							c1.9,2.7,4,6.1,6.1,9.8C490.4,110.3,493.5,119.4,493.5,119.4z"/>
						<ellipse class="st4" cx="495.3" cy="119.4" rx="4" ry="4.3"/>
					</g>
					<polygon class="st4" points="502.8,122.5 495.3,123.6 495.3,115.1 502.8,116.2 					"/>
					<ellipse class="st4" cx="502.7" cy="119.4" rx="1.3" ry="3.2"/>
				</g>
				<polygon class="st4" points="503.3,300.2 495.1,300.2 497.4,121.8 500.3,121.8 				"/>
			</g>
			<g>
				<path class="st4" d="M506.2,248.6h-8.8v-21.9c0-6,4.9-10.9,10.9-10.9h26.8v8.8h-26.8c-1.1,0-2,0.9-2,2V248.6z"/>
				<g>
					<g>
						<path class="st5" d="M474.5,300.1v-48.4c0-1.7,1.4-3.1,3.1-3.1h36.5c1.7,0,3.1,1.4,3.1,3.1v48.4H474.5z"/>
						<g>
							
								<rect x="489.8" y="257.9" transform="matrix(-1 -1.224647e-16 1.224647e-16 -1 981.4306 526.1896)" class="st6" width="1.8" height="10.4"/>
							
								<rect x="487.2" y="257.9" transform="matrix(-1 -1.224647e-16 1.224647e-16 -1 976.1609 526.1896)" class="st6" width="1.8" height="10.4"/>
							
								<rect x="484.5" y="257.9" transform="matrix(-1 -1.224647e-16 1.224647e-16 -1 970.8911 526.1896)" class="st6" width="1.8" height="10.4"/>
							
								<rect x="481.9" y="257.9" transform="matrix(-1 -1.224647e-16 1.224647e-16 -1 965.6213 526.1896)" class="st6" width="1.8" height="10.4"/>
							
								<rect x="479.3" y="257.9" transform="matrix(-1 -1.224647e-16 1.224647e-16 -1 960.3516 526.1896)" class="st6" width="1.8" height="10.4"/>
						</g>
					</g>
					
						<rect x="472.9" y="289" transform="matrix(-1 -1.224647e-16 1.224647e-16 -1 994.5297 589.2007)" class="st5" width="48.8" height="11.3"/>
				</g>
			</g>
			<g>
				<path class="st4" d="M547,296.9L547,296.9c18.9,0,34.2-15.3,34.2-34.2V159c0-18.9-15.3-34.2-34.2-34.2h0
					c-18.9,0-34.2,15.3-34.2,34.2v103.7C512.7,281.5,528.1,296.9,547,296.9z"/>
				<g>
					
						<rect x="509.1" y="256.2" transform="matrix(-1 -1.224647e-16 1.224647e-16 -1 1095.0312 517.6074)" class="st6" width="76.8" height="5.2"/>
					
						<rect x="578.2" y="259.4" transform="matrix(-1 -1.224647e-16 1.224647e-16 -1 1160.075 559.5396)" class="st6" width="3.8" height="40.8"/>
					
						<rect x="512.8" y="259.4" transform="matrix(-1 -1.224647e-16 1.224647e-16 -1 1029.3853 559.5396)" class="st6" width="3.8" height="40.8"/>
				</g>
				<path class="st7" d="M512.3,172.3h69c0.8,0,1.5-0.7,1.5-1.5l0,0c0-0.8-0.7-1.5-1.5-1.5h-69c-0.8,0-1.5,0.7-1.5,1.5l0,0
					C510.8,171.7,511.5,172.3,512.3,172.3z"/>
				<path class="st7" d="M512.3,206.9h69c0.8,0,1.5-0.7,1.5-1.5l0,0c0-0.8-0.7-1.5-1.5-1.5h-69c-0.8,0-1.5,0.7-1.5,1.5l0,0
					C510.8,206.2,511.5,206.9,512.3,206.9z"/>
				<path class="st8" d="M512.3,241.5h69c0.8,0,1.5-0.7,1.5-1.5l0,0c0-0.8-0.7-1.5-1.5-1.5h-69c-0.8,0-1.5,0.7-1.5,1.5l0,0
					C510.8,240.8,511.5,241.5,512.3,241.5z"/>
				<rect x="562.5" y="174.9" class="st9" width="11.2" height="27.6"/>
				<path class="st9" d="M573.7,246.4v23.2c0,3.1-2.5,5.6-5.6,5.6l0,0c-3.1,0-5.6-2.5-5.6-5.6v-23.2H573.7z"/>
				<rect x="562.5" y="211.2" class="st9" width="11.2" height="25.6"/>
				<path class="st9" d="M562.5,168v-18.7c0-3.1,2.5-5.6,5.6-5.6l0,0c3.1,0,5.6,2.5,5.6,5.6V168H562.5z"/>
				<g>
					
						<rect x="509.1" y="256.2" transform="matrix(-1 -1.224647e-16 1.224647e-16 -1 1095.0312 517.6074)" class="st6" width="76.8" height="5.2"/>
					
						<rect x="578.2" y="259.4" transform="matrix(-1 -1.224647e-16 1.224647e-16 -1 1160.075 559.5396)" class="st6" width="3.8" height="40.8"/>
					
						<rect x="512.8" y="259.4" transform="matrix(-1 -1.224647e-16 1.224647e-16 -1 1029.3853 559.5396)" class="st6" width="3.8" height="40.8"/>
				</g>
				
					<rect x="522.6" y="178.5" transform="matrix(-1 -1.224647e-16 1.224647e-16 -1 1057.3903 369.5276)" class="st9" width="12.2" height="12.5"/>
				
					<rect x="539.8" y="186.8" transform="matrix(-1 -1.224647e-16 1.224647e-16 -1 1091.7189 386.0897)" class="st9" width="12.2" height="12.5"/>
			</g>
			<g>
				
					<rect x="606.3" y="150.1" transform="matrix(-1 -1.224647e-16 1.224647e-16 -1 1218.3245 317.5829)" class="st5" width="5.7" height="17.5"/>
				
					<rect x="578.5" y="220.8" transform="matrix(-1 -1.224647e-16 1.224647e-16 -1 1162.7664 459.1133)" class="st5" width="5.7" height="17.5"/>
				<path class="st5" d="M588.4,234.2h-5.9v-8.8h5.9c2,0,3.7-1.7,3.7-3.7v-54.2c0-6.9,5.6-12.6,12.6-12.6h4.9v8.8h-4.9
					c-2,0-3.7,1.7-3.7,3.7v54.2C600.9,228.6,595.3,234.2,588.4,234.2z"/>
			</g>
			<g>
				<g>
					<path class="st3" d="M645.2,296.9L645.2,296.9c18.9,0,34.2-15.3,34.2-34.2V159c0-18.9-15.3-34.2-34.2-34.2h0
						c-18.9,0-34.2,15.3-34.2,34.2v103.7C611,281.5,626.3,296.9,645.2,296.9z"/>
					<path class="st8" d="M610.5,172.3h69c0.8,0,1.5-0.7,1.5-1.5l0,0c0-0.8-0.7-1.5-1.5-1.5h-69c-0.8,0-1.5,0.7-1.5,1.5l0,0
						C609,171.7,609.7,172.3,610.5,172.3z"/>
					<path class="st8" d="M610.5,206.9h69c0.8,0,1.5-0.7,1.5-1.5l0,0c0-0.8-0.7-1.5-1.5-1.5h-69c-0.8,0-1.5,0.7-1.5,1.5l0,0
						C609,206.2,609.7,206.9,610.5,206.9z"/>
					<path class="st8" d="M610.5,241.5h69c0.8,0,1.5-0.7,1.5-1.5l0,0c0-0.8-0.7-1.5-1.5-1.5h-69c-0.8,0-1.5,0.7-1.5,1.5l0,0
						C609,240.8,609.7,241.5,610.5,241.5z"/>
					<rect x="660.8" y="174.9" class="st9" width="11.2" height="27.6"/>
					<path class="st9" d="M672,246.4v23.2c0,3.1-2.5,5.6-5.6,5.6l0,0c-3.1,0-5.6-2.5-5.6-5.6v-23.2H672z"/>
					<rect x="660.8" y="211.2" class="st9" width="11.2" height="25.6"/>
					<path class="st9" d="M660.8,168v-18.7c0-3.1,2.5-5.6,5.6-5.6l0,0c3.1,0,5.6,2.5,5.6,5.6V168H660.8z"/>
				</g>
				<g>
					
						<rect x="607.6" y="256.2" transform="matrix(-1 -1.224647e-16 1.224647e-16 -1 1291.9692 517.6074)" class="st6" width="76.8" height="5.2"/>
					
						<rect x="676.6" y="259.4" transform="matrix(-1 -1.224647e-16 1.224647e-16 -1 1357.0129 559.5396)" class="st6" width="3.8" height="40.8"/>
					
						<rect x="611.3" y="259.4" transform="matrix(-1 -1.224647e-16 1.224647e-16 -1 1226.3232 559.5396)" class="st6" width="3.8" height="40.8"/>
				</g>
			</g>
			<g>
				<path class="st4" d="M421.2,279.1l-6.6,0l0.3-73.2c0-4.7,3.9-8.5,8.6-8.5h18.5v6.6h-18.5c-1.1,0-1.9,0.9-1.9,1.9L421.2,279.1z"
					/>
				<g>
					<path class="st4" d="M442.8,300.9L442.8,300.9c9.1,0,16.5-7.4,16.5-16.5V155.7c0-9.1-7.4-16.5-16.5-16.5h0
						c-9.1,0-16.5,7.4-16.5,16.5v128.7C426.3,293.5,433.7,300.9,442.8,300.9z"/>
					
						<rect x="434.8" y="135.6" transform="matrix(-1 -1.224647e-16 1.224647e-16 -1 885.573 277.8716)" class="st4" width="15.9" height="6.7"/>
					<circle class="st4" cx="426.3" cy="138.1" r="6"/>
					
						<rect x="429.8" y="136.9" transform="matrix(-1 -1.224647e-16 1.224647e-16 -1 865.9667 276.4036)" class="st4" width="6.3" height="2.6"/>
					<path class="st4" d="M438,133.6h9.7c0.5,0,1-0.4,1-1l0,0c0-0.5-0.4-1-1-1H438c-0.5,0-1,0.4-1,1l0,0
						C437,133.2,437.4,133.6,438,133.6z"/>
					
						<rect x="441.9" y="133.2" transform="matrix(-1 -1.224647e-16 1.224647e-16 -1 885.573 269.7976)" class="st4" width="1.9" height="3.3"/>
					
						<rect x="406" y="276.5" transform="matrix(-1 -1.224647e-16 1.224647e-16 -1 871.3305 578.473)" class="st4" width="59.3" height="25.4"/>
					<circle class="st10" cx="426.3" cy="138" r="4.2"/>
				</g>
				
					<rect x="448.4" y="158" transform="matrix(-1 -1.224647e-16 1.224647e-16 -1 900.126 430.4308)" class="st10" width="3.4" height="114.5"/>
				
					<rect x="412.5" y="230.9" transform="matrix(-1 -1.224647e-16 1.224647e-16 -1 835.835 484.1069)" class="st4" width="10.9" height="22.3"/>
			</g>
			<g>
				<path class="st5" d="M409.5,247.3v-9.7c0-0.5-0.4-1-1-1l0,0c-0.5,0-1,0.4-1,1v9.7c0,0.5,0.4,1,1,1l0,0
					C409.1,248.3,409.5,247.9,409.5,247.3z"/>
				
					<rect x="409.9" y="240.8" transform="matrix(-1.836970e-16 1 -1 -1.836970e-16 653.3085 -168.2982)" class="st5" width="1.9" height="3.3"/>
				
					<rect x="411.8" y="237.9" transform="matrix(-1 -1.224647e-16 1.224647e-16 -1 825.4838 485.3397)" class="st5" width="1.8" height="9.6"/>
			</g>
			<g>
				<g>
					<g>
						<g>
							<path class="st5" d="M-303.6,273.3c-0.3,0-0.5-0.2-0.5-0.5v-80.1c0-0.3,0.2-0.5,0.5-0.5c0.3,0,0.5,0.2,0.5,0.5v80.1
								C-303.1,273-303.3,273.3-303.6,273.3z"/>
							<path class="st5" d="M-313.7,273.3c-0.3,0-0.5-0.2-0.5-0.5v-80.1c0-0.3,0.2-0.5,0.5-0.5c0.3,0,0.5,0.2,0.5,0.5v80.1
								C-313.2,273-313.5,273.3-313.7,273.3z"/>
							<path class="st5" d="M-313.7,273c-0.1,0-0.3,0-0.3-0.1c-0.2-0.2-0.2-0.5,0-0.7l9.3-9.1h-9.1l-0.3-0.8l9.4-9.1h-9.1l-0.3-0.8
								l9.4-9.1h-9l-0.3-0.8l9.3-9h-9l-0.3-0.8l9.4-9.1h-9l-0.3-0.8l9.3-9h-9l-0.3-0.8l9.4-9.1h-9l-0.3-0.8l9.3-9.1h-9
								c-0.3,0-0.5-0.2-0.5-0.5c0-0.3,0.2-0.5,0.5-0.5h10.2l0.3,0.8l-9.3,9.1h9l0.3,0.8l-9.4,9.1h9l0.3,0.8l-9.3,9h9l0.3,0.8
								l-9.4,9.1h9l0.3,0.8l-9.3,9h9l0.3,0.8l-9.4,9.1h9.1l0.3,0.8l-9.4,9.1h9.1l0.3,0.8l-10.2,9.9
								C-313.4,272.9-313.5,273-313.7,273z"/>
						</g>
						<g>
							<path class="st5" d="M-295.1,200.7c-0.1,0-0.1,0-0.2-0.1c-0.1-0.1-0.2-0.2-0.2-0.3v-5.6l-9.4,5.9c-0.1,0.1-0.3,0.1-0.4,0
								c-0.1-0.1-0.2-0.2-0.2-0.3v-5.6c-0.3,0.2-0.6,0.4-0.9,0.6c-2.9,1.8-5.6,3.4-8.3,5.3c-0.1,0.1-0.3,0.1-0.4,0
								c-0.1-0.1-0.2-0.2-0.2-0.3v-5.6c-2.6,1.7-5.6,3.6-9.4,5.9c-0.1,0.1-0.3,0.1-0.4,0c-0.1-0.1-0.2-0.2-0.2-0.3v-5.5
								c-1.3,0.9-2.7,1.7-4,2.5c-1.8,1-3.6,2.1-5.2,3.3c-0.1,0.1-0.3,0.1-0.4,0c-0.1-0.1-0.2-0.2-0.2-0.3v-5.6
								c-1,0.6-2.1,1.3-3.1,1.9c-2.1,1.3-4.3,2.6-6.2,4c-0.1,0.1-0.3,0.1-0.4,0c-0.1-0.1-0.2-0.2-0.2-0.3v-5.6c-1,0.7-2.1,1.3-3.1,2
								c-2,1.3-4.1,2.6-6.2,3.9c-0.2,0.1-0.4,0.1-0.5-0.1c-0.1-0.2-0.1-0.4,0.1-0.5c2.1-1.4,4.2-2.7,6.2-3.9
								c1.2-0.8,2.5-1.5,3.7-2.3c0.1-0.1,0.3-0.1,0.4,0c0.1,0.1,0.2,0.2,0.2,0.3v5.5c1.8-1.2,3.8-2.4,5.7-3.6
								c1.2-0.7,2.5-1.5,3.7-2.3c0.1-0.1,0.3-0.1,0.4,0c0.1,0.1,0.2,0.2,0.2,0.3v5.5c1.5-1.1,3.1-2,4.7-2.9c1.5-0.9,3.1-1.8,4.6-2.8
								c0.1-0.1,0.3-0.1,0.4,0c0.1,0.1,0.2,0.2,0.2,0.3v5.6c3.8-2.3,6.8-4.2,9.4-5.9c0.1-0.1,0.3-0.1,0.4,0s0.2,0.2,0.2,0.3v5.5
								c2.5-1.7,5.1-3.3,7.8-4.9c0.5-0.3,1-0.6,1.5-0.9c0.1-0.1,0.3-0.1,0.4,0c0.1,0.1,0.2,0.2,0.2,0.3v5.6l9.4-5.9
								c0.1-0.1,0.3-0.1,0.4,0c0.1,0.1,0.2,0.2,0.2,0.3v5.6c2.5-1.5,5.3-3.2,8.4-5.3c0.2-0.1,0.4-0.1,0.5,0.1
								c0.1,0.2,0.1,0.4-0.1,0.5c-3.3,2.2-6.3,4.1-9,5.7C-294.9,200.7-295,200.7-295.1,200.7z"/>
							<path class="st5" d="M-320.3,200.7c-11.4,0-22.9,0-34.2,0c-0.2,0-0.4-0.2-0.4-0.4c0-0.2,0.2-0.4,0.4-0.4h0
								c22.6,0,45.5,0,68,0l0-5.5c-19.2,0.1-38.8,0.1-58.1,0c-0.2,0-0.4-0.2-0.4-0.4c0-0.2,0.2-0.4,0.4-0.4c0,0,0,0,0,0
								c19.5,0.1,39.1,0.1,58.5,0c0,0,0,0,0,0c0.1,0,0.2,0,0.3,0.1c0.1,0.1,0.1,0.2,0.1,0.3l0,6.2c0,0.2-0.2,0.4-0.4,0.4
								C-297.4,200.7-308.9,200.7-320.3,200.7z"/>
							<path class="st5" d="M-354.1,220.9c-0.2,0-0.4-0.2-0.4-0.4v-20.3c0-0.2,0.2-0.4,0.4-0.4c0.2,0,0.4,0.2,0.4,0.4v20.3
								C-353.7,220.8-353.9,220.9-354.1,220.9z"/>
						</g>
						<rect x="-317.1" y="190" class="st5" width="17" height="14.8"/>
						<path class="st5" d="M-303.5,193.6c-0.2,0-0.3-0.1-0.4-0.2l-9.2-23.9v22.8c0,0.2-0.2,0.4-0.4,0.4s-0.4-0.2-0.4-0.4v-24.8
							l0.7-0.1l9.9,25.8c0.1,0.2,0,0.4-0.2,0.5C-303.4,193.5-303.5,193.6-303.5,193.6z"/>
						<path class="st5" d="M-313.4,189.7c-0.1,0-0.2,0-0.2-0.1c-0.2-0.1-0.2-0.4-0.1-0.5l4.9-6.9h-4.6c-0.2,0-0.4-0.2-0.4-0.4
							s0.2-0.4,0.4-0.4h5.3l0.3,0.6l-5.3,7.5C-313.1,189.7-313.3,189.7-313.4,189.7z"/>
					</g>
				</g>
				<g>
					<polygon class="st5" points="-270.8,339.2 -270.8,307.9 -291.4,249.4 -291.4,215 -335.2,215 -335.2,249.4 -355.8,307.9 
						-355.8,339.2 					"/>
					<rect x="-337.9" y="214.8" class="st5" width="48.5" height="2"/>
				</g>
				<polygon class="st5" points="-122.3,337.3 -122.3,250.7 -167.1,217 -210.1,250.7 -300.3,250.7 -300.3,337.3 				"/>
				<rect x="-290.8" y="274.6" class="st5" width="19" height="17.9"/>
				<rect x="-290.8" y="303.4" class="st5" width="19" height="32.1"/>
				<rect x="-270.8" y="303.4" class="st5" width="19" height="32.1"/>
				<rect x="-199.6" y="303.4" class="st5" width="19" height="32.1"/>
				<rect x="-179.6" y="303.4" class="st5" width="19" height="32.1"/>
				<rect x="-150.4" y="303.4" class="st5" width="19" height="32.1"/>
				<rect x="-197.2" y="274.6" class="st5" width="19" height="17.9"/>
				<rect x="-173.8" y="274.6" class="st5" width="19" height="17.9"/>
				<rect x="-150.4" y="274.6" class="st5" width="19" height="17.9"/>
				<polygon class="st5" points="-251,254.3 -281.4,254.3 -279.6,217.9 -278.6,199.4 -277.2,170.9 -255.1,170.9 -253.7,199.4 
					-252.8,217.9 				"/>
				<rect x="-279.6" y="170.7" class="st5" width="27.4" height="1.8"/>
				<polygon class="st5" points="-253.7,199.4 -252.8,217.9 -279.6,217.9 -278.6,199.4 				"/>
				<g>
					<polygon class="st5" points="-206.9,254.3 -242.9,254.3 -241.1,217.9 -240.2,199.4 -238,155.5 -211.8,155.5 -209.6,199.4 
						-208.7,217.9 					"/>
					<rect x="-240.4" y="155.4" class="st5" width="31.5" height="1.8"/>
					<polygon class="st5" points="-208.7,217.9 -241.1,217.9 -240.2,199.4 -209.6,199.4 					"/>
				</g>
			</g>
			<g>
				<g>
					<g>
						<g>
							<path class="st4" d="M199.1,297.1c-0.2,0-0.3-0.1-0.3-0.3v-53.3c0-0.2,0.1-0.3,0.3-0.3s0.3,0.1,0.3,0.3v53.3
								C199.5,296.9,199.3,297.1,199.1,297.1z"/>
							<path class="st4" d="M192.4,297.1c-0.2,0-0.3-0.1-0.3-0.3v-53.3c0-0.2,0.1-0.3,0.3-0.3c0.2,0,0.3,0.1,0.3,0.3v53.3
								C192.7,296.9,192.6,297.1,192.4,297.1z"/>
							<path class="st4" d="M192.4,296.9c-0.1,0-0.2,0-0.2-0.1c-0.1-0.1-0.1-0.3,0-0.5l6.2-6h-6l-0.2-0.6l6.3-6.1h-6l-0.2-0.6
								l6.2-6.1h-6l-0.2-0.6l6.2-6h-6l-0.2-0.6l6.2-6.1h-6l-0.2-0.6l6.2-6h-6l-0.2-0.6l6.2-6.1h-6l-0.2-0.6l6.2-6h-6
								c-0.2,0-0.3-0.1-0.3-0.3c0-0.2,0.1-0.3,0.3-0.3h6.8l0.2,0.6l-6.2,6h6l0.2,0.6l-6.2,6.1h6l0.2,0.6l-6.2,6h6l0.2,0.6l-6.2,6.1
								h6l0.2,0.6l-6.2,6h6l0.2,0.6l-6.2,6.1h6l0.2,0.6l-6.3,6.1h6l0.2,0.6l-6.8,6.6C192.6,296.9,192.5,296.9,192.4,296.9z"/>
						</g>
						<g>
							<path class="st4" d="M204.8,248.8c0,0-0.1,0-0.1,0c-0.1,0-0.1-0.1-0.1-0.2v-3.7l-6.2,3.9c-0.1,0-0.2,0.1-0.3,0
								c-0.1,0-0.1-0.1-0.1-0.2v-3.7c-0.2,0.1-0.4,0.3-0.6,0.4c-1.9,1.2-3.7,2.3-5.5,3.5c-0.1,0.1-0.2,0.1-0.3,0
								c-0.1,0-0.1-0.1-0.1-0.2v-3.7c-1.7,1.1-3.7,2.4-6.2,3.9c-0.1,0-0.2,0.1-0.3,0c-0.1,0-0.1-0.1-0.1-0.2v-3.7
								c-0.9,0.6-1.8,1.1-2.7,1.6c-1.2,0.7-2.4,1.4-3.5,2.2c-0.1,0.1-0.2,0.1-0.3,0c-0.1,0-0.1-0.1-0.1-0.2v-3.7
								c-0.7,0.4-1.4,0.9-2.1,1.3c-1.4,0.8-2.8,1.7-4.1,2.6c-0.1,0.1-0.2,0.1-0.3,0c-0.1,0-0.1-0.1-0.1-0.2v-3.7
								c-0.7,0.4-1.4,0.9-2.1,1.3c-1.3,0.8-2.7,1.7-4.1,2.6c-0.1,0.1-0.3,0-0.4-0.1c-0.1-0.1,0-0.3,0.1-0.4c1.4-0.9,2.8-1.8,4.1-2.6
								c0.8-0.5,1.7-1,2.5-1.5c0.1,0,0.2-0.1,0.3,0c0.1,0,0.1,0.1,0.1,0.2v3.7c1.2-0.8,2.5-1.6,3.8-2.4c0.8-0.5,1.6-1,2.4-1.5
								c0.1-0.1,0.2-0.1,0.3,0c0.1,0,0.1,0.1,0.1,0.2v3.7c1-0.7,2.1-1.4,3.1-2c1-0.6,2.1-1.2,3-1.9c0.1-0.1,0.2-0.1,0.3,0
								c0.1,0,0.1,0.1,0.1,0.2v3.7c2.5-1.6,4.5-2.8,6.2-3.9c0.1-0.1,0.2-0.1,0.3,0s0.1,0.1,0.1,0.2v3.7c1.7-1.1,3.4-2.2,5.2-3.3
								c0.3-0.2,0.7-0.4,1-0.6c0.1,0,0.2-0.1,0.3,0c0.1,0,0.1,0.1,0.1,0.2v3.7l6.2-3.9c0.1,0,0.2-0.1,0.3,0c0.1,0,0.1,0.1,0.1,0.2
								v3.7c1.7-1,3.5-2.2,5.6-3.5c0.1-0.1,0.3,0,0.4,0.1c0.1,0.1,0,0.3-0.1,0.4c-2.2,1.5-4.2,2.7-6,3.8
								C204.9,248.8,204.8,248.8,204.8,248.8z"/>
							<path class="st4" d="M188,248.8c-7.6,0-15.2,0-22.8,0c-0.1,0-0.3-0.1-0.3-0.3c0-0.1,0.1-0.3,0.3-0.3c0,0,0,0,0,0
								c15,0,30.3,0,45.3,0l0-3.6c-12.8,0.1-25.8,0.1-38.7,0c-0.1,0-0.3-0.1-0.3-0.3c0-0.1,0.1-0.3,0.3-0.3c0,0,0,0,0,0
								c13,0.1,26,0.1,38.9,0c0,0,0,0,0,0c0.1,0,0.1,0,0.2,0.1c0,0,0.1,0.1,0.1,0.2l0,4.1c0,0.1-0.1,0.3-0.3,0.3
								C203.2,248.8,195.6,248.8,188,248.8z"/>
							<path class="st4" d="M165.5,262.3c-0.1,0-0.3-0.1-0.3-0.3v-13.5c0-0.1,0.1-0.3,0.3-0.3c0.1,0,0.3,0.1,0.3,0.3V262
								C165.8,262.1,165.6,262.3,165.5,262.3z"/>
						</g>
						<rect x="190.1" y="241.7" class="st4" width="11.3" height="9.9"/>
						<path class="st4" d="M199.2,244c-0.1,0-0.2-0.1-0.2-0.2l-6.1-15.9v15.2c0,0.1-0.1,0.3-0.3,0.3c-0.1,0-0.3-0.1-0.3-0.3v-16.5
							l0.5-0.1l6.6,17.1C199.5,243.8,199.4,244,199.2,244C199.2,244,199.2,244,199.2,244z"/>
						<path class="st4" d="M192.6,241.5c-0.1,0-0.1,0-0.1,0c-0.1-0.1-0.1-0.2-0.1-0.4l3.3-4.6h-3.1c-0.1,0-0.3-0.1-0.3-0.3
							s0.1-0.3,0.3-0.3h3.6l0.2,0.4l-3.6,5C192.8,241.5,192.7,241.5,192.6,241.5z"/>
					</g>
				</g>
				<g>
					<polygon class="st4" points="220.9,340.9 220.9,320.1 207.2,281.2 207.2,258.3 178.1,258.3 178.1,281.2 164.4,320.1 
						164.4,340.9 					"/>
					<rect x="176.3" y="258.2" class="st4" width="32.3" height="1.3"/>
				</g>
				<polygon class="st4" points="319.7,339.7 319.7,282.1 289.9,259.7 261.3,282.1 201.3,282.1 201.3,339.7 				"/>
				<rect x="207.6" y="297.9" class="st4" width="12.6" height="11.9"/>
				<rect x="207.6" y="317.2" class="st4" width="12.6" height="21.4"/>
				<rect x="220.9" y="317.2" class="st4" width="12.6" height="21.4"/>
				<rect x="268.3" y="317.2" class="st4" width="12.6" height="21.4"/>
				<rect x="281.6" y="317.2" class="st4" width="12.6" height="21.4"/>
				<rect x="301" y="317.2" class="st4" width="12.6" height="21.4"/>
				<rect x="269.9" y="297.9" class="st4" width="12.6" height="11.9"/>
				<rect x="285.4" y="297.9" class="st4" width="12.6" height="11.9"/>
				<rect x="301" y="297.9" class="st4" width="12.6" height="11.9"/>
				<polygon class="st4" points="234.1,284.5 213.9,284.5 215.1,260.2 215.7,248 216.7,229 231.4,229 232.3,248 232.9,260.2 				"/>
				<rect x="215.1" y="228.8" class="st4" width="18.3" height="1.2"/>
				<polygon class="st4" points="232.3,248 232.9,260.2 215.1,260.2 215.7,248 				"/>
				<g>
					<polygon class="st4" points="263.5,284.5 239.5,284.5 240.7,260.2 241.3,248 242.8,218.7 260.2,218.7 261.6,248 262.3,260.2 
											"/>
					<rect x="241.2" y="218.6" class="st4" width="20.9" height="1.2"/>
					<polygon class="st4" points="262.3,260.2 240.7,260.2 241.3,248 261.6,248 					"/>
				</g>
			</g>
		</g>
		<g class="st2">
			<g>
				<g>
					<path class="st4" d="M298.7,165.1c0,0-10.5,2-23.5,2c-5.2,0-10-0.3-13.9-0.7c-1.5-0.2-1.5-2.4,0-2.6c3.9-0.4,8.7-0.7,13.9-0.7
						C288.2,163.1,298.7,165.1,298.7,165.1z"/>
					<path class="st4" d="M298.7,165.1c0,0,2.6-11.2,7.9-24.1c1.9-4.7,4-8.9,5.7-12.4c0.7-1.4,2.9-0.5,2.4,1
						c-1.2,3.8-2.8,8.3-4.8,13.1C304.7,155.5,298.7,165.1,298.7,165.1z"/>
					<path class="st4" d="M298.7,165c0,0,8,7.6,16.1,18.6c3.1,4.2,5.7,8.2,7.8,11.6c0.8,1.3-1,2.7-2.1,1.5
						c-2.6-2.9-5.6-6.6-8.6-10.7C303.9,175.1,298.7,165,298.7,165z"/>
					<ellipse class="st4" cx="298.7" cy="165.1" rx="4.3" ry="4.6"/>
				</g>
				<polygon class="st4" points="306.8,168.4 298.7,169.6 298.7,160.4 306.8,161.6 				"/>
				<ellipse class="st4" cx="306.7" cy="165" rx="1.4" ry="3.4"/>
			</g>
			<polygon class="st4" points="307.4,358.6 298.6,358.6 301,167.6 304.1,167.6 			"/>
		</g>
		<g class="st2">
			<g>
				<g>
					<path class="st4" d="M252,195.9c0,0,9.6-1.1,21.2-0.3c4.6,0.3,8.8,0.9,12.2,1.4c1.4,0.2,1,2.2-0.4,2.2
						c-3.5,0.1-7.8,0.1-12.4-0.2C261,198.3,252,195.9,252,195.9z"/>
					<path class="st4" d="M252,195.9c0,0-4,9.5-10.6,20.3c-2.4,3.9-4.8,7.5-6.9,10.4c-0.8,1.2-2.6,0.3-2-1c1.7-3.2,3.7-7,6.2-11
						C245.3,203.9,252,195.9,252,195.9z"/>
					<path class="st4" d="M252,196c0,0-6-7.1-11.6-17c-2.1-3.8-3.9-7.4-5.3-10.5c-0.5-1.2,1.3-2.3,2.1-1.2c1.9,2.7,4,6,6.1,9.7
						C248.9,186.9,252,196,252,196z"/>
					<ellipse class="st4" cx="253.8" cy="196" rx="4" ry="4.3"/>
				</g>
				<polygon class="st4" points="261.2,199 253.8,200.1 253.8,191.7 261.2,192.8 				"/>
				<ellipse class="st4" cx="261.1" cy="195.9" rx="1.3" ry="3.2"/>
			</g>
			<polygon class="st4" points="261.8,375.5 253.6,375.5 255.9,198.4 258.8,198.4 			"/>
		</g>
		<g class="st2">
			<defs>
				<rect id="SVGID_3_" x="-596.3" y="-157.3" width="1547.6" height="773.8"/>
			</defs>
			<clipPath id="SVGID_4_">
				<use xlink:href="#SVGID_3_"  style="overflow:visible;"/>
			</clipPath>
			<path class="st11" d="M1025,163.8c-2.5-13.3-9.1-24.9-18.3-33.5c0,0-21.2-21.5-54.2-16c-28.5,4.7-48.6,29.2-50.5,56.7
				c-21.7-8.4-46-11-70.6-6.4c-45.6,8.6-81.1,40.1-96.9,80.3c-9.4-2.1-19.5-2.4-29.6-0.5c-24.1,4.5-43.3,20.4-53,41
				c-17.6-25-48.8-38.8-80.8-32.8c-14.1,2.7-26.7,8.8-36.9,17.5c-9.5-6.7-21.1-10.6-33.5-10.6c-17,0-32.2,7.2-42.9,18.8
				c-27.3-38.7-75.5-60.2-125.1-50.8c-38.1,7.2-68.9,30.9-86.2,62.4c-8.5-4.4-18.1-6.8-28.3-6.8c-26.6,0-49.3,16.8-58.1,40.3
				c-14.5-4.2-30.2-5.2-46-2.2c-16.1,3-30.6,9.8-42.7,19.2c-10.2-51.6-55.7-90.5-110.3-90.5c-47,0-87.2,28.8-104,69.7
				c-13.2-19.5-35.5-32.2-60.8-32.2c-13.3,0-25.9,3.6-36.7,9.8c-21.5-33.9-59.3-56.3-102.4-56.3c-16.9,0-33.1,3.5-47.7,9.8
				c-7.5-29.3-34.1-50.9-65.7-50.9c-8.5,0-16.5,1.6-24,4.4c2.6-9.3,4.1-19,4.1-29.1c0-58.4-47.3-105.7-105.7-105.7
				c-58.4,0-105.7,47.3-105.7,105.7c0,32.2,14.4,61,37,80.4v361.4h1657.3V220.3C1021.5,206.2,1029.1,185.3,1025,163.8z"/>
		</g>
		<g class="st2">
			<defs>
				<rect id="SVGID_5_" x="-596.3" y="-157.3" width="1547.6" height="773.8"/>
			</defs>
			<clipPath id="SVGID_6_">
				<use xlink:href="#SVGID_5_"  style="overflow:visible;"/>
			</clipPath>
			<g class="st12">
				<g>
					<rect x="-434.8" y="376.3" class="st13" width="48.5" height="42.6"/>
					<rect x="-449.4" y="376.3" class="st14" width="48.5" height="42.6"/>
					<g>
						<rect x="-426.3" y="376.3" class="st15" width="5.2" height="8.6"/>
					</g>
					<g>
						<rect x="-440.1" y="411" class="st13" width="5" height="4.8"/>
						<rect x="-447.1" y="411" class="st13" width="5" height="4.8"/>
						<rect x="-433" y="411" class="st13" width="5" height="4.8"/>
					</g>
				</g>
				<g>
					<rect x="-336.2" y="376.3" class="st13" width="48.5" height="42.6"/>
					<rect x="-350.9" y="376.3" class="st14" width="48.5" height="42.6"/>
					<g>
						<rect x="-327.8" y="376.3" class="st15" width="5.2" height="8.6"/>
					</g>
					<g>
						<rect x="-341.5" y="411" class="st13" width="5" height="4.8"/>
						<rect x="-348.5" y="411" class="st13" width="5" height="4.8"/>
						<rect x="-334.5" y="411" class="st13" width="5" height="4.8"/>
					</g>
				</g>
				<g>
					<rect x="773.1" y="376.3" class="st13" width="48.5" height="42.6"/>
					<rect x="758.5" y="376.3" class="st14" width="48.5" height="42.6"/>
					<g>
						<rect x="781.5" y="376.3" class="st15" width="5.2" height="8.6"/>
					</g>
					<g>
						<rect x="767.8" y="411" class="st13" width="5" height="4.8"/>
						<rect x="760.8" y="411" class="st13" width="5" height="4.8"/>
						<rect x="774.8" y="411" class="st13" width="5" height="4.8"/>
					</g>
				</g>
				<g>
					<rect x="871.6" y="376.3" class="st13" width="48.5" height="42.6"/>
					<rect x="857" y="376.3" class="st14" width="48.5" height="42.6"/>
					<g>
						<rect x="880" y="376.3" class="st15" width="5.2" height="8.6"/>
					</g>
					<g>
						<rect x="866.3" y="411" class="st13" width="5" height="4.8"/>
						<rect x="859.3" y="411" class="st13" width="5" height="4.8"/>
						<rect x="873.4" y="411" class="st13" width="5" height="4.8"/>
					</g>
				</g>
				<g>
					<rect x="-533.3" y="376.3" class="st13" width="48.5" height="42.6"/>
					<rect x="-547.9" y="376.3" class="st14" width="48.5" height="42.6"/>
					<g>
						<rect x="-524.9" y="376.3" class="st15" width="5.2" height="8.6"/>
					</g>
					<g>
						<rect x="-538.6" y="411" class="st13" width="5" height="4.8"/>
						<rect x="-545.6" y="411" class="st13" width="5" height="4.8"/>
						<rect x="-531.5" y="411" class="st13" width="5" height="4.8"/>
					</g>
				</g>
				<g>
					<rect x="-634" y="376.3" class="st13" width="48.5" height="42.6"/>
					<rect x="-648.7" y="376.3" class="st14" width="48.5" height="42.6"/>
					<g>
						<rect x="-625.6" y="376.3" class="st15" width="5.2" height="8.6"/>
					</g>
					<g>
						<rect x="-639.3" y="411" class="st13" width="5" height="4.8"/>
						<rect x="-646.3" y="411" class="st13" width="5" height="4.8"/>
						<rect x="-632.3" y="411" class="st13" width="5" height="4.8"/>
					</g>
				</g>
			</g>
			<path class="st16" d="M83,522.1c-37.6-19.1-86.7-14-86.7-14s-22.4-24.1-74.8-21.9c-52.3,2.2-62,24.7-62,24.7
				s-28.4-13.5-82.2-12.3c-53.8,1.1-67.3,16.3-67.3,16.3s-9-4.5-59.8-5.6c-37.6-0.8-54.3,8.2-60.5,12.9H83z"/>
			<path class="st16" d="M-747.2,527.7h361.9c0-67.2-118.3-49.5-118.3-49.5s-14.7-21.2-43-39.8c-28.3-18.6-83.9-10.8-83.9-10.8
				s-0.9-24.1-40.9-45.2c-24.7-13-53.3-11.5-75.7-9.4V527.7z"/>
			<g class="st12">
				<g>
					<g>
						<polygon class="st17" points="655.4,420.1 655.4,488 641.8,488 641.8,409.6 						"/>
						<rect x="655.4" y="420.1" class="st18" width="39.2" height="67.9"/>
						<g>
							<path class="st19" d="M660.8,460.4v-13.1c0-1.5,1.2-2.6,2.6-2.6h23.1c1.5,0,2.6,1.2,2.6,2.6v13.1c0,1.5-1.2,2.6-2.6,2.6
								h-23.1C662,463.1,660.8,461.9,660.8,460.4z M663.5,444.9c-1.3,0-2.4,1.1-2.4,2.4v13.1c0,1.3,1.1,2.4,2.4,2.4h23.1
								c1.3,0,2.4-1.1,2.4-2.4v-13.1c0-1.3-1.1-2.4-2.4-2.4H663.5z"/>
							<path class="st20" d="M678.9,447.5h-8c-0.3,0-0.5-0.2-0.5-0.5l0,0c0-0.3,0.2-0.5,0.5-0.5h8c0.3,0,0.5,0.2,0.5,0.5l0,0
								C679.4,447.3,679.2,447.5,678.9,447.5z"/>
						</g>
						<polygon class="st21" points="641.8,409.6 655.4,420.1 655.4,430 655.3,430 641.8,419 						"/>
						<rect x="655.4" y="420.1" class="st21" width="39.2" height="9.9"/>
					</g>
					<g>
						<polygon class="st17" points="654.6,424.8 631.7,406.7 631.7,398 654.6,415.3 						"/>
						<rect x="654.7" y="415.3" class="st18" width="50" height="9.5"/>
						<polygon class="st22" points="631.7,398 632.1,398 679.3,398 704.7,415.3 654.7,415.3 						"/>
						<g>
							<polygon class="st15" points="661.6,403.8 645.1,403.8 641.5,401.3 658,401.3 							"/>
							<polygon class="st15" points="672.1,403.8 664.7,403.8 661.2,401.3 668.5,401.3 							"/>
							<polygon class="st15" points="666.5,407.3 650,407.3 646.5,404.8 663,404.8 							"/>
							<polygon class="st15" points="677,407.3 669.6,407.3 666.1,404.8 673.5,404.8 							"/>
							<polygon class="st15" points="671.5,410.8 654.9,410.8 651.4,408.3 667.9,408.3 							"/>
							<polygon class="st15" points="682,410.8 674.6,410.8 671,408.3 678.4,408.3 							"/>
							<polygon class="st15" points="682.5,403.8 675.2,403.8 671.6,401.3 679,401.3 							"/>
							<polygon class="st15" points="687.5,407.3 680.1,407.3 676.6,404.8 683.9,404.8 							"/>
							<polygon class="st15" points="692.4,410.8 685.1,410.8 681.5,408.3 688.9,408.3 							"/>
						</g>
					</g>
				</g>
				<rect x="637.3" y="483.7" class="st21" width="63.8" height="4.2"/>
			</g>
			<g class="st12">
				<defs>
					<rect id="SVGID_7_" x="753.2" y="331.4" width="197.9" height="158"/>
				</defs>
				<clipPath id="SVGID_8_">
					<use xlink:href="#SVGID_7_"  style="overflow:visible;"/>
				</clipPath>
			</g>
			<path class="st16" d="M877.7,507.3c-55.3-17.6-127.6-12.9-127.6-12.9s-33-22.2-110.1-20.2c-77,2.1-91.3,22.8-91.3,22.8
				s-41.8-12.4-121.1-11.4c-79.2,1-99,15-99,15s-13.2-4.1-88-5.2c-55.4-0.8-80,7.5-89.1,11.9H877.7z"/>
			<path class="st16" d="M1067.3,506.4C1032.1,490.9,986,495,986,495s-21-19.6-70.1-17.7c-49.1,1.8-58.2,20-58.2,20
				s-26.7-10.9-77.2-10c-50.5,0.9-63.1,13.2-63.1,13.2s-8.4-3.6-56.1-4.5c-35.3-0.7-51,6.6-56.8,10.5H1067.3z"/>
			<g class="st12">
				<g>
					<g>
						<polygon class="st17" points="-490.7,445.8 -490.7,513.7 -504.3,513.7 -504.3,435.3 						"/>
						<rect x="-490.7" y="445.8" class="st18" width="39.2" height="67.9"/>
						<g>
							<path class="st19" d="M-485.3,486.2V473c0-1.5,1.2-2.6,2.6-2.6h23.1c1.5,0,2.6,1.2,2.6,2.6v13.1c0,1.5-1.2,2.6-2.6,2.6h-23.1
								C-484.1,488.8-485.3,487.6-485.3,486.2z M-482.6,470.6c-1.3,0-2.4,1.1-2.4,2.4v13.1c0,1.3,1.1,2.4,2.4,2.4h23.1
								c1.3,0,2.4-1.1,2.4-2.4V473c0-1.3-1.1-2.4-2.4-2.4H-482.6z"/>
							<path class="st20" d="M-467.2,473.2h-8c-0.3,0-0.5-0.2-0.5-0.5l0,0c0-0.3,0.2-0.5,0.5-0.5h8c0.3,0,0.5,0.2,0.5,0.5l0,0
								C-466.7,473-466.9,473.2-467.2,473.2z"/>
						</g>
						<polygon class="st21" points="-504.3,435.3 -490.7,445.8 -490.7,455.7 -490.8,455.7 -504.3,444.7 						"/>
						<rect x="-490.7" y="445.8" class="st21" width="39.2" height="9.9"/>
					</g>
					<g>
						<polygon class="st17" points="-491.5,450.5 -514.4,432.4 -514.4,423.8 -491.5,441.1 						"/>
						<rect x="-491.4" y="441.1" class="st18" width="50" height="9.5"/>
						<polygon class="st22" points="-514.4,423.8 -514,423.8 -466.8,423.8 -441.4,441.1 -491.4,441.1 						"/>
						<g>
							<polygon class="st15" points="-484.5,429.6 -501,429.6 -504.6,427 -488.1,427.1 							"/>
							<polygon class="st15" points="-474,429.6 -481.4,429.6 -484.9,427.1 -477.6,427.1 							"/>
							<polygon class="st15" points="-479.6,433.1 -496.1,433 -499.6,430.5 -483.1,430.6 							"/>
							<polygon class="st15" points="-469.1,433.1 -476.5,433.1 -480,430.6 -472.6,430.6 							"/>
							<polygon class="st15" points="-474.7,436.6 -491.2,436.5 -494.7,434 -478.2,434.1 							"/>
							<polygon class="st15" points="-464.1,436.6 -471.5,436.6 -475.1,434.1 -467.7,434.1 							"/>
							<polygon class="st15" points="-463.6,429.6 -470.9,429.6 -474.5,427.1 -467.1,427.1 							"/>
							<polygon class="st15" points="-458.6,433.1 -466,433.1 -469.5,430.6 -462.2,430.6 							"/>
							<polygon class="st15" points="-453.7,436.6 -461,436.6 -464.6,434.1 -457.2,434.1 							"/>
						</g>
					</g>
				</g>
				<rect x="-508.8" y="509.5" class="st21" width="63.8" height="4.2"/>
			</g>
		</g>
	</g>
	<g>
		<g>
			<g>
				
					<rect x="245.2" y="216.3" transform="matrix(1.939979e-02 -0.9998 0.9998 1.939979e-02 35.5687 480.6234)" class="st21" width="35.2" height="11.7"/>
				<g>
					<g>
						
							<rect x="257" y="258.5" transform="matrix(-1 -8.555306e-03 8.555306e-03 -1 523.3557 524.1906)" class="st21" width="11.6" height="4.9"/>
						
							<rect x="259.3" y="261.3" transform="matrix(-1 -8.555150e-03 8.555150e-03 -1 523.2531 532.1847)" class="st21" width="7" height="7.3"/>
						
							<rect x="257" y="258.5" transform="matrix(-1 -8.555306e-03 8.555306e-03 -1 523.3557 524.1906)" class="st21" width="11.6" height="4.9"/>
						<g>
							<path class="st21" d="M256.7,270.2L256.7,270.2L256.7,270.2L256.7,270.2L256.7,270.2l0.9-0.8c1.3-1.3,3.1-2,4.9-1.9l0,0
								c1.8,0,3.6,0.7,4.9,2l0.9,0.8l0,0l0,0l0,0l0,0l0,5.8l0,0l-0.9,0.8c-1.3,1.2-3.1,1.9-4.9,1.9l-0.1,0c-1.8,0-3.5-0.7-4.8-2
								l-0.9-0.8h0L256.7,270.2z"/>
							
								<rect x="259" y="275.1" transform="matrix(-1 -8.554175e-03 8.554175e-03 -1 522.2887 557.1259)" class="st21" width="6.6" height="4.7"/>
						</g>
						<polygon class="st21" points="263.7,271.9 263.6,291.7 262.2,293 260.9,291.7 261,271.8 						"/>
					</g>
					<g>
						<polygon class="st23" points="255.8,260.9 269.8,261 277,253.3 248.7,253 						"/>
					</g>
					<g>
						<polygon class="st23" points="270.6,231 255.5,230.8 247.8,236.1 278.2,236.3 						"/>
					</g>
					
						<rect x="246.8" y="235.1" transform="matrix(-1 -8.554962e-03 8.554962e-03 -1 523.7822 490.9628)" class="st21" width="32.3" height="18.5"/>
				</g>
			</g>
			<g>
				
					<rect x="200.4" y="184" transform="matrix(2.861384e-02 -0.9996 0.9996 2.861384e-02 -9.7888 410.3795)" class="st21" width="11.7" height="52.4"/>
				<g>
					<path class="st23" d="M217.8,223.2l44.1,1.4c6.8,0.2,12.4-5.1,12.6-11.9v0c0.2-6.8-5.1-12.4-11.9-12.6l-44.1-1.4
						c-6.8-0.2-12.4,5.1-12.6,11.9v0C205.8,217.3,211.1,223,217.8,223.2z"/>
					<g>
						<g>
							<path class="st21" d="M257.8,210c-1.2,2.5,0,5.5,2.5,6.7c2.5,1.2,5.5,0,6.7-2.5c1.2-2.5,0-5.5-2.5-6.7S259,207.5,257.8,210z"
								/>
						</g>
					</g>
					<g>
						<g>
							<path class="st21" d="M212.8,209.1c-1.2,2.5,0,5.5,2.5,6.7c2.5,1.2,5.5,0,6.7-2.5c1.2-2.5,0-5.5-2.5-6.7
								C216.9,205.5,213.9,206.6,212.8,209.1z"/>
						</g>
					</g>
				</g>
			</g>
			<rect x="218" y="80" class="st21" width="11.7" height="52.4"/>
			<path class="st23" d="M212.1,66.4v15.9c0,6.5,5.2,11.7,11.7,11.7h0c6.5,0,11.7-5.2,11.7-11.7V66.4H212.1z"/>
			<g>
				<path class="st21" d="M217.6,79.6c-1.5,3.5,0.1,7.5,3.6,9c3.5,1.5,7.5-0.1,9-3.6c1.5-3.5-0.1-7.5-3.6-9
					C223.1,74.5,219.1,76.1,217.6,79.6z"/>
			</g>
			<g>
				<path class="st23" d="M198.3,217.5l39.3-71.8c6-11,2-24.8-9-30.8l0,0c-11-6-24.8-2-30.8,9l-39.3,71.8c-6,11-2,24.8,9,30.8l0,0
					C178.5,232.6,192.3,228.5,198.3,217.5z"/>
				<g>
					<g>
						<path class="st21" d="M208.2,141.8c4,5,11.3,5.8,16.3,1.8c5-4,5.8-11.3,1.8-16.3c-4-5-11.3-5.8-16.3-1.8
							C205,129.5,204.2,136.8,208.2,141.8z"/>
					</g>
					<g>
						<path class="st21" d="M169.3,213.8c3.9,5,11.3,5.9,16.3,2c5-3.9,5.9-11.3,2-16.3c-3.9-5-11.3-5.9-16.3-2
							C166.3,201.5,165.4,208.8,169.3,213.8z"/>
					</g>
				</g>
			</g>
		</g>
	</g>
	<g>
		<g>
			<rect x="454.1" y="76.9" class="st21" width="9.2" height="41.1"/>
			
				<rect x="497.6" y="136.9" transform="matrix(0.4674 -0.884 0.884 0.4674 150.9128 533.4678)" class="st21" width="41.1" height="9.2"/>
			
				<rect x="493.1" y="175.9" transform="matrix(0.9999 -1.084673e-02 1.084673e-02 0.9999 -2.0287 5.41)" class="st21" width="9.2" height="27.6"/>
			<path class="st23" d="M449.5,67.4v11.2c0,5.1,4.1,9.2,9.2,9.2l0,0c5.1,0,9.2-4.1,9.2-9.2V67.4H449.5z"/>
			<g>
				<path class="st21" d="M456.6,73.7c-2.7,1.2-4,4.3-2.8,7.1c1.2,2.7,4.3,4,7.1,2.8c2.7-1.2,4-4.3,2.8-7.1
					C462.5,73.8,459.3,72.5,456.6,73.7z"/>
			</g>
			<g>
				<path class="st23" d="M529.3,135.7l-64.2,2.3c-9.8,0.4-18.1-7.3-18.5-17.2v0c-0.4-9.8,7.3-18.1,17.2-18.5L528,100
					c9.8-0.4,18.1,7.3,18.5,17.2v0C546.8,127,539.1,135.3,529.3,135.7z"/>
				<g>
					<g>
						<path class="st21" d="M460.6,111.5c-4.6,2.1-6.6,7.5-4.4,12.1c2.1,4.6,7.5,6.6,12.1,4.4c4.6-2.1,6.6-7.5,4.4-12.1
							C470.6,111.4,465.1,109.4,460.6,111.5z"/>
					</g>
					<g>
						<path class="st21" d="M524.7,109.7c-4.5,2.2-6.5,7.6-4.3,12.2c2.2,4.5,7.6,6.5,12.2,4.3c4.5-2.2,6.5-7.6,4.3-12.2
							C534.7,109.5,529.3,107.5,524.7,109.7z"/>
					</g>
				</g>
				<g>
					<path class="st23" d="M462.2,115.8c-2.4,1.1-3.4,3.9-2.3,6.3c1.1,2.4,3.9,3.4,6.3,2.3c2.4-1.1,3.4-3.9,2.3-6.3
						C467.5,115.7,464.6,114.7,462.2,115.8z"/>
				</g>
				<g>
					<path class="st23" d="M526.4,113.8c-2.4,1.2-3.5,4.1-2.3,6.5c1.2,2.4,4.1,3.5,6.5,2.3s3.5-4.1,2.3-6.5
						C531.7,113.7,528.8,112.7,526.4,113.8z"/>
				</g>
			</g>
			<g>
				<path class="st23" d="M522.6,154.4l-16.1,30.7c-2.5,4.7-8.3,6.5-13,4.1l0,0c-4.7-2.5-6.5-8.3-4.1-13l16.1-30.7
					c2.5-4.7,8.3-6.5,13-4.1l0,0C523.2,143.9,525.1,149.7,522.6,154.4z"/>
				<g>
					<g>
						<path class="st21" d="M493.8,180.3c-0.2,2.2,1.4,4.1,3.6,4.3c2.2,0.2,4.1-1.4,4.3-3.6c0.2-2.2-1.4-4.1-3.6-4.3
							C496,176.5,494,178.1,493.8,180.3z"/>
					</g>
				</g>
				<g>
					<g>
						<path class="st21" d="M510.7,149.1c-0.2,2.2,1.4,4.1,3.6,4.3s4.1-1.4,4.3-3.6c0.2-2.2-1.4-4.1-3.6-4.3
							C512.8,145.3,510.8,146.9,510.7,149.1z"/>
					</g>
				</g>
			</g>
			<g>
				<g>
					<path class="st21" d="M541.8,221.9v37.7c-0.3,2.4-1.8,3.5-4.6,3.1v-40.8H541.8z"/>
					<polygon class="st21" points="552.7,221.9 539.5,235 539.5,221.9 					"/>
				</g>
				<g>
					<path class="st21" d="M458,221.9l0,40.8c-2.8,0.4-4.3-0.6-4.6-3.1v-37.7H458z"/>
					<polygon class="st21" points="456.8,221.9 456.8,235 443.6,221.9 					"/>
				</g>
				<g>
					<path class="st23" d="M491.7,199.3h11.2c2,1.6,3.3,4.1,3.3,6.9l0,11.8l-17.8,0l0-11.8C488.4,203.4,489.7,200.9,491.7,199.3z"/>
					<path class="st23" d="M444.4,222.5h107.4c1.7,0,3-1.3,3-3l0,0c0-1.7-1.3-3-3-3H444.4c-1.7,0-3,1.3-3,3l0,0
						C441.3,221.2,442.7,222.5,444.4,222.5z"/>
					<circle class="st21" cx="497.3" cy="207.4" r="5.4"/>
					<circle class="st4" cx="497.3" cy="207.4" r="2.6"/>
				</g>
			</g>
		</g>
	</g>
	<g>
		<g>
			<path class="st23" d="M301.4,280.5h-15.4v-45.9c0-12.1,9.9-22,22-22h66.3c12.1,0,22,9.9,22,22v24.7h-15.4v-24.7
				c0-3.7-3-6.6-6.6-6.6h-66.3c-3.7,0-6.6,3-6.6,6.6V280.5z"/>
			<rect x="372.6" y="255.3" class="st23" width="31.9" height="4.1"/>
			<rect x="277.6" y="276.5" class="st23" width="31.9" height="4.1"/>
		</g>
		<rect x="141.2" y="284.2" class="st24" width="57.6" height="158.5"/>
		<g>
			<path class="st23" d="M156.2,442.6h114.4V266.9c0-2.8-2.3-5-5-5H161.2c-2.8,0-5,2.3-5,5V442.6z"/>
			<g>
				
					<rect x="251.5" y="398.7" transform="matrix(-1 -1.224647e-16 1.224647e-16 -1 506.9034 828.6431)" class="st25" width="3.9" height="31.2"/>
				
					<rect x="243.9" y="398.7" transform="matrix(-1 -1.224647e-16 1.224647e-16 -1 491.6352 828.6431)" class="st25" width="3.9" height="31.2"/>
				
					<rect x="236.2" y="398.7" transform="matrix(-1 -1.224647e-16 1.224647e-16 -1 476.367 828.6431)" class="st25" width="3.9" height="31.2"/>
				
					<rect x="228.6" y="398.7" transform="matrix(-1 -1.224647e-16 1.224647e-16 -1 461.0988 828.6431)" class="st25" width="3.9" height="31.2"/>
				
					<rect x="220.9" y="398.7" transform="matrix(-1 -1.224647e-16 1.224647e-16 -1 445.8306 828.6431)" class="st25" width="3.9" height="31.2"/>
				
					<rect x="213.3" y="398.7" transform="matrix(-1 -1.224647e-16 1.224647e-16 -1 430.5625 828.6431)" class="st25" width="3.9" height="31.2"/>
				
					<rect x="205.7" y="398.7" transform="matrix(-1 -1.224647e-16 1.224647e-16 -1 415.2943 828.6431)" class="st25" width="3.9" height="31.2"/>
			</g>
			<rect x="161.8" y="259.3" class="st24" width="104.4" height="2.4"/>
			<path class="st4" d="M168.6,376.3h90c2.7,0,4.9-2.2,4.9-4.9V275c0-2.7-2.2-4.9-4.9-4.9h-90c-2.7,0-4.9,2.2-4.9,4.9v96.4
				C163.7,374.1,165.8,376.3,168.6,376.3z"/>
			<g>
				<path class="st24" d="M179.5,311.5h69.1c1.2,0,2.2-1,2.2-2.2v-23.2c0-1.2-1-2.2-2.2-2.2h-69.1c-1.2,0-2.2,1-2.2,2.2v23.2
					C177.2,310.6,178.2,311.5,179.5,311.5z"/>
				<g>
					<g>
						<rect x="221.9" y="303.6" class="st10" width="5.9" height="3.9"/>
						<rect x="221.9" y="299" class="st10" width="5.9" height="3.9"/>
						<rect x="221.9" y="294.4" class="st10" width="5.9" height="3.9"/>
						<rect x="221.9" y="289.7" class="st10" width="5.9" height="3.9"/>
					</g>
					<g>
						<rect x="215" y="303.6" class="st10" width="5.9" height="3.9"/>
						<rect x="215" y="299" class="st10" width="5.9" height="3.9"/>
						<rect x="215" y="294.4" class="st10" width="5.9" height="3.9"/>
					</g>
					<g>
						<rect x="194.2" y="303.6" class="st10" width="5.9" height="3.9"/>
						<rect x="194.2" y="299" class="st10" width="5.9" height="3.9"/>
						<rect x="194.2" y="294.4" class="st10" width="5.9" height="3.9"/>
					</g>
					<g>
						<rect x="208" y="303.6" class="st10" width="5.9" height="3.9"/>
						<rect x="208" y="299" class="st10" width="5.9" height="3.9"/>
						<rect x="208" y="294.4" class="st10" width="5.9" height="3.9"/>
						<rect x="208" y="289.7" class="st10" width="5.9" height="3.9"/>
					</g>
					<g>
						<rect x="201.2" y="303.6" class="st10" width="5.9" height="3.9"/>
						<rect x="235.8" y="303.6" class="st10" width="5.9" height="3.9"/>
						<rect x="201.2" y="299" class="st10" width="5.9" height="3.9"/>
					</g>
					<g>
						<rect x="228.8" y="303.6" class="st10" width="5.9" height="3.9"/>
						<rect x="228.8" y="299" class="st10" width="5.9" height="3.9"/>
					</g>
					<g>
						<rect x="187.4" y="303.6" class="st10" width="5.9" height="3.9"/>
						<rect x="187.4" y="299" class="st10" width="5.9" height="3.9"/>
					</g>
				</g>
				<g>
					<g>
						<circle class="st10" cx="192" cy="335.5" r="12.3"/>
						<g>
							<g>
								<path class="st24" d="M200.5,328.3l-4.2,4c0.7,0.9,1.2,2.1,1.2,3.3h5.8C203.2,332.7,202.1,330.2,200.5,328.3z"/>
							</g>
							<g>
								<path class="st24" d="M199.5,327.3c-1.9-1.7-4.5-2.8-7.3-2.9l0.1,5.8c1.1,0.1,2.1,0.5,3,1.1L199.5,327.3z"/>
							</g>
							<g>
								<path class="st24" d="M184.3,327.4l4.1,4c0.7-0.6,1.6-1,2.5-1.2l-0.1-5.8C188.4,324.7,186.1,325.8,184.3,327.4z"/>
							</g>
							<g>
								<path class="st24" d="M180.8,335.5h5.8c0-1.1,0.4-2.2,1-3.1l-4.1-4C181.8,330.3,180.8,332.8,180.8,335.5z"/>
							</g>
						</g>
					</g>
					<path class="st25" d="M192.6,335.8L192.6,335.8c0.1-0.3-0.1-0.7-0.4-0.8l-6.6-2.2c-0.3-0.1-0.7,0.1-0.8,0.4l0,0
						c-0.1,0.3,0.1,0.7,0.4,0.8l6.6,2.2C192.1,336.3,192.4,336.2,192.6,335.8z"/>
				</g>
				<g>
					<g>
						<circle class="st10" cx="234.5" cy="335.5" r="12.3"/>
						<g>
							<g>
								<path class="st24" d="M243,328.3l-4.2,4c0.7,0.9,1.2,2.1,1.2,3.3h5.8C245.7,332.7,244.7,330.2,243,328.3z"/>
							</g>
							<g>
								<path class="st24" d="M242,327.3c-1.9-1.7-4.5-2.8-7.3-2.9l0.1,5.8c1.1,0.1,2.1,0.5,3,1.1L242,327.3z"/>
							</g>
							<g>
								<path class="st24" d="M226.8,327.4l4.1,4c0.7-0.6,1.6-1,2.5-1.2l-0.1-5.8C230.9,324.7,228.6,325.8,226.8,327.4z"/>
							</g>
							<g>
								<path class="st24" d="M223.3,335.5h5.8c0-1.1,0.4-2.2,1-3.1l-4.1-4C224.3,330.3,223.3,332.8,223.3,335.5z"/>
							</g>
						</g>
					</g>
					<path class="st25" d="M234.3,335.9L234.3,335.9c0.3,0.1,0.7,0,0.9-0.4l2.4-6.5c0.1-0.3,0-0.7-0.4-0.9l0,0
						c-0.3-0.1-0.7,0-0.9,0.4l-2.4,6.5C233.8,335.4,233.9,335.8,234.3,335.9z"/>
					<circle class="st7" cx="213.2" cy="327.5" r="1.5"/>
					<circle class="st18" cx="213.2" cy="332.8" r="1.5"/>
					<circle class="st18" cx="213.2" cy="338" r="1.5"/>
					<circle class="st18" cx="213.2" cy="343.2" r="1.5"/>
				</g>
			</g>
			<path class="st18" d="M241.9,363.3L241.9,363.3c2.1,0,3.8-1.7,3.8-3.8l0,0c0-2.1-1.7-3.8-3.8-3.8l0,0c-2.1,0-3.8,1.7-3.8,3.8l0,0
				C238.1,361.6,239.8,363.3,241.9,363.3z"/>
			<path class="st18" d="M230.4,363.3L230.4,363.3c2.1,0,3.8-1.7,3.8-3.8l0,0c0-2.1-1.7-3.8-3.8-3.8l0,0c-2.1,0-3.8,1.7-3.8,3.8l0,0
				C226.6,361.6,228.3,363.3,230.4,363.3z"/>
			<path class="st26" d="M219,363.3L219,363.3c2.1,0,3.8-1.7,3.8-3.8l0,0c0-2.1-1.7-3.8-3.8-3.8l0,0c-2.1,0-3.8,1.7-3.8,3.8l0,0
				C215.2,361.6,216.9,363.3,219,363.3z"/>
			<path class="st23" d="M207.5,363.3L207.5,363.3c2.1,0,3.8-1.7,3.8-3.8l0,0c0-2.1-1.7-3.8-3.8-3.8l0,0c-2.1,0-3.8,1.7-3.8,3.8l0,0
				C203.7,361.6,205.4,363.3,207.5,363.3z"/>
			<path class="st23" d="M196.1,363.3L196.1,363.3c2.1,0,3.8-1.7,3.8-3.8l0,0c0-2.1-1.7-3.8-3.8-3.8l0,0c-2.1,0-3.8,1.7-3.8,3.8l0,0
				C192.3,361.6,194,363.3,196.1,363.3z"/>
			<path class="st24" d="M184.6,363.3L184.6,363.3c2.1,0,3.8-1.7,3.8-3.8l0,0c0-2.1-1.7-3.8-3.8-3.8l0,0c-2.1,0-3.8,1.7-3.8,3.8l0,0
				C180.8,361.6,182.5,363.3,184.6,363.3z"/>
		</g>
		<g>
			<g>
				<path class="st23" d="M383.7,114.6h8.7c0.7,0,1.2-0.6,1.2-1.2l0,0c0-0.7-0.6-1.2-1.2-1.2h-8.7c-0.7,0-1.2,0.6-1.2,1.2l0,0
					C382.5,114,383,114.6,383.7,114.6z"/>
				<path class="st23" d="M383.7,119.1h8.7c0.7,0,1.2-0.6,1.2-1.2l0,0c0-0.7-0.6-1.2-1.2-1.2h-8.7c-0.7,0-1.2,0.6-1.2,1.2l0,0
					C382.5,118.5,383,119.1,383.7,119.1z"/>
				<path class="st23" d="M383.7,123.6h8.7c0.7,0,1.2-0.6,1.2-1.2l0,0c0-0.7-0.6-1.2-1.2-1.2h-8.7c-0.7,0-1.2,0.6-1.2,1.2l0,0
					C382.5,123,383,123.6,383.7,123.6z"/>
				<path class="st23" d="M383.7,128.1h8.7c0.7,0,1.2-0.6,1.2-1.2l0,0c0-0.7-0.6-1.2-1.2-1.2h-8.7c-0.7,0-1.2,0.6-1.2,1.2l0,0
					C382.5,127.5,383,128.1,383.7,128.1z"/>
			</g>
			<g>
				<path class="st23" d="M358.2,101.5C358.2,101.5,358.2,101.5,358.2,101.5c10.3,0,18.6,8.3,18.6,18.6s-8.3,18.6-18.6,18.6
					c-3.1,0-6-0.8-8.6-2.1l8.6-16.5V101.5z"/>
				<path class="st24" d="M349.6,136.6c-5.9-3.1-10-9.3-10-16.5h18.5L349.6,136.6z"/>
				<path class="st4" d="M358.2,101.5v18.6h-18.5C339.6,109.9,347.9,101.5,358.2,101.5z"/>
			</g>
		</g>
		<g>
			<g>
				
					<rect x="270.7" y="280.9" transform="matrix(-1 -1.224647e-16 1.224647e-16 -1 609.2979 717.1402)" class="st4" width="68" height="155.3"/>
				<rect x="270.8" y="303.3" class="st27" width="68" height="0.7"/>
				<rect x="270.8" y="373.7" class="st27" width="68" height="0.7"/>
				<g>
					<path class="st28" d="M276.2,309.8c-0.9,0-1.6,0.7-1.6,1.6V366c0,0.9,0.7,1.6,1.6,1.6h56.3c0.9,0,1.6-0.7,1.6-1.6v-54.6
						c0-0.9-0.7-1.6-1.6-1.6H276.2z"/>
					<path class="st29" d="M297.5,318.3h16c1,0,1.8-0.8,1.8-1.8l0,0c0-1-0.8-1.8-1.8-1.8h-16c-1,0-1.8,0.8-1.8,1.8l0,0
						C295.7,317.5,296.5,318.3,297.5,318.3z"/>
				</g>
				<polygon class="st30" points="273.8,280.9 274.3,435.7 270.6,435.7 270.6,280.9 				"/>
			</g>
			<circle class="st31" cx="317.8" cy="344.7" r="1.5"/>
			<circle class="st31" cx="313.3" cy="344.7" r="1.5"/>
			<circle class="st31" cx="308.8" cy="344.7" r="1.5"/>
			<circle class="st31" cx="304.2" cy="344.7" r="1.5"/>
			<circle class="st31" cx="299.7" cy="344.7" r="1.5"/>
			<circle class="st31" cx="295.1" cy="344.7" r="1.5"/>
			<circle class="st31" cx="290.6" cy="344.7" r="1.5"/>
		</g>
		<g>
			<path class="st24" d="M512.4,440.4H337.5V267.7c0-5,4-9,9-9h156.9c5,0,9,4,9,9V440.4z"/>
			<g>
				<path class="st23" d="M358.1,335.2h55.4c2.2,0,4.1-1.8,4.1-4.1v-52.1c0-2.2-1.8-4.1-4.1-4.1h-55.4c-2.2,0-4.1,1.8-4.1,4.1v52.1
					C354,333.4,355.8,335.2,358.1,335.2z"/>
				<rect x="400.2" y="307.8" class="st32" width="6" height="17.4"/>
				<rect x="391.8" y="305.2" class="st32" width="6" height="20"/>
				<rect x="383.4" y="299.9" class="st32" width="6" height="25.3"/>
				<rect x="375" y="296.1" class="st32" width="6" height="29"/>
				<rect x="366.7" y="288.1" class="st32" width="6" height="37"/>
			</g>
			<g>
				<path class="st23" d="M497,334.5h-64.3c-3.3,0-5.9-2.6-5.9-5.9v-47.7c0-3.3,2.6-5.9,5.9-5.9H497c3.3,0,5.9,2.6,5.9,5.9v47.7
					C502.9,331.9,500.2,334.5,497,334.5z"/>
				<g>
					<path class="st15" d="M494.3,292h-58.2c-0.1,0-0.1-0.1-0.1-0.1c0-0.1,0.1-0.1,0.1-0.1h58.2c0.1,0,0.1,0.1,0.1,0.1
						C494.5,291.9,494.4,292,494.3,292z"/>
					<path class="st15" d="M494.3,311.9h-58.2c-0.1,0-0.1-0.1-0.1-0.1s0.1-0.1,0.1-0.1h58.2c0.1,0,0.1,0.1,0.1,0.1
						S494.4,311.9,494.3,311.9z"/>
					<path class="st15" d="M494.3,302.2h-58.2c-0.1,0-0.1-0.1-0.1-0.1c0-0.1,0.1-0.1,0.1-0.1h58.2c0.1,0,0.1,0.1,0.1,0.1
						C494.5,302.2,494.4,302.2,494.3,302.2z"/>
					<path class="st15" d="M494.3,322.1h-58.5l-0.1-35.6c0-0.2,0.1-0.3,0.3-0.3c0,0,0,0,0,0c0.2,0,0.3,0.1,0.3,0.3l0.1,35h58
						c0.2,0,0.3,0.1,0.3,0.3S494.5,322.1,494.3,322.1z"/>
					<path class="st15" d="M484.7,295.5l-21.4,20.6l-11-9.8l-16.3,15.2c-0.1,0.1-0.1,0.3,0,0.4c0.1,0.1,0.1,0.1,0.2,0.1
						c0.1,0,0.1,0,0.2-0.1l15.9-14.9l11,9.8l21.4-20.6V295.5z"/>
				</g>
				<circle class="st15" cx="452.2" cy="306.7" r="1.5"/>
				<circle class="st15" cx="463.4" cy="316.3" r="1.5"/>
				<circle class="st15" cx="484.8" cy="295.7" r="1.5"/>
			</g>
			<g>
				<g>
					<rect x="451.2" y="358.4" class="st24" width="14.7" height="81.5"/>
					<g>
						<rect x="463.4" y="358.4" class="st23" width="44.7" height="81.5"/>
					</g>
				</g>
				<g>
					<rect x="342.8" y="355.3" class="st33" width="14.7" height="84.6"/>
					<g>
						<rect x="355" y="358.4" class="st18" width="44.7" height="81.5"/>
						<g>
							<g>
								<path class="st33" d="M358.9,421.7v13.1h6.7l1-1.5h20.2l1,1.5h8.2v-13.1H358.9z"/>
							</g>
						</g>
						<g>
							<g>
								<path class="st33" d="M358.9,402.8V416h6.7l1-1.5h20.2l1,1.5h8.2v-13.1H358.9z"/>
							</g>
						</g>
						<g>
							<g>
								<path class="st33" d="M358.9,384v13.1h6.7l1-1.5h20.2l1,1.5h8.2V384H358.9z"/>
							</g>
						</g>
						<g>
							<g>
								<path class="st33" d="M358.9,365.1v13.1h6.7l1-1.5h20.2l1,1.5h8.2v-13.1H358.9z"/>
							</g>
						</g>
					</g>
				</g>
				<rect x="355" y="355.4" class="st23" width="153.1" height="3.3"/>
				<g>
					<g>
						<path class="st4" d="M466.9,421.7v13.1h6.7l1-1.5h20.2l1,1.5h8.2v-13.1H466.9z"/>
					</g>
				</g>
				<g>
					<g>
						<path class="st4" d="M466.9,402.8V416h6.7l1-1.5h20.2l1,1.5h8.2v-13.1H466.9z"/>
					</g>
				</g>
				<g>
					<g>
						<path class="st4" d="M466.9,384v13.1h6.7l1-1.5h20.2l1,1.5h8.2V384H466.9z"/>
					</g>
				</g>
				<g>
					<g>
						<path class="st4" d="M466.9,365.1v13.1h6.7l1-1.5h20.2l1,1.5h8.2v-13.1H466.9z"/>
					</g>
				</g>
			</g>
		</g>
	</g>
	<g>
		<g>
			<defs>
				<rect id="SVGID_9_" x="171.3" y="145.3" width="319" height="295.2"/>
			</defs>
			<clipPath id="SVGID_10_">
				<use xlink:href="#SVGID_9_"  style="overflow:visible;"/>
			</clipPath>
			<g class="st34">
				<g>
					<path class="st35" d="M385.1,307.2c6.6,6.9,22.3,58.4,26.6,74c4.3,15.6,6.5,27.8,1.2,36.8c-5.3,9-27.9-31.1-27.9-31.1
						l-5.4-43.5L385.1,307.2z"/>
					<linearGradient id="SVGID_11_" gradientUnits="userSpaceOnUse" x1="373.3005" y1="358.7019" x2="389.5064" y2="361.6872">
						<stop  offset="0" style="stop-color:#CFD4D8"/>
						<stop  offset="1" style="stop-color:#CFD4D8;stop-opacity:0"/>
					</linearGradient>
					<path class="st36" d="M385.1,307.2c6.6,6.9,22.3,58.4,26.6,74c4.3,15.6,6.5,27.8,1.2,36.8c-5.3,9-27.9-31.1-27.9-31.1
						l-5.4-43.5L385.1,307.2z"/>
					<g>
						<g>
							<path class="st37" d="M258.1,775.2l3.2-17.1l19.5,2.8l-1.1,16.1c0,0-3.7,7.2-13.9,7.4C255.6,784.5,258.1,775.2,258.1,775.2z"
								/>
							<polygon class="st37" points="345.2,764.3 344.5,778.2 348.3,787.3 364.4,782.2 367.9,771.9 369,755.8 							"/>
							<path class="st37" d="M405.1,788c-5-2.5-20.9-7.3-32-16.1c-1.2-1-2.8-1.3-4.3-1c0,0-0.8,0.2-0.9,0.2c0,0-1.4,7.5-9.6,10.1
								c-5.5,1.8-13.8-2.9-13.8-2.9L343,798h63.5c1.3-0.7,1.7-2,1.7-2S411.5,791.1,405.1,788z"/>
							<path class="st38" d="M278.5,450.7c0,0-9.8,125.1-10.8,136.5c-1,11.4-13,180.8-13,180.8c15,5.9,31.2,1.4,31.2,1.4l26.3-170.8
								l17.3-91.1l5.8-1.6c0,0,2,110.9,2,110.3c0-0.6,2.5,148.9,2.5,148.9c14.6,7.4,34.8-0.6,34.8-0.6s6.3-145,8.1-153.4
								c1.8-8.5,2.3-171.1,2.3-171.1L278.5,450.7z"/>
							<path class="st39" d="M275.6,488.3c26.6,7.2,75.9,13.6,109.3-5.7c0.1-10.2,0.1-19.2,0.1-26.4l-107.7,9.4
								C276.9,471.8,276.3,479.7,275.6,488.3z"/>
							<g id="XMLID_2086_">
								<path id="XMLID_2087_" class="st40" d="M379.7,439.4c-0.8-3.1-1.5-5-1.5-5l-95.1,3.9c0,0-0.3,1.9-0.9,5.3
									c0.5,0.7,0.9,1.1,0.9,1.1C325.6,462,356.3,462,379.7,439.4z"/>
							</g>
							<path class="st35" d="M262.2,358.5l16.7,61.2l-8.5,57.2c0,0,75.3,28.6,122.5-2.2l-9.7-127.8L262.2,358.5z"/>
							<g id="XMLID_2082_">
								<g id="XMLID_2084_">
									<path id="XMLID_2085_" class="st24" d="M377.4,301.4c10.1,4.2,18.3,16.2,5.8,45.5l-4.3,90.4c0,0,4.8,13.9,1.8,16.9
										c-23.4,22.7-54.2,22.7-96.7,5.4c0,0-2.2-2.8-2.5-4c-1.6-6.1,3.6-23.3,3.6-23.3l-23.7-73.8c0,0-27.6-31-12.1-42.5
										C273.6,297.8,337.4,284.6,377.4,301.4z"/>
								</g>
							</g>
							<linearGradient id="SVGID_12_" gradientUnits="userSpaceOnUse" x1="304.2053" y1="381.2216" x2="402.0095" y2="498.9278">
								<stop  offset="0" style="stop-color:#403972"/>
								<stop  offset="1" style="stop-color:#403972;stop-opacity:0"/>
							</linearGradient>
							<path class="st41" d="M387.3,400.6c-4.9,5.8-9.4,12-13.4,18.5c-6.5-0.8-13-1.6-19.5-2.4c-0.1,0-0.2,0-0.3,0
								c-4-15.3-21.9-83.8-26-99.4c1.5-2,3.4-3.5,4.9-5.5c2.5,2.4,5.5,4,9,4.1c2.7-0.6,2.8-9,2.8-9l0.5-12.6c0-0.1-0.1-0.1-0.1-0.2
								c-0.7-0.1-1.9-0.2-2.5-0.2l-41.2,4.6c0.1,0.5-1.5,3.9-1.2,4.9c2.4,7,10.1,17.1,11.6,17.4c1.8,0.3,6.4-5,7-6.7
								c0.9,0.9,2.6,3.4,3.5,4.3c0.5,11-1.2,74.8-1.3,98.5c-9.1-8.3-15.6-17.6-22.8-27.6c6.2,16.5,4.3,18.5,10.5,35.1
								c-16.1-18.8-30.9-65.1-46.9-84l17.1,79.6l-8.5,57.2c0,0,75.3,28.6,122.5-2.2L387.3,400.6z M345.7,434.6
								c1.3-2.4,2.9-5.2,4.5-7.8c5.6,1.7,11.1,3.4,16.7,5.2c-1.9,3.9-3.6,8-5.2,12.1C356.2,441.1,350.9,438,345.7,434.6z"/>
							<g id="XMLID_1613_">
								<g id="XMLID_1614_">
									<path class="st42" d="M332.3,300.7c-4,2.3-12.3,3.5-16.7,3.6c-6.7,0.2-4-3.7-6.2-4.3l-21.6-50l39.1,17.6l0.1,1.7
										L332.3,300.7z"/>
								</g>
							</g>
							<path class="st10" d="M351.7,420l-23.3-104.8l6.1-6.8l-10.3-6.3l-7.9,7.3l7.4,6.5c0,0-0.8,81.6,0.3,107.2l15.9,17.7
								L351.7,420z"/>
							<g id="XMLID_1430_">
								<g id="XMLID_1431_">
									<path class="st24" d="M303.9,287.3c0,0,15.7,15.1,19.8,14.4c4-0.7,6.1-15.8,6.1-15.8s14.4,4.1,16.1,6.1
										c1.8,2-2.5,21.7-4.4,22.6c-4,2-16-11.4-18.1-9.7c-2.2,1.7-8.4,13.1-10.4,12.9c-2-0.2-18.2-16.2-17.3-22.1
										C296.5,289.9,303.9,287.3,303.9,287.3z"/>
								</g>
							</g>
							<path class="st43" d="M273.6,223.4c0,0-13.5-3.1-11.6,13.1c1.9,16.1,13.6,16.5,17,17.2c0,0,6.4,28.7,41.9,26
								c35.5-2.8,29.6-30.2,29.4-48.4c-0.3-18.2,1.8-49.8-21.4-52.1C305.4,176.7,265.1,170.2,273.6,223.4z"/>
							<path class="st37" d="M275.5,778c-7.7-7.2-14.5-1.1-14.5-1.1l-2.9-1.7c-4.2,6.3-12.4,13.9-13.4,17.7
								c-1.9,7.1,1.5,15.3,12.9,15.3c11.1,0,21.8-6.8,23-12.3c0.7-3.3-0.5-12.2-0.8-18.8L275.5,778z"/>
							<g>
								<linearGradient id="SVGID_13_" gradientUnits="userSpaceOnUse" x1="285.6573" y1="589.2725" x2="281.8192" y2="783.7336">
									<stop  offset="0" style="stop-color:#302624;stop-opacity:0.5"/>
									<stop  offset="0.9947" style="stop-color:#302624;stop-opacity:0"/>
								</linearGradient>
								<path class="st44" d="M312.3,598.6l0.5-2.7c-5.7,20-13.7,47.1-15.2,47.2c-2.3,0.1-25-3.5-26-6.5c-0.4-1.3-2.4-21.7-4.3-44
									C265,623.9,254.8,768,254.8,768c15,5.9,31.2,1.4,31.2,1.4L312.3,598.6z"/>
								<linearGradient id="SVGID_14_" gradientUnits="userSpaceOnUse" x1="358.9094" y1="590.7183" x2="355.0713" y2="785.1797">
									<stop  offset="0" style="stop-color:#302624;stop-opacity:0.5"/>
									<stop  offset="0.9947" style="stop-color:#302624;stop-opacity:0"/>
								</linearGradient>
								<path class="st45" d="M374.8,764.5c0,0,0-0.1,0-0.3c0,0,0-0.1,0-0.1c0-0.2,0-0.3,0-0.6c0-0.6,0.1-1.6,0.1-2.7
									c0-0.3,0-0.6,0-0.9c0-0.5,0-1.1,0.1-1.7c0-0.2,0-0.5,0-0.7c0.1-1.4,0.1-2.9,0.2-4.6c0-0.3,0-0.6,0-0.9c0-1,0.1-2,0.1-3.1
									c0,0,0,0,0-0.1c0.1-1.1,0.1-2.3,0.2-3.5c0-0.2,0-0.4,0-0.6c0.1-3,0.3-6.3,0.4-9.8c0-0.3,0-0.7,0-1c0.3-6,0.6-12.6,0.9-19.5
									c0-0.1,0-0.2,0-0.4c0.1-2.6,0.2-5.3,0.4-7.9c0-0.1,0-0.2,0-0.3c1-22.2,2.2-46.5,3.3-65c0,0,0,0,0-0.1
									c0.3-4.6,0.5-8.9,0.7-12.6c-4.6,3.4-12.5,8.7-15.7,8.6c-4.7-0.2-20.4-12.9-21.3-18.6c-0.7-4.5-6.1-47.2-8.2-64.2
									c0.5,29.9,1.1,62.8,1.2,62.5c0,0,0,0.2,0,0.6c0,0.1,0,0.2,0,0.3c0,1.7,0.1,5.8,0.2,11.6c0,0.3,0,0.7,0,1
									c0,2.1,0.1,4.4,0.1,6.9c0,0.8,0,1.7,0,2.6c0.1,3.5,0.1,7.3,0.2,11.3c0,0.5,0,1,0,1.5c0.7,44,1.9,113.1,1.9,113.1
									c2.7,1.4,5.7,2.2,8.6,2.7c1,0.2,2,0.3,3,0.3c1,0.1,2,0.1,2.9,0.1c1,0,1.9,0,2.9-0.1c0.9-0.1,1.9-0.1,2.8-0.2
									c0.9-0.1,1.8-0.2,2.7-0.4c1.3-0.2,2.5-0.4,3.7-0.7c0.8-0.2,1.5-0.3,2.2-0.5C372.4,765.4,374.8,764.5,374.8,764.5
									L374.8,764.5z"/>
							</g>
						</g>
					</g>
					<path class="st35" d="M415.6,406.8c-0.6,12-8.6,22.3-11.6,23.4c-3,1.1-122.1-19.3-122.1-19.3s73.9-25.2,90.7-25.2
						c16.8,0,20.3,0.7,20.3,0.7L415.6,406.8z"/>
					<path class="st35" d="M415.6,406.8c-0.6,12-8.6,22.3-11.6,23.4c-3,1.1-122.1-19.3-122.1-19.3s73.9-25.2,90.7-25.2
						c16.8,0,20.3,0.7,20.3,0.7L415.6,406.8z"/>
					<path class="st46" d="M359,381.7c0,0,10.1-6.4,12.6-6.2c2.5,0.2,10.5,8.1,11.1,11.4c0,0-19.5-1.8-22.8-0.4
						C356.6,387.9,359,381.7,359,381.7z"/>
					<path class="st24" d="M269.5,358.4l10.9,37.8c16.8-9.6,78.8-19.1,78.8-19.1l14.8,22.9c-47.9,27.6-97.4,41.6-110,38.2
						c-9-2.4-23.5-62.2-25.8-80.5c-2.3-18.3,0.1-32.5,8.9-39.5C252.3,313.9,269.5,358.4,269.5,358.4z"/>
					<path class="st46" d="M298.6,389.5c-3.9-3-7.6-6.3-11.5-9.3c-3-2.4-6.3-4.8-9.9-4.8c-4.6,0.1-6.5,4.1-10.4,5.5
						c-1.3,0.5-2.8,1.5-2.8,3.1c0,1.3,1,2.3,2.1,2.5c1.1,0.3,2.2-0.4,3,0.4c0.7,0.6,0.5,2.5,1.1,3.4c1.2,1.7,3.2,0.9,4.7,2.6
						c1.9,2.1,1.8,4.2,4.9,4c2-0.1,3.9-1.5,5.8-2.2C287.4,394,297.4,388.6,298.6,389.5z"/>
				</g>
				<g>
					<path class="st43" d="M236.6,426.6c0,0-5.6-4.4-9.3-5.3c-3.7-0.9-8.1,1.4-13.2-1.1c-5.1-2.4-9.1,3.6-12.2-3.7
						c-3.1-7.3,0.9-6.7-4.2-8.7c-5.2-2-0.7-8-0.7-8s-6.8-2.6-6.5-7.3c0.3-4.7,7.2-2.6,23.1,0.5c0,0,6.5-5,8.6-2.4
						c3.5,4.4,9.6,15.5,9.6,15.5l14.7,10L236.6,426.6z"/>
					<path class="st43" d="M436.1,413.5c0,0,5-5.1,8.6-6.4c3.6-1.4,8.2,0.3,13-2.8c4.8-3.1,9.5,2.4,11.6-5.3
						c2.1-7.7-1.8-6.5,3.1-9.2c4.9-2.6-0.3-8-0.3-8s6.4-3.5,5.5-8.1c-0.9-4.6-7.5-1.7-22.8,3.5c0,0-7.1-4.1-8.8-1.3
						c-2.9,4.8-7.5,16.7-7.5,16.7l-13.2,11.8L436.1,413.5z"/>
					<path class="st43" d="M462.6,380.2c0,0,2.4-3.8,2.6-9.2c0.2-5.4-3.1-12.5-6-4.5c-2.9,7.9-6.4,9.3-7.1,12.9
						C451.3,382.9,462.6,380.2,462.6,380.2z"/>
					<polygon class="st10" points="202.6,330.5 456.3,313.8 467.9,489.8 214.2,505.6 					"/>
					<path class="st15" d="M207.3,334.1l249-20.3l2.3,169.8c0,0-241.4,19.5-240.4,18.4C219.3,500.8,207.3,334.1,207.3,334.1z"/>
					<path class="st43" d="M470.2,372.2c-13.2,2.4-26.2,11.2-13,13.2c0,0-11.6,10.1,2.7,9.4c0,0-11.3,12.2,5.1,8.5L470.2,372.2z"/>
					<path class="st43" d="M205.9,397.2c0,0-2.9-3.5-3.7-8.8c-0.9-5.3,1.4-12.8,5.4-5.3c4,7.5,7.6,8.4,8.7,11.8
						C217.4,398.3,205.9,397.2,205.9,397.2z"/>
					<path class="st43" d="M197.3,390.1c13.4,0.7,27.4,7.7,14.6,11.4c0,0,12.8,8.5-1.5,9.7c0,0,12.8,10.6-3.9,9.1L197.3,390.1z"/>
				</g>
				<g>
					<polygon class="st23" points="267.3,344.2 262.7,345.5 278.8,471.9 407.2,456.7 406.6,451.8 282.2,468.7 					"/>
					<path class="st23" d="M333.5,477.5c0.1,2,0.2,4,0.3,6l30-3.4l-1.7-6L333.5,477.5z"/>
					<path class="st23" d="M283.2,483.5l0,5.8l32.6-3.7c-0.4-1.9-0.8-3.9-1.3-5.8L283.2,483.5z"/>
					<path class="st23" d="M384.2,470.3c-2.1-0.1-3.8,1.7-3.8,3.9c0,2.2,1.6,4,3.7,4.1c2.1,0.1,3.8-1.7,3.8-3.9
						C388,472.2,386.3,470.4,384.2,470.3z"/>
					<path class="st23" d="M396.1,468.9c-2.1-0.1-3.8,1.7-3.8,3.9c0,2.2,1.6,4,3.7,4.1c2.1,0.1,3.8-1.7,3.8-3.9
						C399.9,470.8,398.2,469,396.1,468.9z"/>
					<path class="st23" d="M380.6,368.4l-7,26.4l-13.2-27.4c0,0-28.7,67.9-28.1,69.1c0.6,1.2-17-32.2-17-32.2l-28.5,55.6l29.1-46.4
						l17.6,28.6l26.8-64.4l14.7,26.3l9.4-34.6l5.8,1.4l-1.4-18.3l-15.2,14.1L380.6,368.4z"/>
				</g>
			</g>
		</g>
		<g>
			
				<radialGradient id="SVGID_15_" cx="518.1553" cy="78.1538" r="8.0772" gradientTransform="matrix(0.9678 -8.970747e-02 9.233855e-02 0.9957 -211.7852 214.7157)" gradientUnits="userSpaceOnUse">
				<stop  offset="0" style="stop-color:#E98C4D"/>
				<stop  offset="0.8441" style="stop-color:#E98C4D;stop-opacity:0"/>
			</radialGradient>
			<path class="st47" d="M290.1,240.1c0,0-5.4,2-0.4,8.4c4.1,5.2,6.4,4.2,8.3,3.9c3.3-0.5,8.3-3.6,7.8-8.2
				C305.4,239.6,297,239.5,290.1,240.1z"/>
			
				<radialGradient id="SVGID_16_" cx="586.697" cy="159.3367" r="8.0771" gradientTransform="matrix(0.8557 -0.4699 0.4615 0.8825 -229.981 375.5233)" gradientUnits="userSpaceOnUse">
				<stop  offset="0" style="stop-color:#E98C4D"/>
				<stop  offset="0.8441" style="stop-color:#E98C4D;stop-opacity:0"/>
			</radialGradient>
			<path class="st48" d="M337,237.7c0,0-4.3,4,2.9,7.9c5.7,3.2,7.5,1.3,9.1,0.3c2.9-1.8,6.3-6.6,4.1-10.7
				C351,231.1,343.2,234.3,337,237.7z"/>
			
				<radialGradient id="SVGID_17_" cx="563.0164" cy="56.2887" r="10.7691" gradientTransform="matrix(0.9568 -0.1721 0.1725 0.9849 -229.9776 255.3354)" gradientUnits="userSpaceOnUse">
				<stop  offset="0" style="stop-color:#E98C4D"/>
				<stop  offset="0.8441" style="stop-color:#E98C4D;stop-opacity:0"/>
			</radialGradient>
			<path class="st49" d="M308.7,206.7c0,0-7,3.2,0.4,11.2c6,6.5,9,4.8,11.4,4.2c4.4-1.1,10.6-5.7,9.5-11.8
				C329.1,204.3,317.9,205.1,308.7,206.7z"/>
			<g>
				<g>
					<g id="XMLID_430_">
						<g id="XMLID_431_">
							<path id="XMLID_440_" class="st50" d="M332.4,234.5c0,0-5.6-13.7,2.5-17.4c8.1-3.6,15.5,5.9,15.1,9
								C349.6,229,346.1,238,332.4,234.5z"/>
							<path id="XMLID_439_" class="st15" d="M333,236c-1.6-1.5-2.5-4-2.4-7.4c0-3.4,1.3-6.7,4.5-8.1c8.1-3.6,15.2,5,14.7,8
								c-0.7,4.3-4,7.7-8.1,8.8C338,238.2,335,237.8,333,236z"/>
							<g id="XMLID_435_">
								<linearGradient id="XMLID_2_" gradientUnits="userSpaceOnUse" x1="330.542" y1="228.1728" x2="344.7099" y2="228.1728">
									<stop  offset="0" style="stop-color:#3C3C6B"/>
									<stop  offset="1" style="stop-color:#5B4E99"/>
								</linearGradient>
								<path id="XMLID_437_" class="st51" d="M331.5,231.8c1.9,3.4,6.2,4.6,9.7,2.6c3.4-2,4.6-6.4,2.7-9.9
									c-1.9-3.4-6.2-4.6-9.7-2.6C330.7,224,329.5,228.4,331.5,231.8z"/>
								<path id="XMLID_436_" class="st52" d="M333.6,230.5c1.2,2.2,4,2.9,6.1,1.6c2.2-1.3,2.9-4.1,1.7-6.3c-1.2-2.2-4-2.9-6.1-1.6
									C333.1,225.5,332.4,228.3,333.6,230.5z"/>
							</g>
							<path id="XMLID_434_" class="st53" d="M335.1,220.4c8.1-3.6,15.2,5,14.7,8c-0.3,1.8-1.7,5.7-5.7,7.8
								c2.2-2.3,6.4-7.5,1.9-11.1c-6-4.7-12.3-3.4-14.2,1.7c-0.6,1.6-0.9,3.3-1,4.9C330.2,227.8,330.4,222.5,335.1,220.4z"/>
							<g id="XMLID_432_">
								<path id="XMLID_433_" class="st52" d="M330.5,230.5c0,0-0.1-0.8,0.1-2.1c0.1-0.7,0.2-1.4,0.5-2.3c0.3-0.8,0.7-1.7,1.2-2.5
									c0.1-0.2,0.3-0.4,0.5-0.5l0.2-0.3l0.3-0.2c0.2-0.2,0.4-0.3,0.6-0.5c0.2-0.1,0.4-0.2,0.7-0.4l0.3-0.2l0.4-0.1
									c0.2-0.1,0.5-0.2,0.7-0.3c0.5-0.1,1.1-0.2,1.6-0.3c0.6,0,1.1,0,1.7-0.1c0.3,0,0.6,0,0.9,0.1l0.9,0.1
									c1.2,0.2,2.4,0.6,3.5,1.2c1.1,0.6,2.1,1.4,2.9,2.4c0.4,0.5,0.7,1,0.9,1.6c0.2,0.6,0.4,1.2,0.4,1.8c0.1,1.2-0.2,2.4-0.6,3.4
									c-0.5,1-1.1,1.9-1.8,2.6c-0.7,0.7-1.3,1.3-1.9,1.8c-0.3,0.2-0.6,0.5-0.9,0.7c-0.3,0.2-0.5,0.4-0.8,0.5
									c-0.5,0.3-0.9,0.6-1.1,0.7c-0.3,0.2-0.4,0.3-0.4,0.3s0.2,0,0.4-0.1c0.3-0.1,0.7-0.2,1.3-0.4c0.3-0.1,0.6-0.2,0.9-0.3
									c0.3-0.1,0.7-0.3,1-0.5c0.4-0.2,0.7-0.4,1.1-0.6c0.4-0.3,0.8-0.5,1.2-0.9c0.8-0.7,1.6-1.5,2.3-2.7c0.7-1.1,1.2-2.7,1.1-4.5
									c0-0.9-0.2-1.8-0.5-2.7c-0.3-0.9-0.8-1.6-1.3-2.3c-1-1.4-2.3-2.4-3.6-3.1c-1.3-0.7-2.7-1.1-4.1-1.3c-0.3,0-0.7-0.1-1-0.1
									c-0.3,0-0.6,0-0.9,0c-0.7,0.1-1.3,0.1-2,0.2c-0.6,0.2-1.2,0.3-1.8,0.5c-0.3,0.1-0.6,0.3-0.8,0.4l-0.4,0.2l-0.4,0.3
									c-0.3,0.2-0.5,0.4-0.7,0.5c-0.2,0.2-0.4,0.4-0.6,0.7c-0.1,0.1-0.2,0.2-0.3,0.3c-0.1,0.1-0.2,0.3-0.3,0.4
									c-0.2,0.3-0.3,0.5-0.5,0.7c-0.5,1-0.9,2.1-1,3.1c-0.1,1-0.2,1.9-0.1,2.6c0,0.7,0.1,1.3,0.2,1.6
									C330.4,230.3,330.5,230.5,330.5,230.5z"/>
							</g>
						</g>
					</g>
					
						<ellipse transform="matrix(0.9957 -9.227878e-02 9.227878e-02 0.9957 -20.049 31.805)" class="st54" cx="333.9" cy="232.7" rx="2.8" ry="2.9"/>
					
						<ellipse transform="matrix(0.9957 -9.228078e-02 9.228078e-02 0.9957 -19.2989 32.4299)" class="st54" cx="341" cy="224.9" rx="1.7" ry="1.8"/>
				</g>
			</g>
			<g>
				<g>
					<g id="XMLID_407_">
						<g id="XMLID_420_">
							<path id="XMLID_429_" class="st50" d="M307.9,236.7c0,0,3-14.5-5.6-16.6c-8.6-2.1-14.2,8.7-13.2,11.5
								C290.1,234.6,295.2,242.7,307.9,236.7z"/>
							<path id="XMLID_428_" class="st15" d="M307.6,238.3c1.3-1.8,1.7-4.4,1-7.8c-0.7-3.4-2.5-6.3-6-7.1c-8.6-2.1-14,7.7-13,10.6
								c1.4,4.1,5.4,6.8,9.5,7.1C303.1,241.5,306,240.5,307.6,238.3z"/>
							<g id="XMLID_424_">
								<linearGradient id="XMLID_3_" gradientUnits="userSpaceOnUse" x1="294.5136" y1="231.5097" x2="308.7354" y2="231.5097">
									<stop  offset="0" style="stop-color:#3C3C6B"/>
									<stop  offset="1" style="stop-color:#5B4E99"/>
								</linearGradient>
								<path id="XMLID_426_" class="st55" d="M308.4,234c-1.3,3.7-5.3,5.6-9,4.3c-3.7-1.4-5.7-5.5-4.4-9.2c1.3-3.7,5.3-5.6,9-4.3
									C307.6,226.1,309.6,230.2,308.4,234z"/>
								<path id="XMLID_425_" class="st52" d="M306.1,233.1c-0.8,2.4-3.4,3.6-5.8,2.7c-2.4-0.9-3.7-3.5-2.8-5.9
									c0.8-2.4,3.4-3.6,5.8-2.7C305.6,228.1,306.9,230.7,306.1,233.1z"/>
							</g>
							<path id="XMLID_423_" class="st53" d="M302.6,223.4c-8.6-2.1-14,7.7-13,10.6c0.6,1.7,2.7,5.3,7,6.7
								c-2.6-1.8-7.7-6.2-3.9-10.5c5-5.7,11.4-5.6,14.3-0.9c0.9,1.4,1.5,3.1,1.9,4.6C308.8,229.8,307.7,224.7,302.6,223.4z"/>
							<g id="XMLID_421_">
								<path id="XMLID_422_" class="st52" d="M309.1,232.5c0,0-0.1-0.8-0.5-2.1c-0.2-0.6-0.5-1.4-0.9-2.2c-0.4-0.8-1-1.5-1.6-2.2
									c-0.2-0.2-0.4-0.3-0.6-0.5l-0.3-0.2l-0.3-0.2c-0.2-0.1-0.4-0.2-0.6-0.4c-0.2-0.1-0.5-0.2-0.7-0.2l-0.4-0.1l-0.4-0.1
									c-0.3,0-0.5-0.1-0.8-0.1c-0.5,0-1.1,0-1.6,0c-0.5,0.1-1.1,0.2-1.7,0.3c-0.3,0.1-0.6,0.2-0.9,0.2l-0.8,0.3
									c-1.1,0.4-2.2,1-3.2,1.8c-1,0.8-1.8,1.7-2.4,2.9c-0.3,0.6-0.5,1.2-0.6,1.8c-0.1,0.6-0.2,1.2-0.1,1.8
									c0.1,1.2,0.6,2.3,1.3,3.2c0.7,0.9,1.4,1.7,2.2,2.3c0.8,0.6,1.6,1.1,2.2,1.5c0.4,0.2,0.7,0.4,1,0.5c0.3,0.1,0.6,0.3,0.9,0.4
									c0.5,0.2,0.9,0.4,1.2,0.5c0.3,0.1,0.4,0.2,0.4,0.2s-0.2,0-0.5,0c-0.3,0-0.7,0-1.3-0.2c-0.3-0.1-0.6-0.1-0.9-0.2
									c-0.3-0.1-0.7-0.2-1.1-0.3c-0.4-0.1-0.8-0.3-1.2-0.4c-0.4-0.2-0.9-0.4-1.3-0.7c-0.9-0.5-1.9-1.2-2.8-2.2
									c-0.9-1-1.7-2.5-1.9-4.2c-0.1-0.9-0.1-1.8,0-2.7c0.1-0.9,0.4-1.7,0.8-2.5c0.8-1.5,1.8-2.8,3-3.7c1.2-0.9,2.5-1.6,3.8-2
									c0.3-0.1,0.7-0.2,1-0.3c0.3-0.1,0.6-0.1,0.9-0.2c0.7-0.1,1.3-0.1,2-0.2c0.6,0,1.3,0,1.9,0.2c0.3,0.1,0.6,0.2,0.9,0.2
									l0.4,0.1l0.4,0.2c0.3,0.1,0.6,0.3,0.8,0.4c0.3,0.2,0.5,0.4,0.7,0.5c0.1,0.1,0.2,0.2,0.4,0.3c0.1,0.1,0.2,0.2,0.3,0.3
									c0.2,0.2,0.4,0.4,0.6,0.6c0.7,0.9,1.2,1.9,1.6,2.9c0.3,0.9,0.5,1.8,0.6,2.5c0.1,0.7,0.1,1.3,0.1,1.6
									C309.1,232.3,309.1,232.5,309.1,232.5z"/>
							</g>
						</g>
					</g>
					
						<ellipse transform="matrix(0.9957 -9.229433e-02 9.229433e-02 0.9957 -20.4677 28.4441)" class="st54" cx="297.3" cy="235.5" rx="2.8" ry="2.9"/>
					
						<ellipse transform="matrix(0.9957 -9.228078e-02 9.228078e-02 0.9957 -19.8654 29.1447)" class="st54" cx="305.2" cy="229.4" rx="1.7" ry="1.8"/>
				</g>
			</g>
			<g>
				<path class="st56" d="M314.3,240.8c0,0,2.2,1.7,6.4,1.7c4.1,0,5.7-2.8,5.7-2.8s1.7,1.4,0.9,2.9c-0.8,1.5-4.3,4.3-5.4,4.5
					C320.8,247.4,312.3,244.7,314.3,240.8z"/>
				
					<ellipse transform="matrix(0.9957 -9.227733e-02 9.227733e-02 0.9957 -20.854 30.6774)" class="st57" cx="321.3" cy="240.8" rx="2" ry="0.9"/>
				<g>
					<path class="st42" d="M318.2,242.8c0,0-0.5-0.2-1.1-0.1c-0.5,0.1-1,0.4-0.9,0.5c0.1,0.2,0.5,0.2,0.9,0.4
						c0.4,0.2,0.7,0.4,0.7,0.4s0.4,0.1,0.7,0.3c0.4,0.2,0.7,0.5,0.8,0.5c0.1-0.1,0-0.7-0.3-1.2C318.7,243.1,318.2,242.8,318.2,242.8
						z"/>
					<path class="st42" d="M326,241.8c0-0.2-0.5-0.2-0.9-0.1c-0.4,0.1-0.8,0.4-0.8,0.4s-0.3,0.4-0.5,0.8c-0.2,0.5-0.3,1-0.1,1
						c0.1,0.1,0.4-0.2,0.7-0.4c0.3-0.2,0.6-0.4,0.6-0.4s0.2-0.3,0.5-0.6C325.8,242.2,326.1,242,326,241.8z"/>
					<path class="st42" d="M316.4,243.6c-0.4-0.3-0.7-0.6-1-0.8c-0.2-0.2-0.3-0.3-0.3-0.3c0,0-0.1-0.1-0.2-0.2
						c-0.1-0.2-0.1-0.6,0-0.9c0.3-0.8,1-1.4,0.9-1.6c0-0.1-0.3,0-0.6,0.2c-0.3,0.2-0.7,0.5-1,1c-0.3,0.5-0.4,1.2-0.3,1.7
						c0.1,0.6,0.4,0.8,0.4,0.8c0,0,0.2,0.3,0.6,0.4c0.3,0.2,0.7,0.4,1.1,0.6c0.8,0.4,1.6,0.8,1.7,0.6
						C317.8,244.9,317.1,244.2,316.4,243.6z"/>
					<path class="st42" d="M327.7,241.3c0,0,0-0.1-0.2-0.5c-0.1-0.2-0.2-0.4-0.3-0.5c-0.1-0.2-0.2-0.3-0.4-0.5
						c-0.5-0.6-1.2-1.1-1.3-1c-0.1,0.1,0.3,0.8,0.7,1.5c0.1,0.2,0.2,0.4,0.2,0.5c0.1,0.2,0.1,0.3,0.1,0.4c0,0.3,0.1,0.5,0.1,0.5
						c0,0,0,0.1,0.1,0.2c0,0.1-0.1,0.4-0.3,0.7c-0.5,0.5-1,1.2-0.9,1.3c0.1,0.1,0.7-0.2,1.4-0.6c0.3-0.2,0.7-0.6,0.8-1.1
						C327.9,241.6,327.7,241.3,327.7,241.3z"/>
					<path class="st42" d="M324.4,239.3c0-0.2-0.8-0.6-1.8-0.8c-0.9-0.2-1.9-0.2-1.9-0.2s-0.9,0.2-1.8,0.6c-0.9,0.4-1.7,1-1.6,1.1
						c0.1,0.2,0.9-0.1,1.8-0.2c0.9-0.1,1.7-0.2,1.7-0.2s0.8-0.2,1.7-0.2C323.5,239.4,324.4,239.5,324.4,239.3z"/>
				</g>
			</g>
			<g>
				<g>
					<path class="st58" d="M335.2,217.4c0,0.1-0.8,0.6-1.5,1.2c-0.7,0.6-1.3,1.4-1.3,1.4s-0.6,0.7-1.1,1.5c-0.5,0.8-0.8,1.7-0.9,1.7
						c-0.1,0,0.1-1,0.5-1.9c0.4-0.9,1-1.7,1-1.7s0.7-0.8,1.5-1.4C334.3,217.7,335.2,217.3,335.2,217.4z"/>
				</g>
				<g>
					<path class="st58" d="M333.7,216.7c0,0.1-0.7,0.6-1.3,1.2c-0.6,0.6-1,1.4-1,1.4s-0.5,0.7-0.8,1.5c-0.4,0.8-0.5,1.7-0.6,1.6
						c-0.1,0,0-0.9,0.3-1.8c0.3-0.9,0.8-1.7,0.8-1.7s0.5-0.8,1.2-1.3C332.8,217,333.6,216.6,333.7,216.7z"/>
				</g>
				<g>
					<path class="st58" d="M308.5,226.6c-0.1,0-0.5-1-1-1.9c-0.5-0.9-1.2-1.7-1.2-1.7s-0.6-0.9-1.4-1.6c-0.7-0.8-1.6-1.4-1.5-1.5
						c0-0.1,1,0.5,1.8,1.2c0.8,0.7,1.5,1.6,1.5,1.6s0.7,0.9,1.1,1.9C308.3,225.5,308.6,226.6,308.5,226.6z"/>
				</g>
				<g>
					<path class="st58" d="M307.8,223c-0.1,0-0.4-0.4-0.7-0.8c-0.3-0.4-0.7-0.8-0.7-0.8s-0.3-0.4-0.6-0.8c-0.3-0.4-0.7-0.8-0.6-0.8
						c0-0.1,0.5,0.2,0.9,0.6c0.4,0.3,0.8,0.7,0.8,0.7s0.3,0.4,0.6,0.9C307.7,222.4,307.8,222.9,307.8,223z"/>
				</g>
			</g>
			<g>
				<g>
					<path class="st59" d="M291.8,216.6c0.2-0.1,0.4-0.2,0.6-0.3c1.2-0.9,2.3-2,3.6-2.7c1.5-0.9,3.5-1.5,5.2-1.9
						c1.6-0.4,4.3-0.1,5.5-1.4c1.4-1.5,0.8-4.6-1.6-4.6c0,0.5-0.4,1.9-0.3,2.2c-0.2-0.5-0.5-2-1-2.3c-0.5-0.3-1.8,0.2-2.3,0.3
						c-1.6,0.4-3.1,1.1-4.5,1.8c-3.4,1.8-5.9,4.5-7,7.8C289.3,217.3,290.8,217.1,291.8,216.6z"/>
				</g>
				<path class="st52" d="M299.7,206.4c0,0.1,0,0.1,0,0.2c0,0.9,0.1,1.8,0.1,1.8s0,0.9,0.1,1.8c0,0.7,0.1,1.4,0.1,1.7
					c0,0-0.1,0-0.1,0c-0.1-0.3-0.3-1-0.4-1.7c-0.2-0.9-0.2-1.9-0.2-1.9s0-0.9,0.1-1.9c0,0,0,0,0,0
					C299.5,206.5,299.6,206.5,299.7,206.4z M298.1,211.2c-0.2-1-0.3-2-0.3-2s-0.1-1,0-1.9c-0.1,0.1-0.3,0.1-0.4,0.2
					c-0.1,0.9-0.1,1.8-0.1,1.8s0.1,1.1,0.5,2.1c0.2,0.5,0.4,0.9,0.5,1.2c0.1,0,0.1-0.1,0.2-0.1C298.4,212.1,298.2,211.6,298.1,211.2
					z M304.9,206.4c0.2,1.1,0.2,2.2,0.2,2.2s0.1,1.3-0.3,2.6c0,0,0,0,0,0.1c0.2,0,0.3-0.1,0.4-0.1c0.4-1.2,0.4-2.5,0.4-2.5
					s0-0.3-0.1-0.8c-0.1-0.5-0.2-1.2-0.4-1.8c0-0.1-0.1-0.2-0.1-0.2c0,0-0.1,0-0.1,0C305,205.8,304.9,206.1,304.9,206.4z
					 M292.5,214.9c-0.3-0.7-0.5-1.4-0.5-1.4s-0.2-0.7-0.4-1.4c0,0,0,0,0,0c-0.1,0.2-0.2,0.3-0.3,0.5c0.1,0.6,0.2,1.1,0.2,1.1
					s0.2,0.7,0.6,1.4c0.2,0.4,0.4,0.7,0.6,0.9c0.1,0,0.1-0.1,0.2-0.1C292.9,215.6,292.7,215.2,292.5,214.9z M301.1,207.9
					c0,0-0.1-1-0.2-1.9c-0.1,0-0.2,0.1-0.3,0.1c0,0.9,0,1.9,0,1.9s0.4,3.3,0.5,3.3C301.3,211.3,301.1,207.9,301.1,207.9z
					 M293.6,210.4c0-0.1,0-0.3,0-0.4c-0.1,0.1-0.3,0.2-0.4,0.4c0,0,0,0,0,0c-0.1,0.9,0.1,1.7,0.1,1.7s0.2,0.8,0.6,1.6
					c0.2,0.3,0.4,0.6,0.6,0.9c0.1,0,0.1-0.1,0.2-0.1c-0.1-0.3-0.3-0.6-0.4-0.9c-0.3-0.8-0.4-1.6-0.4-1.6S293.6,211.2,293.6,210.4z"
					/>
				<path class="st52" d="M295.9,213.6c1.5-0.9,3.5-1.5,5.2-1.9c1.6-0.4,4.3-0.1,5.5-1.4c0.9-0.9,1-2.6,0.3-3.6
					c-0.1,1.6-2,2.8-4.5,2.9c-3,0.1-6.3,3-9.5,4.2c-1.3,0.5-1.7-0.1-1.7-1c-0.5,0.9-1,1.8-1.3,2.7c-0.6,1.8,0.9,1.6,1.9,1.1
					c0.2-0.1,0.4-0.2,0.6-0.3C293.6,215.4,294.6,214.3,295.9,213.6z"/>
			</g>
			<g>
				<g>
					<path class="st60" d="M345.4,211.6c-0.2-0.1-0.4-0.2-0.6-0.2c-1.3-0.7-2.5-1.6-3.9-2.2c-1.6-0.6-3.7-1-5.4-1.2
						c-1.7-0.1-4.2,0.5-5.6-0.6c-1.6-1.3-1.4-4.5,0.9-4.8c0.1,0.5,0.7,1.8,0.6,2.2c0.1-0.5,0.2-2.1,0.7-2.4c0.4-0.3,1.8-0.1,2.3-0.1
						c1.6,0.2,3.2,0.6,4.7,1.2c3.6,1.3,6.5,3.6,8.1,6.7C348,211.9,346.5,211.9,345.4,211.6z"/>
				</g>
				<path class="st60" d="M335.9,207c-0.1,0.4-0.2,0.7-0.3,1c0,0,0,0-0.1,0c-0.1,0-0.1,0-0.2,0c0-0.3,0.1-0.7,0.2-1.1
					c0.1-0.8,0.2-1.7,0.2-1.7s0.2-0.8,0.3-1.6c0.1-0.3,0.1-0.7,0.2-0.9c0.1,0,0.2,0,0.2,0.1c0,0.3,0,0.6,0,0.9
					c-0.1,0.8-0.2,1.7-0.2,1.7S336.1,206.1,335.9,207z M341.2,209.3c0.1-0.3,0.4-1,0.7-1.6c0.4-0.9,0.9-1.8,0.9-1.8s0.1-0.2,0.2-0.4
					c-0.1-0.1-0.3-0.2-0.4-0.3c-0.2,0.3-0.3,0.4-0.3,0.4s-0.5,0.9-0.8,1.9c-0.2,0.7-0.4,1.3-0.5,1.7
					C341.1,209.2,341.1,209.3,341.2,209.3z M343.6,206c-0.4,0.7-0.8,1.5-0.8,1.5s-0.3,0.9-0.6,1.8c-0.1,0.2-0.1,0.4-0.2,0.6
					c0.1,0.1,0.2,0.1,0.3,0.2c0.1-0.2,0.2-0.4,0.2-0.6c0.4-0.9,0.7-1.7,0.7-1.7s0.3-0.7,0.6-1.4C343.8,206.1,343.7,206,343.6,206z
					 M331.4,207.4c-0.3-1-0.5-2-0.5-2s-0.2-1-0.2-2c0-0.3,0-0.6,0.1-0.8c-0.1,0-0.2,0-0.3,0.1c-0.1,0.2-0.1,0.5-0.1,0.7
					c-0.1,1.1,0.1,2.1,0.1,2.1s0.2,1,0.7,2c0.1,0.2,0.1,0.3,0.2,0.4c0.1,0,0.2,0,0.4,0C331.6,207.8,331.5,207.6,331.4,207.4z
					 M333.6,206.5c-0.1-1-0.1-1.9-0.1-1.9s-0.1-1-0.2-1.9c0-0.2,0-0.3,0-0.5c-0.1,0-0.2,0-0.3,0c0,0.2,0,0.4,0,0.5c0,1,0,2,0,2
					s0.1,1,0.3,1.9c0.1,0.5,0.2,1.1,0.3,1.4c0.1,0,0.1,0,0.2,0C333.6,207.6,333.6,207.1,333.6,206.5z M337.7,206.4
					c0,0,0.3-1,0.5-2.1c0.1-0.4,0.1-0.7,0.2-1.1c-0.1,0-0.2-0.1-0.3-0.1c-0.1,0.3-0.2,0.7-0.3,1.1c-0.3,1-0.6,2-0.6,2
					s-0.2,0.9-0.5,1.9c0.1,0,0.3,0,0.4,0.1C337.4,207.2,337.7,206.4,337.7,206.4z"/>
				<path class="st61" d="M345.4,211.6c1.1,0.3,2.6,0.3,1.7-1.4c-0.6-1.2-1.4-2.3-2.4-3.3c0.4,1,0.9,3-0.2,2.8
					c-1.4-0.3-4.3-3.4-9.7-3.3c-4.4,0.1-5.6-1.6-6-2.3c-0.4,1.1,0,2.5,0.9,3.3c1.4,1.1,3.9,0.4,5.6,0.6c1.8,0.1,3.8,0.5,5.4,1.2
					c1.4,0.6,2.6,1.5,3.9,2.2C345,211.4,345.2,211.5,345.4,211.6z"/>
			</g>
		</g>
		<g>
			
				<ellipse transform="matrix(0.9998 -1.868555e-02 1.868555e-02 0.9998 -5.0377 6.0495)" class="st57" cx="321.2" cy="272.6" rx="1.7" ry="1"/>
			<path class="st60" d="M302.2,250c0,0,5.9,6.3,17.3,6c11.4-0.3,16.8-6.2,16.8-6.2s-3.1,18-16.4,18.2
				C304.9,268.3,302.2,250,302.2,250z"/>
			<path class="st62" d="M308.8,263.6c2.6,2.6,6.2,4.5,11.1,4.5c4.3-0.1,7.5-2,9.9-4.6C319.9,258.2,311.5,261.9,308.8,263.6z"/>
			<path class="st15" d="M333.7,251.9c-2.7,1.7-7.4,4-14.2,4.2c-7.5,0.2-12.7-2.5-15.3-4.4c-0.1,0.8,1.7,9.3,14.5,9.3
				C329,261,332.6,254.6,333.7,251.9z"/>
			<g>
				<g>
					<path class="st42" d="M303.4,248c0.2,0.1,0.2,0.9-0.3,1.6c-0.4,0.7-1.1,1.2-1.1,1.2s-0.8,0.3-1.6,0.3c-0.8,0-1.6-0.3-1.5-0.6
						c0-0.3,0.7-0.4,1.2-0.7c0.5-0.3,1-0.7,1-0.7s0.5-0.2,1.1-0.5C302.6,248.4,303.1,247.9,303.4,248z"/>
				</g>
				<g>
					<path class="st42" d="M339.3,250c0.1,0.2-0.6,0.7-1.4,0.7c-0.8,0-1.6-0.3-1.6-0.3s-0.7-0.5-1-1.3c-0.3-0.8-0.2-1.6,0.1-1.6
						c0.3,0,0.6,0.5,1,0.8c0.4,0.3,0.9,0.5,0.9,0.5s0.3,0.4,0.8,0.6C338.5,249.7,339.2,249.8,339.3,250z"/>
				</g>
			</g>
			<path class="st42" d="M336.4,249.8c0,0.1-0.8,0.8-2.3,1.8c-1.5,1-3.5,2.1-5.7,2.9c-2.2,0.8-4.5,1.4-6.3,1.6
				c-1.8,0.2-2.9,0.3-2.9,0.3s-1.2,0-3-0.2c-1.8-0.2-4.1-0.8-6.3-1.6c-2.2-0.8-4.3-1.8-5.7-2.9c-1.4-1.1-2.1-2.1-2-2.1
				c0.1-0.1,0.9,0.8,2.3,1.7c1.4,0.9,3.5,1.8,5.7,2.5c2.2,0.6,4.4,1.1,6.1,1.3c1.7,0.1,2.8,0.1,2.8,0.1s1.1,0,2.8-0.1
				c1.7-0.2,3.9-0.6,6.1-1.3c2.2-0.7,4.3-1.7,5.8-2.5C335.4,250.3,336.4,249.7,336.4,249.8z"/>
			<path class="st15" d="M319.9,268c5-0.1,8.5-2.6,11-5.8c-0.4,0-0.9,0.1-1.5,0.3c-6.9,3-11.3,3.3-16.3,1.3c-2.4-1-4.1-1.2-5.2-1.2
				C310.6,265.7,314.4,268.1,319.9,268z"/>
			<path class="st53" d="M333.7,251.9c-2.7,1.7-7.4,4-14.2,4.2c-7.5,0.2-12.7-2.5-15.3-4.4c-0.1,0.4,0.3,2.6,2.2,4.7
				c-0.3-1-0.5-2.2,0.5-1.9c1.8,0.4,5.9,3,12.6,2.9c6.7-0.1,9.7-3.5,10.7-2.3c0.4,0.5,0.2,1.3-0.3,2.2
				C332.1,255.4,333.2,253.2,333.7,251.9z"/>
			<path class="st53" d="M328.1,263.1c0.1,0.3,0.1,0.6-0.2,1.2c-1.1,2.2-8.1,4-12.8,2.3c-3.1-1.1-3.8-2.6-3.8-3.5
				c-1.4-0.4-2.5-0.5-3.3-0.5c2.7,3.1,6.5,5.4,12,5.3c5-0.1,8.5-2.6,11-5.8c-0.4,0-0.9,0.1-1.5,0.3
				C329,262.8,328.6,262.9,328.1,263.1z"/>
			<path class="st42" d="M323.2,269.4c0.1,0.1-0.5,0.6-1.2,0.9c-0.7,0.3-1.5,0.4-1.5,0.4s-0.8,0-1.5-0.2c-0.7-0.2-1.3-0.6-1.3-0.7
				c0-0.1,0.7,0.2,1.4,0.3c0.7,0.1,1.4,0,1.4,0s0.7,0,1.3-0.2C322.6,269.7,323.2,269.3,323.2,269.4z"/>
		</g>
		<path class="st63" d="M282.4,187.7l24.2-8.2c14-4.8,29.3,2.7,34.2,16.7l5.7,13.4c0.6,1.7,1.3,5,2.1,9c-5.2-0.6-10.5-1.7-14.6-3.9
			c-1.5-0.8-3.1-1.6-5-2.5c-4.7-2.2-9-5.7-13.6-9.4c-5-4.1-10.2-8.2-16.7-11.6c-4.1-1.3-8.2-1.2-12.8,0.4c-1.7,0.6-3.5,1.4-5.3,2.3
			c0.9,7.5,2,26.5-4.7,46l-1.5,4.4c-1.9-3.7-4-8-6.3-13l-1.1-11.6c-0.6-6.2,0.4-12.5,2.8-18.3C271.8,196.4,275.3,190.1,282.4,187.7z
			"/>
		<g>
			<path class="st59" d="M258.6,217.6c-0.3-1.2-0.7-2.5-1-3.7c-7.2-24.1,3.8-30.2,11.3-31.7c-0.2-4.2,0-18.1,11.4-24.4
				c16.6-9.2,77.7-15.2,86.9,56.2c0,0-20.8,1.9-31-3.6c-1.6-0.9-3.3-1.7-5.3-2.6c-8.9-4.2-17.1-14.3-30.4-21.1
				c-6.1-2.1-13-1.8-21.7,2.7c-1.8,0.9-2.8,2.8-2.6,4.8c0.7,7.7,1.4,26-4.8,44.1c0,0-4.2-6.9-6.7-11.3c-1.2-2.1-2.7-4.1-4.2-6.1
				C259.7,220,258.8,218.7,258.6,217.6z"/>
		</g>
		<path class="st52" d="M301.4,159.1c-23.7,0.4-31.6,13.3-31.7,13.4c1.3-5.2,4.1-11.1,10.5-14.6c11.3-6.3,43.5-11.1,65.7,9.4
			C345.8,167.1,321.3,158.8,301.4,159.1z"/>
		<path class="st52" d="M257,211.9c-6-22.5,4.6-28.3,11.8-29.7C268.8,182.2,253,193.6,257,211.9z"/>
	</g>
	<path class="st64" d="M516.1,461.1h-23.6c-3.6,0-6.6,3-6.6,6.6l0,0c0,3.6,3,6.6,6.6,6.6h9.9c2.9,0,5.2,2.4,5.2,5.2l0,0
		c0,2.9-2.4,5.2-5.2,5.2h-352c-2.9,0-5.2-2.4-5.2-5.2l0,0c0-2.9,2.4-5.2,5.2-5.2h9.4c3.6,0,6.6-3,6.6-6.6l0,0c0-3.6-3-6.6-6.6-6.6
		h-21.6c-5.7,0-10.4-4.7-10.4-10.4l0,0c0-5.7,4.7-10.4,10.4-10.4h377.9c5.7,0,10.4,4.7,10.4,10.4l0,0
		C526.5,456.4,521.8,461.1,516.1,461.1L516.1,461.1z M516.5,484.7c2.9,0,5.2-2.3,5.2-5.2c0-2.9-2.3-5.2-5.2-5.2
		c-2.9,0-5.2,2.3-5.2,5.2C511.2,482.4,513.6,484.7,516.5,484.7z"/>
</g>
</svg>
