<?xml version="1.0" encoding="utf-8"?>
<!-- Generator: Adobe Illustrator 21.1.0, SVG Export Plug-In . SVG Version: 6.00 Build 0)  -->
<svg version="1.1" id="Layer_1" xmlns="http://www.w3.org/2000/svg" xmlns:xlink="http://www.w3.org/1999/xlink" x="0px" y="0px"
	 viewBox="0 0 685 485.2" style="enable-background:new 0 0 685 485.2;" xml:space="preserve">
<style type="text/css">
	.st0{fill:none;}
	.st1{clip-path:url(#SVGID_2_);}
	.st2{opacity:0.3;clip-path:url(#SVGID_4_);fill:#EBF4F4;}
	.st3{opacity:0.4;clip-path:url(#SVGID_4_);fill:#EBF4F4;}
	.st4{opacity:0.2;fill:url(#SVGID_5_);}
	.st5{opacity:0.6;fill:#F6F6F6;}
	.st6{opacity:0.6;}
	.st7{fill:#F6F6F6;}
	.st8{fill-rule:evenodd;clip-rule:evenodd;fill:#00000F;}
	.st9{fill:#2A0404;}
	.st10{fill-rule:evenodd;clip-rule:evenodd;fill:#E9695B;}
	.st11{fill-rule:evenodd;clip-rule:evenodd;fill:#E8685B;}
	.st12{fill-rule:evenodd;clip-rule:evenodd;fill:#F4AD85;}
	.st13{clip-path:url(#SVGID_7_);}
	.st14{opacity:0.1;fill:#661E32;}
	.st15{fill:#C0C293;}
	.st16{fill:#9FA178;}
	.st17{fill:#3D3C1F;}
	.st18{fill:#FF4E55;}
	.st19{fill:#DF7668;}
	.st20{opacity:0.2;fill:#DF7668;}
	.st21{fill:#661E32;}
	.st22{opacity:0.3;fill:#661E32;}
	.st23{opacity:0.5;fill:#B3252F;}
	.st24{opacity:0.2;fill:#B3252F;}
	.st25{fill:#BB0004;}
	.st26{opacity:0.4;}
	.st27{opacity:0.3;fill:#B3252F;}
	.st28{fill:#7D7D58;}
	.st29{opacity:0.5;fill:#7D7D58;}
	.st30{fill:#FFFFFF;}
	.st31{opacity:0.2;fill:url(#SVGID_8_);}
	.st32{opacity:0.2;fill:url(#SVGID_9_);}
	.st33{opacity:0.2;}
	.st34{fill:url(#SVGID_10_);}
	.st35{fill:url(#SVGID_11_);}
	.st36{fill-rule:evenodd;clip-rule:evenodd;fill:#EE9073;}
	.st37{opacity:0.4;fill:url(#SVGID_12_);}
	.st38{opacity:0.5;fill:#F5D0A2;}
	.st39{fill:#D5795C;}
	.st40{opacity:0.4;fill:url(#SVGID_13_);}
	.st41{opacity:0.4;fill:url(#SVGID_14_);}
	.st42{opacity:0.4;fill:url(#SVGID_15_);}
	.st43{fill:#3F1F13;}
	.st44{opacity:0.4;fill:url(#SVGID_16_);}
	.st45{opacity:0.4;fill:url(#SVGID_17_);}
	.st46{fill:#6D233C;}
	.st47{fill:#E52749;}
	.st48{opacity:0.15;}
	.st49{opacity:0.15;fill:#6D233C;}
	.st50{opacity:0.45;fill:#E52749;}
	.st51{fill:#320033;}
	.st52{fill:url(#SVGID_18_);}
	.st53{fill:url(#SVGID_19_);}
	.st54{opacity:0.57;fill:#FFFFFF;}
	.st55{fill:url(#SVGID_20_);}
	.st56{opacity:0.2;fill:url(#SVGID_21_);}
	.st57{opacity:0.57;fill:url(#SVGID_22_);}
	.st58{opacity:0.5;}
	.st59{fill:url(#SVGID_23_);}
	.st60{fill:url(#SVGID_24_);}
	.st61{fill:url(#SVGID_25_);}
	.st62{fill:url(#SVGID_26_);}
	.st63{fill:#F4AD85;}
	.st64{fill:#E8685B;}
	.st65{fill:#37354B;}
	.st66{fill:#160101;}
	.st67{fill:#C8DEE1;}
	.st68{fill:#7A9297;}
</style>
<title>INFJs</title>
<g>
	<rect x="0" y="-0.3" class="st0" width="685" height="485.2"/>
	<g>
		<g>
			<defs>
				<path id="SVGID_1_" d="M194.3,433.1c-38.6,0-70.2-31.6-70.2-70.2l0,0c0-38.6,31.6-70.2,70.2-70.2l0,0
					c16.3,0,29.7-13.4,29.7-29.7l0,0c0-16.3-13.4-29.7-29.7-29.7h-3.5c-17,0-30.9-13.9-30.9-30.9v0c0-17,13.9-30.9,30.9-30.9h10.8
					c6.6,0,12-5.4,12-12l0,0c0-6.6-5.4-12-12-12h-8c-4.6,0-8.3-3.7-8.3-8.3l0,0c0-4.6,3.7-8.3,8.3-8.3h53.5c7.2,0,13-5.9,13-13v0
					c0-7.2-5.9-13-13-13h-16c-4.6,0-8.3-3.7-8.3-8.3l0,0c0-4.6,3.7-8.3,8.3-8.3h234.4c6,0,10.8,4.9,10.8,10.8l0,0
					c0,5.9-4.9,10.8-10.8,10.8h-16.4c-9.4,0-17,7.7-17,17l0,0c0,9.4,7.7,17,17,17h63.5c6,0,10.8,4.9,10.8,10.8l0,0
					c0,6-4.9,10.8-10.8,10.8h-10.4c-8.6,0-15.7,7.1-15.7,15.7l0,0c0,8.6,7.1,15.7,15.7,15.7h14.1c22.1,0,40.3,18.1,40.3,40.3v0
					c0,22.1-18.1,40.3-40.3,40.3h-4.6c-21.3,0-38.7,17.4-38.7,38.7l0,0c0,21.3,17.4,38.7,38.7,38.7h10c21.5,0,39.1,17.6,39.1,39.1
					l0,0c0,21.5-17.6,39.1-39.1,39.1C410.7,433.1,305.4,433.1,194.3,433.1L194.3,433.1z M493.3,110c6,0,10.8-4.8,10.8-10.8
					c0-6-4.8-10.8-10.8-10.8c-6,0-10.8,4.8-10.8,10.8C482.4,105.2,487.3,110,493.3,110L493.3,110z M170.4,147.6
					c4.6,0,8.3-3.7,8.3-8.3c0-4.6-3.7-8.3-8.3-8.3c-4.6,0-8.3,3.7-8.3,8.3C162.1,143.9,165.8,147.6,170.4,147.6z"/>
			</defs>
			<clipPath id="SVGID_2_">
				<use xlink:href="#SVGID_1_"  style="overflow:visible;"/>
			</clipPath>
			<g class="st1">
				<g>
					<defs>
						<rect id="SVGID_3_" x="105.4" y="81.7" width="500" height="500"/>
					</defs>
					<use xlink:href="#SVGID_3_"  style="overflow:visible;fill:#EBF4F4;"/>
					<clipPath id="SVGID_4_">
						<use xlink:href="#SVGID_3_"  style="overflow:visible;"/>
					</clipPath>
					<path class="st2" d="M693.2,184.1C628.7,441.8,120.9,249.6,4.3,559.7V97.3l688.9-67.8V184.1z"/>
					<path class="st3" d="M4.3,251c64.4,257.7,479.5-207.1,688.9,29.3v-305H4.3V251z"/>
					<path class="st3" d="M641.8,54.2c-116,276-467.1-66.5-732,230.5l56.8-304.3l726.5-201.3L641.8,54.2z"/>
				</g>
				<linearGradient id="SVGID_5_" gradientUnits="userSpaceOnUse" x1="355.3825" y1="414.7863" x2="355.3825" y2="180.481">
					<stop  offset="0" style="stop-color:#FFFFFF"/>
					<stop  offset="0.2323" style="stop-color:#D0D9DA"/>
					<stop  offset="0.4568" style="stop-color:#ABBABD"/>
					<stop  offset="0.6641" style="stop-color:#90A4A8"/>
					<stop  offset="0.848" style="stop-color:#80979B"/>
					<stop  offset="0.9893" style="stop-color:#7A9297"/>
				</linearGradient>
				<path class="st4" d="M605.4,225.1v189.7h-500V235h37.4v7.2h2v2.5h2.2v2.8h3.5l7.4,5v7.1h4.7v-31.5h28.5v36l9.2-4.1l10.8,4.8V251
					h8.9v-2.5h0.9v-9.6h24.8v-0.4h0.8v-8l1.5-1.2h25.9l1.5,1.2v27.8l2.4-1.3l9.7-5.1l2.7,1.4v-1.1l1.2,0.7v1l4.6,2.4l4.6-2.4v-1
					l1.2-0.7v1.1l2.7-1.4l9.7,5.1l2.4,1.3v-14.1h-0.8v-15.3h0.8v-13.3l1.5-1.2h25.9l1.5,1.2v8h0.8v0.3h24.7v24.5h0.9v2.5h8.9v13.2
					l19.9-0.1v-83.6h28.5v79.1h4.7v-7.1l7.4-5h3.5v-2.8h2.2v-2.5h2.1v-21.8h31.9v61.4h11.1v-19.3l-0.5-0.4c0.3-0.2,0.6-0.5,1-0.7
					c0.4-0.3,0.7-0.5,1.1-0.7c2.5-1.4,5.5-2.4,8.7-2.7c0,0,0.2,0,0.3,0c0.1,0,0.2,0,0.3,0h0.1c0.5-0.1,1.1-0.1,1.8-0.1
					c5.1,0,9.7,1.4,13.1,3.9h-0.3l0,1.2v18.6l5.4,3.5l1.1-30.5h4.8v-7.4h2.2v-1.5h2.1v-0.6h17.6v0.6h2.1v1.5h2.2v24.1h19.1v-0.6h1.2
					v0.6h5.5l4,3.5v-49.7H605.4z"/>
				<path class="st5" d="M180,131.8c-1.2,0-2.2,0.5-3.1,1.2c-0.6-5.1-4.9-9-10.2-9c-4.5,0-8.4,3-9.7,7.1c-1.3-2.1-3.5-3.5-6.1-3.5
					c-3.4,0-6.2,2.3-6.9,5.5c-0.7-0.6-1.7-1-2.7-1c-2.4,0-4.3,1.9-4.3,4.3c0,0.5,0.1,0.9,0.2,1.4h7.3h0.9h11.8h0.2h18.3h0.7h7.9
					c0.1-0.4,0.2-0.9,0.2-1.4C184.6,133.9,182.6,131.8,180,131.8z"/>
				<path class="st5" d="M570.4,119.5c-2,0-3.8,0.8-5.1,2c-1-8.5-8.2-15.1-17-15.1c-7.6,0-14,5-16.2,11.8c-2.1-3.5-5.9-5.9-10.3-5.9
					c-5.6,0-10.3,3.9-11.6,9.2c-1.2-1-2.8-1.6-4.5-1.6c-4,0-7.2,3.2-7.2,7.2c0,0.8,0.2,1.6,0.4,2.3H511h1.5h19.7h0.4h30.5h1.2h13.3
					c0.2-0.7,0.4-1.5,0.4-2.3C578.1,123,574.7,119.5,570.4,119.5z"/>
				<path class="st5" d="M220.6,196c-1.2,0-2.2,0.5-3.1,1.2c-0.6-5.1-4.9-9-10.2-9c-4.5,0-8.4,3-9.7,7.1c-1.3-2.1-3.5-3.5-6.1-3.5
					c-3.4,0-6.2,2.3-6.9,5.5c-0.7-0.6-1.7-1-2.7-1c-2.4,0-4.3,1.9-4.3,4.3c0,0.5,0.1,1,0.2,1.4h7.3h0.9h11.8h0.2h18.3h0.7h7.9
					c0.1-0.4,0.2-0.9,0.2-1.4C225.2,198.1,223.1,196,220.6,196z"/>
				<g class="st6">
					<path class="st7" d="M379.6,187.1c-1,0-1.9,0.4-2.5,1c-1.1-2.2-4.3-3.9-8.3-3.9c-2.4,0-4.7,0.6-6.2,1.6c-1-2-3.1-3.4-5.5-3.4
						c-1.7,0-3.2,0.6-4.3,1.7c-2.2-3.3-6.7-5.6-12-5.6c-3.7,0-7,1-9.5,2.8c-2-5.5-7.2-9.5-13.4-9.5c-6.2,0-11.4,3.8-13.5,9.2
						c-1-0.5-2.1-0.8-3.4-0.8c-4.4,0-8,3.5-8.1,8c0,0.7,0.1,1.5,0.3,2.2l10.8,0.1l4.6,0l18.9,0.2l3.9,0l19.8,0.2l2.6,0l6.5,0.1
						l2.5,0l13,0.1l1.3,0l6.1,0c0,0,0-0.1,0-0.1C383.2,188.8,381.6,187.2,379.6,187.1z"/>
				</g>
				<g class="st6">
					<path class="st7" d="M551.4,189.8c-0.8,0-1.5,0.3-2,0.8c-0.9-1.8-3.5-3.1-6.7-3.1c-2,0-3.8,0.5-5,1.3c-0.8-1.6-2.5-2.7-4.4-2.7
						c-1.4,0-2.6,0.5-3.5,1.4c-1.8-2.7-5.5-4.5-9.7-4.5c-3,0-5.7,0.9-7.6,2.3c-1.6-4.4-5.9-7.6-10.9-7.6c-5,0-9.2,3.1-10.9,7.5
						c-0.8-0.4-1.7-0.6-2.7-0.6c-3.6,0-6.5,2.9-6.5,6.5c0,0.6,0.1,1.2,0.3,1.7h8.7h3.7h15.3h3.2h16h2.1h5.2h2h10.5h1.1h4.9
						C554.4,191.1,553.1,189.8,551.4,189.8z"/>
				</g>
			</g>
		</g>
		<path class="st8" d="M535.3,454h-23.6c-3.6,0-6.6,3-6.6,6.6l0,0c0,3.6,3,6.6,6.6,6.6h9.9c2.9,0,5.2,2.4,5.2,5.2l0,0
			c0,2.9-2.4,5.2-5.2,5.2h-352c-2.9,0-5.2-2.4-5.2-5.2l0,0c0-2.9,2.4-5.2,5.2-5.2h9.4c3.6,0,6.6-3,6.6-6.6l0,0c0-3.6-3-6.6-6.6-6.6
			h-21.6c-5.7,0-10.4-4.7-10.4-10.4l0,0c0-5.7,4.7-10.4,10.4-10.4h377.9c5.7,0,10.4,4.7,10.4,10.4l0,0
			C545.8,449.3,541.1,454,535.3,454L535.3,454z M535.7,477.6c2.9,0,5.2-2.3,5.2-5.2c0-2.9-2.3-5.2-5.2-5.2c-2.9,0-5.2,2.3-5.2,5.2
			C530.5,475.2,532.9,477.6,535.7,477.6z"/>
		<g>
			<path class="st9" d="M254.1,275.2c0,0-1.3,20.4,3,28.7c8.1,15.5,27.9,12.7,27.9,12.7l-1.5,0.9c0,0-21.1,2.7-28.7-16.8
				c-5.4-13.9-4.7-36.4-4.7-36.4L254.1,275.2z"/>
			<path class="st9" d="M250.3,271.2c0,0,15,43.4,38.9,45.4c32.4,2.7,45.6-63,45.6-63L250.3,271.2z"/>
		</g>
		<ellipse class="st10" cx="325.6" cy="251.8" rx="11.2" ry="12.6"/>
		<path class="st11" d="M308.4,267.1l0,9.1c0,0,0.8,18.6,0.9,21.4c0.1,1.4,1.4,3.3,3.7,4.9c-3.2,3.8-11.1,12.6-16.2,13.6
			c-6.6,1.3-14.3-1.3-16.3-2.9c-1.4-1.1-1.8-7-2.7-10.3c0.6-0.2-0.1,0,0.5-0.2c1.6-0.6,3.1-1.4,4-2.6c3-3.5,2.2-18.6-1.1-22.4
			C278.1,273.9,308.4,267.1,308.4,267.1z"/>
		<path class="st12" d="M296.4,185.8c18.3,0,26.7,40.1,28,40.6l-2.9,29.2c0,18.3-20.9,34.3-39.2,34.3l0,0
			c-18.3,0-33.3-14.9-33.3-33.2l-0.1-30.2C253.7,192.7,296.4,185.8,296.4,185.8z"/>
		<g>
			<defs>
				<rect id="SVGID_6_" x="196.8" y="161.1" width="340" height="272"/>
			</defs>
			<clipPath id="SVGID_7_">
				<use xlink:href="#SVGID_6_"  style="overflow:visible;"/>
			</clipPath>
			<g class="st13">
				<path class="st14" d="M482.3,727.3c0,16.9-55.9,30.6-124.9,30.6c-69,0-124.9-13.7-124.9-30.6c0-16.9,55.9-30.6,124.9-30.6
					C426.4,696.7,482.3,710.4,482.3,727.3z"/>
				<g>
					<g>
						<g>
							<path class="st15" d="M462.3,336.1c-39.9-6-118.3-42.2-159.4-33.3l-26.6,26.2c-1.5,1.5,24,51.3,26.1,55.1
								c12.9,23.4,25.5,49,44.4,68.1c10,10.1,19.4,20.3,31.5,27.4c15.6,9.3,36.4,12.7,53,4c3.1-1.6,5.4-4.8,8.2-7.2
								c8-7.1,12.6-14.2,17.7-23.2c6.2-11,18.8-19.6,29.5-26c38-22.7,52.5-63.7,40-115.8C526.6,311.6,509.5,343.2,462.3,336.1z"/>
							<path class="st16" d="M457.8,343.1c-39.9-6-113.8-49.3-155-40.3l-26.6,26.2c-1.5,1.5,24,51.3,26.1,55.1
								c12.9,23.4,25.5,49,44.4,68.1c10,10.1,19.4,20.3,31.5,27.4c15.6,9.3,36.4,12.7,53,4c3.1-1.6,5.4-4.8,8.2-7.2
								c8-7.1,12.6-14.2,17.7-23.2c6.2-11,18.8-19.6,29.5-26c38-22.7,52.5-63.7,40-115.8C526.6,311.6,505,350.3,457.8,343.1z"/>
							<path class="st17" d="M522,317.8c-10.8,13.5-39.4,43.7-76.3,38.1c-39.9-6-101.7-62.1-142.8-53.2l-26.6,26.2
								c3.7,6.3,13.3,26.8,23.3,49.8c1.4,2.8,2.4,4.7,2.8,5.3c12.9,23.4,25.5,49,44.4,68.1c10,10.1,19.4,20.3,31.5,27.4
								c15.6,9.3,36.4,12.7,53,4c3.1-1.6,5.4-4.8,8.2-7.2c0.2-0.2,0.3-0.3,0.5-0.5c7.8-10.4,13.1-18.9,19.8-26.7
								c6.7-9.1,17.5-16.4,26.9-21.9c38-22.7,52.5-63.7,40-115.8C526.6,311.6,525.1,314.3,522,317.8z"/>
						</g>
						<g class="st6">
							<path class="st18" d="M334.9,313.4c-0.6-0.3-0.8-0.5-0.8-0.6c0,0,0.3,0.1,0.9,0.5c0.6,0.3,1.4,0.8,2.5,1.4
								c1.1,0.6,2.3,1.3,3.8,2.2c1.5,0.9,3,2,4.8,3.1c7,4.5,15.9,11.3,24.7,18.1c2.2,1.7,4.4,3.3,6.6,5c2.2,1.6,4.4,3.2,6.5,4.7
								c4.3,2.9,8.4,5.5,12,7.7c0.9,0.5,1.7,1,2.6,1.5c0.8,0.4,1.6,0.9,2.4,1.2c1.5,0.8,2.8,1.5,3.9,2c2.2,1,3.5,1.5,3.5,1.5
								s0.3,0.1,0.9,0.4c0.6,0.3,1.5,0.7,2.6,1.1c1.1,0.4,2.5,1,4.1,1.6c1.6,0.6,3.4,1.1,5.4,1.7c7.9,2.4,18.9,4.5,30,4.8
								c11.1,0.4,22.2-0.8,30.4-2.4c4.1-0.8,7.5-1.5,9.8-2.2c1.2-0.3,2.1-0.5,2.7-0.7c0.6-0.1,1-0.2,1-0.2c0,0-0.3,0.1-1,0.3
								c-0.6,0.2-1.5,0.5-2.7,0.8c-2.3,0.7-5.7,1.5-9.8,2.4c-8.2,1.7-19.3,3-30.5,2.7c-11.2-0.1-22.3-2.2-30.3-4.5
								c-2-0.6-3.9-1.1-5.5-1.7c-1.6-0.6-3-1.1-4.1-1.5c-1.2-0.4-2-0.8-2.6-1.1c-0.6-0.3-0.9-0.4-0.9-0.4s-1.3-0.6-3.5-1.6
								c-1.1-0.5-2.4-1.3-3.9-2c-0.8-0.4-1.6-0.8-2.4-1.3c-0.8-0.5-1.7-1-2.6-1.6c-3.6-2.2-7.7-4.8-12-7.8c-2.1-1.5-4.3-3.1-6.5-4.7
								c-2.2-1.7-4.4-3.4-6.6-5.1c-8.8-6.9-17.5-13.8-24.4-18.4c-1.7-1.2-3.3-2.3-4.7-3.2c-1.4-0.9-2.7-1.6-3.8-2.3
								C336.2,314.2,335.4,313.7,334.9,313.4z M459.1,416.3c-0.6,0-1.6,0-2.8,0c-1.2,0.1-2.6,0-4.3-0.1c-0.8,0-1.7-0.1-2.7-0.1
								c-0.9-0.1-1.9-0.2-2.9-0.3c-8.2-0.7-18.9-3.1-29.1-7.2c-10.2-4-19.7-9.5-26.5-14c-3.4-2.2-6.2-4.2-8.2-5.6
								c-1.9-1.4-3-2.2-3-2.2s-1.1-0.8-3-2.3c-1.9-1.4-4.6-3.5-7.8-6.1c-6.4-5.2-14.6-12.5-22.4-20.1c-7.9-7.6-15.5-15.5-21.1-21.5
								c-2.8-3-5.2-5.5-6.8-7.2c-0.8-0.9-1.5-1.5-1.9-2c-0.4-0.5-0.7-0.7-0.7-0.7c0,0,0.2,0.3,0.6,0.8c0.4,0.5,1,1.2,1.8,2.1
								c1.6,1.8,3.9,4.3,6.7,7.4c5.5,6.1,13,14.1,20.9,21.8c7.8,7.7,15.9,15.1,22.3,20.3c3.2,2.6,5.9,4.8,7.8,6.2
								c1.9,1.5,3,2.3,3,2.3s1.1,0.8,3.1,2.2c1.9,1.4,4.8,3.3,8.3,5.6c6.9,4.5,16.5,9.9,26.8,13.9c10.2,4,21.1,6.4,29.3,6.9
								c8.2,0.6,13.7-0.1,13.7-0.1C460.1,416.4,459.8,416.3,459.1,416.3z M513.8,386.3c-3.1,2.1-7.3,5-12,7c-4.6,2.1-9.3,3.8-13,4.6
								c-1.8,0.5-3.4,0.7-4.5,0.9c-1.1,0.2-1.7,0.3-1.7,0.3s-0.6,0.1-1.7,0.2c-1.1,0.1-2.6,0.4-4.5,0.5c-3.8,0.4-8.8,0.5-13.9,0.4
								c-5.1-0.1-10.1-0.5-13.9-0.8c-1.9-0.2-3.5-0.3-4.6-0.4c-1.1-0.1-1.7-0.1-1.7-0.1c0,0,0.6,0.1,1.7,0.3
								c1.1,0.1,2.7,0.3,4.6,0.6c3.8,0.4,8.8,1,13.9,1.2c5.1,0.2,10.2,0.2,14-0.1c1.9-0.1,3.5-0.4,4.6-0.5c1.1-0.1,1.7-0.2,1.7-0.2
								s0.6-0.1,1.7-0.3c1.1-0.2,2.7-0.5,4.5-1c3.7-0.9,8.5-2.7,13.1-4.9c4.6-2.2,8.8-5.2,11.9-7.4c1.5-1.2,2.7-2.2,3.6-2.9
								c0.8-0.7,1.3-1.1,1.3-1.2c0,0-0.6,0.3-1.4,1C516.5,384.3,515.3,385.2,513.8,386.3z M514.2,334.8c-0.9,0.5-2.2,1.3-3.8,2.2
								c-3.1,1.9-7.3,4.3-11.6,6.7c-4.3,2.3-8.6,4.5-12,5.9c-1.6,0.8-3.1,1.3-4.1,1.7c-1,0.4-1.6,0.6-1.6,0.6s-0.6,0.2-1.6,0.6
								c-1,0.3-2.4,0.9-4.2,1.4c-3.5,1.1-8.2,2.2-13,3c-4.8,0.7-9.7,0.8-13.3,0.7c-1.8,0-3.3-0.2-4.4-0.2c-1.1-0.1-1.7-0.1-1.7,0
								c0,0,0.6,0.1,1.7,0.3c1.1,0.1,2.6,0.4,4.4,0.4c3.7,0.2,8.6,0.2,13.4-0.4c4.9-0.6,9.7-1.7,13.2-2.8c1.8-0.5,3.2-1,4.2-1.4
								c1-0.3,1.6-0.5,1.6-0.5s0.6-0.2,1.6-0.6c1-0.4,2.4-0.9,4.1-1.7c3.4-1.5,7.7-3.7,12-6.1c4.2-2.4,8.4-5,11.5-7
								c1.5-1,2.8-1.8,3.7-2.4c0.9-0.6,1.4-1,1.4-1C515.6,334,515.1,334.3,514.2,334.8z M303.5,363.4c-0.4-1.3-0.7-2.5-0.9-3.4
								c-0.3-0.9-0.5-1.7-0.6-2.2c-0.1-0.5-0.2-0.8-0.2-0.8c0,0,0,0.3,0.1,0.8c0.1,0.5,0.3,1.3,0.5,2.2c0.2,0.9,0.4,2.1,0.8,3.4
								c0.4,1.3,0.9,2.8,1.4,4.4c2.2,6.3,6,14.4,10.5,22.2c4.5,7.7,9.4,15.1,13,20.8c1.8,2.8,3.4,5.1,4.5,6.7
								c1.1,1.6,1.7,2.5,1.7,2.5s0.6,0.9,1.7,2.5c1.2,1.6,2.8,3.8,4.8,6.5c4,5.4,9.5,12.4,15.4,19.1c3,3.3,6,6.6,8.9,9.6
								c3,2.9,5.8,5.6,8.2,7.9c2.5,2.2,4.7,4,6.1,5.2c0.7,0.6,1.3,1.1,1.7,1.4c0.4,0.3,0.6,0.5,0.6,0.5c0,0-0.2-0.2-0.6-0.6
								c-0.4-0.4-0.9-0.9-1.7-1.5c-1.4-1.3-3.5-3.2-6-5.4c-2.4-2.3-5.1-5.1-8.1-8c-2.8-3.1-5.8-6.3-8.8-9.7
								c-5.8-6.8-11.2-13.8-15.1-19.2c-1.9-2.7-3.6-5-4.7-6.6c-1.1-1.6-1.7-2.5-1.7-2.5s-0.6-0.9-1.7-2.5c-1.1-1.6-2.7-3.9-4.5-6.7
								c-3.7-5.6-8.7-12.9-13.2-20.6c-4.6-7.6-8.5-15.6-10.8-21.9C304.4,366.1,303.9,364.7,303.5,363.4z M414.7,469
								c-4.4-1.5-8.8-3.4-11.9-5c-1.6-0.8-2.8-1.5-3.7-2c-0.9-0.5-1.4-0.8-1.4-0.8s-0.5-0.3-1.4-0.8c-0.9-0.5-2.2-1.2-3.6-2.2
								c-3-1.9-6.8-4.6-10.6-7.4c-3.7-2.9-7.4-5.8-10.2-8.1c-1.4-1.1-2.5-2.1-3.3-2.7c-0.8-0.6-1.3-1-1.3-1c0,0,0.4,0.4,1.1,1.2
								c0.8,0.7,1.8,1.7,3.2,2.9c2.6,2.4,6.2,5.4,9.9,8.4c3.7,2.9,7.6,5.7,10.5,7.6c1.5,1,2.8,1.7,3.6,2.3c0.9,0.5,1.4,0.9,1.4,0.9
								s0.5,0.3,1.4,0.8c0.9,0.5,2.2,1.2,3.8,2c3.2,1.6,7.6,3.4,12.1,4.8c4.6,1.3,9.2,2.2,12.8,2.4c1.8,0.2,3.3,0.1,4.3,0.2
								c1,0,1.6,0,1.6,0c0-0.1-2.4-0.2-5.9-0.6C423.8,471.4,419.2,470.4,414.7,469z"/>
							<path class="st16" d="M334.9,313.4c-0.6-0.3-0.8-0.5-0.8-0.6c0,0,0.3,0.1,0.9,0.5c0.6,0.3,1.4,0.8,2.5,1.4
								c1.1,0.6,2.3,1.3,3.8,2.2c1.5,0.9,3,2,4.8,3.1c7,4.5,15.9,11.3,24.7,18.1c2.2,1.7,4.4,3.3,6.6,5c2.2,1.6,4.4,3.2,6.5,4.7
								c4.3,2.9,8.4,5.5,12,7.7c0.9,0.5,1.7,1,2.6,1.5c0.8,0.4,1.6,0.9,2.4,1.2c1.5,0.8,2.8,1.5,3.9,2c2.2,1,3.5,1.5,3.5,1.5
								s0.3,0.1,0.9,0.4c0.6,0.3,1.5,0.7,2.6,1.1c1.1,0.4,2.5,1,4.1,1.6c1.6,0.6,3.4,1.1,5.4,1.7c7.9,2.4,18.9,4.5,30,4.8
								c11.1,0.4,22.2-0.8,30.4-2.4c4.1-0.8,7.5-1.5,9.8-2.2c1.2-0.3,2.1-0.5,2.7-0.7c0.6-0.1,1-0.2,1-0.2c0,0-0.3,0.1-1,0.3
								c-0.6,0.2-1.5,0.5-2.7,0.8c-2.3,0.7-5.7,1.5-9.8,2.4c-8.2,1.7-19.3,3-30.5,2.7c-11.2-0.1-22.3-2.2-30.3-4.5
								c-2-0.6-3.9-1.1-5.5-1.7c-1.6-0.6-3-1.1-4.1-1.5c-1.2-0.4-2-0.8-2.6-1.1c-0.6-0.3-0.9-0.4-0.9-0.4s-1.3-0.6-3.5-1.6
								c-1.1-0.5-2.4-1.3-3.9-2c-0.8-0.4-1.6-0.8-2.4-1.3c-0.8-0.5-1.7-1-2.6-1.6c-3.6-2.2-7.7-4.8-12-7.8c-2.1-1.5-4.3-3.1-6.5-4.7
								c-2.2-1.7-4.4-3.4-6.6-5.1c-8.8-6.9-17.5-13.8-24.4-18.4c-1.7-1.2-3.3-2.3-4.7-3.2c-1.4-0.9-2.7-1.6-3.8-2.3
								C336.2,314.2,335.4,313.7,334.9,313.4z M459.1,416.3c-0.6,0-1.6,0-2.8,0c-1.2,0.1-2.6,0-4.3-0.1c-0.8,0-1.7-0.1-2.7-0.1
								c-0.9-0.1-1.9-0.2-2.9-0.3c-8.2-0.7-18.9-3.1-29.1-7.2c-10.2-4-19.7-9.5-26.5-14c-3.4-2.2-6.2-4.2-8.2-5.6
								c-1.9-1.4-3-2.2-3-2.2s-1.1-0.8-3-2.3c-1.9-1.4-4.6-3.5-7.8-6.1c-6.4-5.2-14.6-12.5-22.4-20.1c-7.9-7.6-15.5-15.5-21.1-21.5
								c-2.8-3-5.2-5.5-6.8-7.2c-0.8-0.9-1.5-1.5-1.9-2c-0.4-0.5-0.7-0.7-0.7-0.7c0,0,0.2,0.3,0.6,0.8c0.4,0.5,1,1.2,1.8,2.1
								c1.6,1.8,3.9,4.3,6.7,7.4c5.5,6.1,13,14.1,20.9,21.8c7.8,7.7,15.9,15.1,22.3,20.3c3.2,2.6,5.9,4.8,7.8,6.2
								c1.9,1.5,3,2.3,3,2.3s1.1,0.8,3.1,2.2c1.9,1.4,4.8,3.3,8.3,5.6c6.9,4.5,16.5,9.9,26.8,13.9c10.2,4,21.1,6.4,29.3,6.9
								c8.2,0.6,13.7-0.1,13.7-0.1C460.1,416.4,459.8,416.3,459.1,416.3z M513.8,386.3c-3.1,2.1-7.3,5-12,7c-4.6,2.1-9.3,3.8-13,4.6
								c-1.8,0.5-3.4,0.7-4.5,0.9c-1.1,0.2-1.7,0.3-1.7,0.3s-0.6,0.1-1.7,0.2c-1.1,0.1-2.6,0.4-4.5,0.5c-3.8,0.4-8.8,0.5-13.9,0.4
								c-5.1-0.1-10.1-0.5-13.9-0.8c-1.9-0.2-3.5-0.3-4.6-0.4c-1.1-0.1-1.7-0.1-1.7-0.1c0,0,0.6,0.1,1.7,0.3
								c1.1,0.1,2.7,0.3,4.6,0.6c3.8,0.4,8.8,1,13.9,1.2c5.1,0.2,10.2,0.2,14-0.1c1.9-0.1,3.5-0.4,4.6-0.5c1.1-0.1,1.7-0.2,1.7-0.2
								s0.6-0.1,1.7-0.3c1.1-0.2,2.7-0.5,4.5-1c3.7-0.9,8.5-2.7,13.1-4.9c4.6-2.2,8.8-5.2,11.9-7.4c1.5-1.2,2.7-2.2,3.6-2.9
								c0.8-0.7,1.3-1.1,1.3-1.2c0,0-0.6,0.3-1.4,1C516.5,384.3,515.3,385.2,513.8,386.3z M514.2,334.8c-0.9,0.5-2.2,1.3-3.8,2.2
								c-3.1,1.9-7.3,4.3-11.6,6.7c-4.3,2.3-8.6,4.5-12,5.9c-1.6,0.8-3.1,1.3-4.1,1.7c-1,0.4-1.6,0.6-1.6,0.6s-0.6,0.2-1.6,0.6
								c-1,0.3-2.4,0.9-4.2,1.4c-3.5,1.1-8.2,2.2-13,3c-4.8,0.7-9.7,0.8-13.3,0.7c-1.8,0-3.3-0.2-4.4-0.2c-1.1-0.1-1.7-0.1-1.7,0
								c0,0,0.6,0.1,1.7,0.3c1.1,0.1,2.6,0.4,4.4,0.4c3.7,0.2,8.6,0.2,13.4-0.4c4.9-0.6,9.7-1.7,13.2-2.8c1.8-0.5,3.2-1,4.2-1.4
								c1-0.3,1.6-0.5,1.6-0.5s0.6-0.2,1.6-0.6c1-0.4,2.4-0.9,4.1-1.7c3.4-1.5,7.7-3.7,12-6.1c4.2-2.4,8.4-5,11.5-7
								c1.5-1,2.8-1.8,3.7-2.4c0.9-0.6,1.4-1,1.4-1C515.6,334,515.1,334.3,514.2,334.8z M303.5,363.4c-0.4-1.3-0.7-2.5-0.9-3.4
								c-0.3-0.9-0.5-1.7-0.6-2.2c-0.1-0.5-0.2-0.8-0.2-0.8c0,0,0,0.3,0.1,0.8c0.1,0.5,0.3,1.3,0.5,2.2c0.2,0.9,0.4,2.1,0.8,3.4
								c0.4,1.3,0.9,2.8,1.4,4.4c2.2,6.3,6,14.4,10.5,22.2c4.5,7.7,9.4,15.1,13,20.8c1.8,2.8,3.4,5.1,4.5,6.7
								c1.1,1.6,1.7,2.5,1.7,2.5s0.6,0.9,1.7,2.5c1.2,1.6,2.8,3.8,4.8,6.5c4,5.4,9.5,12.4,15.4,19.1c3,3.3,6,6.6,8.9,9.6
								c3,2.9,5.8,5.6,8.2,7.9c2.5,2.2,4.7,4,6.1,5.2c0.7,0.6,1.3,1.1,1.7,1.4c0.4,0.3,0.6,0.5,0.6,0.5c0,0-0.2-0.2-0.6-0.6
								c-0.4-0.4-0.9-0.9-1.7-1.5c-1.4-1.3-3.5-3.2-6-5.4c-2.4-2.3-5.1-5.1-8.1-8c-2.8-3.1-5.8-6.3-8.8-9.7
								c-5.8-6.8-11.2-13.8-15.1-19.2c-1.9-2.7-3.6-5-4.7-6.6c-1.1-1.6-1.7-2.5-1.7-2.5s-0.6-0.9-1.7-2.5c-1.1-1.6-2.7-3.9-4.5-6.7
								c-3.7-5.6-8.7-12.9-13.2-20.6c-4.6-7.6-8.5-15.6-10.8-21.9C304.4,366.1,303.9,364.7,303.5,363.4z M414.7,469
								c-4.4-1.5-8.8-3.4-11.9-5c-1.6-0.8-2.8-1.5-3.7-2c-0.9-0.5-1.4-0.8-1.4-0.8s-0.5-0.3-1.4-0.8c-0.9-0.5-2.2-1.2-3.6-2.2
								c-3-1.9-6.8-4.6-10.6-7.4c-3.7-2.9-7.4-5.8-10.2-8.1c-1.4-1.1-2.5-2.1-3.3-2.7c-0.8-0.6-1.3-1-1.3-1c0,0,0.4,0.4,1.1,1.2
								c0.8,0.7,1.8,1.7,3.2,2.9c2.6,2.4,6.2,5.4,9.9,8.4c3.7,2.9,7.6,5.7,10.5,7.6c1.5,1,2.8,1.7,3.6,2.3c0.9,0.5,1.4,0.9,1.4,0.9
								s0.5,0.3,1.4,0.8c0.9,0.5,2.2,1.2,3.8,2c3.2,1.6,7.6,3.4,12.1,4.8c4.6,1.3,9.2,2.2,12.8,2.4c1.8,0.2,3.3,0.1,4.3,0.2
								c1,0,1.6,0,1.6,0c0-0.1-2.4-0.2-5.9-0.6C423.8,471.4,419.2,470.4,414.7,469z"/>
						</g>
					</g>
					<g>
						<g>
							<g>
								<g>
									<path class="st19" d="M347.1,646.4c-3.7,1.6-7.7,2.6-11.8,3l-0.5,0c-0.8,0.1-1.6,0.1-2.4,0.1c3.8,5,7.4,9.6,10.6,13.8
										c0,0,2.2,11.8,7.8,25.3c2.1,10.3,2.2,25.6,7.2,24.9c3-0.4,5.2-10.5,6.9-19.5c1.3-6.5,0.4-8.1-4.2-16
										c0,0,11.8,12.5,12.3,10.4c0.5-2.1-7.4-15.6-21.8-29.6C351.1,659,349.6,653.9,347.1,646.4z"/>
									<path class="st20" d="M347.1,646.4c-1.7,0.7-3.5,1.3-5.3,1.8c0.9,4.7,1.1,9.4,0.3,14c0.3,0.4,0.6,0.8,0.9,1.2
										c0,0,0.4,1.9,1.1,4.9c2.6,0.9,4.9,2.4,6.8,4.6c5,5.8,5,14.3,0.6,20.2c1.5,9.8,2.1,21.1,6.4,20.4c3-0.4,5.2-10.5,6.9-19.5
										c1.3-6.5,0.4-8.1-4.2-16c0,0,11.8,12.5,12.3,10.4c0.5-2.1-7.4-15.6-21.8-29.6C351.1,659,349.6,653.9,347.1,646.4z"/>
								</g>
								<g>
									<path class="st21" d="M355.6,712.5c-2.7-3.6-3.1-15.1-4.8-23.4c1.7,2.3,4.6,5.8,7,2.7c4.2-5.3-6.3-32.1-6.7-32.8
										c14.4,13.9,22.3,27.4,21.8,29.6c-0.5,2.1-12.3-10.4-12.3-10.4c4.7,7.8,5.5,9.4,4.2,16c-1.8,9-4,19-6.9,19.5
										C357.1,713.8,356.3,713.3,355.6,712.5z"/>
									<path class="st22" d="M354.5,710.2c1.3-1,2.4-2.2,3.4-3.6c0.6-1.2,1.2-2.5,1.9-3.7c1.4-3.9,1.1-8.3-0.7-12.1
										c-0.1-0.3-0.3-0.6-0.5-0.9c1.6-8-7.1-30.3-7.4-30.9c2,2,3.9,3.9,5.7,5.8c-0.1,3.9,1.1,7.8,3.8,10.9l0.1,0.1
										c2.3,2.7,5.4,4.4,8.7,5.1c2.5,3.9,3.7,6.7,3.5,7.6c-0.5,2.1-12.3-10.4-12.3-10.4c4.7,7.8,5.5,9.4,4.2,16
										c-1.8,9-4,19-6.9,19.5c-0.8,0.1-1.6-0.3-2.3-1.1C355.2,711.9,354.8,711.1,354.5,710.2z"/>
								</g>
							</g>
							<g>
								<path class="st18" d="M249.7,447.3c-1.6,1.3,0.8,68.1,4,92.4c3.2,24.1,2.9,32.9,18.6,53.5c15.7,20.6,59.2,65.9,59.2,65.9
									s17.1,1.5,21-17.6c0,0-38.7-52.9-51.9-68c-13.2-15.2,1-54.8-9.3-81.2C281.1,465.9,255.5,442.4,249.7,447.3z"/>
								<path class="st23" d="M249.7,447.3c-1.6,1.3,0.8,68.1,4,92.4c3.2,24.1,2.9,32.9,18.6,53.5c15.7,20.6,59.2,65.9,59.2,65.9
									s17.1,1.5,21-17.6c0,0-38.7-52.9-51.9-68c-13.2-15.2,1-54.8-9.3-81.2C281.1,465.9,255.5,442.4,249.7,447.3z"/>
								<path class="st24" d="M300.6,573.5c-6.7-7.7-6.2-20-6-29.5c0.3-12.2,0.5-24.2,0.1-36.4c-0.6-5.4-1.6-10.6-3.5-15.4
									c-10.3-26.4-35.8-49.9-41.7-45c-0.6,0.5-0.6,10.2-0.3,23.3c3.3-1.5,6.7-1.4,11.6,1.2c14.4,7.6,22.6,26.9,20.8,42.8
									c-2,17.6,0.5,36.5-7.5,53.1c-1.6,3.3-4.2,7.2-8.4,7.2c-4.6,0-5.9-4.2-7.3-6.9c0.4,5.8,3.8,10.4,6.8,15.2
									c0.2,0.4,0.5,0.8,0.8,1.2c0.4,0.6,0.8,1.2,1.2,1.9c0.4,0.6,0.8,1.2,1.2,1.8c0.4,0.5,0.7,1,1.1,1.5c0.8,1.2,1.7,2.3,2.6,3.6
									c15.7,20.6,59.2,65.9,59.2,65.9s17.1,1.5,21-17.6C352.5,641.6,313.8,588.7,300.6,573.5z"/>
								<g>
									<path class="st25" d="M266.5,584.4c-0.9-1.6-1.9-3.3-2.8-5.1c-1-1.7-1.5-3.7-2.2-5.4c-0.3-0.9-0.7-1.7-1-2.5
										c-0.2-0.8-0.4-1.6-0.6-2.3c-0.7-2.9-1.2-4.8-1.2-4.8s-1.6-7.7-2.7-15.7c-0.6-4-1.1-7.9-1.7-10.9c-0.5-3-0.9-4.9-1.1-4.9
										c-0.1,0,0,2,0.4,5c0.3,3,0.7,7,1.1,10.9c0.7,8,2.2,15.9,2.2,15.9s0.6,1.9,1.4,4.9c0.2,0.7,0.4,1.5,0.7,2.3
										c0.3,0.8,0.7,1.6,1.1,2.5c0.8,1.7,1.4,3.7,2.5,5.4c1.1,1.7,2.1,3.4,3.1,5c0.9,1.6,2.3,2.8,3.2,4c2,2.3,3.3,3.8,3.4,3.7
										c0.1-0.1-1.1-1.7-2.9-4.1C268.6,587.3,267.3,586,266.5,584.4z"/>
									<path class="st25" d="M269.7,568.3c-2-5.6-3.6-11.3-4.5-15.7c-0.9-4.4-1.4-7.3-1.4-7.3s-0.5-2.9-1.1-7.4
										c-0.6-4.4-1.2-10.4-1.8-16.3c-0.5-6-1.1-11.9-1.5-16.4c-0.2-2.2-0.5-4.1-0.6-5.4c-0.2-1.3-0.3-2-0.4-2
										c-0.1,0-0.1,0.8,0,2.1c0.1,1.3,0.2,3.2,0.3,5.4c0.2,4.5,0.6,10.5,0.9,16.5c0.4,6,0.9,12,1.4,16.5c0.5,4.5,1,7.5,1,7.5
										s0.5,3,1.5,7.4c1,4.4,2.7,10.2,4.9,15.8c2.3,5.6,5.2,10.9,7.8,14.6c1.2,1.9,2.5,3.3,3.3,4.3c0.8,1,1.3,1.6,1.4,1.5
										c0.1-0.1-1.7-2.5-4.1-6.3C274.6,579.1,271.9,573.8,269.7,568.3z"/>
									<path class="st25" d="M332.3,651c-2-2.8-4.6-6.5-7.3-10.2c-5.6-7.2-11.1-14.4-11.1-14.4s-6.1-6.8-12.2-13.5
										c-3.3-3.2-6.6-6.3-9-8.7c-2.5-2.3-4.2-3.8-4.3-3.8c-0.1,0.1,1.4,1.8,3.8,4.3c2.3,2.5,5.5,5.7,8.6,9
										c5.9,6.9,11.7,13.8,11.7,13.8s5.7,7,11.5,14c2.8,3.6,5.6,7.1,7.7,9.8c2.1,2.7,3.6,4.4,3.7,4.3
										C335.5,655.7,334.2,653.8,332.3,651z"/>
								</g>
							</g>
							<g>
								<g>
									<path class="st19" d="M319.3,656.3h-19.8c0.9,11.1,1.8,22.1,2.6,32.5c0,0-13.4,20-14.4,28.9c-6,5.5-19.9,10.4-15.4,12.4
										c2.7,1.2,15,0.4,23.1-4.5c5.5-3.3,6.6-8.9,10.7-15.4c0,0,1,17.9,2.5,16.4c1.5-1.5,7-18.4,2.5-37.2
										C311.1,689.5,315.6,673.8,319.3,656.3z"/>
									<path class="st20" d="M319.3,656.3h-5.4c-1.7,8.3-4.5,16.4-9.2,24.2c-0.9,1.4-1.8,2.6-2.9,3.6c0.1,1.6,0.3,3.2,0.4,4.8
										c0,0-0.6,1-1.7,2.6c5.4,9.1,1.3,23.8-12.3,24.1c-0.2,0.8-0.4,1.6-0.4,2.3c-6,5.5-19.9,10.4-15.4,12.4
										c2.7,1.2,15,0.4,23.1-4.5c5.5-3.3,6.6-8.9,10.7-15.4c0,0,1,17.9,2.5,16.4c1.5-1.5,7-18.4,2.5-37.2
										C311.1,689.5,315.6,673.8,319.3,656.3z"/>
								</g>
								<g>
									<g>
										<path class="st21" d="M292.2,719.9c-4.1,2.4-4.9,0.3-4.9-1.7c-6.2,5.3-19.3,10.1-15,12c2.7,1.2,15,0.4,23.1-4.5
											c5.5-3.3,6.6-8.9,10.7-15.4c0,0,1,17.9,2.5,16.4c1.5-1.5,7-18.4,2.5-37.2C309.6,704.3,299.2,715.9,292.2,719.9z"/>
									</g>
									<g class="st26">
										<path class="st22" d="M312.4,697c-0.3-2.4-0.7-5-1.3-7.5c-1.1,11.2-7.4,20.6-13.4,26.2c-0.7,2.5-2.1,4.8-3.9,6.7
											c-2.9,2.9-6.9,4.5-11,4.5c-2.3,0-4.7-0.5-6.8-1.5c-3.6,2.1-5.9,3.8-3.7,4.8c2.7,1.2,15,0.4,23.1-4.5
											c5.5-3.3,6.6-8.9,10.7-15.4c0,0,1,17.9,2.5,16.4c0.7-0.7,2.2-4.5,3.2-10.3C308,710.8,308.2,702.4,312.4,697z"/>
									</g>
								</g>
							</g>
							<g>
								<g>
									<path class="st18" d="M249.7,447.2c-0.9,5.1,1.9,2.7,4,6.7c8.9,17.3,35.7,24.9,37.1,44.4c1.2,17,3,37.1,3,54.1
										c0,10.8-0.7,31,0.7,44.6c1.4,13.7,3.6,75.6,3.6,75.6s18.2,7.4,24-6.2c0,0,15.6-60.7,13.4-94.6c0,0,1.4-38.2,3.6-63.4
										c2.2-25.2,10.8-56.2-15.1-81.4c-25.9-25.2-61.2-14.4-61.2-14.4C259.5,422.2,251.7,435.4,249.7,447.2z"/>
									<path class="st23" d="M249.7,447.2c-0.9,5.1,1.9,2.7,4,6.7c8.9,17.3,35.7,24.9,37.1,44.4c1.2,17,3,37.1,3,54.1
										c0,10.8-0.7,31,0.7,44.6c1.4,13.7,3.6,75.6,3.6,75.6s18.2,7.4,24-6.2c0,0,15.6-60.7,13.4-94.6c0,0,1.4-38.2,3.6-63.4
										c2.2-25.2,10.8-56.2-15.1-81.4c-25.9-25.2-61.2-14.4-61.2-14.4C259.5,422.2,251.7,435.4,249.7,447.2z"/>
									<path class="st24" d="M324,427.2c-25.9-25.2-61.2-14.4-61.2-14.4c-3.3,9.4-11.1,22.7-13.1,34.4c-0.9,5.1,1.9,2.7,4,6.7
										c6.4,12.5,22.1,19.9,30.9,30.4c1.7-7.4,9.9-13,17-13c10.3,0,16,7.9,17.2,17.2c8.2,62.1-8.1,123.8-6.6,185.7
										c4-0.7,7.7-2.9,9.9-7.9c0,0,15.6-60.7,13.4-94.6c0,0,1.4-38.2,3.6-63.4C341.3,483.3,349.9,452.4,324,427.2z"/>
									<g>
										<path class="st25" d="M284.9,485.9c-0.9-1.1-1.4-1.8-1.4-1.8s-0.6-0.7-1.4-1.9c-0.8-1.1-1.9-2.6-2.9-4.2
											c-1-1.6-1.8-3.3-2.3-4.6c-0.4-1.3-0.6-2.3-0.5-2.3c0.1,0,0.4,0.8,1,2.1c0.6,1.2,1.5,2.8,2.6,4.3c1,1.5,2.2,2.9,3.1,4
											c0.9,1.1,1.5,1.8,1.5,1.8s0.5,0.8,1.4,1.9c0.8,1.1,1.8,2.7,2.7,4.3c0.9,1.7,1.6,3.4,1.9,4.8c0.3,1.4,0.4,2.3,0.3,2.3
											c-0.1,0-0.4-0.9-0.8-2.1c-0.5-1.3-1.3-2.9-2.2-4.4C286.8,488.4,285.8,486.9,284.9,485.9z"/>
										<path class="st25" d="M303.1,584.7c0.1-1.2,0.1-2.6,0.2-4.3c0.2-1.6,0.4-3.5,0.6-5.5c0.3-4,1.1-8.7,1.7-13.7
											c0.3-2.5,0.6-5.1,1-7.7c0.2-1.3,0.3-2.6,0.5-4c0.2-1.3,0.2-2.7,0.3-4c0.2-2.7,0.4-5.3,0.6-8c0.1-2.6,0.3-5.2,0.4-7.8
											c0.3-5,0.6-9.7,0.8-13.7c0.1-2,0.2-3.9,0.3-5.5c0.1-1.6,0.2-3.1,0.4-4.2c0.2-1.2,0.3-2.1,0.4-2.7c0.1-0.6,0.2-0.9,0.2-0.9
											c0,0,0,0.3-0.1,1c-0.1,0.6-0.2,1.5-0.3,2.7c-0.2,1.2-0.2,2.6-0.3,4.2c-0.1,1.6-0.1,3.5-0.2,5.5c-0.2,4-0.3,8.7-0.6,13.8
											c-0.1,2.5-0.2,5.1-0.3,7.8c-0.2,2.6-0.3,5.3-0.5,8c-0.1,1.3-0.1,2.7-0.3,4c-0.1,1.3-0.3,2.7-0.4,4
											c-0.3,2.6-0.6,5.2-0.9,7.7c-0.6,5-1.3,9.6-1.6,13.7c-0.2,2-0.4,3.8-0.5,5.5c-0.1,1.6-0.1,3.1-0.2,4.2
											c-0.1,2.3-0.1,3.7-0.1,3.7s-0.1,1.3,0,3.7c0.1,2.3,0.1,5.7,0.3,9.7c0.4,8,0.9,18.8,1.4,29.5c0.3,5.4,0.4,10.7,0.4,15.7
											c0.1,5,0.2,9.7,0.2,13.7c0,4,0.1,7.4,0.1,9.7c0,1.2,0,2.1,0,2.7c0,0.6,0,1,0,1s-0.1-0.3-0.1-1c0-0.6-0.1-1.5-0.1-2.7
											c-0.1-2.3-0.2-5.7-0.4-9.7c-0.1-4-0.3-8.7-0.4-13.7c-0.2-5-0.3-10.4-0.6-15.7c-0.6-10.7-1.3-21.4-1.7-29.4
											c-0.2-4-0.3-7.4-0.4-9.7c-0.1-2.4,0-3.7,0-3.7S303,587.1,303.1,584.7z"/>
										<path class="st25" d="M293.6,563.6c0-1.4-0.2-2.5-0.3-3.3c-0.1-0.8-0.1-1.3-0.1-1.3c0,0,0.2,0.4,0.3,1.2
											c0.2,0.8,0.4,2,0.5,3.3c0.3,2.8,0.4,6.5,0.4,10.2c0,3.7-0.2,7.4,0,10.2c0.3,2.8,0.5,4.6,0.5,4.6s0,0.5,0.1,1.3
											c0.1,0.8,0.1,2,0.3,3.3c0.4,2.8,0.8,6.4,1.5,10.1c0.6,3.7,1.2,7.3,1.6,10.1c0.4,2.8,0.6,4.6,0.6,4.6
											c-0.1,0-0.5-1.8-1.1-4.5c-0.6-2.7-1.3-6.4-2.1-10c-0.8-3.6-1.3-7.4-1.8-10.1c-0.3-1.4-0.3-2.5-0.4-3.4
											c-0.1-0.8-0.1-1.3-0.1-1.3s-0.1-1.9-0.3-4.7c-0.1-2.8,0.1-6.5,0.3-10.2C293.7,570,293.8,566.3,293.6,563.6z"/>
										<path class="st25" d="M331.3,589.6c0.2-1.6,0.5-3.4,0.6-5.4c0.1-2,0.3-4.1,0.4-6.2c0.4-8.5,0.9-17,0.9-17s0-0.5,0.1-1.5
											c0.1-0.9,0.1-2.3,0.4-3.8c0.4-3.2,1.1-7.4,1.7-11.6c0.6-4.2,1.2-8.4,1.4-11.6c0.1-1.6,0.1-2.9,0.2-3.8
											c0-0.9,0.1-1.5,0.1-1.5c0,0,0.1,0.5,0.2,1.5c0,0.9,0.2,2.3,0.1,3.9c0,3.2-0.4,7.4-0.9,11.7c-0.5,4.2-1.1,8.4-1.4,11.6
											c-0.2,1.6-0.2,2.9-0.3,3.8c-0.1,0.9-0.1,1.5-0.1,1.5s-0.2,2.1-0.4,5.3c-0.2,3.2-0.5,7.4-0.9,11.7
											c-0.2,2.1-0.4,4.2-0.6,6.2c-0.2,2-0.6,3.8-0.8,5.4c-0.3,1.6-0.5,2.9-0.7,3.8c-0.2,0.9-0.3,1.4-0.4,1.4c0,0,0-0.5,0.1-1.5
											C330.9,592.5,331.1,591.2,331.3,589.6z"/>
									</g>
								</g>
								<path class="st16" d="M327.4,430.8c0.6,0.7,1.1,1.3,1.7,2c0.3,0.3,0.5,0.6,0.8,1c0.5,0.7,1,1.4,1.5,2.1
									c0.2,0.3,0.4,0.5,0.6,0.8c0.7,1,1.3,1.9,1.9,2.9c0,0,0.1,0.1,0.1,0.1c0.5,0.9,1.1,1.9,1.5,2.8c0.1,0.3,0.3,0.5,0.4,0.8
									c0.4,0.7,0.7,1.5,1,2.2c0.1,0.3,0.2,0.6,0.4,0.8c0.3,0.8,0.7,1.6,1,2.4c0.1,0.2,0.1,0.4,0.2,0.6c0.4,1,0.7,2.1,1,3.1
									c0,0,0,0,0,0c-3.9,2.3-7.9,4.4-12,6.3c-18.3,8.2-41.1-5.5-55.3-19.9c-4.7,2.7-19,22.1-23.8,20.4c-0.2-6.8,1.7-10.4,2.2-11.7
									l11.8-33.4v0c0.7-0.7,1.5-1.3,2.5-1.7c3.2-0.7,9.7-1.9,17.7-1.7c0.8,0,1.5,0,2.3,0.1c0.1,0,0.2,0,0.3,0
									c13.5,0.8,26.4,5.6,36.6,14.5c0.8,0.7,1.5,1.3,2.2,2c0.9,0.9,1.8,1.8,2.7,2.7C326.9,430.2,327.2,430.5,327.4,430.8z"/>
							</g>
						</g>
						<g>
							<g>
								<path class="st18" d="M261.9,304.9c0,0-7.9,13.2-11.3,18.4c-3.5,5.3-45.8,43.6-44.7,51.2c1,7.6,19,46,39.5,52.8
									c0,0,5.1-13.8,13.7-17.6c0,0-19.6-21-27.5-33.3c0,0,34.6-19.6,39.8-27C276.4,342,280.3,316.9,261.9,304.9z"/>
								<path class="st27" d="M261.9,304.9c0,0-7.9,13.2-11.3,18.4c-3.5,5.3-45.8,43.6-44.7,51.2c1,7.6,19,46,39.5,52.8
									c0,0,5.1-13.8,13.7-17.6c0,0-19.6-21-27.5-33.3c0,0,34.6-19.6,39.8-27C276.4,342,280.3,316.9,261.9,304.9z"/>
								<path class="st27" d="M229.2,402.7c-4.9-6-5.9-15.1-0.7-22.1c1-1.3,2.2-2.4,3.5-3.3c-0.2-0.3-0.4-0.6-0.5-0.8
									c0,0,34.6-19.6,39.8-27c4.9-7.2,8.8-30.9-7.6-43.3c12,27.5-23.5,73.5-50.4,66.2c-2-0.5-3.8-1.5-5.4-2.9
									c-1.4,2.2-2.2,4-2.1,5.1c1,7.6,19,46,39.5,52.8c0,0,1.7-4.6,4.8-9.3C242.3,414.9,235.2,410,229.2,402.7z"/>
							</g>
							<g>
								<g>
									<path class="st25" d="M271.8,316.2c0.1,0,0.6,1.2,1.3,3c0.3,0.9,0.7,2,1.1,3.2c0.3,1.2,0.8,2.5,1,3.9
										c0.1,0.7,0.3,1.3,0.3,2c0.1,0.7,0.1,1.4,0.2,2c0.1,1.3,0,2.6,0,3.6c-0.1,1.1-0.2,2-0.2,2.6c0,0.6-0.1,1-0.1,1
										s-0.1,0.3-0.2,1c-0.1,0.6-0.2,1.5-0.6,2.5c-0.5,2.1-1.5,4.8-2.9,7.2c-1.4,2.4-3.1,4.5-4.5,5.9c-1.4,1.4-2.4,2.3-2.4,2.2
										c-0.1-0.1,0.8-1.1,2.1-2.6c1.3-1.5,2.9-3.6,4.2-6c1.3-2.4,2.1-5,2.6-6.9c0.3-1,0.3-1.9,0.5-2.4c0.1-0.6,0.2-0.9,0.2-0.9
										s0.1-0.3,0.1-0.9c0.1-0.6,0.2-1.4,0.3-2.5c0.1-2,0.1-4.8-0.3-7.4C273.6,321.2,271.6,316.3,271.8,316.2z"/>
								</g>
								<g>
									<path class="st25" d="M232,376.1c0,0.1-0.4,0.5-1.3,0.9c-0.8,0.4-1.9,0.8-3,1c-2.2,0.5-4.5,0.6-4.5,0.6s-0.6,0-1.4-0.1
										c-0.8-0.1-2-0.2-3-0.5c-1.1-0.2-2.2-0.6-2.9-1c-0.8-0.4-1.2-0.9-1.1-0.9c0.1-0.1,0.5,0.2,1.3,0.4c0.8,0.2,1.8,0.5,2.9,0.6
										c1.1,0.1,2.2,0.1,3,0.1c0.8,0,1.4,0,1.4,0s2.2,0.1,4.4-0.2c1.1-0.1,2.2-0.3,3-0.6C231.5,376.3,232,376,232,376.1z"/>
								</g>
							</g>
						</g>
						<g>
							<g>
								<g>
									<path class="st15" d="M302.4,294.7c0,0,11.2,5.4,19.1,6.5c7.9,1.1,19.8,0.4,20.2,1.4c0.4,1.1-7.6,36.4-14,49
										c-6.5,12.6-22.3,40-22.3,40s31.7,42.1,33.1,43.6c1.4,1.4-8.6,11.9-23.4,13.7c-14.8,1.8-30.6-0.7-44.3-32.4
										c0,0-7.6,32-23.4,32.8c0,0,6.5-61.6,10.1-70.2c0,0-9.7-15.5-10.1-27c-0.4-11.5,14.4-27,15.5-36.4
										c1.1-9.4-1.3-10.4-1.3-10.4l15-2.9l13.3-7.9L302.4,294.7z"/>
									<path class="st27" d="M268.3,329.5c-0.9-1.7-1.7-3.5-2.3-5.5C266.5,325.9,267.3,327.7,268.3,329.5z"/>
									<path class="st16" d="M247.4,352c-0.1-2,0.3-4.1,1-6.3c2.8,2.5,5.9,4.7,9.5,6.3c11.5,5.2,22.9,6.9,35.3,4.2
										c16.1-3.6,27.7-15.3,31.3-29.4c5.2-0.4,7.9-1,12.5-3.2c-2.7,10.4-6.2,22-9.4,28.1c-6.5,12.6-22.3,40-22.3,40
										s31.7,42.1,33.1,43.6c1.4,1.4-8.6,11.9-23.4,13.7c0,0,0,0,0,0c-4.9-20.3-14.5-38.8-34.3-49.8c-8.6-4.7-18.5-5.1-27-1.7
										c1.3-8.7,2.6-15.8,3.7-18.3C257.4,379,247.7,363.5,247.4,352z"/>
									<g>
										<g>
											<path class="st28" d="M260.3,381.5c0,0-0.3-0.5-0.9-1.3c-0.6-0.8-1.5-2-2.6-3.4c-2.1-2.9-4.6-6.9-6.3-11.2
												c-1.8-4.3-2.5-9-2.4-12.4c0-0.9,0.1-1.7,0.1-2.4c0.1-0.7,0.2-1.3,0.3-1.8c0.1-0.5,0.2-0.9,0.2-1.1
												c0.1-0.3,0.1-0.4,0.1-0.4s0.1-0.6,0.3-1.5c0.2-0.5,0.3-1.1,0.6-1.7c0.2-0.7,0.6-1.4,0.9-2.2c1.4-3.2,3.8-7.2,6.3-11.2
												c2.4-4,4.8-8.2,5.9-11.6c0.3-0.8,0.5-1.6,0.7-2.3c0.2-0.7,0.3-1.3,0.4-1.8c0.1-1,0.2-1.6,0.1-1.6c-0.1,0-0.4,2.3-1.7,5.6
												c-1.2,3.3-3.7,7.3-6.2,11.2c-2.6,3.9-5.1,7.9-6.6,11.2c-0.3,0.8-0.7,1.6-0.9,2.3c-0.2,0.7-0.5,1.3-0.6,1.8
												c-0.3,1-0.4,1.6-0.4,1.6s0,0.1-0.1,0.4c-0.1,0.3-0.2,0.7-0.2,1.2c-0.1,0.5-0.1,1.2-0.2,1.9c0,0.7-0.1,1.6-0.1,2.5
												c0,3.6,0.9,8.4,2.8,12.8c1.9,4.4,4.5,8.4,6.7,11.2c1.1,1.4,2.1,2.5,2.8,3.3C259.9,381.1,260.3,381.5,260.3,381.5z"/>
										</g>
										<g>
											<path class="st28" d="M300.9,400.4c0.1,0,0.6-1.6,1.6-4c0.9-2.4,2.5-5.5,4.1-8.6c1.7-3,3.5-6,4.9-8.2
												c1.4-2.2,2.3-3.6,2.3-3.6s0.9-1.5,2.3-3.7c1.4-2.2,3.2-5.2,4.9-8.2c1.7-3,3.3-6.1,4.3-8.5c0.6-1.2,0.9-2.2,1.2-2.9
												c0.3-0.7,0.4-1.1,0.3-1.2c-0.1,0-0.8,1.5-2,3.9c-1.2,2.3-2.9,5.3-4.7,8.3c-1.8,2.9-3.7,5.8-5.1,8
												c-1.4,2.2-2.4,3.6-2.4,3.6s-0.9,1.5-2.3,3.7c-1.3,2.2-3.1,5.3-4.7,8.4c-1.5,3.1-2.9,6.3-3.7,8.8c-0.5,1.2-0.7,2.3-0.9,3
												C300.9,400,300.8,400.4,300.9,400.4z"/>
										</g>
									</g>
									<path class="st23" d="M291.1,294.4l11.4,0.3c0,0,0,0,0.1,0c0,0,0,0,0,0c0.1,0,0.2,0.1,0.3,0.1c0,0,0.1,0,0.1,0
										c0.1,0.1,0.3,0.1,0.5,0.2c0,0,0.1,0,0.1,0c0.2,0.1,0.4,0.2,0.7,0.3c0,0,0,0,0.1,0c0.3,0.1,0.6,0.2,0.9,0.4c0,0,0.1,0,0.1,0
										c0.2,0.1,0.5,0.2,0.8,0.3c5,5.3-1.2,12.3-1.6,12.9c0,0-27.8,22.8-29,18.5c-1.2-4.3-1.2-9.4,2.2-16.6
										C279.8,306.4,284.7,298.1,291.1,294.4z"/>
									<g>
										<path class="st16" d="M302.6,294.8c0.1,0,0.2,0.1,0.3,0.1c0,0,0.1,0,0.1,0c0.1,0.1,0.3,0.1,0.5,0.2c0,0,0.1,0,0.1,0
											c0.2,0.1,0.4,0.2,0.7,0.3c0,0,0,0,0.1,0c0.3,0.1,0.6,0.2,0.9,0.4c0,0,0.1,0,0.1,0c0.3,0.1,0.6,0.3,1,0.4
											c0.1,0,0.1,0,0.2,0.1c0.3,0.1,0.7,0.3,1.1,0.5c0.1,0,0.1,0.1,0.2,0.1c0.4,0.2,0.8,0.3,1.2,0.5c0.1,0,0.1,0,0.2,0.1
											c0.4,0.2,0.9,0.3,1.4,0.5c2.2,9.3,2.7,32.7,2.4,39.5l-19.1-2.2c0,0,10.1,9.7,8.3,12.6c-1.8,2.8-15.6,18.8-20.2,31.3
											c-2.3,6.2-6.5,25.4-6.5,25.4l-3.4,14.5c-0.4-0.9-0.9-1.9-1.3-2.9c0,0-0.3,1.3-0.9,3.3c-3.1-16.2-13.6-66.7-12.8-72
											c0.5-3.3,9.7-11.8,9.7-11.8l-8.4-1c0,0,11.9-23.5,21.7-34.8l9.7-5.8l12.6,0.4C302.4,294.7,302.5,294.8,302.6,294.8
											C302.6,294.8,302.6,294.8,302.6,294.8z"/>
										<g>
											<path class="st29" d="M266.9,335.8l-8.5-0.9c0,0,0.8-1.6,2.2-4.2l7.8,1.6C268.4,332.4,268.5,333.4,266.9,335.8z"/>
											<path class="st29" d="M269.5,414.6l3.4-14.5c0,0,4.2-19.2,6.5-25.4c4.6-12.6,18.4-28.5,20.2-31.3
												c0.2-0.3,0.2-0.8,0.2-1.3c1.8,2.4,3.1,4.8,2.3,6c-1.8,2.8-15.6,18.8-20.2,31.3c-2.3,6.2-6.5,25.4-6.5,25.4l-3.4,14.5
												c-0.4-0.9-0.9-1.9-1.3-2.9c0,0-0.3,1.3-0.9,3.3c-0.4-2.1-0.9-4.7-1.5-7.8C268.7,412.8,269.1,413.7,269.5,414.6z"/>
											<path class="st29" d="M290.9,331.9l19.4,1c0.3-5.9-0.1-24.7-1.7-35.5c0.1,0,0.2,0.1,0.3,0.1c0.1,0,0.1,0,0.2,0.1
												c0.4,0.2,0.9,0.3,1.4,0.5c2.2,9.3,2.7,32.7,2.4,39.5l-18.8-2.2C291.8,332.8,290.9,331.9,290.9,331.9z"/>
										</g>
										<g>
											<g>
												<path class="st28" d="M305.6,449.1c0,0-0.4-0.1-1-0.1c-0.7-0.1-1.6-0.1-2.8-0.4c-2.4-0.5-5.8-1.5-9.4-3.7
													c-1.8-1.1-3.7-2.4-5.3-4.2c-1.7-1.7-3.3-3.7-5-5.7c-0.8-1-1.7-2.1-2.5-3.1c-0.8-1.1-1.6-2.2-2.3-3.4
													c-0.7-1.2-1.3-2.4-2-3.7c-0.6-1.3-1.2-2.6-1.7-3.8c-4.3-10.4-5-21.9-4.6-30.3c0.1-4.2,0.5-7.7,0.8-10.2
													c0.2-2.5,0.4-3.9,0.4-3.9s0.2-1.4,0.5-3.8c0.3-2.4,0.8-5.9,1.3-10.2c0.3-2.1,0.5-4.4,0.8-6.8c0.3-2.4,0.6-4.9,1.2-7.5
													c0.2-1.3,0.6-2.6,0.9-3.9l0.2-1l0.1-0.4c0,0,0,0,0,0l0.1-0.1c0.6-0.4,1.2-0.8,1.7-1.2c1.1-0.8,2.3-1.6,3.4-2.5
													c1.1-0.9,2.2-1.8,3.3-2.7c1.1-0.9,2.2-1.8,3.2-2.8c1-0.9,2.1-1.9,3.1-2.8c1.1-0.9,2-2,2.9-3c1-1,1.8-2.1,2.6-3.1
													c3.3-4.2,5.9-8.4,7.9-12.2c1-1.9,1.9-3.6,2.6-5.2c0.7-1.6,1.3-2.9,1.8-4.1c0.4-1.2,0.8-2.1,1-2.7c0.2-0.6,0.3-1,0.3-1
													c0,0-0.2,0.3-0.5,0.9c-0.3,0.6-0.7,1.5-1.1,2.6c-0.5,1.1-1.2,2.5-1.9,4c-0.8,1.5-1.7,3.3-2.7,5.1c-2.1,3.7-4.8,7.8-8,12
													c-0.8,1-1.7,2.1-2.6,3c-0.9,1-1.8,2-2.9,2.9c-1,0.9-2.1,1.8-3.1,2.8c-1,0.9-2.1,1.9-3.2,2.7c-1.1,0.9-2.2,1.7-3.3,2.6
													c-1.1,0.8-2.3,1.6-3.4,2.4c-0.6,0.4-1.1,0.8-1.7,1.2l-0.3,0.2c-0.1,0-0.1,0.1-0.2,0.1l-0.1,0.2l-0.2,0.6l-0.3,1
													c-0.3,1.3-0.7,2.6-0.9,3.9c-0.6,2.6-1,5.2-1.3,7.6c-0.3,2.4-0.6,4.7-0.9,6.8c-0.6,4.2-1,7.7-1.4,10.1
													c-0.3,2.4-0.5,3.9-0.5,3.9s-0.2,1.4-0.4,3.9c-0.2,2.5-0.6,6-0.7,10.3c-0.4,8.5,0.4,20.2,4.9,30.7
													c0.6,1.3,1.2,2.6,1.8,3.9c0.7,1.2,1.4,2.5,2.1,3.7c0.7,1.2,1.6,2.3,2.4,3.4c0.9,1.1,1.7,2.1,2.6,3.1
													c1.8,2,3.4,4,5.1,5.7c1.7,1.8,3.7,3.1,5.5,4.2c3.7,2.2,7.2,3.1,9.7,3.5c1.2,0.3,2.2,0.2,2.9,0.3
													C305.2,449.1,305.6,449.1,305.6,449.1z"/>
											</g>
											<g>
												<path class="st28" d="M274.5,343.6c0.1,0,0.1-1.3,0.2-3.2c0.1-1.9-0.1-4.5-0.1-7.1c0-1.3,0-2.6,0-3.8
													c0-1.2,0.1-2.3,0.2-3.3c0.1-0.9,0.1-1.7,0.2-2.3c0.1-0.5,0.1-0.9,0.1-0.9s0-0.3,0.1-0.9c0-0.6,0.2-1.3,0.4-2.3
													c0.3-1.9,1-4.3,1.8-6.7c1.7-4.8,4.1-9.4,3.9-9.5c-0.1,0-0.8,1.1-1.7,2.7c-0.9,1.7-2.1,4-3.1,6.4c-1,2.4-1.8,4.9-2.2,6.8
													c-0.2,1-0.4,1.7-0.5,2.3c-0.1,0.6-0.1,0.9-0.1,0.9s0,0.3-0.1,0.9c0,0.6-0.1,1.4-0.1,2.4c0,1-0.1,2.1-0.1,3.3
													c0.1,1.2,0.1,2.5,0.2,3.8c0.2,2.6,0.4,5.1,0.5,7.1C274.3,342.3,274.4,343.6,274.5,343.6z"/>
											</g>
										</g>
									</g>
									<g>
										<path class="st27" d="M275,417.6c0-0.2,0-0.5,0.1-0.7c0-0.1,0-0.1,0-0.2c0.3-1.9,1.4-3.3,2.7-3.4c1.7-0.1,3.3,2.1,3.4,4.8
											c0.1,2-0.5,3.8-1.5,4.7c0,0,0,0,0,0c-0.2,0.1-0.3,0.2-0.5,0.3c0,0-0.1,0-0.1,0c-0.2,0.1-0.4,0.1-0.6,0.2
											c-1.7,0.1-3.3-2-3.4-4.8C275,418.3,275,417.9,275,417.6z"/>
										<g>
											
												<ellipse transform="matrix(0.9979 -6.468269e-02 6.468269e-02 0.9979 -26.435 18.9388)" class="st30" cx="279.3" cy="417.7" rx="3.1" ry="5"/>
											<linearGradient id="SVGID_8_" gradientUnits="userSpaceOnUse" x1="276.1428" y1="418.6447" x2="281.7712" y2="418.6447">
												<stop  offset="0" style="stop-color:#FFFFFF"/>
												<stop  offset="0.2323" style="stop-color:#D0D9DA"/>
												<stop  offset="0.4568" style="stop-color:#ABBABD"/>
												<stop  offset="0.6641" style="stop-color:#90A4A8"/>
												<stop  offset="0.848" style="stop-color:#80979B"/>
												<stop  offset="0.9893" style="stop-color:#7A9297"/>
											</linearGradient>
											<path class="st31" d="M276.7,414.5c-0.1,0.5-0.1,1,0,1.4c0.3,1.6,0.9,3,2.1,4.1c0.7,0.8,1.9,1.1,2.9,0.9
												c-0.5,1-1.3,1.7-2.2,1.8c-1.7,0.1-3.3-2.1-3.4-4.8C276.1,416.6,276.3,415.5,276.7,414.5z"/>
										</g>
									</g>
								</g>
								<g>
									<path class="st30" d="M284.2,291.2c0,0,12.8,2.2,24.3-5c0,0,0.9,12.8,0.9,15c0,2.2-16,31.4-35.4,42.2c0,0-0.7-17.3,0-20.2
										C274.7,320.3,283.5,305.6,284.2,291.2z"/>
									<linearGradient id="SVGID_9_" gradientUnits="userSpaceOnUse" x1="273.6746" y1="317.2353" x2="309.5127" y2="317.2353">
										<stop  offset="0" style="stop-color:#FFFFFF"/>
										<stop  offset="0.2323" style="stop-color:#D0D9DA"/>
										<stop  offset="0.4568" style="stop-color:#ABBABD"/>
										<stop  offset="0.6641" style="stop-color:#90A4A8"/>
										<stop  offset="0.848" style="stop-color:#80979B"/>
										<stop  offset="0.9893" style="stop-color:#7A9297"/>
									</linearGradient>
									<path class="st32" d="M309,291.1c0.8,3.2,0.4,9.4,0.4,11c0,2.2-16,30.4-35.4,41.2c0,0-0.6-15.1-0.1-19.4
										C290.1,323.7,308.6,307.3,309,291.1z"/>
									<g class="st33">
										<linearGradient id="SVGID_10_" gradientUnits="userSpaceOnUse" x1="287.0639" y1="296.4118" x2="300.0442" y2="296.4118">
											<stop  offset="0" style="stop-color:#FFFFFF"/>
											<stop  offset="0.2323" style="stop-color:#D0D9DA"/>
											<stop  offset="0.4568" style="stop-color:#ABBABD"/>
											<stop  offset="0.6641" style="stop-color:#90A4A8"/>
											<stop  offset="0.848" style="stop-color:#80979B"/>
											<stop  offset="0.9893" style="stop-color:#7A9297"/>
										</linearGradient>
										<path class="st34" d="M288.1,295.7c0.6,0.3,1.4,0.6,2.2,0.8c1.6,0.4,3.3,0.1,3.3,0.1s1.7,0,3.3-0.5
											c1.6-0.5,3.1-1.4,3.2-1.3c0.1,0.1-1.2,1.4-2.9,2.2c-1.7,0.8-3.5,1-3.5,1s-0.5,0-1.2,0c-0.7-0.1-1.6-0.2-2.5-0.5
											c-0.9-0.3-1.7-0.8-2.2-1.3c-0.5-0.5-0.8-0.9-0.7-0.9C287.1,295.1,287.5,295.4,288.1,295.7z"/>
										<linearGradient id="SVGID_11_" gradientUnits="userSpaceOnUse" x1="287.7764" y1="299.7847" x2="297.8736" y2="299.7847">
											<stop  offset="0" style="stop-color:#FFFFFF"/>
											<stop  offset="0.2323" style="stop-color:#D0D9DA"/>
											<stop  offset="0.4568" style="stop-color:#ABBABD"/>
											<stop  offset="0.6641" style="stop-color:#90A4A8"/>
											<stop  offset="0.848" style="stop-color:#80979B"/>
											<stop  offset="0.9893" style="stop-color:#7A9297"/>
										</linearGradient>
										<path class="st35" d="M290,299.5c0.6,0.3,1.2,0.6,1.7,0.7c0.5,0.1,0.8,0.2,0.8,0.2s0.3,0.1,0.8,0.2
											c0.5,0.2,1.2,0.1,1.8,0.2c1.4,0,2.7-0.4,2.8-0.2c0.1,0.1-1.2,0.9-2.7,1.1c-1.5,0.2-3,0-3,0s-0.4-0.1-0.9-0.4
											c-0.6-0.2-1.2-0.7-1.8-1.1c-1.2-1-1.8-2.4-1.6-2.5C288,297.6,288.8,298.8,290,299.5z"/>
									</g>
								</g>
							</g>
						</g>
					</g>
				</g>
			</g>
		</g>
		<path class="st36" d="M318.1,203.6c4.7,6.5,7.1,14.7,6.3,23.3l-2.1,29c-1.6,15.3-14.2,29.3-28.6,32.1c7.8-3.4,12.1-10,15.3-17.2
			c5.2-11.6,1.5-29.4-1.4-36.7c-8.7-22.2,1.2-34.2-4.8-40.9c-0.9-1-9.7,1.4-15.7,8.6c-9.2,11-11.1,23.7-21.5,32.4
			c-10.8,9-16.5,5.8-16.5,5.8c2.1-5.3,15-39.1,19.2-42.7c14-11.6,27-9.7,36-10.1C308.1,187.1,313.5,200.9,318.1,203.6z"/>
		<g>
			
				<linearGradient id="SVGID_12_" gradientUnits="userSpaceOnUse" x1="89.9202" y1="61.5358" x2="104.5437" y2="61.5358" gradientTransform="matrix(0.9999 -1.499017e-02 1.499017e-02 0.9999 177.7989 199.5216)">
				<stop  offset="0.1559" style="stop-color:#FA0034"/>
				<stop  offset="1" style="stop-color:#FA0034"/>
			</linearGradient>
			<path class="st37" d="M269,255.9c0,0,2.3,2,6.8,2.3c4.5,0.3,6.4-2.6,6.4-2.6s1.7,1.7,0.7,3.2c-1,1.5-5.1,4.3-6.2,4.5
				C275.5,263.6,266.5,260,269,255.9z"/>
			
				<ellipse transform="matrix(0.9999 -1.362887e-02 1.362887e-02 0.9999 -3.4712 3.7946)" class="st38" cx="276.7" cy="256.6" rx="2.2" ry="1"/>
			<g>
				<path class="st39" d="M273.1,258.4c0,0-0.6-0.3-1.1-0.2c-0.6,0-1.1,0.3-1,0.5c0,0.2,0.5,0.3,0.9,0.5c0.4,0.2,0.7,0.5,0.7,0.5
					s0.4,0.1,0.7,0.4c0.4,0.2,0.7,0.7,0.8,0.6c0.2-0.1,0.1-0.7-0.2-1.3C273.6,258.8,273.1,258.4,273.1,258.4z"/>
				<path class="st39" d="M281.7,258c0-0.2-0.5-0.3-1-0.2c-0.5,0.1-0.9,0.3-0.9,0.3s-0.4,0.4-0.6,0.9c-0.3,0.5-0.4,1-0.2,1.1
					c0.1,0.1,0.5-0.2,0.8-0.4c0.3-0.2,0.7-0.4,0.7-0.4s0.3-0.3,0.6-0.6C281.4,258.4,281.8,258.2,281.7,258z"/>
				<path class="st39" d="M271.2,259.1c-0.4-0.4-0.7-0.7-1-1c-0.2-0.2-0.3-0.4-0.3-0.4c0,0-0.1-0.1-0.2-0.3c-0.1-0.2-0.1-0.6,0.1-1
					c0.3-0.8,1.2-1.5,1.1-1.6c0-0.1-0.3,0-0.6,0.1c-0.3,0.2-0.8,0.4-1.2,1c-0.4,0.5-0.6,1.2-0.5,1.8c0.1,0.6,0.4,0.9,0.3,0.9
					c0,0,0.2,0.3,0.6,0.5c0.3,0.2,0.7,0.5,1.2,0.7c0.8,0.5,1.7,1,1.8,0.8C272.6,260.6,271.9,259.9,271.2,259.1z"/>
				<path class="st39" d="M283.6,257.6c0,0,0-0.1-0.2-0.6c-0.1-0.3-0.2-0.4-0.3-0.6c-0.1-0.2-0.2-0.4-0.4-0.6
					c-0.5-0.7-1.2-1.3-1.3-1.2c-0.1,0.1,0.3,0.9,0.6,1.7c0.1,0.2,0.1,0.4,0.2,0.6c0.1,0.2,0.1,0.4,0.1,0.4c0,0.3,0,0.5,0,0.5
					c0,0,0,0.1,0,0.2c0,0.1-0.1,0.4-0.4,0.7c-0.6,0.5-1.2,1.2-1.1,1.4c0.1,0.1,0.8-0.1,1.6-0.5c0.4-0.2,0.8-0.6,1-1.1
					C283.7,257.9,283.6,257.6,283.6,257.6z"/>
				<path class="st39" d="M280.2,255.2c0.1-0.2-0.9-0.7-1.9-1c-1-0.3-2-0.3-2-0.3s-1,0.1-2,0.4c-1,0.3-1.9,0.9-1.8,1.1
					c0.1,0.2,1,0,2-0.1c1-0.1,1.9,0,1.9,0s0.9-0.1,1.9-0.1C279.2,255.2,280.2,255.4,280.2,255.2z"/>
			</g>
		</g>
		<g>
			
				<radialGradient id="SVGID_13_" cx="57.2027" cy="58.6442" r="8.5482" gradientTransform="matrix(0.9718 -1.326909e-02 1.369031e-02 0.9999 197.7 198.658)" gradientUnits="userSpaceOnUse">
				<stop  offset="0" style="stop-color:#FA0034"/>
				<stop  offset="0.8441" style="stop-color:#FA0034;stop-opacity:0"/>
			</radialGradient>
			<path class="st40" d="M247.4,249.7c0,0-5.9,1.6-1.1,8.9c3.9,5.8,6.5,5,8.4,4.8c3.6-0.3,9-3.1,9-8
				C263.6,250.5,254.8,249.6,247.4,249.7z"/>
			
				<radialGradient id="SVGID_14_" cx="172.3549" cy="-36.8106" r="8.5481" gradientTransform="matrix(0.89 -0.4011 0.3906 0.916 166.9053 357.5348)" gradientUnits="userSpaceOnUse">
				<stop  offset="0" style="stop-color:#FA0034"/>
				<stop  offset="0.8441" style="stop-color:#FA0034;stop-opacity:0"/>
			</radialGradient>
			<path class="st41" d="M297.2,251.1c0,0-4.8,3.8,2.4,8.6c5.8,3.8,7.8,2,9.6,1.1c3.2-1.7,7.2-6.4,5.2-10.9
				C312.4,245.3,303.9,248,297.2,251.1z"/>
			
				<radialGradient id="SVGID_15_" cx="106.9117" cy="-3.0772" r="11.397" gradientTransform="matrix(0.9674 -9.631179e-02 9.443177e-02 0.9954 176.3672 237.72)" gradientUnits="userSpaceOnUse">
				<stop  offset="0" style="stop-color:#F5D0A2"/>
				<stop  offset="0.8441" style="stop-color:#F5D0A2;stop-opacity:0"/>
			</radialGradient>
			<path class="st42" d="M269.9,216c0,0-7.7,2.8-0.5,11.9c5.8,7.3,9.1,5.9,11.7,5.4c4.7-0.8,11.7-5.1,11-11.6
				C291.5,215.2,279.7,215.1,269.9,216z"/>
			<path class="st38" d="M248.8,251.6c-0.2,0.5-1,0.6-1.8,0.3c-0.8-0.3-1.3-1-1.1-1.4c0.2-0.5,1-0.6,1.8-0.3
				C248.5,250.4,249,251.1,248.8,251.6z"/>
			<path class="st38" d="M313.9,249.5c0.2,0.5-0.3,1.1-1.1,1.4c-0.8,0.3-1.6,0.2-1.8-0.3c-0.2-0.5,0.3-1.1,1.1-1.4
				C313,248.9,313.8,249.1,313.9,249.5z"/>
			<g>
				<g>
					<path class="st39" d="M297.1,234.7c0,0.1-0.9,0.5-1.7,1.1c-0.8,0.6-1.5,1.4-1.5,1.4s-0.7,0.7-1.3,1.5c-0.6,0.8-1,1.8-1.1,1.8
						c-0.1,0,0.2-1,0.7-2c0.5-0.9,1.2-1.7,1.2-1.7s0.8-0.8,1.7-1.3C296,234.9,297,234.6,297.1,234.7z"/>
				</g>
				<g>
					<path class="st39" d="M295.5,233.8c0,0.1-0.8,0.5-1.4,1.2c-0.7,0.6-1.2,1.4-1.2,1.4s-0.6,0.7-1,1.5c-0.4,0.8-0.7,1.7-0.8,1.7
						c-0.1,0,0-1,0.4-1.9c0.4-0.9,0.9-1.7,0.9-1.7s0.6-0.8,1.4-1.3C294.6,234.1,295.5,233.7,295.5,233.8z"/>
				</g>
				<g>
					<path class="st39" d="M268.1,242.2c-0.1,0-0.4-1.1-0.9-2.1c-0.5-1-1.1-1.9-1.1-1.9s-0.6-1-1.3-1.8c-0.7-0.9-1.6-1.6-1.5-1.7
						c0-0.1,1,0.6,1.8,1.4c0.8,0.8,1.5,1.8,1.5,1.8s0.6,1,1,2.1C268,241.1,268.2,242.2,268.1,242.2z"/>
				</g>
				<g>
					<path class="st39" d="M267.6,238.3c-0.1,0-0.3-0.4-0.7-0.9c-0.3-0.4-0.6-0.9-0.6-0.9s-0.3-0.5-0.6-0.9
						c-0.3-0.4-0.7-0.9-0.6-0.9c0.1-0.1,0.5,0.3,0.9,0.7c0.4,0.4,0.8,0.8,0.8,0.8s0.3,0.5,0.5,1
						C267.6,237.7,267.7,238.3,267.6,238.3z"/>
				</g>
			</g>
			<g>
				<path class="st43" d="M265.8,222.2c-0.1,0.1-0.6-0.1-1.4-0.3c-0.8-0.3-1.8-0.5-2.8-0.6c-1-0.1-2,0-2.7,0.2
					c-0.7,0.2-1.2,0.4-1.2,0.4s-0.5,0.1-1.2,0.3c-0.7,0.2-1.7,0.7-2.6,1.2c-1.9,1-3.6,2.4-3.9,2.1c-0.2-0.2,1.2-2,2.9-3.5
					c0.9-0.7,1.9-1.4,2.7-1.8c0.8-0.4,1.4-0.6,1.4-0.6s0.6-0.2,1.5-0.2c0.9-0.1,2.2,0,3.3,0.3c1.2,0.3,2.2,0.9,2.9,1.4
					C265.6,221.6,265.9,222.1,265.8,222.2z"/>
			</g>
			<g>
				<path class="st43" d="M292.4,221.8c0.1,0.1,0.6-0.1,1.4-0.4c0.7-0.3,1.7-0.6,2.8-0.7c1-0.1,2,0,2.7,0.1c0.7,0.2,1.2,0.3,1.2,0.3
					s0.5,0.1,1.2,0.3c0.7,0.2,1.7,0.6,2.6,1.1c1.9,1,3.7,2.2,3.9,2c0.2-0.2-1.2-2-3-3.4c-0.9-0.7-1.9-1.3-2.7-1.7
					c-0.8-0.4-1.4-0.6-1.4-0.6s-0.6-0.1-1.5-0.2c-0.9-0.1-2.2,0-3.3,0.4c-1.2,0.3-2.2,0.9-2.9,1.5
					C292.7,221.2,292.4,221.7,292.4,221.8z"/>
			</g>
			
				<linearGradient id="SVGID_16_" gradientUnits="userSpaceOnUse" x1="113.39" y1="43.4408" x2="131.457" y2="43.4408" gradientTransform="matrix(0.9999 -1.499017e-02 1.499017e-02 0.9999 177.7989 199.5216)">
				<stop  offset="0.1559" style="stop-color:#FA0034"/>
				<stop  offset="1" style="stop-color:#FA0034"/>
			</linearGradient>
			<path class="st44" d="M291.9,246.5c0,0,1.5-9.4,7.7-10.5c6.1-1.2,10.4,7.5,10.4,7.5S298.8,235.4,291.9,246.5z"/>
			
				<linearGradient id="SVGID_17_" gradientUnits="userSpaceOnUse" x1="1299.7316" y1="42.5209" x2="1317.7985" y2="42.5209" gradientTransform="matrix(-0.9999 1.499017e-02 1.499017e-02 0.9999 1567.2833 178.6906)">
				<stop  offset="0.1559" style="stop-color:#FA0034"/>
				<stop  offset="1" style="stop-color:#FA0034"/>
			</linearGradient>
			<path class="st45" d="M268.4,245.9c0,0-1.8-9.3-8-10.3c-6.1-1-10.1,7.8-10.1,7.8S261.2,235,268.4,245.9z"/>
			<g>
				<path class="st43" d="M292.2,248.4c0.8-0.1,0.9-0.3,1.5-0.7c0.8-0.6,1.2-1.9,1.9-2.6c0.7-0.8,1.6-1.5,2.5-2
					c4.2-2.3,7.4,0.1,10.3,2.9c1.4,1.3,3,0.2,2.3-1.8c-1.9-5.2-7.8-6.9-12.6-4.9c-2.6,1.1-4.9,3.1-6.2,5.6
					C291.8,245.4,290.6,248.6,292.2,248.4L292.2,248.4z"/>
			</g>
			<g>
				<path class="st43" d="M267.8,248.8c-0.8-0.1-0.9-0.2-1.5-0.6c-0.8-0.6-1.3-1.8-2-2.5c-0.7-0.7-1.6-1.4-2.5-1.9
					c-4.3-2.2-7.4,0.3-10.3,3.2c-1.3,1.4-3,0.3-2.4-1.7c1.7-5.3,7.6-7.1,12.4-5.2c2.6,1,5,2.9,6.3,5.4
					C268.1,245.7,269.5,249,267.8,248.8L267.8,248.8z"/>
			</g>
			<g>
				<g>
					<path class="st43" d="M257,240.2c-0.7,0.6-1.8,0.2-2.5-0.2c-1-0.6-1.4-1.7-1.5-2.8c0-1.5,2.3-1.8,2.7-0.3
						c0.1,0.5,0.4,1,0.6,1.5c0.2,0.5,0.7,0.8,0.8,1.3C257.2,239.8,257.2,240,257,240.2L257,240.2z"/>
				</g>
				<g>
					<path class="st43" d="M253.5,241.9c-0.5,0.8-1.7,0.6-2.5,0.3c-1.1-0.4-1.8-1.4-2-2.5c-0.3-1.5,1.9-2.2,2.5-0.8
						c0.2,0.5,0.6,0.9,0.9,1.3c0.3,0.4,0.8,0.6,1.1,1.1C253.6,241.6,253.6,241.8,253.5,241.9L253.5,241.9z"/>
				</g>
				<g>
					<path class="st43" d="M250.2,244.7c-0.4,0.7-1.3,0.6-2,0.4c-0.9-0.2-1.5-1-1.8-1.8c-0.4-1.2,1.3-1.9,2-0.9
						c0.2,0.4,0.6,0.7,0.8,1c0.3,0.3,0.7,0.4,0.9,0.8C250.3,244.4,250.3,244.6,250.2,244.7L250.2,244.7z"/>
				</g>
			</g>
			<g>
				<g>
					<path class="st43" d="M302.9,239.1c0.7,0.6,1.8,0.2,2.5-0.3c1-0.6,1.4-1.7,1.4-2.9c0-1.5-2.3-1.7-2.7-0.2
						c-0.1,0.5-0.4,1-0.6,1.5c-0.2,0.5-0.6,0.8-0.8,1.3C302.7,238.8,302.8,239,302.9,239.1L302.9,239.1z"/>
				</g>
				<g>
					<path class="st43" d="M306.6,240.8c0.6,0.8,1.7,0.5,2.5,0.2c1.1-0.4,1.7-1.4,1.9-2.5c0.3-1.5-1.9-2.2-2.6-0.8
						c-0.2,0.5-0.6,0.9-0.9,1.4c-0.3,0.5-0.8,0.7-1,1.2C306.4,240.4,306.5,240.6,306.6,240.8L306.6,240.8z"/>
				</g>
				<g>
					<path class="st43" d="M309.9,243.4c0.4,0.7,1.3,0.5,2,0.4c0.9-0.2,1.5-1,1.7-1.9c0.3-1.2-1.4-1.9-2-0.8c-0.2,0.4-0.5,0.7-0.8,1
						c-0.3,0.3-0.7,0.5-0.9,0.9C309.8,243.1,309.9,243.3,309.9,243.4L309.9,243.4z"/>
				</g>
			</g>
		</g>
		<g>
			
				<ellipse transform="matrix(0.9955 -9.491518e-02 9.491518e-02 0.9955 -25.497 28.1037)" class="st38" cx="282.7" cy="282.1" rx="1.4" ry="0.9"/>
			<path class="st46" d="M265.2,268.3c0,0,7.3-5.6,14-1.4c0,0,5.6-4.3,14.2-0.5c0,0,0,11-12.4,12.5
				C268.6,280.5,265.2,268.3,265.2,268.3z"/>
			<path class="st30" d="M281.9,277.6c7.1-2,9.7-6.8,9.7-6.8l-2.3-2c0,0,1.6-1.5,1.7-3.2c-7.3-2.2-11.9,1.3-11.9,1.3
				c-1.7-1.1-3.5-1.5-5.1-1.6c-2.5,0.4-4.6,0.9-5.9,1.3c-0.5,0.2-0.9,0.4-1.3,0.6l3.3,3.5l-1.6,2.8
				C268.6,273.6,274.9,279.7,281.9,277.6z"/>
			<g>
				<path class="st47" d="M279.7,269.7c5.6-0.6,10.4-2.7,12-3.8c-7.2-2.7-12.6,1.1-12.6,1.1c-4.7-3-9.7-1.1-12.3,0.3
					C267.8,267.7,272.4,270.4,279.7,269.7z"/>
			</g>
			<g class="st48">
				<path class="st46" d="M279.7,269.7c5.6-0.6,10.4-2.7,12-3.8c-7.2-2.7-12.6,1.1-12.6,1.1c-4.7-3-9.7-1.1-12.3,0.3
					C267.8,267.7,272.4,270.4,279.7,269.7z"/>
			</g>
			<path class="st47" d="M293.3,266.5c-0.1,0-0.1,0-0.2-0.1c-1.6,2.5-5,8.5-13.2,8.9c-10.1,0.5-14.3-6.8-14.3-6.8s-0.1,0.1-0.3,0.3
				c0.8,2.2,4.8,11.5,15.6,10.2C293.3,277.4,293.3,266.5,293.3,266.5z"/>
			<path class="st49" d="M288.8,265.1c-1.1,1.2-3.4,2.9-8.6,3.1c-5.9,0.3-8.3-1.3-9.3-2.4c-1.6,0.4-3,1-4,1.5
				c0.9,0.4,5.5,3.2,12.9,2.4c5.6-0.6,10.4-2.7,12-3.8C290.7,265.5,289.7,265.2,288.8,265.1z"/>
			
				<ellipse transform="matrix(0.9875 -0.1578 0.1578 0.9875 -40.0632 48.3064)" class="st50" cx="284.2" cy="276.5" rx="1.2" ry="0.8"/>
			<g class="st33">
				<path class="st51" d="M290,268.8c0,0-0.1,0.1-0.4,0.3c-0.2,0.2-0.6,0.4-1,0.6c-0.8,0.5-2,1.1-3.3,1.5c-1.2,0.4-2.5,0.8-3.5,1
					c-0.5,0.1-0.9,0.1-1.2,0.2c-0.3,0-0.4,0.1-0.4,0.1s-0.2,0-0.5,0c-0.3,0-0.7,0.1-1.2,0.1c-1,0-2.3,0-3.6-0.2
					c-1.3-0.2-2.6-0.5-3.5-0.8c-0.5-0.1-0.8-0.3-1.1-0.4c-0.3-0.1-0.4-0.2-0.4-0.2c0,0,0.6,0.2,1.6,0.4c0.9,0.3,2.2,0.5,3.5,0.6
					c1.3,0.1,2.6,0.1,3.5,0.1c0.5,0,0.9-0.1,1.2-0.1c0.3,0,0.4,0,0.4,0s0.2,0,0.4-0.1c0.3,0,0.7-0.1,1.2-0.2c1-0.1,2.2-0.4,3.4-0.8
					c1.2-0.4,2.4-0.9,3.3-1.4C289.4,269.1,289.9,268.7,290,268.8z"/>
			</g>
			<g>
				<path class="st39" d="M296.4,266.4c0.1,0.1-0.5,0.5-1.2,0.5c-0.3,0-0.7,0-0.9-0.1c-0.2-0.1-0.4-0.2-0.4-0.2s-0.2-0.1-0.3-0.3
					c-0.2-0.2-0.4-0.5-0.5-0.8c-0.3-0.6-0.1-1.3,0-1.3c0.1,0,0.1,0.6,0.4,1.1c0.1,0.2,0.3,0.5,0.5,0.6c0.2,0.1,0.3,0.2,0.3,0.2
					s0.1,0.1,0.3,0.2c0.2,0.1,0.5,0.2,0.7,0.2C295.8,266.6,296.3,266.3,296.4,266.4z"/>
			</g>
			<g>
				<path class="st39" d="M265.3,266.1c0.1,0,0.2,0.5,0.1,1.1c-0.1,0.6-0.4,1-0.4,1s-0.3,0.5-0.8,0.8c-0.5,0.3-1,0.4-1,0.3
					c0-0.1,0.5-0.3,0.8-0.6c0.4-0.3,0.6-0.8,0.6-0.8s0.3-0.4,0.5-0.8C265.2,266.6,265.3,266.1,265.3,266.1z"/>
			</g>
			<g>
				<path class="st49" d="M293.3,266.5c-0.1,0-0.1,0-0.2-0.1c-0.9,1.5-2.4,4.1-5.2,6.1c1.3,0.4,2.2,1,2.1,2.1
					C293.3,270.9,293.3,266.5,293.3,266.5z"/>
				<path class="st49" d="M270.2,273.6c0.2,0,0.4-0.1,0.7-0.2c-3.7-2-5.4-4.9-5.4-4.9s-0.1,0.1-0.3,0.3c0.5,1.3,1.9,4.9,5.2,7.4
					C269.7,275.1,269.1,273.9,270.2,273.6z"/>
			</g>
		</g>
		<g>
			<g>
				
					<linearGradient id="SVGID_18_" gradientUnits="userSpaceOnUse" x1="7499.1719" y1="375.0649" x2="7584.3135" y2="375.0649" gradientTransform="matrix(-1 0 0 1 7725.7017 0)">
					<stop  offset="0" style="stop-color:#3D3C1F"/>
					<stop  offset="1" style="stop-color:#C0C293"/>
				</linearGradient>
				<path class="st52" d="M226.5,265.8c-26.7,60-42.2,167.1-31.5,218.5c0,0-57.5-35.5-53.5-163.5c17,0.4,29.1-17.2,34-38.4
					C175.5,282.4,206.5,275.2,226.5,265.8z"/>
				
					<linearGradient id="SVGID_19_" gradientUnits="userSpaceOnUse" x1="7484.3452" y1="484.3052" x2="7484.3452" y2="265.8248" gradientTransform="matrix(-1 0 0 1 7725.7017 0)">
					<stop  offset="0" style="stop-color:#3D3C1F"/>
					<stop  offset="1" style="stop-color:#C0C293"/>
				</linearGradient>
				<path class="st53" d="M226.5,265.8c-32.3,41.4-50.6,129.2-31.5,218.5c0,0,67.1,0.8,100.4-129.1c-24.9-7.5-29-35-26.8-54.9
					C268.6,300.3,238.4,279,226.5,265.8z"/>
			</g>
			<path class="st54" d="M192.2,474.9c0,0,60,7,90.7-112.8c-23-7-26.2-36.3-24.2-54.7c0,0-28.1-19.5-39-31.6
				c-19,9.7-42.1,15.3-42.1,15.3c-4.5,19.5-15.7,35.8-31.3,35.4C142.5,444.6,192.2,474.9,192.2,474.9z M153,331.4
				c14.1,0.3,24.1-14.3,28.2-31.9c0,0,17-7.5,34-16.2c9.8,10.9,35.1,28.3,35.1,28.3c-1.8,16.5,2.9,46.7,23.6,53
				c-30.2,105.1-84.3,99.3-84.3,99.3S149.7,437.6,153,331.4z"/>
			
				<linearGradient id="SVGID_20_" gradientUnits="userSpaceOnUse" x1="7531.2002" y1="229.174" x2="7531.2002" y2="151.011" gradientTransform="matrix(-0.9997 2.550000e-02 2.550000e-02 0.9997 7718.7944 -7.0161)">
				<stop  offset="0" style="stop-color:#C0C293"/>
				<stop  offset="0.2943" style="stop-color:#D8DABD"/>
				<stop  offset="0.5963" style="stop-color:#EDEEE1"/>
				<stop  offset="0.8424" style="stop-color:#FAFAF7"/>
				<stop  offset="1" style="stop-color:#FFFFFF"/>
			</linearGradient>
			<path class="st55" d="M161.3,378.9c0.1-5.6,0.9-13.2,1.7-18.1c7.5-0.8,11-0.3,18,0c2-11.7,3.4-16.4,5.9-24.7l20.3,3.4
				c-2.5,8-4.5,15.8-5.9,23.9c9.8,2,17.6,3.4,26.9,7.2l-4.7,19.1c-9-3.3-18.3-5.5-24.7-7c-1.2,9.2-1.6,19.8-1.2,31.3
				c-6.3-0.3-13.3-0.5-18.7-1.8c-1.5-9.6-1.3-22.3,0.1-32.7C172,378.9,168.7,378.8,161.3,378.9z"/>
			
				<linearGradient id="SVGID_21_" gradientUnits="userSpaceOnUse" x1="7483.9214" y1="484.3052" x2="7483.9214" y2="265.8243" gradientTransform="matrix(-1 0 0 1 7725.7017 0)">
				<stop  offset="0" style="stop-color:#7D7D58"/>
				<stop  offset="1" style="stop-color:#C0C293"/>
			</linearGradient>
			<path class="st56" d="M245.9,403.1c9.9-9.3,19.1-19.9,26.6-31.2c4.7-7,8.7-14.6,11.3-22.6c3.2,2.5,7.1,4.6,11.6,5.9
				c-33.3,129.9-100.4,129.1-100.4,129.1c-3.6-16.6-5.8-33.2-7-49.4C209.7,429.7,229.4,418.5,245.9,403.1z"/>
			
				<linearGradient id="SVGID_22_" gradientUnits="userSpaceOnUse" x1="7543.4966" y1="380.8092" x2="7569.0288" y2="380.8092" gradientTransform="matrix(-1 0 0 1 7725.7017 0)">
				<stop  offset="0" style="stop-color:#C0C293;stop-opacity:0"/>
				<stop  offset="1" style="stop-color:#FFFFFF"/>
			</linearGradient>
			<path class="st57" d="M182.2,316.2c-12.4,33.3-19,57.3-3.3,129.3c0,0-25-53.5-21.9-109.2C156.9,336.3,167.5,338.1,182.2,316.2z"
				/>
		</g>
		<g>
			<g class="st58">
				<g>
					<polygon class="st28" points="225.6,316.6 302.9,400.4 298.9,405.1 294.8,409.8 200.6,345.6 192.1,313 					"/>
					<polygon class="st28" points="308.2,400.5 301.9,407.7 304.5,404.7 324,421.6 318.8,427.6 299.3,410.8 295.6,415 292.6,412.4 
						305.1,397.9 					"/>
				</g>
			</g>
			<g>
				
					<linearGradient id="SVGID_23_" gradientUnits="userSpaceOnUse" x1="7428.1123" y1="-127.0063" x2="7428.1123" y2="-227.0222" gradientTransform="matrix(-0.9972 7.430000e-02 7.430000e-02 0.9972 7657.0869 -18.9522)">
					<stop  offset="0" style="stop-color:#C0C293"/>
					<stop  offset="1" style="stop-color:#EBF4F4"/>
				</linearGradient>
				<polygon class="st59" points="178,310.7 290.8,402.5 294.9,397.6 212.7,313.4 				"/>
				
					<linearGradient id="SVGID_24_" gradientUnits="userSpaceOnUse" x1="7427.3726" y1="-180.7872" x2="7441.2974" y2="-162.9215" gradientTransform="matrix(-0.9972 7.430000e-02 7.430000e-02 0.9972 7657.0869 -18.9522)">
					<stop  offset="0" style="stop-color:#C0C293"/>
					<stop  offset="1" style="stop-color:#EBF4F4"/>
				</linearGradient>
				<polygon class="st60" points="178,310.7 290.8,402.5 286.8,407.5 187.8,344 				"/>
				
					<linearGradient id="SVGID_25_" gradientUnits="userSpaceOnUse" x1="7367.7158" y1="-125.5968" x2="7384.2676" y2="-125.5968" gradientTransform="matrix(-0.9972 7.430000e-02 7.430000e-02 0.9972 7657.0869 -18.9522)">
					<stop  offset="0" style="stop-color:#7D7D58"/>
					<stop  offset="1" style="stop-color:#C0C293"/>
				</linearGradient>
				<polygon class="st61" points="287.8,412.8 300.2,397.5 297.1,394.9 284.6,410.2 				"/>
				
					<linearGradient id="SVGID_26_" gradientUnits="userSpaceOnUse" x1="7352.3813" y1="-115.0549" x2="7377.3276" y2="-115.0549" gradientTransform="matrix(-0.9972 7.430000e-02 7.430000e-02 0.9972 7657.0869 -18.9522)">
					<stop  offset="0" style="stop-color:#7D7D58"/>
					<stop  offset="1" style="stop-color:#C0C293"/>
				</linearGradient>
				<polygon class="st62" points="312,425.1 317.2,418.7 296.6,401.9 291.4,408.3 				"/>
			</g>
		</g>
		<g>
			<g>
				<path class="st27" d="M305.6,438.7c-2.8-0.3-0.3-6.7,1.7-10.9c-2,3.7-5.5,8.8-8.5,7.1c-4.5-2.5-0.4-26.2,9.8-27.1
					c0,0-4.2-2.5-0.8-5.5c3.4-3,6.4,5.5,8.7,5.5c0.3,0,0.6,0,1,0c4.3,5.7,9,11.9,12.9,17c-1.6,0.9-3.5,1.6-5.6,1.6
					c-5.7,0-9.1,0-9.1,0S309.7,439.1,305.6,438.7z"/>
				<g>
					<path class="st63" d="M334.7,419.5c0,0-4.2,4.6-9.9,4.6s-9.2,0-9.2,0s-6.1,11.5-10.3,11.1c-4.2-0.4,3.4-13,3.4-13
						s-5.7,11.8-10.3,9.6c-4.6-2.3-0.4-23.7,9.9-24.4c0,0-4.2-2.3-0.8-5c3.4-2.7,6.5,5,8.8,5s11.2,0.5,11.2,0.5
						S335.1,411.8,334.7,419.5z"/>
					<path class="st64" d="M318.4,407.3c3.5,0.1,9.2,0.5,9.2,0.5s7.5,4.1,7.1,11.7c0,0-4.2,4.6-9.9,4.6s-9.2,0-9.2,0
						s-6.1,11.5-10.3,11.1c-2.6-0.2-0.7-5.1,1.2-8.8C314.6,423.4,318.6,415.3,318.4,407.3z"/>
					<path class="st20" d="M299.4,427.5c2.5,0,4.8-0.4,6.8-1.1c-2.1,3.1-5.2,6.6-7.9,5.3c-1.1-0.6-1.7-2.2-1.8-4.4
						C297.5,427.4,298.5,427.5,299.4,427.5z"/>
				</g>
			</g>
			<g>
				<g>
					<path class="st15" d="M341.7,302.7c0,0,6.2,14.3,9.1,20c2.9,5.8,43.7,50.9,40.8,58.1c-2.9,7.2-32.2,41.3-57.6,44.2
						c0,0-2.9-14.4-12-19.7c0,0,27.4-16.8,39.4-27.4c0,0-36-25.4-40.3-33.6C316.7,336.1,317.7,310.9,341.7,302.7z"/>
					<path class="st16" d="M358.2,403.9c7-4.9,10.2-13.6,5.6-21.4c-0.8-1.4-2-2.7-3.3-3.9c0.3-0.2,0.6-0.5,0.8-0.7
						c0,0-36-25.4-40.3-33.6c-4.2-7.9-3.4-31.7,18.4-40.8c-20,24.6,11.2,75.9,44.1,73.7c2.4-0.2,4.8-0.8,6.9-1.8
						c1.2,2.4,1.7,4.3,1.3,5.3c-2.9,7.2-32.2,41.3-57.6,44.2c0,0-1-4.8-3.6-9.9C340.3,413.4,349.7,409.9,358.2,403.9z"/>
				</g>
				<g>
					<g>
						<path class="st28" d="M327.7,311.8c-0.1-0.1-0.9,1-2.2,2.7c-0.6,0.9-1.3,1.9-2,3c-0.6,1.1-1.4,2.3-2,3.6
							c-0.3,0.6-0.6,1.3-0.9,1.9c-0.2,0.7-0.5,1.3-0.7,1.9c-0.4,1.3-0.6,2.5-0.9,3.5c-0.1,1-0.2,1.9-0.3,2.5c-0.1,0.6-0.1,1-0.1,1
							s0,0.4,0,1c0,0.6,0,1.5,0.1,2.5c0.1,2.1,0.7,4.9,1.8,7.5c1.1,2.6,2.7,4.9,4,6.6c1.3,1.6,2.2,2.7,2.3,2.6
							c0.1-0.1-0.7-1.2-1.9-2.9c-1.2-1.7-2.6-4.1-3.5-6.6c-1-2.5-1.4-5.2-1.5-7.2c-0.1-1,0-1.9,0-2.4c0-0.6,0-0.9,0-0.9s0-0.3,0-0.9
							c0.1-0.6,0.1-1.4,0.2-2.4c0.3-2,0.9-4.7,2-7.2C324.5,316.4,327.9,312,327.7,311.8z"/>
					</g>
					<g>
						<path class="st28" d="M360.8,377.5c0,0,0.4,0.6,1.3,1.1c0.9,0.5,2.1,1.1,3.3,1.5c2.5,0.9,5.1,1.4,5.1,1.4s0.7,0.1,1.6,0.2
							c1,0.1,2.3,0.2,3.6,0.1c1.3,0,2.7-0.2,3.6-0.4c1-0.2,1.6-0.6,1.5-0.7c-0.1-0.1-0.7,0.1-1.6,0.2c-1,0.1-2.2,0.1-3.5,0
							c-1.3-0.1-2.6-0.3-3.5-0.4c-0.9-0.2-1.6-0.3-1.6-0.3s-2.6-0.3-5.1-1c-1.3-0.3-2.5-0.7-3.4-1.1
							C361.4,377.8,360.8,377.4,360.8,377.5z"/>
					</g>
				</g>
			</g>
		</g>
		<g>
			<path class="st9" d="M342.6,232c-1.5,7.5-25.1,33.1-25.1,33.1s2.9-13.8-6.4-32.3c-9.9-19.8,3.5-30-3.3-39.8l-0.1-0.2
				c-0.2-0.2-2.3-3.5-2.5-3.7c0,0-9.3-3-16.5-1c-0.1,0-0.1,0-0.2,0c-2.4,0.7-5.6,2-8.9,4.3c-0.3,0.2-0.7,0.4-1,0.7
				c-6.3,4.6-13.3,12.4-17.5,25.1c-6.8,20.2-18.3,30.5-18.3,30.5s-6.2-10.6-5.3-26.5c0.2-4.3,1-9,2.5-14
				c4.3-13.8,29.2-25.8,42.7-30.3c13.5-4.5,22.1-5.8,24-4.9c1.7,0.8,2.7,5.9,2.9,7.3c0,0.2,0,0.3,0,0.3s0.4,0.2,1.2,0.5
				c4.8,2,22.8,10.2,29,22.5c0.8,1.6,1.5,3.3,2,5.2c0,0,0,0,0,0.1l0,0.1l0.8,3.1C344,218.7,343.8,226,342.6,232z"/>
			<path class="st9" d="M307.2,188.1c0,0-11.9-7.2-24,0c-10,5.9-7.8,47.4-35,45.4c-2.3,2.7,2.8,4.2,0,5.4c0,0,12.8-2.8,18.9-11.7
				c6.1-8.9,12.1-27.1,20.9-35.1c7.2-6.5,19.6-3.3,19.6-3.3L307.2,188.1z"/>
			<path class="st65" d="M309.7,181.6c0,0,17.3,3.9,28,14.6c10.8,10.7,4.3,29.6,4.3,29.6l-0.2,1.3c0,0,7.8-18.9-3-31.3
				c-10.7-12.4-29.4-15.5-29.4-15.5L309.7,181.6z"/>
			<polygon class="st9" points="244.8,239 243.5,251.7 241.7,243.2 			"/>
			<path class="st66" d="M342.6,233c-1.5,7.5-25.1,32.1-25.1,32.1s3.9-20.8-1.4-28.3c-10.9-15.5-1.5-38-8.3-47.8l-0.1-0.2
				c-0.2-0.2-0.3-0.5-0.5-0.7c0,0-11.3-2-18.5,0c5.2-7.3,9.7-12.7,14.2-13.6c5.9-1.1,6.6,5.8,6.6,5.8l0.2,0l1.7,0.3
				c0,0-0.2,0.2-0.4,0.5c-0.6,0.8-1.6,2.6-1.4,3.8c0.3,1.6,9.8,17.5,19.3,25.1c9.5,7.6,13.2,8,13.2,8c0.8-4.4,0.2-8.1,0-8.9l0.8,3.1
				C344,218.7,343.8,227,342.6,233z"/>
			<path class="st66" d="M289.8,184.2c-6.6,2.5-10.1,8.2-10.1,8.2v-1.2l-1,1.9c-6.3,4.6-13.3,12.4-17.5,25.1
				c-6.8,20.2-18.3,30.5-18.3,30.5s-6.2-10.6-5.3-26.5c0.1,1.7,0.7,10.9,2.9,9.2c2.4-1.8,5.4-8.3,8.4-18.5
				c2.9-9.8,15.3-18.6,16.1-19.1c-0.7,0.6-11.9,10.7-14,24c-2.2,13.7-4.6,22.4-4.6,22.4c5.9-10.5,8.4-27,20.2-40.8
				C278.3,185.7,289.8,184.2,289.8,184.2z"/>
			<path class="st43" d="M316.1,195.9c0,0,6.5,8.4,8.6,10.4c0,0-1-2,0.4-3.4c1.4-1.4,6.7-0.8,8.9-1.8c2.2-1,2.7-2.4,2.7-2.4
				s-3.2-3.6-5.1-5.2c0,0,1,2.1,0.3,3.9c-0.7,1.7-7.5,0.5-9.4,1C320.6,198.8,316.1,195.9,316.1,195.9z"/>
			<path class="st43" d="M274.6,206.3c0,0,2.7-9,3.8-11.5c0,0,4.4-0.1,5.3-0.6c0,0-5.3,7.9-6.9,12H274.6z"/>
			<path class="st43" d="M249.1,195.9c0,0,5.2-0.4,8.4,1l8.3-5.2c0,0-2.5,0.1-4.7,0c-2.2-0.1-3.2-2.1-3.2-2.1
				S251.8,193.5,249.1,195.9z"/>
			<path class="st43" d="M260.6,198.3l4.1,0.8l6.4-5.6l-4.3-0.6C266.8,192.9,262.6,195.8,260.6,198.3z"/>
		</g>
		<g>
			<g>
				<path class="st67" d="M364.5,127.4c-1,0.4-1.6,1.2-1.6,2.1v20.2c0,4.1,2,8,5.2,10.3l11.8,7.6c0.8,0.5,1.9,0.5,2.6,0l11.8-7.6
					c3.3-2.4,5.2-6.2,5.2-10.3v-20.1c0-0.9-0.7-1.8-1.6-2.1C383.8,122.5,378,122.4,364.5,127.4L364.5,127.4z"/>
				<path class="st68" d="M398.2,127.4c-7-2.4-12-3.7-16.8-3.7V168c0.5,0,0.9-0.1,1.3-0.4l11.8-7.6c3.3-2.4,5.2-6.2,5.2-10.3v-20.1
					C399.8,128.6,399.2,127.8,398.2,127.4L398.2,127.4z"/>
			</g>
			<g>
				<polygon class="st68" points="383.5,102.3 388.1,102.9 384.8,106.3 385.7,110.9 381.5,108.7 377.3,111 378.1,106.3 374.7,103.1 
					379.3,102.4 381.3,98.1 				"/>
				<polygon class="st68" points="383.5,182.5 388.1,183.1 384.8,186.4 385.7,191 381.5,188.9 377.3,191.1 378.1,186.5 374.7,183.3 
					379.3,182.5 381.3,178.3 				"/>
				<polygon class="st68" points="349.2,122 353.9,122.6 350.5,125.9 351.4,130.6 347.2,128.4 343.1,130.7 343.8,126 340.4,122.8 
					345.1,122.1 347.1,117.8 				"/>
				<polygon class="st68" points="418.2,122 422.8,122.6 419.5,125.9 420.4,130.6 416.2,128.4 412.1,130.7 412.8,126 409.4,122.8 
					414,122.1 416.1,117.8 				"/>
				<polygon class="st68" points="349.2,163 353.9,163.6 350.5,167 351.4,171.6 347.2,169.5 343.1,171.7 343.8,167.1 340.4,163.8 
					345.1,163.1 347.1,158.9 				"/>
				<polygon class="st68" points="418.2,163 422.8,163.6 419.5,167 420.4,171.6 416.2,169.5 412.1,171.7 412.8,167.1 409.4,163.8 
					414,163.1 416.1,158.9 				"/>
				<polygon class="st68" points="364.1,107.6 368.7,108.2 365.4,111.6 366.2,116.2 362.1,114 357.9,116.3 358.7,111.6 355.3,108.4 
					359.9,107.7 361.9,103.4 				"/>
				<polygon class="st68" points="403.9,107.6 408.5,108.2 405.2,111.6 406.1,116.2 401.9,114 397.8,116.3 398.5,111.6 395.1,108.4 
					399.7,107.7 401.7,103.4 				"/>
				<polygon class="st68" points="364.1,177.3 368.7,177.9 365.4,181.3 366.2,185.9 362.1,183.7 357.9,186 358.7,181.3 355.3,178.1 
					359.9,177.4 361.9,173.1 				"/>
				<polygon class="st68" points="403.9,177.3 408.5,177.9 405.2,181.3 406.1,185.9 401.9,183.7 397.8,186 398.5,181.3 395.1,178.1 
					399.7,177.4 401.7,173.1 				"/>
				<polygon class="st68" points="343.7,143.6 348.4,144.2 345.1,147.5 345.9,152.1 341.7,150 337.6,152.2 338.3,147.6 334.9,144.4 
					339.6,143.6 341.6,139.4 				"/>
				<polygon class="st68" points="424.9,143.6 429.6,144.2 426.2,147.5 427.1,152.1 422.9,150 418.8,152.2 419.5,147.6 416.1,144.4 
					420.8,143.6 422.8,139.4 				"/>
			</g>
		</g>
	</g>
</g>
</svg>
