<?xml version="1.0" encoding="utf-8"?>
<!-- Generator: Adobe Illustrator 21.1.0, SVG Export Plug-In . SVG Version: 6.00 Build 0)  -->
<svg version="1.1" id="Layer_1" xmlns="http://www.w3.org/2000/svg" xmlns:xlink="http://www.w3.org/1999/xlink" x="0px" y="0px"
	 viewBox="0 0 685 485.2" style="enable-background:new 0 0 685 485.2;" xml:space="preserve">
<style type="text/css">
	.st0{fill:none;}
	.st1{fill:#EBF4F4;}
	.st2{clip-path:url(#SVGID_2_);}
	.st3{fill:#D8E9EA;}
	.st4{fill:none;stroke:#FFF7EF;stroke-width:1.16;stroke-miterlimit:10;}
	.st5{fill:#C8DEE1;}
	.st6{opacity:0.33;fill:#EBF4F4;enable-background:new    ;}
	.st7{fill:#7FB298;}
	.st8{fill:none;stroke:#00684F;stroke-width:0.23;stroke-miterlimit:10;}
	.st9{fill:#0F1B27;}
	.st10{fill:#FFF7EF;}
	.st11{fill:#FFA67C;}
	.st12{fill:#00684F;}
	.st13{fill:none;stroke:#00684F;stroke-width:0.21;stroke-miterlimit:10;}
	.st14{fill:#DAE9EA;}
	.st15{fill:none;stroke:#7A9297;stroke-miterlimit:10;}
	.st16{fill:#FFDFCB;}
	.st17{fill:none;stroke:#FFC7A5;stroke-miterlimit:10;}
	.st18{fill:none;stroke:#7A9297;stroke-width:0.22;stroke-miterlimit:10;}
	.st19{fill:#FFFFFF;}
	.st20{fill:#7A9DD9;}
	.st21{fill:none;stroke:#C8DEE1;stroke-width:0.5;stroke-miterlimit:10;}
	.st22{fill:#FFC7A5;}
	.st23{fill:none;stroke:#0F1B27;stroke-width:0.38;stroke-miterlimit:10;}
	.st24{fill:#3F1F13;}
	.st25{fill:#2A0404;}
	.st26{fill:#E8685B;}
	.st27{fill:#00000F;}
	.st28{clip-path:url(#SVGID_4_);}
	.st29{fill:#C0C293;}
	.st30{opacity:0.38;}
	.st31{fill:#D8C7BC;}
	.st32{fill:#6E7DD6;}
	.st33{fill:#3D3C1F;}
	.st34{fill:#FFA288;}
	.st35{fill:#49482A;}
	.st36{opacity:0.28;fill:#D8C7BC;enable-background:new    ;}
	.st37{fill:none;stroke:#FFFFFF;stroke-width:1.08;stroke-miterlimit:10;}
	.st38{fill:#EF8871;}
	.st39{fill:#F4AD85;}
	.st40{fill:#F4D3B5;}
	.st41{fill:#8C8B68;}
	.st42{fill:#9B9A80;}
	.st43{fill:#AAA99B;}
	.st44{opacity:0.4;fill:#8C8B68;enable-background:new    ;}
	.st45{fill:#DDDCC5;}
	.st46{fill:#F4F4F4;}
	.st47{fill:#D5D2D1;}
	.st48{fill:#EDECE2;}
	.st49{fill:#7D7D58;}
	.st50{fill:#605F3E;}
	.st51{fill:#D1D1AC;}
	.st52{fill:#9E9D80;}
	.st53{fill:#E6E4E3;}
</style>
<title>INFPs</title>
<g>
	<g id="Layer_2">
		<g id="OBJECTS">
			<rect class="st0" width="685" height="485.2"/>
			<path class="st1" d="M194.8,443.1c-38.7-0.1-70.1-31.5-70.2-70.2l0,0c0.1-38.7,31.5-70.1,70.2-70.2l0,0
				c16.4,0,29.6-13.3,29.7-29.7l0,0c0-16.4-13.3-29.6-29.7-29.7h-3.5c-17-0.1-30.8-13.8-30.9-30.9l0,0c0.1-17,13.8-30.8,30.9-30.9
				h10.8c6.6,0,12-5.4,12-12l0,0c0-6.6-5.4-12-12-12h-8c-4.6,0-8.3-3.7-8.3-8.3l0,0c0-4.6,3.7-8.3,8.3-8.3h53.5c7.2,0,13-5.8,13-13
				l0,0c0-7.2-5.8-13-13-13h-16c-4.6,0-8.3-3.7-8.3-8.3l0,0c0-4.6,3.7-8.3,8.3-8.3h234.4c6,0,10.8,4.9,10.8,10.8l0,0
				c-0.1,5.9-4.9,10.7-10.8,10.7h-16.4c-9.4,0-17,7.6-17,17l0,0c0,9.4,7.6,17,17,17h63.5c6,0,10.8,4.9,10.8,10.8l0,0
				c0,6-4.9,10.8-10.8,10.8h-10.4c-8.7,0-15.7,7-15.7,15.7l0,0c0,8.7,7,15.7,15.7,15.7h14.1c22.2,0.1,40.2,18.1,40.3,40.3l0,0
				c-0.1,22.2-18.1,40.2-40.3,40.3h-4.6c-21.4,0.1-38.7,17.4-38.7,38.7l0,0c0.1,21.4,17.4,38.7,38.7,38.7h10
				c21.5,0.1,38.9,17.5,39,39l0,0c-0.1,21.5-17.5,39-39,39L194.8,443.1z M493.8,120c6,0,10.8-4.8,10.8-10.8c0-6-4.8-10.8-10.8-10.8
				c-6,0-10.8,4.8-10.8,10.8c0,0,0,0,0,0C483,115.1,487.8,120,493.8,120L493.8,120z M170.9,157.6c4.6,0,8.3-3.7,8.3-8.3
				s-3.7-8.3-8.3-8.3s-8.3,3.7-8.3,8.3v0C162.6,153.9,166.3,157.6,170.9,157.6z"/>
			<g>
				<defs>
					<path id="SVGID_1_" d="M194.8,443.1c-38.7-0.1-70.1-31.5-70.2-70.2l0,0c0.1-38.7,31.5-70.1,70.2-70.2l0,0
						c16.4,0,29.6-13.3,29.7-29.7l0,0c0-16.4-13.3-29.6-29.7-29.7h-3.5c-17-0.1-30.8-13.8-30.9-30.9l0,0c0.1-17,13.8-30.8,30.9-30.9
						h10.8c6.6,0,12-5.4,12-12l0,0c0-6.6-5.4-12-12-12h-8c-4.6,0-8.3-3.7-8.3-8.3l0,0c0-4.6,3.7-8.3,8.3-8.3h53.5
						c7.2,0,13-5.8,13-13l0,0c0-7.2-5.8-13-13-13h-16c-4.6,0-8.3-3.7-8.3-8.3l0,0c0-4.6,3.7-8.3,8.3-8.3h234.4
						c6,0,10.8,4.9,10.8,10.8l0,0c-0.1,5.9-4.9,10.7-10.8,10.7h-16.4c-9.4,0-17,7.6-17,17l0,0c0,9.4,7.6,17,17,17h63.5
						c6,0,10.8,4.9,10.8,10.8l0,0c0,6-4.9,10.8-10.8,10.8h-10.4c-8.7,0-15.7,7-15.7,15.7l0,0c0,8.7,7,15.7,15.7,15.7h14.1
						c22.2,0.1,40.2,18.1,40.3,40.3l0,0c-0.1,22.2-18.1,40.2-40.3,40.3h-4.6c-21.4,0.1-38.7,17.4-38.7,38.7l0,0
						c0.1,21.4,17.4,38.7,38.7,38.7h10c21.5,0.1,38.9,17.5,39,39l0,0c-0.1,21.5-17.5,39-39,39L194.8,443.1z M493.8,120
						c6,0,10.8-4.8,10.8-10.8c0-6-4.8-10.8-10.8-10.8c-6,0-10.8,4.8-10.8,10.8c0,0,0,0,0,0C483,115.1,487.8,120,493.8,120L493.8,120
						z M170.9,157.6c4.6,0,8.3-3.7,8.3-8.3s-3.7-8.3-8.3-8.3s-8.3,3.7-8.3,8.3v0C162.6,153.9,166.3,157.6,170.9,157.6z"/>
				</defs>
				<clipPath id="SVGID_2_">
					<use xlink:href="#SVGID_1_"  style="overflow:visible;"/>
				</clipPath>
				<g class="st2">
					<rect x="162.5" y="162.9" class="st3" width="193.1" height="223.9"/>
					<line class="st4" x1="259" y1="162.9" x2="259" y2="386.9"/>
					<line class="st4" x1="162.5" y1="274.9" x2="355.6" y2="274.9"/>
					<rect x="158.4" y="386.9" class="st5" width="204.3" height="13.1"/>
					<circle class="st1" cx="213.8" cy="208.3" r="27.7"/>
					<polyline class="st6" points="185.6,212.8 178.4,382 355.6,386.9 237.7,194.4 188.1,212.2 					"/>
					<path class="st7" d="M313.9,357.4c-1.4-0.9-2.7-2-4-2.9s-2.6-1.6-4-2.4c-4-2.2-7.5-5-10.5-8.4c-1.4-1.6-2.5-3.8-1.9-5.8
						c0.7-2.2,3.4-3.2,5.7-3.1c3.6,0.1,7,2.2,9.5,4.8c2.4,2.7,4.5,5.7,6.2,8.9c1.9,2.8,3.4,5.7,4.7,8.8c0.5,1.4,1,2.7-0.9,2.3
						C317,359.1,315.4,358.4,313.9,357.4z"/>
					<path class="st8" d="M294.9,336c0,0,8.5,0.4,22.9,19.5"/>
					<path class="st7" d="M317.9,344.9c0.1-4.5,0.9-8.9,2.3-13.1c0.8-2.2,2-4.5,4.1-5.6c1.2-0.7,2.6-0.8,3.8-0.3
						c0.6,0.3,1.2,0.8,1.6,1.4c2.2,2.9,1.9,7,1.1,10.5c-0.7,3.2-1.7,6.3-2.8,9.4c-1.3,3.9-2.5,7.8-4.8,11.1
						c-0.6,0.9-2.5,3.1-3.8,2.1c-0.6-0.5-0.7-3.2-0.9-4C317.9,352.7,317.7,348.8,317.9,344.9z"/>
					<line class="st8" x1="327.7" y1="325.6" x2="320.6" y2="359.7"/>
					<path class="st7" d="M341.5,339c1-0.6,2.1-1,3.2-1.1c1.2-0.1,2.3,0.4,3,1.4c0.4,0.7,0.5,1.4,0.5,2.1c-0.1,1.4-0.5,2.7-1.2,3.9
						c-0.9,1.3-2,2.4-3.3,3.2c-3.3,2.5-6.6,4.9-10.1,7.2c-1.8,1.1-3.6,2.3-5.4,3.3c-1.5,0.9-3.7,2.8-5.4,3c-2.1,0.3-1.1-1.3-0.4-2.2
						c1.1-1.4,2-2.8,2.9-4.4c2-3.1,4.2-6.1,6.6-8.8C334.7,343.6,337.9,341,341.5,339z"/>
					<path class="st8" d="M346.6,338.2c0,0-16.6,12.2-24.2,22.5"/>
					<path class="st9" d="M342.7,364.7c0,0.1,0,0.2,0,0.3c-0.3,2.4-0.8,4.8-1.5,7.1c0,0.1,0,0.2-0.1,0.2c-0.2,0.7-0.5,1.3-0.7,2
						c0,0.1-0.1,0.2-0.1,0.2c-2.6,6.5-7.6,12.3-17,12.3c-10.9,0-16.2-5.7-18.8-12.3l-0.1-0.2c-0.2-0.7-0.5-1.3-0.7-2
						c0-0.1-0.1-0.2-0.1-0.2c-0.5-1.7-0.8-3.4-1-5.1v-0.2c-0.5-3.8-0.5-7.5,0-11.3h40.5C343.3,358.5,343.2,361.7,342.7,364.7z"/>
					<path class="st10" d="M339.6,365.3c-1.3-0.2-2.5-0.8-3.4-1.7c1.2-1.4,1.5-3.4,0.6-5c-0.1-0.3-0.4-0.5-0.6-0.6
						c-0.3-0.1-0.6-0.1-0.8,0.1c-0.5,0.3-0.8,0.9-0.9,1.4c-0.2,1.4,0.2,2.7,1.1,3.8l0.2,0.3c-0.3,0.4-0.7,0.7-1.1,1
						c-1.7,1.1-3.8,1.3-5.6,0.4c-0.5-0.2-1-0.6-1.4-1c1-1.2,1.5-2.6,1.5-4.1c0-0.5-0.1-1-0.5-1.4c-0.5-0.4-1.3-0.4-1.8,0.1
						c-0.4,0.4-0.7,1-0.8,1.6c-0.1,1.4,0.3,2.8,1.3,3.8c-2,2.6-5.8,3.1-8.4,1c-0.3-0.3-0.6-0.5-0.9-0.8c0.6-1.1,1.1-2.2,1.3-3.4
						c0.2-0.8,0.1-1.7-0.4-2.5c-0.2-0.3-0.5-0.5-0.9-0.6c-0.4-0.1-0.8,0.1-1.1,0.4c-0.6,0.6-0.9,1.5-0.8,2.3
						c0.1,1.4,0.7,2.8,1.6,3.9c-1.1,2.1-3.2,3.4-5.6,3.6c-1.7,0-3.2-0.8-4.3-2.1c-0.2-0.2-0.3-0.4-0.5-0.6c1-0.8,1.9-1.8,2.4-3
						c0.5-1.2,0.5-2.7-0.5-3.2c-0.4-0.2-1-0.2-1.4,0c-0.9,0.5-1.5,1.3-1.6,2.3c-0.2,1.4,0.1,2.8,0.8,4c-0.6,0.4-1.3,0.8-2,1.1
						c-0.9,0.3-1.8,0.5-2.7,0.6v0.2c0.9,0,1.9-0.2,2.8-0.6c0.7-0.3,1.4-0.6,2-1.1c0.1,0.2,0.3,0.4,0.5,0.6c1.1,1.3,2.7,2.1,4.4,2.2
						h0.1c2.4-0.2,4.6-1.5,5.7-3.6c2.2,2.6,6.2,2.9,8.7,0.6c0.3-0.3,0.6-0.6,0.8-0.9c0.4,0.4,0.9,0.8,1.5,1.1
						c1.9,0.9,4.1,0.7,5.9-0.5c0.4-0.3,0.8-0.6,1.2-1c0.9,1,2.1,1.6,3.5,1.8c1.1,0.1,2.2-0.1,3.2-0.6c0-0.1,0-0.2,0-0.3
						C341.7,365.3,340.6,365.5,339.6,365.3z M306.6,361.2c0.2-0.9,0.7-1.7,1.5-2.1c0.2-0.1,0.4-0.1,0.6-0.1c0.2,0,0.4,0.1,0.6,0.2
						c0.9,0.5,0.9,1.9,0.4,3c-0.5,1.2-1.3,2.2-2.3,2.9C306.7,363.9,306.4,362.5,306.6,361.2L306.6,361.2z M318,364.1
						c-0.9-1-1.5-2.3-1.5-3.7c0-0.8,0.2-1.6,0.8-2.1c0.2-0.2,0.5-0.3,0.8-0.3h0.2c0.3,0.1,0.6,0.2,0.8,0.5c0.4,0.7,0.5,1.5,0.3,2.3
						C319,362,318.6,363.1,318,364.1z M326.4,360.3c0-0.6,0.3-1.1,0.7-1.5c0.2-0.2,0.5-0.3,0.8-0.3c0.2,0,0.5,0.1,0.6,0.2
						c0.3,0.3,0.4,0.8,0.4,1.2c0,1.5-0.5,2.9-1.4,4C326.7,362.9,326.3,361.6,326.4,360.3L326.4,360.3z M336.1,363.5
						c-0.1-0.1-0.1-0.2-0.2-0.3c-0.8-1-1.2-2.3-1.1-3.6c0.1-0.5,0.3-1,0.8-1.3c0.1-0.1,0.2-0.1,0.4-0.1c0.1,0,0.1,0,0.2,0
						c0.2,0.1,0.4,0.3,0.5,0.5C337.5,360.3,337.3,362.2,336.1,363.5L336.1,363.5z"/>
					<path class="st10" d="M341.2,372.1c0,0.1,0,0.2-0.1,0.2h-37.4c0-0.1-0.1-0.2-0.1-0.2H341.2z"/>
					<path class="st10" d="M340.4,374.3c0,0.1-0.1,0.2-0.1,0.2h-35.9l-0.1-0.2H340.4z"/>
					<line class="st8" x1="310" y1="315.8" x2="318.8" y2="355.5"/>
					<path class="st11" d="M315,312.2c-0.4,0.8-0.9,1.5-1.5,2.2c-0.1,0.1-0.2,0.2-0.3,0.3l0,0c-0.5,0.6-1.1,1-1.8,1.4l0,0l-0.2,0.1
						c-0.2,0.1-0.5,0.2-0.8,0.3l-0.2,0.1c-0.5,0.1-1,0.2-1.5,0.2h-0.3c-1.1,0-2.2-0.3-3.1-0.8c-1.9-1-3.6-2.3-5-3.9
						c-0.9-1-7.4-9.3-3.8-9.3c0.7,0,1.4,0.4,2.1,0.3l0,0h0.2c1.4-0.2,2.2-1.9,3.5-2.5c0.6-0.2,1.2-0.3,1.8-0.2h0.3
						c1.6,0.2,3.3,1.1,4.8,0.8l0.2-0.1c0.3-0.1,0.5-0.2,0.7-0.4c0.9-0.6,1.2-1.8,2.1-2.4c0.4-0.3,0.8-0.4,1.3-0.4h0.2
						c0.8,0.1,1.5,0.4,2,1c0.8,1,1.3,2.2,1.4,3.5C317.4,305.8,316.7,309.2,315,312.2z"/>
					<path class="st10" d="M308.6,316.7h-0.3c-4-4-7.3-8.6-9.9-13.6l0,0h0.2C301.2,308.1,304.6,312.8,308.6,316.7z"/>
					<path class="st10" d="M310.5,316.5l-0.2,0.1l-6.2-16.2h0.3L310.5,316.5z"/>
					<path class="st10" d="M311.4,316.1L311.4,316.1l-0.2,0.1c-0.5-5-1.2-10.1-2.2-15.1l0.2-0.1C310.2,306,310.9,311,311.4,316.1z"
						/>
					<path class="st10" d="M313.5,314.4c-0.1,0.1-0.2,0.2-0.3,0.3c0.8-5.6,0.9-11.2,0.2-16.8h0.2
						C314.3,303.4,314.2,308.9,313.5,314.4z"/>
					<path class="st12" d="M308.8,316.7c0.5,1,1.1,1.8,2,2.5c0.3-1,0.6-2.1,0.8-3.2L308.8,316.7z"/>
					<line class="st13" x1="336.5" y1="319.9" x2="325.3" y2="355.6"/>
					<path class="st11" d="M342,319.2c-0.7,0.4-1.4,0.8-2.2,1.1c-0.1,0-0.2,0.1-0.4,0.1l0,0c-0.6,0.2-1.3,0.3-2,0.3l0,0h-0.2
						c-0.2,0-0.5-0.1-0.7-0.1l-0.2-0.1c-0.5-0.1-0.9-0.3-1.3-0.5l0,0l-0.3-0.1c-0.8-0.5-1.6-1.2-2.2-2c-1.1-1.7-1.8-3.5-2.2-5.4
						c-0.3-1.2-1.7-10.8,1.3-9.1c0.6,0.3,0.9,0.9,1.5,1.2l0,0l0.2,0.1c1.2,0.5,2.6-0.5,4-0.4c0.6,0.1,1.1,0.3,1.5,0.6l0.2,0.1
						c1.2,0.9,2.2,2.4,3.5,2.8l0.2,0.1c0.2,0,0.5,0,0.7,0c1-0.1,1.8-0.9,2.8-1c0.4,0,0.8,0.1,1.2,0.3c0.1,0,0.1,0.1,0.2,0.1
						c0.6,0.4,1,1,1.1,1.7c0.2,1.2,0,2.4-0.5,3.5C346.9,315.2,344.7,317.6,342,319.2z"/>
					<path class="st10" d="M334.9,320l-0.3-0.1c-1.4-5-1.9-10.2-1.7-15.4l0,0l0.2,0.1C332.9,309.7,333.5,315,334.9,320z"/>
					<path class="st10" d="M336.5,320.6l-0.2-0.1l2.5-15.8l0.2,0.1L336.5,320.6z"/>
					<path class="st10" d="M337.5,320.8L337.5,320.8h-0.2c1.9-4.2,3.6-8.6,5.2-13l0.2,0.1C341.1,312.1,339.3,316.5,337.5,320.8z"/>
					<path class="st10" d="M339.8,320.3c-0.1,0-0.2,0.1-0.4,0.1c3.2-4.1,5.8-8.5,7.9-13.3c0.1,0,0.1,0.1,0.2,0.1
						C345.5,311.9,343,316.3,339.8,320.3z"/>
					<path class="st12" d="M335.1,320.1c-0.1,1,0.1,2,0.4,2.9c0.8-0.7,1.4-1.4,2.1-2.2L335.1,320.1z"/>
					<rect x="403.2" y="270.7" class="st5" width="45.8" height="67.9"/>
					<rect x="409.1" y="279.4" class="st14" width="34" height="50.5"/>
					<polygon class="st5" points="434.1,272.7 426.1,263.2 418.6,272 417.8,271.3 426.1,261.6 434.9,272 					"/>
					<rect x="481.1" y="272.9" class="st5" width="34.4" height="35.8"/>
					<rect x="485.5" y="277.5" class="st14" width="25.5" height="26.6"/>
					<polygon class="st5" points="492.7,274 492,273.5 498.3,264.8 504.9,272.6 504.3,273.1 498.4,266.1 					"/>
					<rect x="532.2" y="272.9" class="st5" width="34.4" height="35.8"/>
					<rect x="536.6" y="277.5" class="st14" width="25.5" height="26.6"/>
					<polygon class="st5" points="543.8,274 543.1,273.5 549.4,264.8 556,272.6 555.4,273.1 549.4,266.1 					"/>
					<rect x="386.1" y="249" class="st5" width="198.1" height="6.1"/>
					<rect x="391" y="190" class="st14" width="13.6" height="59"/>
					<line class="st15" x1="391" y1="196.1" x2="404.6" y2="196.1"/>
					<line class="st15" x1="391" y1="242.5" x2="404.6" y2="242.5"/>
					
						<rect x="431.6" y="189.4" transform="matrix(0.9934 -0.1149 0.1149 0.9934 -22.2548 51.8444)" class="st14" width="13.6" height="59"/>
					<line class="st15" x1="429" y1="196.5" x2="442.5" y2="194.9"/>
					<line class="st15" x1="434.3" y1="242.5" x2="447.9" y2="240.9"/>
					<rect x="405.4" y="190" class="st14" width="22.9" height="59"/>
					<rect x="408.5" y="194.1" class="st5" width="16.6" height="50.4"/>
					<rect x="507.8" y="190" class="st14" width="13.6" height="59"/>
					<line class="st15" x1="507.8" y1="196.1" x2="521.4" y2="196.1"/>
					<line class="st15" x1="507.8" y1="242.5" x2="521.4" y2="242.5"/>
					<rect x="564.6" y="190" class="st16" width="13.6" height="59"/>
					<line class="st17" x1="564.6" y1="196.1" x2="578.2" y2="196.1"/>
					<line class="st17" x1="564.6" y1="242.5" x2="578.2" y2="242.5"/>
					
						<rect x="548.4" y="189.8" transform="matrix(0.9934 -0.1149 0.1149 0.9934 -21.5263 65.2684)" class="st14" width="13.6" height="59"/>
					<line class="st15" x1="545.8" y1="196.9" x2="559.3" y2="195.3"/>
					<line class="st15" x1="551.1" y1="242.9" x2="564.6" y2="241.4"/>
					<rect x="522.2" y="190" class="st14" width="22.9" height="59"/>
					<rect x="525.4" y="194.1" class="st5" width="16.6" height="50.4"/>
					<path class="st5" d="M468.9,222.3c-1.3-0.8-2.5-1.8-3.8-2.7s-2.4-1.5-3.7-2.2c-3.7-2-7-4.6-9.7-7.8c-1.2-1.5-2.4-3.5-1.7-5.3
						c0.7-2,3.1-2.9,5.2-2.8c3.4,0.3,6.5,2,8.7,4.5c2.2,2.5,4.1,5.3,5.8,8.2c1.7,2.6,3.2,5.3,4.4,8.1c0.5,1.3,1,2.5-0.8,2.1
						C471.7,224,470.3,223.3,468.9,222.3z"/>
					<path class="st18" d="M451.4,202.6c0,0,7.8,0.4,21.2,18"/>
					<path class="st5" d="M472.8,207.9c0.1-4.1,0.8-8.2,2.1-12.1c0.8-2.1,1.9-4.1,3.8-5.2c1.1-0.6,2.4-0.8,3.5-0.3
						c0.6,0.3,1.1,0.7,1.5,1.3c2.1,2.6,1.8,6.4,1,9.7c-0.7,3-1.6,5.9-2.5,8.7c-1.2,3.6-2.4,7.2-4.5,10.3c-0.5,0.8-2.3,2.9-3.5,1.9
						c-0.6-0.5-0.7-2.9-0.9-3.7C472.7,215.1,472.5,211.5,472.8,207.9z"/>
					<line class="st18" x1="481.8" y1="190" x2="475.2" y2="221.6"/>
					<path class="st5" d="M494.4,205.3c0.9-0.5,1.9-0.9,3-1c1.1-0.1,2.1,0.4,2.8,1.2c0.3,0.6,0.5,1.3,0.4,2
						c-0.1,1.3-0.5,2.5-1.2,3.6c-0.9,1.2-1.9,2.2-3.1,3c-3,2.3-6.1,4.6-9.3,6.6c-1.6,1.1-3.3,2.1-5,3.1c-1.3,0.8-3.4,2.6-5,2.7
						c-1.9,0.2-1-1.2-0.3-2c1-1.3,1.9-2.6,2.7-4c1.8-2.9,3.9-5.6,6.1-8.1C488.1,209.6,491.1,207.2,494.4,205.3z"/>
					<path class="st18" d="M499.2,204.6c0,0-15.4,11.2-22.4,20.8"/>
					<path class="st14" d="M495.6,229.1c0,0.1,0,0.2,0,0.2c-0.3,2.2-0.8,4.4-1.4,6.6c0,0.1,0,0.1-0.1,0.2c-0.2,0.6-0.4,1.2-0.6,1.8
						c0,0.1-0.1,0.1-0.1,0.2c-2.4,6.1-7,11.3-15.8,11.3c-10.1,0-15-5.3-17.4-11.3l-0.1-0.2c-0.2-0.6-0.4-1.2-0.6-1.8
						c0-0.1-0.1-0.1-0.1-0.2c-0.5-1.5-0.8-3.1-1-4.7V231c-0.4-3.5-0.4-7,0-10.4h37.5C496.1,223.4,495.9,226.3,495.6,229.1z"/>
					<path class="st10" d="M492.6,229.7c-1.2-0.1-2.3-0.7-3.1-1.6c1.2-1.3,1.4-3.1,0.6-4.6c-0.1-0.2-0.3-0.4-0.6-0.5
						c-0.2-0.1-0.5-0.1-0.7,0.1c-0.4,0.3-0.7,0.8-0.8,1.3c-0.2,1.3,0.2,2.5,1,3.5l0.2,0.3c-0.3,0.4-0.6,0.7-1,0.9
						c-1.6,1-3.5,1.2-5.2,0.4c-0.5-0.3-0.9-0.6-1.3-1c0.9-1.1,1.4-2.4,1.4-3.8c0-0.5-0.1-0.9-0.5-1.3c-0.5-0.4-1.2-0.3-1.6,0.1
						c-0.4,0.4-0.7,1-0.7,1.5c-0.1,1.3,0.3,2.6,1.2,3.5c-1.9,2.4-5.4,2.9-7.8,1c-0.3-0.2-0.6-0.5-0.8-0.8c0.6-1,1-2.1,1.2-3.2
						c0.2-0.8,0.1-1.6-0.3-2.3c-0.2-0.3-0.5-0.5-0.9-0.5c-0.4-0.1-0.8,0.1-1.1,0.3c-0.5,0.6-0.8,1.3-0.8,2.1
						c0.1,1.3,0.6,2.6,1.5,3.6c-1.1,1.9-3,3.1-5.2,3.3c-1.6,0-3-0.7-4-1.9c-0.2-0.2-0.3-0.4-0.4-0.6c1-0.7,1.7-1.7,2.2-2.8
						c0.5-1.1,0.5-2.5-0.5-3c-0.4-0.2-0.9-0.2-1.3,0c-0.8,0.4-1.4,1.2-1.5,2.1c-0.2,1.3,0.1,2.6,0.8,3.7c-0.6,0.4-1.2,0.8-1.8,1
						c-0.8,0.3-1.6,0.5-2.5,0.5v0.2c0.9,0,1.7-0.2,2.5-0.5c0.7-0.3,1.3-0.6,1.9-1c0.1,0.2,0.3,0.4,0.4,0.6c1,1.2,2.5,2,4,2h0.1
						c2.2-0.1,4.2-1.4,5.3-3.3c2.1,2.4,5.7,2.7,8.1,0.6c0.3-0.2,0.5-0.5,0.8-0.8c0.4,0.4,0.8,0.8,1.4,1c1.8,0.8,3.8,0.6,5.4-0.4
						c0.4-0.3,0.8-0.6,1.1-0.9c0.9,0.9,2,1.5,3.2,1.6c1,0.1,2-0.1,2.9-0.5c0-0.1,0-0.2,0-0.2C494.6,229.6,493.6,229.8,492.6,229.7z
						 M462.2,225.9c0.1-0.8,0.7-1.5,1.4-1.9c0.2-0.1,0.4-0.1,0.6-0.1c0.2,0,0.4,0.1,0.5,0.1c0.8,0.5,0.8,1.7,0.4,2.7
						c-0.5,1.1-1.2,2-2.1,2.7C462.3,228.3,462,227.1,462.2,225.9L462.2,225.9z M472.7,228.5c-0.8-0.9-1.3-2.2-1.4-3.4
						c-0.1-0.7,0.2-1.5,0.7-2c0.2-0.2,0.4-0.3,0.7-0.3h0.2c0.3,0,0.5,0.2,0.7,0.4c0.4,0.7,0.5,1.4,0.3,2.1
						C473.7,226.5,473.3,227.6,472.7,228.5L472.7,228.5z M480.5,225c0-0.5,0.3-1,0.6-1.4c0.2-0.2,0.5-0.3,0.8-0.3
						c0.2,0,0.4,0.1,0.6,0.2c0.3,0.3,0.4,0.7,0.4,1.1c0,1.3-0.4,2.6-1.3,3.7C480.7,227.4,480.3,226.2,480.5,225L480.5,225z
						 M489.4,228c-0.1-0.1-0.1-0.2-0.2-0.2c-0.8-0.9-1.1-2.2-1-3.4c0.1-0.5,0.3-0.9,0.7-1.2c0.1-0.1,0.2-0.1,0.3-0.1
						c0.1,0,0.1,0,0.2,0c0.2,0.1,0.4,0.3,0.5,0.5C490.7,225,490.5,226.8,489.4,228L489.4,228z"/>
					<path class="st10" d="M494.1,235.9c0,0.1,0,0.1-0.1,0.2h-34.6c0-0.1-0.1-0.1-0.1-0.2H494.1z"/>
					<path class="st10" d="M493.4,238c0,0.1-0.1,0.1-0.1,0.2h-33.1l-0.1-0.2H493.4z"/>
					<circle class="st19" cx="268.8" cy="168.2" r="12"/>
					<rect x="267.8" y="93.1" class="st5" width="2" height="56.6"/>
					<path class="st5" d="M304.8,168.2h-72c0-19.9,16.1-36,36-36S304.8,148.3,304.8,168.2z"/>
					<circle class="st19" cx="481" cy="168.2" r="12"/>
					<rect x="479.6" y="93.1" class="st20" width="2" height="56.6"/>
					<path class="st5" d="M516.6,168.2h-72c0-19.9,16.1-36,36-36S516.6,148.3,516.6,168.2z"/>
					<path class="st14" d="M587.7,347.5c-1.2,4.8-4.5,8.6-7.9,12.2c-4,4.4-8.2,8.6-12.7,12.5c-4.8,4.1-10,7.8-14.8,11.9
						s-8,9.4-12.3,13.8c-0.5-0.5-0.7-1-0.8-1.7l0,0c-0.1-0.4-0.1-0.8-0.1-1.3c0-3.2,1.6-7.6,2.1-9.5c1.2-4.4,2.9-8.7,4.9-12.8
						c4.1-8.4,9.9-15.8,17-21.9c5.1-4.4,11.2-8.1,17.8-8.6c0.4,0,0.8-0.1,1.2-0.1h0.8c1.7,0,3.6,0.4,4.5,1.9
						C588,345,588,346.3,587.7,347.5z"/>
					<path class="st5" d="M583,342c-5.6,3.2-11,6.7-16.1,10.6c-16,12-25.8,40.7-26.8,43.6l0,0l-0.1,0.2l0.1-0.2
						c-0.2-0.4-0.3-0.9-0.1-1.3c2.2-6.1,11.8-31.6,26.6-42.8c4.9-3.7,9.9-7.1,15.2-10.2C582.2,342,582.6,342,583,342z"/>
					<path class="st21" d="M519.6,397.9c0.5-0.4,12,6.1,17.7,39.5"/>
					<path class="st21" d="M537.8,450.8c0,0,3.4-18.2,8.9-27.4"/>
					<path class="st14" d="M588.4,403.6c-7.5,4.9-15.9,8.1-24,12c-3.9,1.8-7.6,3.9-11.2,6.3c-3.5,2.4-6.2,5.4-9.3,8.1l0,0l-0.4,0.4
						c-0.1-0.1-0.1-0.2-0.1-0.3c-0.7-2,1-5.8,1.6-7.5c1.1-2.7,2.5-5.2,4.2-7.4c3.6-4.5,7.9-8.3,12.9-11.2c4-2.6,8.4-4.5,13-5.6
						c4.7-1.1,9.6-0.7,14,1.3c0.3,0.1,0.6,0.3,0.9,0.6c0.1,0,0.1,0.1,0.2,0.2c0.1,0.1,0.1,0.2,0.2,0.4
						C590.5,401.8,589.4,403,588.4,403.6z"/>
					<path class="st5" d="M590.2,400.7c-6.5-0.4-16.7-0.6-27.9,6c-11,6.4-17.2,20.6-18.4,23.3l0,0c-0.1,0.3-0.2,0.4-0.2,0.5
						l-0.2-0.1l-0.2-0.1l0.1-0.2c0.8-2,7.2-17.1,18.7-23.8c11.2-6.5,21.3-6.5,27.8-6.1c0.1,0,0.1,0.1,0.2,0.2
						C590.1,400.4,590.1,400.6,590.2,400.7z"/>
					<path class="st14" d="M504.5,399.4c-9.8,6.2-15.2,17.4-18.2,28.6c-1.5,5.1-2.1,10.4-1.8,15.7c0,1.2,0.5,2.3,1.3,3.1
						c1.2,0.6,2.6,0.4,3.6-0.5c0.9-0.9,1.6-2.1,2-3.3c3.4-7.8,7.8-15.3,13.6-21.5s13.4-11,21.7-12.8c0.6,0,1.2-0.4,1.6-0.9
						c0.2-0.7,0.1-1.5-0.4-2c-1.8-2.9-4.9-7.6-8.2-9.1C514.8,394.6,508.7,396.7,504.5,399.4z"/>
					<path class="st21" d="M528.7,408.1c-2.4-5.9-7-11-13.8-10c-10.4,1.5-17.9,9.7-22.5,18.6c-7.5,14.7-7.1,26.5-6.5,30.1"/>
					<path class="st21" d="M540.3,394.9c0,0-5.6,24.8-1.8,64.9"/>
					<polygon class="st11" points="567.5,449.4 566.9,452.3 563.5,468.8 558.2,494.5 555.2,509.1 554.5,509.1 539.4,508.4 
						529.8,508 522.5,507.7 519.5,493.6 514.8,471.7 510.6,452.5 510,449.4 					"/>
					<path class="st22" d="M522.5,464.7c0,1.2-0.3,2.3-0.9,3.3c-0.8,1.1-2,2-3.3,2.6c-1.1,0.6-2.3,1-3.5,1.1l-4.1-19.3
						C517.1,450.7,522.6,459.2,522.5,464.7z"/>
					<path class="st22" d="M533.4,481c2.4,1.6,5.7,1.2,8.2-0.2c2.4-1.6,4.4-3.7,5.8-6.2c2.4-3.7,4-8.3,1-12.2
						c-2.3-2.9-6.3-4.4-9.6-2.6C532.8,462.9,526.2,476.2,533.4,481z"/>
					<path class="st22" d="M567.5,449.4l-0.6,2.9c-0.6,0.2-1.1,0.5-1.7,0.6c-3.4,1-26.5,3.6-22.7-3.5H567.5z"/>
					<path class="st22" d="M563.5,468.8l-5.3,25.8l0,0c-0.8,0.5-1.7,0.8-2.6,0.7c-1.3-0.3-2.2-1.4-2.4-2.7c-0.2-1.3-0.1-2.6,0.3-3.9
						c0.4-1.8,0.9-3.7,1.3-5.5C555.5,480.6,559.1,470.2,563.5,468.8z"/>
					<path class="st22" d="M530.5,507.5c-0.2,0.2-0.5,0.3-0.7,0.5l-7.2-0.3l-3-14.1c2.7-2.8,7-4.3,10.7-3.4
						C539,492.4,536.3,503.5,530.5,507.5z"/>
					<path class="st22" d="M554.5,509.1l-15.1-0.6c0-4.2,4.4-9.6,8.5-9.6C552.8,498.8,556.7,504.7,554.5,509.1z"/>
					<line class="st23" x1="510.6" y1="454.2" x2="566.5" y2="454.2"/>
					<line class="st23" x1="522.2" y1="505.9" x2="555.8" y2="505.9"/>
				</g>
			</g>
			<path class="st24" d="M375.2,203.4c0,0,2.9,23.1,12.3,37.4c0,0,3,3.4,0.4,6.8s-19.3,19.2-50,25.6s-62.6-16.7-63.6-20
				s7.6-27.5,5.4-47.5L375.2,203.4z"/>
			<path class="st25" d="M375.2,203.4c1.2,8.5,3.3,16.9,6.2,25c-5,4.7-15.2,16.7-12.7,33.7c-9.7,5.2-20.1,9-30.8,11.2
				c-14,2.9-28.3-0.3-39.7-5c1.7-5.5,1.2-11.4-1.4-16.6c-5.5-11.4-13.2-16.1-19-18c1.6-8.6,2.9-18.7,1.9-28L375.2,203.4z"/>
			<path class="st26" d="M343.6,212.3l2.7,14.7c0,0,2.3,34.1,3.4,38.7c0.3,4.5,15.2,7.6,18.1,7.9c-3.9,6.6-16.4,10.9-28.3,11.5
				c-7.6,0.3-30.1-8.4-33.4-11c2.7-1,11.8-2.5,12-3.8c1.5-11.3,2.4-27.5-3.2-32.1C308.4,233,343.6,212.3,343.6,212.3z"/>
			<path class="st27" d="M535.2,461h-23.6c-3.6,0-6.6,3-6.6,6.6l0,0c0,3.6,3,6.6,6.6,6.6h9.9c2.9,0,5.2,2.3,5.2,5.2l0,0
				c0,2.9-2.3,5.2-5.2,5.2h-352c-2.9,0-5.2-2.3-5.2-5.2l0,0c0-2.9,2.3-5.2,5.2-5.2h9.4c3.6,0,6.6-3,6.6-6.6l0,0c0-3.6-3-6.6-6.6-6.6
				h-21.6c-5.8,0-10.4-4.7-10.4-10.4l0,0c0-5.8,4.7-10.4,10.4-10.5h377.9c5.8,0,10.4,4.7,10.4,10.5l0,0
				C545.6,456.3,540.9,461,535.2,461z M535.6,484.6c2.9,0,5.2-2.3,5.2-5.2s-2.3-5.2-5.2-5.2c-2.9,0-5.2,2.3-5.2,5.2v0
				C530.4,482.3,532.7,484.6,535.6,484.6L535.6,484.6z"/>
			<g>
				<defs>
					<rect id="SVGID_3_" x="162.1" y="234.4" width="335" height="205.7"/>
				</defs>
				<clipPath id="SVGID_4_">
					<use xlink:href="#SVGID_3_"  style="overflow:visible;"/>
				</clipPath>
				<g class="st28">
					<path class="st29" d="M307,273c-5.1,2.5-17.7,3.6-24.4,6.2c3.9,18.8,0.8,43.8,2.1,58.8c1.8,20.3,1.1,53,1.1,53
						s68.2,1.5,88.2,2.8c11-33.5,23-86.5,16.1-112.4l-22.5-7.9C362,284.8,308,280,307,273z"/>
					<g class="st30">
						<path class="st31" d="M380.6,281.7c5.7,27.4,3.9,80.2-6.5,112.1c-10.2-0.7-32.8-1.4-52.5-1.9
							C350,360.5,374.1,323.7,380.6,281.7z"/>
					</g>
					<path class="st32" d="M368.8,392.7c21.5,25.8,36.4,94.3,36.4,94.3l-148-3.6c0,0,8.5-67.1,35.7-92.1
						C293,391.5,334.7,389.9,368.8,392.7z"/>
					<path class="st33" d="M368.8,392.7c21.5,25.8,36.4,94.3,36.4,94.3l-148-3.6c0,0,8.5-67.1,35.7-92.1
						C293,391.5,334.7,389.9,368.8,392.7z"/>
					<path class="st34" d="M228.9,500.2c-2.7-0.5,0.1-5.5,6.3-7.4c10-3,26.2-8.7,30.9-14.4c5.5-6.6,10.5-9.2,14.2-10.2
						c2.7-0.7,5.6,0,7.8,1.8c1.5,1.2,3.5,2.6,5.4,2.7c1.7,0.1,3.4-0.1,5-0.4l-1.2,30.6C297.4,502.8,241.1,502.3,228.9,500.2z"/>
					<path class="st35" d="M293.1,502.5c0,0,188-2.8,189.3-51.4c1.2-44.9-73.5-34.3-81.4-33.2c-29.5,4.2-108.8,41-108.8,41
						L293.1,502.5z"/>
					<path class="st36" d="M343.1,437.1l-49.4,20.8l1.1,44.8c0,0,120.9-6.5,149.2-20.7L343.1,437.1z"/>
					<line class="st37" x1="310.4" y1="502.1" x2="305" y2="452.2"/>
					<path class="st35" d="M351.6,500.1c0,0-180-6.1-174.8-54.5c3.9-36,62.9-29,91-19.1s86,36,86,36L351.6,500.1z"/>
					<path class="st34" d="M419.4,500.1c2.7-0.2,0.5-5.5-5.6-7.9c-9.7-4-25.2-11.2-29.4-17.4c-4.8-7.1-9.6-10.2-13.1-11.5
						c-2.6-1-5.6-0.6-7.9,1c-1.6,1.1-3.7,2.2-5.6,2.2c-1.7-0.1-3.3-0.4-4.9-0.9l-1.8,30.6C351,496.1,407,501.1,419.4,500.1z"/>
					<line class="st37" x1="344.1" y1="458.7" x2="340.3" y2="497.8"/>
					<path class="st38" d="M325.3,347.2c0,0,1.1-6.5,2.2-4.8s3.9,20,3.9,20L325.3,347.2z"/>
					<path class="st39" d="M331.5,397c30.9,4,83.5,4.6,85.7-0.3c15.5-5.9-1.1-67.7-11.2-94.4c-5.5-14.5-12.7-22.1-20.5-23.6
						c-14.3-2.2-0.3,80,4.5,87.7c0,0-9.5-2.2-54.2,9.3c0,0-8.3-26.4-10.4-28.4c0,0-3.1-2.2-2,2s2.7,43.1,3.7,44.4
						C330.4,397.8,331.5,397,331.5,397z"/>
					<path class="st38" d="M323.5,347.2c0,0-1.1-6.5-2.2-4.8s-3.9,20-3.9,20L323.5,347.2z"/>
					<path class="st39" d="M317.3,397c-30.9,4-68.5-10-70.7-14.9c-15.5-5.9,6.8-55.6,20-80.9c7.9-15.2,15.3-23.2,23-24.7
						c21.4-1.7-9.5,74.7-10.1,83.7c0,0,4.5,5.6,33.6,15.5c0,0,8.3-26.4,10.4-28.4c0,0,3.1-2.2,2,2s-2.7,43.1-3.6,44.4
						C318.4,397.8,317.3,397,317.3,397z"/>
				</g>
			</g>
			<path class="st26" d="M290.5,213.8l-0.8,0.1l0,0c-5.6,1.2-9.2,6.7-8,12.3c1.2,5.6,6.7,9.2,12.3,8c5.6-1.2,9.2-6.7,8-12.3
				c-0.5-2.3-1.8-4.4-3.6-5.9c0.3,3.1-0.2,6.8-4.1,7.2l0.1-6c-0.1-2-1.7-3.5-3.7-3.4C290.7,213.8,290.6,213.8,290.5,213.8z"/>
			<path class="st26" d="M365.2,213.8c0.3,0,0.5,0.1,0.8,0.1l0,0c5.6,1.2,9.2,6.7,8,12.3c-1.2,5.6-6.7,9.2-12.3,8
				c-5.6-1.2-9.2-6.7-8-12.3c0.5-2.3,1.8-4.4,3.6-5.9c-0.3,3.1,0.2,6.8,4.1,7.2l-0.1-6c0.1-2,1.7-3.5,3.7-3.4
				C365.1,213.8,365.2,213.8,365.2,213.8z"/>
			<path class="st39" d="M327.9,162.1L327.9,162.1c-19.5,0.1-35.4,15.9-35.4,35.4v32.2c0.1,19.5,15.9,35.4,35.4,35.4l0,0
				c19.5-0.1,35.4-15.9,35.4-35.4v-32.2C363.3,178,347.4,162.2,327.9,162.1z"/>
			<path class="st38" d="M336.7,264.1c15.7-4.1,26.6-18.2,26.7-34.3v-32.2c0-10.4-4.6-20.2-12.5-26.9c-23.3,2.4-47.6,4.6-47.6,4.6
				s-13.4,24.9-6,30.2l1.2-1.4h45.7c6.9,0,12.2,1.6,12.2,10v24.4C356.3,243.8,349,259.9,336.7,264.1z"/>
			<path class="st25" d="M359.6,214.3v4.6c0,2.2,2,4.6,3.7,4.6v-5c0,0,0.7-3.7,5.3-3.7c14-16,12.1-41.5-2.8-54.7s-46.9-14-52.5-12.2
				S302,159.3,302,159.3s-4.7-4.2-9.1-2s-19.1,29.9-19.1,36.9s13.4,20.7,13.4,20.7c4.5,0,5.3,3.7,5.3,3.7v5c1.7,0,3.7-2.4,3.7-4.6
				v-4.6c0,0,4-6.3,4-12.9h9.5c1-0.2,1.8-1,2-2c0.2-1,0.8-7.4,1-8.9s0.7-2.3,1-1.9s0.5,5.7,1,9.1s2.8,3.6,2.8,3.6h39.7
				C357.2,201.4,357.6,209.5,359.6,214.3z"/>
			<path class="st24" d="M375.7,175.1c-1.8-5.1-4.7-9.8-8.6-13.7c-9.7,11.4-33.5,30.9-61.6-7c-0.6,0.7-1.1,1.4-1.5,2
				c3.4,7.9,10.3,19.4,22.9,26.6C344.6,193.2,367.3,188.8,375.7,175.1z"/>
			<path class="st25" d="M359.6,214.3v4.6c0,2.2,2,4.6,3.7,4.6v-5c0,0,0.7-3.7,5.3-3.7c8.7-10,11.2-23.5,8.4-35.6
				c-1.1,5.9-5.6,17.3-23.5,17.3c-24.1,0-38.4-12.7-39.9-14c-0.6-0.6-1.6-0.7-2.2-0.1c-0.1,0.1-0.2,0.2-0.3,0.4
				c0,0-8.2,12.5-22.5,8.7c-6-1.6-8.5-6.9-9.5-12.5c-3,6.4-5.3,12.3-5.3,15.1c0,6.9,13.4,20.7,13.4,20.7c4.5,0,5.3,3.7,5.3,3.7v5
				c1.7,0,3.7-2.4,3.7-4.6v-4.6c0,0,4-6.3,4-12.9h9.5c1-0.2,1.8-1,2-2c0.2-1,0.8-7.4,1-8.9s0.7-2.3,1-1.9s0.5,5.7,1,9.1
				s2.8,3.6,2.8,3.6h39.7C357.2,201.4,357.6,209.5,359.6,214.3z"/>
			<path class="st40" d="M323,233.4c0,0,2.3-2.9,4-0.9S327.5,232.4,323,233.4z"/>
			<path class="st26" d="M320.9,235.1c-1.9,1.7-0.1,6.1,2.6,5.2c0.1,0,0.2-0.2,0.1-0.3c0-0.1-0.1-0.1-0.1-0.1
				c-0.9-0.3-1.7-0.8-2.3-1.5c-0.5-1-0.6-2.2-0.1-3.2c0-0.1,0-0.1-0.1-0.2C321,235,321,235,320.9,235.1L320.9,235.1z"/>
			<path class="st26" d="M327.2,240.3c1,0,2-0.4,2.7-1.1c0.4-0.4-0.1-1.1-0.6-0.8c-0.4,0.3-0.7,0.5-1.1,0.7
				c-0.4,0.1-0.8,0.3-1.2,0.5c-0.2,0.1-0.2,0.3-0.1,0.5C326.9,240.2,327.1,240.3,327.2,240.3L327.2,240.3z"/>
			<path class="st26" d="M316.1,247.8c3.3,4.6,10.4,5.4,15.7,4.5c3.2-0.5,9.4-2.4,10.1-5.9c0.1-0.2-0.1-0.4-0.3-0.5
				c-0.1,0-0.2,0-0.3,0c-2.8,1.6-5.2,3.7-8.5,4.5c-5,1.3-12.4,0.6-16.3-3C316.4,247.2,315.9,247.5,316.1,247.8L316.1,247.8z"/>
			<path class="st24" d="M294.1,210.2c0-0.1-0.1-0.2-0.1-0.3c-0.4-1.7,1.2-4.1,2.3-5.2c1.5-1.7,3.3-2.9,5.4-3.6c1.8-0.7,3.8-1,5.7-1
				c0.9-0.1,1.9,0.2,2.6,0.6c1.3,1,1.8,3.1-0.1,3.8c-1.6,0.6-3.3,0.9-4.9,1.4c-2,0.7-3.9,1.5-5.7,2.5
				C298.5,208.9,295,211.8,294.1,210.2z"/>
			<path class="st25" d="M296.1,221.4c6.1-6.6,15.9-4.1,20.3,3c0.1,0.1,0.2,0.1,0.3,0.1c0.1,0,0.1-0.1,0.1-0.2
				c-1.5-8.6-18-12.4-20.9-3c0,0.1,0,0.1,0.1,0.2C296,221.4,296.1,221.4,296.1,221.4L296.1,221.4z"/>
			<path class="st26" d="M316.9,219.3c-0.9-4.3-5.7-6.7-9.8-6c-0.3,0.1-0.2,0.6,0.1,0.6c4.4-0.1,7.2,1.9,9.6,5.5
				C316.8,219.3,316.9,219.3,316.9,219.3C316.9,219.3,316.9,219.3,316.9,219.3L316.9,219.3z"/>
			<path class="st24" d="M358.4,210.2c0-0.1,0.1-0.2,0.1-0.3c0.4-1.7-1.2-4.1-2.3-5.2c-1.4-1.7-3.3-2.9-5.4-3.7
				c-1.8-0.7-3.8-1-5.7-1c-0.9-0.1-1.9,0.2-2.6,0.6c-1.3,1-1.8,3.1,0.1,3.8c1.6,0.6,3.3,0.9,4.9,1.4c2,0.7,3.9,1.5,5.7,2.5
				C354.1,208.9,357.6,211.8,358.4,210.2z"/>
			<path class="st25" d="M356.7,221.3c-2.9-9.4-19.3-5.6-20.9,3c0,0.1,0,0.2,0.2,0.2c0.1,0,0.2,0,0.2-0.1c4.3-7.1,14.1-9.6,20.3-3
				c0.1,0.1,0.1,0,0.2,0C356.7,221.4,356.7,221.3,356.7,221.3L356.7,221.3z"/>
			<path class="st26" d="M335.7,219.3c2.4-3.5,5.2-5.5,9.6-5.5c0.3,0,0.4-0.5,0.1-0.6c-4.1-0.8-8.9,1.7-9.8,6
				C335.6,219.3,335.7,219.4,335.7,219.3C335.7,219.4,335.7,219.4,335.7,219.3L335.7,219.3z"/>
			<path class="st41" d="M453.1,350.8v-10.2l-6.4-0.3l0,0h-0.4l0,0l-6.4,0.3v10.2c0,0-6,1.5-6,6.6v56.3c0,3.8,7.7,4.5,12.5,4.6h0.4
				c4.8,0,12.5-0.8,12.5-4.6v-56.3C459.1,352.3,453.1,350.8,453.1,350.8z"/>
			<path class="st42" d="M435,358.8v55c0,2,4.6,3.4,11.4,3.4h0.2c6.8,0,11.4-1.4,11.4-3.4v-55H435z"/>
			<path class="st41" d="M434.1,415c1.5,2.7,7.9,3.3,12.2,3.3h0.4c4.8,0,12.5-0.8,12.5-4.6v-56.4c0-5.1-6-6.6-6-6.6v-9.9l-13.2,3.5
				v4.7h7v1.8c0,0,3.3,1,3.3,6.3v57C450.1,416.6,437.9,418,434.1,415z"/>
			<path class="st43" d="M454.5,347.4h-16.1v-6.6c0-0.7,0.6-1.3,1.3-1.3c0,0,0,0,0,0h13.6c0.7,0,1.3,0.6,1.3,1.3c0,0,0,0,0,0
				L454.5,347.4z"/>
			<rect x="433.8" y="368.9" class="st43" width="25.3" height="27.2"/>
			<path class="st42" d="M453.3,339.5H448v7.9h6.6v-6.6C454.6,340.1,454,339.5,453.3,339.5C453.3,339.5,453.3,339.5,453.3,339.5z"/>
			<rect x="452.2" y="339.5" class="st44" width="0.8" height="7.9"/>
			<rect x="449.1" y="339.5" class="st44" width="0.8" height="7.9"/>
			<rect x="446.1" y="339.5" class="st44" width="0.8" height="7.9"/>
			<rect x="443" y="339.5" class="st44" width="0.8" height="7.9"/>
			<rect x="440" y="339.5" class="st44" width="0.8" height="7.9"/>
			<path class="st42" d="M450.1,396.1h9v-27.2h-9V396.1z"/>
			<path class="st45" d="M511.6,422.4v-6h1.4V414h-87.5c-1.1,0-2,0.9-2,2v6.5c0,1.1,0.9,2,2,2H513v-2.3L511.6,422.4z"/>
			<path class="st29" d="M425.8,416.3h84.1l0,0v6l0,0h-84.1c-0.3,0-0.5-0.2-0.5-0.5c0,0,0,0,0,0v-5.1
				C425.3,416.5,425.5,416.3,425.8,416.3z"/>
			<path class="st46" d="M427.5,416.3h84.1l0,0v6l0,0h-84.1c-0.3,0-0.5-0.2-0.5-0.5c0,0,0,0,0,0v-5.1
				C427,416.5,427.2,416.3,427.5,416.3z"/>
			<path class="st29" d="M513,416.3V414h-48.6v10.6H513v-2.3h-1.4v-6H513z"/>
			<rect x="463.6" y="416.3" class="st47" width="48" height="6"/>
			<rect x="463.6" y="416.3" class="st48" width="48" height="6"/>
			<path class="st48" d="M464.7,416.3h-36.4c-0.7,0-1.3,0.6-1.3,1.3c0,0,0,0,0,0v1.8c0-0.7,0.6-1.3,1.3-1.3c0,0,0,0,0,0h36.4V416.3z
				"/>
			<rect x="463.6" y="416.3" class="st45" width="48" height="1.8"/>
			<path class="st29" d="M418.1,437.2v-9.9h-1.8v-2.9h103.3c1.4,0,2.5,1.1,2.5,2.5v0v10.5c0,1.4-1.1,2.5-2.5,2.5l0,0H416.3v-2.9
				L418.1,437.2z"/>
			<path class="st49" d="M519.6,424.5h-52.4v15.6h52.4c1.4,0,2.5-1.1,2.5-2.5v0V427C522.1,425.7,521,424.5,519.6,424.5L519.6,424.5z
				"/>
			<path class="st50" d="M519.3,437.2h-99.1l0,0v-9.9l0,0h99.1c0.3,0,0.6,0.3,0.6,0.6l0,0v8.6C519.9,436.9,519.7,437.2,519.3,437.2
				L519.3,437.2L519.3,437.2z"/>
			<path class="st48" d="M517.2,437.2H418l0,0v-9.9l0,0h99.1c0.3,0,0.6,0.3,0.6,0.6l0,0v8.6C517.8,436.9,517.5,437.2,517.2,437.2
				L517.2,437.2L517.2,437.2z"/>
			<rect x="418.1" y="427.4" class="st47" width="47.4" height="9.9"/>
			<rect x="418.1" y="427.4" class="st46" width="47.4" height="9.9"/>
			<path class="st51" d="M464.1,427.4h52c0.9,0,1.6,0.7,1.6,1.6v2.3c0-0.9-0.7-1.6-1.6-1.6h-52V427.4z"/>
			<rect x="418.1" y="427.4" class="st45" width="47.4" height="2.2"/>
			<path class="st29" d="M169.3,419.2c0-11.4,7.3-20.5,16.4-20.8l0,0h7.9v2.2c5.6,3.4,9.4,10.4,9.4,18.5s-3.8,15.2-9.4,18.6v2.2
				h-7.8l0,0C176.7,439.8,169.3,430.6,169.3,419.2z"/>
			<path class="st52" d="M193.7,437.8v2.2h-7.9l0,0c-7.4-0.2-13.6-6.3-15.7-14.7c2.3,1.9,4.8,1.8,7.6,0h24.5
				C201.1,430.4,198,434.9,193.7,437.8z"/>
			
				<ellipse transform="matrix(1 -1.047197e-03 1.047197e-03 1 -0.4389 0.2033)" class="st49" cx="193.9" cy="419.2" rx="16.9" ry="20.9"/>
			<path class="st41" d="M189.6,419.3c0-4,2.8-7.2,6.2-7.2h0.1h34.8v14.5h-34.9l0,0C192.4,426.5,189.6,423.3,189.6,419.3z"/>
			<path class="st29" d="M214.1,419.3c0-11.5,8-20.8,17.8-20.9h7.9v2.1c6,3.4,10.3,10.5,10.3,18.7s-4.2,15.4-10.2,18.8v2.1H232l0,0
				C222.1,440,214.2,430.7,214.1,419.3z"/>
			<path class="st52" d="M239.9,438v2.1H232l0,0c-8.1-0.1-14.8-6.3-17-14.8c1.6,1.8,5.8,2,8.2,0h26.1
				C248,430.6,244.6,435.2,239.9,438z"/>
			
				<ellipse transform="matrix(1 -1.047197e-03 1.047197e-03 1 -0.4389 0.252)" class="st49" cx="240.4" cy="419.3" rx="18" ry="20.9"/>
			
				<ellipse transform="matrix(1 -1.047197e-03 1.047197e-03 1 -0.4389 0.252)" class="st53" cx="240.4" cy="419.3" rx="8" ry="9.2"/>
		</g>
	</g>
</g>
</svg>
