<?xml version="1.0" encoding="utf-8"?>
<!-- Generator: Adobe Illustrator 21.1.0, SVG Export Plug-In . SVG Version: 6.00 Build 0)  -->
<svg version="1.1" id="Layer_1" xmlns="http://www.w3.org/2000/svg" xmlns:xlink="http://www.w3.org/1999/xlink" x="0px" y="0px"
	 viewBox="0 0 685 485.2" style="enable-background:new 0 0 685 485.2;" xml:space="preserve">
<style type="text/css">
	.st0{fill:none;}
	.st1{fill:#EBF4F4;}
	.st2{fill:#00000F;}
	.st3{clip-path:url(#SVGID_2_);}
	.st4{opacity:0.6;}
	.st5{fill:#DAE9EA;}
	.st6{fill:#FF6158;}
	.st7{fill:#807EFD;}
	.st8{fill:#C8DEE1;}
	.st9{opacity:0.38;}
	.st10{opacity:0.31;}
	.st11{fill:none;stroke:#7A9297;stroke-width:0.81;stroke-miterlimit:10;}
	.st12{fill:#7A9297;}
	.st13{opacity:0.21;}
	.st14{opacity:0.64;}
	.st15{opacity:0.15;}
	.st16{clip-path:url(#SVGID_4_);}
	.st17{fill:#CBE4FF;}
	.st18{fill:#FFD0BF;}
	.st19{opacity:0.2;}
	.st20{fill:#FF7398;}
	.st21{fill:#121A60;}
	.st22{fill:#3089E6;}
	.st23{fill:#3D3C1F;}
	.st24{fill:#C0C293;}
	.st25{fill:#A5A579;}
	.st26{fill:#0056B3;}
	.st27{fill:#FFFFFF;}
	.st28{fill:#EDECD1;}
	.st29{fill:#D8D8AF;}
	.st30{fill:#A55641;}
	.st31{opacity:0.2;fill:#FF7398;enable-background:new    ;}
	.st32{fill:#E0DFBF;}
	.st33{fill:#D88460;}
	.st34{fill:#2A0404;}
	.st35{fill:#3F1F13;}
	.st36{opacity:0.4;fill:url(#SVGID_5_);enable-background:new    ;}
	.st37{opacity:0.42;fill:#E98C4D;enable-background:new    ;}
	.st38{fill:#7D7D58;}
	.st39{opacity:0.2;fill:#320033;enable-background:new    ;}
	.st40{opacity:0.45;fill:#CA6633;enable-background:new    ;}
	.st41{fill:#C66B4B;}
	.st42{opacity:0.45;fill:#E98C4D;enable-background:new    ;}
	.st43{fill:#DA774E;}
	.st44{opacity:0.45;fill:#6C293E;enable-background:new    ;}
	.st45{opacity:0.4;fill:url(#SVGID_6_);enable-background:new    ;}
	.st46{opacity:0.4;fill:url(#SVGID_7_);enable-background:new    ;}
	.st47{fill:#8C8B6B;}
	.st48{fill:#FCFBEB;}
	.st49{fill:#EDEBD9;}
	.st50{fill:#282712;}
	.st51{fill:#B7B691;}
	.st52{fill:url(#SVGID_8_);}
	.st53{opacity:0.85;fill:#FFFFFF;enable-background:new    ;}
	.st54{opacity:0.5;fill:#EEEEEE;enable-background:new    ;}
	.st55{opacity:0.4;fill:#EDECD1;enable-background:new    ;}
	.st56{fill:url(#SVGID_9_);}
	.st57{fill:url(#SVGID_10_);}
	.st58{fill:#4C4B2D;}
	.st59{fill:url(#SVGID_11_);}
	.st60{fill:url(#SVGID_12_);}
	.st61{opacity:0.5;fill:#FFFFFF;enable-background:new    ;}
	.st62{fill:url(#SVGID_13_);}
	.st63{opacity:0.25;}
	.st64{fill:url(#SVGID_14_);}
	.st65{fill:url(#SVGID_15_);}
	.st66{fill:url(#SVGID_16_);}
	.st67{fill:url(#SVGID_17_);}
	.st68{fill:url(#SVGID_18_);}
	.st69{fill:none;stroke:#7D7D58;stroke-width:0.5;stroke-miterlimit:10;}
</style>
<title>INTJs</title>
<g>
	<g id="Layer_2">
		<g id="OBJECTS">
			<rect class="st0" width="685" height="485.2"/>
			<path class="st1" d="M193.1,442.1c-38.7-0.1-70.1-31.5-70.2-70.2l0,0c0.1-38.7,31.5-70.1,70.2-70.2l0,0
				c16.4,0,29.6-13.3,29.7-29.7l0,0c0-16.4-13.3-29.6-29.7-29.7h-3.5c-17-0.1-30.8-13.8-30.9-30.9l0,0c0.1-17,13.8-30.8,30.9-30.9
				h10.8c6.6,0,12-5.4,12-12l0,0c0-6.6-5.4-12-12-12h-8c-4.6,0-8.3-3.7-8.3-8.3l0,0c0-4.6,3.7-8.3,8.3-8.3H246c7.2,0,13-5.8,13-13
				l0,0c0-7.2-5.8-13-13-13h-16c-4.6,0-8.3-3.7-8.3-8.3l0,0c0-4.6,3.7-8.3,8.3-8.4l0,0h234.4c6,0,10.8,4.9,10.8,10.8l0,0
				c0,6-4.9,10.8-10.8,10.8H448c-9.4,0-17,7.6-17,17l0,0c0,9.4,7.6,17,17,17h63.5c6,0,10.8,4.9,10.8,10.8l0,0
				c0,6-4.9,10.8-10.8,10.8h-10.4c-8.7,0-15.7,7-15.7,15.7l0,0c0,8.7,7,15.7,15.7,15.7h14.1c22.2,0.1,40.2,18.1,40.3,40.3l0,0
				c-0.1,22.2-18.1,40.2-40.3,40.3h-4.6c-21.4,0.1-38.7,17.4-38.7,38.7l0,0c0.1,21.4,17.4,38.7,38.7,38.7h10
				c21.5,0.1,38.9,17.5,39,39l0,0c-0.1,21.5-17.5,39-39,39L193.1,442.1z M492.1,119c6,0,10.8-4.8,10.8-10.8s-4.8-10.8-10.8-10.8
				s-10.8,4.8-10.8,10.8C481.3,114.1,486.1,119,492.1,119L492.1,119z M169.2,156.6c4.6,0,8.3-3.7,8.3-8.3s-3.7-8.3-8.3-8.3
				s-8.3,3.7-8.3,8.3l0,0C160.9,152.9,164.6,156.6,169.2,156.6z"/>
			<path class="st2" d="M534.2,461h-23.6c-3.6,0-6.6,3-6.6,6.6l0,0c0,3.6,3,6.6,6.6,6.6h9.9c2.9,0,5.2,2.3,5.2,5.2l0,0
				c0,2.9-2.3,5.2-5.2,5.2h-352c-2.9,0-5.2-2.3-5.2-5.2l0,0c0-2.9,2.3-5.2,5.2-5.2h9.4c3.6,0,6.6-3,6.6-6.6l0,0c0-3.6-3-6.6-6.6-6.6
				h-21.6c-5.8,0-10.4-4.7-10.4-10.4l0,0c0-5.8,4.7-10.4,10.4-10.5h377.9c5.8,0,10.4,4.7,10.4,10.5l0,0
				C544.6,456.3,539.9,461,534.2,461z M534.6,484.6c2.9,0,5.2-2.3,5.2-5.2s-2.3-5.2-5.2-5.2s-5.2,2.3-5.2,5.2l0,0
				C529.3,482.3,531.7,484.6,534.6,484.6L534.6,484.6z"/>
			<g>
				<g>
					<defs>
						<path id="SVGID_1_" d="M193.1,442.1c-38.7-0.1-70.1-31.5-70.2-70.2l0,0c0.1-38.7,31.5-70.1,70.2-70.2l0,0
							c16.4,0,29.6-13.3,29.7-29.7l0,0c0-16.4-13.3-29.6-29.7-29.7h-3.5c-17-0.1-30.8-13.8-30.9-30.9l0,0
							c0.1-17,13.8-30.8,30.9-30.9h10.8c6.6,0,12-5.4,12-12l0,0c0-6.6-5.4-12-12-12h-8c-4.6,0-8.3-3.7-8.3-8.3l0,0
							c0-4.6,3.7-8.3,8.3-8.3H246c7.2,0,13-5.8,13-13l0,0c0-7.2-5.8-13-13-13h-16c-4.6,0-8.3-3.7-8.3-8.3l0,0c0-4.6,3.7-8.3,8.3-8.4
							l0,0h234.4c6,0,10.8,4.9,10.8,10.8l0,0c0,6-4.9,10.8-10.8,10.8H448c-9.4,0-17,7.6-17,17l0,0c0,9.4,7.6,17,17,17h63.5
							c6,0,10.8,4.9,10.8,10.8l0,0c0,6-4.9,10.8-10.8,10.8h-10.4c-8.7,0-15.7,7-15.7,15.7l0,0c0,8.7,7,15.7,15.7,15.7h14.1
							c22.2,0.1,40.2,18.1,40.3,40.3l0,0c-0.1,22.2-18.1,40.2-40.3,40.3h-4.6c-21.4,0.1-38.7,17.4-38.7,38.7l0,0
							c0.1,21.4,17.4,38.7,38.7,38.7h10c21.5,0.1,38.9,17.5,39,39l0,0c-0.1,21.5-17.5,39-39,39L193.1,442.1z M492.1,119
							c6,0,10.8-4.8,10.8-10.8s-4.8-10.8-10.8-10.8s-10.8,4.8-10.8,10.8C481.3,114.1,486.1,119,492.1,119L492.1,119z M169.2,156.6
							c4.6,0,8.3-3.7,8.3-8.3s-3.7-8.3-8.3-8.3s-8.3,3.7-8.3,8.3l0,0C160.9,152.9,164.6,156.6,169.2,156.6z"/>
					</defs>
					<clipPath id="SVGID_2_">
						<use xlink:href="#SVGID_1_"  style="overflow:visible;"/>
					</clipPath>
					<g class="st3">
						<g class="st4">
							<circle class="st5" cx="558.9" cy="207.7" r="3.4"/>
							<circle class="st5" cx="267" cy="181.5" r="1"/>
							<circle class="st5" cx="294.6" cy="123.8" r="1"/>
							<circle class="st5" cx="487.4" cy="181.9" r="1"/>
							<circle class="st6" cx="659.7" cy="210.6" r="1"/>
							<circle class="st7" cx="108.3" cy="250" r="1"/>
							<circle class="st5" cx="237.6" cy="332.9" r="3.4"/>
							<circle class="st7" cx="155.3" cy="212" r="2.4"/>
							<circle class="st5" cx="452.6" cy="212.3" r="2.4"/>
							<circle class="st5" cx="289.4" cy="250" r="1.7"/>
						</g>
						<path class="st8" d="M239.3,234.7h-31.4c-1.8,0-3.4,1-4.3,2.5l-15.7,27.2c-0.9,1.5-0.9,3.5,0,5l15.7,27.2
							c0.9,1.5,2.5,2.5,4.3,2.5h31.4c1.8,0,3.4-1,4.3-2.5l15.7-27.2c0.9-1.5,0.9-3.5,0-5l-15.7-27.2
							C242.7,235.6,241.1,234.7,239.3,234.7z"/>
						<path class="st8" d="M132.4,159.9h-34c-1.8,0-3.5,1-4.4,2.6l-17,29.4c-0.9,1.6-0.9,3.5,0,5.1l17,29.4c0.9,1.6,2.6,2.5,4.4,2.6
							h33.9c1.8,0,3.5-1,4.4-2.6l17-29.4c0.9-1.6,0.9-3.5,0-5.1l-17-29.4C135.9,160.9,134.2,159.9,132.4,159.9z"/>
						<path class="st8" d="M317.3,134.1h-11.9c-1,0-2,0.6-2.5,1.5l-6,10.3c-0.5,0.9-0.5,2,0,2.9l6,10.3c0.5,0.9,1.5,1.5,2.5,1.5
							h11.9c1,0,2-0.6,2.5-1.5l6-10.3c0.5-0.9,0.5-2,0-2.9l-6-10.3C319.3,134.7,318.3,134.1,317.3,134.1z"/>
						<path class="st8" d="M625.6,136h-9.7c-1.1,0-2.1,0.6-2.6,1.5l-4.8,8.4c-0.5,0.9-0.5,2.1,0,3l4.8,8.4c0.5,0.9,1.5,1.5,2.6,1.5
							h9.7c1.1,0,2.1-0.6,2.6-1.5l4.8-8.4c0.5-0.9,0.5-2.1,0-3l-4.8-8.4C627.6,136.6,626.6,136,625.6,136z"/>
						<path class="st8" d="M402.5,112.2h-4.8c-0.5,0-1,0.3-1.3,0.8l-2.4,4.2c-0.3,0.5-0.3,1,0,1.5l2.4,4.2c0.3,0.5,0.8,0.8,1.3,0.8
							h4.8c0.5,0,1-0.3,1.3-0.8l2.4-4.2c0.3-0.5,0.3-1,0-1.5l-2.4-4.2C403.5,112.5,403,112.2,402.5,112.2z"/>
						<path class="st8" d="M440.2,158.9h-3.9c-1.4,0-2.7,0.8-3.5,2l-1.9,3.4c-0.7,1.2-0.7,2.8,0,4l1.9,3.4c0.7,1.2,2,2,3.5,2h3.9
							c1.4,0,2.7-0.8,3.5-2l1.9-3.4c0.7-1.2,0.7-2.8,0-4l-1.9-3.4C443,159.7,441.7,158.9,440.2,158.9z"/>
						<polygon class="st8" points="149.7,257.1 136.6,257.1 130,268.5 136.6,279.9 149.7,279.9 156.2,268.5 						"/>
						<path class="st8" d="M429.3,223.9H350c-7.5,0-14.4,4-18.2,10.5l-39.7,68.7c-3.8,6.5-3.8,14.5,0,21l39.7,68.7
							c3.8,6.5,10.7,10.5,18.2,10.5h79.3c7.5,0,14.4-4,18.2-10.5l39.7-68.7c3.8-6.5,3.8-14.5,0-21l-39.7-68.7
							C443.7,227.9,436.8,223.9,429.3,223.9z"/>
						<g class="st9">
							<g class="st10">
								<polyline class="st11" points="231.3,183.1 244.7,183.1 251.4,171.5 244.7,159.9 231.3,159.9 224.6,171.5 								"/>
								<polygon class="st11" points="264.8,171.5 251.4,171.5 244.7,183.1 251.4,194.8 264.8,194.8 271.5,183.1 								"/>
								<polyline class="st11" points="285,183.1 271.6,183.1 264.9,194.8 271.6,206.4 285,206.4 291.7,194.8 								"/>
								<polyline class="st11" points="271.5,206.4 264.8,194.8 251.4,194.8 244.7,206.4 251.4,218 264.8,218 								"/>
								<polyline class="st11" points="224.6,194.8 231.3,206.4 244.7,206.4 251.4,194.8 244.7,183.1 231.3,183.1 								"/>
								<circle class="st12" cx="291.7" cy="194.8" r="1.7"/>
								<circle class="st12" cx="284.9" cy="183.1" r="1.7"/>
								<circle class="st12" cx="271.5" cy="183.1" r="1.7"/>
								<circle class="st12" cx="244.7" cy="183.1" r="1.7"/>
								<circle class="st12" cx="231.2" cy="183.1" r="1.7"/>
								<circle class="st12" cx="264.9" cy="171.5" r="1.7"/>
								<circle class="st12" cx="264.9" cy="194.8" r="1.7"/>
								<circle class="st12" cx="271.5" cy="206.4" r="1.7"/>
								<circle class="st12" cx="284.9" cy="206.4" r="1.7"/>
								<circle class="st12" cx="251.4" cy="171.5" r="1.7"/>
								<circle class="st12" cx="244.7" cy="159.9" r="1.7"/>
								<circle class="st12" cx="231.2" cy="159.9" r="1.7"/>
								<circle class="st12" cx="224.6" cy="171.5" r="1.7"/>
								<circle class="st12" cx="251.4" cy="194.8" r="1.7"/>
								<circle class="st12" cx="244.7" cy="206.4" r="1.7"/>
								<circle class="st12" cx="231.2" cy="206.4" r="1.7"/>
								<circle class="st12" cx="224.6" cy="194.8" r="1.7"/>
								<circle class="st12" cx="251.4" cy="218" r="1.7"/>
								<circle class="st12" cx="264.9" cy="218" r="1.7"/>
							</g>
							<g class="st13">
								<line class="st11" x1="164.9" y1="371.1" x2="153.9" y2="364.7"/>
								<polygon class="st11" points="153.9,352.1 153.9,364.7 164.9,371.1 175.9,364.7 175.9,352.1 164.9,345.7 								"/>
								<polyline class="st11" points="164.9,333 164.9,345.6 175.9,352 186.9,345.6 186.9,333 175.9,326.6 								"/>
								<polyline class="st11" points="186.9,345.7 175.9,352.1 175.9,364.7 186.9,371.1 197.9,364.7 197.9,352.1 								"/>
								<polyline class="st11" points="186.9,371.1 175.9,364.7 164.9,371.1 								"/>
								<circle class="st12" cx="175.9" cy="326.6" r="1.6"/>
								<circle class="st12" cx="164.9" cy="333.1" r="1.6"/>
								<circle class="st12" cx="164.9" cy="345.7" r="1.6"/>
								<circle class="st12" cx="164.9" cy="371.1" r="1.6"/>
								<circle class="st12" cx="153.9" cy="352" r="1.6"/>
								<circle class="st12" cx="175.9" cy="352" r="1.6"/>
								<circle class="st12" cx="186.9" cy="345.7" r="1.6"/>
								<circle class="st12" cx="186.9" cy="333.1" r="1.6"/>
								<circle class="st12" cx="153.9" cy="364.7" r="1.6"/>
								<circle class="st12" cx="175.9" cy="364.7" r="1.6"/>
								<circle class="st12" cx="186.9" cy="371.1" r="1.6"/>
								<circle class="st12" cx="197.9" cy="364.7" r="1.6"/>
								<circle class="st12" cx="197.9" cy="352" r="1.6"/>
							</g>
							<g class="st14">
								<polygon class="st11" points="484.9,246.8 484.9,263.3 499.2,271.6 513.6,263.3 513.6,246.8 499.2,238.5 								"/>
								<polygon class="st11" points="499.2,222 499.2,238.5 513.6,246.8 527.9,238.5 527.9,222 513.6,213.7 								"/>
								<polyline class="st11" points="527.9,271.6 542.2,263.3 542.2,246.8 527.9,238.5 513.6,246.8 513.6,263.3 								"/>
								<circle class="st12" cx="513.6" cy="213.7" r="2.1"/>
								<circle class="st12" cx="513.6" cy="246.8" r="2.1"/>
								<circle class="st12" cx="513.6" cy="263.4" r="2.1"/>
								<circle class="st12" cx="499.2" cy="221.9" r="2.1"/>
								<circle class="st12" cx="527.9" cy="221.9" r="2.1"/>
								<circle class="st12" cx="499.2" cy="238.5" r="2.1"/>
								<circle class="st12" cx="484.9" cy="246.8" r="2.1"/>
								<circle class="st12" cx="484.9" cy="263.4" r="2.1"/>
								<circle class="st12" cx="499.2" cy="271.6" r="2.1"/>
								<circle class="st12" cx="527.9" cy="238.5" r="2.1"/>
								<circle class="st12" cx="542.2" cy="246.8" r="2.1"/>
								<circle class="st12" cx="542.2" cy="263.4" r="2.1"/>
								<circle class="st12" cx="527.9" cy="271.6" r="2.1"/>
							</g>
							<g class="st15">
								<polygon class="st11" points="374.4,123.8 374.4,112.6 364.7,107.1 355,112.6 355,123.8 364.7,129.4 								"/>
								<polygon class="st11" points="364.7,140.6 364.7,129.4 355,123.8 345.4,129.4 345.4,140.6 355,146.1 								"/>
								<polyline class="st11" points="345.4,107.1 335.7,112.6 335.7,123.8 345.4,129.4 355,123.8 355,112.6 								"/>
								<circle class="st12" cx="355" cy="146.1" r="1.4"/>
								<circle class="st12" cx="355" cy="123.8" r="1.4"/>
								<circle class="st12" cx="355" cy="112.6" r="1.4"/>
								<circle class="st12" cx="364.7" cy="140.6" r="1.4"/>
								<circle class="st12" cx="345.4" cy="140.6" r="1.4"/>
								<circle class="st12" cx="364.7" cy="129.4" r="1.4"/>
								<circle class="st12" cx="374.4" cy="123.8" r="1.4"/>
								<circle class="st12" cx="374.4" cy="112.6" r="1.4"/>
								<circle class="st12" cx="364.7" cy="107.1" r="1.4"/>
								<circle class="st12" cx="345.4" cy="129.4" r="1.4"/>
								<circle class="st12" cx="335.7" cy="123.8" r="1.4"/>
								<circle class="st12" cx="335.7" cy="112.6" r="1.4"/>
								<circle class="st12" cx="345.4" cy="107.1" r="1.4"/>
							</g>
						</g>
					</g>
				</g>
			</g>
			<g>
				<g>
					<defs>
						<rect id="SVGID_3_" x="258.1" y="156.4" width="155.8" height="283.3"/>
					</defs>
					<clipPath id="SVGID_4_">
						<use xlink:href="#SVGID_3_"  style="overflow:visible;"/>
					</clipPath>
					<g class="st16">
						<ellipse class="st17" cx="361" cy="663.8" rx="79" ry="21.3"/>
						<path class="st18" d="M364,624.7c0,0,0.1,35.3,0.8,38.2s52.8,6.1,51.3,0.3c-4.8-13.4-22.1-5.8-34.1-16.6l-0.3-21.2L364,624.7z
							"/>
						<g class="st19">
							<path class="st20" d="M381.9,644l-0.3-18.5l-17.6-0.8c0,0,0,11.2,0.2,21.4C370,646.8,376.5,645.4,381.9,644z"/>
						</g>
						<path class="st21" d="M416.1,663.2c-4.5-12.5-19.9-6.7-31.7-14.7c-6.6,1.8-13.6,1.7-20.2-0.2c0.1,7.1,0.3,13.4,0.6,14.5
							C365.5,665.8,417.5,669,416.1,663.2z"/>
						<g class="st4">
							<path class="st21" d="M413.2,658.5c-17.1,2.5-35.7,2.5-49-8.1c0.1,6.2,0.3,11.4,0.5,12.4c0.7,2.9,52.8,6.1,51.3,0.3
								C415.5,661.4,414.5,659.8,413.2,658.5z"/>
						</g>
						<path class="st18" d="M311.8,626.3c0,0,0.1,35.3,0.8,38.2s52.8,6.1,51.3,0.3c-4.8-13.4-22.1-5.8-34.1-16.6l-0.3-21.2
							L311.8,626.3z"/>
						<g class="st19">
							<path class="st20" d="M329.7,645.7l-0.3-18.5l-17.6-0.8c0,0,0,11.2,0.2,21.4C317.9,648.5,324.4,647.1,329.7,645.7z"/>
						</g>
						<path class="st21" d="M363.9,664.8c-4.5-12.5-19.9-6.7-31.7-14.7c-6.6,1.8-13.6,1.7-20.2-0.2c0.1,7.1,0.3,13.4,0.6,14.5
							C313.4,667.4,365.4,670.6,363.9,664.8z"/>
						<g class="st4">
							<path class="st21" d="M361,660.2c-17.1,2.5-35.7,2.5-49-8.1c0.1,6.2,0.3,11.4,0.6,12.4c0.7,2.9,52.8,6.1,51.3,0.3
								C363.3,663.1,362.4,661.5,361,660.2z"/>
						</g>
						<path class="st22" d="M386.9,642.6c0,0-14.9,7-28.4,0.4l-8.3-155.8l-14,155.4c0,0-15.7,9.1-27.9,1.7c0,0-5.4-101.7,1.9-161.1
							c4.2-34.8,10.2-69.4,18-103.7l0.9-93.7c0,0,37.8-6.1,45.8,4.2s13.1,33.5,14,40.3s-10.3,47-10.3,47S396.5,567,386.9,642.6z"/>
						<path class="st23" d="M388.8,330.4c-0.8-6.9-6-30-14-40.3s-45.8-4.2-45.8-4.2l-0.9,93.7c-7.8,34.2-13.8,68.8-18,103.7
							c-7.3,59.4-1.9,161.1-1.9,161.1c3.2,1.9,6.8,2.9,10.5,2.9c-1.7-10.1-2-20.4-1-30.6c0.6-7.5,1.5-15,2.5-22.5
							c-0.4,3.1,0.1-1.4,0.2-2.1c0.2-1.8,0.4-3.5,0.6-5.3c1.8-14.1,4-41,21.8-44.4c0.7-0.1,1.5-0.2,2.3-0.2l4.9-54.9l3.2,59.9
							c1.8,2.9,2,6.5,0.5,9.6l4.6,86.4c3.4,1.6,7.1,2.6,10.9,2.8c-3.8-23.6-6.6-47.5-2.6-71.2c1.5-9,3.6-19,9-26.6
							c0.3-0.4,0.6-0.9,1-1.3c2.7-5,6.6-8.9,12-10.6c-2.6-77.4-10.3-158.7-10.3-158.7S389.6,337.3,388.8,330.4z"/>
						<path class="st24" d="M314.9,414.7L329,285.9c0,0,37.8-6.1,45.8,4.2s13.1,33.5,14,40.3s-10.3,47-10.3,47s11.4,30.4,11.6,33.6
							C381,425.7,342.7,426.9,314.9,414.7z"/>
						<path class="st25" d="M386.6,345.1c-3,1-6.1,1.7-9.2,2c-4.1,1.1-8.4,1.1-12.5,0c-8.6-0.9-16.9-3.6-24.3-8
							c-6.4-3.7-11.8-8.8-15.8-14.9l-10,90.5c27.9,12.2,66.1,11,75.3-3.7c-0.3-3.2-11.6-33.6-11.6-33.6S383.5,359.1,386.6,345.1z"/>
						<path class="st25" d="M370,317.7l-0.6,3.2l-0.9,3.1c-0.5,1.9-1.4,4.3-2.3,6.8c-1.9,4.9-4.3,9.5-4.5,9.4s1.7-4.9,3.2-9.8
							c0.7-2.5,1.5-4.9,1.9-6.8l0.8-3.1l0.8-3.1c0.5-1.9,0.9-4.4,1.4-6.9c0.9-5,1.1-10.1,1.5-10.1s0.5,5.1,0,10.3
							C370.7,313.2,370.4,315.8,370,317.7z"/>
						<path class="st25" d="M343.7,311.9c1.7,2.1,3.5,4.1,4.7,5.8l2,2.7c0,0,0.7,1.1,1.8,2.8s2.5,4,3.9,6.2c2.7,4.6,5.1,9.4,4.8,9.5
							s-3.1-4.4-6-8.8c-1.5-2.2-3-4.4-4.2-6l-1.9-2.7l-1.9-2.7c-1.1-1.7-2.7-3.8-4.3-6c-3.2-4.3-6.8-8.3-6.6-8.5
							S340.2,307.8,343.7,311.9z"/>
						<path class="st26" d="M369.3,453.9c-0.6,0.5-1.3,0.9-2,1.2c-1.5,0.9-2.9,1.8-4.2,2.9c-1.3,1.1-2.6,2.2-3.8,3.5l-1.6,1.7
							c0,0-0.6,0.7-1.5,1.7s-2.1,2.5-3.1,4c-1,1.4-1.9,2.8-2.7,4.3c-0.3,0.7-0.7,1.4-1.2,2c0.2-0.8,0.4-1.5,0.8-2.2
							c0.7-1.6,1.5-3.1,2.4-4.6s1.9-2.9,3-4.2c0.9-1.1,1.5-1.8,1.5-1.8s0.7-0.7,1.7-1.7c1.3-1.2,2.6-2.3,4-3.3s2.9-1.9,4.5-2.7
							C367.8,454.3,368.5,454,369.3,453.9z"/>
						<path class="st26" d="M364.8,462.1c-0.9,1.1-2,2.1-3.1,3l-2,2.1l-0.7,0.7c-0.1,0.1-0.2,0.2-0.2,0.3l-3,3.1
							c-0.8,1.2-1.8,2.2-2.9,3.2c0.6-1.3,1.4-2.6,2.2-3.7c1.3-1.7,2.8-3.4,2.8-3.4c0.1-0.1,0.2-0.2,0.3-0.3l0.7-0.6l2.3-2
							C362.3,463.5,363.5,462.7,364.8,462.1z"/>
						<path class="st27" d="M379.1,289.3c0,0,12,12.4,19.8,38.2s11.1,43.5,9.4,50.9s-13.5,43.9-13.5,43.9s-9.9-13.1-11.9-14
							s-4-117.5-4-117.5"/>
						<path class="st28" d="M379.1,289.3c0,0,12,12.4,19.8,38.2s11.1,43.5,9.4,50.9s-13.5,43.9-13.5,43.9s-9.9-13.1-11.9-14
							s-4-117.5-4-117.5"/>
						<path class="st29" d="M396.8,372.5c-4.8-6.2-6.1-13.9-6.6-21.6s-0.8-15.4-1.6-23.2c-0.9-8.5-1.6-17.2-0.6-25.7
							c-2.5-4.5-5.5-8.8-8.9-12.7l-0.3,1.5c0,0,2,116.6,4,117.5s11.9,14,11.9,14s11.9-36.5,13.5-43.9v-0.1
							C403.8,378.2,399.5,376.1,396.8,372.5z"/>
						<polygon class="st30" points="337.3,264.8 338.5,285.7 360.7,312.7 362.8,289 358.9,264.8 						"/>
						<path class="st31" d="M355.7,283.6c2.1,0.2,4.1,0.2,6.2,0l-3-18.9h-21.6l0.8,13.5C343.8,280.8,349.4,283.2,355.7,283.6z"/>
						<path class="st17" d="M344.3,298.8c-1-2-2-4-2.8-6.1c-1.4-3.1-2.6-6.2-2.6-6.2l-0.7-2c-0.4-1.2-0.8-2.8-1.3-4.5
							c-0.6-2.2-0.9-4.4-0.9-6.7c0.2,0,0.7,3.3,1.6,6.5c0.5,1.6,1,3.2,1.5,4.3l0.7,1.9l2.3,6.3C343.1,294.5,343.8,296.6,344.3,298.8
							z"/>
						<path class="st28" d="M360.1,268.7c-0.1,1.3,7.9,7.3,9,8.5c7.9,8.1,13.3,17.1,15.8,28.1c4.5,19.7,5.2,39.5,6.7,59.5
							c1.7,22.4,3.5,37.2,5.6,55.8c2,18.2,4.4,36.5,7.1,54.6c1.1,7.9,2.8,15.8,3.5,23.6c0.2,2,2.4,15.6,0.9,17
							c-4.2,3.7-9.1,6.6-14.4,8.6c-16.9,5.9-24.4-1.8-24.4-1.8s0.7-211.2-1.4-221.8c-1.3-6.4-4.6-12.3-9.3-16.9L360.1,268.7z
							 M282.8,428.4c-8.9-16.9-21.4-61-20.1-66.9s7-33.5,27.3-59.3s33.4-20.3,33.4-20.3c5.9-16.5,15.2-14.8,15.2-14.8l-0.4,16
							c0,0,12.7,29.4,14.8,61.5s4.9,179.3,4.9,179.3c-32.4,13.1-66.3-1.9-65.4-7s7.6-95.1,7.6-95.1
							C289.9,425.2,282.8,428.4,282.8,428.4z M304.7,334.3c0,0-9.6,21.9-10.6,26s10,33.6,10,33.6L304.7,334.3z"/>
						<path class="st17" d="M310.7,411.2c-0.3,0.8-0.8,1.6-1.3,2.4c-1.1,1.7-2.3,3.2-3.7,4.6c-1.4,1.4-2.9,2.7-4.5,3.9
							c-0.6,0.5-1.2,0.9-1.6,1.1l-0.6,0.4c0,0-0.9,0.6-2.4,1.3c-1.8,0.9-3.6,1.7-5.5,2.4c-1.9,0.7-3.8,1.2-5.7,1.5
							c-0.9,0.2-1.8,0.3-2.7,0.3c0.8-0.3,1.7-0.6,2.6-0.7c1.9-0.5,3.7-1.1,5.5-1.9c1.8-0.7,3.5-1.6,5.2-2.5c1.4-0.8,2.3-1.4,2.3-1.4
							l0.6-0.4c0.4-0.3,1-0.6,1.6-1.1c1.6-1.1,3.1-2.3,4.5-3.6c1.4-1.3,2.7-2.8,3.9-4.3C309.5,412.6,310.1,411.9,310.7,411.2z"/>
						<path class="st25" d="M304.7,338c0.2-0.4,0.4-0.8,0.7-1.1l1.9-3c1.5-2.5,3.5-5.8,5.3-9.2s3.5-6.9,4.6-9.6s1.8-4.5,1.8-4.5
							s0.7-1.8,1.5-4.5c1.1-3.3,1.6-6.8,1.5-10.3c-0.1-1.8-0.5-3.7-1.4-5.3c-0.7-1.4-1.8-2.7-3.2-3.6c-0.3-0.2-0.6-0.4-0.9-0.6
							l-0.8-0.4l-0.7-0.4l-0.7-0.2c-0.4-0.1-0.8-0.3-1.2-0.5c0.4,0,0.9,0.1,1.3,0.3l0.7,0.2l0.8,0.3l0.9,0.4
							c0.3,0.1,0.6,0.4,0.9,0.5c0.7,0.4,1.3,0.9,1.9,1.5c0.6,0.7,1.2,1.4,1.6,2.2c0.9,1.7,1.5,3.6,1.6,5.6c0.2,3.6-0.3,7.2-1.3,10.7
							c-0.8,2.8-1.5,4.6-1.5,4.6s-0.7,1.8-1.9,4.5s-2.9,6.1-4.9,9.5s-4,6.7-5.6,9.1c-0.8,1.2-1.5,2.2-2,2.9
							C305.3,337.3,305,337.7,304.7,338z"/>
						<path class="st17" d="M311.5,408.7c-0.3-0.3-0.5-0.7-0.6-1.1l-1.5-2.9c-1.3-2.4-2.8-5.7-4.4-9s-3-6.7-4-9.2l-1.7-4.2
							c0,0-0.1-0.4-0.4-1.2l-1-3.1c-0.9-2.6-1.8-6.1-2.6-9.7c-0.4-1.8-0.6-3.6-1-5.3c-0.1-0.8-0.3-1.6-0.4-2.4l-0.2-2.2
							c-0.1-1.4-0.2-2.5-0.2-3.3c0-0.4,0-0.8,0-1.2c0.1,0.4,0.2,0.8,0.2,1.2l0.4,3.3l0.3,2.2c0.1,0.8,0.3,1.6,0.5,2.4
							c0.4,1.7,0.7,3.4,1.1,5.2c1,3.5,1.9,7,2.9,9.5l1.1,3.1c0.2,0.8,0.4,1.2,0.4,1.2l1.6,4.3c0.9,2.6,2.4,5.9,3.7,9.3
							s2.9,6.7,4.1,9.1l1.4,3C311.2,407.9,311.4,408.3,311.5,408.7z"/>
						<path class="st25" d="M337.9,320.1c-0.3,0.3-0.6,0.6-0.9,0.9l-0.5,0.5l-0.7,0.5c-0.5,0.4-1.1,0.7-1.7,1l-1,0.5
							c-0.4,0.1-0.7,0.3-1.1,0.4l-0.7,0.2l-0.2,0.1c-0.1,0-0.2,0.1-0.2,0l-0.1-0.5l-0.4-1.3c-0.5-1.7-1.1-3.5-1.6-5.2
							c-1.1-3.6-2-7.2-2.6-10s-1-4.6-1-4.6s-0.4-1.8-0.7-4.6c-0.5-3.4-0.7-6.8-0.7-10.3c-0.1-3.5,0.5-6.9,1.5-10.2
							c0.4-1.1,0.9-2.1,1.5-3.1c0.2-0.4,0.5-0.7,0.8-1c-0.8,1.3-1.4,2.7-1.9,4.2c-0.9,3.3-1.3,6.6-1.1,10c0.1,3.4,0.4,6.8,1,10.1
							c0.4,2.8,0.8,4.6,0.8,4.6s0.3,1.8,0.9,4.6s1.4,6.4,2.4,10c0.5,1.8,1,3.6,1.5,5.3l0.3,1.1v0.1c0,0.1,0.1,0,0.1,0l0.4-0.1
							c0.4-0.1,0.8-0.2,1.1-0.3l1-0.4C335.4,321.9,336.7,321.1,337.9,320.1z"/>
						<path class="st25" d="M352.1,402c-0.2-0.6-0.4-1.2-0.5-1.8c-0.3-1.1-0.6-2.8-1.1-4.7c-1-3.9-2.5-9-4.2-14l-4.8-13.8l-2.1-6.3
							c0,0-0.2-0.6-0.6-1.7s-1-2.6-1.8-4.4s-1.7-4-2.6-6.3c-1-2.4-1.7-5-2.2-7.6c-0.1-0.7-0.2-1.3-0.2-2c0.1-0.8,0.3-1.4,0.4-2
							c0.3-1.2,0.8-2.5,1.3-3.7c1-2.3,2.1-4.4,2.9-6.2s1.5-3.3,1.9-4.4c0.2-0.6,0.4-1.2,0.6-1.7c-0.1,0.6-0.2,1.2-0.4,1.8
							c-0.5,1.5-1.1,3-1.7,4.5c-0.8,1.8-1.8,3.9-2.7,6.2c-0.5,1.2-0.9,2.4-1.2,3.6c-0.1,0.6-0.3,1.3-0.3,1.9s0.1,1.3,0.2,1.9
							c0.5,2.5,1.3,5,2.3,7.4c0.9,2.3,1.9,4.4,2.7,6.2s1.5,3.4,1.9,4.5s0.6,1.7,0.6,1.7l6.6,20.2c1.6,5.1,3,10.2,3.9,14.1
							c0.5,1.9,0.7,3.6,0.9,4.8C352,400.8,352.1,401.4,352.1,402z"/>
						<path class="st25" d="M382.2,317c-0.2-1.3-0.4-2.6-0.4-3.9c-0.1-1.2-0.2-2.5-0.4-4s-0.3-3-0.5-4.6l-0.3-2.3l-0.4-2.2
							c-0.2-1.5-0.5-2.8-0.7-3.9s-0.5-2.1-0.7-2.7l-0.3-1c0,0-0.1-0.4-0.3-1c-0.3-0.9-0.6-1.8-0.9-2.6c-1-2.6-2.4-5.1-4.2-7.3
							c-1.9-2.4-4.1-4.7-5.6-6.4c-0.8-0.9-1.4-1.6-1.9-2.1c-0.3-0.3-0.5-0.5-0.7-0.9c1,0.8,2,1.7,2.9,2.6c2.1,2,4.1,4,6,6.2
							s3.4,4.7,4.5,7.4c0.4,0.9,0.7,1.8,1,2.7c0.2,0.6,0.4,1,0.4,1l0.3,1.1c0.1,0.7,0.4,1.6,0.6,2.8s0.5,2.5,0.6,4
							c0.1,0.7,0.2,1.5,0.3,2.2s0.1,1.5,0.2,2.3c0.2,1.6,0.2,3.1,0.3,4.6s0.1,2.8,0.2,4C382.4,314.4,382.3,315.7,382.2,317z"/>
						<path class="st25" d="M384.7,333.7c-0.2,0-1.1-2.3-2.4-4.5l-1.8-3.1l-0.8-1.4c0,0-0.3-0.6-0.7-1.5c-0.2-0.5-0.4-1-0.6-1.6
							s-0.4-1.2-0.6-1.8l-0.3-1.1l-0.2-0.7c0.2,0,0.5,0,0.7,0h1h0.8c0.5,0,1.1,0.1,1.6,0.2c-0.5,0.2-1.1,0.2-1.6,0.2H379
							c-0.3,0-0.6,0-0.7,0h-0.2l0.1,0.2c0,0,0.2,0.5,0.2,0.7c0.6,1.6,1.3,3.1,2.1,4.6l0.7,1.4c0.4,0.9,1,2,1.5,3.2
							C383.8,330.2,384.4,331.9,384.7,333.7z"/>
						<path class="st25" d="M371.2,399.5c0-0.5,0.1-1,0.3-1.4l0.9-3.7c0.9-3,1.6-7.1,2.5-11.2c0.7-4.1,1.4-8.2,1.8-11.4
							s0.7-5.2,0.7-5.2l2.4-16.5c0.7-4.1,1.3-8.3,2-11.3l0.8-3.7c0.1-0.5,0.2-0.9,0.4-1.4c0,0.5,0,1-0.1,1.4
							c-0.1,0.9-0.3,2.2-0.5,3.8c-0.5,3.1-1,7.2-1.6,11.4c-1,8.3-2.1,16.6-2.1,16.6l-0.9,5.2c-0.5,3.1-1.3,7.2-2.1,11.4
							c-1,4.1-1.8,8.2-2.9,11.2l-1.1,3.6C371.5,398.6,371.4,399.1,371.2,399.5z"/>
						<path class="st17" d="M353.9,515.2c-0.4,0.2-0.8,0.3-1.2,0.5c-0.8,0.2-1.9,0.6-3.3,1c-2.7,0.8-6.4,1.7-10.1,2.4
							c-3.4,0.6-6.9,1.1-10.4,1.4c-1.4,0.2-2.6,0.2-3.4,0.2l-1.3,0.1h-1.3c-0.8,0-2,0-3.4-0.1c-3.5-0.2-6.9-0.7-10.4-1.4
							c-3.4-0.8-6.7-1.8-9.9-3.1c-1.3-0.5-2.4-1.1-3.1-1.4c-0.4-0.2-0.8-0.4-1.1-0.6c0-0.1,1.8,0.7,4.4,1.7c3.2,1.2,6.6,2.1,9.9,2.8
							c3.4,0.6,6.8,1,10.2,1.1c1.4,0.1,2.6,0,3.4,0h1.3h1.3c0.8,0,2,0,3.4-0.1c2.8-0.2,6.6-0.6,10.3-1.2s7.4-1.4,10.2-2l3.3-0.8
							C353.1,515.3,353.5,515.2,353.9,515.2z"/>
						<path class="st17" d="M408.1,507.8c-0.6,0.9-1.3,1.6-2.1,2.4c-1.7,1.6-3.5,3-5.5,4.2s-4.1,2.3-6.3,3.1
							c-0.9,0.4-1.6,0.6-2.2,0.8l-0.8,0.3l-0.8,0.2l-2.2,0.5c-2.3,0.4-4.6,0.7-6.9,0.8s-4.6-0.1-6.9-0.4c-0.8-0.1-1.5-0.3-2.2-0.5
							c-0.3,0-0.6-0.1-0.8-0.3c1,0,2.1,0.1,3.1,0.3c2.3,0.2,4.6,0.2,6.8,0.1c2.3-0.2,4.5-0.5,6.7-1l2.2-0.5l0.8-0.2l0.8-0.2
							c0.5-0.1,1.3-0.4,2.1-0.7c4.3-1.5,8.3-3.8,11.9-6.7C406.4,509.1,407.2,508.4,408.1,507.8z"/>
						<path class="st17" d="M307.2,405.7c-0.3,0.8-0.7,1.5-1.2,2.1c-1,1.5-2.2,2.8-3.6,4.1c-1.3,1.2-2.8,2.3-4.3,3.3
							c-0.6,0.4-1.2,0.7-1.5,0.9l-0.6,0.3c0,0-0.9,0.5-2.2,1.1s-3.1,1.3-5,2s-3.7,1.2-5.1,1.6c-0.8,0.3-1.6,0.5-2.4,0.6
							c-0.1-0.2,3.6-1.5,7.2-3c1.8-0.7,3.5-1.5,4.8-2.2s2.1-1.1,2.1-1.1l0.6-0.3c0.4-0.2,0.9-0.5,1.5-0.9c1.5-0.9,3-1.9,4.3-3
							c1.4-1.1,2.6-2.4,3.7-3.7C306.1,406.9,306.6,406.2,307.2,405.7z"/>
						<path class="st25" d="M318.5,416.1c0,0.8-0.2,1.7-0.4,2.5c-0.5,1.8-1.1,3.5-1.8,5.2c-0.7,1.7-1.6,3.3-2.5,4.9
							c-0.8,1.3-1.4,2.1-1.4,2.1s-0.6,0.8-1.6,2c-1.2,1.4-2.6,2.7-4,3.8c-1.4,1.2-3,2.1-4.8,2.8c-0.6,0.2-1.1,0.4-1.7,0.5
							c-0.4,0.1-0.7,0.1-0.7,0.1c0.7-0.4,1.5-0.7,2.2-1c1.6-0.8,3.1-1.8,4.4-3s2.6-2.5,3.7-3.9c0.9-1.1,1.5-1.9,1.5-1.9
							s0.6-0.8,1.4-2c2-3,3.6-6.2,4.8-9.6C317.8,417.6,318.1,416.9,318.5,416.1z"/>
						<path class="st25" d="M322.1,422.3c-0.1,0.8-0.3,1.6-0.6,2.3c-0.2,0.7-0.4,1.5-0.7,2.3l-1,2.6c-0.4,0.9-0.8,1.7-1.2,2.5
							c-0.4,0.7-0.8,1.4-1.2,2.1l-1.4,2l-0.1,0.1c-0.1,0.1-0.2,0.3-0.3,0.4l-1.2,1.3c-1.2,1.3-2.4,2.5-3.8,3.6
							c-1.5,1.2-3,2.3-4.1,3.1c-0.6,0.5-1.3,0.9-2,1.2c-0.1-0.1,2.9-2.4,5.6-4.9c1.2-1.2,2.4-2.4,3.5-3.7l1.1-1.3
							c0.1-0.1,0.2-0.2,0.3-0.4l0.1-0.1l1.4-1.9c0.5-0.6,0.9-1.3,1.3-2c0.5-0.8,0.9-1.6,1.3-2.4l1.2-2.5c0.4-0.8,0.6-1.6,0.9-2.2
							C321.4,423.7,321.7,422.9,322.1,422.3z"/>
						<path class="st32" d="M405.7,484.1c-2,12.9-6,24.9-14.2,24.7c-17.6-0.4-15.2-101.7-13.5-113.6s9.4-59.1,9.4-59.1l-4.1-11.9
							l1.6-3.7l-4.6-20.5l1.3,18.2l-4,0.4l7,15l-12.8,57.8c0,0,1.2-25,2-32.4s-0.8-48-1.2-55.8s-4.5-13.1-7.8-20.1
							c-1.4-2.9-0.5-6,1.1-8.7c-2.6-2.2-5.8-4.9-5.8-5.8l-0.8,15.2c4.7,4.6,7.9,10.5,9.3,16.9c2.1,10.6,1.4,221.8,1.4,221.8
							s7.5,7.8,24.4,1.8c5.3-2,10.1-4.9,14.4-8.6c1.5-1.4-0.7-14.9-0.9-17C407.3,493.9,406.5,489,405.7,484.1z"/>
						<path class="st32" d="M329.1,373.5c8.6,0.8,15.6,23.8,21.7,39.8c1.7,4.3,3.5,15.3,5.2,29c-0.9-39.7-2.1-82-3.1-97.5
							c-2.1-32.1-14.8-61.5-14.8-61.5l0.4-16c-1.1-0.1-2.2,0-3.3,0.3c-0.1,0.9-0.3,1.7-0.4,2.5c-0.8,4.9,6.6,20.9,9.4,31.2
							s10.3,69.3,6.6,72.2s-18.1-34.1-18.1-34.1l9.5-22.5l-6.6,0.8c0,0-4.1-5.7-6.6-25.4c-1-6.7-1-13.6-0.2-20.3
							c-2.4,3-4.3,6.4-5.5,10c0,0-6.3-2.6-16.8,4.2c2.3,3.2,4,6.7,4.9,10.5c3.7,14-20.9,52.5-36.5,57.4c-5.2,1.6-8-0.4-9.5-3.9
							c-1.6,5.4-2.4,9.4-2.8,11.2c-1.3,5.9,11.2,50,20.1,66.9c0,0,7.1-3.2,17.2-6.6c0,0-6.7,90.1-7.6,95.2c-0.9,5.1,33,20.1,65.4,7
							c0,0-0.5-27.1-1.3-60.5c-7.8,54.8-34.9,55.6-45.5,40.4S320.5,372.6,329.1,373.5z M304.1,394c0,0-10.9-29.5-10-33.6
							s10.6-26,10.6-26L304.1,394z"/>
						<path class="st33" d="M295.2,422.6c0,0,7.7,9.2,12.2,12c0,0,7.4-5.3,9.9-13.1L309,413C309,413,301.3,421.4,295.2,422.6z"/>
						<path class="st30" d="M313.2,417.4L309,413c0,0-7.7,8.3-13.8,9.5c0,0,2.9,3.5,6.1,6.8C305.4,425.5,309.5,421.5,313.2,417.4z"
							/>
					</g>
				</g>
			</g>
			<g id="_Group_">
				<g id="_Group_2">
					
						<ellipse id="_Path_" transform="matrix(0.9366 -0.3505 0.3505 0.9366 -60.3651 151.9121)" class="st30" cx="389.5" cy="242.7" rx="14" ry="9.4"/>
					<path id="_Path_2" class="st34" d="M391.2,202.8c0,0,24.6,5.6,0,19.4c0,0,1.6,7.1-3.3,19.5l-16.8-38.9L391.2,202.8L391.2,202.8
						z"/>
					<g id="_Group_3">
						<path id="_Path_3" class="st33" d="M311.6,238.3c4.2,27.4,29.1,47.3,50.4,44.1c21-3.2,27.8-27.6,26.6-55c0-0.3,0-0.6,0-0.9
							c-0.7-13.1-3.9-22.8-8.7-29.7c-9-13-23.5-16.1-37.4-14c-7.1,1.2-13.7,4.7-18.6,10c-1.4,1.4-2.7,3-3.8,4.6
							C312.7,207.8,309.2,222.6,311.6,238.3z"/>
						<path id="_Path_4" class="st30" d="M316.9,241.7c0,0,6-8,6.5-24.7c0,0,33.2,2.3,21.4-7.1c0.9,0.3,21,7.3,38.6,0.6
							c2.4,5.4,4.1,11,5.1,16.9c0-0.3,0-0.6,0-0.9c-0.7-13.1-3.9-22.8-8.7-29.7c-12.4-7.2-45.1-11.2-56-4c-0.9,0.6-1.7,1.3-2.3,2.1
							c-0.6,0.8-1.1,1.6-1.5,2.5C314,210.3,316.9,241.7,316.9,241.7z"/>
					</g>
					<g id="_Group_4">
						<path id="_Path_5" class="st34" d="M307.1,242.7l11.3,2.1c0,0,4.8-10.9,2.2-31.1c0,0,33.6,0.2,16.8-8.3
							c1.2,0.4,31.5,9.3,56.9-1.8c1.7-0.8,3.4-1.7,4.9-2.7c12.9-9,18.9-27.9-31-23.9c0,0,16.9-9.8,2.9-10.7
							c-13.4-0.8-56,5.2-65.5,21.6c-1.6,2.8-2.2,6-1.7,9.2C304,197.1,285.2,204.8,307.1,242.7z"/>
						<path id="_Path_6" class="st35" d="M305.6,187.9c4-2.7,15.5-9.9,29-11.9c16.9-2.5,31-4.7,25.2,3.2c0,0,57.7-3.4,39.4,21.6
							c12.9-9,18.9-27.9-31-23.9c0,0,16.9-9.8,2.9-10.7C357.7,165.4,315.1,171.4,305.6,187.9z"/>
					</g>
					
						<ellipse id="_Path_7" transform="matrix(0.2238 -0.9746 0.9746 0.2238 2.8515 495.6721)" class="st33" cx="312.6" cy="246" rx="9.4" ry="13.9"/>
				</g>
				<g id="_Group_5">
					<path id="_Path_8" class="st34" d="M310.9,230.7l10.1,2c0,0-0.7,16.6,7.9,27c5.1,6.2,8.5,5.5,8.5,5.5s2.1-12.6,6.1-14.5
						s29.8-1.7,32,2.9c2.2,4.5,1.8,12,1.8,12s12.1-5,11.4-32.2l2.1-0.7c0,0,2.3,44.6-11.1,51.8c0,0,5.8,3.7,1.2,6.4
						s-12.6-1.9-12.6-1.9s6.2,13.5-15-0.3c0,0,3.6,8.1-6.8,4.5s-24.7-19.7-28.7-30.4S310.9,230.7,310.9,230.7z"/>
				</g>
			</g>
			
				<radialGradient id="SVGID_5_" cx="1859.6663" cy="853.321" r="11.13" gradientTransform="matrix(-0.97 -8.000000e-02 -8.000000e-02 1 2223.6199 -476.97)" gradientUnits="userSpaceOnUse">
				<stop  offset="0" style="stop-color:#E98C4D"/>
				<stop  offset="0.84" style="stop-color:#E98C4D;stop-opacity:0"/>
			</radialGradient>
			<path class="st36" d="M366.8,209.5c0,0,7.5,2.6,0.6,11.6c-5.6,7.2-8.8,5.9-11.4,5.5c-4.6-0.7-11.5-4.8-11-11.2
				S357.2,208.7,366.8,209.5z"/>
			<g id="_Group_6">
				<g id="_Group_7">
					<path id="_Path_9" class="st37" d="M345.1,240.4c0,0,4.4-14.6-4.3-17.6s-15.4,7.6-14.6,10.7S331.4,245.3,345.1,240.4z"/>
					<path id="_Path_10" class="st27" d="M344.6,242c1.5-1.7,2.2-4.4,1.8-7.9s-2-6.7-5.5-7.9c-8.7-3-15.1,6.6-14.4,9.7
						c1.2,4.3,4.8,7.5,9.1,8.2C339.7,244.8,342.8,244,344.6,242z"/>
					<g id="_Group_8">
						<path id="_Path_11" class="st38" d="M345.8,237.6c-1.6,3.6-5.8,5.3-9.5,3.7c-0.1,0-0.1-0.1-0.2-0.1c-3.7-1.8-5.3-6.1-3.7-9.9
							c1.6-3.6,5.8-5.3,9.5-3.7c0.1,0,0.1,0.1,0.2,0.1C345.8,229.4,347.4,233.8,345.8,237.6z"/>
						<path id="_Path_12" class="st35" d="M343.4,236.4c-1,2.3-3.7,3.4-6,2.3c-0.1,0-0.1,0-0.1-0.1c-2.4-1.1-3.4-3.9-2.3-6.3
							c1-2.3,3.7-3.4,6-2.4c0.1,0,0.1,0,0.2,0.1C343.4,231.2,344.5,234,343.4,236.4z"/>
					</g>
					<path id="_Path_13" class="st39" d="M340.9,226.2c-8.7-3-15.1,6.6-14.4,9.7c0.9,3.4,3.4,6.2,6.6,7.5c-2.5-2.1-7.4-7.1-3-11.2
						c5.7-5.4,12.3-4.7,14.8,0.4c0.7,1.6,1.2,3.2,1.5,4.9C346.7,233.3,346,227.9,340.9,226.2z"/>
					<g id="_Group_9">
						<path id="_Path_14" class="st35" d="M346.7,236.1c0-0.7-0.2-1.5-0.3-2.2c-0.2-0.8-0.4-1.6-0.7-2.3c-0.4-0.9-0.9-1.7-1.5-2.4
							c-0.2-0.2-0.4-0.3-0.5-0.5l-0.3-0.3l-0.3-0.2l-0.6-0.4l-0.7-0.3l-0.4-0.2l-0.4-0.1l-0.8-0.2c-0.5-0.1-1.1-0.1-1.7-0.2
							l-1.8,0.1l-1,0.2l-0.9,0.2c-1.2,0.3-2.4,0.8-3.5,1.6c-1.1,0.7-2,1.6-2.8,2.7c-0.3,0.5-0.6,1.1-0.8,1.8
							c-0.2,0.6-0.3,1.2-0.3,1.9c0,1.2,0.4,2.4,1,3.4c0.6,0.9,1.3,1.8,2.1,2.5c0.7,0.6,1.4,1.2,2.2,1.7l1,0.6l0.9,0.5
							c0.5,0.3,0.9,0.5,1.2,0.7l0.4,0.2l-0.5-0.1c-0.4-0.1-0.9-0.2-1.3-0.3l-0.9-0.3c-0.3-0.1-0.7-0.3-1.1-0.4s-0.8-0.4-1.2-0.6
							s-0.9-0.5-1.3-0.8c-1-0.7-1.9-1.5-2.6-2.5c-1-1.3-1.5-2.9-1.6-4.5c0-0.9,0.1-1.9,0.3-2.8c0.2-0.9,0.6-1.8,1.1-2.6
							c0.9-1.4,2.1-2.6,3.5-3.6c1.3-0.8,2.6-1.4,4.1-1.7l1.1-0.2l1-0.1c0.7,0,1.4,0,2,0c0.6,0.1,1.3,0.2,1.9,0.3l0.9,0.3l0.4,0.2
							l0.4,0.2l0.8,0.5c0.2,0.2,0.5,0.4,0.7,0.6l0.3,0.3l0.3,0.4c0.2,0.2,0.4,0.5,0.6,0.7c0.6,1,1.1,2,1.3,3.1
							c0.2,0.9,0.3,1.7,0.4,2.6c0,0.6,0,1.1,0,1.7C346.7,235.9,346.7,236.1,346.7,236.1z"/>
					</g>
				</g>
			</g>
			
				<ellipse transform="matrix(1 -1.396261e-03 1.396261e-03 1 -0.333 0.4797)" class="st40" cx="343.4" cy="238.7" rx="2.9" ry="3"/>
			
				<ellipse transform="matrix(1 -1.396261e-03 1.396261e-03 1 -0.3228 0.4684)" class="st40" cx="335.3" cy="231.4" rx="1.8" ry="1.8"/>
			<g id="_Group_10">
				<g id="_Group_11">
					<path id="_Path_15" class="st37" d="M370.5,240.3c0,0-4.5-14.6,4.2-17.6s15.5,7.5,14.7,10.6S384.2,245.2,370.5,240.3z"/>
					<path id="_Path_16" class="st27" d="M371,242c-1.5-1.7-2.2-4.4-1.8-7.9s2-6.8,5.4-7.9c8.7-3,15.1,6.6,14.4,9.7
						c-1.2,4.3-4.7,7.5-9.1,8.3C375.9,244.8,372.8,244,371,242z"/>
					<g id="_Group_12">
						<path id="_Path_17" class="st38" d="M369.8,237.5c1.6,3.6,5.9,5.3,9.5,3.6c0.1,0,0.1-0.1,0.2-0.1c3.7-1.8,5.3-6.2,3.7-9.9
							c-1.6-3.6-5.9-5.3-9.5-3.6c-0.1,0-0.1,0.1-0.2,0.1C369.8,229.4,368.1,233.8,369.8,237.5z"/>
						<path id="_Path_18" class="st35" d="M372,236.4c1,2.3,3.8,3.4,6.1,2.3c0,0,0.1,0,0.1-0.1c2.4-1.1,3.4-3.9,2.4-6.3
							c-1-2.3-3.7-3.4-6.1-2.3c0,0-0.1,0-0.1,0.1C372,231.2,370.9,234,372,236.4z"/>
					</g>
					<path id="_Path_19" class="st39" d="M374.6,226.1c8.7-3,15.1,6.6,14.4,9.7c-0.9,3.4-3.3,6.2-6.6,7.6c2.5-2.1,7.3-7.1,3-11.2
						c-5.7-5.4-12.3-4.7-14.8,0.4c-0.7,1.6-1.2,3.2-1.5,4.9C368.9,233.3,369.6,227.9,374.6,226.1z"/>
					<g id="_Group_13">
						<path id="_Path_20" class="st35" d="M368.9,236c0-0.7,0.1-1.5,0.3-2.2c0.2-0.8,0.4-1.6,0.7-2.3c0.4-0.9,0.9-1.7,1.5-2.4
							c0.2-0.2,0.4-0.3,0.5-0.5l0.3-0.3l0.3-0.2l0.6-0.4l0.7-0.3l0.4-0.2l0.4-0.1l0.8-0.2c0.5-0.1,1.1-0.1,1.7-0.2l1.8,0.1l1,0.2
							l0.9,0.2c1.2,0.3,2.4,0.8,3.5,1.5s2.1,1.6,2.8,2.7c0.3,0.5,0.6,1.1,0.8,1.8c0.2,0.6,0.3,1.2,0.3,1.9c0,1.2-0.4,2.4-1,3.4
							c-0.6,0.9-1.3,1.8-2.1,2.5c-0.7,0.6-1.4,1.2-2.2,1.7l-1,0.6l-0.9,0.5c-0.5,0.3-0.9,0.5-1.2,0.7l-0.4,0.2l0.5-0.1
							c0.4-0.1,0.9-0.2,1.3-0.3l0.9-0.3c0.3-0.1,0.7-0.3,1.1-0.4s0.8-0.4,1.2-0.6s0.9-0.5,1.3-0.8c1-0.7,1.9-1.5,2.6-2.6
							c1-1.3,1.5-2.9,1.6-4.5c0-0.9-0.1-1.9-0.3-2.8c-0.2-0.9-0.6-1.7-1.1-2.5c-0.9-1.4-2.1-2.6-3.5-3.6c-1.3-0.8-2.6-1.4-4.1-1.7
							l-1.1-0.2l-1-0.1c-0.7,0-1.4,0-2,0c-0.6,0.1-1.3,0.2-1.9,0.4l-0.9,0.3l-0.4,0.2l-0.4,0.2l-0.8,0.5c-0.2,0.2-0.5,0.4-0.7,0.6
							l-0.3,0.3l-0.3,0.4c-0.2,0.2-0.4,0.5-0.6,0.7c-0.6,1-1.1,2-1.3,3.1c-0.2,0.9-0.3,1.7-0.4,2.6c0,0.6,0,1.1,0,1.7
							C368.9,235.9,368.9,236,368.9,236z"/>
					</g>
				</g>
			</g>
			<ellipse class="st40" cx="381" cy="238.6" rx="2.9" ry="3"/>
			
				<ellipse transform="matrix(1 -1.396261e-03 1.396261e-03 1 -0.3243 0.5205)" class="st40" cx="372.6" cy="232.5" rx="1.8" ry="1.8"/>
			<path class="st41" d="M364.4,245.1c-1.8,1.4-4.1,2.2-6.4,2.3c-2.3,0.3-4.6-0.6-6.1-2.3c0,0-1.6,1.6-0.6,3.1
				c1.6,1.8,3.7,3.3,6,4.1C358.3,252.5,366.8,248.9,364.4,245.1z"/>
			
				<ellipse transform="matrix(1 -1.396261e-03 1.396261e-03 1 -0.343 0.4988)" class="st42" cx="357.1" cy="245.9" rx="2" ry="0.9"/>
			<path class="st30" d="M360.5,247.6c0.3-0.2,0.7-0.2,1.1-0.2c0.6,0,1,0.3,1,0.5s-0.5,0.3-0.8,0.5c-0.2,0.1-0.5,0.3-0.6,0.5
				c-0.2,0.1-0.5,0.2-0.7,0.4c-0.4,0.2-0.6,0.6-0.8,0.6s-0.1-0.7,0.2-1.2C360,248.1,360.2,247.8,360.5,247.6z"/>
			<path class="st30" d="M352.3,247.3c0-0.2,0.5-0.3,0.9-0.2c0.3,0.1,0.6,0.2,0.9,0.3c0.2,0.2,0.4,0.5,0.6,0.8
				c0.2,0.4,0.4,1,0.2,1.1s-0.5-0.2-0.8-0.4c-0.2-0.1-0.4-0.3-0.7-0.4c-0.2-0.2-0.3-0.4-0.5-0.5
				C352.7,247.7,352.3,247.5,352.3,247.3z"/>
			<path class="st30" d="M362.4,248.2l0.9-0.9c0.1-0.1,0.2-0.2,0.3-0.4c0.1-0.1,0.1-0.2,0.2-0.3c0.1-0.3,0-0.7-0.1-1
				c-0.3-0.8-1.2-1.4-1.1-1.6s0.3,0,0.6,0.1c0.5,0.2,0.8,0.5,1.1,0.9c0.4,0.5,0.5,1.1,0.5,1.7c0,0.3-0.1,0.6-0.3,0.9
				c-0.2,0.2-0.3,0.4-0.5,0.5c-0.3,0.2-0.7,0.5-1.1,0.7c-0.8,0.5-1.6,1-1.7,0.8S361.7,248.9,362.4,248.2z"/>
			<path class="st30" d="M350.5,246.9c0,0,0-0.1,0.1-0.6c0.1-0.2,0.2-0.4,0.3-0.6c0.1-0.2,0.2-0.4,0.4-0.5c0.5-0.7,1.1-1.3,1.2-1.1
				s-0.2,0.9-0.5,1.6l-0.2,0.6c-0.1,0.1-0.1,0.3-0.1,0.4v0.5c0,0.1,0,0.1,0,0.2c0.1,0.3,0.2,0.5,0.4,0.6c0.5,0.5,1.2,1.1,1.1,1.3
				s-0.8-0.1-1.5-0.5c-0.4-0.2-0.8-0.6-1-1C350.6,247.5,350.5,247.2,350.5,246.9z"/>
			<path class="st30" d="M353.7,244.6c0-0.2,0.8-0.7,1.8-1c1.2-0.5,2.6-0.5,3.9,0.1c0.9,0.3,1.8,0.8,1.7,1s-1,0-1.9-0.1
				c-1.2,0-2.4,0-3.6,0C354.7,244.6,353.8,244.8,353.7,244.6z"/>
			<path class="st43" d="M340.5,223c0,0.1,0.9,0.5,1.7,1.1c1,0.8,2,1.8,2.8,2.8c0.6,0.8,1,1.7,1.1,1.7c-0.1-0.7-0.4-1.3-0.7-1.9
				c-0.7-1.2-1.7-2.2-2.9-2.9C341.9,223.4,341.2,223.1,340.5,223z"/>
			<path class="st43" d="M342,222.2c0,0.1,0.8,0.5,1.4,1.1c0.9,0.8,1.6,1.8,2.2,2.8c0.5,0.8,0.7,1.6,0.8,1.6c0-0.6-0.2-1.2-0.4-1.8
				c-0.5-1.2-1.3-2.2-2.3-2.9C343.2,222.6,342.6,222.3,342,222.2z"/>
			<path class="st43" d="M368.9,230c0.1,0,0.4-1,0.9-2c0.7-1.3,1.4-2.5,2.3-3.7c0.7-0.9,1.5-1.6,1.5-1.7c-0.7,0.4-1.3,0.8-1.8,1.4
				c-1.1,1.1-1.9,2.4-2.4,3.8C369.1,228.5,368.9,229.3,368.9,230z"/>
			<path class="st43" d="M369.3,226.2c0.1,0,0.3-0.4,0.6-0.9s0.6-0.9,0.6-0.9s0.3-0.4,0.6-0.9s0.6-0.9,0.6-0.9s-0.5,0.3-0.9,0.6
				c-0.6,0.5-1,1.1-1.2,1.8C369.4,225.4,369.3,225.8,369.3,226.2z"/>
			<path class="st35" d="M386.4,220.7c-0.2,0-0.4-0.1-0.6-0.2c-1.5-0.6-2.8-1.4-4.3-1.8c-1.9-0.5-3.8-0.7-5.7-0.6
				c-1.7,0.1-4.3,1-5.8,0.1c-1.8-1.1-2-4.4,0.4-5.1c0.1,0.5,0.9,1.8,0.9,2.1c0.1-0.6,0-2.1,0.4-2.5s1.8-0.3,2.4-0.3
				c1.7,0,3.4,0.2,5,0.7c3.7,0.8,6.9,2.9,9,6C389.1,220.7,387.5,220.9,386.4,220.7z"/>
			<path class="st44" d="M376.2,212.5L376.2,212.5c0.3,0.9,0.6,1.9,0.6,1.9s0.2,1,0.2,1.9c0,0.6,0,1.2,0,1.8h-0.1
				c-0.1-0.3-0.2-1-0.3-1.7c-0.2-0.9-0.4-1.9-0.4-1.9s-0.2-0.9-0.4-1.9v-0.2L376.2,212.5z M378.6,218.1h0.2c0.1-0.4,0.2-0.9,0.2-1.4
				c0.1-0.7,0-1.5-0.1-2.2c-0.1-0.6-0.3-1.2-0.5-1.7l-0.5-0.1c0.2,0.6,0.4,1.3,0.5,1.9C378.6,215.8,378.7,217,378.6,218.1
				L378.6,218.1z M370.3,213L370.3,213c-0.1,0.1-0.1,0.2-0.1,0.2c0,0.6,0,1.3,0.1,1.9c0.1,0.5,0.1,0.9,0.1,0.9
				c0.2,0.8,0.6,1.7,1,2.4h0.5l0,0c-0.4-0.8-0.7-1.6-0.9-2.5c-0.2-0.7-0.3-1.5-0.3-2.2C370.5,213.5,370.4,213.3,370.3,213L370.3,213
				z M385,220.1l0.2,0.1c0.2-0.3,0.3-0.7,0.4-1.1c0.1-0.5,0.2-1,0.3-1.6c0-0.4,0-0.8-0.1-1.1c-0.2-0.1-0.3-0.3-0.5-0.4l0,0
				c0,0.5,0,1,0,1.5s0,1-0.1,1.5C385.1,219.5,385,219.9,385,220.1L385,220.1z M375.7,217.7c0-1.1-0.1-2.3-0.3-3.4c0,0-0.2-1-0.4-1.9
				h-0.4c0.1,0.9,0.3,2,0.3,2C375,215.5,375.3,216.6,375.7,217.7L375.7,217.7z M383.2,216.5c0.1,0.6,0.1,1.1,0,1.7
				c0,0.3-0.1,0.7-0.2,1l0.2,0.1c0.2-0.3,0.3-0.7,0.4-1c0.3-1.2,0.3-2.4-0.2-3.5l0,0l-0.5-0.3c0,0.1,0.1,0.3,0.1,0.4
				C383.1,215.5,383.2,216,383.2,216.5L383.2,216.5z"/>
			<path class="st44" d="M381.4,218.6c-1.9-0.5-3.8-0.7-5.7-0.6c-1.7,0.1-4.3,1-5.8,0.1c-1.1-0.8-1.6-2.2-1.2-3.6
				c0.6,1.6,2.7,2.3,5.2,1.8c3.1-0.7,7.1,1.4,10.6,1.7c1.4,0.2,1.7-0.5,1.5-1.4c0.8,0.7,1.4,1.5,2,2.4c1.1,1.7-0.5,1.8-1.6,1.6
				c-0.2,0-0.4-0.1-0.6-0.2C384.3,219.9,382.9,219.1,381.4,218.6z"/>
			<path class="st35" d="M329.1,220.7c0.2,0,0.4-0.1,0.6-0.2c1.5-0.6,2.8-1.4,4.3-1.8c1.9-0.5,3.8-0.7,5.7-0.6
				c1.7,0.1,4.3,1,5.8,0.1c1.8-1.1,2-4.4-0.4-5.1c-0.1,0.5-0.9,1.8-0.9,2.1c-0.1-0.6,0-2.1-0.4-2.5s-1.8-0.3-2.4-0.3
				c-1.7,0-3.4,0.2-5,0.7c-3.7,0.8-6.9,2.9-9,6C326.3,220.7,327.9,220.9,329.1,220.7z"/>
			<path class="st44" d="M339.2,215.2c0,0,0-0.9,0-1.8c0-0.3,0-0.7,0.1-1h0.3c0,0.3,0,0.6,0.1,1l0.2,1.7l0.1,1.7
				c0,0.4,0,0.8,0.1,1.1h-0.2c-0.1-0.3-0.1-0.7-0.2-1.1C339.2,216.1,339.2,215.2,339.2,215.2z M333.8,218.7c0-0.6-0.1-1.2-0.3-1.8
				c-0.2-0.7-0.4-1.3-0.6-2c0,0-0.1-0.2-0.2-0.5l-0.5,0.2l0.2,0.4c0,0,0.4,0.9,0.8,1.9c0.2,0.7,0.4,1.4,0.5,1.7L333.8,218.7z
				 M331.2,215.3c0.2,0.8,0.4,1.5,0.4,1.5s0.3,0.9,0.6,1.8l0.2,0.6l0.3-0.1c0-0.2-0.1-0.4-0.1-0.6c-0.2-1-0.4-1.9-0.4-1.9
				s-0.3-0.8-0.6-1.6L331.2,215.3z M343.6,218.5h0.4l0.3-0.4c0.4-0.6,0.7-1.3,0.9-2c0.2-0.7,0.3-1.4,0.3-2.2c0-0.3,0-0.5,0-0.8
				l-0.3-0.1c0,0.3,0,0.6,0,0.9c-0.1,0.7-0.2,1.4-0.4,2c-0.2,0.7-0.4,1.4-0.7,2C343.8,218.1,343.7,218.3,343.6,218.5L343.6,218.5z
				 M341.5,218.3h0.2c0.1-0.4,0.3-0.9,0.5-1.4c0.3-1,0.5-2,0.5-2s0.2-1,0.2-2c0-0.2,0-0.4,0-0.5h-0.3c0,0.2,0,0.3-0.1,0.5l-0.4,2
				l-0.3,2C341.7,217.4,341.6,217.9,341.5,218.3L341.5,218.3z M338,218.1h0.4c-0.2-1-0.3-2-0.3-2s-0.2-1.1-0.4-2.2
				c-0.1-0.4-0.1-0.8-0.2-1.1l-0.3,0.1c0,0.3,0,0.7,0,1.1c0.1,1.1,0.2,2.2,0.2,2.2S337.8,217.1,338,218.1L338,218.1z"/>
			<path class="st44" d="M329.1,220.7c-1.2,0.2-2.7,0.1-1.6-1.6c0.8-1.2,1.7-2.2,2.8-3.1c-0.5,1-1.3,3-0.1,2.9
				c1.5-0.1,4.8-3,10.3-2.3c4.5,0.6,6-1,6.4-1.7c0.2,1.2-0.3,2.5-1.3,3.2c-1.5,1-4.1,0-5.8-0.1c-1.9-0.1-3.8,0.1-5.7,0.6
				c-1.5,0.4-2.8,1.3-4.3,1.8C329.5,220.6,329.3,220.6,329.1,220.7z"/>
			<path class="st33" d="M345,243.1c0,0-1.3-1.2-1.4-1.3c-1.2-1-2.5-1.9-4-2.5c-2-0.8-4.1-1.1-6.3-0.9c-1.3,0.2-2.6,0.5-3.8,1
				c-0.9,0.4-2.8,0.9-2,2c0.6,0.8,2.9,1.6,3.7,2.1C335.9,246.4,340.6,245.2,345,243.1z"/>
			<path class="st33" d="M387.9,240.9c0,0-1.5-0.9-1.6-0.9c-1.4-0.7-3-1.1-4.5-1.3c-2.1-0.3-4.3,0-6.3,0.7c-1.2,0.5-2.4,1.1-3.5,1.9
				c-0.8,0.6-2.5,1.6-1.5,2.4c0.8,0.6,3.2,0.8,4.2,1.1C380,246.4,384.2,244.1,387.9,240.9z"/>
			
				<radialGradient id="SVGID_6_" cx="1860.266" cy="635.35" r="8.35" gradientTransform="matrix(-0.97 0 0 1 2195.2 -392.17)" gradientUnits="userSpaceOnUse">
				<stop  offset="0" style="stop-color:#E98C4D"/>
				<stop  offset="0.84" style="stop-color:#E98C4D;stop-opacity:0"/>
			</radialGradient>
			<path class="st45" d="M389.2,242.1c0,0,5.8,1.5,1.2,8.6c-3.7,5.8-6.2,4.9-8.1,4.8c-3.5-0.2-8.9-2.9-8.9-7.7
				S382,242.1,389.2,242.1z"/>
			
				<radialGradient id="SVGID_7_" cx="1521.9259" cy="1801.2118" r="8.35" gradientTransform="matrix(-0.9 -0.39 -0.38 0.92 2363.2502 -828.7)" gradientUnits="userSpaceOnUse">
				<stop  offset="0" style="stop-color:#E98C4D"/>
				<stop  offset="0.84" style="stop-color:#E98C4D;stop-opacity:0"/>
			</radialGradient>
			<path class="st46" d="M340.6,244.1c0,0,4.8,3.7-2.2,8.4c-5.6,3.8-7.6,2.1-9.3,1.2c-3.1-1.6-7.1-6.2-5.3-10.6
				S333.9,241.2,340.6,244.1z"/>
			<g>
				<path class="st43" d="M337.7,238.8c0,0.1,1,0.4,2,0.8c1.3,0.6,2.5,1.4,3.6,2.3c0.8,0.7,1.5,1.5,1.6,1.5
					c-0.3-0.7-0.8-1.3-1.3-1.8c-1-1.1-2.3-1.9-3.7-2.4C339.1,239,338.4,238.9,337.7,238.8z"/>
				<path class="st43" d="M338,240.4c0.4,0.2,0.8,0.4,1.3,0.5c0.6,0.2,1.2,0.5,1.2,0.5s0.6,0.2,1.2,0.6c0.4,0.2,0.8,0.5,1.2,0.6
					c0-0.1-0.4-0.6-1-1c-0.7-0.6-1.6-1-2.5-1.1C339,240.4,338.5,240.3,338,240.4z"/>
				<path class="st43" d="M369.8,243c0.6-0.2,1.1-0.4,1.6-0.8c0.7-0.5,1.4-1,1.4-1c0.4-0.4,0.9-0.7,1.3-1c0.7-0.5,1.5-0.7,1.5-0.8
					c-0.6,0-1.2,0.1-1.7,0.4c-0.5,0.3-1,0.6-1.5,1l-1.3,1.2C370.5,242.5,369.8,243,369.8,243z"/>
				<path class="st43" d="M372.2,242.9c0.1,0.1,0.4-0.2,0.7-0.4s0.7-0.4,0.7-0.4s0.3-0.2,0.6-0.4s0.7-0.4,0.7-0.4s-0.4,0-0.8,0.1
					c-0.5,0.1-1,0.4-1.4,0.9C372.4,242.5,372.1,242.9,372.2,242.9z"/>
			</g>
			<path class="st27" d="M347.2,258.9c2.5,3.4,7.8,4,11.7,3.4c2.4-0.4,7-1.8,7.6-4.5c0-0.2,0-0.3-0.2-0.4c-0.1,0-0.2,0-0.2,0
				c-2.1,1.2-3.9,2.8-6.3,3.4c-3.8,1-9.3,0.5-12.2-2.2C347.4,258.5,347.1,258.7,347.2,258.9L347.2,258.9z"/>
			<path class="st47" d="M215.1,395.5h-25.6c-1.8,0-3.2,1.4-3.2,3.2c0,1.7,1.4,3.2,3.2,3.2h25.6c1.8,0,3.2-1.4,3.2-3.2
				S216.9,395.5,215.1,395.5z"/>
			<path class="st48" d="M194.2,395.9H178c1.1,1.7,1.1,3.9,0,5.6h16.2c1.5,0,2.8-1.3,2.8-2.8S195.7,395.9,194.2,395.9z"/>
			<path class="st38" d="M194.2,401.9h-18.3v-0.8h18.3c1.3,0,2.4-1.1,2.4-2.4s-1.1-2.4-2.4-2.4h-18.3v-0.8h18.3
				c1.8,0,3.2,1.4,3.2,3.2C197.3,400.5,195.9,401.9,194.2,401.9L194.2,401.9z"/>
			<path class="st47" d="M222.4,409.9h-39.1c-2.2,0-4,1.8-4,4s1.8,4,4,4h39.1c2.2,0,4-1.8,4-4S224.6,409.9,222.4,409.9z"/>
			<path class="st48" d="M189.1,410.4h-20.6c1.4,2.1,1.4,4.9,0,7.1h20.6c2-0.1,3.5-1.8,3.3-3.7C192.4,411.9,190.9,410.5,189.1,410.4
				z"/>
			<path class="st38" d="M189.1,417.9H166v-1h23.1c1.7,0,3.1-1.4,3.1-3.1s-1.4-3.1-3.1-3.1H166v-1h23.1c2.2,0,4,1.8,4,4s-1.8,4-4,4
				V417.9z"/>
			<path class="st23" d="M178.4,417.9h32.5c2.2,0,4,1.8,4,4s-1.8,4-4,4h-32.5c-2.2,0-4-1.8-4-4S176.2,417.9,178.4,417.9z"/>
			<path class="st49" d="M205,418.4h20.6c-1.4,2.1-1.4,4.9,0,7.1H205c-2,0.1-3.6-1.4-3.7-3.3s1.4-3.6,3.3-3.7
				C204.7,418.4,204.9,418.4,205,418.4z"/>
			<path class="st50" d="M205,426h23.1v-1H205c-1.7,0-3.1-1.4-3.1-3.1s1.4-3.1,3.1-3.1h23.1v-1H205c-2.2,0-4,1.8-4,4s1.8,4,4,4V426z
				"/>
			<path class="st28" d="M228.2,426h-32.5c-2.2,0-4,1.8-4,4s1.8,4,4,4h32.5c2.2,0,4-1.8,4-4S230.4,426,228.2,426L228.2,426z"/>
			<path class="st27" d="M201.6,426.5H181c1.4,2.1,1.4,4.9,0,7.1h20.6c2,0.1,3.6-1.4,3.7-3.3s-1.4-3.6-3.3-3.7
				C201.9,426.5,201.7,426.5,201.6,426.5z"/>
			<path class="st32" d="M201.6,434h-23.2v-1h23.2c1.7,0,3.1-1.4,3.1-3.1s-1.4-3.1-3.1-3.1h-23.2v-1h23.2c2.2,0,4,1.8,4,4
				s-1.8,4-4,4V434z"/>
			<path class="st47" d="M171.6,434h37.1c1.8,0,3.2,1.4,3.2,3.2s-1.4,3.2-3.2,3.2h-37.1c-1.8,0-3.2-1.4-3.2-3.2S169.9,434,171.6,434
				z"/>
			<path class="st48" d="M204.1,434.4h25.4c-1.1,1.7-1.1,4,0,5.7h-25.4c-1.6,0-2.8-1.3-2.8-2.8C201.2,435.7,202.5,434.4,204.1,434.4
				z"/>
			<path class="st38" d="M204.1,440.5h27.5v-0.8h-27.5c-1.4,0.1-2.5-0.9-2.6-2.3s0.9-2.5,2.3-2.6c0.1,0,0.2,0,0.3,0h27.5V434h-27.5
				c-1.8,0-3.2,1.4-3.2,3.2S202.3,440.4,204.1,440.5L204.1,440.5z"/>
			<path class="st51" d="M183.7,401.9h32.5c2.2,0,4,1.8,4,4s-1.8,4-4,4h-32.5c-2.2,0-4-1.8-4-4S181.5,401.9,183.7,401.9z"/>
			<path class="st49" d="M210.2,402.4h20.6c-1.4,2.1-1.4,4.9,0,7.1h-20.6c-2-0.1-3.5-1.8-3.3-3.7C207,403.9,208.4,402.4,210.2,402.4
				z"/>
			<path class="st25" d="M210.2,409.9h23.1v-1h-23.1c-1.7,0-3.1-1.4-3.1-3.1s1.4-3.1,3.1-3.1h23.1v-1h-23.1c-2.2,0-4,1.8-4,4
				s1.8,4,4,4V409.9z"/>
			
				<linearGradient id="SVGID_8_" gradientUnits="userSpaceOnUse" x1="280.3" y1="764.36" x2="280.3" y2="770.09" gradientTransform="matrix(1 0 0 1 0 -392)">
				<stop  offset="0" style="stop-color:#FFFFFF"/>
				<stop  offset="1" style="stop-color:#E0DFBF"/>
			</linearGradient>
			<path class="st52" d="M290.4,375.7h-20.2c-1,0-1.8-0.8-1.8-1.8l0,0l0,0c0-1,0.8-1.8,1.8-1.8l0,0h20.2c1,0,1.8,0.8,1.8,1.8l0,0
				l0,0C292.1,374.9,291.3,375.7,290.4,375.7L290.4,375.7z"/>
			<path class="st53" d="M289.9,392.9v-17.3H288v18.5l1.1,0.5c11.6,4.9,17.1,18.3,12.1,29.9c-4.9,11.6-18.3,17.1-29.9,12.1
				s-17.1-18.3-12.1-29.9c2.3-5.5,6.7-9.8,12.1-12.1l1.1-0.5v-18.5h-1.9v17.3c-12.6,5.3-18.5,19.8-13.1,32.4
				c5.3,12.6,19.8,18.5,32.4,13.1s18.5-19.8,13.1-32.4C300.5,400.2,295.8,395.5,289.9,392.9L289.9,392.9z"/>
			<path class="st54" d="M271.4,394.7c-11.6,4.9-17.1,18.3-12.1,29.9c4.9,11.6,18.3,17.1,29.9,12.1s17.1-18.3,12.1-29.9
				c-2.3-5.5-6.7-9.8-12.1-12.1l-1.1-0.5v-18.5h-15.5v18.5L271.4,394.7z"/>
			<path class="st48" d="M271.4,394.7c-11.6,4.9-17.1,18.3-12.1,29.9c4.9,11.6,18.3,17.1,29.9,12.1s17.1-18.3,12.1-29.9
				c-2.3-5.5-6.7-9.8-12.1-12.1l-1.1-0.5v-18.5h-15.5v18.5L271.4,394.7z"/>
			<path class="st38" d="M279.1,411.7c-11.2-3.8-17.6-3.2-20.9-2.3c-3.5,12.1,3.5,24.8,15.6,28.3s24.8-3.5,28.3-15.6
				c1-3.3,1.1-6.8,0.5-10.2C295.1,414.5,286.8,414.4,279.1,411.7z"/>
			<circle class="st55" cx="275.8" cy="404.6" r="2.5"/>
			<circle class="st55" cx="286.9" cy="401.4" r="1.4"/>
			<circle class="st28" cx="285.5" cy="427.6" r="1.4"/>
			<circle class="st28" cx="267.8" cy="419.2" r="0.9"/>
			<circle class="st28" cx="282" cy="417" r="0.6"/>
			<circle class="st28" cx="297.3" cy="423.1" r="0.6"/>
			<circle class="st55" cx="280" cy="391.5" r="0.8"/>
			<path class="st53" d="M275.2,422.5l-16.5-35.9v-30.1h-2.3v30.6l16.7,36.4c2.4,5.2,0.1,11.3-5.1,13.7c-1.4,0.6-2.8,0.9-4.3,0.9
				H230c-5.7,0-10.3-4.6-10.3-10.3c0-1.5,0.3-3,0.9-4.3l16.7-36.4v-30.6H235v30.1l-16.5,35.9c-2.9,6.3-0.1,13.8,6.2,16.8
				c1.7,0.8,3.4,1.1,5.3,1.1h33.7c7,0,12.6-5.7,12.6-12.6C276.3,426,275.9,424.2,275.2,422.5z"/>
			<path class="st48" d="M220.6,423.5c-2.4,5.2-0.1,11.3,5.1,13.7c1.3,0.6,2.8,0.9,4.3,0.9h33.7c5.7,0,10.3-4.6,10.3-10.3
				c0-1.5-0.3-3-0.9-4.3l-16.7-36.4v-30.6h-19v30.6L220.6,423.5z"/>
			
				<linearGradient id="SVGID_9_" gradientUnits="userSpaceOnUse" x1="246.9" y1="748.61" x2="246.9" y2="754.71" gradientTransform="matrix(1 0 0 1 0 -392)">
				<stop  offset="0" style="stop-color:#FFFFFF"/>
				<stop  offset="1" style="stop-color:#E0DFBF"/>
			</linearGradient>
			<path class="st56" d="M259.3,360.9h-24.8c-1.2,0-2.2-1-2.2-2.2l0,0l0,0c0-1.2,1-2.2,2.2-2.2l0,0h24.8c1.2,0,2.2,1,2.2,2.2l0,0
				l0,0C261.5,359.9,260.5,360.9,259.3,360.9z"/>
			<path class="st24" d="M266.4,409c-4.2,1.1-10,1.1-17.2-2.4c-6.7-3.3-14.2-3.1-19.8-2.1l-8.7,19c-2.4,5.2-0.1,11.3,5.1,13.7
				c1.3,0.6,2.8,0.9,4.3,0.9h33.7c5.7,0,10.3-4.6,10.3-10.3c0-1.5-0.3-3-0.9-4.3L266.4,409z"/>
			<circle class="st32" cx="243.3" cy="392.3" r="2.3"/>
			<circle class="st32" cx="254.6" cy="402.4" r="1.7"/>
			<g>
				<circle class="st32" cx="243.9" cy="416.1" r="1.7"/>
				<circle class="st32" cx="260.3" cy="429.8" r="0.4"/>
				<circle class="st32" cx="232.2" cy="433" r="0.4"/>
				<circle class="st32" cx="233.4" cy="411.1" r="0.4"/>
				<circle class="st32" cx="255" cy="415.6" r="0.2"/>
				<circle class="st32" cx="228.9" cy="424.8" r="1"/>
				<circle class="st32" cx="249.5" cy="428.9" r="0.7"/>
				<circle class="st32" cx="262.8" cy="420" r="0.5"/>
			</g>
			<circle class="st32" cx="249.5" cy="377.6" r="1"/>
			<path class="st23" d="M396.6,330.2H510c7.7,0,13.9,6.2,13.9,13.9v61.5c0,7.7-6.2,13.9-13.9,13.9H396.6c-7.7,0-13.9-6.2-13.9-13.9
				v-61.5C382.7,336.5,388.9,330.2,396.6,330.2z"/>
			
				<linearGradient id="SVGID_10_" gradientUnits="userSpaceOnUse" x1="416.6624" y1="710.0954" x2="485.3124" y2="808.2354" gradientTransform="matrix(1 0 0 1 0 -392)">
				<stop  offset="0" style="stop-color:#F2F7FA"/>
				<stop  offset="0.99" style="stop-color:#EDECD1"/>
			</linearGradient>
			<path class="st57" d="M519.7,342.3v56.2c0,4.2-3.4,7.6-7.6,7.6H394.4c-4.2,0-7.6-3.4-7.6-7.6v-56.2c0-4.2,3.4-7.6,7.6-7.6h117.7
				C516.3,334.7,519.7,338.1,519.7,342.3z"/>
			<rect x="424" y="419.5" class="st58" width="58.4" height="17.6"/>
			<path class="st23" d="M482.2,440.5h-58c-1.6,0-2.8-1.3-2.8-2.8l0,0l0,0c0-1.6,1.3-2.8,2.8-2.8l0,0h58c1.6,0,2.8,1.3,2.8,2.8l0,0
				l0,0C485.1,439.2,483.8,440.5,482.2,440.5L482.2,440.5z"/>
			
				<linearGradient id="SVGID_11_" gradientUnits="userSpaceOnUse" x1="421.67" y1="778.65" x2="529.15" y2="778.65" gradientTransform="matrix(1 0 0 1 0 -392)">
				<stop  offset="0" style="stop-color:#FFFFFF"/>
				<stop  offset="1" style="stop-color:#E0DFBF"/>
			</linearGradient>
			<rect x="438.1" y="385" class="st59" width="72" height="3.3"/>
			
				<linearGradient id="SVGID_12_" gradientUnits="userSpaceOnUse" x1="474.1017" y1="817.54" x2="474.1017" y2="828.78" gradientTransform="matrix(1 0 0 1 0 -392)">
				<stop  offset="0" style="stop-color:#FFFFFF"/>
				<stop  offset="1" style="stop-color:#E0DFBF"/>
			</linearGradient>
			<path class="st60" d="M518.5,431h-88.8c0-2.8,2.2-5,5-5h78.8C516.4,426,518.6,428.2,518.5,431L518.5,431z"/>
			<path class="st61" d="M449.5,424.1L449.5,424.1c-3.8,0-6.9-3.1-6.9-6.9l0,0v-41.4h13.7v41.4C456.4,421.1,453.3,424.1,449.5,424.1
				L449.5,424.1z"/>
			<path class="st24" d="M449.5,422.5L449.5,422.5c-3,0-5.5-2.5-5.5-5.5v-21.1h11.1V417C455.1,420.1,452.6,422.6,449.5,422.5
				L449.5,422.5z"/>
			<path class="st38" d="M447.7,367.9h3.7c2.8,0,5,2.2,5,5l0,0l0,0h-13.7l0,0l0,0C442.7,370.1,444.9,367.9,447.7,367.9z"/>
			
				<linearGradient id="SVGID_13_" gradientUnits="userSpaceOnUse" x1="441.85" y1="766.5" x2="457.18" y2="766.5" gradientTransform="matrix(1 0 0 1 0 -392)">
				<stop  offset="0" style="stop-color:#FFFFFF"/>
				<stop  offset="1" style="stop-color:#E0DFBF"/>
			</linearGradient>
			<rect x="441.9" y="373" class="st62" width="15.3" height="3"/>
			<g class="st63">
				<circle class="st27" cx="448.4" cy="409.9" r="0.4"/>
				<circle class="st27" cx="452.2" cy="401.3" r="0.3"/>
				<circle class="st27" cx="451.8" cy="414.4" r="1.2"/>
				<circle class="st27" cx="446.4" cy="416.8" r="0.7"/>
				<circle class="st27" cx="446.8" cy="404.4" r="0.4"/>
				<circle class="st27" cx="452" cy="406.5" r="0.1"/>
			</g>
			<path class="st61" d="M467.3,375.9H481l0,0v41.4c0,3.8-3.1,6.9-6.9,6.9l0,0l0,0c-3.8,0-6.9-3.1-6.9-6.9l0,0L467.3,375.9
				L467.3,375.9z"/>
			<path class="st32" d="M468.6,387h11.1l0,0v30c0,3.1-2.5,5.6-5.6,5.6l0,0c-3.1,0-5.6-2.5-5.6-5.6v-30H468.6z"/>
			<path class="st38" d="M472.3,367.9h3.7c2.8,0,5,2.2,5,5l0,0l0,0h-13.7l0,0l0,0C467.3,370.1,469.5,367.9,472.3,367.9z"/>
			
				<linearGradient id="SVGID_14_" gradientUnits="userSpaceOnUse" x1="466.5" y1="766.5" x2="481.83" y2="766.5" gradientTransform="matrix(1 0 0 1 0 -392)">
				<stop  offset="0" style="stop-color:#FFFFFF"/>
				<stop  offset="1" style="stop-color:#E0DFBF"/>
			</linearGradient>
			<rect x="466.5" y="373" class="st64" width="15.3" height="3"/>
			<g class="st63">
				<circle class="st27" cx="473.2" cy="409.9" r="0.4"/>
				<circle class="st27" cx="477" cy="401.3" r="0.3"/>
				<circle class="st27" cx="476.6" cy="414.4" r="1.2"/>
				<circle class="st27" cx="472.8" cy="395.5" r="0.6"/>
				<circle class="st27" cx="471.2" cy="416.8" r="0.7"/>
				<circle class="st27" cx="471.6" cy="404.4" r="0.4"/>
				<circle class="st27" cx="477.3" cy="391.7" r="0.4"/>
				<circle class="st27" cx="476.8" cy="406.5" r="0.1"/>
			</g>
			<path class="st61" d="M498.8,424.1L498.8,424.1c-3.8,0-6.9-3.1-6.9-6.9l0,0v-41.4h13.7v41.4C505.7,421.1,502.6,424.1,498.8,424.1
				L498.8,424.1z"/>
			<path class="st38" d="M498.8,422.5L498.8,422.5c-3.1,0-5.6-2.5-5.6-5.6v-20.3h11.1V417C504.3,420.1,501.9,422.5,498.8,422.5z"/>
			<g class="st63">
				<circle class="st27" cx="499.8" cy="409.9" r="0.4"/>
				<circle class="st27" cx="496" cy="401.3" r="0.3"/>
				<circle class="st27" cx="496.3" cy="414.4" r="1.2"/>
				<circle class="st27" cx="501.7" cy="416.8" r="0.7"/>
				<circle class="st27" cx="501.3" cy="404.4" r="0.4"/>
				<circle class="st27" cx="496.2" cy="406.5" r="0.1"/>
			</g>
			<path class="st38" d="M496.9,367.9h3.7c2.8,0,5,2.2,5,5l0,0l0,0h-13.7l0,0l0,0C491.9,370.1,494.2,367.9,496.9,367.9z"/>
			
				<linearGradient id="SVGID_15_" gradientUnits="userSpaceOnUse" x1="491.13" y1="766.5" x2="506.46" y2="766.5" gradientTransform="matrix(1 0 0 1 0 -392)">
				<stop  offset="0" style="stop-color:#FFFFFF"/>
				<stop  offset="1" style="stop-color:#E0DFBF"/>
			</linearGradient>
			<rect x="491.1" y="373" class="st65" width="15.3" height="3"/>
			
				<linearGradient id="SVGID_16_" gradientUnits="userSpaceOnUse" x1="437" y1="773.57" x2="437" y2="818.69" gradientTransform="matrix(1 0 0 1 0 -392)">
				<stop  offset="0" style="stop-color:#FFFFFF"/>
				<stop  offset="1" style="stop-color:#E0DFBF"/>
			</linearGradient>
			<path class="st66" d="M439,426h-4v-41.9c0-1.1,0.9-2,2-2l0,0c1.1,0,2,0.9,2,2V426z"/>
			
				<linearGradient id="SVGID_17_" gradientUnits="userSpaceOnUse" x1="511.6" y1="773.57" x2="511.6" y2="818.69" gradientTransform="matrix(1 0 0 1 0 -392)">
				<stop  offset="0" style="stop-color:#FFFFFF"/>
				<stop  offset="1" style="stop-color:#E0DFBF"/>
			</linearGradient>
			<path class="st67" d="M513.6,426h-4v-41.9c0-1.1,0.9-2,2-2l0,0c1.1,0,2,0.9,2,2V426z"/>
			
				<linearGradient id="SVGID_18_" gradientUnits="userSpaceOnUse" x1="428.93" y1="827.75" x2="511.6" y2="827.75" gradientTransform="matrix(1 0 0 1 0 -392)">
				<stop  offset="0" style="stop-color:#FFFFFF"/>
				<stop  offset="1" style="stop-color:#E0DFBF"/>
			</linearGradient>
			<rect x="429.8" y="431" class="st68" width="88.8" height="9.5"/>
			<polyline class="st69" points="429.8,436.9 455.1,436.9 456.8,435.2 487.9,435.2 491.1,438.4 518.5,438.4 			"/>
		</g>
	</g>
</g>
</svg>
